<svg width="201" height="56" viewBox="0 0 201 56" fill="none" xmlns="http://www.w3.org/2000/svg">
<path d="M52.0854 6C52.0854 6 51.5671 6.37913 51.419 6.68244L51.2709 6.90992V27.6865C51.2709 45.2783 51.2709 48.463 51.2709 48.6905C51.2709 48.918 51.6411 49.2971 51.8633 49.4488H52.0114L60.6751 49.5246H69.5609C69.5609 49.5246 70.0792 48.9938 70.1533 48.7664C70.1533 48.6147 70.2273 48.3872 70.2273 45.5816C70.2273 43.1552 70.2273 42.5485 70.2273 42.3211C70.1533 42.0178 69.8571 41.7145 69.5609 41.5628H69.3388L64.7477 41.487H60.1567V14.1135H64.6737C69.5609 14.1135 69.4869 14.1135 69.7831 13.886C70.0052 13.7343 70.2273 13.3552 70.3014 13.1277C70.3014 12.9761 70.3014 11.9145 70.3014 9.943V6.98575L70.1533 6.75827C70.1533 6.60661 69.9312 6.45496 69.8571 6.30331C69.5609 6 70.3754 6 60.8232 6C53.4183 6 52.2335 6 52.0854 6Z" fill="#223857"/>
<path d="M87.925 6C87.925 6 87.4067 6.37913 87.2586 6.68244L87.1105 6.90992V9.943C87.1105 12.9761 87.1105 12.9761 87.1845 13.2036C87.2586 13.431 87.4807 13.6585 87.7029 13.8102C87.9991 13.9618 87.9991 14.0376 92.8122 14.0376H97.3292V41.487H92.6641H87.9991H87.851C87.851 41.487 87.6288 41.7903 87.4807 41.8661C87.1105 42.2452 87.1845 42.0178 87.1845 45.43C87.1845 47.8564 87.1845 48.5389 87.1845 48.6905C87.2586 48.918 87.6288 49.2971 87.851 49.4488H88.0731L96.7368 49.5246H105.401L105.549 49.4488C105.771 49.2971 106.067 48.9938 106.141 48.7664C106.215 48.5389 106.215 48.0839 106.215 27.7623V6.98575L106.067 6.75827C106.067 6.75827 105.845 6.45496 105.771 6.30331C105.401 6 106.141 6 96.6628 6C89.1838 6 88.0731 6 87.925 6Z" fill="#223857"/>
<path d="M20.837 14.8719L19.8744 15.1752V24.5019V33.8286L20.5408 34.1319C21.5775 34.6627 22.6882 34.966 23.799 35.1177C24.4654 35.1935 25.7983 35.1177 26.3907 35.1177C28.6121 34.6627 30.3153 33.4495 31.2038 31.6297C32.2405 29.5065 32.0924 26.4734 30.9076 24.4261C30.3153 23.3645 29.5007 22.6063 28.39 22.0755C27.3533 21.5447 26.4647 21.393 25.2059 21.4688C23.9471 21.4688 23.1325 21.7722 22.1699 22.3788L21.7997 22.6063V18.5874C21.7997 16.3884 21.7997 14.5686 21.7997 14.5686C21.7997 14.5686 21.3554 14.7203 20.837 14.8719ZM26.6869 23.3645C27.6495 23.6678 28.5381 24.2744 29.0564 25.1085C29.6488 26.0185 29.871 27.0042 29.871 28.3691C29.871 29.9615 29.5007 31.0989 28.6862 31.933C28.1678 32.4637 27.6495 32.7671 26.835 33.0704C25.5761 33.5253 23.5028 33.3737 22.1699 32.8429L21.8737 32.6912V28.5966V24.5019L22.1699 24.2744C22.6882 23.8195 23.4287 23.5162 24.1692 23.3645C24.7616 23.2129 24.9097 23.2129 25.6502 23.2887C26.1685 23.2887 26.3907 23.2887 26.6869 23.3645Z" fill="#223857"/>
<path d="M160.419 20.5588C158.716 22.5303 158.42 22.9095 158.42 23.0611V23.2128H160.567V27.2316C160.567 31.4779 160.567 31.857 160.789 32.4637C160.937 32.9944 161.085 33.2978 161.456 33.6769C161.9 34.1319 162.566 34.3593 163.529 34.3593C164.566 34.3593 165.528 34.1319 166.639 33.6769H166.861V32.6911C166.861 32.2362 166.861 31.857 166.861 31.857C166.861 31.857 166.565 31.9329 166.269 32.0845C165.528 32.3878 164.788 32.5395 164.121 32.5395C163.159 32.5395 162.862 32.3878 162.714 31.6296C162.714 31.4021 162.714 30.6438 162.714 27.3074V23.2886H166.861V21.6204H162.714V18.3599H162.64C162.64 18.3599 162.122 18.8907 160.567 20.7105L160.419 20.5588Z" fill="#223857"/>
<path d="M64.0075 20.5588C64.0075 20.5588 63.8594 20.6347 63.7853 20.7105L63.6372 20.8621V22.6062C63.6372 24.2744 63.6372 24.3502 63.7113 24.426C63.9334 24.6535 63.8594 24.6535 65.9327 24.6535H67.7839V30.4922H65.8587H63.9334L63.7853 30.6438L63.6372 30.7955V32.5395C63.6372 34.2077 63.6372 34.2835 63.7113 34.3593C63.9334 34.5868 63.4891 34.5868 70.4497 34.5868C77.4103 34.5868 77.04 34.5868 77.1881 34.2835C77.2622 34.1318 77.2622 33.9802 77.1881 32.4637C77.1881 30.9471 77.1881 30.7955 77.1141 30.7196C76.966 30.4922 76.8919 30.4922 74.8926 30.4922H73.0414V24.6535H74.8926C76.966 24.6535 76.966 24.6535 77.1141 24.3502C77.1881 24.1985 77.1881 24.0469 77.1141 22.5303C77.1141 21.0138 77.1141 20.8621 77.04 20.7863C76.8919 20.5588 77.2622 20.5588 70.3016 20.5588C66.8213 20.5588 63.8594 20.5588 63.8594 20.5588H64.0075Z" fill="#223857"/>
<path d="M80.1501 20.6344C80.1501 20.6344 79.8539 20.2553 79.8539 27.6105C79.8539 34.1316 79.8539 34.2833 79.9279 34.4349C80.076 34.7382 80.076 34.7382 82.2234 34.7382C84.0747 34.7382 84.2228 34.7382 84.2968 34.6624C84.5189 34.5107 84.5189 34.6624 84.593 31.5535V28.7479L86.8145 31.6293C88.5916 33.9799 89.11 34.5866 89.2581 34.6624H89.4802L91.2574 34.814C93.2567 34.814 93.1826 34.814 93.4048 34.5107C93.4788 34.3591 93.4788 34.2074 93.4788 27.6863C93.4788 20.3311 93.4788 20.8619 93.1826 20.7102C93.0345 20.6344 92.9605 20.6344 91.1093 20.6344C89.0359 20.6344 89.0359 20.6344 88.8138 20.8619C88.7397 20.9377 88.7397 21.0136 88.7397 24.0466V27.1555L86.5183 24.1225C85.3335 22.4543 84.2968 21.0136 84.2227 20.9377C84.0006 20.7102 83.9266 20.7102 82.0013 20.7102C80.2982 20.7102 80.2241 20.7102 80.076 20.7861L80.1501 20.6344Z" fill="#223857"/>
<path d="M116.36 21.0137C115.471 21.0895 114.508 21.317 113.694 21.7719C112.435 22.3786 111.324 23.516 110.806 24.7292C110.288 25.8666 110.066 27.2315 110.214 28.6722C110.51 31.8569 112.731 34.1317 115.989 34.5867C116.582 34.6625 117.841 34.6625 118.507 34.5867C119.099 34.5867 119.47 34.435 120.136 34.2834L120.58 34.1317V33.146C120.58 32.6152 120.58 32.1602 120.58 32.1602C120.58 32.1602 120.358 32.1602 120.136 32.3119C119.618 32.5394 118.803 32.691 118.137 32.7668C117.396 32.8427 116.36 32.7668 115.767 32.691C115.249 32.5394 114.805 32.3877 114.36 32.0844C113.842 31.7811 113.62 31.5536 113.25 31.0986C112.509 30.1887 112.139 29.1271 112.139 27.8381C112.139 25.4875 113.472 23.6676 115.693 23.061C116.212 22.9093 116.212 22.9093 117.026 22.9093C117.693 22.9093 117.989 22.9093 118.359 22.9852C119.025 23.1368 119.766 23.2885 120.21 23.4401L120.506 23.5918V22.606V21.6203L120.136 21.4686C119.692 21.317 118.877 21.1653 118.359 21.0895C117.767 21.0895 116.73 21.0137 116.212 21.0895L116.36 21.0137Z" fill="#223857"/>
<path d="M150.867 21.0138C149.608 21.1655 148.349 21.7721 147.46 22.682L147.164 22.9853V21.4688H145.165V39.4398H147.164V36.5583C147.164 34.966 147.164 33.6769 147.164 33.6769C147.164 33.6769 147.238 33.6769 147.312 33.7527C147.534 33.9044 148.349 34.2835 148.645 34.3594C149.756 34.6627 151.163 34.7385 152.051 34.511C152.866 34.3594 153.681 33.9802 154.347 33.4494C154.791 33.1461 155.384 32.5395 155.754 32.0087C156.42 31.0988 156.865 29.9614 157.013 28.7482C157.087 28.0657 157.013 26.7767 157.013 26.0184C156.568 23.4403 154.865 21.5446 152.57 21.0138C152.125 20.938 151.237 20.8622 150.867 21.0138ZM152.051 22.9853C152.57 23.0612 153.31 23.4403 153.681 23.8194C154.347 24.426 154.791 25.336 155.013 26.4734C155.087 27.0042 155.087 28.4449 155.013 28.9756C154.791 30.1889 154.347 31.023 153.681 31.7054C153.162 32.2362 152.57 32.5395 151.829 32.767C151.533 32.8428 151.385 32.8428 150.719 32.8428C149.904 32.8428 149.608 32.8428 148.867 32.5395C148.275 32.3879 147.683 32.0846 147.312 31.7812H147.164V24.7293L147.46 24.426C147.905 23.9711 148.349 23.5919 148.941 23.3645C149.46 23.137 149.756 22.9853 150.2 22.9095C150.645 22.8337 151.533 22.9095 151.977 22.9095L152.051 22.9853Z" fill="#223857"/>
<path d="M174.414 21.0137C174.414 21.0137 173.748 21.0895 173.525 21.1653C170.267 21.9236 168.268 24.6534 168.49 28.2172C168.564 30.0371 169.156 31.402 170.193 32.5394C171.082 33.4493 172.044 33.9801 173.303 34.3592C174.044 34.5867 174.562 34.5867 175.451 34.5867C176.561 34.5867 177.376 34.3592 178.339 33.9042C179.671 33.2218 180.56 32.3877 181.226 31.0228C181.523 30.4162 181.671 29.8096 181.819 29.1271C181.893 28.5205 181.893 27.1556 181.819 26.4732C181.597 25.0325 181.004 23.8193 180.042 22.9093C178.931 21.7719 177.524 21.1653 175.821 21.0137C175.228 21.0137 175.006 21.0137 174.414 21.0137ZM176.191 22.8335C177.45 23.061 178.413 23.8193 179.079 24.805C179.671 25.7149 179.894 26.549 179.894 27.8381C179.894 28.6722 179.894 28.9755 179.671 29.6579C179.005 31.7811 177.154 33.0701 174.932 32.9185C172.637 32.7668 170.934 31.2503 170.563 28.8997C170.489 28.2931 170.489 27.2315 170.563 26.7007C170.637 26.2457 170.86 25.6391 171.008 25.26C171.674 23.9709 172.859 23.061 174.266 22.8335C174.784 22.7577 175.747 22.7577 176.191 22.8335Z" fill="#223857"/>
<path d="M129.837 21.0896C127.541 21.4687 126.43 22.227 125.542 24.1985L125.32 24.7293V23.1369V21.5446H124.357H123.394V34.2076H124.357H125.32V31.1746C125.32 27.8382 125.32 27.6865 125.616 26.8524C125.912 25.8667 126.208 25.3359 126.801 24.7293C127.615 23.8952 128.504 23.5161 129.911 23.4402H130.281V21.1654H130.133H129.911L129.837 21.0896Z" fill="#223857"/>
<path d="M39.7195 21.393C39.7195 21.393 39.4973 21.393 39.2752 21.393C38.1645 21.5446 37.1278 21.9996 36.3132 22.6062C35.8689 22.9095 35.2025 23.6678 34.9063 24.1227C34.462 24.881 34.1658 25.5634 33.9437 26.5492C33.8696 27.08 33.8696 27.1558 33.8696 28.1416C33.8696 29.279 33.8696 29.5823 34.0918 30.3405C34.7582 32.9945 36.7575 34.7385 39.6454 35.1176C40.0897 35.1176 41.4966 35.1176 42.015 35.1176C42.9776 35.0418 44.3105 34.6627 45.2731 34.2835H45.4953V33.1461V32.1604L44.9769 32.4637C43.6441 33.1461 42.089 33.4494 40.534 33.3736C39.8676 33.3736 39.4973 33.2978 38.9049 33.0703C37.498 32.5395 36.4613 31.4779 36.0911 29.8856C36.017 29.4306 35.943 28.824 35.8689 28.4449V28.2932H46.532V27.9899C46.532 27.5349 46.4579 26.7008 46.3098 26.1701C45.6434 23.5161 43.8662 21.6963 41.4226 21.3171C41.1264 21.3171 40.0157 21.3171 39.7935 21.3171L39.7195 21.393ZM41.2005 23.137C42.015 23.2886 42.7555 23.5919 43.2738 24.1227C43.8662 24.7293 44.3105 25.6393 44.3845 26.5492V26.8525H40.1638C36.6094 26.8525 35.8689 26.8525 35.8689 26.8525C35.8689 26.7008 36.017 26.0942 36.1651 25.7909C36.4613 25.1085 36.9797 24.426 37.5721 24.0469C38.5347 23.3645 39.9416 23.0612 41.1264 23.2128L41.2005 23.137Z" fill="#223857"/>
<path d="M130.799 21.5444C130.799 21.5444 131.984 24.4259 133.391 27.8381L135.983 34.0559L135.761 34.5867C135.538 35.0416 133.761 39.2879 133.687 39.4396C133.687 39.4396 133.909 39.4396 134.65 39.4396H135.613L139.315 30.5678C141.388 25.6391 143.017 21.6203 143.091 21.6203C143.091 21.6203 143.017 21.6203 142.129 21.6203H141.166L140.796 22.4544C140.574 22.9093 139.833 24.805 139.093 26.6248C136.871 31.9327 137.019 31.7052 136.945 31.6294C136.945 31.6294 135.983 29.3546 134.872 26.6248L132.873 21.6961H131.836C130.799 21.6961 130.725 21.6961 130.799 21.6961V21.5444Z" fill="#223857"/>
</svg>
