<svg width="216" height="30" viewBox="0 0 216 30" fill="none" xmlns="http://www.w3.org/2000/svg">
<mask id="mask0_1608_16634" style="mask-type:luminance" maskUnits="userSpaceOnUse" x="0" y="0" width="216" height="30">
<path d="M215.543 0.766113H0V29.2341H215.543V0.766113Z" fill="white"/>
</mask>
<g mask="url(#mask0_1608_16634)">
<path d="M42.8998 20.6558H32.697V1.06982H42.4177C47.1576 1.06982 49.9694 3.0436 49.9694 6.30793C49.9694 8.05396 49.166 9.49634 47.8003 10.4073C49.8087 11.2424 50.9334 12.9884 50.9334 15.1899C50.9334 18.682 48.1216 20.6558 42.9801 20.6558H42.8998ZM37.6779 16.7841H42.5784C45.4705 16.7841 45.7919 15.6454 45.7919 14.7344C45.7919 13.368 44.7475 12.6847 42.5784 12.6847H37.6779V16.7841ZM37.6779 8.88902H41.7751C43.7835 8.88902 44.8278 8.20579 44.8278 6.91524C44.8278 6.45975 44.8278 5.01738 41.7751 5.01738H37.6779V8.88902Z" fill="#2D86E9"/>
<path d="M58.8063 20.6558H53.7451V1.06982H58.8063V20.6558Z" fill="#2D86E9"/>
<path d="M72.7046 20.6558H67.6434V5.24512H61.4575V1.06982H78.8102V5.24512H72.6243V20.6558H72.7046Z" fill="#2D86E9"/>
<path d="M90.2985 20.9594C84.1126 20.9594 79.6138 16.7082 79.6138 10.8627C79.6138 5.01733 84.1126 0.766113 90.3789 0.766113C93.753 0.766113 96.6451 1.98075 98.4929 4.25818L98.6535 4.48592L95.3597 7.52251L95.1187 7.29476C93.9137 5.85239 92.307 5.16916 90.5395 5.16916C87.0851 5.16916 84.675 7.52251 84.675 10.9387C84.675 14.3548 87.0851 16.7082 90.5395 16.7082C92.3873 16.7082 93.9137 16.0249 95.1187 14.5826L95.3597 14.3548L98.6535 17.3914L98.4929 17.6191C96.6451 19.8966 93.753 21.1112 90.2985 21.1112V20.9594Z" fill="#2D86E9"/>
<path d="M110.222 20.9594C103.955 20.9594 99.3762 16.7082 99.3762 10.8627C99.3762 5.01733 103.955 0.766113 110.222 0.766113C116.488 0.766113 121.067 5.01733 121.067 10.8627C121.067 16.7082 116.488 20.9594 110.222 20.9594ZM110.222 5.09324C106.928 5.09324 104.518 7.52251 104.518 10.8627C104.518 14.203 106.928 16.6322 110.222 16.6322C113.515 16.6322 115.926 14.203 115.926 10.8627C115.926 7.52251 113.515 5.09324 110.222 5.09324Z" fill="#2D86E9"/>
<path d="M128.538 20.6558H123.477V1.06982H128.538V20.6558Z" fill="#2D86E9"/>
<path d="M149.908 20.6558H145.811L136.733 9.72408V20.6558H131.752V1.06982H135.849L144.927 12.0015V1.06982H149.908V20.6558Z" fill="#2D86E9"/>
<path d="M157.781 20.6558H152.72V1.06982H157.781V20.6558Z" fill="#2D86E9"/>
<path d="M168.466 20.9594C165.413 20.9594 162.28 20.0484 160.432 18.6819L160.271 18.5301L162.039 14.6585L162.36 14.8862C163.967 16.1008 166.377 16.7841 168.546 16.7841C169.832 16.7841 171.92 16.5563 171.92 15.038C171.92 13.8234 170.073 13.3679 167.984 12.9124C164.77 12.1533 160.753 11.2423 160.753 6.91519C160.673 3.19538 163.967 0.766113 169.108 0.766113C171.679 0.766113 174.17 1.37343 175.937 2.51215L176.178 2.66398L174.571 6.53562L174.25 6.38379C172.563 5.47281 170.796 4.94141 169.108 4.94141C166.939 4.94141 165.734 5.62464 165.734 6.83928C165.734 8.05391 167.582 8.5094 169.671 8.96488C172.884 9.72403 176.901 10.635 176.901 14.8862C176.901 17.6951 174.652 21.0353 168.466 21.0353V20.9594Z" fill="#2D86E9"/>
<path d="M189.353 20.6558H184.292V5.24512H178.106V1.06982H195.459V5.24512H189.273V20.6558H189.353Z" fill="#2D86E9"/>
<path d="M198.431 5.47266C198.431 5.47266 197.708 5.169 197.708 4.78943C197.708 4.40986 198.03 4.1062 198.431 4.1062C198.833 4.1062 199.154 4.40986 199.154 4.78943C199.154 5.169 198.833 5.47266 198.431 5.47266Z" fill="#2D86E9"/>
<path d="M202.448 5.47287C201.002 5.47287 200.038 4.56189 200.038 3.27135C200.038 1.9808 201.082 1.06982 202.448 1.06982C203.252 1.06982 203.894 1.37348 204.296 1.82897L203.493 2.58811C203.493 2.58811 202.85 2.05671 202.529 2.05671C201.805 2.05671 201.243 2.58811 201.243 3.27135C201.243 3.95458 201.805 4.48598 202.529 4.48598C202.93 4.48598 203.252 4.33415 203.493 4.03049L204.296 4.63781C203.894 5.16921 203.252 5.47287 202.448 5.47287Z" fill="#2D86E9"/>
<path d="M207.188 5.47287C205.742 5.47287 204.698 4.56189 204.698 3.27135C204.698 1.9808 205.742 1.06982 207.188 1.06982C208.634 1.06982 209.678 1.9808 209.678 3.27135C209.678 4.56189 208.634 5.47287 207.188 5.47287ZM207.188 2.05671C206.465 2.05671 205.983 2.58811 205.983 3.27135C205.983 3.95458 206.465 4.48598 207.188 4.48598C207.911 4.48598 208.473 3.95458 208.473 3.27135C208.473 2.58811 207.991 2.05671 207.188 2.05671Z" fill="#2D86E9"/>
<path d="M214.499 5.32106V2.8918L213.213 4.86558H212.731L211.446 2.8918V5.24515H210.482V1.22168H211.285L212.892 3.72686L214.499 1.22168H215.302V5.32106H214.418H214.499Z" fill="#2D86E9"/>
<path d="M215.543 5.39697H214.418V3.19544L213.294 4.94148H212.731L211.607 3.27136V5.39697H210.482V1.14575H211.446L212.972 3.57502L214.499 1.14575H215.463V5.39697H215.543Z" fill="#2D86E9"/>
<path d="M32.1348 26.577C32.1348 25.1346 33.2595 24.0718 34.8662 24.0718C35.5892 24.0718 36.3123 24.2995 36.7943 24.755L36.4729 25.0587C36.0713 24.6791 35.5089 24.4513 34.9465 24.4513C33.6612 24.4513 32.7775 25.2864 32.7775 26.501C32.7775 27.7157 33.7415 28.5507 34.9465 28.5507C35.5089 28.5507 36.0713 28.3989 36.4729 27.9434L36.7943 28.2471C36.3123 28.7026 35.6696 28.9303 34.8662 28.9303C33.3398 28.9303 32.1348 27.8675 32.1348 26.4251V26.577Z" fill="#2D86E9"/>
<path d="M41.4538 29.0062L40.2487 27.412C40.2487 27.412 40.0077 27.412 39.847 27.412H38.4813V28.9303H37.9189V24.0718H39.847C41.1324 24.0718 41.9358 24.6791 41.9358 25.7419C41.9358 26.501 41.5341 27.0324 40.7307 27.2602L42.0161 28.9303H41.4538V29.0062ZM41.4538 25.8178C41.4538 25.0587 40.8914 24.6032 39.847 24.6032H38.4813V27.0324H39.847C40.8914 27.0324 41.4538 26.577 41.4538 25.8178Z" fill="#2D86E9"/>
<path d="M44.9885 27.3361V29.0062H44.4262V27.3361L42.3374 24.1477H42.8998L44.6672 26.8806L46.4346 24.1477H46.9969L44.9082 27.3361H44.9885Z" fill="#2D86E9"/>
<path d="M51.8972 25.8178C51.8972 26.8806 51.0938 27.4879 49.8084 27.4879H48.4427V29.0062H47.8804V24.1477H49.8084C51.0938 24.1477 51.8972 24.755 51.8972 25.8178ZM51.3348 25.8178C51.3348 25.0587 50.7725 24.6032 49.7281 24.6032H48.3624V27.0325H49.7281C50.7725 27.0325 51.3348 26.577 51.3348 25.8178Z" fill="#2D86E9"/>
<path d="M53.9058 24.6032H52.0581V24.1477H56.2356V24.6032H54.3879V29.0062H53.8255V24.6032H53.9058Z" fill="#2D86E9"/>
<path d="M56.6375 26.577C56.6375 25.1346 57.7622 24.0718 59.3689 24.0718C60.9756 24.0718 62.1003 25.1346 62.1003 26.577C62.1003 28.0193 60.9756 29.0821 59.3689 29.0821C57.7622 29.0821 56.6375 28.0193 56.6375 26.577ZM61.538 26.577C61.538 25.4382 60.6543 24.5273 59.3689 24.5273C58.0835 24.5273 57.1998 25.3623 57.1998 26.577C57.1998 27.7916 58.1638 28.6266 59.3689 28.6266C60.5739 28.6266 61.538 27.7916 61.538 26.577Z" fill="#2D86E9"/>
<path d="M62.9033 26.577C62.9033 25.1346 64.028 24.0718 65.6348 24.0718C66.3578 24.0718 67.0808 24.2995 67.5628 24.755L67.2415 25.0587C66.8398 24.6791 66.2775 24.4513 65.7151 24.4513C64.4297 24.4513 63.546 25.2864 63.546 26.501C63.546 27.7157 64.5101 28.5507 65.7151 28.5507C66.2775 28.5507 66.8398 28.3989 67.2415 27.9434L67.5628 28.2471C67.0808 28.7026 66.4381 28.9303 65.6348 28.9303C64.1084 28.9303 62.9033 27.8675 62.9033 26.4251V26.577Z" fill="#2D86E9"/>
<path d="M68.6077 26.9565V24.1477H69.17V26.9565C69.17 28.0953 69.7324 28.6267 70.7768 28.6267C71.8211 28.6267 72.3835 28.0953 72.3835 26.9565V24.1477H72.9458V26.9565C72.9458 28.323 72.1425 29.0821 70.8571 29.0821C69.5717 29.0821 68.7683 28.323 68.7683 26.9565H68.6077Z" fill="#2D86E9"/>
<path d="M78.0871 29.0062L76.882 27.412C76.882 27.412 76.641 27.412 76.4803 27.412H75.1146V28.9303H74.5522V24.0718H76.4803C77.7657 24.0718 78.5691 24.6791 78.5691 25.7419C78.5691 26.501 78.1674 27.0324 77.364 27.2602L78.6494 28.9303H78.0871V29.0062ZM78.0871 25.8178C78.0871 25.0587 77.5247 24.6032 76.4803 24.6032H75.1146V27.0324H76.4803C77.5247 27.0324 78.0871 26.577 78.0871 25.8178Z" fill="#2D86E9"/>
<path d="M83.4699 29.0062L82.2648 27.412C82.2648 27.412 82.0238 27.412 81.8631 27.412H80.4974V28.9303H79.9351V24.0718H81.8631C83.1485 24.0718 83.9519 24.6791 83.9519 25.7419C83.9519 26.501 83.5502 27.0324 82.7468 27.2602L84.0322 28.9303H83.4699V29.0062ZM83.4699 25.8178C83.4699 25.0587 82.9075 24.6032 81.8631 24.6032H80.4974V27.0324H81.8631C82.9075 27.0324 83.4699 26.577 83.4699 25.8178Z" fill="#2D86E9"/>
<path d="M88.9325 28.5507V29.0062H85.3174V24.1477H88.8522V24.6032H85.8797V26.3492H88.5309V26.8047H85.8797V28.6267H89.0129L88.9325 28.5507Z" fill="#2D86E9"/>
<path d="M94.5562 24.1477V29.0062H94.0742L90.7804 25.0587V29.0062H90.218V24.1477H90.7L93.9938 28.0953V24.1477H94.5562Z" fill="#2D86E9"/>
<path d="M95.8418 26.577C95.8418 25.1346 96.9665 24.0718 98.5732 24.0718C99.2963 24.0718 100.019 24.2995 100.501 24.755L100.18 25.0587C99.7783 24.6791 99.2159 24.4513 98.6536 24.4513C97.3682 24.4513 96.4845 25.2864 96.4845 26.501C96.4845 27.7157 97.4485 28.5507 98.6536 28.5507C99.2159 28.5507 99.7783 28.3989 100.18 27.9434L100.501 28.2471C100.019 28.7026 99.3766 28.9303 98.5732 28.9303C97.0468 28.9303 95.8418 27.8675 95.8418 26.4251V26.577Z" fill="#2D86E9"/>
<path d="M103.313 27.3361V29.0062H102.751V27.3361L100.662 24.1477H101.224L102.992 26.8806L104.759 24.1477H105.321L103.233 27.3361H103.313Z" fill="#2D86E9"/>
<path d="M113.033 24.1477V29.0062H112.551L109.258 25.0587V29.0062H108.695V24.1477H109.177L112.471 28.0953V24.1477H113.033Z" fill="#2D86E9"/>
<path d="M118.416 28.5507V29.0062H114.801V24.1477H118.336V24.6032H115.363V26.3492H118.014V26.8047H115.363V28.6267H118.497L118.416 28.5507Z" fill="#2D86E9"/>
<path d="M126.771 24.1477L125.004 29.0062H124.441L122.915 24.8309L121.389 29.0062H120.826L119.059 24.1477H119.621L121.148 28.323L122.674 24.1477H123.156L124.682 28.3989L126.209 24.1477H126.771Z" fill="#2D86E9"/>
<path d="M127.253 28.3989L127.494 28.0193C127.494 28.0193 128.539 28.6266 129.181 28.6266C130.145 28.6266 130.547 28.2471 130.547 27.7916C130.547 26.4251 127.334 27.2602 127.334 25.4382C127.334 24.755 127.896 24.0718 129.262 24.0718C129.824 24.0718 130.467 24.2236 130.868 24.5273L130.708 24.9068C130.226 24.6032 129.744 24.5273 129.262 24.5273C128.298 24.5273 127.896 24.9068 127.896 25.4382C127.896 26.8047 131.109 25.9696 131.109 27.7157C131.109 28.3989 130.467 29.0821 129.181 29.0821C128.378 29.0821 127.655 28.8544 127.253 28.4748V28.3989Z" fill="#2D86E9"/>
<path d="M138.58 29.0821L137.857 28.3989C137.456 28.8544 136.813 29.0821 136.17 29.0821C135.126 29.0821 134.403 28.5507 134.403 27.8675C134.403 27.2602 134.724 26.8806 135.688 26.3492C135.206 25.8937 135.046 25.5901 135.046 25.2105C135.046 24.6032 135.528 24.1477 136.331 24.1477C137.054 24.1477 137.536 24.5273 137.536 25.1346C137.536 25.5901 137.215 25.9697 136.411 26.4251L137.857 27.7916C137.857 27.7916 138.098 27.1843 138.179 26.8806L138.58 27.0325C138.5 27.4879 138.339 27.8675 138.098 28.1712L138.821 28.8544L138.5 29.1581L138.58 29.0821ZM137.536 28.0953L136.01 26.577C135.206 27.0325 134.965 27.3361 134.965 27.7916C134.965 28.323 135.447 28.7026 136.251 28.7026C136.813 28.7026 137.295 28.5507 137.616 28.1712L137.536 28.0953ZM135.528 25.1346C135.528 25.1346 135.608 25.5901 136.09 26.0456C136.813 25.666 137.054 25.3623 137.054 25.0587C137.054 24.755 136.813 24.4514 136.331 24.4514C135.849 24.4514 135.528 24.755 135.528 25.1346Z" fill="#2D86E9"/>
<path d="M143.32 24.6032H141.473V24.1477H145.65V24.6032H143.802V29.0062H143.24V24.6032H143.32Z" fill="#2D86E9"/>
<path d="M150.229 28.5507V29.0062H146.614V24.1477H150.149V24.6032H147.176V26.3492H149.827V26.8047H147.176V28.6267H150.309L150.229 28.5507Z" fill="#2D86E9"/>
<path d="M151.033 26.577C151.033 25.1346 152.157 24.0718 153.764 24.0718C154.487 24.0718 155.21 24.2995 155.692 24.755L155.371 25.0587C154.969 24.6791 154.407 24.4513 153.844 24.4513C152.559 24.4513 151.675 25.2864 151.675 26.501C151.675 27.7157 152.639 28.5507 153.844 28.5507C154.407 28.5507 154.969 28.3989 155.371 27.9434L155.692 28.2471C155.21 28.7026 154.568 28.9303 153.764 28.9303C152.238 28.9303 151.033 27.8675 151.033 26.4251V26.577Z" fill="#2D86E9"/>
<path d="M161.155 24.1477V29.0062H160.593V26.7288H157.379V29.0062H156.817V24.1477H157.379V26.3492H160.593V24.1477H161.155Z" fill="#2D86E9"/>
<path d="M167.18 24.1477V29.0062H166.698L163.404 25.0587V29.0062H162.842V24.1477H163.324L166.618 28.0953V24.1477H167.18Z" fill="#2D86E9"/>
<path d="M168.466 26.577C168.466 25.1346 169.591 24.0718 171.197 24.0718C172.804 24.0718 173.929 25.1346 173.929 26.577C173.929 28.0193 172.804 29.0821 171.197 29.0821C169.591 29.0821 168.466 28.0193 168.466 26.577ZM173.366 26.577C173.366 25.4382 172.483 24.5273 171.197 24.5273C169.912 24.5273 169.028 25.3623 169.028 26.577C169.028 27.7916 169.992 28.6266 171.197 28.6266C172.402 28.6266 173.366 27.7916 173.366 26.577Z" fill="#2D86E9"/>
<path d="M175.134 24.1477H175.696V28.5507H178.588V29.0062H175.134V24.1477Z" fill="#2D86E9"/>
<path d="M178.99 26.577C178.99 25.1346 180.115 24.0718 181.721 24.0718C183.328 24.0718 184.453 25.1346 184.453 26.577C184.453 28.0193 183.328 29.0821 181.721 29.0821C180.115 29.0821 178.99 28.0193 178.99 26.577ZM183.891 26.577C183.891 25.4382 183.007 24.5273 181.721 24.5273C180.436 24.5273 179.552 25.3623 179.552 26.577C179.552 27.7916 180.516 28.6266 181.721 28.6266C182.926 28.6266 183.891 27.7916 183.891 26.577Z" fill="#2D86E9"/>
<path d="M189.273 26.577H189.835V28.4748C189.353 28.8544 188.63 29.0821 187.907 29.0821C186.3 29.0821 185.176 28.0193 185.176 26.577C185.176 25.1346 186.3 24.0718 187.907 24.0718C188.711 24.0718 189.353 24.2995 189.835 24.755L189.514 25.0587C189.112 24.6791 188.55 24.4513 187.988 24.4513C186.702 24.4513 185.738 25.2864 185.738 26.501C185.738 27.7157 186.702 28.5507 187.907 28.5507C188.389 28.5507 188.871 28.4748 189.273 28.1712V26.501V26.577Z" fill="#2D86E9"/>
<path d="M193.129 27.3361V29.0062H192.567V27.3361L190.478 24.1477H191.04L192.808 26.8806L194.575 24.1477H195.138L193.049 27.3361H193.129Z" fill="#2D86E9"/>
<path fill-rule="evenodd" clip-rule="evenodd" d="M6.90895 29.2341L0 22.9332V1.06982H29.8049V29.2341H6.90895ZM18.7184 9.34451C20.9678 10.1037 22.6549 11.1665 22.3336 13.2161C22.0926 14.7344 21.2089 15.4177 20.0841 15.7213C21.6909 16.4805 22.4942 17.6951 21.6909 19.8207C20.7268 22.4018 18.4774 22.6295 15.4246 22.0981L14.7016 24.907L12.9342 24.4515L13.6572 21.7186C13.1752 21.6427 12.6932 21.4908 12.2112 21.339L11.4881 24.1478L9.72073 23.6924L10.4438 20.8835C10.4438 20.8835 10.1224 20.8076 9.96173 20.7317C9.72073 20.7317 9.47972 20.5799 9.15837 20.5799L6.82861 20.0485L7.71231 18.1506L8.9977 18.4542C9.47972 18.6061 9.72073 18.2265 9.80106 18.0747L11.0061 13.6716L11.8095 10.4832C11.8095 10.4832 11.7291 9.64816 11.0061 9.49634L9.72073 9.19268L10.2027 7.37073L12.6932 7.97804C12.6932 7.97804 13.2555 8.12987 13.5769 8.20579C13.6572 8.20579 13.7376 8.20579 13.8179 8.20579L14.5409 5.39695L16.3083 5.85244L15.5853 8.58536C15.5853 8.58536 15.8263 8.58536 15.9066 8.58536C16.3083 8.66128 16.6297 8.73719 17.0314 8.8131L17.7544 6.08018L19.5218 6.53567L18.7988 9.34451H18.7184ZM13.0949 19.3652C14.5409 19.7448 17.7544 20.5039 18.2364 18.6061C18.7184 16.6323 15.6656 16.025 14.1392 15.6454C13.9786 15.6454 13.8179 15.6454 13.6572 15.5695L12.6932 19.2893C12.6932 19.2893 12.9342 19.2893 13.0145 19.3652H13.0949ZM14.4606 13.9753C15.6656 14.279 18.3167 14.9622 18.7988 13.2161C19.2808 11.3942 16.71 10.8628 15.4246 10.6351C15.2639 10.6351 15.1836 10.6351 15.0229 10.5591L14.1392 13.8994C14.1392 13.8994 14.2999 13.8994 14.4606 13.8994V13.9753Z" fill="#2D86E9"/>
</g>
</svg>
