<svg width="201" height="56" viewBox="0 0 201 56" fill="none" xmlns="http://www.w3.org/2000/svg">
<path d="M14.119 38.624C14.119 37.6028 13.9595 36.4246 13.9595 35.4034V19.0651C13.9595 17.8868 14.3582 17.0228 15.5543 16.3158C21.0565 13.4095 26.5587 10.189 32.0609 7.20408C32.6191 6.96843 33.3368 6.96843 33.895 7.04698C37.9619 9.08927 42.0287 11.4458 46.0956 13.6452C46.255 13.6452 46.255 13.8023 46.4943 14.0379C41.1515 21.5001 35.7291 29.0409 30.3864 36.6602C30.6256 36.6602 30.9445 36.8173 31.1838 36.8173H37.0847C37.7226 36.8173 38.1213 36.5817 38.5201 36.0318C42.8261 29.9835 47.2119 23.8566 51.3585 17.9654C51.518 17.8083 51.5978 17.7297 51.9167 17.337C52.0762 18.2796 52.156 18.908 52.156 19.6935C52.3154 23.4639 52.3154 27.3128 52.3952 31.0832C52.3952 33.2826 52.2357 35.482 52.156 37.5243C52.156 38.3098 51.7572 38.9382 51.1193 39.3309C45.4576 42.5515 39.7959 45.6935 34.214 48.914C33.8153 49.1496 33.0178 49.1496 32.6191 48.914C28.3928 46.7146 24.2462 44.3581 20.1794 42.1587C20.1794 42.1587 20.0199 42.0016 20.0199 41.9231C25.3626 34.4608 30.7851 26.9201 36.2873 19.3007H28.951C28.951 19.3007 28.3928 19.6935 28.1536 19.9291C24.0867 25.5847 19.8604 31.3974 15.7935 37.1315C15.3948 37.6814 15.1556 38.1527 14.7569 38.7025H14.119V38.624Z" fill="#2D86E9"/>
<path d="M156.459 27.4698C158.691 28.4124 159.568 30.062 159.489 32.4185C159.329 34.068 157.814 35.639 155.821 36.1889C154.864 36.4245 153.987 36.4245 152.95 36.4245H146.012C145.454 36.4245 145.055 36.4245 145.055 35.639V20.0076C145.055 20.0076 145.055 19.772 145.215 19.4578H149.282C151.355 19.6149 153.508 19.4578 155.422 19.8505C157.096 20.0862 158.452 21.1073 158.851 22.8354C159.25 24.642 158.612 26.2916 156.857 27.2342C156.698 27.3913 156.618 27.3913 156.459 27.4698ZM149.122 33.0469C150.797 33.0469 152.392 33.204 153.987 33.0469C154.784 32.8898 155.422 32.2614 155.581 31.3973C155.581 30.4547 155.023 29.8263 154.146 29.7478C152.551 29.5907 150.877 29.5121 149.282 29.5121C149.122 30.7689 149.122 31.9472 149.122 33.1254V33.0469ZM149.122 26.213C150.558 26.213 151.993 26.3701 153.428 26.213C154.465 26.0559 154.864 25.4275 154.864 24.4064C154.864 23.3853 154.066 22.9925 153.269 22.8354C151.993 22.6783 150.478 22.8354 149.043 22.8354V26.213H149.122Z" fill="#2D86E9"/>
<path d="M112.362 19.6151C113.797 24.171 115.153 28.6483 116.588 33.2042H116.827C118.262 28.6483 119.618 24.171 121.053 19.6151H123.525C122.329 22.9927 121.293 26.3704 120.097 29.6695C119.459 31.6332 118.661 33.5184 118.103 35.6392C117.864 36.8175 116.907 36.5818 116.109 36.5818C115.472 36.5818 115.073 36.3462 114.913 35.6392C113.717 31.4761 112.441 27.4701 111.006 22.9927C110.448 24.4066 110.049 25.742 109.73 26.8417C108.773 29.8266 107.896 32.6544 106.939 35.6392C106.78 36.2676 106.381 36.5818 105.743 36.5818C105.105 36.4247 104.148 36.9746 103.909 35.9534C102.075 30.5335 100.4 25.1921 98.5662 19.7722C98.7256 19.7722 98.7257 19.6151 98.8054 19.6151C101.038 19.458 101.198 19.458 101.836 21.5788C103.032 25.3492 104.228 29.0411 105.265 32.8115C105.265 32.9686 105.424 33.0471 105.504 33.3613C106.7 29.3553 107.976 25.5063 109.172 21.5788C110.129 18.9867 109.411 19.6151 112.282 19.6151H112.362Z" fill="#2D86E9"/>
<path d="M189.312 31.0834C190.11 31.8689 190.748 32.6544 191.545 33.4399C188.435 37.2103 182.853 37.6816 179.185 34.6967C174.959 31.2405 174.959 25.2707 178.388 21.736C181.896 18.2798 188.196 18.3583 191.545 22.1287C190.907 23.0713 190.11 23.9353 189.312 24.8779C187.877 23.4641 186.282 22.5215 184.289 22.8357C183.093 22.9928 182.056 23.4641 181.258 24.4066C179.584 26.2133 179.424 29.3553 181.019 31.2405C183.093 33.6755 185.485 33.6755 189.312 31.0834Z" fill="#2D86E9"/>
<path d="M68.0248 23.8569V36.4248H65.6326V19.6937C67.2274 19.301 68.2641 19.6937 69.1412 20.9505C71.6132 24.5638 74.4042 28.1771 77.2749 32.1046V19.5366H79.6672V36.1892C77.9926 36.739 77.5939 36.4248 76.637 35.168C73.846 31.3976 71.1348 27.7843 68.5033 24.014C68.3438 24.014 68.2641 23.8569 67.9451 23.7783L68.0248 23.8569Z" fill="#2D86E9"/>
<path d="M94.8978 29.0408H86.7641V34.068H96.1737V36.2674H84.3718V19.4578H96.0142V21.5001H86.8438V26.5272H94.9775C94.818 27.4698 94.8181 28.1768 94.8181 28.9623L94.8978 29.0408Z" fill="#2D86E9"/>
<path d="M175.118 19.4579L175.278 19.6936C175.437 21.8406 174.427 22.9141 172.247 22.9141H170.254V36.2676H166.346V22.9141H162.28C161.323 22.9141 161.083 22.6785 161.083 21.7359C161.083 20.1649 161.881 19.3794 163.476 19.3794H175.118V19.4579Z" fill="#2D86E9"/>
<path d="M124.721 33.8327C125.12 33.0472 125.519 32.4188 125.758 31.7904C127.592 33.4399 129.665 34.3825 132.217 34.2254C133.892 34.0683 135.008 33.0472 134.849 31.7904C134.689 30.6121 133.892 30.1408 133.014 29.7481C131.579 29.1982 130.144 28.8055 128.788 28.3342C126.555 27.3916 125.519 26.1348 125.758 23.3855C125.917 21.8145 127.193 20.4006 129.267 19.9293C132.137 19.1438 134.769 19.7722 137.241 21.1861C136.842 21.9716 136.603 22.6 136.284 23.1499C134.609 22.7571 133.014 22.2073 131.42 21.9716C130.861 21.8145 130.223 21.9716 129.825 22.2073C129.267 22.6 128.629 23.1499 128.389 23.7783C128.15 24.7209 128.629 25.4278 129.586 25.8206C131.18 26.449 132.695 26.9988 134.29 27.6272C137.56 28.884 138.118 31.0834 137.161 33.6756C136.523 35.4822 134.769 36.4248 132.855 36.6604C129.745 36.8961 126.954 36.032 124.562 33.8327H124.721Z" fill="#2D86E9"/>
</svg>
