<svg width="260" height="50" viewBox="0 0 260 50" fill="none" xmlns="http://www.w3.org/2000/svg">
<g clip-path="url(#clip0_1608_16734)">
<path d="M72.7283 35.1571C67.9518 35.1571 64.9919 30.8748 64.9919 24.9499C64.9919 19.0838 67.4829 14.7134 72.6988 14.7134C76.1273 14.7134 78.3837 16.9133 78.7945 19.817H86.7653C86.3545 16.2093 84.743 13.0416 81.9299 10.9298C79.6441 9.1699 76.4792 8.08472 72.7283 8.08472C63.1163 8.08472 56.8745 15.3587 56.8745 24.9499C56.8745 34.5998 63.3215 41.6685 72.7871 41.6685C77.3288 41.6685 80.6402 40.4073 83.102 38.0022C85.2996 35.8904 86.7653 32.9572 86.97 29.7602H78.9992C78.648 32.8986 76.3032 35.1571 72.7283 35.1571Z" fill="#262626"/>
<path d="M101.681 17.2651C94.2966 17.2651 89.3442 22.5447 89.3442 29.4961C89.3442 36.4475 94.2966 41.7271 101.681 41.7271C109.124 41.7271 113.989 36.4475 113.989 29.4961C113.989 22.5447 109.124 17.2651 101.681 17.2651ZM101.652 36.4769C98.4576 36.4769 96.7872 33.6905 96.7872 29.4961C96.7872 25.3018 98.4576 22.4567 101.652 22.4567C104.846 22.4567 106.575 25.3018 106.575 29.4961C106.546 33.6905 104.846 36.4769 101.652 36.4769Z" fill="#262626"/>
<path d="M124.416 14.8103C125.984 13.2411 125.984 10.6969 124.416 9.12761C122.847 7.55837 120.306 7.55837 118.738 9.12761C117.17 10.6969 117.17 13.2411 118.738 14.8103C120.306 16.3795 122.847 16.3795 124.416 14.8103Z" fill="#262626"/>
<path d="M115.191 23.0729H118.267V40.9941H125.594V17.8813H115.191V23.0729Z" fill="#262626"/>
<path d="M143.616 17.2065C140.422 17.2065 138.194 18.5557 136.495 21.0489H136.349V17.8812H129.286V40.9646H136.642V28.2056C136.642 25.3605 138.253 23.3367 140.686 23.3367C143.089 23.3367 144.29 25.0085 144.29 27.443V40.9646H151.645V25.9472C151.645 20.8142 148.656 17.2065 143.616 17.2065Z" fill="#262626"/>
<path d="M168.876 8.72998H155.133V40.9647H168.378C172.422 40.9647 175.675 39.9381 178.196 38.0315C181.8 35.2745 183.792 30.7282 183.792 25.038C183.792 15.1828 177.785 8.72998 168.876 8.72998ZM167.792 34.2772H163.104V15.4174H167.88C172.891 15.4174 175.734 19.2011 175.734 25.0673C175.704 30.9628 173.008 34.2772 167.792 34.2772Z" fill="#262626"/>
<path d="M205.565 20.257C203.573 18.4678 200.965 17.3826 197.683 17.3826C190.649 17.3826 185.843 22.6621 185.843 29.5549C185.843 36.5356 190.532 41.8152 198.152 41.8152C201.082 41.8152 203.426 41.0526 205.36 39.7034C207.382 38.2955 208.73 36.3303 209.228 34.2478H202.078C201.434 35.6851 200.173 36.5356 198.239 36.5356C195.221 36.5356 193.521 34.5998 193.052 31.4907H209.639C209.668 26.7684 208.32 22.7794 205.565 20.257ZM193.082 27.0911C193.58 24.334 195.016 22.5742 197.8 22.5742C200.173 22.5742 201.903 24.334 202.166 27.0911H193.082Z" fill="#262626"/>
<path d="M224.115 26.5338C221.184 26.0059 218.577 25.7712 218.577 24.158C218.577 22.7208 219.983 22.0462 221.77 22.0462C223.793 22.0462 225.199 22.6915 225.463 24.7446H232.232C231.88 20.1983 228.364 17.3533 221.829 17.3533C216.378 17.3533 211.866 19.8757 211.866 24.7446C211.866 30.1708 216.144 31.2267 220.159 31.9014C223.236 32.4293 226.02 32.664 226.02 34.7464C226.02 36.2423 224.613 37.0343 222.415 37.0343C219.983 37.0343 218.459 35.9197 218.166 33.6026H211.221C211.455 38.7062 215.675 41.8152 222.445 41.8152C228.481 41.8152 232.935 39.2048 232.935 34.1599C232.965 28.2643 228.188 27.2084 224.115 26.5338Z" fill="#262626"/>
<path d="M250.226 26.5632L258.343 17.8812H249.874L243.017 25.6833V8.72998H235.779V40.9939H243.017V33.8959L245.244 31.5494L250.782 40.9939H259.281L250.226 26.5632Z" fill="#262626"/>
<path d="M24.5812 27.0913C25.8113 27.0913 26.8083 26.0933 26.8083 24.8622C26.8083 23.631 25.8113 22.6331 24.5812 22.6331C23.3512 22.6331 22.3541 23.631 22.3541 24.8622C22.3541 26.0933 23.3512 27.0913 24.5812 27.0913Z" fill="#F8BF1E"/>
<path d="M42.34 27.0913C43.57 27.0913 44.5671 26.0933 44.5671 24.8622C44.5671 23.631 43.57 22.6331 42.34 22.6331C41.1099 22.6331 40.1129 23.631 40.1129 24.8622C40.1129 26.0933 41.1099 27.0913 42.34 27.0913Z" fill="#F8BF1E"/>
<path d="M42.34 44.895C43.57 44.895 44.5671 43.897 44.5671 42.6659C44.5671 41.4348 43.57 40.4368 42.34 40.4368C41.1099 40.4368 40.1129 41.4348 40.1129 42.6659C40.1129 43.897 41.1099 44.895 42.34 44.895Z" fill="#F8BF1E"/>
<path d="M48.8746 6.64753C48.6402 3.3918 46.0321 0.752019 42.7793 0.517372C40.6987 0.370718 38.8232 1.16265 37.5045 2.51187C36.5081 3.53845 35.1601 4.1544 33.7242 4.1544H33.1967C31.7315 4.1544 30.3542 3.53845 29.3285 2.48254C28.127 1.25064 26.4567 0.517372 24.6105 0.517372C22.7643 0.517372 21.094 1.27998 19.8925 2.48254C18.8668 3.53845 17.4895 4.1544 16.0243 4.1544H15.5261C14.0902 4.1544 12.7129 3.59711 11.7165 2.57054C11.5114 2.36522 11.3062 2.1599 11.1011 1.98392C8.61028 -0.0399145 4.94719 0.0187469 2.54423 2.1599C-0.356916 4.71169 -0.474134 9.16999 2.22188 11.8684C2.25119 11.8977 2.28049 11.9271 2.3098 11.9564C3.36476 12.9536 3.92154 14.3616 3.92154 15.7988V16.2974C3.92154 17.7639 3.30615 19.1425 2.25118 20.1691C1.02039 21.3716 0.287784 23.0435 0.287784 24.8913C0.287784 26.7392 1.0497 28.4111 2.25118 29.6136C3.30615 30.6402 3.92154 32.0188 3.92154 33.4853V34.1599C3.92154 35.5971 3.30615 36.9463 2.28049 37.9436C0.991093 39.2048 0.19987 40.994 0.287784 42.9592C0.434306 46.4202 3.24753 49.2066 6.67616 49.324C8.66889 49.3827 10.4564 48.5907 11.7165 47.2708C12.7129 46.2442 14.0609 45.5989 15.4968 45.5989H16.0536C17.4895 45.5989 18.8375 46.2149 19.8339 47.2708C21.1526 48.6494 23.0574 49.4413 25.138 49.2947C28.3908 49.06 31.0282 46.4202 31.2626 43.1352C31.5264 39.2342 28.4787 36.0077 24.6398 36.0077C22.8229 36.0077 21.1526 36.741 19.9511 37.9436C18.9254 38.9702 17.5481 39.5861 16.1122 39.5861H15.4968C14.0609 39.5861 12.6543 39.0288 11.6286 37.9729C11.5993 37.9436 11.5993 37.9436 11.57 37.9142C10.515 36.8877 9.89966 35.5091 9.89966 34.0426V33.456C9.89966 31.9894 10.515 30.6109 11.57 29.5843C12.8008 28.3817 13.5334 26.7098 13.5334 24.862C13.5334 23.0142 12.7715 21.3423 11.57 20.1397C10.515 19.1131 9.89966 17.7346 9.89966 16.2681V15.7401C9.89966 14.2736 10.515 12.895 11.5407 11.8684C11.57 11.8391 11.57 11.8391 11.5993 11.8098C11.6286 11.7805 11.6286 11.7805 11.6579 11.7511C12.6836 10.7245 14.0609 10.1086 15.5261 10.1086H16.0536C17.5188 10.1086 18.8961 10.7245 19.9218 11.7805C21.1233 13.0123 22.7936 13.7456 24.6398 13.7456C26.486 13.7456 28.1563 12.983 29.3578 11.7805C30.3835 10.7245 31.7608 10.1086 33.226 10.1086H33.6949C35.1601 10.1086 36.5374 10.7245 37.5631 11.7805C38.7646 13.0123 40.4349 13.7456 42.2811 13.7456C46.0907 13.7749 49.1384 10.5485 48.8746 6.64753Z" fill="#F8BF1E"/>
</g>
<defs>
<clipPath id="clip0_1608_16734">
<rect width="259" height="49" fill="white" transform="translate(0.280884 0.5)"/>
</clipPath>
</defs>
</svg>
