<svg width="222" height="52" viewBox="0 0 222 52" fill="none" xmlns="http://www.w3.org/2000/svg">
<path d="M32.6381 37.7369L23.468 41.7426V41.342C21.6984 41.7426 19.6874 42.063 17.8373 42.1431C9.14992 42.1431 2.31262 37.4965 2.15175 32.1289V30.126C4.9671 34.2118 10.8391 37.0158 17.8373 36.9357C20.17 37.0158 22.6636 36.6954 24.6746 36.1346L25.479 34.1317C23.0658 34.8527 20.4114 35.3334 17.8373 35.3334C9.14992 35.3334 2.31262 30.847 2.15175 25.3192V23.7169C4.9671 27.5623 10.8391 30.2862 17.8373 30.126C20.9744 30.2862 24.0311 29.6453 26.6856 28.5237L27.0878 26.5209C24.5137 27.8027 21.2962 28.6038 17.9178 28.5237C9.23036 28.6038 2.39306 24.1174 2.23218 18.5094V16.9072C5.04754 20.8328 10.9196 23.5566 17.9178 23.7169C21.8593 23.6368 25.6399 22.5152 28.777 20.9129L29.1792 18.5094C26.3638 20.5924 22.2615 21.9544 17.9178 22.1146C9.23036 21.9544 2.39306 17.3878 2.23218 11.6997C2.23218 6.33209 9.23036 1.76558 17.9178 1.76558C23.0658 1.76558 27.8922 3.6082 30.7075 6.57243L31.0293 7.05311H33.0403L32.7185 6.57243C29.9031 2.80706 24.192 0.243408 17.8373 0.243408C8.18466 0.243408 0.542969 5.45083 0.542969 11.7799V12.1804V32.5294C0.864724 38.6982 8.34554 43.7454 17.7569 43.7454C23.9507 43.7454 29.5814 41.342 32.6381 37.7369Z" fill="#223857"/>
<path d="M28.8575 51.7567L32.0751 38.0571L22.7442 42.0629L28.4553 18.2689H17.5156L20.331 6.57227H55.161L52.3456 18.2689H41.0038L38.5906 24.7582L51.1391 19.5508L28.8575 51.7567ZM34.5687 35.2531L32.9599 43.3447L46.3127 23.236L35.373 28.0429L40.1994 16.7468H51.1391L53.15 8.25466H21.5376L19.5266 16.7468H30.4663L25.1573 39.339L34.4882 35.3333L34.5687 35.2531Z" fill="#223857"/>
<path d="M78.3272 14.5037C78.3272 15.7855 77.9251 16.827 77.1207 17.5481C76.3163 18.2691 75.1901 18.6697 73.7422 18.6697C72.2943 18.6697 71.0877 18.189 70.2834 17.3077C69.3985 16.4265 68.9963 15.1446 68.9963 13.7026V11.2991C68.9963 9.85709 69.479 8.65538 70.2834 7.69401C71.1682 6.81275 72.2943 6.33207 73.7422 6.33207C75.1901 6.33207 76.3967 6.73264 77.2011 7.37355C78.0859 8.09458 78.4881 9.13606 78.4077 10.4179H76.075C76.075 9.61675 75.9141 9.05595 75.5119 8.65538C75.1097 8.25481 74.5466 8.09458 73.7422 8.09458C72.9378 8.09458 72.4552 8.41504 72.053 8.97584C71.6508 9.53664 71.4095 10.2577 71.4095 11.219V13.6225C71.4095 14.5037 71.6508 15.3049 72.053 15.8657C72.4552 16.4265 73.0987 16.7469 73.8227 16.7469C74.5466 16.7469 75.1097 16.5867 75.4314 16.1861C75.7532 15.7855 75.9945 15.2247 75.9945 14.4236H78.3272V14.5037ZM91.6801 13.5423C91.6801 14.9844 91.1975 16.2662 90.3126 17.2276C89.4278 18.189 88.1408 18.6697 86.6929 18.6697C85.245 18.6697 84.0384 18.189 83.0731 17.2276C82.1883 16.2662 81.7057 15.0645 81.7057 13.5423V11.3793C81.7057 9.93721 82.1883 8.73549 83.0731 7.69401C83.958 6.73264 85.245 6.25195 86.6929 6.25195C88.1408 6.25195 89.4278 6.73264 90.3126 7.69401C91.2779 8.65538 91.6801 9.85709 91.6801 11.3793V13.5423ZM89.2669 11.3793C89.2669 10.4179 89.0256 9.69686 88.543 9.05595C88.0603 8.49515 87.4168 8.17469 86.6124 8.17469C85.8081 8.17469 85.1645 8.49515 84.6819 9.05595C84.2797 9.61675 83.958 10.4179 83.958 11.3793V13.5423C83.958 14.5037 84.1993 15.3049 84.6819 15.8657C85.0841 16.4265 85.8081 16.7469 86.6124 16.7469C87.4168 16.7469 88.0603 16.4265 88.543 15.8657C89.0256 15.3049 89.2669 14.5037 89.2669 13.5423V11.3793ZM97.9543 18.5094H95.5412V6.4923H97.9543V18.5094ZM111.951 18.5094H109.538L104.711 10.4179V18.5094H102.298V6.4923H104.711L109.538 14.5838V6.4923H111.951V18.5094ZM124.177 8.33492H120.719V18.5094H118.305V8.33492H114.927V6.4923H124.177V8.33492ZM134.232 13.2219H129.728V16.6668H135.037V18.5094H127.314V6.4923H135.037V8.33492H129.728V11.3793H134.232V13.2219ZM140.989 16.6668H146.378V18.5094H138.495V6.4923H140.909V16.6668H140.989ZM156.755 13.2219H152.251V16.6668H157.559V18.5094H149.837V6.4923H157.559V8.33492H152.251V11.3793H156.755V13.2219ZM170.349 16.9071C169.947 17.3878 169.464 17.7884 168.66 18.189C167.936 18.5895 166.971 18.7498 165.764 18.7498C164.316 18.7498 163.11 18.2691 162.225 17.3878C161.34 16.5066 160.857 15.3049 160.857 13.8628V11.2991C160.857 9.85709 161.34 8.65538 162.225 7.77412C163.11 6.89287 164.316 6.41218 165.684 6.41218C167.132 6.41218 168.338 6.81275 169.062 7.45367C169.786 8.09458 170.269 9.05595 170.188 10.2577H167.936C167.936 9.61675 167.775 9.13606 167.373 8.73549C166.971 8.33492 166.488 8.17469 165.764 8.17469C165.04 8.17469 164.477 8.49515 163.995 9.05595C163.592 9.61675 163.351 10.3378 163.351 11.219V13.7827C163.351 14.6639 163.592 15.4651 164.075 16.0259C164.558 16.5867 165.201 16.9071 165.925 16.9071C166.488 16.9071 166.971 16.9071 167.293 16.7469C167.614 16.6668 167.856 16.5066 168.097 16.3463V14.023H165.764V12.3406H170.51V17.0674L170.349 16.9071ZM176.623 13.7026V18.5094H174.21V6.41218H178.393C179.761 6.41218 180.887 6.73264 181.611 7.37355C182.415 8.01447 182.817 8.89572 182.817 10.0173C182.817 10.6582 182.656 11.1389 182.335 11.6196C182.013 12.0202 181.53 12.4207 180.887 12.7412C181.611 12.9815 182.093 13.302 182.415 13.7827C182.737 14.2634 182.898 14.9043 182.898 15.6253V16.5066C182.898 16.5066 182.898 17.2276 183.059 17.5481C183.059 17.9486 183.3 18.189 183.541 18.3492V18.5094H181.048C180.806 18.3492 180.645 18.0287 180.565 17.6282C180.565 17.2276 180.485 16.827 180.485 16.4265V15.5452C180.485 14.9844 180.324 14.5037 180.002 14.1833C179.68 13.8628 179.198 13.7026 178.634 13.7026H176.623ZM176.623 11.8599H178.393C179.037 11.8599 179.6 11.6997 179.921 11.4594C180.243 11.1389 180.404 10.7383 180.404 10.1775C180.404 9.61675 180.243 9.21618 179.921 8.89572C179.6 8.57526 179.117 8.41504 178.474 8.41504H176.704V11.9401L176.623 11.8599ZM193.113 15.9458H189.172L188.368 18.5094H185.794L189.896 6.4923H192.39L196.411 18.5094H193.837L193.033 15.8657L193.113 15.9458ZM189.815 14.023H192.55L191.263 9.77698L189.896 14.023H189.815ZM201.881 14.1031V18.4293H199.468V6.4923H204.134C205.501 6.4923 206.627 6.89287 207.432 7.53378C208.236 8.25481 208.638 9.21618 208.638 10.3378C208.638 11.4594 208.236 12.4207 207.432 13.1418C206.627 13.8628 205.581 14.1833 204.134 14.1833H201.962L201.881 14.1031ZM201.881 12.2605H204.053C204.697 12.2605 205.26 12.1003 205.581 11.6997C205.903 11.2991 206.064 10.8185 206.064 10.3378C206.064 9.77698 205.903 9.29629 205.581 8.89572C205.26 8.49515 204.697 8.33492 204.053 8.33492H201.881V12.2605ZM221.83 18.4293H219.417V13.4622H214.51V18.4293H212.097V6.41218H214.51V11.6196H219.417V6.41218H221.83V18.4293Z" fill="#223857"/>
<path d="M73.3399 38.1375H71.8116V30.2062H69.0767V28.9244H76.0748V30.2062H73.3399V38.1375ZM83.4752 38.1375H81.9469V33.8113C81.9469 33.2505 81.8664 32.85 81.6251 32.6096C81.3838 32.3693 81.062 32.209 80.5794 32.209C79.9359 32.209 79.5337 32.3693 79.2119 32.7698C78.8902 33.1704 78.8098 33.7312 78.7293 34.6125V38.0574H77.2814V28.2834H78.7293V30.767C78.7293 31.1676 78.7293 31.5681 78.7293 32.0488H78.8098C78.8098 32.0488 79.2924 31.488 79.6946 31.2477C80.0968 31.0874 80.499 30.9272 80.9816 30.9272C82.6708 30.9272 83.5556 31.8085 83.5556 33.4909V38.0574L83.4752 38.1375ZM88.6233 38.2176C87.4972 38.2176 86.6928 37.8971 86.0493 37.2562C85.4057 36.6153 85.1644 35.7341 85.1644 34.6125C85.1644 33.4909 85.4862 32.6096 86.0493 31.9687C86.6123 31.3278 87.4167 31.0073 88.382 31.0073C89.2668 31.0073 90.0712 31.3278 90.5538 31.8886C91.1169 32.4494 91.3582 33.1704 91.3582 34.2119V35.013H86.6928C86.6928 35.654 86.9341 36.2148 87.2558 36.5352C87.5776 36.9358 88.1407 37.096 88.7037 37.096C89.1059 37.096 89.5081 37.096 89.8299 37.0159C90.2321 37.0159 90.5538 36.7756 90.956 36.6153V37.817C90.956 37.817 90.2321 38.1375 89.8299 38.2176C89.5081 38.2176 89.0255 38.2977 88.5429 38.2977L88.6233 38.2176ZM88.382 32.1289C87.8993 32.1289 87.4971 32.2892 87.2558 32.5295C87.0145 32.7698 86.8536 33.2505 86.7732 33.8113H89.9103C89.9103 33.2505 89.7494 32.7698 89.5081 32.5295C89.2668 32.209 88.8646 32.1289 88.382 32.1289ZM99.8847 32.209H98.1955V38.0574H96.6672V32.209H95.541V31.488L96.6672 31.0874V30.6869C96.6672 29.8857 96.8281 29.2448 97.2303 28.8442C97.6325 28.4437 98.1955 28.2834 98.9999 28.2834C99.4825 28.2834 100.046 28.2834 100.528 28.5238L100.126 29.6454C100.126 29.6454 99.4021 29.4852 99.0803 29.4852C98.7586 29.4852 98.5173 29.5653 98.3564 29.8056C98.1955 30.046 98.1151 30.2863 98.1151 30.6869V31.0874H99.8043V32.209H99.8847ZM105.998 38.0574L105.757 37.1761C105.757 37.1761 105.274 37.7369 104.872 37.9773C104.47 38.1375 104.068 38.2977 103.585 38.2977C102.7 38.2977 102.137 38.0574 101.654 37.6568C101.252 37.2562 101.011 36.6153 101.011 35.7341V31.1676H102.539V35.4937C102.539 36.0545 102.62 36.375 102.861 36.6954C103.102 36.9358 103.424 37.096 103.907 37.096C104.55 37.096 104.952 36.9358 105.274 36.5352C105.596 36.1346 105.676 35.5738 105.757 34.6926V31.1676H107.285V38.1375H106.079L105.998 38.0574ZM111.87 36.9358C111.87 36.9358 112.594 36.9358 112.996 36.7756V37.8971C112.996 37.8971 112.594 38.0574 112.353 38.0574C112.111 38.0574 111.87 38.0574 111.548 38.0574C110.181 38.0574 109.457 37.3363 109.457 35.8943V32.1289H108.492V31.488L109.537 30.9272L110.02 29.4852H110.905V31.0073H112.916V32.1289H110.905V35.8943C110.905 36.2949 110.905 36.5352 111.146 36.6954C111.227 36.8557 111.548 36.9358 111.79 36.9358H111.87ZM119.27 38.0574L119.029 37.1761C119.029 37.1761 118.547 37.7369 118.144 37.9773C117.742 38.1375 117.34 38.2977 116.857 38.2977C115.973 38.2977 115.409 38.0574 114.927 37.6568C114.525 37.2562 114.283 36.6153 114.283 35.7341V31.1676H115.812V35.4937C115.812 36.0545 115.892 36.375 116.133 36.6954C116.375 36.9358 116.696 37.096 117.179 37.096C117.823 37.096 118.225 36.9358 118.547 36.5352C118.868 36.1346 118.949 35.5738 119.029 34.6926V31.1676H120.558V38.1375H119.351L119.27 38.0574ZM126.108 30.9272C126.108 30.9272 126.671 30.9272 126.832 30.9272L126.671 32.2892C126.671 32.2892 126.269 32.2892 126.027 32.2892C125.464 32.2892 124.982 32.4494 124.579 32.85C124.177 33.2505 124.016 33.7312 124.016 34.3721V37.9773H122.568V31.0073H123.775L123.936 32.209C124.177 31.8085 124.499 31.488 124.821 31.2477C125.143 31.0073 125.545 30.8471 126.027 30.8471L126.108 30.9272ZM130.934 38.1375C129.808 38.1375 129.004 37.817 128.36 37.1761C127.717 36.5352 127.475 35.654 127.475 34.5324C127.475 33.4108 127.797 32.5295 128.36 31.8886C128.923 31.2477 129.728 30.9272 130.693 30.9272C131.578 30.9272 132.382 31.2477 132.865 31.8085C133.428 32.3693 133.669 33.0903 133.669 34.1318V34.9329H129.004C129.004 35.5738 129.245 36.1346 129.567 36.4551C129.888 36.8557 130.451 37.0159 131.015 37.0159C131.417 37.0159 131.819 37.0159 132.141 36.9358C132.543 36.9358 132.865 36.6954 133.267 36.5352V37.7369C133.267 37.7369 132.543 38.0574 132.141 38.1375C131.739 38.1375 131.336 38.2176 130.854 38.2176L130.934 38.1375ZM130.693 32.0488C130.21 32.0488 129.808 32.209 129.567 32.4494C129.245 32.7698 129.164 33.1704 129.084 33.7312H132.221C132.221 33.1704 132.06 32.6897 131.819 32.4494C131.497 32.1289 131.175 32.0488 130.693 32.0488ZM144.93 34.5324C144.93 35.654 144.609 36.5352 144.046 37.1761C143.483 37.817 142.678 38.1375 141.632 38.1375C140.989 38.1375 140.426 37.9773 139.863 37.6568C139.3 37.3364 138.978 36.9358 138.737 36.375C138.495 35.8142 138.334 35.1733 138.334 34.4522C138.334 33.3306 138.656 32.4494 139.219 31.8085C139.782 31.1676 140.587 30.8471 141.713 30.8471C142.678 30.8471 143.483 31.1676 144.126 31.8085C144.689 32.4494 145.011 33.3306 145.011 34.4522L144.93 34.5324ZM139.863 34.5324C139.863 36.1346 140.426 36.9358 141.632 36.9358C142.839 36.9358 143.402 36.1346 143.402 34.5324C143.402 32.9301 142.839 32.1289 141.632 32.1289C140.989 32.1289 140.587 32.3693 140.265 32.7698C139.943 33.1704 139.863 33.7312 139.863 34.5324ZM150.159 32.209H148.47V38.0574H146.941V32.209H145.815V31.488L146.941 31.0874V30.6869C146.941 29.8857 147.102 29.2448 147.505 28.8442C147.907 28.4437 148.47 28.2834 149.274 28.2834C149.757 28.2834 150.32 28.2834 150.803 28.5238L150.4 29.6454C150.4 29.6454 149.676 29.4852 149.355 29.4852C149.033 29.4852 148.792 29.5653 148.631 29.8056C148.47 29.9658 148.389 30.2863 148.389 30.6869V31.0874H150.079V32.209H150.159ZM160.616 38.0574H159.088V33.7312C159.088 33.1704 159.007 32.85 158.766 32.5295C158.605 32.2892 158.283 32.1289 157.801 32.1289C157.238 32.1289 156.835 32.2892 156.514 32.6897C156.272 33.0903 156.111 33.6511 156.111 34.5324V37.9773H154.664V31.0073H155.87L156.111 31.8886C156.111 31.8886 156.594 31.3278 156.996 31.0874C157.399 30.9272 157.801 30.8471 158.203 30.8471C159.249 30.8471 159.973 31.2477 160.375 31.9687H160.455C160.455 31.9687 160.938 31.3278 161.34 31.1676C161.742 31.0073 162.144 30.8471 162.627 30.8471C163.512 30.8471 164.075 31.0874 164.477 31.488C164.879 31.8886 165.04 32.5295 165.04 33.4108V37.9773H163.592V33.6511C163.592 33.0903 163.512 32.7698 163.271 32.4494C163.029 32.209 162.788 32.0488 162.305 32.0488C161.742 32.0488 161.34 32.209 161.018 32.6096C160.777 33.0102 160.616 33.4909 160.616 34.292V37.9773H160.536L160.616 38.0574ZM173.325 34.5324C173.325 35.654 173.004 36.5352 172.441 37.1761C171.878 37.817 171.073 38.1375 170.027 38.1375C169.384 38.1375 168.821 37.9773 168.258 37.6568C167.775 37.3364 167.373 36.9358 167.132 36.375C166.89 35.8142 166.729 35.1733 166.729 34.4522C166.729 33.3306 167.051 32.4494 167.614 31.8085C168.177 31.1676 168.982 30.8471 170.108 30.8471C171.073 30.8471 171.877 31.1676 172.521 31.8085C173.084 32.4494 173.406 33.3306 173.406 34.4522L173.325 34.5324ZM168.258 34.5324C168.258 36.1346 168.821 36.9358 170.027 36.9358C171.234 36.9358 171.797 36.1346 171.797 34.5324C171.797 32.9301 171.234 32.1289 170.027 32.1289C169.384 32.1289 168.982 32.3693 168.66 32.7698C168.338 33.1704 168.258 33.7312 168.258 34.5324ZM181.208 38.0574H179.68V33.7312C179.68 33.1704 179.6 32.7698 179.358 32.5295C179.117 32.2892 178.795 32.1289 178.313 32.1289C177.669 32.1289 177.186 32.2892 176.945 32.6897C176.704 33.0903 176.543 33.6511 176.543 34.5324V37.9773H175.095V31.0073H176.302L176.543 31.8886C176.543 31.8886 177.026 31.3278 177.428 31.0874C177.83 30.9272 178.232 30.8471 178.715 30.8471C180.404 30.8471 181.208 31.7284 181.208 33.4108V37.8971V38.0574ZM186.356 38.1375C185.23 38.1375 184.426 37.817 183.782 37.1761C183.139 36.5352 182.898 35.654 182.898 34.5324C182.898 33.4108 183.219 32.5295 183.782 31.8886C184.346 31.2477 185.15 30.9272 186.115 30.9272C187 30.9272 187.804 31.2477 188.287 31.8085C188.85 32.3693 189.091 33.0903 189.091 34.1318V34.9329H184.426C184.426 35.5738 184.667 36.1346 184.989 36.4551C185.311 36.8557 185.874 37.0159 186.437 37.0159C186.839 37.0159 187.241 37.0159 187.563 36.9358C187.885 36.9358 188.287 36.6954 188.689 36.5352V37.7369C188.689 37.7369 187.965 38.0574 187.563 38.1375C187.161 38.1375 186.759 38.2176 186.276 38.2176L186.356 38.1375ZM186.035 32.0488C185.552 32.0488 185.15 32.209 184.909 32.4494C184.587 32.7698 184.506 33.1704 184.426 33.7312H187.563C187.563 33.1704 187.402 32.6897 187.161 32.4494C186.92 32.1289 186.517 32.0488 186.035 32.0488ZM189.413 31.0874H191.022L192.47 35.013C192.711 35.5738 192.872 36.1346 192.872 36.6153C192.872 36.6153 192.952 36.1346 193.113 35.7341C193.194 35.4136 193.757 33.8113 194.722 31.0073H196.331L193.355 38.8585C192.792 40.3006 191.907 41.0216 190.62 41.0216C190.298 41.0216 189.976 41.0216 189.654 40.9415V39.7398C189.654 39.7398 190.137 39.7398 190.459 39.7398C191.183 39.7398 191.665 39.3392 191.987 38.4579L192.229 37.817L189.333 30.8471L189.413 31.0874Z" fill="#223857"/>
</svg>
