<svg width="201" height="46" viewBox="0 0 201 46" fill="none" xmlns="http://www.w3.org/2000/svg">
<path d="M35.3226 23.0001L23.8237 34.499H46.8216L35.3226 23.0001Z" fill="url(#paint0_linear_1608_16700)"/>
<path d="M12.329 23.0001L0.830078 11.5012V34.499L12.329 23.0001Z" fill="url(#paint1_linear_1608_16700)"/>
<path d="M35.3226 23L46.8216 11.5011H23.8237L35.3226 23Z" fill="url(#paint2_linear_1608_16700)"/>
<path d="M23.8303 11.5012L35.3293 0.00230122H12.3314L23.8303 11.5012Z" fill="url(#paint3_linear_1608_16700)"/>
<path d="M35.3226 45.9978L46.8216 34.4989H23.8237L35.3226 45.9978Z" fill="url(#paint4_linear_1608_16700)"/>
<path d="M12.329 45.9978L23.8279 34.4989H0.830078L12.329 45.9978Z" fill="url(#paint5_linear_1608_16700)"/>
<path d="M35.3226 0.00230122L23.8237 11.5012H46.8216L35.3226 0.00230122Z" fill="url(#paint6_linear_1608_16700)"/>
<path d="M0.830078 11.5012H23.8279L12.329 0.00230122L0.830078 11.5012Z" fill="url(#paint7_linear_1608_16700)"/>
<path d="M23.8303 34.4989L12.3314 45.9978H35.3293L23.8303 34.4989Z" fill="url(#paint8_linear_1608_16700)"/>
<path d="M12.329 23.0001L0.830078 34.499H23.8279L12.329 23.0001Z" fill="url(#paint9_linear_1608_16700)"/>
<path d="M23.8279 11.5011H0.830078L12.329 23L23.8279 11.5011Z" fill="url(#paint10_linear_1608_16700)"/>
<path d="M60.1541 27.2088C60.7866 27.2088 61.258 27.0363 61.5685 26.6913C61.8675 26.3464 62.0285 25.8404 62.0285 25.1735H66.3291L66.3636 25.254C66.4058 26.0113 66.2732 26.7682 65.9761 27.4661C65.679 28.1639 65.2254 28.7841 64.6502 29.2786C63.4017 30.3381 61.8019 30.8918 60.1656 30.831C57.8659 30.831 56.1065 30.118 54.8761 28.6922C53.5859 27.1454 52.9178 25.1737 53.0018 23.1612V22.8392C53.0018 20.5854 53.6228 18.7456 54.8646 17.3197C56.095 15.8939 57.8544 15.1809 60.1196 15.1809C62.0285 15.1809 63.5578 15.7099 64.6962 16.7793C65.2771 17.3411 65.7275 18.0237 66.0156 18.7787C66.3037 19.5338 66.4225 20.3429 66.3636 21.1489L66.3291 21.2294H62.0285C62.0547 20.6069 61.8859 19.9918 61.5455 19.47C61.235 19.0216 60.7521 18.8031 60.1196 18.8031C59.2227 18.8031 58.6018 19.171 58.2453 19.8955C57.8483 20.8243 57.6636 21.83 57.7049 22.8392V23.1612C57.7049 24.4261 57.8774 25.415 58.2453 26.1279C58.5903 26.8408 59.2342 27.2088 60.1541 27.2088ZM76.8161 19.608L75.0912 19.5965C74.5623 19.5965 74.1138 19.6885 73.7689 19.861C73.4239 20.045 73.1709 20.2979 73.0099 20.6429V30.532H68.2954V15.4569H72.734L72.895 17.6647C73.1591 16.9568 73.5935 16.3249 74.1598 15.8249C74.6684 15.3988 75.3133 15.1702 75.9767 15.1809C76.4149 15.1794 76.8515 15.2334 77.276 15.3419L76.8161 19.608ZM85.7622 23.8856V24.0006H85.8542L88.3495 15.4569H93.363L87.3606 32.7743C86.9006 33.8897 86.2912 34.8096 85.5668 35.534C84.8308 36.2584 83.6579 36.6264 82.0596 36.6264C81.6571 36.6264 81.3237 36.6034 81.0592 36.5459C80.8062 36.4999 80.3922 36.4079 79.8403 36.2699L80.4152 32.9123L80.7027 32.9813L80.9442 33.0043C81.6916 33.0043 82.2321 32.8893 82.577 32.6708C82.922 32.4523 83.175 32.1188 83.3475 31.6819L83.7269 30.7045L78.5064 15.4569H83.5085L85.7622 23.8856ZM103.873 23.0232C103.873 21.7583 103.678 20.7234 103.298 19.953C102.93 19.1825 102.344 18.8031 101.527 18.8031C100.987 18.8031 100.538 18.8951 100.182 19.0906C99.8139 19.286 99.5149 19.5735 99.308 19.9415V26.2429C99.5379 26.5649 99.8254 26.8178 100.193 26.9673C100.626 27.1343 101.087 27.2126 101.55 27.1973C102.378 27.1973 102.965 26.8523 103.321 26.1739C103.73 25.2772 103.916 24.2947 103.862 23.3107V23.0232H103.873ZM108.565 23.3107C108.565 25.5874 108.047 27.4043 107.024 28.7726C106.529 29.4437 105.877 29.9825 105.125 30.3415C104.373 30.7005 103.544 30.8686 102.712 30.831C102.055 30.8491 101.404 30.7104 100.812 30.4264C100.22 30.1424 99.7046 29.7213 99.308 29.1981V36.3274H94.5934V15.4569H98.9975L99.17 17.1127C99.5298 16.5078 100.045 16.0099 100.661 15.6703C101.278 15.3307 101.974 15.1618 102.677 15.1809C104.551 15.1809 105.989 15.8939 107.024 17.3312C108.12 19.0209 108.658 21.0115 108.565 23.0232V23.3107ZM116.211 11.7083V15.4569H118.764V18.7111H116.211V25.6334C116.211 26.1624 116.326 26.5534 116.533 26.7833C116.646 26.9048 116.783 27.0005 116.936 27.064C117.089 27.1275 117.253 27.1573 117.419 27.1513C117.882 27.1515 118.344 27.1053 118.799 27.0133L119.121 30.4975C118.175 30.7247 117.207 30.8405 116.234 30.8425C114.682 30.831 113.509 30.417 112.716 29.5776C111.911 28.7612 111.508 27.4503 111.508 25.6679V18.7111H109.393V15.4569H111.508V11.7083H116.211ZM124.64 23.1497C124.64 24.4146 124.836 25.4035 125.238 26.1279C125.629 26.8408 126.296 27.1973 127.25 27.1973C128.17 27.1973 128.826 26.8408 129.228 26.1164C129.631 25.392 129.826 24.3916 129.826 23.1497V22.8507C129.871 21.8353 129.665 20.8245 129.228 19.907C128.826 19.1711 128.159 18.8031 127.216 18.8031C126.296 18.8031 125.629 19.1711 125.238 19.9185C124.836 20.6544 124.64 21.6433 124.64 22.8507V23.1497ZM119.926 22.8507C119.84 20.8281 120.531 18.8494 121.857 17.3197C123.134 15.8939 124.928 15.1694 127.227 15.1694C129.527 15.1694 131.321 15.8939 132.597 17.3197C133.92 18.8512 134.611 20.8286 134.529 22.8507V23.1497C134.529 25.4265 133.885 27.2778 132.597 28.6922C131.321 30.118 129.539 30.831 127.25 30.831C124.939 30.831 123.134 30.118 121.846 28.6922C120.527 27.1549 119.845 25.1728 119.937 23.1497V22.8507H119.926ZM140.934 15.4569L141.118 17.5727C141.613 16.8253 142.222 16.2273 142.946 15.8134C143.68 15.3894 144.514 15.1709 145.361 15.1809C146.844 15.1809 148.006 15.6524 148.834 16.6068C149.662 17.5727 150.076 19.0906 150.076 21.1834V30.532H145.361V21.1719C145.361 20.3094 145.189 19.6885 144.832 19.332C144.476 18.9871 143.947 18.8031 143.245 18.8031C142.861 18.791 142.478 18.8653 142.126 19.0205C141.774 19.1758 141.461 19.4079 141.21 19.7V30.532H136.53V15.4569H140.946H140.934ZM159.194 18.8031C158.516 18.8031 158.01 19.0331 157.665 19.5275C157.32 20.0105 157.125 20.6544 157.044 21.4593L157.09 21.5283H161.149V21.1719C161.149 20.4014 160.988 19.8265 160.678 19.4125C160.356 18.9986 159.873 18.8031 159.194 18.8031ZM159.539 30.831C157.309 30.831 155.538 30.141 154.215 28.7382C153.555 28.0384 153.039 27.2149 152.697 26.315C152.356 25.4151 152.196 24.4566 152.226 23.4946V22.9657C152.226 20.6659 152.824 18.7916 154.031 17.3427C155.239 15.8939 156.952 15.1579 159.194 15.1809C161.241 15.1809 162.84 15.7904 164.001 17.0208C165.214 18.3871 165.841 20.1752 165.749 21.9998V24.4721H157.125L157.102 24.5525C157.217 25.323 157.516 25.9669 158.056 26.4614C158.585 26.9558 159.286 27.2088 160.172 27.2088C161.616 27.2414 163.045 26.9176 164.334 26.2659L165.45 29.1406C164.672 29.6824 163.809 30.0905 162.897 30.348C161.851 30.67 160.724 30.831 159.528 30.831M180.686 24.1961H180.766L182.399 15.4569H186.746L183.204 30.532H179.225L176.765 22.5402H176.684L174.223 30.532H170.245L166.692 15.4569H171.038L172.694 24.2651H172.786L175.235 15.4569H178.202L180.686 24.1961ZM196.29 26.3004C196.29 25.9324 196.083 25.5989 195.657 25.3C194.944 24.904 194.165 24.6392 193.358 24.518C191.922 24.3082 190.557 23.7561 189.379 22.9082C188.941 22.5519 188.592 22.0981 188.36 21.583C188.129 21.0679 188.021 20.5057 188.045 19.9415C188.045 19.2878 188.195 18.6427 188.484 18.0564C188.773 17.4701 189.194 16.9583 189.712 16.5608C190.828 15.6409 192.346 15.1809 194.243 15.1809C196.255 15.1809 197.854 15.6294 199.038 16.5263C199.595 16.9111 200.044 17.4324 200.342 18.0405C200.64 18.6485 200.777 19.3229 200.74 19.999L200.717 20.0795H196.14C196.14 19.493 195.991 19.0446 195.68 18.7341C195.381 18.4236 194.898 18.2741 194.232 18.2741C193.737 18.2741 193.323 18.4006 192.99 18.6766C192.83 18.7987 192.703 18.9573 192.617 19.139C192.532 19.3207 192.492 19.5203 192.499 19.7209C192.507 19.9215 192.563 20.1172 192.663 20.2917C192.762 20.4662 192.902 20.6142 193.07 20.7234C193.794 21.1171 194.586 21.3707 195.404 21.4708C196.879 21.6841 198.282 22.2437 199.498 23.1037C199.941 23.4753 200.292 23.9454 200.522 24.4764C200.751 25.0075 200.853 25.5848 200.82 26.1624C200.82 27.5193 200.222 28.6347 199.015 29.5086C197.607 30.4487 195.934 30.9122 194.243 30.831C192.196 30.831 190.563 30.302 189.379 29.2671C188.183 28.2322 187.608 27.0593 187.666 25.7829L187.7 25.7024H191.955C191.978 26.4154 192.185 26.9328 192.61 27.2433C193.024 27.5653 193.611 27.7147 194.37 27.7147C195.002 27.7147 195.485 27.5998 195.807 27.3468C196.129 27.1053 196.29 26.7488 196.29 26.3004Z" fill="black"/>
<defs>
<linearGradient id="paint0_linear_1608_16700" x1="23.8237" y1="28.7496" x2="46.8216" y2="28.7496" gradientUnits="userSpaceOnUse">
<stop stop-color="#210622"/>
<stop offset="1" stop-color="#150430"/>
</linearGradient>
<linearGradient id="paint1_linear_1608_16700" x1="0.830078" y1="23.0001" x2="12.329" y2="23.0001" gradientUnits="userSpaceOnUse">
<stop stop-color="#EB6F9F"/>
<stop offset="1" stop-color="#FA6F8D"/>
</linearGradient>
<linearGradient id="paint2_linear_1608_16700" x1="23.8237" y1="17.2505" x2="46.8216" y2="17.2505" gradientUnits="userSpaceOnUse">
<stop stop-color="#210622"/>
<stop offset="1" stop-color="#150430"/>
</linearGradient>
<linearGradient id="paint3_linear_1608_16700" x1="12.3314" y1="5.75176" x2="35.3293" y2="5.75176" gradientUnits="userSpaceOnUse">
<stop stop-color="#930046"/>
<stop offset="1" stop-color="#59008A"/>
</linearGradient>
<linearGradient id="paint4_linear_1608_16700" x1="23.8237" y1="40.2483" x2="46.8216" y2="40.2483" gradientUnits="userSpaceOnUse">
<stop stop-color="#460045"/>
<stop offset="1" stop-color="#29006E"/>
</linearGradient>
<linearGradient id="paint5_linear_1608_16700" x1="0.830078" y1="40.2483" x2="23.8279" y2="40.2483" gradientUnits="userSpaceOnUse">
<stop stop-color="#DB0035"/>
<stop offset="1" stop-color="#9D0074"/>
</linearGradient>
<linearGradient id="paint6_linear_1608_16700" x1="23.8237" y1="5.75176" x2="46.8216" y2="5.75176" gradientUnits="userSpaceOnUse">
<stop stop-color="#460045"/>
<stop offset="1" stop-color="#29006E"/>
</linearGradient>
<linearGradient id="paint7_linear_1608_16700" x1="0.830078" y1="5.75176" x2="23.8279" y2="5.75176" gradientUnits="userSpaceOnUse">
<stop stop-color="#DB0035"/>
<stop offset="1" stop-color="#9D0074"/>
</linearGradient>
<linearGradient id="paint8_linear_1608_16700" x1="12.3314" y1="40.2483" x2="35.3293" y2="40.2483" gradientUnits="userSpaceOnUse">
<stop stop-color="#930046"/>
<stop offset="1" stop-color="#59008A"/>
</linearGradient>
<linearGradient id="paint9_linear_1608_16700" x1="0.830078" y1="28.7496" x2="23.8279" y2="28.7496" gradientUnits="userSpaceOnUse">
<stop stop-color="#F63362"/>
<stop offset="1" stop-color="#C0359D"/>
</linearGradient>
<linearGradient id="paint10_linear_1608_16700" x1="0.830078" y1="17.2505" x2="23.8279" y2="17.2505" gradientUnits="userSpaceOnUse">
<stop stop-color="#F63362"/>
<stop offset="1" stop-color="#C0359D"/>
</linearGradient>
</defs>
</svg>
