<svg width="314" height="62" viewBox="0 0 314 62" fill="none" xmlns="http://www.w3.org/2000/svg">
<path d="M92.8755 52.0845C91.8312 52.2811 90.7721 52.3897 89.7096 52.4091C84.4456 52.4091 82.3004 51.2471 82.3004 45.0046V30.3698L77.9208 29.7206C77.6764 29.7051 77.446 29.601 77.2728 29.4278C77.0996 29.2546 76.9955 29.0242 76.98 28.7798V26.6911C76.98 26.4416 77.0791 26.2023 77.2555 26.0258C77.432 25.8494 77.6713 25.7503 77.9208 25.7503H82.3004V21.9351C82.315 21.6904 82.4188 21.4594 82.5922 21.286C82.7656 21.1126 82.9965 21.0088 83.2413 20.9943L87.5739 20.251H87.762C87.8583 20.24 87.9558 20.25 88.0478 20.2805C88.1398 20.3109 88.2241 20.3609 88.2948 20.4272C88.3655 20.4934 88.4209 20.5742 88.4573 20.664C88.4937 20.7538 88.51 20.8505 88.5053 20.9473V25.7597H92.7015C92.951 25.7597 93.1903 25.8588 93.3668 26.0352C93.5432 26.2117 93.6423 26.451 93.6423 26.7005V29.4478C93.6423 29.6973 93.5432 29.9366 93.3668 30.1131C93.1903 30.2895 92.951 30.3886 92.7015 30.3886H88.5053V45.0046C88.5053 47.3332 88.6464 47.6108 90.3258 47.6108H92.7956C93.4024 47.6108 93.774 47.846 93.774 48.3117V51.2471C93.7646 51.7128 93.4965 51.9763 92.8755 52.0845ZM118.504 41.0437H103.314V41.1801C103.314 43.885 104.429 47.098 108.908 47.098C112.309 47.098 115.522 46.8205 117.479 46.6276H117.62C118.09 46.6276 118.457 46.8628 118.457 47.3285V50.4051C118.457 51.1483 118.316 51.4729 117.479 51.6141C114.503 52.2079 111.471 52.4729 108.437 52.4044C103.78 52.4044 97.147 49.8923 97.147 40.7097V37.2662C97.147 29.9982 101.202 25.4304 108.334 25.4304C115.465 25.4304 119.436 30.3369 119.436 37.2662V39.877C119.436 40.6203 119.158 41.0437 118.504 41.0437ZM113.254 36.4759C113.254 32.8395 111.25 30.7414 108.362 30.7414C105.473 30.7414 103.375 32.7925 103.375 36.4759V36.6593H113.254V36.4759ZM140.402 51.8069C138.429 52.2429 136.411 52.445 134.39 52.4091C128.331 52.4091 123.763 48.6833 123.763 41.086V36.7534C123.763 29.1608 128.331 25.4304 134.39 25.4304C136.411 25.3953 138.429 25.599 140.402 26.0372C141.193 26.2254 141.381 26.5076 141.381 27.2462V30.2757C141.381 30.7461 141.009 30.9766 140.543 30.9766H140.402C138.409 30.7168 136.4 30.6083 134.39 30.6521C132.198 30.6521 129.917 31.9081 129.917 36.7675V41.1001C129.917 45.9502 132.198 47.2156 134.39 47.2156C136.4 47.2569 138.409 47.1484 140.402 46.891H140.543C141.014 46.891 141.381 47.1215 141.381 47.5872V50.6168C141.381 51.3412 141.193 51.6188 140.402 51.8069ZM167.099 52.0374H162.813C162.56 52.0289 162.32 51.9219 162.144 51.7391C161.968 51.5564 161.871 51.3124 161.872 51.059V35.7279C161.872 31.6776 161.171 30.6521 158.048 30.6521C156.467 30.6521 154.6 31.2119 152.643 32.2327V51.0495C152.644 51.303 152.546 51.547 152.371 51.7297C152.195 51.9125 151.955 52.0195 151.702 52.028H147.416C147.163 52.0195 146.923 51.9125 146.747 51.7297C146.572 51.547 146.474 51.303 146.475 51.0495V17.5085C146.475 17.2589 146.575 17.0196 146.751 16.8432C146.927 16.6668 147.167 16.5676 147.416 16.5676H151.702C151.951 16.5676 152.191 16.6668 152.367 16.8432C152.544 17.0196 152.643 17.2589 152.643 17.5085V27.1568C154.416 26.0843 156.373 25.4304 159.699 25.4304C166.13 25.4304 168.04 29.9982 168.04 35.7279V51.059C168.041 51.3124 167.943 51.5564 167.768 51.7391C167.592 51.9219 167.352 52.0289 167.099 52.0374Z" fill="#0070E0"/>
<path d="M184.432 52.4089C177.117 52.4089 173.298 47.4742 173.298 40.8083V37.0449C173.298 30.379 177.117 25.4396 184.432 25.4396C191.747 25.4396 195.581 30.3696 195.581 37.0355V40.7989C195.581 47.4742 191.747 52.4089 184.432 52.4089ZM189.419 37.0355C189.419 33.211 187.697 30.7413 184.432 30.7413C181.168 30.7413 179.446 33.211 179.446 37.0355V40.7989C179.446 44.6187 181.172 47.0884 184.432 47.0884C187.692 47.0884 189.419 44.6187 189.419 40.7989V37.0355ZM211.458 52.4089C209.961 52.3971 208.467 52.2887 206.984 52.0843V60.3355C206.984 60.585 206.885 60.8243 206.709 61.0008C206.532 61.1772 206.293 61.2763 206.044 61.2763H201.758C201.508 61.2763 201.269 61.1772 201.093 61.0008C200.916 60.8243 200.817 60.585 200.817 60.3355V27.8999C200.817 27.2037 201.005 26.9214 202.078 26.6439C205.14 25.867 208.285 25.4595 211.444 25.4302C218.943 25.4302 222.579 29.8569 222.579 37.1249V40.7142C222.593 47.9822 218.957 52.4089 211.458 52.4089ZM216.44 37.1249C216.44 33.3051 215.461 30.4637 211.458 30.4637C209.961 30.4497 208.464 30.5583 206.984 30.7883V47.0508C208.468 47.2474 209.962 47.3574 211.458 47.3801C215.461 47.3801 216.44 44.5576 216.44 40.7142V37.1249ZM248.269 41.0435H233.074V41.1799C233.074 43.8849 234.194 47.0978 238.667 47.0978C242.068 47.0978 245.281 46.8203 247.238 46.6274H247.38C247.85 46.6274 248.217 46.8626 248.217 47.3283V50.4049C248.217 51.1482 248.08 51.4728 247.238 51.6139C244.264 52.2076 241.234 52.4726 238.202 52.4042C233.54 52.4042 226.911 49.8921 226.911 40.7095V37.266C226.911 29.998 230.967 25.4302 238.098 25.4302C245.23 25.4302 249.209 30.3367 249.209 37.266V39.8769C249.209 40.6201 248.918 41.0435 248.269 41.0435ZM243 36.4757C243 32.8393 240.996 30.7413 238.107 30.7413C235.219 30.7413 233.121 32.7923 233.121 36.4757V36.6592H243V36.4757ZM274.029 51.1999C270.966 51.973 267.822 52.3788 264.663 52.4089C257.136 52.4089 253.528 47.9822 253.528 40.7142V37.1249C253.528 29.8569 257.16 25.4302 264.663 25.4302C266.16 25.4441 267.654 25.5541 269.137 25.7595V17.5083C269.137 17.2588 269.236 17.0195 269.412 16.843C269.589 16.6666 269.828 16.5675 270.077 16.5675H274.363C274.612 16.5675 274.852 16.6666 275.028 16.843C275.205 17.0195 275.304 17.2588 275.304 17.5083V49.9674C275.29 50.6401 275.083 50.9224 274.029 51.1999ZM269.137 30.8071C267.653 30.6143 266.159 30.5059 264.663 30.4825C260.655 30.4825 259.676 33.3051 259.676 37.1437V40.733C259.676 44.5528 260.655 47.3989 264.663 47.3989C266.161 47.4141 267.657 47.304 269.137 47.0696V30.8071ZM286.843 22.2643H282.322C282.069 22.2645 281.826 22.1665 281.644 21.9911C281.461 21.8157 281.354 21.5764 281.344 21.3234V17.2308C281.353 16.9774 281.46 16.7374 281.642 16.5617C281.825 16.3861 282.069 16.2885 282.322 16.2899H286.843C287.093 16.2899 287.332 16.389 287.508 16.5655C287.685 16.7419 287.784 16.9812 287.784 17.2308V21.3328C287.782 21.5807 287.681 21.8176 287.505 21.992C287.329 22.1664 287.091 22.2643 286.843 22.2643ZM286.702 52.0373H282.412C282.159 52.0287 281.919 51.9217 281.743 51.739C281.567 51.5563 281.47 51.3123 281.471 51.0588V26.6909C281.471 26.4414 281.57 26.2021 281.747 26.0257C281.923 25.8492 282.162 25.7501 282.412 25.7501H286.702C286.952 25.7501 287.191 25.8492 287.367 26.0257C287.544 26.2021 287.643 26.4414 287.643 26.6909V51.0588C287.644 51.3123 287.547 51.5563 287.371 51.739C287.195 51.9217 286.955 52.0287 286.702 52.0373ZM312.373 52.0373H308.412C308.163 52.0373 307.923 51.9381 307.747 51.7617C307.57 51.5853 307.471 51.3459 307.471 51.0964V50.3532C305.508 51.6332 303.228 52.3418 300.885 52.3995C297.018 52.3995 292.827 50.913 292.827 44.6187V44.4494C292.827 39.1336 296.087 36.3863 304.197 36.3863H307.133V34.3306C307.133 31.3011 305.782 30.5672 303.03 30.5672C300.495 30.5591 297.961 30.6832 295.438 30.9388H295.203C294.732 30.9388 294.365 30.7977 294.365 30.1485V27.1567C294.365 26.6439 294.643 26.3146 295.25 26.1782C297.812 25.6747 300.419 25.4242 303.03 25.4302C309.649 25.4302 313.281 28.3656 313.281 34.3306V51.1058C313.279 51.3481 313.183 51.5802 313.014 51.7537C312.845 51.9272 312.615 52.0288 312.373 52.0373ZM307.156 40.4837H304.221C299.987 40.4837 299.046 41.8338 299.046 44.4447V44.6281C299.046 46.9144 300.071 47.5165 302.4 47.5165C304.068 47.4787 305.702 47.0312 307.156 46.2134V40.4837ZM38.4229 22.9605L37.3973 23.3321V61.7703L49.8259 54.8457V32.1949L63.5481 27.2131L64.7053 26.7897L64.79 13.4156L38.4229 22.9605ZM49.3837 16.3228L50.381 16.6851L51.0396 16.925L63.835 12.2913L51.4206 7.64355L49.8259 8.22688L38.4464 12.3619L48.377 15.9606L49.3837 16.3228Z" fill="#424242"/>
<path d="M35.3973 23.3322L34.3718 22.9606L22.9688 18.835V54.8457L35.3973 61.7657V23.3322Z" fill="#0070E0"/>
<path d="M20.9596 18.1106L7.99951 13.4158L8.08419 26.7899L9.24143 27.2132L20.9596 31.4706V18.1106Z" fill="#424242"/>
<path d="M35.3931 21.8691L36.3998 22.2361L37.3971 21.8691L49.0166 17.6353L48.3768 17.4048L47.356 17.0379L36.4234 13.0958L22.9646 8.22691L21.925 7.84587L21.3699 7.64829L8.95543 12.2914L35.3931 21.8691ZM26.8973 11.0871L29.5599 12.1926L26.3704 13.3263L23.7079 12.2161L26.8973 11.0871ZM25.0156 14.4459L27.2078 15.3585L24.5828 16.2993L22.4001 15.3773L25.0156 14.4459ZM30.6607 13.505L32.8529 14.4177L30.2279 15.3585L28.0357 14.4459L30.6607 13.505ZM21.9955 8.99369L24.23 9.91102L21.638 10.8519L19.4082 9.92513L21.9955 8.99369ZM14.8451 12.8653L19.4035 11.2611L23.2045 12.837L18.6461 14.4459L14.8451 12.8653ZM16.9103 5.23973L14.3888 6.08649L16.5057 6.95677L19.0319 6.1053L16.9103 5.23973ZM6.06704 5.90302L9.47289 7.30018L13.5373 5.93595L10.1315 4.5435L6.06704 5.90302ZM8.84723 8.50916L5.87416 7.29077L2.32718 8.48094L5.30025 9.69933L8.84723 8.50916ZM6.24109 4.5341L3.77138 3.52269L0.826538 4.51058L3.29625 5.52198L6.24109 4.5341ZM11.7309 2.35134L10.1033 1.68334L8.16982 2.33723L9.79278 3.00052L11.7309 2.35134ZM5.60132 0.893031L3.97836 0.229736L2.04023 0.878918L3.66789 1.54692L5.60132 0.893031Z" fill="#0070E0"/>
</svg>
