<svg width="20" height="20" viewBox="0 0 20 20" fill="none" xmlns="http://www.w3.org/2000/svg">
<path d="M7.86426 9.21463C7.22421 8.74743 6.90418 8.51383 6.88522 8.23744C6.87929 8.15088 6.89236 8.06407 6.92353 7.9831C7.02304 7.72455 7.39766 7.59555 8.14692 7.33756L11.2712 6.26177C11.7305 6.10365 11.9601 6.02459 12.1915 6.03692C12.2678 6.04099 12.3435 6.05238 12.4175 6.07096C12.6424 6.12733 12.8385 6.2705 13.2308 6.55685L15.0022 7.84985C15.5184 8.22667 15.7765 8.41508 15.906 8.68071C15.9483 8.76761 15.9799 8.85934 16 8.95387C16.0616 9.24287 15.9742 9.55025 15.7994 10.165L15.1995 12.2745C15.0667 12.7417 15.0003 12.9752 14.8578 13.1581C14.8109 13.2183 14.7583 13.2739 14.7007 13.324C14.5259 13.4763 14.2963 13.5553 13.8371 13.7134L10.7127 14.7892C9.96348 15.0472 9.58885 15.1762 9.35126 15.0337C9.27685 14.9891 9.2131 14.9288 9.16448 14.8569C9.00926 14.6274 9.11763 14.2463 9.33436 13.4841L9.88296 11.5548C9.97036 11.2474 10.0141 11.0937 9.98328 10.9492C9.97321 10.9019 9.95742 10.8561 9.93626 10.8126C9.87155 10.6798 9.74249 10.5856 9.48437 10.3972L7.86426 9.21463Z" fill="url(#paint0_linear_304_24271)"/>
<path d="M4.23853 8.73312C3.59848 8.26592 3.27845 8.03233 3.25949 7.75594C3.25355 7.66938 3.26663 7.58256 3.29779 7.50159C3.3973 7.24304 3.77193 7.11405 4.52119 6.85606L7.64551 5.78027C8.10473 5.62214 8.33435 5.54308 8.5658 5.55542C8.64205 5.55948 8.71774 5.57088 8.79181 5.58945C9.01663 5.64582 9.21278 5.789 9.60508 6.07535L11.3765 7.36834C11.8927 7.74516 12.1508 7.93357 12.2802 8.19921C12.3226 8.2861 12.3541 8.37783 12.3743 8.47237C12.4358 8.76136 12.3484 9.06875 12.1736 9.68351L11.5738 11.793C11.441 12.2601 11.3746 12.4937 11.2321 12.6766C11.1852 12.7368 11.1325 12.7924 11.075 12.8425C10.9002 12.9948 10.6705 13.0738 10.2113 13.2319L7.087 14.3077C6.33775 14.5657 5.96312 14.6947 5.72553 14.5522C5.65111 14.5076 5.58736 14.4473 5.53875 14.3754C5.38353 14.1459 5.4919 13.7648 5.70863 13.0026L6.25723 11.0733C6.34463 10.7659 6.38833 10.6122 6.35755 10.4677C6.34748 10.4204 6.33169 10.3746 6.31052 10.3311C6.24582 10.1983 6.11676 10.1041 5.85864 9.9157L4.23853 8.73312Z" fill="url(#paint1_linear_304_24271)"/>
<path fill-rule="evenodd" clip-rule="evenodd" d="M10.3127 6.59182L11.3765 7.36833L11.3765 7.36833C11.8928 7.74515 12.1509 7.93356 12.2803 8.19919C12.3226 8.28609 12.3542 8.37782 12.3743 8.47236C12.4359 8.76135 12.3485 9.06873 12.1737 9.6835L12.1737 9.6835L11.5739 11.793C11.441 12.2601 11.3746 12.4937 11.2322 12.6766C11.1852 12.7368 11.1326 12.7924 11.075 12.8425C10.9002 12.9947 10.6706 13.0738 10.2114 13.2319L9.31867 13.5393C9.32383 13.5211 9.32906 13.5027 9.33436 13.4841L9.88296 11.5548C9.97036 11.2474 10.0141 11.0937 9.98328 10.9492C9.97322 10.9019 9.95742 10.8561 9.93626 10.8126C9.87155 10.6798 9.74249 10.5856 9.48437 10.3972L7.86426 9.21463C7.22421 8.74743 6.90418 8.51383 6.88522 8.23745C6.87929 8.15088 6.89236 8.06407 6.92353 7.9831C7.02304 7.72455 7.39766 7.59555 8.14692 7.33756L10.3127 6.59182Z" fill="#1CD1FF"/>
<defs>
<linearGradient id="paint0_linear_304_24271" x1="13.4911" y1="11.9129" x2="10.2049" y2="6.80033" gradientUnits="userSpaceOnUse">
<stop stop-color="#626AFF"/>
<stop offset="1" stop-color="#4650FF"/>
</linearGradient>
<linearGradient id="paint1_linear_304_24271" x1="5.45632" y1="5.82285" x2="9.33249" y2="13.402" gradientUnits="userSpaceOnUse">
<stop stop-color="#25FBFB"/>
<stop offset="1" stop-color="#68FFFF"/>
</linearGradient>
</defs>
</svg>
