<svg width="128" height="128" viewBox="0 0 128 128" fill="none" xmlns="http://www.w3.org/2000/svg">
<rect width="128" height="128" rx="32" fill="#5A63FF"/>
<path d="M49.6321 58.1551C44.2779 54.2639 41.6008 52.3183 41.4398 50.0125C41.3894 49.2905 41.4977 48.5662 41.7571 47.8904C42.5855 45.7326 45.7146 44.6552 51.9728 42.5003L70.4968 36.122C75.2692 34.4787 77.6555 33.657 80.0615 33.7833C80.8542 33.8249 81.6411 33.9425 82.4113 34.1346C84.749 34.7177 86.7905 36.2014 90.8736 39.1688L100.304 46.0223C104.631 49.1669 106.794 50.7392 107.878 52.9605C108.232 53.687 108.496 54.4541 108.664 55.2448C109.178 57.6621 108.441 60.233 106.968 65.3749L103.756 76.5814C102.365 81.4336 101.67 83.8597 100.187 85.7583C99.6981 86.3839 99.1505 86.9611 98.5514 87.4819C96.7332 89.0626 94.3469 89.8843 89.5744 91.5276L71.0505 97.9059C64.7923 100.061 61.6632 101.138 59.6819 99.9478C59.0614 99.5751 58.5301 99.071 58.1253 98.4709C56.8327 96.5548 57.7444 93.3735 59.5679 87.0109L63.8391 72.1076C64.2075 70.8221 64.3917 70.1794 64.2633 69.575C64.2212 69.3774 64.1552 69.1856 64.0666 69.004C63.7958 68.4486 63.2549 68.0556 62.1732 67.2694L49.6321 58.1551Z" fill="url(#paint0_linear_454_9252)"/>
<path d="M21.9885 51.8845C16.6344 47.9933 13.9573 46.0477 13.7962 43.7419C13.7458 43.0199 13.8541 42.2955 14.1135 41.6198C14.942 39.462 18.0711 38.3845 24.3293 36.2297L42.8532 29.8514C47.6257 28.2081 50.0119 27.3864 52.4179 27.5126C53.2106 27.5542 53.9975 27.6719 54.7677 27.864C57.1054 28.4471 59.147 29.9308 63.2301 32.8982L72.6603 39.7517C76.9873 42.8963 79.1507 44.4686 80.234 46.6898C80.5883 47.4164 80.8525 48.1835 81.0206 48.9742C81.5345 51.3915 80.7976 53.9624 79.324 59.1043L76.1123 70.3108C74.7217 75.163 74.0264 77.589 72.5432 79.4877C72.0545 80.1133 71.5069 80.6904 70.9078 81.2113C69.0896 82.792 66.7034 83.6137 61.9309 85.257L43.4069 91.6353C37.1487 93.7901 34.0197 94.8676 32.0383 93.6772C31.4179 93.3045 30.8866 92.8003 30.4818 92.2003C29.1891 90.2842 30.1009 87.1029 31.9244 80.7402L36.1956 65.8369C36.564 64.5515 36.7482 63.9087 36.6197 63.3044C36.5777 63.1067 36.5117 62.915 36.4231 62.7333C36.1522 62.178 35.6114 61.7849 34.5297 60.9988L21.9885 51.8845Z" fill="white"/>
<defs>
<linearGradient id="paint0_linear_454_9252" x1="106.375" y1="72.1875" x2="36.0318" y2="49.0934" gradientUnits="userSpaceOnUse">
<stop stop-color="white"/>
<stop offset="1" stop-color="white" stop-opacity="0.12"/>
</linearGradient>
</defs>
</svg>
