<?xml version="1.0" encoding="utf-8"?>
<!-- Generator: Adobe Illustrator 22.1.0, SVG Export Plug-In . SVG Version: 6.00 Build 0)  -->
<svg version="1.1" id="flag-icons-al" xmlns="http://www.w3.org/2000/svg" xmlns:xlink="http://www.w3.org/1999/xlink" x="0px"
	 y="0px" viewBox="0 0 640 480" style="enable-background:new 0 0 640 480;" xml:space="preserve">
<style type="text/css">
	.st0{fill:#006233;}
	.st1{clip-path:url(#SVGID_2_);fill:#06612E;}
	.st2{clip-path:url(#SVGID_2_);}
	.st3{clip-path:url(#SVGID_4_);}
	.st4{clip-path:url(#SVGID_4_);fill:#FFFFFF;}
	.st5{clip-path:url(#SVGID_4_);fill:#F8C800;}
</style>
<path class="st0" d="M0,0h640v480H0V0z"/>
<g>
	<g>
		<defs>
			<rect id="SVGID_1_" x="-40" y="0" width="720" height="480"/>
		</defs>
		<clipPath id="SVGID_2_">
			<use xlink:href="#SVGID_1_"  style="overflow:visible;"/>
		</clipPath>
		<rect x="-40" y="0" class="st1" width="720" height="480"/>
		<g class="st2">
			<defs>
				<rect id="SVGID_3_" x="-40" y="0" width="720" height="480"/>
			</defs>
			<clipPath id="SVGID_4_">
				<use xlink:href="#SVGID_3_"  style="overflow:visible;"/>
			</clipPath>
			<path class="st3" d="M172.5,227.6c-2.4-1.5-4.8-3.1-7.3-4.6c-0.6-0.4-1.4-0.6-2.1-0.8c-1.5-0.3-2.4,0.6-2.2,2.1
				c0.1,0.6,0.3,1.2,0.5,1.7c1.3,2.9,1.6,6,1.9,9.1c0.7,7.1,1.2,14.2,3.4,21c1.7,5.2,4.2,10,8,14.1c1.3,1.4,2.4,3,3.6,4.5
				c0.4,0.5,0.8,1,1.3,1.4c1.1,1,2.3,0.8,3-0.5c0.5-0.8,0.8-1.8,1.2-2.6v8.5c-0.1,0-0.2,0-0.2,0c-3-2.4-6-4.7-8.9-7.1
				c-1.1-0.9-2-1.9-3-2.9c-0.2-0.2-0.5-0.4-0.8-0.5c-1.5-0.9-2.7-0.2-2.7,1.6c0,3.5,0.1,7,0.9,10.4c2.5,10.9,8.5,19.4,18.1,25.2
				c2.9,1.8,6.2,2.9,9.5,3.6c1.7,0.3,2.4-0.1,3-1.6c1,2,2,4.2,3,6.3c-1.7-0.6-3.5-1.2-5.2-1.9c-3-1.3-6-2.6-8.9-3.9
				c-1-0.4-1.9-0.8-2.9-1.2c-0.8-0.3-1.6-0.4-2.3,0.3c-0.7,0.7-0.6,1.6-0.3,2.4c1.2,2.9,2.2,5.8,3.7,8.5c6.8,12.3,17,20.5,30.8,24.1
				c4,1,8.1,1.4,12.2,0.9c1.9-0.2,3.1,0.2,4.5,1.2c0.2,0.1,0.4,0.2,0.6,0.3c0,0,0.1,0.1,0.1,0.2c-2.1-0.1-4.1-0.4-6.1-0.4
				c-3.7,0.1-7.4,0.2-11.1,0.5c-0.9,0.1-1.8,0.6-2.6,1.1c-1,0.7-0.9,1.9,0.1,2.6c0.4,0.3,0.9,0.5,1.4,0.6c2.8,0.5,5,2,7.3,3.5
				c4.6,3.1,9.1,6.4,13.9,9.3c6.4,4,13.4,6.6,20.9,7.7c5.1,0.8,10.2,0.9,15.2,0.3c1.8-0.2,3.7-0.4,5.4-0.9c1-0.3,1.8-0.3,2.8,0
				c4.9,1.6,10,2.4,15.2,2.4c0.8,0,1.7-0.1,2.5-0.3c1.5-0.3,2-1.4,1.5-2.8c-0.3-0.9-0.8-1.9-1.3-2.7c-6.5-11.3-15.8-19.5-27.3-25.4
				c-5.8-2.9-11.8-5.3-17.7-8.1c-2.5-1.1-4.8-2.5-7.2-3.8c-1.1-0.6-2.1-1.2-3.2-1.6c-1.2-0.4-2.3-0.3-3.2,0.9
				c-0.2-0.3-0.4-0.6-0.6-0.9c-4.7-7.1-10.9-12.4-18-16.9c-1-0.6-1.9-1.3-2.9-1.7c-0.9-0.4-1-1.1-1.1-1.9c-0.4-4.3-1.3-8.4-2.9-12.4
				c-2.2-5.6-5.3-10.5-10-14.4c-0.5-0.4-1.1-0.9-1.7-1.2c-1.3-0.7-2.1-0.4-3.2,0.9c0-0.5,0-0.7,0-1c-0.1-8.2-2.5-15.5-7.5-22
				c-0.4-0.5-0.5-0.8-0.2-1.4c2.2-4.4,3.3-9.1,4-14c0.6-4.5,1-9,1.6-13.5c0.1-1,0.5-2.1,0.9-3.1c0.2-0.5,0.4-1.1,0.5-1.6
				c0.4-1.6-0.6-2.6-2.1-2.1c-1.2,0.4-2.4,1-3.5,1.6c-0.5,0.3-1,0.6-1.7,0.8c0.7-0.9,1.4-1.8,2.1-2.7c3.2-4.1,6.1-8.4,7.6-13.4
				c0.8-2.5,1.2-5.1,1.1-7.8c-0.1-2.8-0.6-3.3-3.5-3.2c0.7-0.4,1.2-0.7,1.7-1.1c4.6-2.8,9.1-5.9,12.8-9.9c2.8-3,5.1-6.5,6-10.6
				c0.4-2,0.7-4,0.3-6.1c2.2-1,4.4-1.8,6.6-2.8c5.6-2.6,10.7-5.9,14.8-10.6c2.1-2.3,4-4.7,5.1-7.7c0.1-0.2,0.6-0.4,1-0.4
				c5-0.1,10-0.8,14.8-2.1c6.1-1.6,11.9-4,16.7-8.2c1.2-1,2.1-2.3,3.1-3.4c0.2-0.2,0.5-0.4,0.7-0.4c9.6,1,18.3-1.8,26.7-6.2
				c1.5-0.8,2.9-1.6,4.3-2.6c1.1-0.7,2.1-1.6,2.1-3.1h5.8c0.2,1.5,1.1,2.4,2.3,3.2c6.7,4.2,13.8,7.3,21.6,8.5c3,0.5,6.1,0.6,9.1,0.2
				c0.3,0,0.7,0.1,0.8,0.3c2,3.1,5,5.2,8.1,7c5.6,3.3,11.8,5.1,18.1,6.1c2.9,0.4,5.8,0.5,8.7,0.8c0.3,0,0.7,0.2,0.8,0.5
				c1.2,3.4,3.5,6.1,5.9,8.6c5.5,5.7,12.3,9.3,19.6,12c0.3,0.1,0.5,0.2,0.8,0.3c0.1,0,0.1,0.1,0.1,0.1c-0.6,5.7,1.3,10.6,4.8,14.9
				c3.8,4.6,8.5,8.1,13.6,11.2c0.8,0.5,1.7,1,2.5,1.5c0,0,0,0,0.1,0.1c0,0-0.1,0.1-0.1,0.1c-2.5-0.8-3.4,0.5-3.5,2.8
				c-0.2,4.7,1.1,9,3.2,13.1c2,3.9,4.6,7.3,7.4,10.7c0.1,0.1,0.2,0.3,0.3,0.5c-0.9-0.5-1.9-1.1-2.8-1.6c-0.8-0.4-1.7-0.8-2.5-1
				c-1.4-0.4-2.3,0.5-2,2c0.3,1.3,1,2.4,1.2,3.7c0.5,3.1,0.9,6.1,1.2,9.2c0.7,6.8,1.6,13.5,4.7,19.7c0.1,0.2,0.1,0.7-0.1,0.9
				c-4.1,5.2-6.5,11.2-7.4,17.7c-0.2,1.8-0.3,3.6-0.4,5.2c-0.6-0.3-1.4-0.8-2.1-0.8c-0.8,0-1.6,0.5-2.3,1c-5,3.9-8.3,9.1-10.5,14.9
				c-1.6,4.1-2.6,8.4-2.9,12.8c0,0.6-0.3,0.9-0.9,1.2c-6.5,3.8-12.5,8.2-17.4,13.9c-1.5,1.8-2.9,3.7-4.4,5.7c-1.4-1.5-3-1-4.6-0.2
				c-2.2,1.2-4.3,2.6-6.5,3.7c-5.3,2.5-10.7,4.6-16,7.1c-8.1,3.7-15.5,8.5-21.8,14.9c-4.1,4.1-7.5,8.7-10.3,13.8
				c-0.3,0.6-0.6,1.2-0.7,1.8c-0.3,1.3,0.2,2.3,1.5,2.6c1.1,0.2,2.3,0.3,3.5,0.3c5.2-0.1,10.3-1,15.3-2.7c0.3-0.1,0.6-0.1,0.8-0.1
				c2.4,0.4,4.7,1.1,7.2,1.3c7.1,0.7,14.1,0.2,21-1.8c7-2,13.4-5.3,19.4-9.4c3.8-2.6,7.6-5.3,11.5-7.8c1.4-0.9,3-1.3,4.5-1.9
				c0.6-0.2,1.2-0.4,1.7-0.7c1.1-0.6,1.2-1.9,0.1-2.6c-1-0.6-2.1-1.1-3.2-1.2c-4.6-0.6-9.3-0.6-13.9-0.2c-0.8,0.1-1.7,0.1-2.8,0.2
				c1.2-0.7,2.1-1.4,3.1-2c0.1-0.1,0.4-0.1,0.5-0.1c2.2,0.1,4.5,0.4,6.7,0.3c17.2-0.7,34.2-13.5,40.6-30.8c0.4-1.2,0.9-2.4,1.2-3.6
				c0.3-1.4-0.5-2.3-1.9-2c-1.3,0.2-2.5,0.7-3.6,1.3c-4.4,2.5-9.3,4-14,5.8c-0.1,0-0.2,0-0.2,0c1-2.1,2-4.1,2.9-6.1
				c0.9,1.6,1.6,1.9,3.8,1.4c5-1.2,9.5-3.4,13.4-6.6c7.4-6.1,12-13.9,13.7-23.3c0.5-2.9,0.5-5.9,0.7-8.8c0-0.3,0-0.7-0.1-1
				c-0.2-1-1.1-1.6-2-1.1c-1.1,0.6-2,1.4-3,2.1c-3.5,2.9-6.9,5.9-10.4,8.8c-0.1-0.1-0.2-0.1-0.2-0.2V273c0.3,0.8,0.5,1.5,0.8,2.2
				c0.8,1.9,2.2,2.2,3.6,0.6c1.6-1.8,2.9-3.7,4.6-5.5c5.2-5.6,8.2-12.3,9.5-19.7c0.9-5,1.3-10.1,2-15.1c0.4-3.3,0.6-6.5,2-9.6
				c0.3-0.6,0.4-1.4,0.4-2.1c0-1.1-0.7-1.8-1.7-1.6c-0.8,0.1-1.6,0.3-2.3,0.7c-2.5,1.5-5,3.1-7.4,4.6c0.4-1.1,0.9-2.5,1.4-3.8
				c3.2-10.1,2.8-19.9-2.1-29.4c-2.4-4.6-5.5-8.6-10-11.5c-0.2-0.1-0.5-0.5-0.5-0.7c-0.2-8.2-4.1-14.6-10-20
				c-0.8-0.7-1.5-1.3-2.2-2.1c-0.9-0.9-1.6-2-2.5-3c-0.5-0.6-1-1.3-1.6-1.8c-1.2-1-2.8-0.8-3.6,0.5c-0.6,1-0.9,2.1-1.4,3.2
				c-0.1,0.2-0.1,0.4-0.2,0.8c-0.6-1.3-1.2-2.5-1.7-3.6c-3.4-6.8-8.5-12-14.8-16.1c-2.3-1.5-4.6-2.9-6.9-4.4
				c-0.9-0.6-1.7-1.4-2.5-2.2c-0.2-0.2-0.5-0.4-0.8-0.5c-2.8-1.8-5.1-0.6-5.2,2.8c0,0.2,0,0.4,0,0.6c-0.1,0-0.2,0-0.2,0
				c-2.5-3.8-6.2-6.3-10.1-8.4c-4.9-2.5-9.9-4.8-14.8-7.3c-2.6-1.3-5.2-2.9-7.7-4.5c-1-0.7-1.8-1.8-2.7-2.7c-0.8-0.9-1.7-1.7-3-1.8
				c-1-0.1-1.8,0.3-2.5,1.2c-2.6-3-5.9-5.2-9.7-6.4c1.4-1.1,2.8-2.1,4.1-3.1c3.6-3.1,6-6.9,6.9-11.6c0.3-1.8-0.7-2.7-2.4-2.2
				c-0.2,0-0.3,0.1-0.4,0.2c-3.3,2-7,2.4-10.6,3.4c-1.9,0.5-3.8,1-5.9,1.6c0.2-0.4,0.4-0.7,0.6-1c1.8-3,3.2-6.1,4-9.5
				c0.1-0.6,0.2-1.3,0.1-1.9c-0.1-1.1-1-1.6-2-1.2c-0.6,0.2-1.2,0.6-1.6,1c-1.4,1.6-3.2,2.6-5.1,3.6c-4.6,2.5-9.3,4.9-13.4,8.2
				c-0.4,0.3-0.8,0.7-1.4,1.1c0.2-1,0.4-1.8,0.5-2.6c0.1-0.7,0.1-1.5,0.1-2.2c-0.1-1-0.9-1.5-1.8-1.1c-0.6,0.3-1.2,0.8-1.8,1.2
				c-0.7,0.6-1.3,1.4-2,2.2c-0.6-0.5-1-1-1.4-1.4c-0.7-0.6-1.2-1.3-2-1.7c-0.5-0.3-1.3-0.5-1.7-0.2c-0.4,0.2-0.7,1-0.8,1.5
				c-0.1,0.8,0.1,1.6,0.3,2.4c0.1,0.6,0.2,1.1,0.4,1.8c-1-0.7-1.8-1.4-2.6-2.1c-3.9-3-8.3-5.2-12.6-7.5c-1.6-0.9-3.3-1.8-4.5-3.2
				c-0.3-0.4-0.8-0.7-1.2-0.9c-1.4-0.9-2.6-0.3-2.6,1.4c0,0.9,0.2,1.9,0.5,2.8c0.8,2.9,2.1,5.7,3.7,8.3c0.1,0.2,0.3,0.5,0.5,0.8
				c-2.1-0.6-4.1-1.1-6.1-1.6c-1.7-0.4-3.3-0.7-5-1.2c-1.5-0.5-3-1.1-4.5-1.7c-0.6-0.2-1.1-0.5-1.7-0.6c-1.5-0.3-2.4,0.4-2.1,1.9
				c0.3,1.6,0.7,3.1,1.3,4.6c1.7,4.1,4.8,7,8.4,9.5c0.4,0.3,0.8,0.6,1.4,0.9c-3.9,1.3-7.1,3.4-9.6,6.2c-0.9-0.3-1.7-0.9-2.5-0.8
				c-0.9,0.1-2,0.5-2.5,1.1c-4.2,5.2-10.2,7.3-15.9,10.1c-4.6,2.2-9.2,4.2-13.4,7c-2.6,1.7-5,3.7-6.9,6.6c-0.1-0.7-0.1-1.1-0.1-1.5
				c-0.2-2.3-2-3.5-4.2-2.6c-0.8,0.3-1.5,0.9-2.2,1.4c-1.7,1.3-3.4,2.6-5.2,3.8c-4.2,2.6-8.3,5.3-11.8,8.9
				c-3.5,3.6-6.2,7.8-8.2,12.5c-0.1,0.2-0.2,0.4-0.3,0.8c-0.3-0.9-0.5-1.7-0.8-2.4c-0.5-1.2-1-2.5-2.5-2.7c-1.5-0.2-2.5,0.7-3.1,1.9
				c-1.3,2.4-3.5,4-5.5,5.9c-4.1,3.9-7.4,8.2-8.7,13.8c-0.4,1.7-0.5,3.4-0.7,5.2c-0.1,0.7-0.3,1.2-0.9,1.6
				c-6.5,4.5-10.3,10.9-12.4,18.3c-2.5,8.6-1.4,17.1,1.8,25.4C172.3,227,172.4,227.4,172.5,227.6 M343.5,372.5c-0.5,0-0.9,0-1.4,0
				c-2.4-0.1-2.6-0.4-1.4-2.5c4-7.1,9.1-13.1,15.5-18.2c6.5-5.2,13.8-9,21.4-12.2c5.6-2.4,11.4-4.5,16.5-8c0.5-0.4,1.1-0.6,1.7-0.8
				c0.9-0.3,1.3,0,1.4,0.9c0,0.7,0,1.5-0.2,2.1c-1.2,4.2-3.2,8-5.7,11.6c-6.1,8.6-14,15.1-23.3,20.1
				C360.4,369.8,352.3,372.5,343.5,372.5 M296.6,372.6c-4.7-0.1-8.7-0.7-13.1-2.1c-10.3-3.2-19.3-8.7-27.2-16.1
				c-5-4.7-9.1-10-11.8-16.4c-0.8-1.9-1.7-3.8-1.7-5.9c0-1.2,0.4-1.6,1.6-1.1c0.9,0.4,1.8,0.9,2.7,1.4c2.4,1.3,4.7,2.7,7.2,3.8
				c6.4,2.9,13,5.4,19.2,8.8c9.7,5.4,18,12.5,24,22c0.9,1.4,1.7,2.9,2.5,4.4c0.3,0.6,0.1,1-0.6,1.1
				C298.4,372.5,297.5,372.5,296.6,372.6 M361.9,370.5c0-0.1,0-0.1,0-0.2c0.3-0.1,0.6-0.3,0.9-0.4c9.1-3.8,17.2-9.3,24-16.4
				c0.6-0.6,1.1-1.1,2-1.3c6.2-1.7,12.4-2.9,18.8-3.4c4.4-0.4,8.9-0.4,13.3,0.1c1,0.1,2,0.5,3,0.8l0,0.3c-0.4,0.1-0.8,0.3-1.2,0.4
				c-1.7,0.7-3.5,1.2-5,2.1c-1.9,1-3.6,2.3-5.4,3.6c-4.8,3.5-9.7,6.9-15.1,9.5c-9.4,4.7-19.3,6.5-29.7,5.6
				C365.6,371,363.8,370.7,361.9,370.5 M278.3,370.6c-3,0.3-5.8,0.7-8.6,0.8c-10.1,0.4-19.6-1.9-28.5-6.7
				c-5.3-2.8-10.1-6.3-14.9-9.8c-2.9-2-5.8-4-9.3-4.7c-0.3-0.1-0.5-0.2-0.8-0.3c0-0.1,0-0.2,0-0.2c0.7-0.2,1.3-0.6,2-0.7
				c2-0.2,4-0.4,6-0.5c9.2-0.2,18.2,1.2,27.1,3.7c0.5,0.2,1.1,0.5,1.5,0.9c4.9,5.1,10.3,9.4,16.5,12.9
				C272.1,367.5,275.1,368.9,278.3,370.6 M184.4,310.7c0.4,0.1,0.6,0.1,0.8,0.2c1.5,0.7,2.9,1.4,4.4,2c3.7,1.5,7.5,3.1,11.2,4.5
				c5.6,2.2,11.1,4.6,16,8.2c0.7,0.5,1.1,1.1,1.4,1.9c1.9,5.8,5.2,10.8,9.8,14.8c0.6,0.5,1.3,1.1,2.1,1.8
				c-11.5,0.7-21.2-2.9-29.9-9.8C192.5,328.1,187.3,320.3,184.4,310.7 M410.1,344.1c0-0.1,0-0.2,0-0.2c0.1-0.1,0.2-0.2,0.3-0.3
				c5.5-4.3,9.3-9.8,11.5-16.5c0.2-0.5,0.6-1,1-1.3c4-2.9,8.3-5.2,12.9-7c5.9-2.4,12.1-4.3,17.7-7.4c0.6-0.3,1.3-0.4,1.9-0.6
				c0.1,0.1,0.2,0.2,0.2,0.2c-0.4,1.1-0.9,2.2-1.3,3.3c-6.1,16.8-23.1,29.3-39.4,29.9C413.4,344.1,411.8,344.1,410.1,344.1
				 M426.1,309.7c0,0.1,0.1,0.2,0.1,0.2c-0.2,0.3-0.4,0.7-0.7,1c-1.1,1.1-1.8,2.4-2.2,3.9c-0.5,1.9-0.9,3.8-1.3,5.7
				c-1,4.8-2.5,9.5-5.2,13.7c-4.1,6.3-9.8,10.5-16.5,13.6c-1.4,0.7-3.1,0.7-4.7,1c-0.7-2.3-0.3-6.8,0.5-8.7c0.8-1.8,1.6-3.5,2.1-5.4
				c0.4-1.7,1.1-3.1,2.1-4.5c1.1-1.5,2.2-3.1,3.4-4.5c5.5-6.5,12.3-11.3,19.8-15.3C424.5,310.1,425.3,310,426.1,309.7 M213.8,310
				c0-0.1,0.1-0.2,0.1-0.3c0.8,0.3,1.7,0.5,2.5,0.9c1.6,0.8,3.1,1.7,4.6,2.6c6.7,4.1,12.8,9.1,17.4,15.6c1,1.4,2,2.9,2.7,4.5
				c1,2.2,1.7,4.6,2.5,6.9c0.2,0.7,0.5,1.4,0.6,2.2c0.1,1.8,0.2,3.5,0.2,5.3c0,0.4-0.1,0.7-0.2,1c-3.2-0.1-5.9-1.3-8.5-2.8
				c-6.5-3.9-11.8-8.9-14.9-15.9c-1.8-4-2.6-8.2-3.5-12.4c-0.5-2.5-1.1-5.1-3.1-7C214.1,310.5,214,310.2,213.8,310 M181.3,275.2
				c-0.2,0-0.3,0.1-0.5,0.1c-0.2-0.3-0.5-0.7-0.7-1c-1.3-1.7-2.5-3.4-4-5c-3.2-3.5-5.6-7.5-7.2-11.9c-2.5-6.8-3.1-13.9-3.8-21
				c-0.4-3.8-0.6-7.6-2.2-11.2c-0.2-0.5-0.2-1-0.4-1.7c0.9,0.4,1.6,0.6,2.2,0.9c7.2,3.7,12.3,9.5,15.8,16.7c0.2,0.3,0.2,0.9,0.1,1.2
				c-2.9,8.6-2.5,17.2,0.1,25.7c0.3,1.1,0.8,2.1,2.3,2.4C182.3,272.1,181.8,273.6,181.3,275.2 M477.4,223.6c0.1,0.1,0.2,0.2,0.2,0.2
				c-0.1,0.5-0.2,1.1-0.5,1.6c-1.4,3-1.7,6.2-2,9.4c-0.6,4.8-1,9.6-1.8,14.4c-1,5.9-2.8,11.5-6.4,16.4c-2.3,3.1-4.8,6-7.2,8.9
				c-0.2,0.3-0.5,0.5-1,0.9c-0.6-1.8-1-3.4-1.6-5c1.5-0.1,2-1.1,2.2-2.1c0.7-3.2,1.6-6.4,2-9.6c0.7-5.6,0-11-1.9-16.4
				c-0.1-0.3-0.1-0.7,0-1c3.5-7.1,8.5-12.9,15.6-16.7C475.9,224.2,476.6,223.9,477.4,223.6 M470.3,272.1c0,0.4,0.1,0.6,0.1,0.8
				c-0.2,2.6-0.2,5.2-0.6,7.7c-1.6,10-6.6,18-14.6,24.1c-3.6,2.7-7.6,4.5-12,5.3c-1.1,0.2-1.4,0-1.2-1.1c0.4-2.2,0.7-4.4,1.3-6.6
				c2.2-7.7,7-13.7,13-18.7c4.2-3.6,8.9-6.5,12.7-10.6C469.3,272.8,469.8,272.5,470.3,272.1 M169.6,272.4c0.1-0.1,0.2-0.1,0.3-0.2
				c0.5,0.4,1,0.7,1.4,1.1c1,0.9,1.9,2,3,2.8c3.5,2.9,7.2,5.6,10.6,8.6c7.3,6.2,12,14,13.1,23.6c0.2,2,0.1,2.2-1.9,1.7
				c-6.4-1.5-11.8-4.9-16.2-9.7c-5.5-5.9-8.8-12.8-9.9-20.8C169.7,277.2,169.7,274.8,169.6,272.4 M185.2,183.3
				c0.1,0.1,0.2,0.2,0.3,0.3c0,0.3,0,0.7-0.1,1c-0.9,3-0.6,6.1-0.4,9.1c0.3,5.1,0.8,10.2,0.4,15.3c-0.1,1-0.3,1.9-0.8,2.7
				c-2.3,3.4-3.9,7.2-4.7,11.2c-0.3,1.3-0.3,2.6-0.8,3.8c-0.6,1.4-1.4,2.7-2.2,4c-0.1,0.2-0.4,0.4-0.7,0.7c-0.3-0.5-0.6-0.8-0.7-1.1
				c-3.9-7.9-5.9-16.2-4.4-25.1c1.2-7.2,4.3-13.4,9.6-18.5C182.1,185.4,183.7,184.4,185.2,183.3 M463.7,231.6
				c-0.9-1.6-1.7-2.9-2.5-4.3c-0.2-0.4-0.5-0.8-0.5-1.3c-0.6-5-2.2-9.7-5-13.9c-0.8-1.3-1.2-2.6-1.1-4c0.1-4.8,0.3-9.5,0.5-14.3
				c0.1-3.1,0.5-6.3-0.5-9.3c-0.1-0.3-0.1-0.7-0.1-1c1.1,0.3,3,1.4,4.6,3c6.4,6.3,9.7,14,10.2,22.8c0.4,7.3-1.5,14.2-4.7,20.7
				C464.5,230.5,464.1,230.9,463.7,231.6 M204.6,171.5c0.4-1.1,0.5-2.1,1-2.8c2.3-3.4,5.1-6.4,8.3-9c5.9-4.9,12.8-7.9,20.2-9.6
				c3-0.7,6.1-1.3,8.9-2.8c0.6-0.3,1.4-0.4,2.1-0.5c0.9-0.1,1.4,0.4,1.2,1.3c-0.2,1-0.5,2-1,2.8c-2.2,3.8-5.1,7-8.6,9.7
				c-5.4,4.1-11.3,7.1-17.9,8.9c-2.6,0.7-5.2,1.5-7.8,1.9C209,171.7,206.9,171.5,204.6,171.5 M435.6,171.5c-1.2,0.1-2.1,0.2-3,0.2
				c-4.4,0.1-8.6-1-12.7-2.4c-5.5-1.8-10.6-4.3-15.3-7.7c-4-2.8-7.4-6.3-9.8-10.5c-0.5-0.8-0.8-1.7-1-2.5c-0.3-1.1,0.2-1.7,1.4-1.7
				c0.7,0,1.4,0.2,2,0.5c2.8,1.5,5.8,2,8.8,2.7c11.5,2.6,21.1,8.4,28,18.1C434.7,169,435,170.2,435.6,171.5 M216.5,323.1
				c-3.6-1.8-7-3.6-10.4-5.3c-0.2-0.1-0.4-0.3-0.6-0.5c-1.9-2.5-3.5-5.2-4.3-8.3c-1.2-4.4-0.8-8.7,0.1-13.1
				c0.8-3.9,1.6-7.8,1.2-11.8c0-0.5,0-1,0.1-1.4c0.1-0.6,0.5-0.9,1.1-0.5c0.7,0.5,1.5,1,2.1,1.6c5.5,5,8.7,11.4,10.5,18.5
				c0.5,2.2,0.9,4.4,1.3,6.8c-0.9-0.3-1.6-0.5-2.3-0.7c-1-0.3-2.2-0.5-2.8,0.6c-0.7,1.1,0.1,2,0.8,2.8c1.1,1.2,1.8,2.5,2.1,4.1
				c0.4,1.7,0.8,3.5,1.2,5.3C216.6,321.8,216.5,322.5,216.5,323.1 M422.4,309.2c0.7-3,1.1-5.9,1.9-8.7c1.9-6.7,5.2-12.7,10.7-17.2
				c0.6-0.5,1.3-0.7,2-1.1c0.2,0.8,0.6,1.6,0.5,2.3c-0.4,3.5,0.3,6.9,0.9,10.3c0.5,2.9,1,5.8,1.1,8.7c0.1,5.1-1.7,9.5-4.8,13.5
				c-0.3,0.5-0.9,0.8-1.4,1.1c-2.8,1.5-5.7,3-8.5,4.5c-0.4,0.2-0.7,0.4-1.3,0.8c-0.1-0.7-0.2-1.3-0.2-1.8c0.2-1.4,0.6-2.8,0.9-4.3
				c0.5-2,1-4,2.6-5.6c0.4-0.4,0.6-0.9,0.8-1.5c0.3-0.8-0.1-1.5-0.9-1.8c-0.5-0.1-1.1-0.2-1.7-0.1
				C424.4,308.5,423.6,308.8,422.4,309.2 M303.9,117.5c0.5-0.4,0.7-0.6,1-0.7c10.6-6.4,22-8.9,34.3-6.9c2.8,0.4,5.7,0.5,8.5,0.7
				c0.7,0.1,1.4,0.1,2.1,0.2c1.1,0.3,1.3,0.9,0.6,1.8c-0.5,0.7-1.2,1.3-1.8,1.8c-5.9,4.3-12.7,6.1-19.8,6.9c-4.6,0.5-9.2,0.5-13.7,0
				c-3.2-0.4-6.3-1-9.2-2.5C305.1,118.4,304.6,118,303.9,117.5 M392.1,147.6c-4.3-0.1-8.6-0.6-12.7-1.5c-6.3-1.4-12.3-3.6-17.4-7.6
				c-1.5-1.2-2.8-2.6-3.9-4.1c-0.8-1-0.3-1.7,1-1.8c0.6,0,1.3-0.1,1.9,0c3.2,0.7,6.4,0.4,9.6,0.5c3,0.1,6,0.2,9,0.7
				c7.3,1.1,13.9,4.2,19.8,8.6c1.3,0.9,2.5,1.9,3.9,3c-1.8,0.8-3.1,1.9-4.9,0.7c-0.6-0.4-1.4-0.6-2.1-0.7
				C394.5,145.1,392.8,145.1,392.1,147.6 M236.9,145.2c0.3-0.2,0.6-0.4,0.8-0.6c1.4-1.1,2.9-2.2,4.3-3.2c6.4-4.5,13.5-7.2,21.3-8
				c5.5-0.6,11,0.2,16.4-0.8c0.8-0.1,1.9-0.3,2.3,0.6c0.4,0.9-0.4,1.7-0.9,2.3c-1.9,2.2-4.3,3.9-6.8,5.4c-5.5,3.2-11.5,4.9-17.7,5.9
				c-2.9,0.4-5.8,0.6-8.7,0.9c-0.8-2.1-1.5-2.6-3.6-2.4c-0.9,0.1-1.9,0.3-2.7,0.8C240,147.2,238.6,146.3,236.9,145.2 M186.7,254
				c4.8,2.4,10.7,12.7,12.4,21.1c1.3,6.7-0.3,17.8-3.1,21c-2.3-4.6-5.6-8.5-9.4-11.9c-0.7-0.7-1-1.4-1.1-2.3
				c-0.3-5.5,0.1-10.9,0.6-16.3c0.2-2.7,0.3-5.5,0.4-8.2C186.5,256.2,186.6,255.1,186.7,254 M453,254l0.4,0c0.1,1.2,0.2,2.4,0.2,3.6
				c0.1,2.3,0.1,4.6,0.3,6.8c0.5,5.9,1.2,11.8,0.7,17.7c0,0.5-0.4,1.1-0.7,1.5c-2,2.2-4.2,4.4-6.2,6.7c-1.4,1.7-2.5,3.7-3.7,5.6
				c-3.5-6.9-4.2-14.1-2.8-21.6C442.6,266.2,446.8,259.5,453,254 M199,224.3c-0.5,1.3-1,2.3-1.2,3.4c-0.6,3.9-1.1,7.9-1.5,11.8
				c-0.5,4.3-1.1,8.6-2.5,12.7c-0.5,1.5-1.1,2.9-1.8,4.6c-0.3-0.4-0.4-0.6-0.6-0.8c-1.1-1.1-2.1-2.2-3.2-3.2
				c-1.2-1.1-2.4-0.7-2.9,0.9c-0.1,0.3-0.2,0.7-0.2,1c-0.1,1.8-0.1,3.5-0.1,5.3c-0.1,1.9-0.3,3.8-0.4,5.8c-0.1,1.3-0.9,2-1.9,2.9
				c-0.3-1-0.6-1.8-0.9-2.7c-2.1-7.8-2.5-15.6,0.4-23.3c2.8-7.7,7.5-13.9,15-17.7C197.6,224.9,198.1,224.7,199,224.3 M441.1,224.4
				c2.2,0.7,4,1.8,5.6,3c5,3.7,8.6,8.6,10.8,14.3c3.4,8.6,3,17.3,0.3,26c-0.1,0.3-0.3,0.6-0.5,1c-1.4-1.1-1.8-1.7-1.9-3.1
				c-0.2-3.1-0.3-6.3-0.4-9.4c0-0.8-0.1-1.7-0.4-2.5c-0.4-1.4-1.6-1.7-2.7-0.9c-0.5,0.4-0.9,0.8-1.4,1.3c-0.8,0.8-1.7,1.6-2.5,2.4
				c0,0-0.1-0.1-0.2-0.2c-0.3-0.6-0.5-1.1-0.8-1.7c-2.6-6.2-3.2-12.8-3.8-19.5c-0.3-3.3-0.5-6.6-1.9-9.7
				C441.3,225.2,441.3,224.9,441.1,224.4 M185.3,181.7c0-0.5,0-0.9,0-1.3c0.5-5,2.5-9.4,5.6-13.3c2.9-3.6,7-6.2,9.6-10.3
				c0.7-1.1,1.4-0.9,2,0.2c0.2,0.3,0.3,0.6,0.4,0.9c0.4,2.2,1,4.3,1.2,6.5c0.2,4-0.8,7.8-2.5,11.4c-0.9,1.9-1.9,3.6-3,5.4
				c-0.8,1.3-2.1,2.3-2.9,3.6c-1.8,3-3.8,5.8-6.3,8.3c-0.5,0.5-1,1-1.8,1.7c-0.5-1.8-1.1-3.3-1.2-4.8c-0.1-1.9,0.4-3.8,0.6-5.7
				C187.3,182.7,186.8,181.9,185.3,181.7 M454.8,181.7c-1.5,0.2-2,0.8-1.8,2.3c0.1,0.6,0.2,1.2,0.3,1.8c0.7,3,0.3,5.9-1,8.8
				c-0.3-0.2-0.6-0.3-0.7-0.5c-1.8-2.2-3.7-4.3-5.4-6.5c-1.2-1.6-2.2-3.3-3.4-4.9c-0.9-1.3-2-2.4-2.7-3.7c-0.9-1.5-1.5-3-2.2-4.6
				c-2.1-5.3-2.7-10.7-0.8-16.1c0.3-0.8,0.9-1.4,1.4-2c0.6,0.5,1.5,1,1.9,1.6c0.9,1.6,2.3,2.9,3.6,4.1c2.7,2.4,5.3,4.9,7.2,8
				C453.5,173.5,454.8,177.4,454.8,181.7 M219.6,170.8c0.1,0.7,0.3,1.2,0.2,1.7c-0.2,1.6-0.3,3.2-0.7,4.8c-1.3,4.8-4.4,8.3-8,11.5
				c-4,3.6-8.5,6.4-13.1,9c-1.9,1.1-3.8,2.1-5.7,3.1c-0.4,0.2-0.9,0.2-1.3,0.3c0-0.5-0.2-0.9,0-1.3c0.7-2.3,1.3-4.6,2.1-6.8
				c2.1-5.4,5.2-10.2,10-13.7c3-2.2,6.5-3.6,10-4.8c1.8-0.6,3.5-1.3,4.9-2.7C218.3,171.5,218.9,171.3,219.6,170.8 M420.6,170.9
				c0.6,0.4,1.1,0.7,1.6,1c1.1,0.7,2.1,1.5,3.2,2c1.1,0.5,2.2,0.9,3.4,1.2c5.3,1.8,9.9,4.6,13.4,9.1c3.7,4.7,5.7,10.1,7.1,15.8
				c0.1,0.4,0,0.8,0,1.4c-0.6-0.2-1.1-0.3-1.5-0.5c-1.9-1-3.8-2-5.7-3.1c-5.5-3.1-10.9-6.5-15.3-11.1c-3.2-3.3-5.7-7.1-6.3-11.8
				C420.3,173.6,420,172.3,420.6,170.9 M181.7,236.6c-0.1,0-0.2,0-0.3,0c-0.1-0.7-0.2-1.4-0.3-2.1c-0.6-3.2-0.6-6.5,0-9.7
				c1.6-8.6,5.9-15.6,12.8-20.8c2.1-1.6,4.5-2.7,6.8-3.8c1.1-0.6,1.4-0.3,1.5,0.9c0,0.3,0,0.6,0,0.9c0.1,2.8-0.5,5.5-1.4,8.1
				c-2,5.5-5.5,10.1-9.2,14.5c-3,3.6-6,7.2-8.9,10.8C182.4,235.7,182,236.1,181.7,236.6 M458.6,236.7c-0.5-0.6-1-1-1.3-1.5
				c-2.9-3.5-5.7-7-8.6-10.5c-3.1-3.7-6.1-7.5-8.2-11.9c-1.8-3.7-3-7.6-2.6-11.9c0.1-1.4,0.3-1.5,1.6-1c0.1,0.1,0.3,0.1,0.4,0.2
				c5.2,2.2,9.5,5.7,12.9,10.3c5,6.7,7.4,14.2,6.4,22.6C459,234.2,458.8,235.4,458.6,236.7 M402.6,142.8c-0.4-0.2-0.6-0.4-0.8-0.6
				c-8.3-6.5-17.7-10.2-28.3-10.6c-0.4,0-0.9-0.2-1.2-0.5c-1.8-1.6-3.7-3.2-5.4-5c-2-2.1-3.6-4.6-3.9-7.6c-0.1-1.4-0.1-2.8,0.2-4.2
				c0.2-1.1,1-1.3,1.9-0.7c0.5,0.4,1.1,0.8,1.5,1.3c1.4,1.8,3.1,3.2,5,4.3c3.5,1.8,7,3.6,10.5,5.3c4.6,2.2,9.3,4.3,13.6,7.2
				c2.4,1.6,4.6,3.4,6,6C402.5,139.1,402.9,140.8,402.6,142.8 M237.6,142.6c-0.1-0.1-0.1-0.2-0.1-0.2c0-0.2-0.1-0.4-0.1-0.6
				c-0.1-2.3,0.7-4.3,2.1-6c2-2.5,4.5-4.4,7.3-5.8c4.5-2.4,9.1-4.6,13.7-6.8c3.7-1.8,7.5-3.4,10.7-6.1c1.1-0.9,2-2.2,3.1-3.1
				c0.5-0.4,1.3-0.9,1.8-0.7c0.5,0.2,0.9,1,1,1.6c0.4,2.6-0.1,5.1-1.3,7.4c-1.5,2.9-3.9,5.1-6.3,7.3c-1.4,1.2-2.8,2.3-4.8,2
				c-0.3,0-0.6,0.1-0.9,0.1c-7.5,0.6-14.3,3-20.6,7C241.3,140,239.5,141.3,237.6,142.6 M365.8,130.1c-1.4,0.8-2.5,1.4-4,1
				c-1-0.3-2.2-0.2-3.3-0.1c-1,0.1-1.9,0.6-2.2,1.6c-0.2,0.7-0.6,0.8-1.1,0.8c-2.7-0.1-5.4,0.1-8-0.3c-7.6-1-14.6-4.1-21-8.2
				c-0.5-0.3-1-0.8-1.5-1.2c0-0.1,0.1-0.2,0.1-0.2c3.7,1.1,7.1-0.3,10.6-0.9c2.2-0.4,4.4-0.8,6.7-0.9c7.1-0.5,13.6,1.5,19.5,5.3
				C362.9,128,364.2,129.1,365.8,130.1 M274.3,130.2c1.1-0.8,2-1.5,2.9-2.2c5.8-4.1,12.2-6.5,19.4-6.2c3.4,0.2,6.7,0.9,10,1.4
				c2.1,0.3,4.2,0.6,6.3,0.8c0.7,0.1,1.5-0.2,2.5-0.4c-0.4,0.4-0.6,0.7-0.9,0.9c-0.2,0.2-0.4,0.4-0.7,0.5c-5.3,3.3-10.9,5.9-17,7.4
				c-3.9,1-7.9,1.4-12,1c-0.4,0-1-0.3-1.2-0.6c-0.4-0.9-0.9-1.5-1.8-1.6c-1.3-0.1-2.7-0.2-3.9,0
				C276.6,131.5,275.6,130.9,274.3,130.2 M205.5,165.7c0.1-1-0.1-2.2,0.3-3.1c1.2-2.8,2.3-5.7,3.8-8.3c3.4-6,8.6-10.3,14.4-13.9
				c2.7-1.7,5.6-3.2,7.9-5.5c0.4-0.4,1-0.7,1.5-0.9c1-0.4,1.7-0.1,1.9,1c0.2,1,0.2,2,0,2.9c-0.6,3.9-2.1,7.4-4.2,10.7
				c-0.4,0.7-0.9,1.1-1.6,1.3c-6.3,1.9-12.1,4.8-17.1,9.2C210,161,207.9,163.3,205.5,165.7 M434.6,165.6c-0.3,0-0.3,0.1-0.3,0
				c-0.5-0.6-1-1.2-1.5-1.8c-6-6.9-13.5-11.6-22.3-14.2c-0.5-0.1-1-0.6-1.3-1c-1.9-2.8-3.3-6-4.1-9.3c-0.4-1.5-0.7-3-0.3-4.6
				c0.3-1,0.9-1.3,1.8-0.9c0.8,0.4,1.5,0.9,2.2,1.4c1.1,0.8,2,1.7,3.1,2.4c1.4,1,2.9,1.9,4.4,2.8c8.4,5.1,14.6,12.1,17.8,21.5
				C434.4,163.1,434.4,164.4,434.6,165.6 M347,82.6c0.1,0.1,0.2,0.1,0.4,0.2c-0.6,1.8-1.1,3.8-1.9,5.5c-3.4,7.5-8.7,13.5-15.1,18.6
				c-0.7,0.5-1.4,0.8-2.2,0.8c-1,0-2.1,0.1-3.1,0.3c-1.7,0.2-3.5,0.5-5.3,0.8c-0.1-1.3,0-2.5,0.7-3.7c1.1-1.8,2-3.6,3-5.5
				c0.4-0.7,0.9-1.5,1.4-2.1c0.9-0.9,1.9-1.8,3-2.6c3.7-2.9,7.8-5.1,11.8-7.3c2.3-1.3,4.7-2.4,6.5-4.5
				C346.5,82.9,346.7,82.8,347,82.6 M274.6,127.4l-0.1-0.2c0.2-0.3,0.5-0.6,0.7-0.9c2.5-3,3.8-6.5,3.6-10.5
				c-0.1-1.1,0.3-1.7,0.9-2.4c3.6-3.9,8.2-5.8,13.3-6.6c2.7-0.5,5.5-0.8,7.9-2.4c0.4-0.3,0.9-0.3,1.5-0.5c0.1,3-0.8,5.4-2.5,7.6
				c-3,3.9-6.9,6.8-11.1,9.4c-0.2,0.1-0.4,0.2-0.7,0.3c-4.4,1.1-8.3,3.1-12,5.7C275.7,127.1,275.1,127.2,274.6,127.4 M303.8,119.4
				c-0.4,0.2-0.6,0.3-0.9,0.5c-1,0.8-2.1,0.6-3.2,0.4c-0.2,0-0.5-0.4-0.5-0.6c-0.1-1.1-0.2-2.3-0.2-3.4c0-1,0.3-1.9,1.1-2.7
				c1.8-1.9,3.2-4.1,3.6-6.7c0.2-1.7,1-2.9,2.3-3.9c0.1-0.1,0.2-0.2,0.4-0.3c3.3-2,6.7-4.1,10-6.1c2.4-1.4,4.9-2.7,6.7-4.9
				c0.3-0.4,0.7-0.6,1.2-1.1c0,0.6,0,0.9-0.1,1.2c-0.3,1.4-0.6,2.8-1,4.1c-1.7,5.1-4.7,9.5-8.1,13.6c-0.4,0.5-1.1,0.9-1.7,1.2
				c-3,1.5-6,2.9-9,4.4c-0.5,0.2-1,0.6-1.4,1c-0.7,0.7-0.7,1.7,0,2.5C303.2,118.9,303.5,119.1,303.8,119.4 M361.7,90.9
				c0.1,0.2,0.1,0.3,0.1,0.3c0,0.1,0,0.3,0,0.4c-0.7,3.4-2.2,6.4-4.7,8.9c-3.8,4-8.6,6.4-13.7,8.3c-0.3,0.1-0.7,0.1-1.1,0
				c-2.5-0.3-5-0.6-7.5-0.9c-0.8-0.1-1.7-0.2-2.7-0.2c3.7-3,6.9-6.3,9.7-10c0.4-0.5,1-0.9,1.6-1.1c3-0.9,6-1.7,9-2.5
				c2.8-0.7,5.8-1.2,8.3-2.7C361,91.1,361.3,91,361.7,90.9 M278.2,90.8c0.7,0.3,1.3,0.6,1.9,0.8c1.3,0.5,2.5,1.1,3.8,1.4
				c3,0.8,6,1.6,9.1,2.3c3,0.7,5.6,1.8,7.2,4.6c0.3,0.5,0.7,0.9,1.1,1.3c0.3,0.3,0.6,0.6,0.8,0.9c-0.7,0.3-1.3,0.4-1.8,0.7
				c-1.8,1.1-3.9,1.6-6,2c-4.6,0.8-4.6,0.9-8-1.6c-3.9-2.9-6.8-6.5-7.9-11.3C278.3,91.7,278.3,91.4,278.2,90.8 M347.4,108.9
				c1-0.5,1.9-1,2.8-1.4c0.2-0.1,0.4,0,0.6,0.1c3.5,1,6.6,2.8,9.2,5.4c0.9,0.9,1.7,1.7,1.2,3.1c-0.1,0.2,0,0.5,0,0.8
				c0.2,3.7,1.6,7,4,9.8c0.1,0.2,0.3,0.4,0.4,0.6c-0.1,0.1-0.1,0.1-0.2,0.2c-0.6-0.3-1.2-0.4-1.7-0.8c-2.9-2-6-3.8-9.4-4.8
				c-2.7-0.7-4.9-2.1-7-3.7c-0.3-0.2-0.5-0.4-0.8-0.7c0.5-0.3,1-0.5,1.3-0.8c1.3-1.1,2.8-2.1,3.9-3.4c1.4-1.6,0.6-3.5-1.5-4
				C349.3,109,348.4,109,347.4,108.9 M292.8,82.6c0.3,0.1,0.4,0.1,0.5,0.2c0.2,0.1,0.4,0.3,0.6,0.5c1.4,1.7,3.3,2.7,5.2,3.8
				c3.5,2,7.1,4,10.6,6.1c1.4,0.9,2.7,2,4.1,3c-3.2,2-6.3,4-9.4,6C299,96.6,294.4,90.6,292.8,82.6 M453.2,196
				c-0.1,4.1-0.2,8-0.3,11.9c-1.9-1.8-3.8-3.7-5.8-5.5c0.1,0,0.2,0.1,0.3,0.1c2.9,1,3.7-0.5,3.3-3.1c0-0.1-0.1-0.2-0.1-0.3
				c-0.5-1.8-1-3.5-1.5-5.4C450.4,194.9,451.2,196.6,453.2,196 M187.2,207.9c-0.1-3.9-0.2-7.9-0.4-11.7c0.6-0.1,1.1,0,1.6-0.2
				c0.5-0.2,0.9-0.6,1.3-0.9c0.4-0.3,0.8-0.7,1.2-1c-0.2,0.7-0.5,1.4-0.7,2.1c-0.4,1.6-0.8,3.2-1,4.8c-0.1,1.4,0.9,2.1,2.3,1.9
				c0.4-0.1,0.8-0.2,1.2-0.3C190.9,204.4,189,206.2,187.2,207.9 M198.9,303.8c-0.7-2.1-1.4-3.9-2-5.7c-0.1-0.2,0.1-0.6,0.2-0.9
				c0.6-1.4,1.4-2.8,1.9-4.2c0.8-2.4,1.3-4.8,2-7.3c-0.1,1.9-0.2,3.8-0.5,5.7C199.9,295.5,198.8,299.5,198.9,303.8 M439.2,286.1
				c0,0.1,0.1,0.1,0.1,0.2c0.5,4,1.7,7.7,3.7,11.2c0.1,0.2,0.2,0.6,0.1,0.9c-0.6,1.7-1.2,3.3-1.7,5
				C441.3,297.5,439,291.9,439.2,286.1 M427.2,173h8.5c0.6,1.6,1.2,3.1,1.9,4.9C434.3,175.5,430.6,174.2,427.2,173 M212.4,173
				c-2.8,1.3-6.3,2.8-9.8,4.4c0.5-1.4,1.2-2.9,1.7-4.4H212.4z M246.2,344.8c1.3,1.8,2.6,3.5,3.9,5.4c-1.6-0.4-2.9-0.7-4.1-1
				C246.1,347.7,246.2,346.3,246.2,344.8 M389.9,350.2c1.4-1.9,2.6-3.6,3.9-5.3c0.1,0,0.1,0,0.2,0.1v4.3
				C392.7,349.5,391.4,349.8,389.9,350.2 M237.4,147.6c-1.6,0.4-3.1,0.7-4.5,1.1c1-2,1.9-4,2.9-6c0.4,0.6,0.5,1.1,0,1.7
				c-0.6,0.7-0.4,1.6,0.4,2.3C236.5,147,236.9,147.3,237.4,147.6 M402.6,147.6c0.6-0.4,1-0.6,1.3-0.9c0.7-0.6,0.9-1.4,0.4-2.1
				c-0.6-0.7-0.4-1.3-0.1-1.9c0.9,2,1.9,4,2.9,6C405.7,148.4,404.2,148,402.6,147.6 M460.3,236.5c0.2-2.2,0.5-4.2,0.7-6.2
				c0.6,0.9,1.2,1.7,1.9,2.6C462.1,234,461.2,235.1,460.3,236.5 M179.1,230.3c0.2,2,0.4,3.9,0.7,5.9c-0.1,0-0.1,0-0.2,0
				c-0.8-1.1-1.6-2.2-2.3-3.3C177.8,232,178.4,231.2,179.1,230.3 M292.7,120.2c1.4-1,2.4-2.6,4.3-1.1c0,0,0.1,0,0.2,0.1
				c0.2,0.3,0.4,0.6,0.7,1H292.7z M342.5,120.2c0-1.4,1.2-1.4,1.9-1.6c1.4-0.4,1.8,1.1,2.8,1.6H342.5z M316.4,94.8
				c-0.3-1.4-0.5-2.6-0.7-3.9c0.1-0.1,0.2-0.1,0.3-0.2c0.8,1,1.6,1.9,2.4,2.9C317.9,93.9,317.3,94.3,316.4,94.8 M273.1,128.7v2.8
				h-3.3C271.1,130.4,272.1,129.5,273.1,128.7 M366.6,128.9c0.1-0.1,0.2-0.2,0.3-0.3c1,0.9,2.1,1.8,3.3,2.9h-3.5
				C367.4,130.5,367.2,129.7,366.6,128.9 M181.5,239.7c-0.3-0.6-0.5-1-0.7-1.4c0.5-0.1,1-0.1,1.5-0.2
				C182,238.7,181.8,239.1,181.5,239.7 M459.3,238.3c-0.2,0.4-0.5,0.9-0.8,1.4c-0.3-0.6-0.5-1-0.7-1.6
				C458.3,238.2,458.8,238.3,459.3,238.3"/>
			<path class="st4" d="M316.4,94.8c0.8-0.5,1.5-0.9,1.9-1.2c-0.8-1-1.6-1.9-2.4-2.9c-0.1,0.1-0.2,0.1-0.3,0.2
				C315.9,92.2,316.1,93.4,316.4,94.8"/>
			<path class="st4" d="M459.3,238.3c-0.5-0.1-0.9-0.1-1.5-0.2c0.2,0.5,0.5,1,0.7,1.6C458.8,239.2,459,238.8,459.3,238.3"/>
			<path class="st3" d="M303.1,374.1c-0.7,0.2-1.4,0.5-2.1,0.7c-3.7,1.2-7.4,2-11.2,2.4c-2.5,0.3-5,0.4-7.4,0.5
				c-2.7,0.1-5.5,0-8.2-0.3c-7.4-0.7-14.6-2.4-21.5-5c-4.1-1.6-8.1-3.4-11.9-5.6c-0.2-0.1-0.5-0.2-0.8-0.3c-0.8-0.2-1.4,0.3-1.5,1
				c-0.1,0.8,0.1,1.5,0.4,2.2c0.6,1.7,1.3,3.5,1.8,5.3c0.9,3.3,0.2,6.5-1.4,9.5c-0.8,1.5-1.9,2.9-2.8,4.3c-0.6,0.8-1.2,1.6-1.3,2.6
				c-0.1,0.9,0.2,1.6,0.9,2.1c0.8,0.5,1.7,0.8,2.6,0.8c1.8,0,3.6-0.1,5.5-0.2c1.8-0.1,3.6-0.3,5.4-0.5c1.8-0.2,3.6-0.4,5.4-0.6
				c2-0.2,4-0.5,6.1-0.8c2.9-0.4,5.7-0.8,8.6-1.3c3.4-0.6,6.8-1.1,10.1-1.8c8.4-1.6,16.7-3.4,24.8-6c0,0,0.1,0,0.2,0
				c0.1,0.2,0.2,0.4,0.3,0.6c-0.9,0.3-1.8,0.6-2.7,0.9c-6.8,2.1-13.8,3.8-20.8,5.1c-3.8,0.8-7.7,1.4-11.6,2.1
				c-1.2,0.2-2.4,0.3-3.5,0.9c-0.3,0.1-0.6,0.3-0.9,0.5c-1.1,0.8-1.2,2.1-0.2,3c0.7,0.7,1.7,1.1,2.7,1.5c3.2,1,6.4,1.5,9.7,1.4
				c4-0.1,7.9-1,11.7-2.2c6.6-2.2,12.7-5.3,18.4-9.2c0.1-0.1,0.3-0.2,0.4-0.2c1.4,0.9,2.8,1.9,4.2,2.8c0.7,0.5,1.4,0.8,2.3,0.9
				c1.3,0.2,2.3-0.3,3.1-1.3c0.9-1.1,1.2-2.4,1.5-3.7c0.2-1.1,0.4-2.2,0.7-3.4c0.1,0.5,0.2,1,0.2,1.5c0.3,1.6,0.6,3.2,1.4,4.7
				c0.5,1,1.2,1.8,2.4,2.1c1.1,0.3,2.1,0,3.1-0.5c1.6-1,3.1-2,4.7-3.1c0.7,0.4,1.5,1,2.3,1.5c5.3,3.3,10.9,6.1,16.9,8
				c2.9,0.9,5.8,1.6,8.8,1.9c4.4,0.5,8.6,0,12.7-1.5c0.7-0.3,1.4-0.7,2-1.2c1.2-1,1.1-2.3-0.2-3.2c-1.1-0.7-2.3-1-3.5-1.2
				c-3-0.5-6-1-9-1.6c-6-1.1-11.9-2.4-17.7-4c-2.9-0.8-5.8-1.7-8.7-2.6c-0.1,0-0.2-0.1-0.4-0.2c0.1-0.2,0.2-0.4,0.3-0.6
				c1.2,0.4,2.3,0.7,3.5,1.1c5.3,1.5,10.7,2.8,16.1,3.9c4.2,0.8,8.4,1.6,12.6,2.4c3.5,0.6,7,1.1,10.5,1.6c3.3,0.5,6.7,0.9,10.1,1.3
				c2.8,0.3,5.7,0.6,8.5,0.8c1.6,0.1,3.1,0.2,4.7,0.1c0.7,0,1.5-0.2,2.2-0.4c1.3-0.5,1.8-1.6,1.4-2.9c-0.3-0.9-0.8-1.6-1.4-2.3
				c-1.4-1.9-2.7-3.9-3.6-6.1c-1.2-3-1.1-6-0.1-9c0.5-1.4,1-2.8,1.5-4.1c0.2-0.4,0.3-0.9,0.3-1.4c0.1-1.3-1-1.9-2.1-1.3
				c-0.5,0.3-1,0.6-1.5,0.8c-7,3.8-14.3,6.6-22.1,8.4c-3.1,0.7-6.3,1.3-9.5,1.5c-2.6,0.2-5.2,0.4-7.8,0.4c-7.3,0-14.3-1.2-21.2-3.6
				c-0.1,0-0.2-0.1-0.4-0.2c0.2-0.1,0.3-0.2,0.4-0.3c3.7-2.3,7.1-5,9.7-8.4c1-1.3,1.8-2.6,2.4-4.1c1-2.7,0.6-5-1.2-7.2
				c-1.6-1.9-3.7-2.9-6.2-3.2c-2.7-0.3-5.3,0.2-7.9,0.7c-2.8,0.6-5.5,1.3-8.3,1.9c-2.4,0.5-4.8,0.8-7.3,0.6
				c-2.2-0.2-4.4-0.6-6.5-1.1c-2.7-0.6-5.5-1.3-8.2-1.8c-2.3-0.4-4.6-0.6-6.9-0.1c-3.3,0.7-5.5,2.7-6.6,5.8c-0.5,1.5-0.2,3,0.4,4.5
				c0.9,2.3,2.3,4.2,4,6c2.4,2.6,5.1,4.7,8.1,6.5c0.1,0.1,0.2,0.1,0.2,0.2C303,374,303,374,303.1,374.1 M303.2,375.8
				c0.1,1,0.1,2,0.2,3c0.1,1,0.4,2,0.6,3c-0.1,0-0.2,0.1-0.4,0.1c-6.2,2-12.6,3.5-19,4.8c-4,0.8-8.1,1.6-12.1,2.3
				c-2.9,0.5-5.8,0.9-8.6,1.4c-2.3,0.3-4.5,0.6-6.8,0.9c-2,0.3-4,0.5-6,0.7c-2,0.2-4,0.4-6,0.6c-1.8,0.2-3.6,0.3-5.5,0.3
				c-0.8,0-1.6-0.2-2.4-0.4c-0.6-0.2-0.8-0.5-0.5-1.1c0.2-0.5,0.5-0.9,0.8-1.3c1.3-1.7,2.5-3.4,3.4-5.3c1.6-3.2,2.2-6.5,1.2-10
				c-0.5-1.8-1.2-3.5-1.8-5.3c-0.1-0.4-0.2-0.7-0.4-1.2c0.2,0.1,0.3,0.2,0.4,0.2c1.3,0.7,2.6,1.4,4,2.1c6.7,3.3,13.8,5.8,21.2,7.3
				c4.2,0.9,8.5,1.4,12.8,1.5c3.1,0.1,6.3,0,9.4-0.3c3.1-0.3,6.3-0.8,9.3-1.6C299.2,376.9,301.2,376.3,303.2,375.8 M400,368.2
				c-0.1,0.4-0.2,0.6-0.3,0.9c-0.5,1.3-1,2.7-1.5,4c-1.1,3.2-1.2,6.4,0,9.6c0.9,2.5,2.3,4.6,3.9,6.7c0.4,0.5,0.8,1.1,1.1,1.7
				c0.4,0.8,0.2,1.2-0.6,1.4c-0.7,0.2-1.5,0.3-2.3,0.3c-2.6-0.1-5.2-0.3-7.9-0.6c-3.6-0.4-7.3-0.8-10.9-1.3c-3.5-0.5-7-0.9-10.5-1.5
				c-4.5-0.8-9.1-1.6-13.6-2.4c-6.3-1.2-12.5-2.7-18.7-4.5c-0.9-0.3-1.8-0.6-2.8-0.9c0.7-2,0.8-4,0.8-5.9c0.1,0,0.1,0,0.1,0
				c4.7,1.6,9.6,2.7,14.6,3.2c3.5,0.4,7.1,0.5,10.6,0.3c3.8-0.1,7.6-0.6,11.4-1.3c8.3-1.6,16.2-4.4,23.6-8.2
				C398.1,369.3,399,368.8,400,368.2 M304,372.7c0,0-0.1,0-0.2-0.1c-3.1-1.9-6-4.1-8.4-6.8c-1.4-1.6-2.7-3.3-3.4-5.4
				c-0.3-0.9-0.5-1.8-0.4-2.7c0.3-1.6,1.2-2.8,2.4-3.8c1.6-1.3,3.6-1.7,5.6-1.7c1.9,0,3.8,0.3,5.7,0.7c3.2,0.7,6.4,1.5,9.6,2.1
				c3.3,0.7,6.6,0.7,9.9,0c3-0.6,5.9-1.3,8.9-2c2.4-0.5,4.8-1,7.2-0.9c3.2,0.1,5.5,1.4,6.9,4.3c0.4,0.9,0.5,1.7,0.4,2.6
				c-0.3,1.6-1,2.9-1.8,4.2c-1.9,2.8-4.3,5.1-7.1,7.1c-1.1,0.8-2.3,1.5-3.4,2.3c-0.6-0.8-1.2-1.6-1.8-2.4c0.4-0.3,0.8-0.7,1.2-1.1
				c1.1-1.1,2-2.2,2.5-3.7c0.6-2-0.4-3.5-2.4-3.8c-0.7-0.1-1.5-0.2-2.2-0.1c-3.3,0.4-6.7,0.9-10,1.4c-1.6,0.2-3.3,0.4-5,0.2
				c-3.2-0.4-6.4-0.9-9.5-1.3c-1.3-0.2-2.6-0.3-3.9-0.3c-2.2,0.1-3.4,1.8-2.8,3.8c0.4,1.4,1.2,2.5,2.2,3.5c0.5,0.5,1,0.9,1.5,1.3
				C305.2,371.1,304.6,371.9,304,372.7 M304.8,376.7c-0.2-1.5,0.3-2.9,1.3-4.2c1.5-2,3.5-3.3,5.8-4.2c4.8-1.7,9.6-1.8,14.5-0.5
				c2.7,0.7,5.1,2,6.9,4.1c1.2,1.3,1.9,2.8,1.7,4.7c-0.1,0.7-0.1,1.4-0.2,2c-0.3,2.5-1.3,4.7-3.1,6.5c-1.6,1.6-3.5,2.9-5.5,4.1
				c-0.3,0.2-0.6,0.3-0.8,0.4c-0.9,0.3-1.6,0.1-2.2-0.7c-0.3-0.5-0.6-1.1-0.8-1.7c-0.6-1.7-0.8-3.5-1-5.3c-0.1-0.7-0.3-1.2-1-1.5
				c-0.9-0.4-1.8,0.2-2,1.2c-0.3,1.5-0.5,3-0.9,4.4c-0.2,1.1-0.6,2.2-1.3,3c-0.4,0.5-1,0.7-1.6,0.5c-0.5-0.1-0.9-0.3-1.3-0.6
				c-1.4-0.9-2.8-1.9-4.2-2.9c-1.6-1.2-2.8-2.7-3.5-4.6C305.1,380,304.9,378.4,304.8,376.7 M307.1,386.3c-0.7,0.4-1.3,0.8-1.9,1.2
				c-5.7,3.5-11.6,6.5-18.1,8.4c-2.5,0.7-5.1,1.3-7.7,1.5c-2.4,0.2-4.8,0.1-7.2-0.3c-1.6-0.3-3.2-0.6-4.6-1.3
				c-0.4-0.2-0.8-0.5-1.1-0.7c-0.3-0.2-0.2-0.5,0-0.6c0.3-0.2,0.7-0.4,1-0.5c0.8-0.2,1.6-0.4,2.5-0.5c3.2-0.6,6.3-1.1,9.5-1.7
				c5.3-1,10.5-2.1,15.7-3.5c3.5-0.9,7-2,10.4-3c0.2-0.1,0.4-0.1,0.5,0.1C306.4,385.6,306.7,385.9,307.1,386.3 M332.9,386.3
				c0.3-0.4,0.7-0.7,0.9-1.1c0.2-0.2,0.3-0.2,0.5-0.1c0.9,0.3,1.8,0.6,2.7,0.9c6.2,1.9,12.6,3.5,19,4.8c4.9,1,9.9,1.8,14.8,2.7
				c0.9,0.2,1.7,0.5,2.5,0.8c0.6,0.3,0.6,0.6,0.1,0.9c-0.5,0.3-0.9,0.6-1.5,0.8c-4,1.4-8.1,1.8-12.3,1.3c-2.8-0.3-5.5-1-8.1-1.8
				c-5.5-1.8-10.7-4.3-15.6-7.3C334.9,387.6,333.9,387,332.9,386.3 M307,369.3c-0.7-0.7-1.4-1.3-2.1-2c-0.6-0.6-1-1.4-1.3-2.2
				c-0.3-1.1,0.2-1.8,1.3-1.9c0.7-0.1,1.5,0,2.2,0.1c3,0.4,6,0.9,9,1.3c2,0.3,4.1,0.5,6.2,0.2c3.2-0.4,6.3-0.9,9.5-1.3
				c0.9-0.1,1.8-0.3,2.7-0.3c1.8,0,2.4,0.9,1.7,2.6c-0.7,1.5-1.9,2.6-3.2,3.6C326.6,363.9,313.1,364.2,307,369.3"/>
			<path class="st4" d="M303.2,375.8c-2,0.6-4.1,1.2-6.1,1.7c-3.1,0.8-6.2,1.3-9.3,1.6c-3.1,0.3-6.3,0.4-9.4,0.3
				c-4.3-0.1-8.6-0.7-12.8-1.5c-7.4-1.5-14.5-3.9-21.2-7.3c-1.3-0.7-2.6-1.4-4-2.1c-0.1-0.1-0.2-0.1-0.4-0.2
				c0.2,0.5,0.3,0.8,0.4,1.2c0.6,1.7,1.3,3.5,1.8,5.3c0.9,3.5,0.4,6.8-1.2,10c-0.9,1.9-2.1,3.6-3.4,5.3c-0.3,0.4-0.6,0.9-0.8,1.4
				c-0.3,0.6-0.1,1,0.5,1.1c0.8,0.2,1.6,0.4,2.4,0.4c1.8,0,3.6-0.2,5.5-0.3c2-0.2,4-0.4,6-0.6c2-0.2,4-0.5,6-0.7
				c2.3-0.3,4.5-0.6,6.8-0.9c2.9-0.4,5.8-0.9,8.6-1.4c4-0.7,8.1-1.5,12.1-2.3c6.4-1.3,12.7-2.8,19-4.8c0.1,0,0.3-0.1,0.4-0.1
				c-0.2-1-0.4-2-0.6-3C303.3,377.7,303.3,376.7,303.2,375.8"/>
			<path class="st4" d="M400,368.2c-1,0.5-1.9,1.1-2.9,1.5c-7.5,3.9-15.3,6.7-23.6,8.2c-3.8,0.7-7.5,1.2-11.4,1.3
				c-3.6,0.1-7.1,0-10.6-0.3c-5-0.5-9.8-1.6-14.6-3.2c0,0-0.1,0-0.1,0c-0.1,2-0.1,4-0.8,5.9c0.9,0.3,1.9,0.6,2.8,0.9
				c6.2,1.8,12.4,3.3,18.7,4.5c4.5,0.9,9.1,1.7,13.6,2.4c3.5,0.6,7,1.1,10.5,1.5c3.6,0.5,7.3,0.9,10.9,1.3c2.6,0.3,5.2,0.4,7.9,0.6
				c0.8,0,1.5-0.1,2.3-0.3c0.8-0.2,1-0.6,0.6-1.4c-0.3-0.6-0.7-1.2-1.1-1.7c-1.6-2.1-3-4.3-3.9-6.7c-1.2-3.2-1-6.4,0-9.6
				c0.5-1.4,1-2.7,1.5-4C399.8,368.8,399.9,368.6,400,368.2"/>
			<path class="st4" d="M304,372.7c0.6-0.8,1.2-1.6,1.8-2.4c-0.5-0.4-1-0.9-1.5-1.3c-1-1-1.9-2.1-2.2-3.5c-0.6-2.1,0.6-3.8,2.8-3.8
				c1.3,0,2.6,0.1,3.9,0.3c3.2,0.4,6.4,0.9,9.5,1.3c1.7,0.2,3.3,0,5-0.2c3.3-0.5,6.7-1,10-1.4c0.7-0.1,1.5-0.1,2.2,0.1
				c2,0.3,3,1.9,2.4,3.8c-0.4,1.5-1.4,2.7-2.5,3.7c-0.4,0.4-0.8,0.8-1.2,1.1c0.6,0.8,1.2,1.6,1.8,2.4c1.1-0.7,2.3-1.5,3.4-2.3
				c2.7-2,5.2-4.3,7.1-7.1c0.9-1.3,1.6-2.7,1.8-4.2c0.2-0.9,0.1-1.8-0.4-2.6c-1.4-2.8-3.7-4.1-6.9-4.3c-2.5-0.1-4.8,0.4-7.2,0.9
				c-3,0.6-5.9,1.4-8.9,2c-3.3,0.7-6.6,0.7-9.9,0c-3.2-0.7-6.4-1.4-9.6-2.1c-1.9-0.4-3.8-0.7-5.7-0.7c-2,0-4,0.3-5.6,1.7
				c-1.2,1-2.1,2.3-2.4,3.8c-0.2,0.9,0,1.8,0.3,2.7c0.7,2,1.9,3.8,3.4,5.4c2.4,2.7,5.3,5,8.4,6.8C303.9,372.7,304,372.7,304,372.7"
				/>
			<path class="st4" d="M304.8,376.7c0,1.7,0.2,3.3,0.8,4.8c0.7,1.9,2,3.4,3.5,4.6c1.3,1,2.8,2,4.2,2.9c0.4,0.3,0.9,0.4,1.3,0.6
				c0.7,0.2,1.2,0,1.6-0.5c0.8-0.9,1.1-1.9,1.3-3c0.3-1.5,0.6-3,0.9-4.4c0.2-1,1.1-1.6,2-1.2c0.7,0.3,0.9,0.8,1,1.5
				c0.2,1.8,0.4,3.6,1,5.3c0.2,0.6,0.5,1.2,0.8,1.7c0.5,0.8,1.3,1,2.2,0.7c0.3-0.1,0.6-0.2,0.8-0.4c2-1.2,3.9-2.4,5.5-4.1
				c1.8-1.8,2.8-4,3.1-6.5c0.1-0.7,0.1-1.4,0.2-2c0.2-1.8-0.6-3.3-1.7-4.7c-1.8-2.1-4.2-3.4-6.9-4.1c-4.9-1.3-9.7-1.2-14.5,0.5
				c-2.3,0.8-4.3,2.2-5.8,4.2C305.1,373.8,304.6,375.2,304.8,376.7"/>
			<path class="st4" d="M307.1,386.3c-0.4-0.4-0.7-0.7-1-1.1c-0.2-0.2-0.3-0.2-0.5-0.1c-3.5,1-6.9,2.1-10.4,3
				c-5.2,1.4-10.4,2.5-15.7,3.5c-3.2,0.6-6.3,1.1-9.5,1.7c-0.8,0.2-1.7,0.3-2.5,0.5c-0.4,0.1-0.7,0.3-1,0.5c-0.3,0.2-0.3,0.4,0,0.6
				c0.4,0.3,0.7,0.5,1.1,0.7c1.5,0.7,3,1,4.6,1.3c2.4,0.4,4.8,0.6,7.2,0.3c2.6-0.2,5.2-0.8,7.7-1.5c6.5-1.9,12.4-4.8,18.1-8.4
				C305.8,387.2,306.4,386.8,307.1,386.3"/>
			<path class="st4" d="M332.9,386.3c1,0.6,2,1.3,3,1.9c4.9,3,10.1,5.5,15.6,7.3c2.7,0.9,5.4,1.5,8.1,1.8c4.2,0.5,8.3,0.1,12.3-1.3
				c0.5-0.2,1-0.5,1.5-0.8c0.5-0.4,0.5-0.7-0.1-0.9c-0.8-0.3-1.6-0.6-2.5-0.8c-4.9-0.9-9.9-1.7-14.8-2.7c-6.4-1.3-12.7-2.9-19-4.8
				c-0.9-0.3-1.8-0.6-2.7-0.9c-0.2-0.1-0.4-0.1-0.5,0.1C333.6,385.6,333.2,386,332.9,386.3"/>
			<path class="st4" d="M361.5,127.1c-5.9-3.9-12.4-5.8-19.5-5.3c-2.2,0.1-4.5,0.5-6.7,0.9c-3.5,0.6-6.9,2-10.6,0.9
				c0,0.1-0.1,0.2-0.1,0.2c0.5,0.4,0.9,0.9,1.5,1.2c6.5,4.1,13.4,7.1,21,8.2c2.6,0.4,5.4,0.2,8,0.3c0.5,0,0.9-0.1,1.1-0.8
				c0.3-1,1.2-1.5,2.2-1.6c1.1-0.1,2.3-0.2,3.3,0.1c1.5,0.4,2.6-0.2,4-1C364.2,129.1,362.9,128,361.5,127.1 M335.6,126.2
				c3,1.9,19.4,0.2,23.8,3.2C354.6,127.4,341.5,130.6,335.6,126.2"/>
			<path class="st4" d="M401.7,137.5c-1.4-2.6-3.6-4.4-6-6c-4.3-2.9-9-4.9-13.6-7.2c-3.5-1.7-7-3.5-10.5-5.3c-2-1-3.7-2.5-5-4.3
				c-0.4-0.5-0.9-0.9-1.5-1.3c-1-0.6-1.7-0.4-1.9,0.7c-0.2,1.4-0.3,2.8-0.2,4.2c0.3,3,1.8,5.5,3.9,7.6c1.7,1.8,3.6,3.4,5.4,5
				c0.3,0.3,0.8,0.5,1.2,0.5c10.6,0.4,20,4.1,28.3,10.6c0.2,0.2,0.5,0.3,0.8,0.6C402.9,140.8,402.5,139.1,401.7,137.5 M371.6,122.3
				c3,5.1,23.8,8.9,27.3,14.7C393.1,130.8,377,132.1,371.6,122.3"/>
			<path class="st4" d="M399.4,142.4c-5.9-4.4-12.5-7.5-19.8-8.6c-3-0.5-6-0.5-9-0.7c-3.2-0.1-6.5,0.2-9.6-0.5
				c-0.6-0.1-1.3-0.1-1.9,0c-1.3,0.1-1.8,0.8-1,1.8c1.2,1.5,2.4,2.9,3.9,4.1c5.1,4.1,11.1,6.2,17.4,7.6c4.2,1,8.4,1.4,12.7,1.5
				c0.7-2.5,2.4-2.5,4.1-2.2c0.7,0.1,1.5,0.3,2.1,0.7c1.8,1.2,3.1,0.1,4.9-0.7C401.9,144.3,400.7,143.3,399.4,142.4 M364.8,135.5
				c5.4,4,23.3,1.3,31.1,8.1C384.5,137.9,377.4,145.9,364.8,135.5"/>
			<path class="st4" d="M365.2,126.7c-1.5-1.7-2.6-3.6-3.3-5.7c-3.4-2.4-7.7-4-11.5-6.6c-0.9,0.8-1.8,1.5-2.7,2.2
				c-0.4,0.3-0.8,0.5-1.3,0.8c0.3,0.2,0.5,0.5,0.8,0.7c2.2,1.6,4.4,3,7,3.7c3.4,1,6.5,2.8,9.4,4.8c0.5,0.4,1.2,0.5,1.7,0.8
				c0.1-0.1,0.1-0.1,0.2-0.2C365.5,127,365.4,126.8,365.2,126.7"/>
			<path class="st4" d="M351.6,113.2c-0.1,0.1-0.2,0.3-0.4,0.4c3.4,1.6,7.3,3.2,10.3,6c-0.2-0.9-0.3-1.8-0.4-2.7
				c0-0.3-0.1-0.5,0-0.8c0.5-1.4-0.3-2.2-1.2-3.1c-2.6-2.6-5.7-4.4-9.2-5.4c-0.2-0.1-0.5-0.2-0.6-0.1c-0.9,0.4-1.8,0.9-2.8,1.4
				c1,0.1,1.9,0.1,2.8,0.3C352.2,109.7,353,111.6,351.6,113.2"/>
			<path class="st4" d="M434.1,162c-3.2-9.4-9.4-16.3-17.8-21.5c-1.5-0.9-3-1.8-4.4-2.8c-1.1-0.7-2.1-1.6-3.1-2.4
				c-0.7-0.5-1.4-1.1-2.2-1.4c-0.9-0.4-1.5-0.1-1.8,0.9c-0.5,1.6-0.1,3.1,0.3,4.6c0.8,3.4,2.2,6.5,4.1,9.3c0.3,0.4,0.8,0.8,1.3,1
				c8.8,2.6,16.3,7.3,22.3,14.2c0.5,0.6,1,1.2,1.5,1.8c0,0,0.1,0,0.3,0C434.4,164.4,434.4,163.1,434.1,162 M412.7,141.5
				c0.9,2.3,11.7,9.4,14.7,15.7C424.6,151.7,415.7,149.8,412.7,141.5"/>
			<path class="st4" d="M434.1,168.1c-7-9.7-16.5-15.4-28-18.1c-3-0.7-6.1-1.3-8.8-2.7c-0.6-0.3-1.3-0.4-2-0.5
				c-1.1-0.1-1.7,0.6-1.4,1.7c0.2,0.9,0.6,1.7,1,2.5c2.5,4.3,5.9,7.7,9.8,10.5c4.7,3.4,9.8,5.8,15.3,7.7c4.1,1.4,8.3,2.5,12.7,2.4
				c0.9,0,1.7-0.1,3-0.2C435,170.2,434.7,169,434.1,168.1 M400.3,151.5c5.8,5.1,20.6,3.6,29.9,17
				C421.6,159.5,404.8,156.3,400.3,151.5"/>
			<path class="st4" d="M453,184c-0.2-1.5,0.3-2.1,1.8-2.3c-0.1-4.3-1.3-8.2-3.6-11.8c-2-3.1-4.5-5.6-7.2-8
				c-1.4-1.2-2.7-2.5-3.6-4.1c-0.4-0.7-1.2-1.1-1.9-1.6c-0.5,0.7-1.1,1.3-1.4,2c-1.9,5.5-1.3,10.8,0.8,16.1c0.6,1.6,1.3,3.2,2.2,4.6
				c0.8,1.3,1.8,2.5,2.7,3.7c1.1,1.6,2.2,3.3,3.4,4.9c1.7,2.2,3.6,4.3,5.4,6.5c0.2,0.2,0.5,0.3,0.7,0.5c1.3-2.9,1.7-5.8,1-8.8
				C453.2,185.2,453.1,184.6,453,184 M451.9,189.1c0.5-5.1-11.7-18.1-11.4-27.6C441,169.5,452.6,174.8,451.9,189.1"/>
			<path class="st4" d="M449.2,200c-1.4-5.7-3.5-11.1-7.1-15.8c-3.5-4.5-8.1-7.3-13.4-9.1c-1.1-0.4-2.3-0.7-3.4-1.2
				c-1.1-0.6-2.1-1.3-3.2-2c-0.5-0.3-1-0.6-1.6-1c-0.6,1.4-0.3,2.7-0.2,4c0.6,4.7,3.1,8.5,6.3,11.8c4.4,4.6,9.8,8,15.3,11.1
				c1.9,1.1,3.8,2.1,5.7,3.1c0.4,0.2,0.9,0.3,1.5,0.5C449.2,200.8,449.3,200.4,449.2,200 M425.1,176.3c2.8,7.2,18.7,8.1,21,20.4
				C443.8,190.1,425.1,183.1,425.1,176.3"/>
			<path class="st4" d="M469.4,209.3c-0.5-8.9-3.8-16.6-10.2-22.8c-1.6-1.6-3.5-2.8-4.6-3c0,0.4,0,0.7,0.1,1
				c0.9,3.1,0.6,6.2,0.5,9.3c-0.2,4.8-0.4,9.5-0.5,14.3c0,1.4,0.3,2.7,1.1,4c2.7,4.2,4.4,8.9,5,13.9c0.1,0.4,0.3,0.9,0.5,1.3
				c0.7,1.3,1.5,2.7,2.5,4.3c0.5-0.7,0.8-1.2,1-1.6C467.9,223.5,469.8,216.6,469.4,209.3 M459.2,189.7c8.4,9.4,2.6,23.6,6.1,34
				C461.1,216.1,463.2,196.9,459.2,189.7"/>
			<path class="st4" d="M457.6,241.7c-2.3-5.8-5.8-10.6-10.8-14.3c-1.6-1.2-3.4-2.3-5.6-3c0.1,0.5,0.2,0.8,0.3,1
				c1.4,3.1,1.6,6.4,1.9,9.7c0.6,6.6,1.2,13.2,3.8,19.5c0.2,0.6,0.5,1.2,0.8,1.7c0,0.1,0.1,0.1,0.2,0.2c0.9-0.8,1.7-1.6,2.5-2.4
				c0.5-0.4,0.9-0.9,1.4-1.3c0.7-0.5,1.3-0.6,1.8-0.3c-2.3-8.1-3.4-17.5-8.5-22.9c11.7,11.4,8.1,24.1,11.6,30.7c0.3,0.5,0.6,1,1,1.4
				c-0.4-0.4-0.7-0.9-1-1.4c-0.7-1.2-1.4-2.5-1.9-3.9c0.2,3.1,0.3,6.2,0.4,9.2c0.1,1.4,0.4,2,1.9,3.1c0.2-0.3,0.4-0.6,0.5-1
				C460.6,259,461,250.3,457.6,241.7"/>
			<path class="st4" d="M477.4,223.6c-0.7,0.3-1.5,0.6-2.2,1c-7.1,3.7-12.1,9.5-15.6,16.7c-0.1,0.3-0.1,0.7,0,1
				c1.8,5.3,2.6,10.8,1.9,16.3c-0.4,3.2-1.2,6.4-2,9.6c-0.2,1.1-0.8,2.1-2.2,2.1c0.5,1.7,1,3.3,1.6,5.1c0.5-0.4,0.8-0.6,1-0.9
				c2.4-3,5-5.8,7.2-8.9c3.6-4.9,5.4-10.5,6.4-16.4c0.8-4.8,1.2-9.6,1.8-14.4c0.4-3.2,0.7-6.4,2-9.4c0.2-0.5,0.3-1.1,0.5-1.6
				C477.5,223.8,477.5,223.7,477.4,223.6 M461.8,266.2c5.6-7.6-0.9-24,9.8-34.8C467.1,239.4,468.1,259.6,461.8,266.2"/>
			<path class="st4" d="M452.7,210.5c-3.4-4.6-7.7-8-12.9-10.3c-0.1-0.1-0.3-0.1-0.4-0.2c-1.3-0.5-1.5-0.4-1.6,1
				c-0.4,4.2,0.8,8.1,2.6,11.9c2.1,4.4,5.1,8.2,8.2,11.9c2.9,3.5,5.8,7,8.6,10.5c0.4,0.5,0.8,0.9,1.3,1.5c0.2-1.4,0.4-2.5,0.5-3.7
				C460.1,224.7,457.7,217.2,452.7,210.5 M442.6,205.4c1.2,6.8,14,13.4,15.4,25.9C455,222.9,441.2,212.2,442.6,205.4"/>
			<path class="st4" d="M453.9,264.5c-0.2-2.3-0.2-4.5-0.3-6.8c-0.1-1.2-0.1-2.4-0.2-3.6l-0.4,0c-6.2,5.4-10.4,12.2-11.9,20.4
				c-1.4,7.5-0.6,14.7,2.8,21.6c1.1-1.6,2-3.3,3.1-4.8c-2.2-10.4,5.4-26.1,4.4-29.9c1.7,7.2-3.2,21.1-3.7,29c1.9-2.3,4-4.3,6-6.5
				c0.4-0.4,0.7-1,0.7-1.5C455.1,276.3,454.4,270.4,453.9,264.5"/>
			<path class="st4" d="M470.3,272.1c-0.5,0.4-1,0.6-1.4,1c-3.8,4-8.5,7-12.7,10.6c-6,5.1-10.8,11-13,18.7c-0.6,2.1-0.9,4.4-1.3,6.6
				c-0.2,1.1,0.1,1.3,1.2,1.1c4.4-0.9,8.4-2.6,12-5.3c8-6.1,13-14.1,14.6-24.1c0.4-2.5,0.4-5.2,0.6-7.7
				C470.4,272.8,470.3,272.6,470.3,272.1 M449.4,305.1c2.3-8.9,15.9-17,18.7-23.8C462.9,296.8,452.6,295.7,449.4,305.1"/>
			<path class="st4" d="M439.6,303.4c-0.1-2.9-0.6-5.8-1.1-8.7c-0.6-3.4-1.3-6.8-0.9-10.3c0.1-0.7-0.3-1.5-0.5-2.3
				c-0.7,0.4-1.4,0.6-2,1.1c-5.4,4.6-8.8,10.5-10.7,17.2c-0.8,2.8-1.3,5.7-1.9,8.7c1.1-0.3,1.9-0.6,2.7-0.8c0.5-0.1,1.1-0.1,1.7,0.1
				c0.9,0.2,1.2,0.9,0.9,1.8c-0.2,0.5-0.4,1.1-0.8,1.5c-1.6,1.5-2.1,3.5-2.6,5.6c-0.3,1.4-0.7,2.8-0.9,4.3c-0.1,0.5,0.1,1.1,0.2,1.8
				c0.6-0.3,0.9-0.6,1.3-0.8c2.8-1.5,5.7-3,8.5-4.5c0.5-0.3,1-0.6,1.4-1.1C437.9,312.9,439.7,308.5,439.6,303.4 M427.9,318.3
				c5.6-7.4,0-19.3,6.8-29.8C431.6,297,435.8,310.8,427.9,318.3"/>
			<path class="st4" d="M455.4,310.7c-0.6,0.2-1.3,0.3-1.9,0.6c-5.6,3.1-11.8,5-17.7,7.4c-4.5,1.9-8.9,4.1-12.9,7
				c-0.4,0.3-0.8,0.8-1,1.3c-2.2,6.6-6,12.1-11.5,16.5c-0.1,0.1-0.2,0.2-0.3,0.3c0,0.1,0,0.2,0,0.2c1.6,0,3.3,0,4.9,0
				c16.3-0.5,33.3-13,39.4-29.9c0.4-1.1,0.8-2.2,1.3-3.3C455.6,310.8,455.5,310.8,455.4,310.7 M419.2,339.5
				c6.5-12.1,26.1-14.5,31.2-21.7c0.2-0.3,0.4-0.5,0.5-0.8c-0.1,0.3-0.3,0.6-0.5,0.8C442.1,330.7,425.9,329.7,419.2,339.5"/>
			<path class="st4" d="M426.1,309.7c-0.8,0.3-1.6,0.4-2.4,0.8c-7.5,3.9-14.3,8.8-19.8,15.3c-1.2,1.4-2.3,3-3.4,4.5
				c-1,1.4-1.7,2.8-2.1,4.5c-0.5,1.8-1.3,3.6-2.1,5.4c-0.8,1.9-1.2,6.4-0.5,8.7c1.6-0.3,3.2-0.4,4.7-1c6.7-3.1,12.4-7.3,16.5-13.6
				c2.7-4.2,4.1-8.8,5.2-13.7c0.4-1.9,0.8-3.8,1.3-5.7c0.4-1.5,1.1-2.8,2.2-3.9c0.3-0.3,0.5-0.6,0.7-1
				C426.2,309.9,426.2,309.8,426.1,309.7 M400.3,344.2c11-10.2,6.5-19.8,21-28.9C412.9,322.7,414.1,334,400.3,344.2"/>
			<path class="st4" d="M421,348.8c-4.4-0.4-8.8-0.4-13.3-0.1c-6.4,0.5-12.6,1.7-18.8,3.4c-0.9,0.2-1.4,0.7-2,1.3
				c-5.4,5.6-11.5,10.1-18.2,13.7c12.2,1,32-15.3,45.9-14.9c-11.6,2.3-33.8,17-46,14.9c-1.9,1-3.8,1.9-5.8,2.7
				c-0.3,0.1-0.6,0.3-0.9,0.4c0,0.1,0,0.1,0,0.2c1.8,0.2,3.7,0.5,5.5,0.7c10.4,0.9,20.3-1,29.7-5.6c5.3-2.7,10.2-6.1,15.1-9.5
				c1.7-1.3,3.5-2.5,5.4-3.6c1.6-0.9,3.3-1.4,5-2.1c0.4-0.2,0.8-0.3,1.2-0.4l0-0.3C422.9,349.3,422,348.9,421,348.8"/>
			<path class="st4" d="M397.2,331.8c-0.1-0.9-0.5-1.2-1.4-0.9c-0.6,0.2-1.2,0.4-1.7,0.7c-5.1,3.5-10.9,5.5-16.5,8
				c-7.6,3.3-14.9,7-21.4,12.2c-6.3,5.1-11.5,11.1-15.5,18.2c-1.2,2.1-1,2.5,1.4,2.5c0.5,0,0.9,0,1.4,0c8.8-0.1,16.8-2.8,24.5-6.9
				c9.2-5,17.2-11.5,23.3-20.1c2.5-3.6,4.5-7.4,5.7-11.6C397.2,333.3,397.3,332.5,397.2,331.8 M350.6,367.3
				c4.4-11.5,36.4-20,41.3-30C391,350.3,354.6,358.6,350.6,367.3"/>
			<path class="st4" d="M309.6,93.1c-3.5-2.1-7-4.1-10.6-6.1c-1.9-1.1-3.8-2.1-5.2-3.8c-0.2-0.2-0.4-0.3-0.6-0.5
				c-0.1-0.1-0.2-0.1-0.5-0.2c1.6,8,6.2,14,11.4,19.6c3.1-2,6.2-4,9.4-6C312.3,95.1,311.1,94,309.6,93.1 M308.1,99.4
				c-4.7-3.2-9.3-6.6-10.5-11.3c1.6,3.6,7.2,6.6,11.9,10.2C309,98.5,308.6,99.2,308.1,99.4"/>
			<path class="st4" d="M301.3,101.2c-0.4-0.4-0.8-0.8-1.1-1.3c-1.6-2.9-4.2-4-7.2-4.6c-3.1-0.7-6.1-1.4-9.1-2.3
				c-1.3-0.4-2.5-0.9-3.8-1.4c-0.6-0.2-1.1-0.5-1.9-0.8c0.1,0.6,0.1,0.9,0.2,1.3c1.1,4.8,4,8.5,7.9,11.3c3.4,2.4,3.3,2.4,8,1.6
				c2.1-0.4,4.1-0.9,6-2c0.5-0.3,1.2-0.5,1.8-0.7C301.8,101.9,301.5,101.6,301.3,101.2 M299.2,103.2c-6.8-2.3-14.7-4-17-8.5
				c3.7,4.5,12.1,4.2,19.4,7.4C300.8,102.4,299.9,102.8,299.2,103.2"/>
			<path class="st4" d="M313,124c-2.1-0.2-4.2-0.6-6.3-0.8c-3.3-0.5-6.7-1.2-10-1.4c-7.2-0.3-13.6,2.1-19.4,6.2
				c-1,0.7-1.9,1.4-2.9,2.2c1.3,0.8,2.3,1.4,3.8,1.1c1.3-0.2,2.6-0.1,3.9,0c0.9,0.1,1.4,0.8,1.8,1.6c0.1,0.3,0.7,0.6,1.2,0.6
				c4,0.4,8-0.1,12-1c6.1-1.5,11.7-4.1,17-7.4c0.2-0.2,0.5-0.3,0.7-0.5c0.3-0.2,0.5-0.5,0.9-0.9C314.5,123.8,313.7,124.1,313,124
				 M280.5,129.4c4.4-3,20.8-1.3,23.8-3.2C298.5,130.6,285.4,127.4,280.5,129.4"/>
			<path class="st4" d="M277.1,115c-0.1-0.6-0.5-1.5-1-1.6c-0.5-0.2-1.3,0.3-1.8,0.7c-1.1,1-2,2.2-3.1,3.1c-3.2,2.7-7,4.3-10.7,6.1
				c-4.6,2.2-9.2,4.4-13.7,6.8c-2.8,1.5-5.3,3.3-7.3,5.8c-1.4,1.8-2.2,3.7-2.1,6c0,0.2,0,0.4,0.1,0.6c0,0.1,0.1,0.1,0.1,0.2
				c1.9-1.3,3.7-2.7,5.7-3.9c6.3-4,13.2-6.4,20.6-7c0.3,0,0.6-0.2,0.9-0.1c2,0.3,3.4-0.7,4.8-2c2.4-2.2,4.7-4.4,6.3-7.3
				C277,120.1,277.5,117.6,277.1,115 M241.1,137c3.5-5.7,24.3-9.6,27.3-14.7C263,132.1,246.9,130.8,241.1,137"/>
			<path class="st4" d="M282.2,133.2c-0.4-0.9-1.5-0.8-2.3-0.6c-5.4,1-10.9,0.2-16.4,0.8c-7.8,0.8-14.9,3.6-21.3,8
				c-1.5,1-2.9,2.2-4.3,3.2c-0.3,0.2-0.6,0.4-0.8,0.6c1.6,1.1,3,2,4.8,0.9c0.8-0.5,1.8-0.7,2.7-0.8c2.1-0.2,2.8,0.3,3.6,2.4
				c2.9-0.3,5.8-0.5,8.7-0.9c6.2-0.9,12.2-2.7,17.7-5.9c2.5-1.5,4.9-3.2,6.8-5.4C281.8,134.9,282.6,134.1,282.2,133.2 M244.1,143.6
				c7.7-6.8,25.7-4,31.1-8.1C262.6,145.9,255.5,137.9,244.1,143.6"/>
			<path class="st4" d="M300.9,104.3c-2.4,1.6-5.2,1.9-7.9,2.4c-5.1,0.9-9.7,2.7-13.3,6.6c-0.6,0.7-1,1.3-0.9,2.4
				c0.2,4-1.1,7.5-3.6,10.5c-0.3,0.3-0.5,0.6-0.7,0.9l0.1,0.2c0.5-0.2,1.1-0.3,1.6-0.6c3.7-2.5,7.6-4.6,12-5.7
				c0.2-0.1,0.5-0.2,0.7-0.3c4.1-2.6,8-5.5,11.1-9.4c1.7-2.2,2.6-4.7,2.5-7.6C301.8,104,301.3,104.1,300.9,104.3 M278.6,121.6
				c4.3-8.2,16.2-9.5,20-14.2c0.1-0.2,0.2-0.3,0.4-0.5c-0.1,0.2-0.2,0.3-0.4,0.5C293.5,114.7,283.1,116,278.6,121.6"/>
			<path class="st4" d="M349.7,110.7c-0.7-0.2-1.4-0.2-2.1-0.2c-2.8-0.2-5.7-0.2-8.5-0.7c-12.3-1.9-23.7,0.5-34.3,6.9
				c-0.3,0.2-0.5,0.4-1,0.7c0.7,0.5,1.3,0.9,1.8,1.2c2.9,1.5,6,2.1,9.2,2.5c4.6,0.5,9.2,0.5,13.7,0c7.1-0.8,13.9-2.6,19.8-6.9
				c0.7-0.5,1.3-1.1,1.8-1.8C351,111.6,350.8,111,349.7,110.7 M311.1,116.2c12.8-5.5,25.5-0.8,31.5-3.4
				C335.2,116.4,317.4,114.7,311.1,116.2"/>
			<path class="st4" d="M235.3,134.8c-0.2-1.1-0.9-1.4-1.9-1c-0.5,0.2-1.1,0.5-1.5,0.9c-2.3,2.4-5.2,3.8-7.9,5.5
				c-5.8,3.6-10.9,8-14.4,13.9c-1.5,2.6-2.7,5.5-3.8,8.3c-0.4,0.9-0.2,2-0.3,3.1c2.4-2.4,4.5-4.7,6.9-6.8c5-4.4,10.7-7.3,17.1-9.2
				c0.7-0.2,1.2-0.6,1.6-1.3c2.1-3.3,3.6-6.8,4.2-10.7C235.5,136.8,235.5,135.8,235.3,134.8 M212.6,157.2c3-6.4,13.8-13.4,14.7-15.7
				C224.3,149.8,215.4,151.7,212.6,157.2"/>
			<path class="st4" d="M245.1,146.9c-0.7,0-1.5,0.1-2.1,0.5c-2.8,1.4-5.9,2-8.9,2.8c-7.4,1.8-14.3,4.7-20.2,9.6
				c-3.2,2.6-5.9,5.6-8.3,9c-0.5,0.7-0.6,1.7-1,2.8c2.3,0,4.4,0.2,6.4-0.1c2.6-0.4,5.2-1.1,7.8-1.9c6.5-1.8,12.5-4.9,17.9-8.9
				c3.5-2.6,6.4-5.8,8.6-9.7c0.5-0.9,0.8-1.9,1-2.8C246.4,147.3,245.9,146.8,245.1,146.9 M209.8,168.5c9.3-13.4,24.1-11.9,29.9-17
				C235.2,156.3,218.4,159.5,209.8,168.5"/>
			<path class="st4" d="M204,164.4c-0.1-2.2-0.7-4.3-1.2-6.5c-0.1-0.3-0.2-0.6-0.4-0.9c-0.6-1.1-1.3-1.3-2-0.2
				c-2.5,4.1-6.6,6.6-9.6,10.3c-3.2,3.9-5.2,8.3-5.6,13.3c0,0.4,0,0.8,0,1.3c1.6,0.2,2,1,1.8,2.6c-0.3,1.9-0.7,3.8-0.6,5.7
				c0,1.5,0.7,3,1.2,4.8c0.7-0.7,1.3-1.2,1.8-1.7c2.4-2.5,4.4-5.3,6.3-8.3c0.8-1.3,2-2.3,2.9-3.6c1.1-1.7,2.1-3.5,3-5.4
				C203.2,172.2,204.2,168.4,204,164.4 M188.1,189.1c-0.7-14.2,11-19.5,11.4-27.6C199.7,171,187.6,184,188.1,189.1"/>
			<path class="st4" d="M219.6,170.8c-0.7,0.4-1.3,0.7-1.7,1.1c-1.4,1.3-3.1,2.1-4.9,2.7c-3.5,1.2-7,2.6-10,4.8
				c-4.8,3.5-7.9,8.2-10,13.7c-0.8,2.2-1.5,4.5-2.1,6.8c-0.1,0.4,0,0.9,0,1.3c0.5-0.1,1-0.1,1.3-0.3c1.9-1,3.9-2,5.7-3.1
				c4.6-2.6,9.1-5.4,13.1-9c3.6-3.2,6.7-6.8,8-11.5c0.4-1.5,0.5-3.2,0.7-4.8C219.9,172,219.7,171.6,219.6,170.8 M193.9,196.7
				c2.3-12.3,18.2-13.2,21-20.4C214.9,183.1,196.2,190.1,193.9,196.7"/>
			<path class="st4" d="M185,193.7c-0.2-3.1-0.5-6.1,0.4-9.1c0.1-0.3,0.1-0.7,0.1-1c-0.1-0.1-0.2-0.2-0.3-0.3
				c-1.5,1.1-3.1,2.1-4.5,3.4c-5.2,5.1-8.3,11.4-9.6,18.5c-1.5,8.9,0.4,17.1,4.4,25.1c0.2,0.4,0.4,0.7,0.7,1.1
				c0.3-0.3,0.5-0.5,0.7-0.7c0.8-1.3,1.7-2.6,2.2-4c0.5-1.2,0.5-2.5,0.8-3.8c0.8-4,2.4-7.8,4.7-11.2c0.6-0.9,0.8-1.8,0.8-2.7
				C185.8,203.9,185.3,198.8,185,193.7 M174.7,223.7c3.5-10.4-2.3-24.6,6.1-34C176.8,196.9,178.9,216,174.7,223.7"/>
			<path class="st4" d="M197.1,225.1c-7.5,3.8-12.2,10-15,17.7c-2.8,7.7-2.5,15.5-0.4,23.3c0.2,0.8,0.5,1.7,0.9,2.7
				c1-0.9,1.9-1.6,1.9-2.9c0.1-1.9,0.3-3.8,0.4-5.8c0.1-1.4,0.1-2.8,0.1-4.2c-0.6,1.6-1.3,3-2.1,4.3c-0.3,0.5-0.6,1-1,1.4
				c0.3-0.4,0.7-0.9,1-1.4c3.5-6.5,0-19.2,11.6-30.7c-5.1,5.3-6.1,14.8-8.5,22.9c0.6-0.3,1.3-0.2,2,0.4c1.1,1,2.2,2.1,3.2,3.2
				c0.2,0.2,0.3,0.4,0.6,0.8c0.7-1.7,1.3-3.1,1.8-4.6c1.4-4.1,2-8.4,2.5-12.7c0.4-4,0.9-7.9,1.5-11.8c0.2-1.1,0.7-2.1,1.2-3.4
				C198.1,224.7,197.6,224.9,197.1,225.1"/>
			<path class="st4" d="M180.6,268.1c-2.6-8.6-3-17.1-0.1-25.7c0.1-0.4,0.1-0.9-0.1-1.2c-3.5-7.2-8.6-13-15.8-16.7
				c-0.6-0.3-1.3-0.5-2.2-0.9c0.2,0.8,0.2,1.3,0.4,1.7c1.6,3.6,1.9,7.4,2.2,11.2c0.7,7.1,1.3,14.2,3.8,21c1.6,4.5,4,8.4,7.2,11.9
				c1.4,1.6,2.6,3.3,4,5c0.3,0.3,0.5,0.7,0.7,1c0.2,0,0.3-0.1,0.5-0.1c0.5-1.6,1-3.1,1.6-4.8C181.4,270.2,180.9,269.2,180.6,268.1
				 M168.4,231.3c10.7,10.8,4.2,27.2,9.8,34.8C171.9,259.6,172.9,239.4,168.4,231.3"/>
			<path class="st4" d="M202.3,201.9c0-0.3,0-0.6,0-0.9c-0.2-1.2-0.4-1.5-1.5-0.9c-2.3,1.2-4.8,2.3-6.8,3.8
				c-7,5.2-11.3,12.2-12.8,20.8c-0.6,3.2-0.5,6.5,0,9.7c0.1,0.7,0.2,1.4,0.3,2.1c0.1,0,0.2,0,0.3,0c0.4-0.4,0.7-0.8,1.1-1.3
				c3-3.6,5.9-7.2,8.9-10.8c3.7-4.4,7.2-9,9.2-14.5C201.9,207.4,202.4,204.7,202.3,201.9 M182,231.3c1.4-12.5,14.2-19.1,15.4-25.9
				C198.8,212.2,185,222.8,182,231.3"/>
			<path class="st4" d="M199.1,275c-1.7-8.4-7.6-18.6-12.4-21.1c-0.1,1.2-0.2,2.3-0.2,3.3c-0.1,2.7-0.2,5.5-0.4,8.2
				c-0.5,5.4-1,10.8-0.6,16.3c0.1,0.9,0.3,1.6,1.1,2.3c2.1,1.9,4,3.9,5.7,6.1c-0.6-7.9-5.4-21.7-3.7-28.8c-1,3.8,6.5,19.4,4.4,29.8
				c1.1,1.5,2.1,3.2,3,4.9C198.7,292.8,200.4,281.7,199.1,275"/>
			<path class="st4" d="M198,308.3c-1.2-9.7-5.9-17.4-13.1-23.6c-3.5-3-7.1-5.7-10.6-8.6c-1-0.9-2-1.9-3-2.8
				c-0.4-0.4-0.9-0.7-1.4-1.1c-0.1,0.1-0.2,0.1-0.3,0.2c0.1,2.4,0.2,4.8,0.5,7.2c1.1,8,4.4,14.9,9.9,20.8c4.5,4.8,9.8,8.1,16.2,9.7
				C198.1,310.5,198.3,310.4,198,308.3 M171.9,281.3c2.8,6.8,16.3,14.9,18.7,23.8C187.4,295.7,177.1,296.8,171.9,281.3"/>
			<path class="st4" d="M215.3,315.9c-0.4-1.5-1-2.9-2.1-4.1c-0.7-0.8-1.5-1.7-0.8-2.8c0.7-1.1,1.8-0.9,2.8-0.6
				c0.7,0.2,1.4,0.4,2.3,0.7c-0.4-2.3-0.8-4.6-1.3-6.8c-1.7-7.2-4.9-13.5-10.5-18.5c-0.7-0.6-1.4-1.1-2.1-1.6
				c-0.6-0.4-1-0.1-1.1,0.5c-0.1,0.5-0.2,0.9-0.1,1.4c0.4,4-0.4,7.9-1.2,11.8c-0.9,4.3-1.3,8.7-0.1,13.1c0.9,3.1,2.4,5.8,4.3,8.3
				c0.1,0.2,0.4,0.4,0.6,0.5c3.4,1.7,6.8,3.5,10.4,5.3c0-0.6,0.1-1.3,0-1.9C216.2,319.4,215.7,317.6,215.3,315.9 M205.3,288.5
				c6.8,10.4,1.2,22.3,6.8,29.8C204.2,310.8,208.4,297,205.3,288.5"/>
			<path class="st4" d="M228.1,342.3c-4.6-4-7.9-9-9.8-14.8c-0.3-0.8-0.7-1.4-1.4-1.9c-4.9-3.5-10.4-6-16-8.2
				c-3.8-1.5-7.5-3-11.2-4.5c-1.5-0.6-2.9-1.3-4.4-2c-0.2-0.1-0.4-0.1-0.8-0.2c3,9.6,8.2,17.5,15.9,23.6c8.7,6.9,18.5,10.5,29.9,9.8
				C229.3,343.4,228.7,342.8,228.1,342.3 M189.5,317.8c-0.2-0.3-0.4-0.5-0.5-0.8C189.2,317.3,189.3,317.5,189.5,317.8
				c5.2,7.2,24.7,9.6,31.2,21.7C214.1,329.7,197.9,330.7,189.5,317.8"/>
			<path class="st4" d="M244.4,342.4c-0.1-0.7-0.3-1.5-0.6-2.2c-0.8-2.3-1.5-4.7-2.5-6.9c-0.7-1.6-1.7-3.1-2.7-4.5
				c-4.7-6.5-10.7-11.4-17.4-15.6c-1.5-0.9-3-1.8-4.6-2.6c-0.8-0.4-1.7-0.6-2.5-0.9c-0.1,0.1-0.1,0.2-0.1,0.3
				c0.1,0.2,0.2,0.5,0.4,0.7c2,1.9,2.6,4.4,3.1,7c0.9,4.2,1.8,8.4,3.5,12.4c3.1,7,8.4,12.1,14.9,15.9c2.6,1.5,5.3,2.7,8.5,2.8
				c0.1-0.3,0.2-0.7,0.2-1C244.5,345.9,244.5,344.2,244.4,342.4 M218.6,315.3c14.5,9.1,10,18.7,21,28.9
				C225.9,334,227.1,322.7,218.6,315.3"/>
			<path class="st4" d="M271.5,367.2c-12.2,2.2-34.4-12.6-46.1-14.9C239.4,351.8,259.3,368.2,271.5,367.2c-0.8-0.4-1.5-0.8-2.2-1.2
				c-6.1-3.4-11.6-7.8-16.5-12.9c-0.4-0.4-0.9-0.7-1.5-0.9c-8.8-2.5-17.8-3.9-27.1-3.7c-2,0-4,0.3-6,0.5c-0.7,0.1-1.3,0.4-2,0.7
				c0,0.1,0,0.2,0,0.2c0.3,0.1,0.5,0.3,0.8,0.3c3.5,0.7,6.4,2.7,9.3,4.7c4.8,3.4,9.6,7,14.9,9.8c8.9,4.7,18.4,7,28.5,6.7
				c2.8-0.1,5.6-0.5,8.6-0.8C275.9,369.4,273.7,368.3,271.5,367.2"/>
			<path class="st4" d="M299.9,371.3c-0.8-1.5-1.6-3-2.5-4.4c-6-9.5-14.2-16.5-24-22c-6.2-3.4-12.8-6-19.2-8.8
				c-2.5-1.1-4.8-2.5-7.2-3.8c-0.9-0.5-1.8-1-2.7-1.4c-1.2-0.5-1.6-0.1-1.6,1.1c0,2.1,0.9,4,1.7,5.9c2.7,6.3,6.8,11.6,11.8,16.4
				c7.8,7.4,16.8,12.9,27.2,16.1c4.4,1.4,8.4,2,13.1,2.1c0.9-0.1,1.9-0.1,2.8-0.2C300,372.3,300.3,371.9,299.9,371.3 M248.1,337.4
				c4.9,10,36.9,18.5,41.3,30C285.4,358.6,249,350.3,248.1,337.4"/>
			<path class="st4" d="M323.1,91.7c-1.8,2.2-4.3,3.5-6.7,4.9c-3.4,2-6.7,4.1-10,6.1c-0.1,0.1-0.2,0.2-0.4,0.3
				c-1.4,0.9-2.1,2.1-2.3,3.9c-0.3,2.6-1.8,4.8-3.6,6.7c-0.7,0.8-1.1,1.7-1.1,2.7c0,1.1,0.1,2.3,0.2,3.4c0,0.2,0.3,0.6,0.5,0.6
				c1.1,0.2,2.2,0.4,3.2-0.4c0.2-0.2,0.5-0.3,0.9-0.5c-0.3-0.3-0.5-0.5-0.8-0.7c-0.7-0.8-0.7-1.7,0-2.5c0.4-0.4,0.9-0.8,1.4-1
				c3-1.5,6-2.9,9-4.4c0.6-0.3,1.2-0.7,1.7-1.2c3.4-4.1,6.4-8.5,8.1-13.6c0.4-1.3,0.7-2.7,1-4.1c0.1-0.3,0-0.7,0.1-1.2
				C323.8,91.1,323.4,91.4,323.1,91.7 M301.1,116.6c2.8-11.5,16.8-13.6,18.7-20.4C319.1,103.4,302.5,111.5,301.1,116.6"/>
			<path class="st4" d="M347,82.6c-0.2,0.2-0.5,0.3-0.7,0.5c-1.8,2.1-4.2,3.2-6.5,4.5c-4.1,2.2-8.2,4.4-11.8,7.3
				c-1,0.8-2.1,1.7-3,2.6c-0.6,0.6-1,1.3-1.4,2.1c-1,1.8-2,3.7-3,5.5c-0.7,1.2-0.8,2.4-0.7,3.7c1.1-0.2,2.2-0.4,3.3-0.5
				c0.7-8.9,16.3-14,19.4-20.2c-2.1,8.7-17.2,13.6-19.4,20.2c0.7-0.1,1.3-0.2,2-0.3c1-0.1,2.1-0.3,3.1-0.3c0.9,0,1.6-0.2,2.2-0.8
				c6.4-5.1,11.7-11.1,15.1-18.6c0.8-1.8,1.2-3.7,1.9-5.5C347.2,82.7,347.1,82.7,347,82.6"/>
			<path class="st4" d="M361.7,90.9c-0.4,0.1-0.7,0.2-1,0.4c-2.6,1.6-5.5,2-8.3,2.7c-3,0.8-6,1.6-9,2.5c-0.6,0.2-1.2,0.6-1.6,1.1
				c-1.4,1.8-2.9,3.6-4.5,5.2c7.5-3.9,16.7-3.5,20.6-8.1c-3.1,6-16.4,7.2-23.8,11.2c-0.6,0.6-1.3,1.1-2,1.7c1,0.1,1.9,0.1,2.7,0.2
				c2.5,0.3,5,0.6,7.5,0.9c0.4,0,0.8,0.1,1.1,0c5.1-1.9,9.9-4.3,13.7-8.3c2.4-2.5,3.9-5.5,4.7-8.9c0-0.1,0-0.2,0-0.4
				C361.8,91.1,361.8,91.1,361.7,90.9"/>
			<path class="st4" d="M381.5,172.5c2,2.5,3.9,4.8,5.6,7.3c6.3,9,10.5,19,12,30c2.7,19.1-1.8,36.5-13.3,51.9
				c-11.4,15.3-26.6,24.8-44.9,29.5c-5.8,1.5-11.8,2.3-17.8,2.5c-19.1,0.6-36.7-4.4-52.3-15.6c-13.8-9.9-23.4-23-28.1-39.4
				c-2.6-9-3.2-18.2-2-27.6c1.8-14,7.6-26.3,16.7-37c0.4-0.4,0.7-0.8,0.9-1.4c-1.3,1.1-2.7,2.2-4,3.4c-10.4,9.5-18.3,20.8-23,34.1
				c-2.3,6.4-3.7,13.1-4.2,19.9c-1.6,22,5,41.4,19.1,58.2c13.2,15.6,30,25.4,49.7,30.4c9.6,2.4,19.5,3.3,29.4,2.8
				c20.7-1.1,39.4-7.8,55.7-20.7c15-11.9,25.3-27,30-45.7c2-8.1,2.7-16.3,2-24.6c-1.5-19.3-9.3-35.7-22.5-49.6
				c-2.6-2.8-5.6-5.2-8.3-7.8C381.9,172.8,381.8,172.7,381.5,172.5"/>
			<path class="st4" d="M313.6,193.4c-0.1,0.4-0.2,0.7-0.3,0.9c-0.6,1.7-1.2,3.3-1.7,5c-0.4,1.2-0.5,2.4-0.2,3.6
				c0,0.2,0.1,0.4,0.2,0.6c0.7,1.1,0.7,2.4,0.9,3.6c0.3,3.5,0.6,6.9,0.8,10.4c0.2,4.2,0.4,8.3,0.6,12.5c0,0.3-0.1,0.5-0.3,0.6
				c-2.6,1.8-5.4,3-8.6,3.3c-1,0.1-2,0.1-3,0.1c0,0,0-0.1,0-0.1c0.1-0.1,0.2-0.1,0.3-0.2c1.4-0.7,2.9-1.4,4.3-2.2
				c1-0.5,1.9-1.2,2.6-2.1c0-0.1,0.1-0.1,0.1-0.2c1-1.7,1.1-2.2-0.3-3.8c-1.1-1.2-2.6-1.8-4.1-2.3c-2.3-0.6-4.6-0.7-6.9-0.5
				c-2.8,0.2-5.4,0.8-8,1.9c-2.1,0.9-4.1,2.1-5.5,3.9c-0.8,1-1.4,2.2-1.6,3.3c1.7-0.7,3.5-1,5.3-0.6c1.8,0.4,3.3,1.4,4.7,2.4
				c-1.8,2.5-3.7,4.9-5.5,7.4c-0.9-0.8-1.6-1.8-2.3-2.8c-0.7-1-1.4-2-2.1-3c-0.4,1-0.9,1.9-1.3,2.9c-0.3,0.8-0.4,1.6-0.5,2.4
				c0,0.2,0.1,0.4,0.2,0.6c1,1.5,2.1,3,3.1,4.5c0.1,0.1,0,0.3,0,0.5c-1.3,2.5-2.4,5.1-3.2,7.8c0,0.1-0.1,0.3-0.1,0.4
				c-0.1,0.9-0.6,1.4-1.2,1.9c-3.1,2.3-6.6,3.7-10.4,4c-1.9,0.1-3.8-0.1-5.6-1.1c-1.9-1.1-3-2.8-3.3-5c-0.5-2.5,0-5,0.7-7.4
				c0.2-0.8,0.5-1.5,0.7-2.3c0-0.1,0-0.3,0-0.4c-0.1,0-0.1,0-0.2,0c-0.7,1.2-1.5,2.3-2.1,3.5c-1,1.8-1.7,3.7-2.1,5.7
				c-0.9,5.1,1.4,9.4,6.1,11.4c1.8,0.8,3.7,1.2,5.7,1.2c2.1,0,4.1-0.6,6-1.5c1.7-0.8,3.2-1.7,4.7-2.8c0.1-0.1,0.2-0.1,0.3-0.2
				c0.1,0.7,0.2,1.4,0.3,2.1c0.8,4.8,3.4,8.4,7.6,10.8c2.5,1.4,5.3,2.2,8.1,2.4c6.7,0.4,12.6-1.6,17.7-5.9c1.3-1.1,2.4-2.3,3.4-3.6
				c0.1-0.2,0.4-0.3,0.6-0.4c2.5-0.4,5-1.1,7.4-1.9c0.2-0.1,0.4,0,0.5,0.2c1.9,2.6,4.6,3.4,7.7,3.1c3.6-0.4,6.6-2,9.4-4.1
				c3.3-2.4,6.1-5.3,8.7-8.5c1-1.2,1.9-2.4,2.8-3.6c0.2,0.7,0.4,1.5,0.7,2.2c0.7,2,1.6,3.8,3,5.3c2.1,2.2,4.7,3.1,7.7,2.7
				c4.2-0.6,7.6-2.8,10.3-6c0.8-1,1.1-2.1,1.2-3.3c0.4-3.5,0.7-7,0.7-10.5c0-3.4,0-6.7-0.1-10.1c-0.1-3.1-0.3-6.2-0.6-9.3
				c-0.3-3.1-0.7-6.1-1.1-9.1c-0.3-2.4-0.8-4.9-1.3-7.3c0-0.1,0-0.2,0-0.4c0.1,0.2,0.2,0.3,0.3,0.4c3.1,5.1,5.8,10.4,7.8,16.1
				c1.2,3.4,2.1,6.9,2.6,10.5c0.8,5.7,0.3,11.3-2,16.7c-1.7,4-4.4,7.3-7.6,10.2c-4.3,3.7-9.2,6.4-14.3,8.7c-5.5,2.5-11.3,4.4-17.1,6
				c-3,0.9-6,1.7-9.1,2.5c-0.1,0-0.1,0-0.2,0.1c0.1,0.6,0.2,0.7,0.8,0.7c2.8-0.1,5.7,0,8.5-0.3c7.1-0.5,13.9-2.1,20.3-5.1
				c7.2-3.3,13.2-8.1,17.7-14.7c2.9-4.4,4.9-9.1,6-14.3c0.6-2.7,0.8-5.4,0.9-8.1c0.1-4.5-0.4-9-1.5-13.4c-1.9-7.8-5.2-15-9.6-21.7
				c-1.7-2.7-3.7-5.2-5.7-7.7c0,0-0.1-0.1-0.1-0.2c-0.2,0.3-0.5,0.6-0.7,0.9c-0.9,1.2-1.8,2.4-2.7,3.6c-0.2,0.2-0.2,0.4-0.2,0.7
				c0.5,3.7,0.9,7.4,1.3,11.1c0.4,3.6,0.9,7.1,1.4,10.7c0.4,3.2,0.8,6.4,1.1,9.6c0.4,3.4,0.7,6.8,1,10.2c0.2,2.5,0.3,5.1,0.4,7.6
				c0.1,1.8,0.1,3.6,0.2,5.3c0,0.3-0.1,0.5-0.3,0.8c-1.7,1.7-3.7,2.9-6.1,3.2c-4.5,0.7-8.5-1.8-9.9-6c-0.3-0.9-0.2-1.7-0.2-2.6
				c-0.1-2.5-0.4-5-1-7.5c-0.1-0.3,0-0.5,0.2-0.7c2.4-1.5,4.6-3.3,6.6-5.3c1.2-1.2,2.3-2.5,3.2-4c1.2-2,1.7-4.1,1.3-6.4
				c-0.5-2.6-1.2-5-2.5-7.3c-0.6-1-1.3-1.9-2.2-2.7c-1.8-1.5-3.9-1.7-6-0.5c-1.7,1-2.9,2.5-4,4.1c-0.7,1-1.3,2.1-1.5,3.3
				c-0.3,1.5,0.3,2.6,1.5,3.5c1.1,0.7,2.3,1,3.5,1.2c2.5,0.4,5,0.4,7.4,0.3c0.2,0,0.4,0,0.6,0c0,0,0,0,0.2,0.1
				c-0.4,0.6-0.7,1.3-1.1,1.9c-1.5,2-3.4,3.7-5.4,5.1c-1,0.7-2.1,1.4-3.2,2.1c-1.6-4.6-3.7-8.9-6.1-13.1c-0.2,0.3-0.3,0.5-0.4,0.7
				c-0.8,1.4-1.6,2.7-2.4,4.1c-0.1,0.2-0.1,0.4,0,0.6c1.4,3.3,2.7,6.6,4.1,9.9c0,0.1,0,0.1,0.1,0.2c-2.4,1-4.8,1.9-7.5,2.3
				c0-0.3,0-0.6,0-0.9c-0.1-3.1-0.1-6.2-0.2-9.3c-0.1-3.2-0.2-6.3-0.4-9.5c-0.2-3.9-0.6-7.8-0.9-11.7c0-0.5-0.1-1-0.1-1.5
				c0-0.1,0.1-0.3,0.2-0.4c0.5-0.7,1.1-1.4,1.5-2.2c0.7-1.3,0.6-2.6-0.3-3.8c-0.5-0.7-1.1-1.4-1.7-2.1c-1.1-1.4-2-2.9-2.5-4.6
				c-0.1-0.2-0.1-0.4-0.2-0.7c-0.7,2.6-1.5,5-2.1,7.4c-0.4,1.5-0.2,3.1,0.7,4.5c0.1,0.1,0.1,0.3,0.1,0.5c0.2,2.2,0.4,4.5,0.6,6.7
				c0.2,1.8,0.3,3.6,0.4,5.4c0.2,2.3,0.3,4.6,0.5,6.8c0.1,1.9,0.2,3.7,0.3,5.6c0.1,3,0.2,5.9,0.3,8.9c0,0.4,0,0.7,0.1,1.1
				c-0.9,0-1.7-0.2-2.5-0.5c-2.3-0.8-3.5-2.5-4-4.8c-0.5-2.3-0.2-4.6,0.4-6.9c0.5-2,1.2-3.9,1.8-5.9c0-0.1,0.1-0.3,0.1-0.4
				c-0.2-0.1-0.4-0.3-0.7-0.4c-0.7,0.9-1.3,1.7-1.9,2.5c-1.7,2.5-2.9,5.1-3.4,8.1c-0.6,3.8-0.1,7.3,2.3,10.3
				c1.8,2.3,4.2,3.6,7.1,4.1c0.3,0,0.5,0.1,0.8,0.1v1.1c0,1.2,0,2.4,0,3.6c0,0.1-0.1,0.3-0.2,0.4c-3.6,2.6-7.4,5-11.4,7
				c-0.1,0-0.1,0.1-0.3,0.1c-0.7-3.6,0.2-7,1-10.4c-0.2-0.1-0.4-0.2-0.8-0.4c-0.7,1.3-1.4,2.6-2,4c-1.1,2.3-1.7,4.8-1.8,7.3
				c0,0.3,0.1,0.7-0.1,0.9c-0.2,0.2-0.6,0.3-0.9,0.4c-0.8,0.3-1.6,0.5-2.5,0.8c0.2-0.6,0.3-1.1,0.4-1.7c0.5-2.4,0.7-4.8,0.4-7.3
				c-0.5-4.1-2.9-6.7-6.8-7.8c-1.9-0.6-3.8-0.8-5.8-0.9c-1.4-0.1-2.8-0.1-4.2-0.1c-0.1,0-0.2,0-0.3,0c0.1-0.3,0.2-0.6,0.3-0.8
				c0.3-0.7,0.4-1.4,0.4-2.1c0-0.4,0.1-0.5,0.4-0.6c2.4-0.6,4.6-1.5,6.6-3.1c1.6-1.3,2.9-2.9,4-4.5c0.1-0.2,0.2-0.3,0.3-0.5
				c0.7-0.8,0.9-1.7,0.9-2.8c-0.1-2.8-0.1-5.6-0.2-8.4c-0.2-4.3-0.5-8.6-1.1-12.9c0,0,0,0,0,0c-0.3-0.8,0-1.4,0.6-2
				c0.4-0.4,0.8-1,1.1-1.5c0.7-1.2,0.7-2.4-0.1-3.5c-0.5-0.7-0.9-1.3-1.4-1.9c-1.1-1.4-2-2.9-2.5-4.7
				C313.7,193.6,313.7,193.6,313.6,193.4 M312.7,266.9c-0.1,0.1-0.1,0.1-0.1,0.1c-0.1,0.1-0.1,0.1-0.2,0.2c-2.1,1.6-4.4,2.8-6.8,3.5
				c-3.7,1.2-7.4,1.7-11.2,0.8c-3.9-0.9-7.2-2.7-9.7-5.8c-1.3-1.7-2.2-3.6-2.3-5.7c0-0.2,0.1-0.4,0.2-0.6c0.6-0.7,1.3-1.3,1.9-2
				c1.7-1.9,3-3.9,3.7-6.4c0.3-1.1,0.5-2.3,0.7-3.5c3.8,1.2,7.9,1.4,12,1.4c0,0.1,0,0.2,0,0.3c-0.3,1.3-0.6,2.7-0.7,4
				c-0.2,2-0.1,3.9,0.6,5.8c1.2,3.4,3.7,5.5,7,6.7C309.2,266.5,310.9,266.8,312.7,266.9 M303.3,249.1c0.6,0,1.1,0,1.6,0
				c1.9,0.1,3.9,0.1,5.8,0.2c1.7,0.1,3.4,0.5,5,1.3c2.1,1,3.3,2.6,3.2,5c-0.1,2-0.6,3.9-1.5,5.7c-0.1,0.1-0.2,0.2-0.3,0.2
				c-2.1,0.2-4.2,0.1-6.2-0.4c-2.2-0.6-4.1-1.6-5.5-3.4C303.4,255.1,303.1,252.2,303.3,249.1 M331.2,262.2c0.1-0.1,0.2-0.2,0.3-0.2
				c0.6-0.3,1.2-0.7,1.8-1c3.5-2.1,6.8-4.7,9.5-7.8c0.2-0.3,0.4-0.5,0.4-0.9c0-2,0-4,0-5.9c0-0.4,0.1-0.5,0.5-0.6
				c2.8-0.7,5.5-1.8,8-3.1c0.1-0.1,0.3-0.1,0.4-0.2c0,0.1,0.1,0.2,0.1,0.2c0.5,2.1,0.9,4.3,1.1,6.5c0,0.1-0.1,0.4-0.2,0.5
				c-1,1-2,2.1-3.1,3.1c-2.5,2.4-5.2,4.6-8.2,6.4c-2.4,1.5-4.9,2.7-7.7,3.2C333.2,262.5,332.2,262.5,331.2,262.2 M305.1,239.8
				c-0.6,1-1.1,2-1.6,3c-0.1,0.3-0.3,0.4-0.6,0.3c-1.5,0-3,0-4.5-0.1c-2-0.1-4-0.2-6-0.3c-0.9-0.1-1.7-0.3-2.6-0.5
				c0.1-0.2,0.2-0.3,0.3-0.3c1.9-2.1,4.1-3.8,6.5-5.2c0.2-0.1,0.3-0.1,0.5,0c0.8,0.5,1.5,1.1,2.3,1.6
				C301.1,239.2,302.9,240.1,305.1,239.8 M357.9,217.7c1,0.1,1.9,0.2,2.7,0.7c0.2,0.1,0.4,0.3,0.6,0.5c0.3,0.3,0.2,0.7-0.2,0.8
				c-0.5,0.2-1,0.3-1.4,0.4c-1,0.1-2,0-2.9-0.4c-0.1-0.1-0.3-0.2-0.3-0.3C356.3,218.7,357.2,217.7,357.9,217.7 M285.4,248.6
				c0,0,0.1,0,0.1,0.1c0.1,1.7-0.6,3-1.7,4.1c0,0-0.1,0-0.1,0L285.4,248.6z"/>
			<path class="st4" d="M316,182.5c-1.2,0.4-2.3,0.8-3.4,1.2c-2.9,0.9-6,1.5-9,1.6c-2.9,0.2-5.8,0.2-8.6,0.2c-2.5,0-4.9-0.5-7.1-1.9
				c-1.5-0.9-2.6-2.2-3.6-3.6c-0.5-0.7-1-1.4-1.4-2.1c-0.9-1.3-2.5-1.5-3.6-0.4c-0.6,0.6-1.2,1.3-1.7,2c-1.1,1.7-2,3.5-3.1,5.1
				c-0.5,0.8-1.2,1.6-1.9,2.3c-1.3,1.3-2.7,0.7-3.5-0.5c-0.7-1-0.9-2.1-1.1-3.2c-0.3-1.8-0.5-3.5-0.7-5.3c0-0.2-0.1-0.4-0.2-0.6
				c0-0.1-0.2-0.2-0.2-0.3c-0.1,0.1-0.2,0.2-0.2,0.3c0,1.5-0.1,3-0.1,4.6c0,1.8,0.3,3.6,0.7,5.4c0.3,1.3,0.8,2.6,1.6,3.7
				c0.9,1.1,2,1.4,3.3,0.8c1.3-0.6,2.2-1.6,3.1-2.7c1.9-2.4,3.3-5,4.7-7.6c0.1-0.2,0.3-0.4,0.5-0.6c0.2,0.2,0.4,0.3,0.5,0.6
				c2.1,4.3,5.6,6.8,10,8.2c3.1,0.9,6.3,1.3,9.5,1c3.2-0.2,6.3-1,9.3-2.1c3.1-1,6-2.3,8.9-3.8c0.3-0.2,0.5-0.1,0.8,0.1
				c0.9,0.9,1.7,1.8,2.7,2.6c2.4,1.9,5.1,2.4,8.1,1.8c0.3-0.1,0.6-0.1,0.9-0.2c0.3-0.1,0.6-0.1,0.9-0.2c0.1,0.5,0.1,1,0.2,1.5
				c0,0,0.1,0,0.1,0c0.1-0.4,0.3-0.7,0.3-1.1c0.1-0.7,0.5-1,1-1.3c2.1-1,3.9-2.4,5.1-4.5c1.2-2.1,1.5-4.3,0.9-6.6
				c-0.5-1.9-2.2-2.4-3.8-1.3c-0.4,0.3-0.7,0.6-1,1c-1.1,1.3-1.7,2.9-2.1,4.5c-0.2,0.9-0.4,1.9-0.6,2.9c0,0.3-0.1,0.4-0.4,0.5
				c-0.6,0.2-1.3,0.4-1.9,0.6c-2.3,0.5-4.3-0.2-6.2-1.6c-0.2-0.1-0.4-0.3-0.6-0.5c0.7-0.2,1.4-0.4,2.1-0.6c1.3-0.4,2.4-1,3.3-2
				c0.9-1.1,0.9-1.6,0-2.7c-1.2-1.4-2.7-2.2-4.5-2.6c-3.6-0.8-7.1-0.7-10.6,0.5c-1.7,0.6-3.1,1.6-3.9,3.2c-0.3,0.6-0.4,1.2-0.6,1.8
				c0.7,0,1.4,0,2,0c1,0,2.1-0.1,3.1,0.2C315,181.2,315.6,181.7,316,182.5 M320.3,180.7c-1-0.5-2-1.1-3-1.7c2.2-1.1,4.6-1.1,5.8,0.5
				C322.1,179.9,321.2,180.3,320.3,180.7 M334.5,183.5c0.4-2.2,1.2-4.1,2.6-4.7C337.6,181.1,336.6,182.9,334.5,183.5"/>
			<path class="st4" d="M343.7,158.6c-0.2,0.4-0.4,0.8-0.7,1.2c-0.5,0.7-1.1,1.4-1.6,2.1c-0.1,0.1-0.2,0.3-0.2,0.4
				c0.3,3.2,0.6,6.4,0.8,9.6c0.2,2.5,0.2,5.1,0.3,7.7c0.1,2.2,0.1,4.4,0.2,6.6c0,0.1,0,0.3,0.1,0.3c1.2,1.8,2.5,3.4,4.3,4.6
				c0.5,0.4,1.1,0.7,1.8,0.9c0.3,0.1,0.4,0.3,0.5,0.6c0.1,0.7,0.3,1.4,0.5,2.1c0.2,0.7,0.2,0.7,1,0.6c-0.1-0.9-0.1-1.8-0.2-2.7
				c1,0,1.9,0.1,2.8,0c2-0.2,3.9-1,5.8-1.8c1.4-0.6,2.7-1.3,4-1.9c0.1-0.1,0.2-0.1,0.3-0.2c-0.1,0.4-0.2,0.7-0.3,1.1
				c-0.1,0.5,0.1,0.8,0.5,1.2c0.5,0.5,1,1,1.5,1.4c0.6,0.5,1.4,0.6,2,0.1c0.5-0.4,1.1-0.8,1.6-1.2c0.8-0.6,0.8-1.7,0.1-2.4
				c-0.5-0.5-1-0.9-1.5-1.4c-0.2-0.2-0.5-0.3-0.7-0.5c0.6-0.3,1.2-0.6,1.9-0.9c1.8-0.8,3.6-1.5,5.3-2.2c0.8-0.3,1.7-1.6,1.7-2.4
				c0-0.6-0.4-1.2-1.1-1.4c-1.8-0.4-3.6-0.9-5.4-1.3c-3.4-0.7-6.7-1.8-9.9-2.9c-2-0.7-4-1.2-6.1-1.2c-2.1,0-3.9,0.7-5.3,2.3
				c-1.2,1.3-1.5,2.9-1.3,4.7c0.2,1.7,0.7,3.3,1.3,4.9c0,0.1,0.1,0.2,0.1,0.5c-0.4-0.2-0.7-0.5-1.1-0.7c-0.7-0.6-1.3-1.4-1.7-2.2
				c0-0.1-0.1-0.2-0.1-0.3c-0.1-2.3-0.1-4.7-0.2-7c-0.1-3.3-0.3-6.7-0.4-10c-0.1-2.5-0.3-5-0.5-7.5
				C343.8,159.1,343.8,158.8,343.7,158.6C343.7,158.6,343.7,158.6,343.7,158.6"/>
			<path class="st4" d="M306,201c-0.9,1.8-1.8,3.5-2.8,5.3c1.1,0.1,1.2,1,1.4,1.8c0.2,0.7,0,1.2-0.6,1.6c-0.8,0.5-1.7,1-2.7,1.1
				c-1.3,0-2.3-0.5-3.1-1.3c-0.9-0.9-1.6-1.9-1.9-3.1c-0.1-0.3-0.2-0.6-0.3-0.9c-0.2-0.2-0.4-0.5-0.6-0.6c-0.4-0.2-0.7-0.1-1,0.2
				c-1.2,1.8-2.5,3.4-4,4.9c-1.5,1.4-3.2,2.6-5.3,3.1c-1.6,0.4-3.2,0.3-4.7-0.1c-1.6-0.5-2.7-1.6-3.4-3.1c-0.3-0.6-0.5-1.1-0.8-1.7
				c-0.8-1.5-2-2-3.6-1.7c-2,0.3-3.7,1.4-5.2,2.7c-2.4,2.1-4.2,4.7-5.7,7.5c-0.9,1.6-1.8,3.2-2.7,4.7c-0.3,0.5-0.7,1-1.2,1.4
				c-0.6,0.5-1.2,0.6-1.8,0.1c-0.5-0.4-1-1-1.3-1.5c-1-1.7-1.5-3.6-1.9-5.4c-0.5-2.3-0.7-4.5-0.8-6.9c-0.2,0-0.5-0.1-0.8-0.1
				c-0.2,0.7-0.4,1.4-0.5,2.1c-0.6,4.3-0.1,8.6,1.5,12.6c0.5,1.2,1.1,2.3,2,3.2c1.5,1.5,3.2,1.6,4.9,0.3c1.1-0.9,2-2,2.7-3.2
				c0.8-1.6,1.6-3.2,2.3-4.8c1.3-2.8,3.2-4.9,6-6.3c1.8-0.9,3.4-0.5,4.9,0.6c0.9,0.6,1.5,1.4,2.1,2.3c0.5,0.7,1.1,1.5,1.7,2.1
				c1.2,1.2,2.8,1.5,4.4,1.5c2.2,0.1,3.9-0.8,5.5-2.2c1.7-1.5,3-3.3,4.3-5.1c0.3-0.5,0.5-0.5,1-0.2c0.2,0.2,0.5,0.4,0.6,0.7
				c1.1,1.9,2.6,3,4.8,3.3c2.2,0.3,4.1-0.3,5.8-1.7c1.6-1.3,2.7-2.9,3.2-4.9c0.2-0.6,0.1-1.3,0-1.9c-0.2-2.2-1.1-4.2-2.1-6.1
				C306.1,201.1,306.1,201.1,306,201"/>
			<path class="st4" d="M322.8,191.6c-0.8,2.5-1.7,5-2.4,7.5c-0.4,1.4-0.2,2.9,0.6,4.2c0.1,0.2,0.1,0.6,0.1,0.9
				c0.1,2.1,0.2,4.1,0.4,6.2c0.2,2.6,0.3,5.3,0.5,7.9c0.1,1.7,0.2,3.4,0.3,5.1c0.1,2.9,0.3,5.8,0.4,8.8c0.1,1.9,0.1,3.9,0.2,5.8
				c0.1,3.6,0.2,7.2,0.2,10.8c0,0.6,0,1.1,0,1.8c2-0.9,3.7-1.8,4.1-4.1c0.1-0.8,0.1-1.6,0-2.4c0-2.1-0.1-4.1-0.1-6.2
				c-0.1-3.7-0.1-7.5-0.3-11.2c-0.1-2.6-0.2-5.3-0.3-7.9c-0.3-4.1-0.6-8.2-1-12.3c-0.1-0.9-0.1-1.7,0.7-2.3c0.4-0.4,0.7-0.9,1-1.4
				c0.7-1.3,0.7-2.5-0.1-3.8c-0.4-0.6-0.9-1.3-1.4-1.8c-1.3-1.5-2.2-3.3-2.7-5.2C323,191.9,322.9,191.8,322.8,191.6
				C322.8,191.6,322.8,191.6,322.8,191.6"/>
			<path class="st4" d="M262.8,201.8c0.8-0.6,1.5-1.2,2.2-1.8c0.9-0.7,0.9-1.9,0-2.6c-0.9-0.7-1.9-1.5-2.8-2.2
				c-0.7-0.5-1.5-0.5-2.2,0.1c-0.8,0.7-1.6,1.5-2.4,2.2c-0.9,0.9-0.9,1.9,0.1,2.7c0.8,0.6,1.7,1.3,2.5,1.9c0.2,0.1,0.4,0.2,0.6,0.4
				c-0.5,0.5-1,0.9-1.5,1.4c-0.3,0.2-0.5,0.5-0.8,0.7c-0.7,0.7-0.7,1.8,0.1,2.4c0.9,0.7,1.8,1.4,2.8,2.1c0.6,0.5,1.4,0.4,2,0
				c0.9-0.7,1.8-1.4,2.7-2.2c0.8-0.7,0.8-1.8,0-2.5c-1-0.8-1.9-1.5-2.9-2.3C263.2,202,263,201.9,262.8,201.8"/>
			<path class="st4" d="M275.6,221.9c-0.6-0.5-1.3-1-1.9-1.5c-0.8-0.6-1.6-0.5-2.3,0.1c-0.7,0.7-1.5,1.4-2.2,2.1
				c-1,0.9-0.9,1.9,0.1,2.8c0.8,0.6,1.6,1.3,2.5,1.9c0.7,0.5,1.4,0.5,2.1,0c0.7-0.6,1.5-1.1,2.1-1.8c0.3-0.3,0.5-0.3,0.9,0
				c0.4,0.4,0.9,0.7,1.4,1.1c0.6,0.5,1.4,0.5,2,0c0.9-0.7,1.9-1.5,2.8-2.2c0.7-0.6,0.7-1.8,0-2.4c-1-0.8-2-1.6-3.1-2.4
				c-0.6-0.5-1.4-0.4-2.1,0.2C277.1,220.4,276.4,221.1,275.6,221.9"/>
			<path class="st4" d="M279.4,174.4c0.3,0.2,0.6,0.4,0.8,0.6c0.7,0.5,1.4,0.5,2,0c0.6-0.4,1.1-0.9,1.7-1.4c0.8-0.7,0.8-1.8,0-2.5
				c-0.6-0.5-1.2-1-1.9-1.5c-0.7-0.5-1.5-0.5-2.1,0.1c-0.4,0.4-0.8,0.7-1.2,1.1c-0.3-0.2-0.6-0.5-0.9-0.7c-0.7-0.5-1.4-0.5-2,0.1
				c-0.6,0.5-1.1,1-1.7,1.5c-0.7,0.7-0.7,1.8,0.1,2.5c0.6,0.4,1.1,0.9,1.7,1.3c0.7,0.5,1.4,0.5,2.1,0
				C278.5,175.1,278.9,174.7,279.4,174.4"/>
			<path class="st4" d="M308.4,213.9c-0.3,0.1-0.7,0.2-0.9,0.4c-0.8,0.5-1.6,1.1-2.3,1.7c-0.8,0.6-0.9,1.7-0.2,2.4
				c0.7,0.7,1.4,1.4,2.1,2.1c0.5,0.5,1.2,0.5,1.9,0.2c0.9-0.5,1.7-1.1,2.6-1.6c0.8-0.5,0.9-1.6,0.3-2.3c-0.7-0.8-1.5-1.6-2.4-2.3
				C309.2,214.1,308.8,214.1,308.4,213.9"/>
			<path class="st5" d="M223.9,190c-0.3-0.1-0.6-0.3-1-0.4c-0.4-0.1-0.8-0.2-1.3-0.3c-1.3-0.2-2.1,0.3-2.8,1.5
				c-1.9,3.5-3.7,7-5.3,10.6c-0.2,0.5-0.5,1.1-0.8,1.6c-0.4,1-0.1,1.9,0.9,2.4c0.7,0.3,1.3,0.6,2,0.8c-1.1,3.5-2.2,7-3.4,10.5
				c-0.4,0-0.8-0.1-1.2-0.1c-0.4,0-0.8,0-1.1,0c-1.3,0.2-1.8,0.6-2.1,2c-0.7,3.2-1.2,6.5-1.6,9.8c-0.1,1.2-0.3,2.3-0.4,3.5
				c-0.2,1.3,0.5,2.2,1.8,2.3c0.6,0.1,1.3,0.2,2,0.2v11c-0.4,0.1-0.9,0.1-1.3,0.2c-0.3,0.1-0.7,0.2-1,0.3c-1.3,0.6-1.6,1.1-1.5,2.5
				c0.4,3.5,0.9,7,1.7,10.5c0.2,1,0.4,1.9,0.6,2.9c0.2,0.9,0.9,1.5,1.8,1.5c0.4,0,0.9-0.1,1.3-0.1c0.4,0,0.8-0.1,1.2-0.1
				c1.1,3.5,2.3,6.9,3.4,10.5c-0.2,0.1-0.5,0.3-0.9,0.4c-0.7,0.3-1.2,0.7-1.7,1.2c-0.5,0.6-0.6,1.2-0.3,1.9c1.4,2.9,2.8,5.8,4.2,8.6
				c0.7,1.4,1.5,2.7,2.2,4c0.6,1,1.5,1.4,2.6,1c0.7-0.3,1.3-0.6,2-0.8c2.2,3.1,4.3,6.1,6.5,9.2c-0.2,0.2-0.5,0.5-0.9,0.7
				c-0.5,0.4-0.9,0.9-1.1,1.5c-0.2,0.6-0.2,1.2,0.3,1.8c1.8,2,3.6,4,5.5,6c1.5,1.6,3.1,3.1,4.6,4.6c0.8,0.8,1.9,0.9,2.8,0.2
				c0.6-0.4,1.2-0.9,1.7-1.3c3,2.4,6,4.7,9.1,7.1c-0.2,0.3-0.5,0.6-0.7,1c-0.2,0.5-0.5,0.9-0.6,1.4c-0.2,0.9,0,1.6,0.8,2.1
				c2.9,1.7,5.8,3.5,8.7,5.2c1.4,0.8,2.8,1.5,4.2,2.3c1.1,0.6,2.2,0.4,2.9-0.6c0.4-0.5,0.8-1.1,1.2-1.6c3.7,1.5,7.2,3,10.9,4.5
				c-0.1,0.3-0.3,0.7-0.3,1.1c-0.1,0.6-0.2,1.2-0.1,1.8c0.1,0.7,0.5,1.3,1.3,1.5c3.2,0.9,6.4,1.8,9.5,2.7c1.7,0.5,3.5,0.8,5.2,1.2
				c1.4,0.3,2.2-0.2,2.7-1.5c0.2-0.6,0.4-1.2,0.6-1.8c3.9,0.5,7.7,1,11.6,1.5c0,0.5,0,1,0.1,1.5c0.1,0.5,0.2,1.1,0.4,1.5
				c0.4,0.8,1,1.2,1.9,1.2c2.7,0,5.4,0.1,8.1,0.1c2.5,0,4.9-0.2,7.4-0.3c1-0.1,1.7-0.8,1.8-1.9c0-0.7,0-1.4,0-2.1c0-0.1,0-0.1,0-0.1
				c3.9-0.5,7.8-1,11.8-1.6c0.1,0.4,0.3,0.8,0.4,1.2c0.2,0.7,0.7,1.3,1.3,1.7c0.5,0.4,1,0.5,1.7,0.4c4.5-1,9-2.3,13.4-3.7
				c0.4-0.1,0.8-0.3,1.2-0.4c1.5-0.4,1.9-1.2,1.4-2.7c-0.2-0.5-0.4-1.1-0.5-1.6c3.6-1.5,7.2-3,10.9-4.6c0.2,0.2,0.4,0.5,0.6,0.8
				c0.4,0.4,0.8,0.8,1.3,1.1c0.8,0.5,1.6,0.6,2.5,0.1c3-1.8,6-3.5,9-5.3c1.2-0.7,2.4-1.5,3.6-2.3c1.1-0.7,1.3-1.7,0.5-2.8
				c-0.3-0.5-0.7-1-1-1.4c3-2.4,6-4.8,9.1-7.2c0.2,0.1,0.4,0.3,0.7,0.5c0.6,0.5,1.2,0.7,2,0.9c0.7,0.1,1.4,0,1.9-0.5
				c2.5-2.4,4.9-4.9,7.2-7.6c0.9-1,1.8-2.1,2.7-3.1c0.7-0.9,0.7-1.9-0.2-2.6c-0.5-0.4-1-0.8-1.5-1.2c2.2-3.1,4.3-6.1,6.5-9.3
				c0.1,0,0.4,0.1,0.6,0.2c0.7,0.3,1.5,0.4,2.3,0.4c0.7,0,1.3-0.3,1.6-1c1.9-3.3,3.6-6.8,5.1-10.4c0.3-0.8,0.7-1.6,1.1-2.4
				c0.5-1.1,0.2-2-0.9-2.5c-0.6-0.3-1.1-0.5-1.7-0.7c1.1-3.6,2.2-7.1,3.3-10.5c0.8,0,1.6,0,2.4-0.2c1-0.2,1.6-0.7,1.8-1.8
				c0.6-3,1.1-6.1,1.4-9.2c0.1-1.3,0.3-2.6,0.4-4c0-0.2,0.1-0.4,0.1-0.6c0-0.9-0.5-1.7-1.4-1.8c-0.7-0.1-1.4-0.2-2.1-0.3v-11
				c0.1,0,0.4-0.1,0.6-0.1c0.6-0.2,1.2-0.3,1.7-0.6c0.8-0.4,1.2-1,1.1-2c-0.4-3.6-1-7.1-1.7-10.6c-0.2-1-0.4-1.9-0.6-2.9
				c-0.2-1.2-1.2-1.9-2.4-1.7c-0.6,0.1-1.1,0.1-1.6,0.2c-1.2-3.5-2.3-7-3.5-10.6c0.2-0.1,0.4-0.2,0.7-0.3c0.5-0.4,1-0.7,1.5-1.1
				c0.5-0.5,0.7-1.2,0.3-1.9c-1.3-2.5-2.5-5.1-3.8-7.7c-0.9-1.7-1.8-3.3-2.8-5c-0.5-0.9-1.5-1.3-2.5-0.9c-0.6,0.2-1.2,0.5-1.8,0.7
				c-2.2-3.1-4.4-6.1-6.7-9.2c0.2-0.1,0.4-0.3,0.6-0.5c0.6-0.4,0.9-1,1.2-1.6c0.2-0.6,0.2-1.2-0.3-1.7c-1.4-1.5-2.8-3.1-4.2-4.6
				c-2-2-4-4-6-5.9c-0.8-0.8-1.9-0.9-2.9-0.1c-0.5,0.4-0.9,0.7-1.4,1.1c-3.1-2.4-6.2-4.7-9.2-7.1c0.2-0.3,0.4-0.5,0.5-0.8
				c0.2-0.5,0.4-1,0.5-1.6c0.1-0.8-0.2-1.3-0.8-1.8c-3.2-2.1-6.6-4-10-5.8c-1-0.5-2-1-2.9-1.6c-1.1-0.6-2.4-0.4-3,0.7
				c-0.3,0.5-0.6,0.9-0.9,1.3c-3.7-1.5-7.3-2.9-11-4.4c0.1-0.2,0.2-0.5,0.2-0.8c0.1-0.4,0.2-0.7,0.2-1.1c0-1.3-0.5-2-1.8-2.4
				c-4.1-1.3-8.3-2.3-12.5-3.2c-0.6-0.1-1.2-0.3-1.8-0.4c-1.5-0.4-2.3,0.1-2.8,1.5c-0.2,0.5-0.3,1-0.5,1.6c-3.2-0.4-6.5-0.8-9.8-1.2
				c0-0.4,0-0.8,0-1.2c-0.1-0.5-0.2-1.1-0.4-1.6c-0.4-0.9-1-1.3-2-1.4c-5.2-0.3-10.3-0.1-15.5,0.1c-1.1,0-1.8,0.8-1.8,1.9
				c0,0.6,0,1.3,0,2c-2,0.2-4,0.4-5.9,0.7c-2,0.2-3.9,0.6-5.9,0.8c-0.1-0.4-0.2-0.7-0.4-1c-0.3-0.5-0.5-1-0.9-1.5
				c-0.6-0.7-1.4-0.9-2.3-0.7c-4.7,1-9.2,2.3-13.8,3.7c-0.3,0.1-0.6,0.2-0.9,0.2c-1.1,0.3-1.6,1.2-1.3,2.3c0.2,0.6,0.4,1.2,0.6,1.8
				c-3.7,1.5-7.3,3-10.9,4.5c-0.2-0.2-0.4-0.6-0.6-0.8c-0.4-0.4-0.8-0.9-1.3-1.2c-0.7-0.5-1.5-0.6-2.4-0.1c-3,1.7-6,3.4-9,5.1
				c-1.3,0.8-2.5,1.6-3.8,2.4c-1.1,0.7-1.3,1.6-0.6,2.7c0.4,0.5,0.7,1,1.1,1.5c-3.1,2.4-6,4.8-9.1,7.2c-0.2-0.2-0.5-0.4-0.8-0.6
				c-0.3-0.2-0.6-0.4-1-0.6c-1.2-0.5-2.2-0.4-3.2,0.6c-2.7,2.6-5.3,5.3-7.7,8.1c-0.6,0.7-1.2,1.4-1.8,2.1c-0.9,1-0.8,1.9,0.2,2.8
				c0.5,0.4,1,0.8,1.4,1.1C228.2,183.9,226.1,186.9,223.9,190 M231.8,181.9c0.4,0.3,0.7,0.5,1,0.8c0.9,0.8,2.2,0.6,2.9-0.3
				c1.9-2.5,4-4.9,6.2-7.1c1.3-1.2,2.6-2.4,3.9-3.6c0.8-0.7,0.8-1.9-0.1-2.5c-0.3-0.2-0.6-0.5-1-0.8c2.8-2.5,5.7-4.7,8.7-6.8
				c0.3,0.4,0.6,0.8,0.8,1.2c0.6,0.7,1.4,0.9,2.3,0.4c0.2-0.1,0.4-0.2,0.5-0.4c3-2.2,6.1-4.1,9.4-5.8c1.2-0.6,2.4-1.2,3.6-1.8
				c1.1-0.5,1.3-1.4,0.6-2.3c-0.2-0.3-0.4-0.6-0.7-0.9c3.4-1.6,6.9-3.1,10.5-4.3c0.2,0.5,0.3,0.9,0.4,1.2c0.3,0.7,0.8,1,1.5,1
				c0.3,0,0.6-0.1,0.9-0.2c3.4-1.2,6.8-2.3,10.3-3.1c1.6-0.3,3.2-0.6,4.8-0.9c1.1-0.2,1.7-1.1,1.3-2.1c-0.1-0.3-0.2-0.6-0.3-1
				c3.8-0.6,7.5-1.2,11.3-1.4c0,0.3,0,0.6,0,0.9c0,1.3,0.7,1.9,2,1.8c2.1-0.2,4.2-0.3,6.3-0.4c3.1-0.1,6.3,0.1,9.4,0.4
				c1.1,0.1,1.8-0.5,1.9-1.6c0-0.3,0-0.6,0-1c3.2,0.3,6.2,0.6,9.3,1.2c-0.1,0.4-0.2,0.6-0.2,0.9c-0.4,1.3,0.1,2,1.4,2.2
				c2.6,0.5,5.1,0.9,7.6,1.6c2.5,0.7,5,1.5,7.5,2.3c1.2,0.4,2,0,2.3-1.2c0.1-0.4,0.2-0.7,0.4-1.1c3.6,1.2,7.1,2.6,10.6,4.2
				c-0.3,0.4-0.5,0.7-0.7,1c-0.8,1.1-0.5,1.9,0.7,2.5c1.2,0.6,2.4,1.1,3.6,1.7c3.3,1.6,6.5,3.6,9.4,5.8c1.1,0.8,2.3,0.7,3-0.6
				c0.2-0.3,0.4-0.6,0.7-0.9c3.1,2.1,6,4.3,8.8,6.8c-0.4,0.3-0.8,0.6-1.1,0.9c-1,0.8-1,1.7,0,2.5c3.8,3.2,7.2,6.7,10.2,10.6
				c0.8,1.1,1.7,1.2,2.8,0.3c0.4-0.3,0.8-0.6,1.2-1c2.3,2.8,4.4,5.7,6.4,8.8c-0.6,0.3-1.1,0.5-1.7,0.7c-1.1,0.5-1.3,1.3-0.6,2.3
				c2.7,4,4.9,8.2,6.5,12.7c0.4,1,1.4,1.7,2.6,1.1c0.5-0.2,1-0.4,1.6-0.7c1.3,3.3,2.5,6.7,3.4,10.1c-0.7,0.1-1.3,0.2-1.9,0.3
				c-1.1,0.2-1.6,0.9-1.3,2c1.4,4.6,2.1,9.4,2.4,14.2c0.1,0.9,0.7,1.5,1.7,1.5c0.2,0,0.3,0,0.5-0.1c0.5-0.1,1.1-0.1,1.7-0.2
				c0.2,3.6,0.3,7.1,0.1,10.6c-0.6-0.1-1.2-0.1-1.7-0.2c-1.4-0.2-2,0.4-2.1,1.8c-0.2,4.6-0.8,9.1-2,13.5c-0.5,1.7,0.3,2.4,1.7,2.5
				c0.2,0,0.4,0,0.6,0c0.3,0,0.6,0.1,0.9,0.2c-0.9,3.5-1.9,6.8-3.2,10.1c-0.6-0.2-1.1-0.5-1.7-0.7c-1.1-0.4-2,0-2.4,1.1
				c-1.6,4.5-3.7,8.8-6.3,12.8c-0.7,1.1-0.4,1.9,0.8,2.5c0.5,0.2,0.9,0.4,1.4,0.6c-1.9,3.1-4,6-6.2,8.9c-0.5-0.3-0.9-0.7-1.3-1
				c-1-0.7-1.9-0.6-2.6,0.4c-3,4-6.3,7.6-10.1,10.8c-1,0.9-0.8,2,0.1,2.6c0.3,0.2,0.7,0.5,1,0.9c-2.8,2.4-5.6,4.7-8.6,6.8
				c-0.3-0.4-0.6-0.8-0.9-1.2c-0.6-0.8-1.5-0.9-2.3-0.3c-0.2,0.1-0.4,0.3-0.5,0.4c-3,2.2-6.2,4.3-9.6,6c-1.1,0.6-2.2,1.1-3.3,1.6
				c-1,0.5-1.2,1.3-0.6,2.3c0.2,0.3,0.4,0.6,0.6,0.9c-1.2,0.8-9,4.1-10.4,4.4c-0.1-0.3-0.2-0.7-0.4-1.1c-0.4-0.9-1.1-1.3-2.1-1
				c-0.2,0-0.3,0.1-0.5,0.2c-2.7,0.9-5.3,1.8-8,2.6c-2.3,0.6-4.7,1-7,1.5c-1.1,0.3-1.6,1-1.2,2.1c0.1,0.3,0.2,0.5,0.3,0.8
				c-3.7,0.7-7.5,1.2-11.2,1.5c0-0.3,0-0.5,0-0.6c-0.1-1.4-0.6-1.9-2-1.8c-0.1,0-0.3,0-0.4,0c-2.1,0.1-4.1,0.3-6.2,0.4
				c-2.7,0.1-5.5,0-8.2-0.3c-0.5,0-0.9-0.1-1.4,0c-0.8,0-1.4,0.6-1.5,1.4c0,0.3,0,0.5,0,0.9c-3.7-0.2-7.4-0.7-11-1.4
				c0.1-0.3,0.1-0.5,0.2-0.7c0.4-1.2-0.1-1.9-1.3-2.2c-2.9-0.5-5.9-1.1-8.7-2c-2.1-0.6-4.2-1.3-6.2-2.1c-1.3-0.5-2.3,0-2.6,1.2
				c-0.1,0.2-0.2,0.5-0.3,0.7c-3.6-1.3-7-2.7-10.4-4.3c0.3-0.4,0.5-0.8,0.7-1.1c0.4-0.7,0.2-1.5-0.5-1.9c-0.2-0.2-0.5-0.3-0.8-0.4
				c-2.4-1.3-4.9-2.5-7.3-3.9c-1.8-1.1-3.6-2.3-5.4-3.6c-1.2-0.8-2-0.7-2.8,0.5c-0.2,0.2-0.3,0.5-0.6,0.8c-3-2.1-5.9-4.4-8.7-6.8
				c0.4-0.3,0.7-0.5,1-0.8c0.9-0.8,1-1.6,0.1-2.4c-3.8-3.2-7.2-6.8-10.3-10.8c-0.7-1-1.7-1.1-2.6-0.4c-0.3,0.3-0.7,0.5-1.1,0.8
				c-2.3-2.9-4.4-5.7-6.3-8.8c0.5-0.2,1-0.4,1.4-0.6c1-0.5,1.3-1.3,0.7-2.3c-2.7-4.1-4.8-8.4-6.5-12.9c-0.4-1.1-1.3-1.5-2.4-1.1
				c-0.4,0.2-0.9,0.4-1.3,0.5c-0.7-1.3-2.9-8.1-3.3-10c0.4-0.1,0.8-0.1,1.2-0.2c1.6-0.2,2-0.9,1.6-2.4c0,0,0-0.1,0-0.1
				c-0.9-3.5-1.6-7-1.9-10.6c-0.1-1.1-0.2-2.2-0.3-3.3c-0.1-0.9-0.6-1.4-1.5-1.4c-0.3,0-0.6,0.1-1,0.1c-0.3,0-0.6,0.1-0.9,0.1
				c-0.3-1.5-0.3-9.3,0-10.5c0.5,0.1,1,0.1,1.5,0.2c1.3,0.1,1.8-0.4,1.9-1.7c0.2-3.3,0.5-6.7,1.2-9.9c0.3-1.4,0.7-2.8,1-4.2
				c0.2-0.9-0.2-1.5-1-1.8c-0.3-0.1-0.5-0.1-0.8-0.1c-0.4-0.1-0.7-0.1-1.2-0.2c0.9-3.4,1.9-6.8,3.3-10.1c0.6,0.2,1,0.4,1.5,0.6
				c1.1,0.4,1.9,0,2.3-1.1c1.7-4.5,3.8-8.8,6.4-12.8c0.7-1.1,0.4-1.9-0.8-2.4c-0.4-0.2-0.8-0.4-1.3-0.6
				C227.4,187.6,229.5,184.7,231.8,181.9 M386.2,157c-0.2,0.4-0.3,0.8-0.5,1.2c-0.5,0.8-1,1.5-1.6,2.3c-0.5,0.7-1.1,0.9-1.9,0.4
				c-0.2-0.1-0.4-0.2-0.5-0.4c-2.7-1.9-5.6-3.6-8.5-5.1c-0.8-0.4-1.6-0.7-2.3-1.1c-0.9-0.5-1-1.1-0.5-1.9c0.6-0.9,1.2-1.8,1.9-2.7
				c0.5-0.6,0.9-0.8,1.7-0.6c0.2,0.1,0.4,0.1,0.6,0.2c1.5,0.8,2.9,1.5,4.4,2.4c2.2,1.2,4.3,2.5,6.4,3.8
				C385.9,155.9,386.2,156.4,386.2,157 M384.6,317.7c0.4,0.2,0.8,0.3,1,0.6c0.8,1,1.5,2,2.2,3c0.3,0.4,0.3,0.8,0,1.1
				c-0.2,0.3-0.5,0.6-0.8,0.8c-1.2,0.8-2.3,1.5-3.5,2.2c-2.4,1.4-4.7,2.8-7.1,4.1c-0.6,0.4-1.2,0.4-1.8,0c-0.4-0.2-0.8-0.5-1-0.9
				c-0.5-0.7-1-1.4-1.5-2c-0.6-0.9-0.5-1.5,0.5-2c0.5-0.3,1.1-0.5,1.6-0.8c3.2-1.6,6.2-3.5,9.2-5.6
				C383.7,318.1,384.1,318,384.6,317.7 M219.1,274c0.7,0,1.1,0.3,1.4,1c0.6,1.3,1.1,2.7,1.7,4c1.1,2.2,2.3,4.4,3.6,6.6
				c0.7,1.3,0.6,1.7-0.8,2.3c-0.9,0.4-1.8,0.8-2.8,1.1c-1,0.4-1.7,0.2-2.2-0.8c-0.5-0.9-1-1.8-1.4-2.6c-1.3-2.6-2.6-5.2-3.9-7.8
				c-0.4-0.7-0.2-1.3,0.3-1.8c0.2-0.2,0.5-0.5,0.9-0.6c0.9-0.4,1.8-0.8,2.8-1.2C218.7,274.1,219,274.1,219.1,274 M221.5,190.9
				c0.4,0.1,0.8,0.2,1.2,0.3c0.8,0.3,1.7,0.7,2.5,1c1,0.4,1.2,1,0.6,2c-0.5,0.9-1.1,1.8-1.6,2.7c-1.5,2.5-2.7,5.2-3.7,7.9
				c-0.4,1.1-1,1.3-2.1,0.9c-1-0.4-2-0.8-3-1.2c-1-0.4-1.3-1.1-0.8-2.1c0.3-0.6,0.5-1.1,0.8-1.7c1.5-2.9,2.9-5.8,4.4-8.7
				C220.1,191.2,220.7,190.9,221.5,190.9 M398.9,166.6c0.6,0.1,1,0.3,1.4,0.7c1,1,2,1.9,2.9,2.8c1.8,1.9,3.7,3.9,5.5,5.8
				c0.4,0.4,0.6,0.8,0.4,1.3c-0.2,0.4-0.4,0.9-0.7,1.2c-0.8,0.7-1.6,1.4-2.5,2c-0.6,0.4-1.2,0.4-1.7-0.1c-0.2-0.2-0.3-0.4-0.5-0.5
				c-1.7-2.1-3.5-4.1-5.4-5.9c-1-0.9-2-1.9-3.1-2.8c-0.7-0.7-0.7-1.3,0-1.9c0.9-0.7,1.8-1.4,2.7-2.1
				C398.3,166.8,398.6,166.7,398.9,166.6 M269.1,153.7c-0.2,0.3-0.3,0.6-0.5,0.8c-0.2,0.2-0.4,0.3-0.7,0.4
				c-3.7,1.8-7.2,3.8-10.6,6.2c-0.2,0.2-0.5,0.3-0.8,0.4c-0.5,0.2-1,0.1-1.4-0.4c-0.7-1-1.5-2-2.2-3.1c-0.3-0.4-0.3-0.9,0-1.3
				c0.2-0.3,0.4-0.5,0.7-0.6c1.3-0.8,2.6-1.6,3.9-2.4c2.2-1.3,4.5-2.6,6.8-3.9c0.7-0.4,1.3-0.3,1.9,0c0.3,0.2,0.6,0.4,0.8,0.7
				c0.6,0.7,1.1,1.5,1.6,2.3C268.9,153.2,269,153.4,269.1,153.7 M252.9,322.5c0.2-0.4,0.3-0.8,0.5-1.2c0.5-0.8,1.1-1.6,1.6-2.3
				c0.5-0.7,1.1-0.8,1.9-0.4c0.2,0.1,0.4,0.3,0.7,0.5c2.3,1.4,4.5,2.9,6.8,4.2c1.2,0.7,2.4,1.2,3.6,1.9c1.2,0.6,1.3,1.1,0.6,2.2
				c-0.5,0.8-1.1,1.5-1.6,2.3c-0.7,1-1.4,1.2-2.5,0.6c-0.9-0.5-1.8-1-2.7-1.5c-2.7-1.6-5.3-3.1-8-4.7
				C253.3,323.6,253,323.1,252.9,322.5 M432.8,230.4c-0.1,0.2-0.2,0.6-0.4,0.8c-0.4,0.5-0.9,0.7-1.5,0.8c-0.9,0.1-1.9,0.2-2.8,0.4
				c-1.1,0.2-1.7-0.3-1.8-1.4c-0.2-3.4-0.7-6.8-1.6-10.2c-0.1-0.5-0.3-1-0.4-1.6c-0.2-0.8,0.2-1.3,1-1.5c0.2,0,0.4-0.1,0.6-0.1
				c1-0.1,1.9-0.2,2.9-0.4c1.3-0.2,1.8,0.2,2.1,1.4c0.4,2.2,0.9,4.4,1.3,6.6C432.3,227,432.5,228.6,432.8,230.4 M428.8,261
				C428.7,261,428.7,261,428.8,261c-1-0.2-2.1-0.3-3.1-0.5c-0.8-0.1-1.1-0.6-1.1-1.3c0-0.2,0.1-0.3,0.1-0.5
				c0.9-3.8,1.5-7.6,1.7-11.5c0-1.1,0.5-1.5,1.5-1.4c1.2,0.1,2.4,0.2,3.5,0.4c1.1,0.2,1.5,0.8,1.3,1.9c-0.1,1.1-0.2,2.3-0.4,3.4
				c-0.4,2.7-0.9,5.3-1.3,8c-0.1,0.6-0.4,1-0.9,1.1C429.8,260.8,429.2,260.9,428.8,261 M425.2,202c-0.1,0.8-0.6,1.4-1.3,1.7
				c-1,0.5-2,0.9-3,1.3c-0.7,0.3-1.3,0-1.6-0.6c-0.1-0.2-0.2-0.4-0.3-0.6c-0.6-1.3-1.1-2.6-1.7-3.9c-1.1-2.1-2.3-4.2-3.5-6.3
				c-0.8-1.3-0.6-1.7,0.8-2.3c0.9-0.4,1.9-0.8,2.8-1.2c0.9-0.4,1.6-0.1,2.1,0.7c0.5,0.8,1,1.7,1.4,2.6c1.3,2.6,2.7,5.3,4,7.9
				C425.1,201.6,425.2,201.8,425.2,202 M357.3,331.4c0.8,0,1.1,0.2,1.4,0.8c0.3,0.9,0.6,1.8,0.9,2.7c0.5,1.4,0.2,1.9-1.3,2.4
				c-0.1,0-0.2,0.1-0.2,0.1c-3.9,1.2-7.7,2.4-11.6,3.2c-1.1,0.2-2.1-0.2-2.5-1.3c-0.3-0.9-0.6-1.8-0.9-2.8c-0.2-0.6,0-1.1,0.6-1.4
				c0.2-0.1,0.4-0.2,0.6-0.2c4.2-0.8,8.4-1.9,12.4-3.4C356.9,331.5,357.2,331.4,357.3,331.4 M240.3,312.8c-0.6-0.1-1-0.3-1.4-0.6
				c-1.3-1.3-2.6-2.6-3.9-3.9c-1.5-1.6-3-3.3-4.5-4.9c-0.3-0.3-0.5-0.7-0.4-1.2c0.2-0.4,0.3-0.9,0.7-1.3c0.8-0.7,1.7-1.4,2.5-2
				c0.5-0.4,1.2-0.3,1.7,0.1c0.2,0.2,0.4,0.4,0.6,0.7c1.7,2.2,3.6,4.2,5.6,6.1c0.9,0.9,1.8,1.7,2.7,2.5c0.7,0.6,0.6,1.3-0.1,1.9
				c-0.9,0.7-1.8,1.5-2.8,2.2C240.9,312.6,240.6,312.7,240.3,312.8 M418.9,288.3c-0.2,0-0.5,0-0.7-0.1c-1.1-0.4-2.2-0.9-3.3-1.3
				c-0.4-0.2-0.6-0.6-0.5-1.1c0.1-0.3,0.2-0.6,0.3-0.8c0.9-1.6,1.8-3.1,2.6-4.7c0.9-1.9,1.8-4,2.6-6c0.4-1,1-1.3,2-0.9
				c1.1,0.4,2.1,0.8,3.2,1.3c1,0.4,1.2,1.1,0.8,2c-0.2,0.6-0.5,1.1-0.8,1.7c-1.4,2.9-2.9,5.8-4.3,8.8
				C420.3,288,419.7,288.3,418.9,288.3 M207.2,249.8c-0.1-1.7,0.3-2.3,1.5-2.6c0.2,0,0.3-0.1,0.5-0.1c0.9-0.1,1.8-0.3,2.7-0.3
				c1.2-0.1,1.6,0.2,1.7,1.4c0.3,3.3,0.7,6.6,1.4,9.9c0.2,0.6,0.3,1.3,0.5,1.9c0.2,0.8-0.2,1.4-1,1.5c-1.2,0.2-2.5,0.4-3.7,0.5
				c-1,0.1-1.6-0.4-1.8-1.4c-0.1-0.7-0.3-1.5-0.4-2.2C208,255.3,207.5,252.3,207.2,249.8 M211,218.1c1.2,0.2,2.3,0.3,3.4,0.5
				c1.1,0.2,1.4,0.7,1.1,1.7c-1,3.8-1.6,7.7-1.9,11.6c-0.1,1.1-0.6,1.5-1.7,1.4c-1.1-0.2-2.3-0.3-3.4-0.5c-0.9-0.1-1.4-0.7-1.3-1.6
				c0-0.2,0-0.4,0.1-0.6c0.2-1.6,0.4-3.2,0.6-4.8c0.3-2.1,0.7-4.2,1.1-6.2c0.1-0.5,0.4-0.9,0.9-1.1
				C210.3,218.3,210.6,218.2,211,218.1 M297.9,143.6c0,0.5-0.2,0.9-0.7,1.1c-0.3,0.1-0.6,0.2-0.9,0.2c-2.7,0.5-5.4,1.1-8,1.9
				c-1.5,0.5-2.9,1-4.4,1.4c-1,0.3-1.6,0-1.9-0.9c-0.3-1-0.7-2-1-3c-0.2-0.6,0-1.1,0.5-1.5c0.2-0.1,0.4-0.2,0.7-0.3
				c2.3-0.7,4.6-1.4,6.9-2c1.8-0.5,3.7-0.9,5.5-1.3c0.7-0.2,1.2,0,1.7,0.5c0.3,0.3,0.5,0.7,0.6,1c0.3,0.8,0.5,1.6,0.8,2.4
				C297.9,143.3,297.9,143.4,297.9,143.6 M357.8,144c0,0,0,0.1,0,0.2c-0.3,1.1-0.6,2.1-1,3.2c-0.1,0.4-0.5,0.6-0.9,0.6
				c-0.5,0-0.9-0.1-1.3-0.2c-2.9-1-5.8-1.8-8.8-2.4c-1.2-0.2-2.3-0.4-3.5-0.7c-1.1-0.2-1.4-0.7-1.1-1.8c0.3-0.9,0.6-1.8,0.9-2.7
				c0.3-1,1-1.4,2-1.2c0.5,0.1,1.1,0.2,1.6,0.4c3.6,0.8,7.2,1.7,10.8,2.8C357.4,142.4,357.8,142.9,357.8,144 M283.4,331.7
				c0.1,0,0.2,0,0.3,0c0.2,0.1,0.5,0.1,0.7,0.2c3.2,1.1,6.5,2.1,9.8,2.8c0.8,0.2,1.6,0.3,2.5,0.5c1,0.2,1.3,0.8,1,1.7
				c-0.3,0.9-0.6,1.8-0.9,2.7c-0.4,1.1-1,1.5-2.2,1.2c-0.4-0.1-0.8-0.2-1.3-0.3c-3.7-0.8-7.3-1.7-10.9-2.9c-1.2-0.4-1.7-1.2-1.3-2.4
				c0.3-0.9,0.5-1.8,0.8-2.6C282.4,331.9,282.7,331.7,283.4,331.7 M244.5,170.5c0,0.7-0.3,1-0.7,1.3c-2.1,1.8-4.1,3.8-5.9,5.8
				c-0.9,1-1.7,2-2.5,3c-0.7,0.9-1.4,1-2.2,0.3c-0.9-0.7-1.8-1.4-2.6-2.1c-0.7-0.6-0.8-1.3-0.2-2c0.3-0.3,0.6-0.6,0.9-1
				c2.4-2.7,4.8-5.3,7.4-7.8c0.9-0.9,1.9-1,2.9-0.2c0.9,0.6,1.7,1.3,2.5,2C244.3,170,244.4,170.3,244.5,170.5 M320.3,136.5
				C320.3,136.5,320.3,136.5,320.3,136.5c2.1,0.1,4.2,0.1,6.3,0.1c1.4,0,2.1,0.7,2.1,2.2c0,0.8,0,1.6,0,2.4c0,1.1-0.5,1.5-1.6,1.5
				c-1.1-0.1-2.2-0.2-3.2-0.2c-2.2,0-4.4,0-6.7,0c-1.1,0-2.3,0.2-3.4,0.2c-1,0-1.5-0.4-1.5-1.4c0-1,0-2.1,0-3.1c0-0.5,0.2-1,0.7-1.2
				c0.3-0.1,0.7-0.2,1-0.2C316.1,136.6,318.2,136.5,320.3,136.5 M400.6,311.9c-0.6,0-1.2-0.2-1.7-0.6c-0.7-0.5-1.4-1.1-2.1-1.6
				c-0.9-0.7-0.9-1.3-0.1-2.1c0.5-0.5,1.1-1,1.6-1.5c2.5-2.3,4.7-4.8,6.8-7.5c0.7-0.9,1.4-0.9,2.2-0.3c0.8,0.6,1.6,1.3,2.4,1.9
				c1,0.7,1,1.4,0.2,2.3c-0.6,0.6-1.1,1.3-1.7,1.9c-2.1,2.3-4.3,4.6-6.5,6.9C401.6,311.7,401.1,311.9,400.6,311.9 M319.5,343.5
				C319.5,343.5,319.5,343.6,319.5,343.5c-1.9,0.1-3.8,0-5.7,0c-0.3,0-0.6-0.2-0.9-0.4c-0.5-0.4-0.7-1-0.8-1.6c0-0.8,0-1.7,0-2.5
				c0-1,0.4-1.4,1.4-1.4c0.8,0,1.6,0.1,2.4,0.1c2.5,0,5,0,7.5,0c1.2,0,2.3-0.2,3.5-0.2c1.2-0.1,1.5,0.3,1.6,1.4c0,0.9,0,1.8,0,2.8
				c0,1.1-0.5,1.7-1.6,1.7c-1.7,0.1-3.3,0.1-5,0.2C321.2,343.5,320.3,343.5,319.5,343.5"/>
		</g>
	</g>
</g>
</svg>
