<svg width="32" height="32" viewBox="0 0 32 32" fill="none" xmlns="http://www.w3.org/2000/svg">
<path d="M12.8203 25.1875L16.9453 21.0625C17.5039 20.5469 17.5039 19.6445 16.9453 19.1289C16.4297 18.5703 15.5274 18.5703 15.0117 19.1289L13.25 20.8906V7.69922C13.25 6.96875 12.6055 6.32422 11.875 6.32422C11.1016 6.32422 10.5 6.96875 10.5 7.69922V20.8906L8.69532 19.1289C8.1797 18.5703 7.27736 18.5703 6.76173 19.1289C6.20314 19.6445 6.20314 20.5469 6.76173 21.0625L10.8867 25.1875C11.4024 25.7461 12.3047 25.7461 12.8203 25.1875ZM25.1953 10.8789L21.0703 6.75391C20.5547 6.19531 19.6524 6.19531 19.1367 6.75391L15.0117 10.8789C14.4531 11.3945 14.4531 12.2969 15.0117 12.8125C15.5274 13.3711 16.4297 13.3711 16.9453 12.8125L18.75 11.0508V24.1992C18.75 24.9727 19.3516 25.5742 20.125 25.5742C20.8555 25.5742 21.5 24.9727 21.5 24.1992V11.0508L23.2617 12.8125C23.7774 13.3711 24.6797 13.3711 25.1953 12.8125C25.7539 12.2969 25.7539 11.3945 25.1953 10.8789Z" fill="#182B48"/>
</svg>
