<svg width="576" height="474" viewBox="0 0 576 474" fill="none" xmlns="http://www.w3.org/2000/svg">
<rect width="576" height="474" rx="60" fill="#B2E6FA"/>
<rect x="149" y="159" width="289" height="174" rx="40" fill="#00ACED"/>
<g filter="url(#filter0_d_513_3765)">
<path d="M60 173C60 150.598 60 139.397 64.3597 130.84C68.1947 123.314 74.3139 117.195 81.8404 113.36C90.3968 109 101.598 109 124 109H174C196.402 109 207.603 109 216.16 113.36C223.686 117.195 229.805 123.314 233.64 130.84C238 139.397 238 150.598 238 173V219C238 241.402 238 252.603 233.64 261.16C229.805 268.686 223.686 274.805 216.16 278.64C207.603 283 196.402 283 174 283H124C101.598 283 90.3968 283 81.8404 278.64C74.3139 274.805 68.1947 268.686 64.3597 261.16C60 252.603 60 241.402 60 219V173Z" fill="white"/>
</g>
<path d="M136.185 139.049C143.255 135.269 151.745 135.269 158.815 139.049L193.271 157.469C201.081 161.643 205.957 169.779 205.957 178.634V212.366C205.957 221.221 201.081 229.357 193.271 233.531L158.815 251.951C151.745 255.731 143.255 255.731 136.185 251.951L101.729 233.531C93.9193 229.357 89.0433 221.221 89.0433 212.366V178.634C89.0433 169.779 93.9193 161.643 101.729 157.469L136.185 139.049Z" fill="#31DB39"/>
<path opacity="0.2" d="M147 204.209C147 197.347 150.902 191.082 157.06 188.055L194.471 169.667C199.787 167.054 206 170.923 206 176.846V227.5L147 258.5V204.209Z" fill="white"/>
<rect x="331" y="271" width="175" height="105" rx="40" fill="white"/>
<path d="M397.968 341H391.248L376.032 318.008V341H369.312V307.448H376.032L391.248 330.488V307.448H397.968V341ZM429.329 327.128C429.329 328.088 429.265 328.952 429.137 329.72H409.697C409.857 331.64 410.529 333.144 411.713 334.232C412.897 335.32 414.353 335.864 416.081 335.864C418.577 335.864 420.353 334.792 421.409 332.648H428.657C427.889 335.208 426.417 337.32 424.241 338.984C422.065 340.616 419.393 341.432 416.225 341.432C413.665 341.432 411.361 340.872 409.313 339.752C407.297 338.6 405.713 336.984 404.561 334.904C403.441 332.824 402.881 330.424 402.881 327.704C402.881 324.952 403.441 322.536 404.561 320.456C405.681 318.376 407.249 316.776 409.265 315.656C411.281 314.536 413.601 313.976 416.225 313.976C418.753 313.976 421.009 314.52 422.993 315.608C425.009 316.696 426.561 318.248 427.649 320.264C428.769 322.248 429.329 324.536 429.329 327.128ZM422.369 325.208C422.337 323.48 421.713 322.104 420.497 321.08C419.281 320.024 417.793 319.496 416.033 319.496C414.369 319.496 412.961 320.008 411.809 321.032C410.689 322.024 410.001 323.416 409.745 325.208H422.369ZM471.098 314.408L463.322 341H456.074L451.226 322.424L446.378 341H439.082L431.258 314.408H438.074L442.778 334.664L447.866 314.408H454.97L459.962 334.616L464.666 314.408H471.098Z" fill="#00ACED"/>
<defs>
<filter id="filter0_d_513_3765" x="8" y="89" width="282" height="278" filterUnits="userSpaceOnUse" color-interpolation-filters="sRGB">
<feFlood flood-opacity="0" result="BackgroundImageFix"/>
<feColorMatrix in="SourceAlpha" type="matrix" values="0 0 0 0 0 0 0 0 0 0 0 0 0 0 0 0 0 0 127 0" result="hardAlpha"/>
<feMorphology radius="12" operator="erode" in="SourceAlpha" result="effect1_dropShadow_513_3765"/>
<feOffset dy="32"/>
<feGaussianBlur stdDeviation="32"/>
<feColorMatrix type="matrix" values="0 0 0 0 0.0627451 0 0 0 0 0.0941176 0 0 0 0 0.156863 0 0 0 0.2 0"/>
<feBlend mode="normal" in2="BackgroundImageFix" result="effect1_dropShadow_513_3765"/>
<feBlend mode="normal" in="SourceGraphic" in2="effect1_dropShadow_513_3765" result="shape"/>
</filter>
</defs>
</svg>
