<svg width="584" height="468" viewBox="0 0 584 468" fill="none" xmlns="http://www.w3.org/2000/svg">
<rect width="584" height="468" rx="60" fill="#FFE8EF"/>
<path d="M170 222.65C170 212.887 170.009 206.287 170.425 201.193C170.83 196.24 171.559 193.777 172.415 192.097C174.539 187.928 177.928 184.539 182.097 182.415C183.777 181.559 186.24 180.83 191.193 180.425C196.287 180.009 202.887 180 212.65 180H372.35C382.113 180 388.713 180.009 393.807 180.425C398.76 180.83 401.223 181.559 402.903 182.415C407.072 184.539 410.461 187.928 412.585 192.097C413.441 193.777 414.17 196.24 414.574 201.193C414.991 206.287 415 212.887 415 222.65V275.701C415 295.028 414.991 308.802 414.109 319.591C413.239 330.24 411.58 336.92 408.862 342.253C403.464 352.849 394.849 361.464 384.253 366.862C378.92 369.58 372.24 371.239 361.591 372.109C350.802 372.991 337.028 373 317.701 373H267.299C247.972 373 234.198 372.991 223.409 372.109C212.76 371.239 206.08 369.58 200.747 366.862C190.151 361.464 181.536 352.849 176.138 342.253C173.42 336.92 171.761 330.24 170.891 319.591C170.009 308.802 170 295.028 170 275.701V222.65Z" fill="#FFB2CB" stroke="#FF6497" stroke-width="24"/>
<rect x="277.546" y="167.255" width="25.617" height="204.936" fill="#FF6497"/>
<rect x="170.809" y="265.453" width="25.617" height="239.092" transform="rotate(-90 170.809 265.453)" fill="#FF6497"/>
<path d="M174 96.2127C174 95.5429 174.543 95 175.213 95H194.021C243.459 95 284.247 132.034 290.158 179.872H257.66C211.456 179.872 174 142.417 174 96.2127Z" fill="#FFE8EF" stroke="#FF6497" stroke-width="24"/>
<path d="M407 100.56C407 97.4893 404.511 95 401.44 95H386.979C337.541 95 296.753 132.034 290.842 179.872H327.688C371.491 179.872 407 144.363 407 100.56Z" fill="#FFE8EF" stroke="#FF6497" stroke-width="24"/>
</svg>
