<svg width="192" height="65" viewBox="0 0 192 65" fill="none" xmlns="http://www.w3.org/2000/svg">
<rect y="0.5" width="192" height="64" rx="12" fill="#0C0D10"/>
<path d="M130.441 31.2216V34.8872H128.144V37.2911H130.441V45.4591C130.441 48.2481 131.703 49.3638 134.877 49.3638C135.435 49.3638 135.966 49.2974 136.431 49.2177V46.8403C136.033 46.8802 135.781 46.9067 135.342 46.9067C133.921 46.9067 133.297 46.2427 133.297 44.7286V37.2911H136.431V34.8872H133.297V31.2216H130.441Z" fill="white"/>
<path d="M144.517 49.563C148.741 49.563 151.331 46.7341 151.331 42.0458C151.331 37.3841 148.728 34.5419 144.517 34.5419C140.294 34.5419 137.691 37.3841 137.691 42.0458C137.691 46.7341 140.281 49.563 144.517 49.563ZM144.517 47.0263C142.034 47.0263 140.639 45.2067 140.639 42.0458C140.639 38.9114 142.034 37.0786 144.517 37.0786C146.988 37.0786 148.396 38.9114 148.396 42.0458C148.396 45.1934 146.988 47.0263 144.517 47.0263Z" fill="white"/>
<path d="M153.547 49.2841H156.402V40.7442C156.402 38.7122 157.929 37.3442 160.094 37.3442C160.599 37.3442 161.449 37.4372 161.688 37.5169V34.7013C161.382 34.6216 160.838 34.5817 160.413 34.5817C158.527 34.5817 156.92 35.6177 156.508 37.0388H156.296V34.8208H153.547V49.2841Z" fill="white"/>
<path d="M168.778 36.9724C170.89 36.9724 172.271 38.4466 172.337 40.7177H165.033C165.192 38.4599 166.666 36.9724 168.778 36.9724ZM172.324 45.3794C171.793 46.5083 170.611 47.1325 168.884 47.1325C166.6 47.1325 165.126 45.5255 165.033 42.9888V42.8294H175.246V41.8333C175.246 37.2911 172.816 34.5419 168.791 34.5419C164.714 34.5419 162.124 37.477 162.124 42.0989C162.124 46.7208 164.661 49.563 168.805 49.563C172.112 49.563 174.423 47.9692 175.073 45.3794H172.324Z" fill="white"/>
<path d="M111.716 43.943C111.936 47.4945 114.896 49.7659 119.301 49.7659C124.008 49.7659 126.954 47.3844 126.954 43.5851C126.954 40.598 125.275 38.9461 121.2 37.9963L119.011 37.4594C116.424 36.8537 115.377 36.0415 115.377 34.6237C115.377 32.8341 117.002 31.6641 119.438 31.6641C121.751 31.6641 123.348 32.8066 123.637 34.6374H126.638C126.459 31.2924 123.513 28.9385 119.48 28.9385C115.143 28.9385 112.253 31.2924 112.253 34.8302C112.253 37.7485 113.891 39.4829 117.483 40.3226L120.044 40.9421C122.673 41.5616 123.829 42.4701 123.829 43.9843C123.829 45.7463 122.012 47.0265 119.535 47.0265C116.878 47.0265 115.033 45.8289 114.772 43.943H111.716Z" fill="white"/>
<path d="M82.136 34.5817C80.1703 34.5817 78.4703 35.5645 77.5938 37.2114H77.3813V34.8208H74.6321V54.0919H77.4875V47.0927H77.7133C78.4703 48.62 80.1039 49.5231 82.1625 49.5231C85.8149 49.5231 88.1391 46.6411 88.1391 42.0458C88.1391 37.4505 85.8149 34.5817 82.136 34.5817ZM81.3258 46.9599C78.9352 46.9599 77.4344 45.0739 77.4344 42.0591C77.4344 39.0309 78.9352 37.145 81.3391 37.145C83.7563 37.145 85.2039 38.9911 85.2039 42.0458C85.2039 45.1138 83.7563 46.9599 81.3258 46.9599Z" fill="white"/>
<path d="M98.1308 34.5817C96.1652 34.5817 94.4652 35.5645 93.5887 37.2114H93.3762V34.8208H90.6269V54.0919H93.4824V47.0927H93.7082C94.4652 48.62 96.0988 49.5231 98.1574 49.5231C101.81 49.5231 104.134 46.6411 104.134 42.0458C104.134 37.4505 101.81 34.5817 98.1308 34.5817ZM97.3207 46.9599C94.9301 46.9599 93.4293 45.0739 93.4293 42.0591C93.4293 39.0309 94.9301 37.145 97.334 37.145C99.7512 37.145 101.199 38.9911 101.199 42.0458C101.199 45.1138 99.7512 46.9599 97.3207 46.9599Z" fill="white"/>
<path d="M69.5089 49.2841H72.7851L65.6132 29.4203H62.2957L55.1238 49.2841H58.2899L60.1207 44.0118H67.6918L69.5089 49.2841ZM63.7961 33.0269H64.0301L66.9072 41.4239H60.9053L63.7961 33.0269Z" fill="white"/>
<path d="M57.0417 14.4375V24.02H60.5015C63.357 24.02 65.0105 22.2602 65.0105 19.1989C65.0105 16.184 63.3437 14.4375 60.5015 14.4375H57.0417ZM58.5292 15.7922H60.3355C62.321 15.7922 63.4964 17.054 63.4964 19.2188C63.4964 21.4168 62.341 22.6653 60.3355 22.6653H58.5292V15.7922Z" fill="white"/>
<path d="M70.0746 24.1594C72.1864 24.1594 73.4813 22.745 73.4813 20.4008C73.4813 18.07 72.1797 16.6489 70.0746 16.6489C67.9629 16.6489 66.6614 18.07 66.6614 20.4008C66.6614 22.745 67.9563 24.1594 70.0746 24.1594ZM70.0746 22.8911C68.8328 22.8911 68.1356 21.9813 68.1356 20.4008C68.1356 18.8336 68.8328 17.9172 70.0746 17.9172C71.3098 17.9172 72.0137 18.8336 72.0137 20.4008C72.0137 21.9747 71.3098 22.8911 70.0746 22.8911Z" fill="white"/>
<path d="M84.5087 16.7883H83.081L81.7927 22.3067H81.6798L80.1923 16.7883H78.8243L77.3368 22.3067H77.2306L75.9357 16.7883H74.488L76.4802 24.02H77.9478L79.4353 18.6942H79.5482L81.0423 24.02H82.5232L84.5087 16.7883Z" fill="white"/>
<path d="M86.1529 24.02H87.5807V19.7899C87.5807 18.661 88.2514 17.9571 89.3072 17.9571C90.3631 17.9571 90.8678 18.5348 90.8678 19.6969V24.02H92.2955V19.3383C92.2955 17.6184 91.4057 16.6489 89.792 16.6489C88.7029 16.6489 87.9857 17.1336 87.6338 17.9372H87.5275V16.7883H86.1529V24.02Z" fill="white"/>
<path d="M94.544 24.02H95.9717V13.9661H94.544V24.02Z" fill="white"/>
<path d="M101.341 24.1594C103.453 24.1594 104.748 22.745 104.748 20.4008C104.748 18.07 103.446 16.6489 101.341 16.6489C99.2296 16.6489 97.9281 18.07 97.9281 20.4008C97.9281 22.745 99.223 24.1594 101.341 24.1594ZM101.341 22.8911C100.1 22.8911 99.4023 21.9813 99.4023 20.4008C99.4023 18.8336 100.1 17.9172 101.341 17.9172C102.577 17.9172 103.28 18.8336 103.28 20.4008C103.28 21.9747 102.577 22.8911 101.341 22.8911Z" fill="white"/>
<path d="M109.002 22.9375C108.225 22.9375 107.661 22.559 107.661 21.9083C107.661 21.2708 108.112 20.9321 109.108 20.8657L110.875 20.7528V21.3571C110.875 22.2536 110.078 22.9375 109.002 22.9375ZM108.637 24.1395C109.586 24.1395 110.377 23.7278 110.808 23.004H110.921V24.02H112.296V19.0793C112.296 17.552 111.273 16.6489 109.46 16.6489C107.82 16.6489 106.651 17.4458 106.505 18.6875H107.886C108.046 18.1762 108.597 17.884 109.394 17.884C110.37 17.884 110.875 18.3157 110.875 19.0793V19.7036L108.916 19.8165C107.196 19.9227 106.226 20.6731 106.226 21.9747C106.226 23.2961 107.242 24.1395 108.637 24.1395Z" fill="white"/>
<path d="M117.141 24.1395C118.137 24.1395 118.98 23.668 119.412 22.8778H119.525V24.02H120.893V13.9661H119.465V17.9372H119.359C118.967 17.1403 118.13 16.6688 117.141 16.6688C115.315 16.6688 114.139 18.1165 114.139 20.4008C114.139 22.6918 115.301 24.1395 117.141 24.1395ZM117.546 17.9504C118.741 17.9504 119.492 18.9 119.492 20.4075C119.492 21.9215 118.748 22.8579 117.546 22.8579C116.337 22.8579 115.613 21.9348 115.613 20.4008C115.613 18.8801 116.344 17.9504 117.546 17.9504Z" fill="white"/>
<path d="M130.151 24.1594C132.263 24.1594 133.558 22.745 133.558 20.4008C133.558 18.07 132.256 16.6489 130.151 16.6489C128.039 16.6489 126.738 18.07 126.738 20.4008C126.738 22.745 128.033 24.1594 130.151 24.1594ZM130.151 22.8911C128.909 22.8911 128.212 21.9813 128.212 20.4008C128.212 18.8336 128.909 17.9172 130.151 17.9172C131.386 17.9172 132.09 18.8336 132.09 20.4008C132.09 21.9747 131.386 22.8911 130.151 22.8911Z" fill="white"/>
<path d="M135.448 24.02H136.875V19.7899C136.875 18.661 137.546 17.9571 138.602 17.9571C139.658 17.9571 140.162 18.5348 140.162 19.6969V24.02H141.59V19.3383C141.59 17.6184 140.7 16.6489 139.087 16.6489C137.998 16.6489 137.28 17.1336 136.928 17.9372H136.822V16.7883H135.448V24.02Z" fill="white"/>
<path d="M148.166 14.9887V16.8215H147.017V18.0235H148.166V22.1075C148.166 23.502 148.797 24.0598 150.384 24.0598C150.663 24.0598 150.928 24.0266 151.161 23.9868V22.7981C150.961 22.818 150.835 22.8313 150.616 22.8313C149.906 22.8313 149.593 22.4993 149.593 21.7422V18.0235H151.161V16.8215H149.593V14.9887H148.166Z" fill="white"/>
<path d="M153.077 24.02H154.505V19.7965C154.505 18.7008 155.156 17.9637 156.324 17.9637C157.334 17.9637 157.872 18.5481 157.872 19.7036V24.02H159.299V19.3516C159.299 17.6317 158.35 16.6555 156.809 16.6555C155.72 16.6555 154.956 17.1403 154.604 17.9504H154.492V13.9661H153.077V24.02Z" fill="white"/>
<path d="M164.45 17.8641C165.506 17.8641 166.196 18.6012 166.23 19.7368H162.577C162.657 18.6079 163.394 17.8641 164.45 17.8641ZM166.223 22.0676C165.957 22.6321 165.366 22.9442 164.503 22.9442C163.361 22.9442 162.624 22.1407 162.577 20.8723V20.7926H167.684V20.2946C167.684 18.0235 166.469 16.6489 164.457 16.6489C162.418 16.6489 161.123 18.1165 161.123 20.4274C161.123 22.7383 162.391 24.1594 164.463 24.1594C166.117 24.1594 167.272 23.3625 167.598 22.0676H166.223Z" fill="white"/>
<path d="M39.6304 32.9813C39.6651 30.2917 41.1095 27.7468 43.4009 26.338C41.9554 24.2735 39.5341 22.9646 37.0151 22.8857C34.3283 22.6037 31.7235 24.4935 30.3544 24.4935C28.9588 24.4935 26.8508 22.9137 24.5808 22.9605C21.622 23.056 18.8637 24.7383 17.4241 27.325C14.3297 32.6825 16.6379 40.5562 19.6021 44.8868C21.0851 47.0073 22.8183 49.3761 25.0863 49.2921C27.3056 49.2 28.1344 47.8769 30.8133 47.8769C33.4673 47.8769 34.245 49.2921 36.5589 49.2386C38.9403 49.2 40.4407 47.1087 41.8717 44.968C42.9373 43.457 43.7572 41.7871 44.3012 40.02C41.5026 38.8363 39.6337 36.0199 39.6304 32.9813Z" fill="white"/>
<path d="M35.2598 20.0378C36.5582 18.479 37.1979 16.4755 37.043 14.4528C35.0592 14.6611 33.2268 15.6092 31.9109 17.1081C30.624 18.5727 29.9543 20.5409 30.0809 22.4864C32.0654 22.5068 34.0162 21.5844 35.2598 20.0378Z" fill="white"/>
</svg>
