<svg width="163" height="46" viewBox="0 0 163 46" fill="none" xmlns="http://www.w3.org/2000/svg">
<g clip-path="url(#clip0_2267_31027)">
<rect x="0.5" width="162" height="46" rx="9" fill="black"/>
<path d="M39.3867 16.8787C39.0055 17.1997 38.6226 17.5173 38.2451 17.8413C37.5788 18.4131 37.1192 19.1329 36.7221 19.902C36.4161 20.4948 36.267 21.1352 36.1255 21.7736C36.0511 22.1089 36.087 22.469 36.0806 22.8181C36.066 23.6076 36.227 24.3718 36.5068 25.1025C36.9283 26.2039 37.5937 27.1516 38.5329 27.8852C38.9861 28.239 39.485 28.5361 39.9679 28.8518C40.0376 28.8974 40.134 28.9032 40.2379 28.9331C40.2167 29.0264 40.2067 29.1027 40.1819 29.1739C39.7059 30.5429 39.1145 31.8572 38.2591 33.0409C37.7095 33.8015 37.1583 34.5617 36.5792 35.3002C36.1279 35.8755 35.5495 36.3184 34.912 36.684C34.4917 36.9251 34.0354 37.0545 33.5545 37.0553C33.0688 37.0562 32.5802 37.0344 32.098 36.9792C31.8541 36.9512 31.6098 36.8508 31.3856 36.7427C30.6996 36.4121 29.9847 36.1471 29.2436 35.999C28.6383 35.878 28.0103 35.8572 27.3833 35.9451C26.5464 36.0626 25.7802 36.3816 25.01 36.6948C24.2378 37.0089 23.4437 37.2188 22.6026 37.1134C22.3291 37.079 22.0558 36.9785 21.802 36.8654C20.9077 36.467 20.2162 35.813 19.5967 35.082C18.4642 33.7458 17.4995 32.3018 16.7622 30.714C16.4468 30.0347 16.163 29.345 15.9231 28.6346C15.6089 27.7043 15.3429 26.759 15.188 25.7958C14.9882 24.5534 14.8686 23.297 15.0097 22.0334C15.0494 21.6783 15.0555 21.3191 15.107 20.9659C15.1482 20.6833 15.2365 20.4075 15.3014 20.1282C15.5816 18.9205 16.1137 17.8273 16.8737 16.8478C18.0422 15.3419 19.5767 14.3919 21.4574 14.0098C22.0499 13.8893 22.6599 13.8546 23.263 13.9307C23.9032 14.0114 24.5242 14.1846 25.1261 14.416C25.6002 14.5982 26.0608 14.8188 26.5427 14.9764C27.2459 15.2064 27.958 15.3522 28.6944 15.0583C29.4185 14.7692 30.1577 14.5172 30.8877 14.242C32.0197 13.8154 33.1902 13.7399 34.378 13.8854C35.7952 14.0589 37.0511 14.6203 38.1685 15.4932C38.6787 15.8919 39.173 16.4522 39.387 16.8786L39.3867 16.8787Z" fill="white"/>
<path d="M69.5487 35.5899V41.5642H66.9352C66.9352 41.4496 66.9352 41.3415 66.9352 41.2333C66.9318 37.7515 66.9297 34.2696 66.9242 30.7877C66.9222 29.4355 66.9178 28.0833 66.9036 26.7313C66.8988 26.2707 66.8603 25.8105 66.8359 25.3244H69.1363C69.1875 25.8868 69.24 26.4613 69.2991 27.1103C69.4144 26.9599 69.4818 26.8737 69.5472 26.7862C70.1603 25.9661 70.9626 25.4355 71.9717 25.1987C72.5081 25.0728 73.0424 25.0269 73.5911 25.0759C75.5716 25.2528 76.8225 26.381 77.5925 28.1027C77.8271 28.6276 77.9473 29.1936 78.0247 29.7752C78.1116 30.4283 78.1287 31.0727 78.0744 31.7227C78.008 32.5166 77.8498 33.2987 77.5285 34.027C76.9251 35.3948 75.942 36.4023 74.4881 36.8943C73.9745 37.0681 73.4322 37.1338 72.8858 37.1262C72.4246 37.1197 71.9699 37.0798 71.5214 36.9512C70.7567 36.7318 70.1496 36.3078 69.6959 35.6644C69.677 35.6376 69.654 35.6134 69.6302 35.5906C69.6243 35.5849 69.6081 35.5897 69.5486 35.5897L69.5487 35.5899ZM72.081 35.0739C73.5361 35.103 74.6216 34.4313 75.0655 33.0826C75.199 32.6773 75.3144 32.2728 75.3596 31.8384C75.399 31.4592 75.4581 31.0858 75.421 30.7049C75.406 30.5514 75.3346 30.3981 75.3446 30.2483C75.3797 29.7268 75.1705 29.2613 74.9711 28.8136C74.6195 28.0243 74.0511 27.4534 73.1497 27.2376C72.6455 27.1168 72.1672 27.1014 71.6792 27.2454C70.4306 27.6145 69.703 28.7068 69.5987 29.8551C69.5326 30.5824 69.5472 31.3182 69.5516 32.0501C69.5549 32.5964 69.6435 33.1273 69.9225 33.6197C70.4474 34.5459 71.2097 35.0741 72.0809 35.0741L72.081 35.0739Z" fill="#FEFEFF"/>
<path d="M82.9861 35.5255V41.5791C82.1077 41.5878 81.2612 41.5852 80.3859 41.5808C80.3326 36.1441 80.4502 30.7404 80.291 25.3191H82.5759C82.627 25.9019 82.6773 26.4768 82.7342 27.1268C82.8425 26.9753 82.9066 26.8865 82.9697 26.7973C83.4685 26.0922 84.1458 25.5968 84.9508 25.315C85.5903 25.0911 86.2698 24.9867 86.9614 25.0744C87.5734 25.152 88.1804 25.2364 88.7351 25.536C89.7417 26.0796 90.4807 26.8674 90.942 27.9009C91.1675 28.4061 91.3389 28.9342 91.4244 29.4824C91.5408 30.2271 91.5826 30.9781 91.5023 31.7277C91.4042 32.6456 91.257 33.5588 90.7977 34.3814C90.187 35.475 89.3593 36.3516 88.1492 36.807C87.3671 37.1015 86.5553 37.1972 85.723 37.085C85.4786 37.052 85.2322 37.0212 84.9938 36.9615C84.1889 36.7597 83.5661 36.2981 83.0976 35.6259C83.0858 35.6089 83.0664 35.5973 82.986 35.5256L82.9861 35.5255ZM82.9604 31.3276C82.9735 31.3283 82.9868 31.3289 83 31.3296C83 31.6339 82.9986 31.9381 83.0005 32.2424C83.0016 32.4109 82.9768 32.5872 83.018 32.7464C83.1792 33.3698 83.4568 33.9367 83.9401 34.384C84.2763 34.695 84.6639 34.9226 85.1214 35.0098C86.3358 35.2416 87.5511 34.8956 88.2597 33.6391C88.5979 33.0394 88.7354 32.3814 88.8305 31.7141C88.9101 31.1556 88.8623 30.6033 88.7707 30.042C88.6557 29.3379 88.4148 28.7076 87.9929 28.1337C87.2293 27.0952 85.6179 26.8538 84.5818 27.4562C83.7374 27.9472 83.2171 28.6612 83.0777 29.6128C82.9949 30.1781 82.9967 30.7556 82.9603 31.3276H82.9604Z" fill="#FEFEFF"/>
<path d="M56.1887 20.867C56.2614 20.8457 56.2828 20.8341 56.3041 20.8341C57.3416 20.8331 58.379 20.8333 59.4631 20.8333C61.2055 26.1606 62.9486 31.4908 64.7026 36.8542H61.8903C61.3904 35.2908 60.8945 33.7402 60.3952 32.1782H55.1669C54.6831 33.7449 54.2017 35.3036 53.7217 36.8579H51.0225C51.0461 36.7549 51.0592 36.6704 51.085 36.59C51.3097 35.8924 51.5368 35.1954 51.763 34.4983C52.0091 33.7396 52.2562 32.9814 52.5004 32.2222C52.7904 31.3211 53.074 30.4181 53.3674 29.5182C53.653 28.6419 53.9491 27.7689 54.2377 26.8935C54.4695 26.19 54.6972 25.4853 54.9264 24.781C55.153 24.0845 55.38 23.3883 55.6049 22.6912C55.8012 22.0827 55.9948 21.4735 56.1888 20.8669L56.1887 20.867ZM55.6363 30.1454H59.9241C59.8165 29.8193 59.7204 29.5203 59.619 29.2229C59.5232 28.9415 59.4178 28.6632 59.3243 28.3812C59.2282 28.0913 59.142 27.7981 59.0502 27.5068C58.9589 27.2173 58.8653 26.9285 58.7738 26.6391C58.6805 26.3446 58.586 26.0504 58.4965 25.7548C58.4063 25.4568 58.3176 25.1582 58.2355 24.8577C58.1556 24.5646 58.1142 24.2578 58.0023 23.978C57.8908 23.6995 57.9241 23.3774 57.7283 23.0737C57.6989 23.1655 57.6839 23.205 57.6737 23.2457C57.3579 24.4953 57.0685 25.7514 56.6519 26.9749C56.3611 27.829 56.1027 28.6939 55.8293 29.5539C55.7695 29.7422 55.7068 29.9296 55.6363 30.1455V30.1454Z" fill="#FEFEFE"/>
<path d="M105.887 21.335C105.842 21.8271 105.37 23.278 105.214 23.4469C104.559 23.1753 103.929 22.8782 103.197 22.8379C102.808 22.8165 102.42 22.699 102.024 22.7307C101.542 22.7694 101.065 22.8283 100.616 23.0373C100.129 23.2635 99.787 23.6225 99.5357 24.0776C99.4942 24.1528 99.4879 24.2476 99.4684 24.3339C99.2926 25.1048 99.4723 25.7701 100.071 26.3099C100.533 26.7253 101.08 27.001 101.64 27.2564C102.298 27.5564 102.972 27.8257 103.608 28.1655C104.136 28.4478 104.637 28.7893 105.117 29.1475C105.672 29.5613 106.045 30.1179 106.286 30.7688C106.641 31.7276 106.638 32.7006 106.392 33.6673C106.196 34.4373 105.799 35.1165 105.175 35.6413C104.437 36.2628 103.611 36.7208 102.65 36.9122C101.595 37.1221 100.534 37.1266 99.4667 37.0312C98.8286 36.9742 98.2003 36.8843 97.5994 36.6557C97.2105 36.5078 96.8388 36.3269 96.4766 36.0978C96.6729 35.3918 96.8628 34.7086 97.0636 33.9864C97.1988 34.0347 97.316 34.0636 97.421 34.1163C97.8787 34.3453 98.3397 34.5577 98.8369 34.7004C99.6706 34.9396 100.519 35.0117 101.376 34.9532C101.814 34.9233 102.241 34.7913 102.643 34.6052C104.092 33.9335 104.366 32.0223 103.254 30.946C102.798 30.5054 102.249 30.2024 101.665 29.9737C100.795 29.6334 99.9295 29.2899 99.1291 28.8061C98.2036 28.2467 97.4467 27.5261 97.0294 26.5189C96.8972 26.1996 96.7909 25.8574 96.7904 25.4979C96.79 25.1611 96.7308 24.8178 96.7785 24.4888C96.8828 23.769 97.1554 23.1052 97.6146 22.5267C98.1687 21.8288 98.8702 21.3298 99.7047 21.0057C100.464 20.7108 101.26 20.6066 102.065 20.5808C102.972 20.5518 103.868 20.6765 104.747 20.8949C105.145 20.9939 105.534 21.138 105.887 21.3351L105.887 21.335Z" fill="#FEFEFE"/>
<path d="M116.583 31.1385C116.618 30.6339 116.603 30.12 116.699 29.6269C116.869 28.7472 117.231 27.9355 117.78 27.2135C118.671 26.0426 119.838 25.3448 121.317 25.1444C121.827 25.0754 122.331 25.0246 122.842 25.0805C123.156 25.1147 123.474 25.1314 123.78 25.1988C125.449 25.5657 126.671 26.514 127.416 28.031C127.62 28.447 127.772 28.9004 127.869 29.3531C128.052 30.2087 128.116 31.0804 127.977 31.9518C127.906 32.3976 127.836 32.8492 127.699 33.2779C127.344 34.3981 126.711 35.3445 125.749 36.0509C125.047 36.5662 124.255 36.9151 123.396 37.0474C122.494 37.1859 121.583 37.1779 120.685 36.9646C119.088 36.5856 117.985 35.6046 117.243 34.1946C116.74 33.2388 116.557 32.2117 116.582 31.1386L116.583 31.1385ZM119.207 30.7983C119.255 31.2767 119.284 31.757 119.355 32.2314C119.461 32.9423 119.741 33.5909 120.177 34.166C120.593 34.7142 121.128 35.0794 121.833 35.1806C122.933 35.3384 123.787 34.9535 124.429 34.0714C124.771 33.602 125.003 33.0783 125.135 32.5225C125.237 32.0925 125.287 31.6458 125.313 31.204C125.363 30.3597 125.178 29.5535 124.833 28.7806C124.476 27.9805 123.982 27.3402 123.07 27.088C122.398 26.9021 121.758 26.912 121.136 27.2163C120.249 27.6499 119.796 28.4364 119.507 29.3155C119.352 29.7878 119.305 30.2949 119.208 30.7982L119.207 30.7983Z" fill="#FEFEFE"/>
<path d="M140.177 31.7835C140.316 33.0863 140.765 34.1918 142.084 34.7617C142.503 34.9427 142.936 35.0621 143.386 35.0894C144.44 35.1531 145.476 35.0357 146.487 34.7278C146.574 34.7014 146.658 34.665 146.746 34.6419C146.979 34.5809 147.04 34.6334 147.088 34.8691C147.151 35.1743 147.241 35.4737 147.303 35.779C147.343 35.9735 147.353 36.174 147.376 36.3755C146.79 36.6603 146.197 36.8052 145.595 36.9133C144.559 37.0995 143.514 37.0823 142.467 37.0171C141.978 36.9867 141.501 36.8834 141.065 36.7063C139.836 36.2073 138.878 35.3887 138.289 34.1841C137.982 33.5578 137.768 32.9007 137.713 32.213C137.664 31.6086 137.686 30.9958 137.718 30.3887C137.805 28.6956 138.736 26.9168 140.136 25.9334C140.725 25.5197 141.375 25.2555 142.099 25.1442C142.643 25.0605 143.182 25.0426 143.727 25.0742C144.594 25.1245 145.399 25.3795 146.08 25.9064C146.748 26.4237 147.284 27.0547 147.574 27.8768C147.718 28.2852 147.884 28.6825 147.949 29.1123C148.051 29.7874 148.145 30.4636 148.049 31.1477C148.024 31.3208 147.982 31.4915 147.939 31.7102C147.837 31.7102 147.715 31.7102 147.593 31.7102C145.254 31.7103 142.915 31.7105 140.576 31.7113C140.463 31.7113 140.349 31.7186 140.235 31.7224C140.216 31.7426 140.196 31.7628 140.177 31.7832L140.177 31.7835ZM145.583 29.8554C145.555 29.646 145.511 29.4627 145.509 29.2791C145.495 28.2176 144.819 27.2964 143.811 26.9794C142.75 26.6456 141.775 26.9308 141.068 27.7729C140.652 28.2679 140.422 28.8497 140.251 29.4575C140.217 29.5774 140.246 29.7144 140.246 29.8552L145.583 29.8554Z" fill="#FEFEFE"/>
<path d="M109.772 23.196C110.062 23.0947 110.351 22.9863 110.644 22.8935C111.106 22.7475 111.57 22.6106 112.035 22.4735C112.096 22.4553 112.164 22.4583 112.26 22.4482V25.2922H115.104V27.2286H112.274C112.274 27.3463 112.274 27.4324 112.274 27.5184C112.274 29.1641 112.268 30.8099 112.278 32.4557C112.281 32.8708 112.327 33.2868 112.373 33.7001C112.39 33.8534 112.454 34.005 112.515 34.1495C112.737 34.6707 113.145 34.9357 113.711 34.9526C113.95 34.9598 114.189 34.9325 114.428 34.9194C114.586 34.9106 114.744 34.899 114.941 34.8861C114.96 35.5315 114.979 36.1557 114.999 36.8111C114.787 36.8707 114.589 36.9533 114.383 36.9785C113.786 37.0521 113.19 37.1028 112.583 37.072C111.341 37.0089 110.511 36.3858 110.017 35.2973C109.891 35.019 109.839 34.7033 109.782 34.3994C109.691 33.9164 109.705 33.425 109.705 32.9357C109.705 31.1434 109.706 29.3511 109.707 27.5588C109.707 27.4698 109.707 27.3808 109.707 27.2487H108.015V25.3043H109.697C109.702 24.6043 109.707 23.9324 109.712 23.2606C109.732 23.2392 109.752 23.2177 109.772 23.1963V23.196Z" fill="white"/>
<path d="M132.699 27.3152C133.174 26.2158 133.917 25.4079 135.143 25.1262C135.579 25.026 135.955 25.0264 136.441 25.1307V27.5168C136.308 27.5168 136.175 27.5115 136.043 27.5178C135.682 27.5349 135.317 27.5271 134.963 27.5841C134.48 27.6619 134.08 27.9276 133.758 28.2837C133.393 28.6863 133.156 29.1538 133.02 29.6878C132.917 30.0863 132.902 30.4805 132.901 30.8803C132.896 32.74 132.899 34.5997 132.899 36.4594C132.899 36.581 132.899 36.7024 132.899 36.8467H130.317C130.31 36.7553 130.298 36.6592 130.298 36.5631C130.299 34.5118 130.301 32.4604 130.302 30.4091C130.302 29.3609 130.308 28.3126 130.294 27.2646C130.287 26.705 130.243 26.1458 130.217 25.5863C130.213 25.5092 130.216 25.4319 130.216 25.3574C130.458 25.2862 132.053 25.2715 132.473 25.3376C132.506 25.9492 132.539 26.5654 132.573 27.1815V27.4725C132.596 27.4736 132.619 27.4748 132.642 27.4759C132.661 27.4223 132.68 27.3687 132.699 27.3151L132.699 27.3152Z" fill="white"/>
<path d="M52.5469 15.0175V7.31419C52.7802 7.28447 52.9987 7.24323 53.2188 7.23129C53.7306 7.20362 54.2435 7.1697 54.7553 7.17771C55.1371 7.18381 55.5176 7.25422 55.8993 7.29044C56.012 7.30116 56.1314 7.27227 56.2397 7.29655C57.3974 7.55689 58.3125 8.1366 58.7943 9.25394C59.1137 9.99468 59.1485 10.7777 59.0817 11.5671C59.0354 12.1139 58.9022 12.6415 58.6584 13.139C58.4656 13.5323 58.181 13.8537 57.8468 14.1295C57.1982 14.6649 56.456 14.9814 55.6102 15.0898C54.8492 15.1873 54.091 15.1516 53.3304 15.137C53.1604 15.1337 52.9892 15.1501 52.8203 15.137C52.7273 15.1297 52.6379 15.0793 52.5469 15.0484C52.5586 15.0381 52.5586 15.0278 52.5469 15.0175ZM53.8642 8.22736V14.1263C54.5477 14.1549 55.2075 14.1975 55.8452 13.9844C56.639 13.719 57.2116 13.2413 57.4842 12.4144C57.7167 11.7091 57.8039 11.0097 57.6695 10.2838C57.4938 9.33494 56.9939 8.63734 56.0306 8.35366C55.6667 8.24649 55.2766 8.20511 54.8955 8.18232C54.5588 8.1621 54.2179 8.20918 53.8642 8.22736Z" fill="#FEFEFE"/>
<path d="M33.7698 6.42955C33.7961 6.79286 33.8387 7.15224 33.7478 7.52194C33.6876 7.76681 33.7077 8.03028 33.6548 8.27773C33.371 9.60943 32.7878 10.7888 31.7885 11.744C31.0854 12.4161 30.2737 12.927 29.3566 13.2651C28.8844 13.4392 28.3903 13.5159 27.8849 13.5078C27.7853 13.5062 27.6859 13.491 27.5803 13.4816C27.4508 12.8725 27.5105 12.2926 27.653 11.7233C28.2452 9.3571 29.7092 7.7329 31.9804 6.80928C32.5118 6.59316 33.0585 6.42602 33.6407 6.41191C33.6736 6.4111 33.7067 6.42073 33.7698 6.42982V6.42955Z" fill="#FEFEFE"/>
<path d="M69.9203 13.5797C69.9645 13.3868 70.0027 13.1922 70.0542 13.0011C70.1941 12.4808 70.3351 11.9606 70.4846 11.4429C70.5682 11.1537 70.6726 10.8704 70.7619 10.5828C70.8809 10.1996 70.9942 9.81453 71.1135 9.41852H72.1573C72.2976 9.76271 72.3947 10.1218 72.4848 10.4895C72.6365 11.1081 72.8664 11.7076 73.0397 12.3216C73.1488 12.7086 73.214 13.1074 73.3018 13.5003C73.3086 13.5308 73.3374 13.5566 73.3558 13.5846C73.3549 13.6776 73.3245 13.7806 73.4695 13.8745C73.478 13.7529 73.4837 13.6694 73.4896 13.5858C73.5383 13.304 73.5685 13.0175 73.6391 12.7411C73.8787 11.8046 74.1339 10.8719 74.3801 9.93704C74.4196 9.78645 74.4436 9.63192 74.4825 9.44104C74.8986 9.36548 75.3322 9.42246 75.8142 9.40509C75.2058 11.3252 74.6128 13.196 74.0134 15.0876C73.6573 15.0955 73.3176 15.0998 72.9782 15.1118C72.8101 15.1176 72.7744 15.0058 72.7371 14.8814C72.5565 14.2777 72.3672 13.6764 72.1922 13.0711C71.993 12.3816 71.8057 11.6889 71.5964 10.9369C71.5375 11.1439 71.4903 11.3013 71.448 11.46C71.3035 12.0019 71.1726 12.5478 71.0139 13.0856C70.8438 13.6627 70.6495 14.2329 70.4629 14.8052C70.3679 15.0966 70.3651 15.0967 70.0636 15.0998C69.8243 15.1023 69.5846 15.0949 69.3457 15.1047C69.1593 15.1123 69.089 15.0085 69.0446 14.8544C68.7172 13.7198 68.3902 12.5852 68.0577 11.4522C67.8621 10.7852 67.6566 10.1211 67.4463 9.4253H68.8006C68.9363 9.97815 69.0751 10.53 69.2067 11.0836C69.3796 11.8114 69.5476 12.5405 69.716 13.2694C69.7456 13.3975 69.7663 13.5275 69.7911 13.6565C69.8073 13.7166 69.8236 13.7768 69.8398 13.8369C69.8628 13.8331 69.8858 13.8293 69.9089 13.8255C69.9128 13.7436 69.9165 13.6616 69.9203 13.5797Z" fill="#FCFBFC"/>
<path d="M105.511 9.92867V6.81812H106.803V15.0818H105.711C105.691 14.8036 105.671 14.5377 105.65 14.2421C105.606 14.27 105.562 14.2826 105.545 14.3108C104.994 15.1838 104.158 15.3576 103.225 15.1733C102.443 15.0186 101.952 14.4686 101.631 13.7775C101.227 12.9099 101.272 12.0091 101.531 11.1189C101.762 10.3233 102.265 9.72952 103.06 9.42969C103.766 9.16352 104.869 9.24275 105.4 9.9299C105.431 9.9649 105.463 10 105.494 10.035C105.499 9.99963 105.505 9.96408 105.511 9.92867ZM105.516 12.1948C105.524 12.194 105.533 12.1932 105.542 12.1923C105.512 11.9026 105.513 11.6059 105.448 11.3245C105.302 10.7052 104.727 10.2366 103.969 10.3285C103.529 10.3819 103.223 10.6253 102.997 10.985C102.715 11.4363 102.63 11.9321 102.648 12.4565C102.665 12.9299 102.822 13.3492 103.121 13.7098C103.689 14.3958 104.739 14.3479 105.22 13.6113C105.404 13.33 105.517 13.0125 105.516 12.6674C105.516 12.5099 105.516 12.3524 105.516 12.1948Z" fill="#FEFEFE"/>
<path d="M134.977 15.0081C134.972 14.9186 134.962 14.8292 134.962 14.7398C134.96 12.1786 134.959 9.61735 134.959 7.0561C134.959 7.00034 134.968 6.94458 134.972 6.88882C134.992 6.86644 135.012 6.84392 135.032 6.82153C135.426 6.82153 135.821 6.82153 136.252 6.82153V10.1398C136.251 10.1715 136.249 10.2034 136.248 10.2352C136.276 10.2027 136.305 10.1703 136.333 10.1379C136.722 9.48372 137.6 9.11158 138.509 9.39336C139.353 9.65493 139.795 10.2239 139.897 11.1066C140.021 12.1721 139.922 13.2395 139.955 14.3054C139.963 14.5513 139.956 14.7976 139.956 15.0771C139.522 15.1196 139.11 15.0938 138.662 15.0945C138.662 14.9545 138.662 14.8451 138.662 14.7356C138.661 13.8573 138.652 12.979 138.663 12.1009C138.668 11.7394 138.61 11.3909 138.516 11.0479C138.389 10.5821 137.945 10.3216 137.405 10.3654C136.788 10.4153 136.319 10.9043 136.269 11.5209C136.255 11.6888 136.259 11.8584 136.259 12.0273C136.257 12.9282 136.256 13.8288 136.253 14.7297C136.253 14.8396 136.244 14.9496 136.238 15.0747H135.032C135.014 15.0524 134.995 15.0302 134.977 15.0079L134.977 15.0081Z" fill="#FEFEFF"/>
<path d="M90.6483 9.29429C91.6661 9.28683 92.557 9.70047 93.0818 10.6759C93.4535 11.3669 93.5428 12.13 93.3688 12.9144C93.2836 13.2985 93.1908 13.6716 92.9585 13.9984C92.2126 15.048 91.169 15.365 89.9334 15.1859C89.2156 15.0818 88.7028 14.6463 88.2989 14.0896C87.9832 13.6543 87.7874 13.1661 87.7962 12.6093C87.8036 12.1338 87.7717 11.6577 87.9356 11.1978C88.2798 10.2319 88.942 9.59805 89.949 9.34028C90.1437 9.29049 90.357 9.31111 90.6483 9.29429ZM90.6082 14.2735C91.0043 14.2966 91.3317 14.1164 91.5863 13.7975C91.8363 13.4843 91.9593 13.1172 92.0432 12.7307C92.1594 12.195 92.0568 11.6813 91.867 11.1893C91.6652 10.666 91.3096 10.2806 90.6934 10.2491C90.0737 10.2175 89.6605 10.523 89.394 11.0577C89.2299 11.3867 89.1623 11.738 89.1215 12.0972C89.0537 12.6916 89.1963 13.2346 89.5451 13.7219C89.7966 14.0733 90.1303 14.2834 90.6082 14.2735Z" fill="#FCFCFC"/>
<path d="M114.919 9.3006C116.382 9.25488 117.439 10.2406 117.672 11.3486C117.845 12.1656 117.804 12.9709 117.442 13.7282C117.026 14.5981 116.275 15.0596 115.336 15.2002C114.972 15.2547 114.579 15.2402 114.217 15.1676C113.152 14.954 112.35 14.0691 112.172 12.975C112.071 12.3562 112.066 11.7262 112.286 11.1444C112.668 10.1358 113.481 9.29613 114.919 9.30074L114.919 9.3006ZM113.462 12.1454C113.428 12.7297 113.558 13.2408 113.861 13.7108C114.334 14.4439 115.446 14.4784 115.947 13.7589C116.292 13.2638 116.46 12.7145 116.405 12.1196C116.375 11.7947 116.302 11.4631 116.184 11.1592C115.995 10.6731 115.659 10.3123 115.094 10.2531C114.525 10.1936 114.095 10.4257 113.809 10.9077C113.578 11.2971 113.416 11.7102 113.462 12.1454Z" fill="#FCFCFC"/>
<path d="M60.6239 12.2582C60.557 11.2325 60.9364 10.4666 61.6612 9.86752C62.3386 9.30762 63.1465 9.22893 63.9834 9.34127C64.2315 9.37451 64.4879 9.44003 64.7099 9.55074C65.2504 9.82044 65.6933 10.2135 65.9398 10.7701C66.1621 11.2722 66.2514 11.8071 66.2244 12.3601C66.1876 13.1169 66.0157 13.8196 65.4554 14.3802C64.9314 14.9041 64.3017 15.1961 63.5537 15.2318C62.222 15.2954 61.3948 14.7345 60.7969 13.576C60.6734 13.3365 60.6647 13.0342 60.6285 12.7576C60.6039 12.5692 60.6239 12.3752 60.6239 12.2581V12.2582ZM64.8739 12.1509C64.9207 11.7876 64.7615 11.401 64.5908 11.0284C64.3738 10.5548 63.9994 10.2607 63.4497 10.2455C62.9192 10.2308 62.5328 10.4792 62.2734 10.9223C62.1524 11.1289 62.0427 11.3376 61.986 11.5818C61.9189 11.8708 61.9441 12.1549 61.9311 12.441C61.9119 12.8596 62.0564 13.2278 62.2553 13.5933C62.7615 14.5237 64.0108 14.4913 64.5131 13.63C64.7696 13.1901 64.8866 12.7203 64.8739 12.1509Z" fill="#FCFCFC"/>
<path d="M146.809 12.559H143.127C142.998 12.7294 143.074 12.8647 143.115 13.0145C143.247 13.4886 143.524 13.8398 143.968 14.0557C144.093 14.1161 144.231 14.1614 144.368 14.1824C145.006 14.2805 145.63 14.2057 146.24 14.0044C146.272 13.9938 146.306 13.9906 146.339 13.9841C146.477 14.3172 146.539 14.6183 146.524 14.8873C146.143 15.0744 145.718 15.1344 145.3 15.1865C144.722 15.2585 144.133 15.2532 143.575 15.0684C143.165 14.933 142.806 14.691 142.511 14.37C142.078 13.8997 141.826 13.3536 141.814 12.7119C141.807 12.3634 141.763 12.0059 141.823 11.6678C142.006 10.6468 142.753 9.4353 144.146 9.30683C144.829 9.24388 145.463 9.32989 146.009 9.78424C146.329 10.0508 146.531 10.3732 146.692 10.7628C146.918 11.308 146.944 11.8479 146.881 12.411C146.877 12.444 146.864 12.4763 146.854 12.5081C146.851 12.5176 146.84 12.5246 146.809 12.5593L146.809 12.559ZM143.052 11.633H145.649C145.649 11.5341 145.658 11.4337 145.646 11.336C145.635 11.25 145.597 11.1678 145.576 11.0826C145.467 10.6247 145.183 10.3255 144.72 10.2258C144.241 10.1226 143.824 10.2526 143.499 10.6301C143.256 10.9118 143.097 11.2306 143.052 11.633Z" fill="#FDFDFD"/>
<path d="M98.3189 14.5129C98.0135 14.8196 97.678 15.0841 97.2391 15.1703C96.7698 15.2626 96.2991 15.3037 95.8478 15.0827C95.1604 14.7461 94.8367 14.1653 94.8728 13.4106C94.9177 12.473 95.617 11.9243 96.3152 11.6896C96.8211 11.5196 97.3423 11.4359 97.8764 11.4274C97.9765 11.4258 98.0764 11.4178 98.1727 11.4131C98.2602 10.6986 97.9078 10.2646 97.209 10.2253C96.7253 10.198 96.2611 10.2916 95.8241 10.5045C95.7254 10.5525 95.6239 10.5949 95.5267 10.6384C95.4335 10.3349 95.35 10.063 95.2651 9.78656C95.9725 9.38377 96.7414 9.25624 97.5421 9.31756C97.9469 9.34863 98.3441 9.43939 98.6883 9.68237C99.1278 9.99277 99.3538 10.4053 99.4464 10.9371C99.5577 11.5765 99.5021 12.2132 99.5221 12.851C99.5429 13.5152 99.558 14.1797 99.576 14.8441C99.5781 14.9202 99.5828 14.9963 99.5867 15.0832H98.4238C98.4109 14.8921 98.3992 14.7164 98.3872 14.5407C98.3864 14.5232 98.3856 14.5059 98.3848 14.4884C98.3629 14.4966 98.3411 14.5048 98.3192 14.513L98.3189 14.5129ZM98.2017 12.3051C97.9969 12.3047 97.7846 12.2701 97.5888 12.3116C97.2725 12.3786 96.9536 12.4665 96.66 12.5981C96.1204 12.8399 95.9546 13.8258 96.593 14.1968C96.767 14.298 96.9424 14.2711 97.1155 14.2674C97.6501 14.2555 98.1052 13.8926 98.1986 13.3705C98.2569 13.0438 98.2417 12.7042 98.2594 12.3705C98.2402 12.3486 98.221 12.3269 98.2019 12.3051H98.2017Z" fill="#FDFDFD"/>
<path d="M120.921 15.0811H119.621V9.41757C119.955 9.39749 120.311 9.41472 120.689 9.41323C120.72 9.69324 120.748 9.94585 120.782 10.2563C120.876 10.1432 120.936 10.0703 120.997 9.99808C121.463 9.44402 122.291 9.14081 123.054 9.37117C124.092 9.68456 124.577 10.2786 124.609 11.3554C124.645 12.5595 124.618 13.7654 124.617 14.9704C124.617 15.0013 124.599 15.0323 124.584 15.0808H123.329C123.329 14.9503 123.329 14.83 123.329 14.7096C123.328 13.8085 123.339 12.9073 123.319 12.0066C123.312 11.6782 123.26 11.3436 123.176 11.0255C123.062 10.5919 122.622 10.3382 122.112 10.369C121.49 10.4064 121.005 10.9121 120.938 11.5676C120.924 11.7129 120.927 11.8601 120.926 12.0065C120.924 12.9076 120.922 13.8085 120.921 14.7096C120.92 14.8203 120.921 14.931 120.921 15.0814V15.0811Z" fill="#FEFEFE"/>
<path d="M78.629 10.2157C79.1509 9.45476 79.8589 9.20269 80.8192 9.38517C81.5788 9.52938 82.0462 9.96853 82.2724 10.6748C82.343 10.8954 82.3903 11.1331 82.3925 11.3636C82.4041 12.591 82.398 13.8186 82.398 15.0937C81.986 15.102 81.583 15.1023 81.1523 15.0931C81.1455 14.9834 81.1341 14.8868 81.1341 14.7901C81.1347 13.9786 81.1429 13.1669 81.1366 12.3553C81.1341 12.0411 81.1029 11.7268 81.0789 11.413C81.073 11.3354 81.0431 11.2598 81.0258 11.183C80.8196 10.2637 79.6783 10.1655 79.1583 10.6827C78.8369 11.0023 78.6909 11.3819 78.6917 11.827C78.6936 12.7965 78.692 13.7658 78.6917 14.7353C78.6917 14.8459 78.6917 14.9563 78.6917 15.0813H77.4141V9.43713H78.4777C78.5006 9.69516 78.524 9.95822 78.5473 10.2213C78.5569 10.2367 78.5665 10.2522 78.576 10.2678C78.5936 10.2504 78.6112 10.2331 78.6287 10.2159L78.629 10.2157Z" fill="#FEFEFF"/>
<path d="M133.115 15.0749C132.557 15.2611 131.991 15.3045 131.462 15.122C131.004 14.9638 130.705 14.5841 130.59 14.0922C130.521 13.7968 130.525 13.4983 130.525 13.1993C130.524 12.3767 130.525 11.554 130.526 10.7312C130.526 10.6312 130.526 10.5313 130.526 10.3958C130.253 10.3832 129.997 10.3712 129.718 10.3582V9.41479H130.514V8.37477C130.937 8.24778 131.35 8.12378 131.8 7.98853V9.41533H133.182V10.3707H131.803C131.803 10.5604 131.803 10.7039 131.803 10.8474C131.803 11.5688 131.797 12.2901 131.807 13.0113C131.81 13.2231 131.833 13.4399 131.887 13.6443C131.976 13.9862 132.168 14.1265 132.524 14.1489C132.648 14.1567 132.774 14.1504 132.899 14.1411C133.043 14.1306 133.115 14.1878 133.115 14.3311C133.115 14.5669 133.115 14.8025 133.115 15.0749Z" fill="#FEFEFF"/>
<path d="M85.9128 15.0849H84.6602V6.84131H85.9128V15.0849Z" fill="white"/>
<path d="M73.4896 13.5859C73.4838 13.6695 73.4779 13.7531 73.4695 13.8746C73.3245 13.7808 73.3549 13.6778 73.3558 13.5847C73.4005 13.5851 73.4449 13.5855 73.4894 13.5859H73.4896Z" fill="#7A7A78"/>
<path d="M69.9203 13.5797C69.9164 13.6617 69.9127 13.7436 69.9089 13.8256C69.8859 13.8294 69.8629 13.8331 69.8398 13.8369C69.8235 13.7768 69.8072 13.7166 69.791 13.6565C69.8341 13.6309 69.8771 13.6054 69.9203 13.5797Z" fill="#888887"/>
<path d="M132.699 27.3153C132.68 27.3689 132.661 27.4224 132.642 27.476C132.619 27.475 132.595 27.4737 132.572 27.4726V27.1816C132.615 27.2263 132.657 27.2708 132.699 27.3153Z" fill="#5E5D5C"/>
<path d="M136.333 10.1377C136.305 10.1701 136.276 10.2025 136.248 10.235C136.249 10.2032 136.251 10.1713 136.252 10.1396C136.279 10.1389 136.306 10.1384 136.333 10.1377Z" fill="#D1D0D0"/>
<path d="M105.511 9.92871C105.506 9.96412 105.5 9.99967 105.494 10.0351C105.463 10.0001 105.432 9.96493 105.4 9.92993C105.437 9.92953 105.474 9.92912 105.511 9.92871Z" fill="#525251"/>
<path d="M52.5475 15.0176C52.5594 15.0281 52.5594 15.0387 52.5475 15.0492C52.5288 15.0462 52.5099 15.0431 52.4912 15.0401C52.5099 15.0326 52.5288 15.0251 52.5475 15.0176Z" fill="#DCDCDB"/>
<path d="M98.3193 14.513C98.3412 14.5047 98.363 14.4966 98.3849 14.4883C98.3857 14.5058 98.3866 14.5231 98.3874 14.5406C98.3647 14.5314 98.3421 14.5221 98.3193 14.513Z" fill="#5E5D5C"/>
<path d="M140.177 31.7834C140.196 31.7632 140.216 31.743 140.235 31.7227C140.216 31.7429 140.196 31.7631 140.177 31.7834Z" fill="#343332"/>
<path d="M78.6293 10.2157C78.6118 10.2331 78.5941 10.2504 78.5766 10.2677C78.567 10.2522 78.5574 10.2367 78.5479 10.2211C78.575 10.2192 78.6022 10.2175 78.6295 10.2156L78.6293 10.2157Z" fill="#BCBBBB"/>
<path d="M135.032 6.82153C135.013 6.84392 134.993 6.86644 134.973 6.88882C134.993 6.86644 135.012 6.84392 135.032 6.82153Z" fill="#FCFBFC"/>
</g>
<defs>
<clipPath id="clip0_2267_31027">
<rect width="162" height="46" fill="white" transform="translate(0.5)"/>
</clipPath>
</defs>
</svg>
