<svg width="155" height="47" viewBox="0 0 155 47" fill="none" xmlns="http://www.w3.org/2000/svg">
<rect y="0.26416" width="154.613" height="45.8113" rx="8.58962" fill="black"/>
<path d="M78.0362 25.1753C75.3425 25.1753 73.1469 27.2242 73.1469 30.0461C73.1469 32.8509 75.3425 34.917 78.0362 34.917C80.731 34.917 82.9265 32.8509 82.9265 30.0461C82.9254 27.2242 80.7299 25.1753 78.0362 25.1753ZM78.0362 32.9998C76.5599 32.9998 75.2875 31.7824 75.2875 30.0473C75.2875 28.2939 76.561 27.0947 78.0362 27.0947C79.5124 27.0947 80.7848 28.2939 80.7848 30.0473C80.7848 31.7812 79.5124 32.9998 78.0362 32.9998ZM67.369 25.1753C64.6753 25.1753 62.4798 27.2242 62.4798 30.0461C62.4798 32.8509 64.6753 34.917 67.369 34.917C70.0638 34.917 72.2594 32.8509 72.2594 30.0461C72.2594 27.2242 70.0638 25.1753 67.369 25.1753ZM67.369 32.9998C65.8927 32.9998 64.6203 31.7824 64.6203 30.0473C64.6203 28.2939 65.8939 27.0947 67.369 27.0947C68.8453 27.0947 70.1177 28.2939 70.1177 30.0473C70.1188 31.7812 68.8453 32.9998 67.369 32.9998ZM54.6815 26.671V28.7371H59.6269C59.4791 29.8995 59.092 30.7482 58.5011 31.338C57.7818 32.0573 56.656 32.8509 54.6815 32.8509C51.6374 32.8509 49.2575 30.3966 49.2575 27.3524C49.2575 24.3083 51.6374 21.8539 54.6815 21.8539C56.3239 21.8539 57.523 22.4999 58.4083 23.3302L59.8662 21.8723C58.6293 20.6915 56.9881 19.7878 54.6815 19.7878C50.5116 19.7878 47.0059 23.1825 47.0059 27.3524C47.0059 31.5224 50.5116 34.917 54.6815 34.917C56.932 34.917 58.6305 34.1783 59.9579 32.7948C61.323 31.4296 61.7479 29.5101 61.7479 27.9606C61.7479 27.4819 61.7113 27.0386 61.6369 26.6698H54.6815V26.671ZM106.572 28.2755C106.167 27.1875 104.93 25.1753 102.402 25.1753C99.8927 25.1753 97.8072 27.1497 97.8072 30.0461C97.8072 32.7765 99.8744 34.917 102.641 34.917C104.874 34.917 106.165 33.5519 106.701 32.7582L105.041 31.6507C104.488 32.4627 103.731 32.9975 102.641 32.9975C101.553 32.9975 100.778 32.4993 100.28 31.5213L106.793 28.8276L106.572 28.2755ZM99.9294 29.8995C99.8744 28.0167 101.387 27.0581 102.476 27.0581C103.325 27.0581 104.044 27.483 104.285 28.0911L99.9294 29.8995ZM94.6347 34.6227H96.7741V20.3055H94.6347V34.6227ZM91.1279 26.2644H91.0546C90.5747 25.6918 89.6516 25.1753 88.4903 25.1753C86.0543 25.1753 83.8221 27.3158 83.8221 30.0656C83.8221 32.796 86.0543 34.9182 88.4903 34.9182C89.6528 34.9182 90.5747 34.4017 91.0546 33.8118H91.1279V34.5127C91.1279 36.3761 90.1315 37.3725 88.5269 37.3725C87.2167 37.3725 86.4047 36.4322 86.0726 35.6386L84.2092 36.4139C84.7441 37.7046 86.1642 39.292 88.5269 39.292C91.0363 39.292 93.1585 37.8157 93.1585 34.2173V25.4719H91.129V26.2644H91.1279ZM88.6747 32.9998C87.1984 32.9998 85.9627 31.7629 85.9627 30.0656C85.9627 28.3488 87.1984 27.0947 88.6747 27.0947C90.1315 27.0947 91.2756 28.3488 91.2756 30.0656C91.2756 31.7629 90.1315 32.9998 88.6747 32.9998ZM116.598 20.3055H111.477V34.6227H113.613V29.1986H116.597C118.965 29.1986 121.295 27.4841 121.295 24.7526C121.295 22.0211 118.966 20.3055 116.598 20.3055ZM116.653 27.2058H113.613V22.2983H116.653C118.25 22.2983 119.158 23.6211 119.158 24.7526C119.158 25.8613 118.25 27.2058 116.653 27.2058ZM129.86 25.1501C128.313 25.1501 126.711 25.8315 126.048 27.3421L127.944 28.1335C128.35 27.3421 129.105 27.0833 129.897 27.0833C131.002 27.0833 132.126 27.7464 132.144 28.9249V29.0726C131.757 28.8516 130.928 28.5206 129.915 28.5206C127.871 28.5206 125.789 29.6441 125.789 31.7435C125.789 33.6595 127.465 34.893 129.344 34.893C130.78 34.893 131.572 34.2482 132.069 33.4923H132.143V34.5975H134.207V29.1082C134.208 26.5679 132.309 25.1501 129.86 25.1501ZM129.601 32.9964C128.903 32.9964 127.926 32.6459 127.926 31.7801C127.926 30.6749 129.142 30.2511 130.192 30.2511C131.13 30.2511 131.574 30.4539 132.144 30.7299C131.978 32.0573 130.836 32.9964 129.601 32.9964ZM141.722 25.4627L139.272 31.6702H139.199L136.656 25.4627H134.354L138.167 34.1382L135.993 38.9645H138.222L144.098 25.4627H141.722ZM122.474 34.6227H124.61V20.3055H122.474V34.6227Z" fill="white"/>
<path d="M54.3067 11.9952C54.3067 12.9549 54.0226 13.7188 53.4534 14.2892C52.8075 14.9672 51.9646 15.3062 50.9292 15.3062C49.9374 15.3062 49.0933 14.9626 48.4004 14.2754C47.7064 13.5871 47.3594 12.735 47.3594 11.718C47.3594 10.6999 47.7064 9.84777 48.4004 9.1606C49.0933 8.47229 49.9374 8.1287 50.9292 8.1287C51.4217 8.1287 51.8924 8.22491 52.3391 8.41617C52.7869 8.60858 53.1453 8.86397 53.4133 9.18351L52.8098 9.78822C52.3551 9.24421 51.7286 8.97278 50.9281 8.97278C50.2043 8.97278 49.5789 9.22703 49.051 9.73553C48.523 10.244 48.2596 10.9049 48.2596 11.7169C48.2596 12.5289 48.523 13.1897 49.051 13.6982C49.5789 14.2067 50.2043 14.461 50.9281 14.461C51.6954 14.461 52.3356 14.2056 52.8476 13.6936C53.1797 13.3604 53.3721 12.8965 53.4236 12.3021H50.9281V11.4764H54.2574C54.2918 11.6562 54.3067 11.8291 54.3067 11.9952Z" fill="white"/>
<path d="M59.5865 9.12516H56.4576V11.3035H59.2796V12.1292H56.4576V14.3076H59.5865V15.1528H55.5746V8.28109H59.5865V9.12516Z" fill="white"/>
<path d="M63.3097 15.1528H62.4267V9.12516H60.5072V8.28109H65.2292V9.12516H63.3097V15.1528Z" fill="white"/>
<path d="M68.6455 15.1528V8.28109H69.5285V15.1528H68.6455Z" fill="white"/>
<path d="M73.4445 15.1528H72.5614V9.12516H70.6419V8.28109H75.364V9.12516H73.4445V15.1528Z" fill="white"/>
<path d="M84.3026 14.2652C83.6269 14.9592 82.7874 15.3062 81.783 15.3062C80.7786 15.3062 79.9391 14.9592 79.2645 14.2652C78.5888 13.5711 78.2521 12.7213 78.2521 11.7169C78.2521 10.7125 78.5888 9.86271 79.2645 9.16867C79.9391 8.47463 80.7786 8.12646 81.783 8.12646C82.7817 8.12646 83.62 8.47578 84.298 9.17325C84.9761 9.87073 85.3151 10.7182 85.3151 11.7169C85.3151 12.7213 84.9772 13.5711 84.3026 14.2652ZM79.9162 13.6891C80.4247 14.2045 81.0466 14.461 81.783 14.461C82.5194 14.461 83.1425 14.2033 83.6498 13.6891C84.1583 13.1737 84.4137 12.5163 84.4137 11.7169C84.4137 10.9175 84.1583 10.2601 83.6498 9.74475C83.1425 9.22937 82.5194 8.97283 81.783 8.97283C81.0466 8.97283 80.4247 9.23052 79.9162 9.74475C79.4088 10.2601 79.1534 10.9175 79.1534 11.7169C79.1534 12.5163 79.4088 13.1737 79.9162 13.6891Z" fill="white"/>
<path d="M86.5543 15.1528V8.28109H87.6286L90.9682 13.6261H91.006L90.9682 12.3022V8.28109H91.8512V15.1528H90.9293L87.435 9.54777H87.3972L87.435 10.8717V15.1528H86.5543Z" fill="white"/>
<path d="M54.3067 11.9952C54.3067 12.9549 54.0226 13.7188 53.4534 14.2892C52.8075 14.9672 51.9646 15.3062 50.9292 15.3062C49.9374 15.3062 49.0933 14.9626 48.4004 14.2754C47.7064 13.5871 47.3594 12.735 47.3594 11.718C47.3594 10.6999 47.7064 9.84777 48.4004 9.1606C49.0933 8.47229 49.9374 8.1287 50.9292 8.1287C51.4217 8.1287 51.8924 8.22491 52.3391 8.41617C52.7869 8.60858 53.1453 8.86397 53.4133 9.18351L52.8098 9.78822C52.3551 9.24421 51.7286 8.97278 50.9281 8.97278C50.2043 8.97278 49.5789 9.22703 49.051 9.73553C48.523 10.244 48.2596 10.9049 48.2596 11.7169C48.2596 12.5289 48.523 13.1897 49.051 13.6982C49.5789 14.2067 50.2043 14.461 50.9281 14.461C51.6954 14.461 52.3356 14.2056 52.8476 13.6936C53.1797 13.3604 53.3721 12.8965 53.4236 12.3021H50.9281V11.4764H54.2574C54.2918 11.6562 54.3067 11.8291 54.3067 11.9952Z" stroke="white" stroke-width="0.229057" stroke-miterlimit="10"/>
<path d="M59.5865 9.12516H56.4576V11.3035H59.2796V12.1292H56.4576V14.3076H59.5865V15.1528H55.5746V8.28109H59.5865V9.12516Z" stroke="white" stroke-width="0.229057" stroke-miterlimit="10"/>
<path d="M63.3097 15.1528H62.4267V9.12516H60.5072V8.28109H65.2292V9.12516H63.3097V15.1528Z" stroke="white" stroke-width="0.229057" stroke-miterlimit="10"/>
<path d="M68.6455 15.1528V8.28109H69.5285V15.1528H68.6455Z" stroke="white" stroke-width="0.229057" stroke-miterlimit="10"/>
<path d="M73.4445 15.1528H72.5614V9.12516H70.6419V8.28109H75.364V9.12516H73.4445V15.1528Z" stroke="white" stroke-width="0.229057" stroke-miterlimit="10"/>
<path d="M84.3026 14.2652C83.6269 14.9592 82.7874 15.3062 81.783 15.3062C80.7786 15.3062 79.9391 14.9592 79.2645 14.2652C78.5888 13.5711 78.2521 12.7213 78.2521 11.7169C78.2521 10.7125 78.5888 9.86271 79.2645 9.16867C79.9391 8.47463 80.7786 8.12646 81.783 8.12646C82.7817 8.12646 83.62 8.47578 84.298 9.17325C84.9761 9.87073 85.3151 10.7182 85.3151 11.7169C85.3151 12.7213 84.9772 13.5711 84.3026 14.2652ZM79.9162 13.6891C80.4247 14.2045 81.0466 14.461 81.783 14.461C82.5194 14.461 83.1425 14.2033 83.6498 13.6891C84.1583 13.1737 84.4137 12.5163 84.4137 11.7169C84.4137 10.9175 84.1583 10.2601 83.6498 9.74475C83.1425 9.22937 82.5194 8.97283 81.783 8.97283C81.0466 8.97283 80.4247 9.23052 79.9162 9.74475C79.4088 10.2601 79.1534 10.9175 79.1534 11.7169C79.1534 12.5163 79.4088 13.1737 79.9162 13.6891Z" stroke="white" stroke-width="0.229057" stroke-miterlimit="10"/>
<path d="M86.5543 15.1528V8.28109H87.6286L90.9682 13.6261H91.006L90.9682 12.3022V8.28109H91.8512V15.1528H90.9293L87.435 9.54777H87.3972L87.435 10.8717V15.1528H86.5543Z" stroke="white" stroke-width="0.229057" stroke-miterlimit="10"/>
<g filter="url(#filter0_ii_2038_28693)">
<path d="M11.9521 8.89708C11.6189 9.24983 11.4219 9.79728 11.4219 10.5062V35.8353C11.4219 36.5454 11.6189 37.0917 11.9521 37.4444L12.0369 37.5269L26.2258 23.338V23.1707V23.0035L12.0369 8.81348L11.9521 8.89708Z" fill="url(#paint0_linear_2038_28693)"/>
<path d="M30.9535 28.0693L26.2246 23.3381V23.1709V23.0037L30.9546 18.2737L31.0611 18.3344L36.665 21.5183C38.265 22.4276 38.265 23.9153 36.665 24.8258L31.0611 28.0097L30.9535 28.0693Z" fill="url(#paint1_linear_2038_28693)"/>
<g filter="url(#filter1_i_2038_28693)">
<path d="M31.0614 28.0086L26.2237 23.1709L11.9512 37.4446C12.478 38.0035 13.3496 38.0722 14.3311 37.5156L31.0614 28.0086Z" fill="url(#paint2_linear_2038_28693)"/>
</g>
<path d="M31.0614 18.3331L14.3311 8.82728C13.3496 8.26953 12.478 8.33939 11.9512 8.89829L26.2248 23.172L31.0614 18.3331Z" fill="url(#paint3_linear_2038_28693)"/>
</g>
<defs>
<filter id="filter0_ii_2038_28693" x="11.4219" y="8.44238" width="26.4434" height="29.4575" filterUnits="userSpaceOnUse" color-interpolation-filters="sRGB">
<feFlood flood-opacity="0" result="BackgroundImageFix"/>
<feBlend mode="normal" in="SourceGraphic" in2="BackgroundImageFix" result="shape"/>
<feColorMatrix in="SourceAlpha" type="matrix" values="0 0 0 0 0 0 0 0 0 0 0 0 0 0 0 0 0 0 127 0" result="hardAlpha"/>
<feOffset dy="-0.171792"/>
<feComposite in2="hardAlpha" operator="arithmetic" k2="-1" k3="1"/>
<feColorMatrix type="matrix" values="0 0 0 0 0 0 0 0 0 0 0 0 0 0 0 0 0 0 0.12 0"/>
<feBlend mode="normal" in2="shape" result="effect1_innerShadow_2038_28693"/>
<feColorMatrix in="SourceAlpha" type="matrix" values="0 0 0 0 0 0 0 0 0 0 0 0 0 0 0 0 0 0 127 0" result="hardAlpha"/>
<feOffset dy="0.171792"/>
<feComposite in2="hardAlpha" operator="arithmetic" k2="-1" k3="1"/>
<feColorMatrix type="matrix" values="0 0 0 0 1 0 0 0 0 1 0 0 0 0 1 0 0 0 0.25 0"/>
<feBlend mode="normal" in2="effect1_innerShadow_2038_28693" result="effect2_innerShadow_2038_28693"/>
</filter>
<filter id="filter1_i_2038_28693" x="11.9512" y="23.1709" width="19.1094" height="14.729" filterUnits="userSpaceOnUse" color-interpolation-filters="sRGB">
<feFlood flood-opacity="0" result="BackgroundImageFix"/>
<feBlend mode="normal" in="SourceGraphic" in2="BackgroundImageFix" result="shape"/>
<feColorMatrix in="SourceAlpha" type="matrix" values="0 0 0 0 0 0 0 0 0 0 0 0 0 0 0 0 0 0 127 0" result="hardAlpha"/>
<feOffset dy="-0.171792"/>
<feComposite in2="hardAlpha" operator="arithmetic" k2="-1" k3="1"/>
<feColorMatrix type="matrix" values="0 0 0 0 0 0 0 0 0 0 0 0 0 0 0 0 0 0 0.08 0"/>
<feBlend mode="normal" in2="shape" result="effect1_innerShadow_2038_28693"/>
</filter>
<linearGradient id="paint0_linear_2038_28693" x1="24.9681" y1="10.2382" x2="5.74792" y2="29.4583" gradientUnits="userSpaceOnUse">
<stop stop-color="#00A0FF"/>
<stop offset="0.0066" stop-color="#00A1FF"/>
<stop offset="0.2601" stop-color="#00BEFF"/>
<stop offset="0.5122" stop-color="#00D2FF"/>
<stop offset="0.7604" stop-color="#00DFFF"/>
<stop offset="1" stop-color="#00E3FF"/>
</linearGradient>
<linearGradient id="paint1_linear_2038_28693" x1="38.7477" y1="23.1709" x2="11.0366" y2="23.1709" gradientUnits="userSpaceOnUse">
<stop stop-color="#FFE000"/>
<stop offset="0.4087" stop-color="#FFBD00"/>
<stop offset="0.7754" stop-color="#FFA500"/>
<stop offset="1" stop-color="#FF9C00"/>
</linearGradient>
<linearGradient id="paint2_linear_2038_28693" x1="28.4342" y1="25.7981" x2="2.36928" y2="51.863" gradientUnits="userSpaceOnUse">
<stop stop-color="#FF3A44"/>
<stop offset="1" stop-color="#C31162"/>
</linearGradient>
<linearGradient id="paint3_linear_2038_28693" x1="8.35659" y1="0.46649" x2="19.9953" y2="12.1052" gradientUnits="userSpaceOnUse">
<stop stop-color="#32A071"/>
<stop offset="0.0685" stop-color="#2DA771"/>
<stop offset="0.4762" stop-color="#15CF74"/>
<stop offset="0.8009" stop-color="#06E775"/>
<stop offset="1" stop-color="#00F076"/>
</linearGradient>
</defs>
</svg>
