<svg width="1024" height="1024" viewBox="0 0 1024 1024" fill="none" xmlns="http://www.w3.org/2000/svg">
<rect width="1024" height="1024" fill="#5860FF"/>
<path d="M215 638.767C215 556.792 215 515.804 231.819 482.081C239.378 466.923 249.296 453.062 261.203 441.015C287.694 414.213 326.488 400.984 404.077 374.528L556.811 322.448C667.982 284.541 723.567 265.587 765.032 286.764C774.774 291.74 783.72 298.141 791.574 305.756C825 338.168 825 396.896 825 514.352C825 595.68 825 636.344 806.236 668.836C801.687 676.713 796.381 684.128 790.394 690.975C765.697 719.222 727.209 732.345 650.233 758.593L468.879 820.431C370.999 853.807 322.059 870.495 284.323 855.476C235.97 836.231 215 791.5 215 753C215 727 215 679.099 215 638.767Z" fill="url(#paint0_linear_4604_65865)"/>
<path fill-rule="evenodd" clip-rule="evenodd" d="M215 445.421C215 379.765 215 325.936 225.915 297.92C235.555 273.177 251.202 251.223 271.444 234.036C294.365 214.576 325.396 203.862 387.458 182.436L408.851 175.051C480.92 150.169 516.955 137.729 545.884 143.323C577.192 149.377 604.332 168.719 620.271 196.337C635 221.857 635 279.979 635 356.222C635 416.38 635 446.459 625.809 472.392C615.818 500.585 598.123 525.413 574.734 544.057C553.22 561.208 524.788 571.024 467.923 590.655C467.923 590.655 370 624.11 309 645.426C248 666.742 215 709.5 215 753.975V445.421Z" fill="white"/>
<defs>
<linearGradient id="paint0_linear_4604_65865" x1="803.5" y1="661.5" x2="239.915" y2="337.643" gradientUnits="userSpaceOnUse">
<stop stop-color="white"/>
<stop offset="1" stop-color="white" stop-opacity="0.12"/>
</linearGradient>
</defs>
</svg>
