<svg width="467" height="551" viewBox="0 0 467 551" fill="none" xmlns="http://www.w3.org/2000/svg">
<path d="M0 380.312C0 317.553 0 286.174 12.878 260.357C18.6632 248.752 26.2582 238.141 35.3732 228.917C55.6548 208.399 85.3543 198.272 144.753 178.017L261.681 138.147C346.791 109.125 389.344 94.6155 421.09 110.829C428.549 114.637 435.398 119.537 441.409 125.367C467 150.18 467 195.141 467 285.064C467 347.325 467 378.457 452.634 403.33C449.153 409.363 445.089 415.039 440.505 420.279C421.598 441.906 392.135 451.951 333.203 472.046L194.365 519.389C119.431 544.94 81.9634 557.714 53.0717 546.218C16.0563 531.483 0 497.239 0 467.765L0 380.312Z" fill="url(#paint0_linear_4898_68305)"/>
<path fill-rule="evenodd" clip-rule="evenodd" d="M0 232.292C0 182.027 0 140.818 8.35765 119.37C15.7374 100.427 27.7171 83.619 43.2126 70.4593C60.7597 55.5617 84.5172 47.3609 132.03 30.9565L148.407 25.3015C203.581 6.25292 231.168 -3.26869 253.318 1.01245C277.285 5.64702 298.064 20.4543 310.264 41.5995C321.542 61.137 321.542 105.633 321.542 164.004C321.542 210.057 321.542 233.087 314.505 252.94C306.855 274.524 293.31 293.53 275.404 307.803C258.97 320.905 237.267 328.414 193.932 343.373C193.818 343.413 193.762 343.434 193.706 343.453C193.658 343.469 193.61 343.485 193.563 343.501C193.507 343.519 193.456 343.538 193.358 343.573C188.389 345.271 117.02 369.663 71.9661 385.409C25.2643 401.728 0 434.462 0 468.512L0 232.292Z" fill="url(#paint1_linear_4898_68305)"/>
<path fill-rule="evenodd" clip-rule="evenodd" d="M0 468.154C0 468.023 0 467.893 0 467.766V380.312C0 317.554 0 286.175 12.878 260.358C18.6632 248.753 26.2582 238.141 35.3732 228.917C55.6548 208.399 85.3543 198.272 144.753 178.017L261.681 138.147C284.378 130.409 304.046 123.701 321.29 118.333C321.542 132.298 321.542 147.602 321.542 164.004C321.542 210.058 321.542 233.087 314.505 252.941C306.855 274.524 293.31 293.53 275.404 307.804C258.97 320.905 237.267 328.415 193.932 343.373L193.706 343.453L193.563 343.501L193.358 343.573C188.389 345.271 117.02 369.663 71.9661 385.409C25.429 401.67 0.178049 434.234 0 468.154Z" fill="url(#paint2_linear_4898_68305)"/>
<defs>
<linearGradient id="paint0_linear_4898_68305" x1="490.356" y1="424.045" x2="-30.2549" y2="227.309" gradientUnits="userSpaceOnUse">
<stop stop-color="#626AFF"/>
<stop offset="1" stop-color="#4650FF"/>
</linearGradient>
<linearGradient id="paint1_linear_4898_68305" x1="-8.94761" y1="280.708" x2="396.424" y2="101.565" gradientUnits="userSpaceOnUse">
<stop stop-color="#54FFFF"/>
<stop offset="1" stop-color="#68FFFF"/>
</linearGradient>
<linearGradient id="paint2_linear_4898_68305" x1="14.1961" y1="254.487" x2="689.337" y2="433.15" gradientUnits="userSpaceOnUse">
<stop stop-color="#21BEFF"/>
<stop offset="1" stop-color="#68FFFF"/>
</linearGradient>
</defs>
</svg>
