<svg width="1920" height="1920" viewBox="0 0 1920 1920" fill="none" xmlns="http://www.w3.org/2000/svg">
<g clip-path="url(#clip0_1013_3818)">
<rect width="1920" height="1920" fill="url(#paint0_linear_1013_3818)"/>
<g opacity="0.2">
<path d="M1152.34 1421.39C1154.19 1424.6 1157.75 1430.42 1160.2 1434.27C1162.8 1438.13 1168.58 1445.01 1173.25 1449.77C1180.94 1457.4 1182.46 1458.52 1188.66 1460.77C1192.87 1462.35 1197.11 1463 1199.98 1462.53C1202.39 1462.05 1206.22 1460.68 1208.42 1459.5C1211.16 1457.95 1213.39 1455.84 1215.88 1452.27C1217.73 1449.46 1220.42 1444.04 1221.84 1440.28C1223.25 1436.53 1225.13 1429.62 1226.03 1424.85C1227 1420.15 1227.91 1409.35 1228.05 1400.77C1228.28 1392.27 1227.58 1377.55 1226.44 1368.09C1225.37 1358.7 1223.25 1345.04 1221.74 1337.88C1220.38 1330.73 1217.14 1318.27 1214.73 1310.17C1212.31 1302.06 1208.29 1290.35 1205.67 1284.1C1203.05 1277.84 1198.95 1268.92 1196.44 1264.21C1193.94 1259.51 1189.42 1251.89 1186.44 1247.33C1183.31 1242.76 1178.53 1236.6 1175.59 1233.51C1172.66 1230.42 1167.89 1226.19 1164.85 1224.1C1161.74 1221.94 1156.93 1219.72 1153.62 1219.09C1150.39 1218.39 1145.75 1218.43 1143.17 1219.21C1139.9 1220.21 1137.07 1221.99 1133.81 1225.23C1131.03 1228.02 1127.9 1232.35 1126.1 1236.17C1124.39 1239.6 1122.03 1246.81 1120.89 1252.12C1119.67 1257.35 1118.5 1269.31 1118.34 1278.66C1118.25 1287.94 1118.52 1301.25 1119.11 1308.22C1119.62 1315.12 1121.37 1328.08 1123 1336.94C1124.62 1345.8 1128.54 1361.37 1131.76 1371.58C1134.97 1381.8 1140.17 1395.86 1143.31 1402.82C1146.53 1409.71 1150.57 1418.09 1152.34 1421.39Z" fill="#223859"/>
<path d="M1156.14 1429.84C1156.28 1430.46 1158.06 1433.29 1159.92 1436.05C1161.78 1438.8 1166.81 1444.58 1178.48 1456.87L1170.75 1447.62C1166.55 1442.56 1161.39 1436.16 1159.45 1433.48C1157.43 1430.88 1156 1429.22 1156.14 1429.84Z" fill="#203657" fill-opacity="0.4"/>
<path d="M1139.39 1395.99C1138.86 1395.75 1140.22 1399.73 1142.64 1404.97C1145.05 1410.21 1147.71 1415.08 1148.54 1415.95C1149.36 1416.82 1147.84 1412.84 1145.21 1407.05C1142.58 1401.26 1139.93 1396.24 1139.39 1395.99Z" fill="#203657" fill-opacity="0.4"/>
<path d="M1117.89 1280.74C1117.44 1280.26 1117.04 1283.81 1116.92 1288.45C1116.8 1293.08 1117 1297.26 1117.37 1297.66C1117.82 1298.14 1118.3 1294.67 1118.42 1290.03C1118.55 1285.39 1118.35 1281.21 1117.89 1280.74Z" fill="#203657" fill-opacity="0.4"/>
<path d="M1133.38 1223.98C1130.52 1226.69 1127.33 1230.63 1126.26 1232.85C1125.2 1235.06 1124.54 1236.75 1124.78 1236.52C1125.01 1236.45 1126.21 1234.86 1127.26 1233.11C1128.31 1231.35 1130.79 1228.4 1132.62 1226.36C1134.53 1224.4 1137.69 1221.7 1139.81 1220.44C1142.96 1218.35 1143.2 1218.13 1141.02 1218.54C1139.63 1218.81 1136.16 1221.19 1133.38 1223.98Z" fill="#203657" fill-opacity="0.4"/>
<path d="M1173.02 1231.43C1178.15 1236.36 1182.5 1241.42 1185.47 1245.99C1187.92 1249.84 1190.84 1253.86 1191.81 1255.05C1192.86 1256.16 1192.36 1254.52 1190.74 1251.54C1189.12 1248.56 1183.51 1241.22 1178.32 1235.44C1170.96 1227.05 1167.95 1224.19 1164.36 1222.31C1161.61 1220.85 1160.77 1220.75 1162.44 1221.88C1163.88 1222.92 1168.64 1227.3 1173.02 1231.43Z" fill="#203657" fill-opacity="0.4"/>
<path d="M1197.44 1438.72C1196.75 1441.33 1195.39 1445.94 1194.46 1449.08C1193.44 1452.31 1192.98 1455.16 1193.36 1455.55C1193.81 1456.03 1196.28 1456.4 1198.75 1456.47C1201.38 1456.53 1204.41 1455.76 1205.68 1454.56C1206.95 1453.51 1209.17 1451.4 1210.6 1449.89C1212.03 1448.38 1214.64 1443.5 1216.22 1439.13C1217.96 1434.77 1219.86 1427.24 1220.68 1422.39C1221.5 1417.54 1222.18 1406.49 1222.25 1397.83C1222.4 1389.1 1221.87 1376.79 1221.11 1370.42C1220.43 1363.99 1218.58 1352.18 1217.01 1344.18C1215.52 1336.09 1211.94 1322.16 1209.16 1313.19C1206.3 1304.3 1201.61 1291.11 1198.63 1283.99C1195.72 1276.8 1190.96 1266.7 1188.16 1261.52C1184.62 1254.93 1180.29 1248.94 1174.06 1241.74C1168.13 1235.02 1163.53 1230.49 1160.71 1228.79C1158.05 1227.1 1153.98 1225.99 1150.12 1225.73C1146.56 1225.48 1143.23 1225.78 1142.76 1226.24C1142.2 1226.76 1143.49 1230.66 1145.7 1235.05C1147.9 1239.44 1153.27 1250.18 1157.52 1258.95C1161.78 1267.72 1166.54 1277.82 1168.15 1281.27C1169.68 1284.79 1171.49 1289.55 1172.13 1291.81C1172.69 1294.15 1174.79 1299.38 1176.54 1303.45C1178.45 1307.52 1182.32 1319.07 1185.31 1329.05C1188.21 1339.1 1192.05 1354.9 1193.67 1364.07C1195.36 1373.31 1197.33 1386.67 1197.99 1393.88C1198.73 1401.01 1199.12 1413.01 1199 1420.51C1198.8 1427.93 1198.04 1436.18 1197.44 1438.72Z" fill="white"/>
<path d="M1159.25 1420.1C1162.43 1425.82 1165.76 1431.4 1166.58 1432.74C1167.47 1434 1172.13 1439.22 1177.03 1444.22C1181.92 1449.22 1186.3 1453.36 1186.84 1453.45C1187.3 1453.46 1188.87 1449.87 1190.46 1445.35C1192.47 1439.21 1193.27 1432.58 1193.53 1419.67C1193.78 1410.09 1193.6 1402.12 1192.99 1401.95C1192.53 1401.78 1191.9 1398.9 1191.69 1395.34C1191.47 1391.77 1190.86 1385.57 1190.27 1381.61C1189.76 1377.58 1189.47 1373.62 1189.65 1372.7C1189.91 1371.86 1189.62 1370.92 1189.01 1370.75C1188.39 1370.58 1188.26 1369.65 1188.67 1368.81C1189.08 1367.97 1188.95 1367.04 1188.34 1366.87C1187.72 1366.7 1187.42 1366.22 1187.74 1365.92C1188.21 1365.63 1187.28 1359.88 1185.91 1353.04C1184.47 1346.27 1181.26 1333.04 1178.64 1323.61C1176.18 1314.19 1173.91 1306.4 1173.69 1306.16C1173.46 1305.92 1171.44 1300.3 1169.07 1293.51C1166.77 1286.8 1162.93 1276.72 1160.53 1271.17C1158.2 1265.54 1152.4 1253.71 1147.76 1244.85C1143.2 1235.92 1139.21 1228.7 1138.98 1228.61C1138.75 1228.69 1137.23 1230.58 1135.54 1233.09C1133.85 1235.44 1131.81 1239.64 1130.73 1242.32C1129.81 1245 1128.35 1250.46 1127.48 1254.3C1126.68 1258.23 1125.52 1267.17 1124.95 1274.19C1124.45 1281.29 1124.45 1293.05 1125.04 1300.33C1125.54 1307.69 1127.43 1321.28 1129.04 1330.45C1130.73 1339.69 1134.49 1355.72 1137.54 1366.09C1140.6 1376.45 1145.41 1390.58 1148.25 1397.38C1151.01 1404.26 1156 1414.44 1159.25 1420.1Z" fill="#EFEFFF"/>
<ellipse cx="938.213" cy="1469.47" rx="119.015" ry="24.6238" fill="#EFEFFF" fill-opacity="0.36"/>
<path d="M949.4 1182.2L918.421 1256.07H952.577L983.357 1182.2H949.4Z" fill="#297AD7"/>
<path d="M884.862 1223.69L907.5 1256.07L921.003 1223.69H884.862Z" fill="#297AD7"/>
<path d="M949.4 1182.2L918.421 1256.07H952.577L983.357 1182.2H949.4Z" fill="#297AD7"/>
<path d="M884.862 1223.69L907.5 1256.07L921.003 1223.69H884.862Z" fill="#297AD7"/>
<path d="M1022.9 496.835C1022.9 543.604 984.982 581.518 938.213 581.518C891.444 581.518 853.53 543.604 853.53 496.835C853.53 450.066 891.444 412.152 938.213 412.152C984.982 412.152 1022.9 450.066 1022.9 496.835Z" fill="#E4E5FF" stroke="#757DFF" stroke-width="3"/>
<path d="M919.155 476.085C922.126 473.469 926.881 470.734 929.853 469.783C932.825 468.951 937.105 468.118 939.364 468.118C941.622 467.999 946.377 468.832 949.825 469.783C953.867 470.972 957.908 473.35 961.475 476.679C964.565 479.414 968.132 483.814 969.439 486.43C971.46 490.116 972.055 493.326 972.055 500.698C972.055 507.713 971.46 511.28 969.796 514.372C968.607 516.631 966.111 520.436 960.999 526.857L960.167 580.483L969.083 582.504C973.957 583.574 981.208 586.071 985.131 587.855C989.054 589.757 994.166 592.849 996.424 594.87C998.683 596.891 1001.42 600.577 1002.61 603.074C1003.68 605.571 1004.75 608.544 1005.1 609.495C1005.46 610.684 1011.05 612.587 1021.51 615.322C1030.3 617.462 1044.09 621.624 1052.3 624.596C1060.5 627.569 1074.17 633.276 1082.61 637.319C1091.05 641.362 1103.18 647.782 1109.36 651.587C1115.54 655.392 1127.66 663.716 1136.1 670.136C1144.54 676.557 1156.91 686.664 1163.45 692.49C1169.98 698.436 1178.78 707.116 1183.06 711.872C1187.34 716.628 1193.64 724 1197.21 728.281C1200.65 732.561 1206.6 740.409 1210.28 745.641C1213.97 750.872 1220.15 760.266 1224.07 766.449C1227.88 772.632 1234.53 784.998 1238.81 793.797C1243.21 802.596 1248.92 816.507 1251.65 824.712C1254.39 832.916 1257.95 846.233 1259.62 854.438C1261.28 862.642 1263.18 874.889 1263.9 881.786C1264.49 888.682 1265.09 899.978 1265.09 907.112C1265.09 914.128 1264.49 925.067 1263.78 931.369C1263.18 937.79 1261.52 948.372 1260.21 954.912C1258.9 961.452 1255.93 972.628 1253.55 979.882C1251.18 987.135 1245.95 999.62 1241.79 1007.82C1237.51 1016.03 1230.49 1027.8 1226.09 1033.86C1221.7 1040.05 1213.02 1050.39 1206.84 1056.69C1197.68 1066.09 1194 1069.06 1178.9 1075.96L1030.3 1077.03L1037.44 1080.24C1041.36 1082.02 1047.78 1085.59 1051.7 1088.32C1055.63 1090.94 1061.57 1095.69 1064.9 1098.9C1068.23 1102.12 1073.46 1108.18 1076.55 1112.46C1079.76 1116.74 1084.04 1123.76 1086.3 1128.27C1088.55 1132.67 1091.88 1140.88 1093.78 1146.59C1095.81 1152.41 1098.42 1162.4 1099.73 1168.94C1101.04 1175.48 1102.46 1184.87 1102.82 1189.75C1103.29 1194.62 1103.06 1206.63 1102.22 1216.5C1101.27 1229.1 1099.61 1239.21 1096.64 1250.98C1094.38 1260.14 1090.81 1272.15 1088.67 1277.74C1086.41 1283.32 1082.02 1293.19 1078.69 1299.73C1075.48 1306.27 1069.53 1316.38 1065.73 1322.33C1061.81 1328.27 1054.67 1337.78 1049.68 1343.73C1044.81 1349.67 1037.08 1357.76 1032.56 1361.68C1028.05 1365.73 1020.08 1372.03 1014.85 1375.83C1009.62 1379.52 1000.23 1385.23 994.047 1388.32C987.865 1391.41 977.642 1395.57 971.46 1397.59C965.279 1399.61 955.65 1401.63 950.062 1402.23C944.475 1402.82 935.916 1402.82 931.042 1402.35C926.168 1401.87 917.847 1400.33 912.616 1399.02C907.386 1397.59 897.994 1394.26 891.813 1391.53C885.631 1388.79 875.17 1382.97 868.632 1378.69C862.094 1374.29 851.989 1366.32 846.164 1360.85C840.22 1355.38 831.186 1345.39 825.955 1338.85C820.606 1332.19 812.879 1320.9 808.599 1313.88C804.438 1306.75 798.376 1294.98 795.166 1287.84C791.956 1280.71 787.558 1268.58 785.418 1261.09C783.278 1253.6 780.544 1242.07 779.355 1235.53C777.81 1226.96 777.216 1217.45 777.216 1201.64C777.097 1187.96 777.691 1176.31 778.761 1170.72C779.593 1165.85 781.614 1157.76 783.041 1152.89C784.467 1148.01 787.082 1140.76 788.628 1136.84C790.173 1132.91 793.621 1126.49 796.117 1122.57C798.613 1118.64 803.844 1111.51 807.886 1106.63C811.928 1101.76 818.109 1095.58 821.676 1092.84C825.242 1089.99 831.423 1086.18 835.346 1084.16C839.269 1082.14 844.024 1079.88 846.045 1078.93C849.017 1077.74 837.486 1077.38 702.204 1076.08L693.883 1072.15C687.345 1069.06 683.303 1065.97 674.863 1057.41C668.919 1051.34 661.43 1043.02 658.22 1038.74C655.01 1034.46 649.185 1025.9 645.381 1019.71C641.696 1013.53 636.228 1002.83 633.256 995.934C630.403 989.037 626.718 978.574 624.934 972.747C623.27 966.921 620.774 956.22 619.466 948.967C617.921 940.762 616.732 928.158 616.375 915.079C615.9 902.237 616.256 889.039 617.089 880.597C617.921 873.106 619.823 860.74 621.368 853.249C623.032 845.758 626.242 833.748 628.62 826.495C630.997 819.242 635.514 807.827 638.486 800.931C641.577 794.034 647.521 782.62 651.563 775.367C655.724 768.113 662.618 757.174 666.898 750.991C671.059 744.808 678.667 734.582 683.66 728.399C688.534 722.216 699.114 710.683 706.959 702.835C714.805 694.987 727.168 683.81 734.301 677.984C741.434 672.277 753.797 663.24 761.643 658.008C769.489 652.895 782.565 645.167 790.768 641.005C798.97 636.843 811.809 631.017 819.298 628.163C826.787 625.191 839.388 620.91 847.234 618.532C855.08 616.273 865.779 613.538 880.52 610.447L882.065 605.215C882.897 602.123 885.275 598.199 887.89 595.584C890.386 593.205 895.617 589.757 899.54 587.974C903.463 586.309 910.12 583.931 914.399 582.861C918.679 581.791 923.196 580.958 924.504 580.958C926.763 580.958 926.882 580.245 926.168 531.613L919.868 525.668C916.42 522.339 912.26 516.988 910.714 513.777C908.693 509.378 907.98 505.692 907.98 500.104C907.98 494.277 908.693 490.948 910.833 486.548C912.497 483.338 916.183 478.582 919.155 476.085Z" fill="#223859"/>
<path d="M960.169 578.341C960.526 576.796 960.882 564.429 961.001 550.637L961.358 525.667L961.596 552.658C961.952 577.39 962.19 579.768 964.092 580.244C965.162 580.482 964.687 580.719 962.903 580.838C960.05 580.957 959.694 580.6 960.169 578.341Z" fill="#203657" fill-opacity="0.4"/>
<path d="M925.576 579.411L924.744 554.323C924.268 539.579 924.387 529.709 924.982 530.423C925.576 531.017 926.289 542.67 926.765 580.719L920.821 581.433C917.611 581.908 914.639 581.908 914.283 581.671C914.045 581.314 916.423 580.719 925.576 579.411Z" fill="#203657" fill-opacity="0.4"/>
<path d="M879.927 606.522C879.927 605.214 880.997 602.36 882.424 600.101C883.85 597.96 885.158 596.296 885.396 596.534C885.633 596.771 884.682 599.15 883.375 601.765C882.067 604.381 880.997 607.354 881.116 608.305C881.116 609.613 878.263 610.683 871.249 612.229C865.9 613.418 854.963 616.272 847.117 618.531C839.272 620.909 826.789 625.19 819.181 628.162C811.692 631.016 798.853 636.842 790.651 641.004C782.567 645.165 769.372 652.894 761.526 658.007C753.68 663.239 741.436 672.276 734.184 677.983C727.052 683.809 714.689 694.986 706.843 702.834C698.997 710.682 688.536 722.215 683.543 728.398C678.55 734.581 671.061 744.807 666.781 750.99C662.502 757.173 655.607 768.112 651.565 775.365C647.404 782.619 641.579 794.033 638.489 800.93C635.398 807.826 630.999 819.241 628.503 826.494C626.125 833.747 622.916 845.757 621.37 853.248C619.706 860.739 617.804 873.105 617.091 880.596C616.14 889.038 615.902 902.236 616.259 915.078C616.734 928.157 617.923 940.761 619.349 948.965C620.776 956.219 623.154 966.92 624.937 972.746C626.601 978.573 630.405 989.036 633.258 995.933C636.111 1002.83 641.579 1013.53 645.383 1019.71C649.188 1025.9 654.656 1034.22 657.747 1038.14C660.719 1042.07 667.257 1049.68 672.25 1055.03C677.242 1060.5 680.809 1064.9 680.095 1064.9C679.501 1064.9 674.627 1060.26 669.397 1054.43C664.166 1048.73 656.439 1039.21 652.159 1033.39C647.999 1027.56 641.104 1015.67 636.824 1007.23C632.664 998.786 627.314 985.945 625.056 978.691C622.797 971.438 619.825 960.024 618.517 953.127C617.21 946.231 615.427 933.151 614.713 923.996C613.762 911.986 613.762 902.593 614.713 890.108C615.308 880.596 616.972 867.041 618.28 859.787C619.587 852.534 622.44 840.525 624.699 833.034C626.958 825.543 631.594 812.939 634.803 805.091C638.132 797.244 644.67 784.164 649.306 775.96C654.061 767.756 661.313 755.984 665.593 749.801C669.872 743.618 677.361 733.392 682.354 727.209C687.347 721.026 697.808 709.493 705.654 701.645C713.5 693.797 725.863 682.62 732.996 676.913C740.247 671.087 752.016 662.407 759.149 657.65C766.4 652.894 776.861 646.473 782.33 643.382C787.917 640.409 797.308 635.653 803.133 633.037C809.077 630.421 819.776 626.141 826.908 623.525C834.16 620.909 845.691 617.342 852.467 615.439C859.362 613.537 868.396 611.278 872.438 610.445C878.62 609.137 879.927 608.543 879.927 606.522Z" fill="#203657" fill-opacity="0.4"/>
<path d="M1022.46 615.558C1006.65 611.397 1005.22 610.802 1004.99 608.186C1004.75 605.57 1004.75 605.57 1005.7 607.711C1006.41 609.375 1008.79 610.564 1013.78 611.753C1017.59 612.586 1027.1 615.202 1034.94 617.461C1042.79 619.72 1055.15 623.882 1062.28 626.616C1069.54 629.47 1081.07 634.583 1087.84 638.031C1094.74 641.479 1105.2 647.187 1111.02 650.754C1116.97 654.44 1128.74 662.525 1137.18 668.946C1145.74 675.367 1157.98 685.474 1164.52 691.419C1171.06 697.245 1180.92 707.114 1186.39 713.179C1191.86 719.243 1200.66 730.063 1206.13 737.316C1211.59 744.569 1218.37 754.082 1221.22 758.719C1224.19 763.237 1229.19 771.917 1232.52 777.744C1235.84 783.57 1240.84 793.558 1243.57 799.741C1246.42 805.924 1249.99 814.723 1251.66 819.36C1253.32 823.997 1255.93 832.202 1257.48 837.79C1259.03 843.379 1261.4 853.723 1262.83 860.976C1264.61 870.37 1265.44 880.833 1265.92 898.431C1266.28 913.532 1266.04 927.325 1265.09 934.697C1264.37 941.237 1262.95 950.63 1261.88 955.505C1260.81 960.38 1258.67 968.941 1257.12 974.53C1255.46 980.118 1252.25 989.155 1249.87 994.744C1247.61 1000.33 1243.33 1009.13 1240.36 1014.36C1237.51 1019.59 1231.92 1028.51 1227.76 1034.22C1223.72 1039.93 1216.59 1048.84 1211.83 1054.08C1207.08 1059.43 1202.68 1063.71 1201.96 1063.71C1201.37 1063.71 1204.94 1059.19 1210.05 1053.48C1215.16 1047.89 1222.65 1038.74 1226.69 1033.03C1230.73 1027.32 1237.51 1016.03 1241.67 1007.82C1245.83 999.619 1251.18 987.134 1253.44 979.881C1255.82 972.627 1258.79 961.45 1260.1 954.911C1261.4 948.371 1263.07 937.789 1263.78 931.368C1264.49 925.066 1264.97 914.127 1265.09 906.992C1265.09 899.977 1264.49 888.681 1263.78 881.785C1263.07 874.888 1261.17 862.641 1259.5 854.437C1257.96 846.232 1254.39 832.915 1251.66 824.711C1248.92 816.506 1243.1 802.594 1238.82 793.796C1234.54 784.997 1227.76 772.631 1223.96 766.448C1220.15 760.265 1213.97 750.871 1210.29 745.639C1206.6 740.408 1200.66 732.56 1197.09 728.279C1193.64 723.999 1187.22 716.627 1182.94 711.871C1178.78 707.114 1169.87 698.434 1163.33 692.489C1156.79 686.663 1144.55 676.556 1135.99 670.135C1127.55 663.714 1115.54 655.391 1109.24 651.586C1103.06 647.781 1091.05 641.36 1082.49 637.318C1074.05 633.275 1060.98 627.687 1053.37 624.952C1045.88 622.217 1031.97 617.936 1022.46 615.558Z" fill="#203657" fill-opacity="0.4"/>
<path d="M789.7 1077.86C757.96 1077.74 725.388 1077.26 717.542 1076.79C704.703 1075.96 705.297 1075.84 723.486 1076.31C734.66 1076.55 767.47 1076.79 796.595 1076.79C825.601 1076.79 849.019 1077.14 848.544 1077.5C848.068 1077.86 821.559 1078.1 789.7 1077.86Z" fill="#203657" fill-opacity="0.4"/>
<path d="M1031.97 1077.74C1031.02 1077.5 1057.53 1077.14 1090.81 1076.79L1090.87 1076.79C1124.26 1076.43 1157.64 1076.07 1178.78 1075.96L1163.92 1076.79C1155.84 1077.26 1123.15 1077.74 1091.41 1077.86C1059.79 1077.98 1033.04 1077.86 1031.97 1077.74Z" fill="#203657" fill-opacity="0.4"/>
<path d="M776.861 1173.69C777.931 1167.15 779.952 1157.76 781.379 1152.89C782.805 1148.01 784.232 1144.56 784.469 1145.16C784.707 1145.75 783.875 1149.79 782.567 1154.08C781.379 1158.36 779.595 1165.85 778.644 1170.72C777.693 1176.19 777.099 1188.08 777.099 1201.64C777.099 1217.45 777.812 1226.96 779.358 1235.52C780.546 1242.06 783.043 1253 784.945 1259.9C786.847 1266.8 790.294 1276.78 792.553 1282.13C794.812 1287.6 796.476 1292.24 796.357 1292.6C796.238 1292.96 794.217 1289.27 792.077 1284.63C789.819 1279.88 786.371 1269.77 784.113 1262.28C781.973 1254.79 779.358 1243.85 778.169 1237.9C777.099 1231.96 776.029 1217.93 775.672 1206.39C775.197 1190.94 775.554 1182.49 776.861 1173.69Z" fill="#203657" fill-opacity="0.4"/>
<path d="M1079.88 1297.35C1083.33 1290.22 1087.49 1280.59 1089.03 1276.19C1090.46 1271.67 1092 1268.7 1092.24 1269.65C1092.6 1270.48 1091.17 1275.36 1089.15 1280.35C1087.13 1285.46 1083.09 1294.62 1080 1300.57C1077.03 1306.63 1071.68 1316.02 1068.11 1321.37C1064.66 1326.84 1061.45 1331 1061.1 1330.65C1060.86 1330.29 1063.47 1325.65 1066.92 1320.18C1070.49 1314.83 1076.31 1304.49 1079.88 1297.35Z" fill="#203657" fill-opacity="0.4"/>
<path d="M839.985 1357.4C836.418 1353.83 833.447 1350.27 833.447 1349.67C833.447 1349.08 836.656 1351.69 840.579 1355.62C844.502 1359.54 847.474 1362.99 847.117 1363.35C846.761 1363.7 843.551 1360.97 839.985 1357.4Z" fill="#203657" fill-opacity="0.4"/>
<path d="M984.182 1394.14C983.35 1394.14 987.273 1391.76 992.741 1388.91C998.329 1386.06 1003.32 1383.68 1003.8 1383.68C1004.27 1383.56 1004.63 1383.8 1004.63 1384.15C1004.63 1384.51 1000.35 1386.89 995.119 1389.51C989.888 1392.12 985.014 1394.26 984.182 1394.14Z" fill="#203657" fill-opacity="0.4"/>
<path d="M908.575 591.422C914.043 589.638 922.008 587.617 926.288 587.022C930.567 586.547 937.105 585.952 940.91 585.833C944.595 585.833 951.846 586.309 956.839 587.022C961.951 587.736 970.153 589.638 975.027 591.184C979.901 592.73 986.32 595.465 989.292 597.367C992.264 599.27 995.474 602.242 996.425 603.907C997.376 605.69 997.97 607.355 997.614 607.593C997.257 607.95 991.194 607.474 983.943 606.404C976.691 605.453 961 604.382 948.874 604.026C932.707 603.431 922.127 603.788 909.051 605.215C899.303 606.285 890.506 607.117 889.793 607.117C888.96 607.117 888.247 606.404 888.247 605.69C888.366 604.858 890.625 602.004 893.478 599.388C897.282 595.821 901.086 593.8 908.575 591.422Z" fill="white"/>
<path d="M912.022 611.873C918.204 611.279 925.218 610.447 927.476 610.209C929.735 609.971 938.294 609.971 946.497 610.209C954.699 610.565 967.181 611.636 974.433 612.587C981.684 613.657 992.621 615.441 998.803 616.748C1004.98 618.056 1015.45 620.672 1021.98 622.694C1028.52 624.715 1035.77 627.212 1038.03 628.163C1040.29 629.114 1043.26 630.304 1044.57 630.898C1045.88 631.374 1048.26 632.325 1049.92 633.038C1051.58 633.633 1060.86 638.151 1070.72 642.907C1080.47 647.782 1089.15 652.42 1089.98 653.252C1090.81 653.965 1092.83 654.917 1094.5 655.273C1096.16 655.63 1097.47 656.344 1097.47 657.057C1097.47 657.77 1098.66 658.603 1100.2 659.078C1101.63 659.435 1103.89 660.862 1105.2 662.051C1106.5 663.24 1108.76 664.548 1110.31 664.786C1111.74 665.142 1112.92 665.856 1112.92 666.569C1112.92 667.283 1113.76 667.758 1114.71 667.758C1115.66 667.758 1116.49 668.234 1116.49 668.947C1116.49 669.661 1117.32 670.136 1118.27 670.136C1119.22 670.136 1120.18 670.612 1120.41 671.207C1120.53 671.682 1126.24 676.438 1133.13 681.551C1140.15 686.783 1154.41 699.625 1165.94 711.039C1177.36 722.573 1190.19 736.842 1195.42 743.857C1200.54 750.753 1205.29 756.461 1205.77 756.699C1206.36 756.818 1206.84 757.769 1206.84 758.72C1206.84 759.671 1207.31 760.504 1208.03 760.504C1208.62 760.504 1209.45 761.693 1209.81 763.238C1210.05 764.665 1211.24 766.924 1212.42 768.232C1213.61 769.54 1215.4 772.513 1216.35 774.772C1217.3 777.031 1218.72 779.409 1219.32 780.123C1219.91 780.836 1222.53 785.711 1225.14 790.824C1227.64 796.056 1230.37 802.001 1231.21 803.904C1232.04 805.806 1233.23 808.898 1234.06 810.8C1234.77 812.584 1235.84 815.199 1236.44 816.745C1237.03 818.172 1238.46 822.334 1239.65 825.901C1240.72 829.468 1242.26 833.154 1242.98 834.105C1243.69 835.056 1244.16 837.91 1244.05 840.645C1244.05 843.38 1243.09 850.633 1242.02 856.816C1240.95 862.999 1237.98 874.295 1235.49 881.786C1232.99 889.277 1228.35 900.573 1225.26 906.756C1222.17 912.939 1217.42 921.738 1214.8 926.375C1210.4 933.866 1209.81 934.46 1208.98 932.082C1208.5 930.537 1208.5 926.256 1209.21 922.57C1209.81 918.765 1210.4 908.658 1210.4 900.216C1210.4 891.774 1209.57 879.646 1208.62 873.462C1207.67 867.279 1205.77 857.886 1204.46 852.654C1203.03 847.422 1200.54 839.456 1198.87 834.819C1197.09 830.181 1193.64 822.215 1191.03 816.983C1188.41 811.751 1183.42 802.952 1179.73 797.364C1176.17 791.775 1169.99 783.214 1165.94 778.339C1161.9 773.464 1155.01 765.735 1150.37 761.217C1145.73 756.699 1136.94 749.208 1130.76 744.57C1124.57 739.814 1114.11 733.037 1107.57 729.232C1101.04 725.546 1089.86 720.076 1082.61 717.104C1075.36 714.25 1066.56 711.277 1063 710.564C1059.43 709.85 1046.59 708.78 1034.47 708.067C1020.56 707.235 979.782 706.997 923.91 707.353C867.206 707.71 831.662 708.424 825.242 709.256C819.655 710.088 811.453 711.991 806.817 713.655C802.299 715.201 792.67 719.482 785.419 723.049C778.167 726.497 767.468 732.561 761.643 736.366C755.818 740.29 745.952 747.662 739.77 752.894C733.588 758.007 724.792 766.687 720.155 772.156C715.519 777.626 708.624 786.425 704.701 791.775C700.897 797.126 694.359 808.541 690.198 816.983C686.038 825.425 680.926 837.791 679.024 844.331C677.003 850.871 674.507 860.74 673.556 866.328C672.486 871.917 670.94 880.121 669.989 884.758C669.038 889.396 668.325 895.816 668.206 904.972L663.332 899.621C660.717 896.649 656.081 890.585 653.109 885.947C650.137 881.31 644.55 871.203 640.746 863.356C635.158 851.941 633.97 848.374 634.564 845.52C635.04 843.618 635.753 841.121 636.228 840.169C636.704 839.218 638.13 835.175 639.2 831.252C640.27 827.328 642.053 822.215 643.004 819.956C643.955 817.696 645.382 814.486 645.976 812.821C646.689 811.157 647.997 808.184 648.829 806.282C649.603 804.512 652.743 797.907 655.952 791.156L656.675 789.635C660.123 782.501 663.451 776.08 663.927 775.367C664.402 774.772 668.087 769.184 671.891 763.238C675.814 757.174 679.024 751.942 679.024 751.586C679.024 751.229 680.332 749.564 681.877 747.781C683.422 745.878 688.891 739.339 694.121 733.156C699.233 726.973 708.743 716.628 715.281 710.088C721.82 703.548 731.686 694.393 737.274 689.756C742.861 685.118 752.728 677.627 759.266 673.109C765.804 668.591 771.272 664.429 771.51 663.953C771.629 663.478 772.461 663.002 773.293 663.002C774.007 662.883 777.929 660.981 781.852 658.603C785.775 656.225 789.223 653.965 789.579 653.609C789.936 653.133 793.027 651.587 796.474 649.923C799.922 648.258 802.656 646.712 802.656 646.356C802.656 645.999 805.39 644.453 808.837 643.026C812.285 641.481 818.11 638.865 821.676 637.2C825.242 635.654 829.76 633.514 831.781 632.682C833.802 631.849 837.249 630.304 839.508 629.352C841.766 628.401 849.493 625.666 856.745 623.407C863.996 621.029 876.716 617.819 885.275 616.154C893.834 614.489 905.841 612.587 912.022 611.873Z" fill="white"/>
<path d="M945.902 1065.73C915.232 1065.61 909.288 1065.37 923.316 1064.9C933.777 1064.54 951.133 1064.18 961.951 1064.07C972.769 1063.95 982.873 1064.42 984.537 1064.9C986.202 1065.37 968.846 1065.85 945.902 1065.73Z" fill="white"/>
<path d="M977.405 1078.81C956.839 1079.05 923.435 1079.05 903.107 1078.81C882.779 1078.69 899.659 1078.57 940.553 1078.57C981.447 1078.57 997.97 1078.69 977.405 1078.81Z" fill="white"/>
<path d="M814.306 1120.78C816.564 1111.39 817.634 1108.77 821.082 1105.33L825.124 1101.16L1055.27 1101.88L1058.72 1105.09C1060.5 1106.87 1064.3 1111.51 1067.04 1115.43C1069.77 1119.36 1073.69 1125.78 1075.72 1129.7C1077.74 1133.62 1080.59 1140.16 1081.9 1144.33C1084.27 1151.34 1084.27 1152.17 1082.61 1160.38C1081.66 1165.02 1079.52 1173.22 1077.86 1178.45C1076.19 1183.68 1071.91 1193.91 1068.35 1201.04C1064.78 1208.18 1058.36 1218.64 1054.2 1224.23C1049.92 1229.82 1042.79 1238.14 1038.15 1242.66C1031.02 1249.68 1029.71 1250.51 1029.71 1248.37C1029.71 1246.82 1030.9 1241.47 1032.33 1236.48C1034.23 1229.22 1034.82 1224.11 1034.82 1213.53C1034.7 1203.78 1033.99 1197.12 1032.21 1190.34C1030.9 1185.11 1027.21 1175.72 1024.12 1169.53C1019.49 1160.02 1016.99 1156.57 1007.84 1147.54C999.991 1139.69 994.642 1135.53 988.104 1132.2C983.23 1129.58 975.503 1126.25 970.867 1124.71C966.23 1123.16 958.028 1121.38 952.441 1120.66C946.853 1119.95 938.651 1119.83 934.015 1120.19C929.379 1120.66 922.008 1121.97 917.372 1123.16C912.736 1124.35 904.771 1127.32 899.54 1129.82C894.31 1132.32 886.345 1137.43 881.709 1141C877.192 1144.68 870.772 1151.1 867.563 1155.38C864.353 1159.55 859.717 1167.27 857.22 1172.51C854.843 1177.74 851.871 1185.23 850.801 1189.15C849.731 1193.08 848.542 1202.71 848.186 1210.56C847.789 1220.07 848.067 1227 849.018 1231.36C849.85 1234.93 851.158 1240.04 852.109 1242.66C852.941 1245.28 854.486 1249.44 855.437 1251.93C856.507 1254.31 857.339 1257.29 857.339 1258.47C857.339 1259.82 854.565 1257.72 849.018 1252.17C844.382 1247.65 837.843 1239.81 834.515 1234.93C831.067 1230.06 826.075 1221.26 823.222 1215.31C820.487 1209.37 816.683 1199.26 814.9 1192.72C811.928 1181.54 811.69 1179.28 811.69 1156.45C811.69 1135.29 812.047 1130.53 814.306 1120.78Z" fill="white"/>
<path d="M920.939 483.694C922.841 481.435 926.407 478.581 928.666 477.273C931.875 475.608 934.847 475.133 941.385 475.37C948.637 475.727 950.658 476.203 954.937 479.294C957.79 481.316 961.238 485.239 962.783 488.212C964.566 491.541 965.636 495.703 965.755 499.508C965.755 502.718 965.28 507.356 964.566 509.615C963.853 511.874 960.762 516.036 957.79 518.77C954.818 521.624 950.42 524.359 948.043 525.072C945.546 525.667 941.623 526.261 939.365 526.261C937.106 526.261 932.589 524.953 929.26 523.408C926.05 521.862 921.89 519.127 920.225 517.225C918.442 515.322 916.54 511.874 915.708 509.615C914.995 507.356 914.4 503.551 914.4 501.292C914.4 499.032 915.114 495.108 915.946 492.493C916.659 489.996 919.037 486.072 920.939 483.694Z" fill="#757DFF"/>
<path d="M936.63 533.99C939.127 534.347 943.882 533.871 947.092 532.92C950.42 532.088 953.392 531.255 953.986 531.136C954.462 531.136 954.818 540.292 954.818 551.469C954.818 562.765 955.056 573.585 956.126 579.174H930.687L931.519 568.472C931.875 562.527 932.232 552.301 932.232 533.396L936.63 533.99Z" fill="#757DFF"/>
<path d="M950.657 604.381C945.426 604.619 936.273 604.619 930.448 604.381C924.623 604.263 928.783 604.025 939.958 604.025C951.132 604.025 955.887 604.263 950.657 604.381Z" fill="#EFEFFF"/>
<path d="M1241.9 857.409C1242.86 851.464 1243.69 845.4 1243.69 843.736C1243.69 841.833 1244.04 841.239 1244.76 841.952C1245.35 842.546 1247.14 848.967 1248.8 856.22C1250.46 863.355 1252.48 873.58 1253.08 878.812C1253.79 884.044 1254.62 893.437 1255.1 899.62C1255.46 905.803 1255.22 917.337 1254.51 925.185C1253.67 933.033 1252.01 944.566 1250.7 950.749C1249.39 956.932 1246.78 966.801 1244.76 972.746C1242.74 978.573 1239.05 987.966 1236.44 993.555C1233.82 999.143 1229.3 1007.7 1226.45 1012.58C1223.48 1017.45 1218.13 1025.54 1214.33 1030.65C1210.52 1035.65 1203.75 1043.61 1199.11 1048.49C1193.52 1054.31 1188.41 1058.36 1176.52 1064.3L1084.39 1065.25C1012.95 1066.09 990.48 1065.97 984.536 1064.9C978.474 1063.71 965.397 1063.71 922.126 1064.9C883.253 1065.85 843.786 1065.97 704.582 1064.3L696.855 1060.5C690.554 1057.53 687.226 1054.67 678.667 1045.16C672.842 1038.62 664.401 1027.8 659.765 1020.9C655.248 1014.01 649.185 1003.54 646.332 997.716C643.479 991.771 638.962 980.594 636.346 972.746C633.731 964.899 630.64 953.96 629.452 948.371C627.668 940.048 627.312 932.676 627.312 907.349C627.312 879.526 627.668 875.245 630.165 863.949C631.591 857.053 633.137 850.87 633.493 850.275C633.85 849.562 637.179 855.507 640.864 863.355C644.668 871.202 650.136 881.309 653.108 885.946C656.08 890.465 660.716 896.648 668.205 904.971L668.443 897.242C668.681 891.297 668.919 892.724 669.513 903.188C669.989 910.679 671.177 921.618 672.247 927.563C673.317 933.389 675.457 942.783 677.121 948.371C678.667 953.96 681.995 962.996 684.373 968.585C686.75 974.173 690.792 982.14 693.288 986.42C695.785 990.701 700.896 998.43 704.819 1003.66C708.742 1008.89 715.281 1016.74 719.56 1021.14C725.028 1026.85 728.476 1029.34 731.923 1030.3C735.252 1031.25 798.613 1031.6 940.552 1031.6C1118.75 1031.6 1145.14 1031.37 1149.78 1029.82C1153.7 1028.51 1157.15 1025.9 1162.61 1020.07C1166.77 1015.55 1173.31 1007.7 1177.12 1002.47C1181.04 997.241 1187.1 987.372 1190.67 980.475C1194.24 973.579 1198.99 962.64 1201.25 956.1C1203.51 949.56 1206 940.999 1206.84 937.075C1207.91 931.843 1208.62 930.536 1209.09 932.319C1209.81 934.34 1210.76 933.27 1214.8 926.374C1217.42 921.737 1222.17 912.938 1225.26 906.755C1228.35 900.572 1232.99 889.276 1235.49 881.785C1237.98 874.294 1240.83 863.236 1241.9 857.409Z" fill="#EFEFFF"/>
<path d="M975.026 1077.62C955.768 1077.86 924.385 1077.86 905.483 1077.62C886.582 1077.5 902.274 1077.38 940.552 1077.38C978.83 1077.38 994.284 1077.5 975.026 1077.62Z" fill="#EFEFFF"/>
<path d="M841.884 1088.2C845.451 1085.82 851.751 1082.73 855.674 1081.19L862.926 1078.57L1020.2 1079.17L1027.69 1082.49C1031.73 1084.28 1037.79 1087.61 1041 1089.87C1044.33 1092.01 1048.97 1095.57 1055.86 1101.76L946.139 1101.64C885.869 1101.64 834.157 1101.16 825.955 1099.97L830.591 1096.29C833.206 1094.27 838.318 1090.58 841.884 1088.2Z" fill="#EFEFFF"/>
<path d="M800.872 1134.46C804.319 1127.2 808.955 1119 811.095 1116.26C813.235 1113.41 815.137 1111.39 815.375 1111.75C815.613 1112.1 814.78 1117.33 813.711 1123.4C812.165 1131.6 811.571 1140.28 811.69 1157.64C811.69 1178.93 812.046 1181.66 815.018 1192.72C816.801 1199.26 820.487 1209.37 823.221 1215.31C826.074 1221.14 831.067 1229.94 834.514 1234.93C837.843 1239.81 844.381 1247.53 849.017 1252.17C855.317 1258.47 857.338 1259.9 857.338 1258.12C857.338 1256.57 859.003 1258.47 861.618 1262.87C863.995 1266.8 868.156 1272.62 870.89 1275.95C873.743 1279.16 879.449 1284.51 883.61 1287.72C887.771 1290.82 895.498 1295.57 900.728 1298.07C905.959 1300.57 913.686 1303.54 917.965 1304.73C923.79 1306.27 929.972 1306.75 942.335 1306.75C957.908 1306.63 959.691 1306.39 970.271 1302.82C976.453 1300.68 985.012 1296.88 989.292 1294.38C993.571 1291.89 1000.47 1286.65 1004.63 1282.85C1008.79 1279.04 1014.49 1272.74 1017.35 1268.82C1020.08 1264.89 1024 1258.12 1026.02 1253.95C1028.05 1249.67 1029.71 1247.3 1029.71 1248.6C1029.71 1250.39 1031.73 1248.96 1038.15 1242.66C1042.79 1238.02 1049.56 1230.29 1053.37 1225.42C1057.05 1220.42 1062.64 1211.86 1065.61 1206.39C1068.7 1200.8 1072.74 1192.24 1074.65 1187.37C1076.55 1182.37 1079.28 1173.81 1080.59 1168.34C1082.02 1162.76 1083.56 1156.1 1085.23 1148.72L1087.72 1159.43C1089.15 1165.25 1090.93 1176.55 1091.64 1184.4C1092.71 1195.1 1092.83 1202.83 1091.76 1215.91C1091.05 1225.3 1089.39 1238.14 1087.96 1244.44C1086.65 1250.63 1083.2 1262.4 1080.59 1270.6C1077.85 1278.69 1072.03 1292.6 1067.51 1301.52C1063.11 1310.32 1055.98 1322.21 1051.7 1327.91C1047.54 1333.62 1039.81 1342.66 1034.82 1348.01C1029.71 1353.36 1019.96 1361.92 1013.07 1367.03C1006.17 1372.15 995.235 1379.04 988.697 1382.25C982.159 1385.46 972.054 1389.62 966.111 1391.41C957.076 1394.14 953.272 1394.62 941.146 1394.62C929.14 1394.62 925.217 1394.14 916.182 1391.41C910.357 1389.62 899.302 1385.22 891.813 1381.54C884.323 1377.73 873.03 1370.96 866.848 1366.2C860.667 1361.56 850.8 1352.65 844.856 1346.46C839.031 1340.28 830.591 1330.17 826.193 1323.99C821.675 1317.81 814.067 1304.73 809.193 1294.98C804.2 1285.11 800.515 1276.43 800.872 1275.6C801.229 1274.76 800.991 1274.17 800.277 1274.17C799.683 1274.17 799.089 1273.22 799.089 1272.03C799.089 1270.84 798.613 1269.41 798.019 1268.82C797.424 1268.1 795.166 1261.21 793.145 1253.36C791.124 1245.51 788.628 1232.91 787.677 1225.42C786.726 1217.81 786.012 1206.39 786.012 1199.85C786.012 1193.31 786.844 1182.85 787.795 1176.67C788.746 1170.37 790.648 1161.33 791.956 1156.45C793.383 1151.46 797.306 1141.59 800.872 1134.46Z" fill="#EFEFFF"/>
<path d="M806.817 713.654C811.335 711.99 819.181 710.087 824.055 709.493C828.928 708.898 883.136 708.541 945.309 708.66C1027.33 708.898 1059.31 709.374 1063.59 710.444C1066.8 711.157 1075.36 714.249 1082.61 717.103C1089.74 720.075 1101.04 725.545 1107.58 729.231C1114.11 733.036 1124.58 739.813 1130.76 744.569C1136.94 749.207 1145.74 756.698 1150.37 761.216C1155.01 765.734 1161.9 773.463 1165.94 778.338C1169.99 783.213 1176.17 791.774 1179.73 797.363C1183.42 802.951 1188.41 811.75 1191.03 816.982C1193.64 822.214 1197.09 830.18 1198.87 834.818C1200.54 839.455 1203.03 847.421 1204.46 852.653C1205.77 857.885 1207.67 867.278 1208.62 873.461C1209.57 879.644 1210.4 891.892 1210.4 900.572C1210.4 910.797 1209.57 920.904 1208.15 929.703C1206.84 936.956 1203.87 948.609 1201.49 955.505C1199.11 962.402 1194.24 973.579 1190.67 980.475C1187.1 987.372 1181.04 997.241 1177.12 1002.47C1173.31 1007.7 1167.01 1015.43 1163.21 1019.59C1159.41 1023.76 1154.53 1027.8 1152.51 1028.75C1149.18 1030.18 1115.54 1030.41 939.959 1030.41C756.889 1030.41 730.855 1030.18 727.764 1028.63C725.743 1027.68 720.156 1022.21 715.163 1016.5C710.171 1010.68 702.919 1001.16 698.996 995.338C695.073 989.512 689.843 980.356 687.346 975.124C684.85 969.893 681.165 960.737 679.144 954.911C677.242 949.084 674.626 939.691 673.438 934.103C671.773 926.255 671.298 918.645 671.298 899.62C671.298 881.071 671.773 872.986 673.319 865.733C674.508 860.501 677.004 850.87 679.025 844.33C681.046 837.79 686.039 825.424 690.199 816.982C694.36 808.54 700.898 797.125 704.702 791.774C708.625 786.424 715.52 777.625 720.156 772.155C724.792 766.686 733.589 758.006 739.771 752.893C745.953 747.661 755.819 740.289 761.644 736.365C767.469 732.56 778.168 726.496 785.42 723.048C792.671 719.481 802.3 715.2 806.817 713.654Z" fill="#223859"/>
<path d="M914.401 1123.87C917.967 1122.8 924.149 1121.5 928.072 1120.9C931.995 1120.31 937.344 1119.83 939.959 1119.83C942.575 1119.71 948.756 1120.19 953.63 1120.78C958.504 1121.5 965.993 1123.16 970.273 1124.47C974.553 1125.89 982.28 1129.22 987.51 1131.84C994.762 1135.53 999.636 1139.33 1007.84 1147.54C1016.99 1156.57 1019.49 1160.02 1024.12 1169.53C1027.21 1175.72 1030.9 1185.11 1032.21 1190.34C1034.11 1197.48 1034.7 1203.54 1034.7 1214.12C1034.7 1226.13 1034.23 1230.05 1031.61 1238.73C1029.95 1244.56 1027.1 1252.05 1025.43 1255.38C1023.65 1258.83 1020.08 1264.89 1017.23 1268.82C1014.5 1272.74 1008.79 1279.04 1004.63 1282.85C1000.47 1286.77 993.573 1291.89 989.293 1294.38C985.014 1297 976.455 1300.8 970.273 1302.82C959.693 1306.51 957.91 1306.75 942.337 1306.75C930.093 1306.87 923.673 1306.27 917.967 1304.73C913.688 1303.66 905.366 1300.33 899.541 1297.47C893.716 1294.5 885.395 1289.27 881.115 1285.82C876.836 1282.25 870.654 1275.83 867.445 1271.55C864.116 1267.15 859.836 1260.26 857.697 1256.09C855.676 1251.93 853.179 1246.23 852.228 1243.25C851.277 1240.28 849.851 1234.93 849.019 1231.36C848.068 1227 847.79 1220.07 848.187 1210.55C848.543 1202.71 849.732 1193.08 850.802 1189.15C851.872 1185.23 854.844 1177.74 857.221 1172.51C859.718 1167.27 864.354 1159.54 867.563 1155.38C870.773 1151.1 877.074 1144.68 881.71 1141C886.227 1137.43 894.073 1132.43 898.947 1130.06C903.821 1127.8 910.835 1124.94 914.401 1123.87Z" fill="#223859"/>
<path d="M716.114 1220.66C719.562 1218.16 724.555 1215.19 727.17 1214.24C729.785 1213.29 733.827 1212.46 736.086 1212.34C738.344 1212.34 742.624 1213.53 745.596 1215.07C748.568 1216.62 752.61 1219.95 754.512 1222.56C756.533 1225.06 759.386 1230.41 760.931 1234.34C762.358 1238.26 764.378 1245.16 765.448 1249.79C766.399 1254.43 767.469 1266.08 767.826 1275.95C768.301 1286.3 767.945 1300.21 767.113 1309.25C766.28 1317.69 764.616 1330.65 763.309 1337.78C762.12 1344.92 759.504 1357.28 757.602 1365.13C755.7 1372.98 752.372 1384.51 750.232 1390.69C748.211 1396.88 744.05 1407.58 741.197 1414.48C738.226 1421.37 733.708 1430.65 730.974 1435.28C728.359 1439.92 723.485 1447.53 720.156 1452.41C716.828 1457.28 710.289 1464.77 705.653 1469.05C700.66 1473.81 695.43 1477.49 692.577 1478.33C690.08 1479.16 685.92 1479.87 683.423 1479.87C681.046 1479.87 677.242 1479.16 675.102 1478.21C673.081 1477.38 669.634 1474.76 667.494 1472.62C665.473 1470.36 662.382 1465.84 660.718 1462.63C659.054 1459.3 656.557 1452.41 655.012 1447.17C652.634 1438.37 652.396 1435.28 652.396 1407.34C652.396 1381.18 652.753 1374.76 655.131 1360.97C656.676 1352.17 659.648 1337.66 661.788 1328.86C664.046 1320.07 667.85 1306.39 670.466 1298.54C673.081 1290.7 677.479 1278.92 680.451 1272.38C683.304 1265.85 688.178 1256.21 691.15 1250.98C694.241 1245.75 699.709 1237.9 703.395 1233.38C706.961 1228.98 712.786 1223.28 716.114 1220.66Z" fill="#223859"/>
<path d="M955.175 567.878C955.056 563.598 954.699 553.372 954.58 544.93C954.342 536.606 954.58 529.829 955.056 529.829C955.65 529.829 955.888 540.173 955.769 552.658C955.65 565.262 955.412 572.159 955.175 567.878Z" fill="#064896"/>
<path d="M931.875 558.366C931.637 562.646 931.518 559.436 931.518 551.231C931.518 543.027 931.637 539.579 931.875 543.503C932.112 547.427 932.112 554.085 931.875 558.366Z" fill="#064896"/>
<path d="M766.519 1320.54C766.757 1316.97 767.351 1303.18 767.708 1289.86C768.183 1276.66 768.778 1265.84 769.134 1265.84C769.372 1265.84 769.372 1277.26 768.897 1291.05C768.54 1304.96 767.708 1318.76 765.925 1327.08L766.519 1320.54Z" fill="#203657" fill-opacity="0.4"/>
<path d="M656.439 1345.51C658.341 1336 661.67 1322.32 663.691 1315.19C665.83 1308.06 667.851 1302.7 668.089 1303.3C668.327 1303.89 667.732 1307.1 666.663 1310.43C665.712 1313.64 663.453 1321.97 661.789 1328.86C660.005 1335.76 657.271 1349.08 655.607 1358.59C653.467 1371.55 652.516 1382.01 652.041 1400.21C651.565 1416.5 651.803 1427.91 652.754 1434.69C653.586 1440.28 655.607 1448.84 657.152 1453.71C658.698 1458.59 659.768 1462.75 659.411 1462.87C659.054 1463.11 657.747 1460.37 656.558 1456.92C655.25 1453.59 653.348 1445.98 652.16 1440.04C650.614 1432.07 650.02 1423.87 650.02 1407.93C650.02 1396.16 650.733 1381.18 651.565 1374.64C652.397 1368.1 654.656 1355.02 656.439 1345.51Z" fill="#203657" fill-opacity="0.4"/>
<path d="M983.946 707.827C960.408 708.065 921.416 708.065 897.165 707.827C873.033 707.709 892.173 707.59 939.961 707.59C987.631 707.59 1007.48 707.709 983.946 707.827Z" fill="#7E93AD"/>
<path d="M670.349 907.349C670.111 911.986 669.992 908.656 669.992 900.214C669.992 891.772 670.111 887.967 670.349 891.891C670.586 895.815 670.586 902.711 670.349 907.349Z" fill="#7E93AD"/>
<path d="M626.364 915.077C626.126 919.358 626.008 916.385 626.008 908.538C626.008 900.69 626.126 897.242 626.364 900.809C626.602 904.376 626.602 910.797 626.364 915.077Z" fill="#7E93AD"/>
<path d="M1043.38 1031.25C986.442 1031.48 893.718 1031.48 837.133 1031.25C780.547 1031.13 827.147 1031.01 940.556 1031.01C1053.96 1031.01 1100.33 1031.13 1043.38 1031.25Z" fill="#7E93AD"/>
<path d="M788.988 1065.73C775.198 1065.97 752.255 1065.97 737.871 1065.73C723.487 1065.61 734.661 1065.49 762.835 1065.49C790.89 1065.49 802.658 1065.61 788.988 1065.73Z" fill="#7E93AD"/>
<path d="M1144.43 1065.73C1130.64 1065.97 1107.7 1065.97 1093.31 1065.73C1078.93 1065.61 1090.22 1065.49 1118.28 1065.49C1146.33 1065.49 1158.1 1065.61 1144.43 1065.73Z" fill="#7E93AD"/>
<path d="M993.456 1066.92C963.974 1067.16 916.186 1067.16 887.061 1066.92C857.936 1066.8 882.068 1066.68 940.556 1066.68C999.043 1066.68 1022.82 1066.8 993.456 1066.92Z" fill="#7E93AD"/>
<path d="M906.081 1132.79C909.647 1131.13 916.304 1128.87 920.94 1127.8C925.576 1126.61 934.254 1125.66 940.555 1125.66C948.282 1125.54 954.82 1126.25 961.358 1127.92C966.589 1129.22 974.078 1131.84 978.001 1133.74C981.924 1135.53 988.343 1139.45 992.266 1142.42C999.042 1147.42 999.518 1148.25 1002.01 1156.57C1003.44 1161.45 1005.58 1170.13 1006.65 1176.07C1007.72 1182.02 1008.67 1191.29 1008.67 1196.88C1008.67 1202.71 1007.84 1210.32 1006.77 1214.72C1005.58 1219 1002.97 1225.89 1000.94 1230.17C998.329 1235.41 994.287 1240.76 988.224 1246.82C982.281 1252.65 976.337 1257.28 970.868 1260.14C966.232 1262.52 959.337 1265.37 955.414 1266.44C950.184 1267.99 945.548 1268.34 937.583 1267.99C930.807 1267.63 924.269 1266.44 919.751 1264.78C915.829 1263.35 909.171 1259.9 905.011 1257.17C900.85 1254.43 894.193 1248.72 890.27 1244.44C885.872 1239.81 881.592 1233.5 879.214 1228.39C877.075 1223.87 874.341 1215.55 873.271 1209.96C871.844 1202.83 871.606 1197.48 872.201 1191.53C872.557 1187.01 873.746 1178.93 874.697 1173.69C875.648 1168.46 877.312 1161.21 878.382 1157.64C879.452 1154.08 881.473 1149.79 882.781 1148.25C884.207 1146.7 888.487 1143.25 892.41 1140.64C896.333 1138.02 902.514 1134.46 906.081 1132.79Z" fill="white"/>
<path d="M713.619 1231.96C717.304 1228.03 722.654 1223.63 725.507 1222.21C728.36 1220.66 732.758 1219.47 735.255 1219.47C737.632 1219.47 739.891 1220.07 740.247 1220.66C740.604 1221.26 738.108 1226.25 734.66 1231.72C731.213 1237.07 725.15 1247.89 721.227 1255.74C717.304 1263.59 713.144 1272.15 712.074 1274.76C710.912 1277.32 708.39 1283.96 706.168 1289.81L706.011 1290.22C703.752 1296.17 699.711 1307.58 697.095 1315.78C694.48 1323.99 691.033 1336.83 689.368 1344.32C687.704 1351.81 685.445 1364.42 684.375 1372.26C683.424 1380.11 681.998 1389.98 681.285 1394.26C680.571 1398.66 680.215 1409.24 680.571 1418.64C680.928 1427.79 681.998 1440.04 682.949 1445.98C683.9 1451.93 685.564 1460.49 686.753 1465.01C688.417 1471.91 688.417 1473.45 687.11 1474.17C686.277 1474.64 684.613 1475.12 683.543 1475.12C682.355 1475.12 679.264 1474.05 676.648 1472.74C673.32 1471.07 670.467 1468.1 667.138 1462.99C663.691 1457.64 661.67 1452.41 659.887 1444.8C657.628 1435.4 657.39 1430.41 657.39 1404.37C657.39 1383.32 657.985 1371.08 659.411 1362.16C660.362 1355.26 662.621 1343.73 664.404 1336.59C666.068 1329.46 670.11 1315.78 673.32 1306.27C676.53 1296.76 682.592 1282.14 686.753 1273.57C690.914 1265.13 697.095 1253.84 700.662 1248.6C704.109 1243.37 709.934 1235.88 713.619 1231.96Z" fill="white"/>
<path d="M780.666 732.441C786.491 728.992 797.784 723.642 805.63 720.788L819.895 715.437L1060.62 715.318L1075.12 720.788C1083.21 723.761 1094.26 728.874 1099.85 732.203C1105.44 735.532 1115.07 742.072 1121.25 746.709C1127.43 751.346 1138.37 761.097 1145.62 768.231C1152.87 775.484 1162.26 786.542 1166.78 792.606C1171.18 798.789 1177.95 810.323 1181.76 818.171C1185.68 826.018 1190.43 837.552 1192.34 843.735C1194.36 849.918 1196.85 859.549 1197.92 865.138C1199.23 871.559 1199.83 878.455 1199.47 884.162C1198.99 891.653 1198.16 894.626 1193.88 903.187C1191.15 908.775 1186.04 917.574 1182.47 922.806C1179.02 928.038 1172.48 936.599 1167.97 941.712C1163.57 946.944 1155.6 954.554 1150.37 958.715C1145.14 962.877 1136.82 968.703 1131.95 971.557C1127.07 974.411 1119.94 977.978 1116.14 979.286C1112.45 980.594 1103.3 982.734 1096.05 983.923C1088.68 985.231 1076.43 986.896 1068.94 987.609C1061.45 988.322 1045.4 989.749 1033.28 990.7C1021.15 991.652 988.225 992.841 960.17 993.197C927.835 993.673 898.116 993.316 879.333 992.484C863.047 991.652 838.083 989.987 824.056 988.679C810.028 987.49 792.197 985.35 784.589 984.042C776.743 982.734 766.757 980.118 762.002 978.097C757.247 976.194 748.212 971.319 742.031 967.157C735.374 962.758 726.101 955.148 719.444 948.371C712.43 941.355 704.704 932.081 699.354 923.995C694.599 916.742 689.131 907.943 687.348 904.376C685.564 900.809 683.068 894.626 681.998 890.702C680.096 884.519 680.096 882.379 681.285 874.055C682.117 868.824 684.138 859.43 685.802 853.247C687.466 847.064 690.319 837.909 692.34 833.034C694.242 828.158 698.522 819.003 701.732 812.82C704.941 806.637 711.123 796.649 715.521 790.823C719.92 784.996 729.43 774.176 736.562 767.042C743.814 759.789 754.275 750.514 759.862 746.352C765.45 742.31 774.841 736.008 780.666 732.441Z" fill="#757DFF"/>
<path d="M1001.66 1155.26C1000.7 1153.01 999.992 1150.27 999.992 1149.32C1000.11 1148.25 1002.37 1150.03 1005.46 1153.48C1008.43 1156.69 1012.83 1162.4 1015.21 1165.97C1017.59 1169.53 1021.27 1177.02 1023.29 1182.61C1025.43 1188.2 1027.81 1197.24 1028.52 1202.83C1029.35 1208.65 1029.71 1216.26 1029.24 1220.66C1028.76 1224.94 1027.57 1231.6 1026.62 1235.52C1025.67 1239.45 1022.7 1246.94 1020.2 1252.17C1017.7 1257.4 1013.19 1264.78 1010.22 1268.46C1007.12 1272.27 1001.42 1278.09 997.258 1281.54C993.216 1284.87 985.013 1289.98 979.188 1292.84C973.363 1295.69 964.448 1298.78 959.574 1299.85C953.154 1301.28 946.854 1301.64 936.987 1301.16C927.358 1300.68 921.058 1299.73 915.589 1297.95C911.31 1296.52 904.415 1293.55 900.135 1291.29C895.856 1289.03 889.08 1284.63 884.919 1281.3C880.877 1278.09 874.814 1271.79 871.486 1267.27C868.157 1262.87 863.64 1255.5 861.5 1250.98C859.242 1246.34 856.507 1238.85 855.438 1234.34C854.13 1229.22 853.298 1221.26 853.298 1213.53C853.298 1205.44 854.13 1198.07 855.438 1192.72C856.626 1188.08 859.598 1180.12 862.214 1174.88C864.71 1169.65 869.584 1161.92 873.031 1157.64C876.479 1153.36 879.451 1150.51 879.688 1151.1C879.926 1151.7 879.332 1154.91 878.262 1158.24C877.311 1161.45 875.647 1168.46 874.696 1173.69C873.745 1178.93 872.556 1186.89 872.199 1191.53C871.605 1197.48 871.843 1202.83 873.269 1209.96C874.339 1215.55 877.073 1223.75 879.213 1228.39C881.59 1233.5 885.87 1239.81 890.268 1244.44C894.191 1248.72 900.848 1254.43 905.009 1257.17C909.17 1259.9 915.827 1263.35 919.75 1264.78C924.267 1266.44 930.805 1267.63 937.581 1267.99C945.546 1268.34 950.182 1267.99 955.413 1266.44C959.336 1265.37 966.231 1262.52 970.867 1260.14C976.335 1257.28 982.279 1252.65 988.223 1246.82C994.286 1240.76 998.327 1235.41 1000.94 1230.17C1002.96 1225.89 1005.58 1219 1006.77 1214.72C1007.84 1210.32 1008.67 1202.59 1008.67 1196.88C1008.67 1191.29 1007.48 1180.59 1006.05 1173.1C1004.51 1165.61 1002.61 1157.52 1001.66 1155.26Z" fill="#EFEFFF"/>
<path d="M720.631 1267.63C723.365 1261.68 729.904 1249.56 735.134 1240.52C740.484 1231.6 745.239 1224.23 745.833 1224.23C746.309 1224.23 748.448 1226.49 750.35 1229.22C752.371 1232.08 755.106 1237.78 756.532 1242.06C757.84 1246.34 759.742 1253.84 760.574 1258.71C761.406 1263.59 762.119 1276.07 762.238 1286.3C762.238 1296.64 761.525 1310.43 760.812 1316.97C759.979 1323.51 758.91 1328.86 758.434 1328.86C757.84 1328.86 757.245 1332.43 756.77 1336.83C756.413 1341.35 755.343 1348.96 754.273 1353.83C753.322 1358.71 750.707 1368.94 748.567 1376.43C746.428 1383.92 742.623 1395.45 740.246 1401.99C737.75 1408.53 732.638 1420.3 728.715 1428.15C724.792 1436 719.086 1445.87 716.114 1450.15C713.023 1454.31 707.911 1460.37 704.821 1463.46C701.73 1466.67 698.639 1469.17 698.045 1469.17C697.331 1469.17 696.262 1467.15 695.667 1464.65C694.954 1462.27 693.408 1454.19 692.101 1446.82C690.199 1436.12 689.723 1428.15 689.723 1405.8C689.723 1388.2 690.437 1373.93 691.506 1366.32C692.457 1359.78 694.241 1349.08 695.667 1342.54C696.975 1336 699.709 1325.06 701.611 1318.16C703.513 1311.27 707.555 1299.5 710.408 1292C713.261 1284.51 717.897 1273.57 720.631 1267.63Z" fill="#EFEFFF"/>
<path d="M657.27 1411.5C657.151 1416.73 656.913 1412.93 656.913 1403.18C656.913 1393.31 657.151 1389.03 657.27 1393.67C657.508 1398.19 657.508 1406.27 657.27 1411.5Z" fill="#EFEFFF"/>
<path d="M998.802 714.963C966.468 715.201 913.686 715.201 881.709 714.963C849.731 714.844 876.121 714.725 940.553 714.725C1004.98 714.725 1031.14 714.844 998.802 714.963Z" fill="#3C42AA"/>
<path d="M1193.88 903.188C1197.68 895.579 1198.99 891.179 1199.58 885.353C1199.94 881.072 1200.42 878.694 1200.65 880.002C1201.01 881.31 1200.89 891.417 1200.54 902.594C1200.06 918.289 1199.23 925.661 1196.97 935.293C1195.31 942.189 1192.57 951.82 1190.79 956.695C1189 961.57 1185.08 970.488 1182.11 976.314C1179.26 982.141 1174.62 990.226 1172.01 994.15C1169.39 998.074 1164.28 1004.97 1160.59 1009.49C1156.91 1014.01 1151.8 1019.24 1144.43 1024.59L940.553 1024.47C745.476 1024.47 736.56 1024.35 733.113 1022.33C731.211 1021.14 726.574 1016.74 722.889 1012.46C719.204 1008.3 713.141 1000.33 709.337 994.745C705.533 989.156 700.184 979.763 697.45 973.936C694.596 968.11 690.911 958.954 689.128 953.723C687.345 948.491 684.849 939.692 683.541 934.103C681.996 927.207 681.045 917.933 680.212 885.947L682.352 892.487C683.541 896.054 685.918 901.643 687.583 904.972C689.247 908.182 694.596 916.743 699.352 923.997C704.701 932.082 712.428 941.357 719.442 948.372C726.099 955.15 735.371 962.759 742.028 967.159C748.21 971.32 757.245 976.196 762 978.098C766.755 980.119 776.74 982.735 784.586 984.043C792.194 985.351 810.026 987.491 824.053 988.68C838.081 989.988 863.045 991.653 879.331 992.485C898.114 993.318 927.833 993.674 960.167 993.199C988.222 992.842 1021.15 991.653 1033.28 990.702C1045.4 989.751 1061.45 988.324 1068.94 987.61C1076.43 986.897 1088.67 985.232 1096.04 983.924C1103.29 982.735 1112.45 980.595 1116.25 979.287C1119.94 977.979 1127.07 974.412 1131.94 971.558C1136.82 968.705 1145.14 962.878 1150.37 958.717C1155.6 954.555 1163.57 946.945 1167.96 941.713C1172.48 936.6 1179.02 928.039 1182.47 922.808C1186.03 917.576 1191.14 908.777 1193.88 903.188Z" fill="#3C42AA"/>
<path d="M689.363 1412.1C689.244 1416.97 689.007 1413.53 689.007 1404.37C689.007 1395.21 689.126 1391.17 689.363 1395.45C689.601 1399.73 689.601 1407.22 689.363 1412.1Z" fill="#7E93AD"/>
<path d="M681.042 1423.99C680.923 1429.58 680.685 1425.54 680.685 1415.07C680.685 1404.61 680.923 1400.09 681.042 1404.97C681.28 1409.84 681.28 1418.4 681.042 1423.99Z" fill="#7E93AD"/>
<path d="M826.429 789.04C829.995 786.305 835.345 783.332 838.317 782.381C841.645 781.43 846.638 780.954 851.393 781.311C856.743 781.668 861.26 782.857 866.253 785.235C870.889 787.613 875.525 791.18 879.686 795.698C883.133 799.622 887.413 805.686 889.315 809.253C891.217 812.82 894.308 820.668 896.091 826.494C898.944 835.888 899.3 839.217 899.3 853.248C899.3 865.971 898.706 871.202 896.685 878.812C895.259 884.044 892.168 892.129 889.671 896.648C887.056 901.642 882.301 908.063 877.546 912.819C871.721 918.764 868.036 921.261 862.686 923.282C856.98 925.423 853.889 925.898 847.232 925.542C841.17 925.066 837.128 923.996 832.373 921.618C828.806 919.834 823.219 915.554 819.891 912.224C816.562 908.776 811.926 902.355 809.548 897.837C807.171 893.2 804.08 885.471 802.654 880.596C800.989 875.007 799.801 866.684 799.444 858.004C798.968 847.659 799.325 841.833 800.752 834.223C801.94 828.635 804.437 820.43 806.339 815.793C808.241 811.156 812.045 804.378 814.898 800.692C817.632 797.006 822.863 791.655 826.429 789.04Z" fill="white"/>
<path d="M1013.07 787.732C1016.04 786.186 1020.08 784.64 1021.98 784.046C1023.88 783.57 1028.52 783.332 1032.09 783.57C1036.01 783.808 1041.48 785.235 1045.76 787.137C1050.27 789.277 1055.27 792.963 1059.43 797.244C1063.35 801.168 1067.75 807.589 1070.36 812.82C1072.86 817.695 1075.95 826.019 1077.38 831.251C1079.28 838.504 1079.99 844.211 1079.99 855.626C1079.99 865.971 1079.4 872.986 1077.97 878.812C1076.78 883.449 1073.69 891.654 1071.08 897.242C1067.39 904.852 1064.18 909.371 1058.36 915.197C1052.41 921.142 1048.73 923.639 1043.38 925.66C1037.67 927.801 1034.58 928.276 1027.93 927.92C1022.1 927.444 1017.7 926.374 1013.42 924.234C1009.97 922.45 1004.27 918.169 1000.94 914.721C996.898 910.679 992.856 904.733 989.647 898.312C986.913 892.843 983.703 884.876 982.514 880.596C980.85 874.651 980.374 868.705 980.493 855.031C980.493 838.028 980.731 836.601 984.416 825.9C986.556 819.717 990.122 811.631 992.262 808.064C994.521 804.497 998.8 799.028 1002.01 795.936C1005.1 792.963 1010.09 789.158 1013.07 787.732Z" fill="white"/>
</g>
<g opacity="0.5">
<path d="M-254 1688.34C-254 1592.58 -254 1544.69 -235.033 1505.3C-226.508 1487.59 -215.323 1471.4 -201.896 1457.32C-172.022 1426.01 -128.272 1410.56 -40.7742 1379.65L131.467 1318.81C256.836 1274.52 319.521 1252.38 366.281 1277.12C377.268 1282.93 387.357 1290.41 396.214 1299.31C433.909 1337.17 433.909 1405.78 433.909 1543C433.909 1638.01 433.909 1685.51 412.748 1723.47C407.618 1732.67 401.635 1741.34 394.883 1749.34C367.031 1782.33 323.627 1797.67 236.82 1828.33L32.3047 1900.57C-78.0766 1939.56 -133.267 1959.06 -175.823 1941.51C-230.352 1919.03 -254 1866.77 -254 1821.8C-254 1791.42 -254 1735.46 -254 1688.34Z" fill="url(#paint1_linear_1013_3818)"/>
<path fill-rule="evenodd" clip-rule="evenodd" d="M-254 1462.47C-254 1385.77 -254 1322.88 -241.691 1290.15C-230.82 1261.25 -213.175 1235.6 -190.347 1215.52C-164.499 1192.79 -129.505 1180.27 -59.5162 1155.24L-35.3907 1146.61C45.8833 1117.54 86.5203 1103.01 119.144 1109.55C154.451 1116.62 185.057 1139.21 203.032 1171.48C219.642 1201.29 219.642 1269.19 219.642 1358.26C219.642 1428.54 219.642 1463.68 209.277 1493.98C198.01 1526.91 178.055 1555.92 151.679 1577.7C127.417 1597.74 95.3535 1609.2 31.2262 1632.14C31.2262 1632.14 -79.2036 1671.22 -147.994 1696.12C-216.785 1721.02 -254 1770.98 -254 1822.93V1462.47Z" fill="white"/>
<path d="M2173.91 215.656C2173.91 311.423 2173.91 359.307 2154.94 398.704C2146.42 416.412 2135.23 432.605 2121.8 446.678C2091.93 477.99 2048.18 493.444 1960.68 524.351L1788.44 585.193C1663.07 629.478 1600.39 651.62 1553.63 626.881C1542.64 621.068 1532.55 613.589 1523.69 604.693C1486 566.828 1486 498.22 1486 361.003C1486 265.993 1486 218.487 1507.16 180.529C1512.29 171.327 1518.27 162.664 1525.03 154.665C1552.88 121.666 1596.28 106.334 1683.09 75.6709L1887.6 3.42875C1997.99 -35.5618 2053.18 -55.0572 2095.73 -37.5112C2150.26 -15.0288 2173.91 37.2274 2173.91 82.2047C2173.91 112.579 2173.91 168.539 2173.91 215.656Z" fill="url(#paint2_linear_1013_3818)"/>
<path fill-rule="evenodd" clip-rule="evenodd" d="M2173.91 441.531C2173.91 518.233 2173.91 581.118 2161.6 613.848C2150.73 642.753 2133.08 668.401 2110.26 688.48C2084.41 711.214 2049.41 723.73 1979.42 748.761L1955.3 757.389C1874.03 786.456 1833.39 800.989 1800.76 794.454C1765.46 787.382 1734.85 764.785 1716.88 732.521C1700.27 702.707 1700.27 634.807 1700.27 545.737C1700.27 475.458 1700.27 440.318 1710.63 410.022C1721.9 377.086 1741.85 348.081 1768.23 326.3C1792.49 306.264 1824.56 294.797 1888.68 271.863C1888.68 271.863 1999.11 232.78 2067.9 207.877C2136.69 182.975 2173.91 133.023 2173.91 81.0655L2173.91 441.531Z" fill="white"/>
</g>
<g opacity="0.5">
<path d="M1696.34 2174C1600.58 2174 1552.69 2174 1513.3 2155.03C1495.59 2146.51 1479.4 2135.32 1465.32 2121.9C1434.01 2092.02 1418.56 2048.27 1387.65 1960.77L1326.81 1788.53C1282.52 1663.16 1260.38 1600.48 1285.12 1553.72C1290.93 1542.73 1298.41 1532.64 1307.31 1523.79C1345.17 1486.09 1413.78 1486.09 1551 1486.09C1646.01 1486.09 1693.51 1486.09 1731.47 1507.25C1740.67 1512.38 1749.34 1518.37 1757.34 1525.12C1790.33 1552.97 1805.67 1596.37 1836.33 1683.18L1908.57 1887.7C1947.56 1998.08 1967.06 2053.27 1949.51 2095.82C1927.03 2150.35 1874.77 2174 1829.8 2174C1799.42 2174 1743.46 2174 1696.34 2174Z" fill="url(#paint3_linear_1013_3818)"/>
<path fill-rule="evenodd" clip-rule="evenodd" d="M1470.47 2174C1393.77 2174 1330.88 2174 1298.15 2161.69C1269.25 2150.82 1243.6 2133.17 1223.52 2110.35C1200.79 2084.5 1188.27 2049.5 1163.24 1979.52L1154.61 1955.39C1125.54 1874.12 1111.01 1833.48 1117.55 1800.86C1124.62 1765.55 1147.21 1734.94 1179.48 1716.97C1209.29 1700.36 1277.19 1700.36 1366.26 1700.36C1436.54 1700.36 1471.68 1700.36 1501.98 1710.72C1534.91 1721.99 1563.92 1741.94 1585.7 1768.32C1605.74 1792.58 1617.2 1824.65 1640.14 1888.77C1640.14 1888.77 1679.22 1999.2 1704.12 2067.99C1729.02 2136.79 1778.98 2174 1830.93 2174L1470.47 2174Z" fill="white"/>
<path d="M223.656 -253.909C319.423 -253.909 367.307 -253.909 406.704 -234.942C424.411 -226.417 440.605 -215.232 454.678 -201.804C485.99 -171.93 501.444 -128.181 532.351 -40.6829L593.193 131.558C637.478 256.927 659.62 319.612 634.881 366.373C629.068 377.36 621.589 387.448 612.693 396.305C574.828 434 506.22 434 369.003 434C273.992 434 226.487 434 188.528 412.839C179.326 407.709 170.664 401.726 162.665 394.974C129.666 367.122 114.334 323.719 83.6708 236.911L11.4286 32.396C-27.562 -77.9853 -47.0573 -133.176 -29.5114 -175.732C-7.02893 -230.261 45.2273 -253.909 90.2045 -253.909C120.579 -253.909 176.539 -253.909 223.656 -253.909Z" fill="url(#paint4_linear_1013_3818)"/>
<path fill-rule="evenodd" clip-rule="evenodd" d="M449.531 -253.909C526.233 -253.909 589.118 -253.909 621.847 -241.599C650.753 -230.728 676.401 -213.083 696.48 -190.256C719.214 -164.408 731.729 -129.413 756.76 -59.4249L765.389 -35.2994C794.456 45.9746 808.989 86.6116 802.454 119.236C795.381 154.542 772.785 185.148 740.521 203.124C710.707 219.733 642.807 219.733 553.736 219.733C483.458 219.733 448.318 219.733 418.022 209.369C385.086 198.101 356.081 178.147 334.3 151.771C314.264 127.509 302.797 95.4448 279.863 31.3175C279.863 31.3175 240.779 -79.1123 215.877 -147.903C190.975 -216.694 141.023 -253.909 89.0654 -253.909L449.531 -253.909Z" fill="white"/>
</g>
<g opacity="0.49">
<path d="M902 1228.41C902 1216.96 902 1211.23 904.35 1206.52C905.406 1204.4 906.793 1202.46 908.456 1200.78C912.158 1197.04 917.579 1195.19 928.42 1191.49L949.761 1184.21C965.295 1178.92 973.062 1176.27 978.856 1179.23C980.217 1179.92 981.467 1180.82 982.564 1181.88C987.235 1186.41 987.235 1194.62 987.235 1211.03C987.235 1222.39 987.235 1228.07 984.613 1232.61C983.977 1233.72 983.236 1234.75 982.399 1235.71C978.948 1239.65 973.571 1241.49 962.815 1245.16L937.475 1253.8C923.798 1258.46 916.96 1260.79 911.686 1258.69C904.931 1256 902 1249.75 902 1244.37V1228.41Z" fill="url(#paint5_linear_1013_3818)"/>
<path fill-rule="evenodd" clip-rule="evenodd" d="M902 1201.4C902 1192.22 902 1184.7 903.525 1180.79C904.872 1177.33 907.059 1174.26 909.887 1171.86C913.09 1169.14 917.426 1167.64 926.098 1164.65L929.087 1163.62C939.157 1160.14 944.192 1158.4 948.235 1159.18C952.609 1160.03 956.401 1162.73 958.628 1166.59C960.687 1170.16 960.687 1178.28 960.687 1188.93C960.687 1197.34 960.687 1201.54 959.402 1205.17C958.006 1209.11 955.534 1212.57 952.266 1215.18C949.266 1217.57 945.305 1218.94 937.396 1221.67C937.375 1221.68 937.365 1221.68 937.354 1221.69C937.346 1221.69 937.337 1221.69 937.328 1221.69C937.318 1221.7 937.309 1221.7 937.291 1221.71C936.384 1222.02 923.358 1226.47 915.135 1229.34C906.611 1232.32 902 1238.3 902 1244.51V1201.4Z" fill="url(#paint6_linear_1013_3818)"/>
<path fill-rule="evenodd" clip-rule="evenodd" d="M902 1244.45C902 1244.42 902 1244.4 902 1244.37V1228.41C902 1216.96 902 1211.23 904.35 1206.52C905.406 1204.4 906.793 1202.46 908.456 1200.78C912.158 1197.04 917.579 1195.19 928.42 1191.49L949.761 1184.21C953.904 1182.8 957.493 1181.58 960.641 1180.6C960.687 1183.15 960.687 1185.94 960.687 1188.93C960.687 1197.34 960.687 1201.54 959.402 1205.17C958.006 1209.11 955.534 1212.57 952.266 1215.18C949.266 1217.57 945.305 1218.94 937.396 1221.67L937.354 1221.69L937.328 1221.69L937.291 1221.71C936.384 1222.02 923.358 1226.47 915.135 1229.34C906.641 1232.31 902.032 1238.25 902 1244.45Z" fill="url(#paint7_linear_1013_3818)"/>
</g>
</g>
<defs>
<linearGradient id="paint0_linear_1013_3818" x1="960" y1="1920" x2="960" y2="0" gradientUnits="userSpaceOnUse">
<stop stop-color="#4B53D5"/>
<stop offset="1" stop-color="#9EA4FF"/>
</linearGradient>
<linearGradient id="paint1_linear_1013_3818" x1="409.663" y1="1714.9" x2="-236.843" y2="1356.28" gradientUnits="userSpaceOnUse">
<stop stop-color="white"/>
<stop offset="1" stop-color="white" stop-opacity="0.12"/>
</linearGradient>
<linearGradient id="paint2_linear_1013_3818" x1="1510.25" y1="189.099" x2="2156.75" y2="547.72" gradientUnits="userSpaceOnUse">
<stop stop-color="white"/>
<stop offset="1" stop-color="white" stop-opacity="0.12"/>
</linearGradient>
<linearGradient id="paint3_linear_1013_3818" x1="1722.9" y1="1510.34" x2="1364.28" y2="2156.84" gradientUnits="userSpaceOnUse">
<stop stop-color="white"/>
<stop offset="1" stop-color="white" stop-opacity="0.12"/>
</linearGradient>
<linearGradient id="paint4_linear_1013_3818" x1="197.099" y1="409.754" x2="555.72" y2="-236.752" gradientUnits="userSpaceOnUse">
<stop stop-color="white"/>
<stop offset="1" stop-color="white" stop-opacity="0.12"/>
</linearGradient>
<linearGradient id="paint5_linear_1013_3818" x1="991.498" y1="1236.39" x2="896.478" y2="1200.49" gradientUnits="userSpaceOnUse">
<stop stop-color="#626AFF"/>
<stop offset="1" stop-color="#4650FF"/>
</linearGradient>
<linearGradient id="paint6_linear_1013_3818" x1="900.367" y1="1210.23" x2="974.354" y2="1177.54" gradientUnits="userSpaceOnUse">
<stop stop-color="#54FFFF"/>
<stop offset="1" stop-color="#68FFFF"/>
</linearGradient>
<linearGradient id="paint7_linear_1013_3818" x1="904.591" y1="1205.45" x2="1027.82" y2="1238.06" gradientUnits="userSpaceOnUse">
<stop stop-color="#21BEFF"/>
<stop offset="1" stop-color="#68FFFF"/>
</linearGradient>
<clipPath id="clip0_1013_3818">
<rect width="1920" height="1920" fill="white"/>
</clipPath>
</defs>
</svg>
