<svg width="104" height="104" viewBox="0 0 104 104" fill="none" xmlns="http://www.w3.org/2000/svg">
<rect width="104" height="104" rx="24" fill="white"/>
<g clip-path="url(#clip0_1764_24145)">
<rect x="12" y="12" width="80" height="80" fill="url(#paint0_linear_1764_24145)"/>
<rect width="80.1562" height="80.1562" transform="translate(11.9219 11.9219)" fill="white"/>
<path d="M28.7969 61.9037C28.7969 55.4993 28.7969 52.2972 30.1108 49.6625C30.7014 48.4784 31.4763 47.3955 32.4065 46.4543C34.4761 44.3604 37.5069 43.3269 43.5685 41.26L55.5009 37.1913C64.1861 34.2297 68.5287 32.749 71.7681 34.4034C72.5293 34.7922 73.2282 35.2923 73.8417 35.8872C76.4531 38.4194 76.4531 43.0075 76.4531 52.1837C76.4531 58.5375 76.4531 61.7144 74.9872 64.2528C74.6318 64.8682 74.2173 65.4475 73.7495 65.9824C71.82 68.1892 68.8132 69.2145 62.7994 71.2651L48.6312 76.0962C40.9843 78.7037 37.1609 80.0074 34.2127 78.834C30.4352 77.3305 28.7969 73.8359 28.7969 70.8281C28.7969 68.7969 28.7969 65.0546 28.7969 61.9037Z" fill="url(#paint1_linear_1764_24145)"/>
<path fill-rule="evenodd" clip-rule="evenodd" d="M28.7969 46.7985C28.7969 41.6691 28.7969 37.4638 29.6496 35.275C30.4027 33.342 31.6251 31.6268 33.2066 30.2841C34.9972 28.7637 37.4215 27.9268 42.2701 26.2528L43.9415 25.6758C49.5719 23.732 52.3871 22.7601 54.6472 23.1971C57.0931 23.6701 59.2134 25.1812 60.4587 27.3389C61.6094 29.3326 61.6094 33.8734 61.6094 39.8299C61.6094 44.5297 61.6094 46.8796 60.8913 48.9057C60.1108 51.1082 58.7284 53.0479 56.9011 54.5045C55.2242 55.8413 53.0093 56.6077 48.5872 58.1343C48.5755 58.1383 48.5697 58.1404 48.5641 58.1423C48.5591 58.144 48.5544 58.1456 48.5493 58.1473C48.5438 58.1492 48.5387 58.151 48.5285 58.1545C48.0213 58.3278 40.7385 60.8172 36.1406 62.4239C31.375 64.0892 28.7969 67.4297 28.7969 70.9043V46.7985Z" fill="url(#paint2_linear_1764_24145)"/>
<path fill-rule="evenodd" clip-rule="evenodd" d="M28.7969 61.9037V70.8281C28.7969 70.8413 28.7969 70.8546 28.797 70.8678C28.815 67.4063 31.3917 64.0834 36.1406 62.4239C40.7385 60.8172 48.0213 58.3278 48.5285 58.1545L48.5493 58.1473L48.5641 58.1423L48.5872 58.1343C53.0093 56.6077 55.2242 55.8413 56.9011 54.5045C58.7284 53.0479 60.1108 51.1082 60.8913 48.9057C61.6094 46.8796 61.6094 44.5297 61.6094 39.8299C61.6094 38.1562 61.6094 36.5944 61.5839 35.1694C59.824 35.7171 57.8168 36.4015 55.5009 37.1913L43.5685 41.26C37.5069 43.3269 34.4761 44.3604 32.4065 46.4543C31.4763 47.3955 30.7014 48.4784 30.1108 49.6625C28.7969 52.2972 28.7969 55.4993 28.7969 61.9037Z" fill="url(#paint3_linear_1764_24145)"/>
</g>
<rect x="11.75" y="11.75" width="80.5" height="80.5" rx="24.25" stroke="#DCDCDC" stroke-width="0.5"/>
<defs>
<linearGradient id="paint0_linear_1764_24145" x1="52" y1="12" x2="52" y2="92" gradientUnits="userSpaceOnUse">
<stop stop-color="#E8EBEE"/>
<stop offset="1" stop-color="#CED3DB"/>
</linearGradient>
<linearGradient id="paint1_linear_1764_24145" x1="78.5234" y1="67.1953" x2="25.396" y2="47.1189" gradientUnits="userSpaceOnUse">
<stop stop-color="#626AFF"/>
<stop offset="1" stop-color="#4650FF"/>
</linearGradient>
<linearGradient id="paint2_linear_1764_24145" x1="25.7891" y1="47" x2="67.1562" y2="28.7187" gradientUnits="userSpaceOnUse">
<stop stop-color="#54FFFF"/>
<stop offset="1" stop-color="#68FFFF"/>
</linearGradient>
<linearGradient id="paint3_linear_1764_24145" x1="30.5156" y1="48.0433" x2="99.4124" y2="66.2755" gradientUnits="userSpaceOnUse">
<stop stop-color="#21BEFF"/>
<stop offset="1" stop-color="#68FFFF"/>
</linearGradient>
<clipPath id="clip0_1764_24145">
<rect x="12" y="12" width="80" height="80" rx="24" fill="white"/>
</clipPath>
</defs>
</svg>
