<svg width="260" height="407" viewBox="0 0 260 407" fill="none" xmlns="http://www.w3.org/2000/svg">
<path d="M201.877 379.026C202.57 380.233 203.905 382.414 204.825 383.859C205.802 385.305 207.968 387.885 209.719 389.67C212.602 392.529 213.171 392.95 215.498 393.794C217.078 394.386 218.667 394.63 219.745 394.455C220.648 394.276 222.083 393.762 222.907 393.319C223.937 392.737 224.77 391.946 225.704 390.608C226.399 389.552 227.409 387.519 227.939 386.112C228.469 384.705 229.175 382.113 229.512 380.323C229.877 378.564 230.215 374.512 230.271 371.294C230.354 368.106 230.093 362.589 229.664 359.039C229.263 355.519 228.469 350.394 227.901 347.711C227.391 345.03 226.18 340.358 225.273 337.318C224.367 334.278 222.858 329.889 221.875 327.543C220.892 325.197 219.356 321.851 218.416 320.086C217.476 318.322 215.782 315.464 214.667 313.753C213.493 312.041 211.698 309.732 210.597 308.572C209.496 307.412 207.711 305.829 206.571 305.045C205.403 304.232 203.598 303.402 202.357 303.166C201.146 302.903 199.405 302.916 198.44 303.21C197.212 303.584 196.151 304.252 194.93 305.468C193.887 306.514 192.714 308.136 192.038 309.569C191.395 310.858 190.512 313.561 190.083 315.551C189.626 317.511 189.189 321.995 189.126 325.503C189.093 328.983 189.194 333.974 189.416 336.59C189.609 339.176 190.265 344.036 190.874 347.359C191.483 350.681 192.954 356.52 194.159 360.35C195.363 364.181 197.313 369.452 198.492 372.064C199.7 374.648 201.213 377.79 201.877 379.026Z" fill="#223859"/>
<path d="M203.302 382.195C203.354 382.428 204.022 383.49 204.72 384.523C205.418 385.556 207.304 387.722 211.679 392.332L208.783 388.863C207.208 386.966 205.27 384.566 204.542 383.561C203.785 382.585 203.25 381.962 203.302 382.195Z" fill="#203657" fill-opacity="0.4"/>
<path d="M197.022 369.503C196.821 369.41 197.333 370.903 198.239 372.87C199.144 374.836 200.14 376.66 200.451 376.987C200.761 377.315 200.191 375.821 199.204 373.649C198.217 371.477 197.222 369.595 197.022 369.503Z" fill="#203657" fill-opacity="0.4"/>
<path d="M188.96 326.282C188.791 326.104 188.64 327.434 188.595 329.173C188.549 330.912 188.624 332.48 188.765 332.629C188.934 332.807 189.113 331.506 189.159 329.767C189.205 328.028 189.13 326.46 188.96 326.282Z" fill="#203657" fill-opacity="0.4"/>
<path d="M194.768 305C193.697 306.016 192.498 307.493 192.099 308.324C191.7 309.154 191.452 309.786 191.541 309.701C191.629 309.675 192.08 309.077 192.474 308.42C192.868 307.764 193.796 306.657 194.483 305.891C195.199 305.156 196.385 304.143 197.181 303.67C198.361 302.889 198.451 302.804 197.634 302.957C197.11 303.059 195.81 303.954 194.768 305Z" fill="#203657" fill-opacity="0.4"/>
<path d="M209.631 307.793C211.555 309.641 213.187 311.54 214.302 313.251C215.222 314.696 216.313 316.203 216.679 316.648C217.074 317.064 216.887 316.45 216.278 315.332C215.669 314.214 213.566 311.463 211.622 309.295C208.862 306.149 207.73 305.075 206.385 304.373C205.356 303.825 205.037 303.787 205.664 304.21C206.205 304.601 207.989 306.242 209.631 307.793Z" fill="#203657" fill-opacity="0.4"/>
<path d="M218.789 385.526C218.531 386.505 218.022 388.232 217.672 389.412C217.292 390.621 217.119 391.689 217.26 391.838C217.43 392.016 218.354 392.156 219.282 392.181C220.267 392.206 221.406 391.917 221.882 391.465C222.356 391.071 223.189 390.281 223.726 389.715C224.263 389.149 225.239 387.318 225.833 385.68C226.485 384.044 227.197 381.22 227.505 379.401C227.814 377.582 228.068 373.441 228.095 370.193C228.151 366.917 227.953 362.301 227.668 359.915C227.412 357.501 226.716 353.075 226.128 350.072C225.569 347.041 224.227 341.815 223.184 338.453C222.111 335.118 220.356 330.171 219.236 327.503C218.147 324.806 216.361 321.019 215.31 319.077C213.982 316.606 212.359 314.36 210.023 311.66C207.797 309.137 206.073 307.439 205.016 306.803C204.018 306.168 202.492 305.751 201.044 305.655C199.712 305.563 198.462 305.675 198.284 305.845C198.075 306.042 198.559 307.505 199.386 309.151C200.213 310.796 202.225 314.822 203.821 318.112C205.417 321.401 207.203 325.189 207.807 326.481C208.381 327.801 209.06 329.588 209.298 330.435C209.508 331.311 210.297 333.274 210.953 334.8C211.667 336.326 213.12 340.656 214.24 344.398C215.33 348.168 216.77 354.093 217.376 357.531C218.011 360.998 218.749 366.006 218.998 368.71C219.275 371.385 219.419 375.884 219.374 378.697C219.301 381.479 219.017 384.575 218.789 385.526Z" fill="white"/>
<path d="M204.47 378.542C205.661 380.69 206.911 382.781 207.217 383.282C207.553 383.755 209.3 385.715 211.136 387.59C212.972 389.464 214.613 391.015 214.815 391.05C214.989 391.054 215.576 389.706 216.171 388.01C216.928 385.71 217.225 383.223 217.323 378.382C217.417 374.788 217.35 371.799 217.12 371.735C216.947 371.673 216.715 370.594 216.634 369.258C216.553 367.921 216.324 365.595 216.101 364.11C215.909 362.597 215.803 361.115 215.87 360.769C215.965 360.452 215.858 360.102 215.628 360.038C215.398 359.974 215.349 359.624 215.502 359.309C215.655 358.994 215.607 358.645 215.376 358.581C215.146 358.517 215.035 358.34 215.154 358.227C215.33 358.116 214.981 355.96 214.468 353.395C213.926 350.857 212.721 345.896 211.741 342.361C210.818 338.828 209.967 335.905 209.882 335.816C209.798 335.727 209.041 333.619 208.15 331.072C207.288 328.556 205.85 324.777 204.948 322.694C204.075 320.584 201.9 316.148 200.16 312.825C198.449 309.474 196.954 306.767 196.868 306.736C196.78 306.763 196.21 307.473 195.577 308.414C194.945 309.296 194.178 310.872 193.775 311.876C193.429 312.882 192.883 314.927 192.555 316.369C192.255 317.84 191.819 321.193 191.605 323.827C191.42 326.49 191.42 330.899 191.639 333.631C191.827 336.391 192.535 341.485 193.141 344.923C193.775 348.391 195.184 354.402 196.329 358.289C197.474 362.176 199.279 367.473 200.343 370.024C201.377 372.603 203.25 376.422 204.47 378.542Z" fill="#EFEFFF"/>
<ellipse cx="121.58" cy="397.058" rx="44.6306" ry="9.23391" fill="#EFEFFF" fill-opacity="0.36"/>
<path d="M125.775 289.329L114.158 317.031H126.966L138.509 289.329H125.775Z" fill="#297AD7"/>
<path d="M101.573 304.889L110.062 317.031L115.126 304.889H101.573Z" fill="#297AD7"/>
<path d="M125.775 289.329L114.158 317.031H126.966L138.509 289.329H125.775Z" fill="#297AD7"/>
<path d="M101.573 304.889L110.062 317.031L115.126 304.889H101.573Z" fill="#297AD7"/>
<path d="M153.336 32.3187C153.336 49.8572 139.118 64.0749 121.58 64.0749C104.041 64.0749 89.8237 49.8572 89.8237 32.3187C89.8237 14.7802 104.041 0.5625 121.58 0.5625C139.118 0.5625 153.336 14.7802 153.336 32.3187Z" fill="#E4E5FF" stroke="#757DFF" stroke-width="1.125"/>
<path d="M114.433 24.5376C115.548 23.5567 117.331 22.5311 118.445 22.1744C119.56 21.8623 121.164 21.5502 122.011 21.5502C122.858 21.5056 124.642 21.8177 125.934 22.1744C127.45 22.6203 128.966 23.5121 130.303 24.7606C131.462 25.7861 132.799 27.4359 133.29 28.4169C134.048 29.7991 134.271 31.003 134.271 33.7676C134.271 36.3983 134.048 37.736 133.424 38.8953C132.978 39.7425 132.042 41.1693 130.125 43.5772L129.813 63.6868L133.156 64.4448C134.984 64.8461 137.703 65.7825 139.174 66.4513C140.645 67.1648 142.562 68.3241 143.409 69.0821C144.256 69.8401 145.282 71.2224 145.727 72.1587C146.129 73.0951 146.53 74.2098 146.663 74.5666C146.797 75.0124 148.892 75.7259 152.815 76.7514C156.114 77.554 161.285 79.1146 164.361 80.2294C167.437 81.3441 172.564 83.4844 175.729 85.0004C178.894 86.5164 183.441 88.9242 185.759 90.3511C188.077 91.7779 192.624 94.8992 195.789 97.307C198.954 99.7148 203.591 103.505 206.042 105.69C208.494 107.919 211.793 111.174 213.398 112.958C215.003 114.741 217.365 117.506 218.703 119.111C219.996 120.716 222.225 123.659 223.606 125.621C224.988 127.583 227.307 131.105 228.778 133.424C230.204 135.743 232.701 140.38 234.305 143.68C235.955 146.979 238.095 152.196 239.12 155.273C240.145 158.349 241.483 163.343 242.107 166.42C242.731 169.497 243.444 174.089 243.711 176.675C243.934 179.262 244.157 183.498 244.157 186.173C244.157 188.804 243.934 192.906 243.667 195.269C243.444 197.677 242.82 201.645 242.33 204.098C241.839 206.55 240.725 210.742 239.833 213.461C238.942 216.181 236.98 220.863 235.42 223.94C233.815 227.017 231.185 231.431 229.535 233.705C227.886 236.024 224.632 239.903 222.314 242.266C218.881 245.789 217.499 246.903 211.838 249.489L156.114 249.891L158.789 251.095C160.26 251.763 162.667 253.101 164.138 254.127C165.609 255.108 167.838 256.891 169.087 258.095C170.335 259.299 172.296 261.573 173.455 263.178C174.659 264.783 176.264 267.414 177.111 269.109C177.958 270.758 179.206 273.835 179.919 275.975C180.677 278.16 181.658 281.906 182.148 284.358C182.639 286.81 183.174 290.333 183.307 292.161C183.486 293.989 183.396 298.493 183.084 302.194C182.728 306.92 182.104 310.71 180.989 315.125C180.142 318.558 178.805 323.061 178.002 325.157C177.155 327.253 175.506 330.954 174.258 333.406C173.054 335.858 170.825 339.648 169.399 341.878C167.928 344.107 165.253 347.675 163.381 349.904C161.553 352.133 158.655 355.166 156.961 356.637C155.267 358.153 152.28 360.516 150.319 361.943C148.357 363.325 144.836 365.466 142.518 366.625C140.2 367.784 136.366 369.345 134.048 370.103C131.73 370.861 128.119 371.619 126.024 371.842C123.928 372.065 120.719 372.065 118.891 371.886C117.063 371.708 113.943 371.128 111.981 370.638C110.02 370.103 106.498 368.854 104.18 367.829C101.862 366.803 97.9389 364.618 95.4871 363.013C93.0352 361.363 89.246 358.376 87.0617 356.325C84.8327 354.274 81.4447 350.528 79.4833 348.076C77.4772 345.579 74.5796 341.343 72.9748 338.712C71.4145 336.037 69.141 331.622 67.9374 328.947C66.7338 326.272 65.0843 321.724 64.2819 318.915C63.4795 316.105 62.4542 311.78 62.0084 309.328C61.4289 306.118 61.206 302.55 61.206 296.62C61.1614 291.492 61.3843 287.123 61.7855 285.027C62.0976 283.199 62.8554 280.167 63.3904 278.339C63.9253 276.51 64.906 273.79 65.4855 272.319C66.0651 270.848 67.3579 268.44 68.294 266.968C69.2302 265.497 71.1916 262.822 72.7073 260.993C74.223 259.165 76.5411 256.847 77.8784 255.821C79.2158 254.751 81.5339 253.324 83.005 252.566C84.4761 251.808 86.2593 250.961 87.0171 250.604C88.1316 250.158 83.8074 250.025 33.0768 249.534L29.9563 248.063C27.5044 246.903 25.9888 245.744 22.8237 242.534C20.5947 240.26 17.7863 237.138 16.5826 235.533C15.379 233.928 13.1946 230.717 11.7681 228.399C10.3862 226.08 8.33556 222.067 7.22109 219.481C6.1512 216.895 4.76926 212.971 4.10057 210.786C3.47647 208.601 2.54032 204.588 2.04995 201.868C1.47043 198.792 1.02464 194.065 0.890903 189.16C0.712588 184.345 0.846324 179.395 1.15838 176.23C1.47043 173.421 2.18369 168.783 2.76321 165.974C3.38731 163.165 4.59094 158.662 5.48252 155.942C6.37409 153.222 8.06809 148.941 9.18255 146.355C10.3416 143.769 12.5705 139.488 14.0862 136.768C15.6465 134.048 18.232 129.946 19.8369 127.628C21.3971 125.309 24.2502 121.474 26.1225 119.156C27.9502 116.837 31.9177 112.512 34.8599 109.569C37.8021 106.626 42.4383 102.435 45.113 100.25C47.7878 98.1096 52.424 94.7208 55.3662 92.7589C58.3084 90.8416 63.212 87.9433 66.288 86.3827C69.3639 84.822 74.1784 82.6372 76.9869 81.567C79.7953 80.4523 84.5207 78.8471 87.4629 77.9553C90.4051 77.1081 94.4172 76.0826 99.9449 74.9233L100.524 72.9613C100.837 71.802 101.728 70.3306 102.709 69.3496C103.645 68.4579 105.606 67.1648 107.078 66.4959C108.549 65.8717 111.045 64.9799 112.65 64.5786C114.255 64.1773 115.949 63.8652 116.439 63.8652C117.286 63.8652 117.331 63.5976 117.063 45.3607L114.701 43.1313C113.408 41.8828 111.847 39.8763 111.268 38.6724C110.51 37.0226 110.243 35.6403 110.243 33.5446C110.243 31.3598 110.51 30.1113 111.313 28.4615C111.937 27.2576 113.319 25.474 114.433 24.5376Z" fill="#223859"/>
<path d="M129.813 62.8838C129.947 62.3042 130.081 57.6669 130.125 52.4946L130.259 43.1309L130.348 53.2526C130.482 62.5271 130.571 63.4189 131.285 63.5972C131.686 63.6864 131.507 63.7756 130.839 63.8202C129.769 63.8648 129.635 63.731 129.813 62.8838Z" fill="#203657" fill-opacity="0.4"/>
<path d="M116.841 63.2851L116.529 53.8768C116.351 48.3478 116.395 44.6469 116.618 44.9144C116.841 45.1374 117.108 49.5071 117.287 63.7756L115.058 64.0431C113.854 64.2215 112.74 64.2215 112.606 64.1323C112.517 63.9985 113.408 63.7756 116.841 63.2851Z" fill="#203657" fill-opacity="0.4"/>
<path d="M99.7227 73.4514C99.7227 72.9609 100.124 71.8908 100.659 71.0436C101.194 70.241 101.684 69.6168 101.773 69.7059C101.863 69.7951 101.506 70.6869 101.016 71.6679C100.525 72.6488 100.124 73.7635 100.169 74.1203C100.169 74.6107 99.0986 75.012 96.4685 75.5917C94.4624 76.0376 90.3612 77.1077 87.419 77.9549C84.4768 78.8467 79.796 80.4519 76.943 81.5666C74.1345 82.6368 69.32 84.8216 66.2441 86.3823C63.2127 87.9429 58.2645 90.8412 55.3223 92.7585C52.3801 94.7204 47.7885 98.1092 45.0691 100.249C42.3944 102.434 37.7582 106.626 34.816 109.569C31.8738 112.511 27.9509 116.837 26.0786 119.155C24.2063 121.474 21.3978 125.309 19.793 127.627C18.1881 129.946 15.6026 134.048 14.0869 136.768C12.5266 139.488 10.3423 143.768 9.18323 146.355C8.02418 148.941 6.37477 153.221 5.43861 155.941C4.54704 158.661 3.34341 163.165 2.76388 165.974C2.13978 168.783 1.42652 173.42 1.15905 176.229C0.802418 179.395 0.71326 184.344 0.846997 189.16C1.02531 194.065 1.4711 198.791 2.00605 201.868C2.54099 204.588 3.43257 208.601 4.10125 210.786C4.72535 212.971 6.15187 216.894 7.22176 219.481C8.29165 222.067 10.3423 226.08 11.7688 228.398C13.1953 230.717 15.2459 233.838 16.405 235.31C17.5195 236.781 19.9713 239.635 21.8436 241.641C23.7159 243.692 25.0533 245.342 24.7858 245.342C24.5629 245.342 22.7352 243.603 20.7737 241.418C18.8122 239.278 15.9146 235.711 14.3098 233.526C12.7495 231.341 10.164 226.882 8.55913 223.717C6.99887 220.551 4.99282 215.735 4.14583 213.015C3.29883 210.295 2.18436 206.015 1.69399 203.429C1.20363 200.842 0.534945 195.938 0.267473 192.504C-0.0891576 188.001 -0.0891576 184.478 0.267473 179.796C0.490367 176.229 1.11447 171.146 1.60484 168.426C2.0952 165.706 3.16509 161.203 4.01209 158.394C4.85909 155.584 6.59766 150.858 7.80129 147.915C9.04949 144.972 11.5013 140.067 13.2399 136.991C15.023 133.914 17.7424 129.5 19.3472 127.181C20.952 124.863 23.7605 121.028 25.6328 118.709C27.5051 116.391 31.428 112.066 34.3702 109.123C37.3124 106.18 41.9486 101.988 44.6234 99.8481C47.3427 97.6633 51.756 94.4083 54.4307 92.6247C57.15 90.8412 61.0729 88.4333 63.1236 87.274C65.2188 86.1593 68.7405 84.3757 70.9248 83.3948C73.1538 82.4138 77.1659 80.8086 79.8406 79.8277C82.5599 78.8467 86.884 77.509 89.425 76.7956C92.0106 76.0822 95.3986 75.235 96.9143 74.9229C99.2324 74.4324 99.7227 74.2094 99.7227 73.4514Z" fill="#203657" fill-opacity="0.4"/>
<path d="M153.173 76.8402C147.244 75.2796 146.709 75.0566 146.62 74.0757C146.53 73.0947 146.53 73.0947 146.887 73.8973C147.155 74.5216 148.046 74.9675 149.918 75.4133C151.345 75.7255 154.911 76.7064 157.853 77.5536C160.796 78.4008 165.432 79.9614 168.107 80.987C170.826 82.0571 175.15 83.9744 177.691 85.2675C180.277 86.5606 184.2 88.7009 186.384 90.0386C188.613 91.4208 193.026 94.4529 196.191 96.8607C199.401 99.2685 203.993 103.059 206.444 105.288C208.896 107.473 212.596 111.174 214.647 113.448C216.697 115.722 219.996 119.779 222.047 122.499C224.098 125.219 226.639 128.786 227.708 130.525C228.823 132.22 230.695 135.475 231.943 137.66C233.192 139.845 235.064 143.59 236.089 145.909C237.159 148.227 238.496 151.527 239.121 153.266C239.745 155.005 240.725 158.081 241.305 160.177C241.884 162.273 242.776 166.152 243.311 168.872C243.98 172.395 244.292 176.318 244.47 182.918C244.604 188.58 244.515 193.753 244.158 196.517C243.891 198.97 243.356 202.492 242.954 204.32C242.553 206.148 241.751 209.359 241.171 211.455C240.547 213.55 239.343 216.939 238.452 219.035C237.605 221.13 236 224.43 234.886 226.392C233.816 228.354 231.721 231.698 230.16 233.838C228.645 235.979 225.97 239.323 224.187 241.285C222.404 243.291 220.754 244.896 220.487 244.896C220.264 244.896 221.601 243.202 223.518 241.062C225.435 238.966 228.243 235.533 229.759 233.392C231.275 231.252 233.816 227.016 235.376 223.94C236.936 220.863 238.942 216.181 239.789 213.461C240.681 210.741 241.795 206.55 242.286 204.097C242.776 201.645 243.4 197.677 243.668 195.269C243.935 192.906 244.113 188.803 244.158 186.128C244.158 183.497 243.935 179.261 243.668 176.675C243.4 174.089 242.687 169.496 242.063 166.42C241.483 163.343 240.146 158.349 239.121 155.272C238.095 152.196 235.911 146.979 234.306 143.679C232.701 140.38 230.16 135.742 228.734 133.424C227.307 131.105 224.989 127.583 223.607 125.621C222.225 123.659 219.996 120.716 218.659 119.111C217.366 117.505 214.959 114.741 213.354 112.957C211.794 111.174 208.45 107.919 205.999 105.689C203.547 103.504 198.955 99.7144 195.745 97.3066C192.58 94.8988 188.078 91.7775 185.715 90.3507C183.397 88.9238 178.895 86.516 175.685 85C172.52 83.484 167.616 81.3883 164.763 80.3627C161.955 79.3372 156.739 77.732 153.173 76.8402Z" fill="#203657" fill-opacity="0.4"/>
<path d="M65.8874 250.202C53.9849 250.158 41.7703 249.98 38.8281 249.801C34.0136 249.489 34.2365 249.444 41.0571 249.623C45.2475 249.712 57.5512 249.801 68.473 249.801C79.3502 249.801 88.1323 249.935 87.9539 250.069C87.7756 250.202 77.8346 250.292 65.8874 250.202Z" fill="#203657" fill-opacity="0.4"/>
<path d="M156.739 250.158C156.382 250.069 166.323 249.935 178.805 249.801L178.82 249.801C191.342 249.667 203.862 249.534 211.794 249.489L206.221 249.801C203.19 249.98 190.931 250.158 179.028 250.202C167.17 250.247 157.14 250.202 156.739 250.158Z" fill="#203657" fill-opacity="0.4"/>
<path d="M61.0729 286.141C61.4741 283.689 62.232 280.166 62.7669 278.338C63.3019 276.51 63.8368 275.217 63.926 275.44C64.0151 275.663 63.7031 277.179 63.2127 278.784C62.7669 280.389 62.0982 283.198 61.7416 285.027C61.385 287.078 61.1621 291.537 61.1621 296.62C61.1621 302.55 61.4296 306.117 62.0091 309.328C62.4549 311.78 63.391 315.882 64.1043 318.468C64.8176 321.055 66.1103 324.8 66.9573 326.806C67.8043 328.858 68.4284 330.597 68.3839 330.73C68.3393 330.864 67.5814 329.482 66.779 327.743C65.932 325.959 64.6392 322.169 63.7922 319.36C62.9898 316.551 62.0091 312.449 61.5633 310.219C61.1621 307.99 60.7609 302.728 60.6271 298.403C60.4488 292.607 60.5826 289.441 61.0729 286.141Z" fill="#203657" fill-opacity="0.4"/>
<path d="M174.704 332.514C175.997 329.839 177.557 326.227 178.137 324.577C178.672 322.883 179.251 321.768 179.34 322.125C179.474 322.437 178.939 324.265 178.181 326.138C177.424 328.055 175.908 331.488 174.749 333.718C173.634 335.992 171.628 339.514 170.291 341.521C168.998 343.572 167.795 345.133 167.661 344.999C167.572 344.865 168.552 343.126 169.845 341.075C171.183 339.068 173.367 335.189 174.704 332.514Z" fill="#203657" fill-opacity="0.4"/>
<path d="M84.7443 355.031C83.4069 353.694 82.2924 352.356 82.2924 352.133C82.2924 351.91 83.4961 352.891 84.9672 354.363C86.4383 355.834 87.5527 357.127 87.419 357.261C87.2853 357.395 86.0816 356.369 84.7443 355.031Z" fill="#203657" fill-opacity="0.4"/>
<path d="M138.818 368.809C138.506 368.809 139.977 367.918 142.028 366.847C144.123 365.777 145.996 364.886 146.174 364.886C146.352 364.841 146.486 364.93 146.486 365.064C146.486 365.198 144.881 366.089 142.92 367.07C140.958 368.051 139.13 368.854 138.818 368.809Z" fill="#203657" fill-opacity="0.4"/>
<path d="M110.466 67.789C112.516 67.1202 115.503 66.3622 117.108 66.1393C118.713 65.9609 121.165 65.7379 122.591 65.6934C123.973 65.6934 126.692 65.8717 128.565 66.1393C130.481 66.4068 133.557 67.1202 135.385 67.6999C137.213 68.2795 139.62 69.3051 140.735 70.0185C141.849 70.7319 143.053 71.8467 143.409 72.4709C143.766 73.1397 143.989 73.764 143.855 73.8532C143.721 73.9869 141.448 73.8086 138.729 73.4073C136.009 73.0506 130.125 72.6493 125.578 72.5155C119.515 72.2925 115.548 72.4263 110.644 72.9614C106.988 73.3627 103.69 73.6748 103.422 73.6748C103.11 73.6748 102.843 73.4073 102.843 73.1397C102.887 72.8276 103.734 71.7575 104.804 70.7765C106.231 69.4388 107.657 68.6808 110.466 67.789Z" fill="white"/>
<path d="M111.758 75.4584C114.076 75.2354 116.707 74.9233 117.554 74.8341C118.401 74.7449 121.61 74.7449 124.686 74.8341C127.762 74.9679 132.443 75.3692 135.162 75.7259C137.882 76.1272 141.983 76.796 144.301 77.2865C146.619 77.777 150.542 78.758 152.994 79.516C155.446 80.274 158.165 81.2104 159.012 81.5671C159.859 81.9238 160.973 82.3697 161.464 82.5926C161.954 82.771 162.846 83.1277 163.47 83.3952C164.094 83.6182 167.571 85.3125 171.271 87.0961C174.927 88.9243 178.181 90.6632 178.493 90.9754C178.805 91.2429 179.563 91.5996 180.187 91.7334C180.811 91.8671 181.301 92.1347 181.301 92.4022C181.301 92.6697 181.747 92.9819 182.327 93.1602C182.862 93.294 183.709 93.8291 184.199 94.2749C184.689 94.7208 185.536 95.2113 186.116 95.3005C186.651 95.4343 187.097 95.7018 187.097 95.9693C187.097 96.2369 187.409 96.4152 187.765 96.4152C188.122 96.4152 188.434 96.5936 188.434 96.8611C188.434 97.1287 188.746 97.307 189.103 97.307C189.459 97.307 189.816 97.4854 189.905 97.7083C189.95 97.8867 192.089 99.6702 194.675 101.588C197.305 103.549 202.655 108.365 206.979 112.646C211.258 116.971 216.073 122.321 218.034 124.952C219.951 127.538 221.734 129.679 221.913 129.768C222.135 129.812 222.314 130.169 222.314 130.526C222.314 130.883 222.492 131.195 222.76 131.195C222.982 131.195 223.295 131.641 223.428 132.22C223.517 132.755 223.963 133.603 224.409 134.093C224.855 134.583 225.523 135.698 225.88 136.545C226.237 137.393 226.772 138.284 226.995 138.552C227.217 138.819 228.198 140.648 229.179 142.565C230.115 144.527 231.14 146.756 231.452 147.47C231.764 148.183 232.21 149.342 232.522 150.056C232.79 150.725 233.191 151.706 233.414 152.285C233.637 152.82 234.172 154.381 234.618 155.719C235.019 157.056 235.598 158.439 235.866 158.795C236.133 159.152 236.312 160.222 236.267 161.248C236.267 162.273 235.91 164.993 235.509 167.312C235.108 169.63 233.993 173.866 233.057 176.676C232.121 179.485 230.383 183.721 229.223 186.039C228.064 188.358 226.281 191.657 225.301 193.396C223.651 196.206 223.428 196.428 223.116 195.537C222.938 194.957 222.938 193.352 223.205 191.97C223.428 190.543 223.651 186.753 223.651 183.587C223.651 180.421 223.339 175.873 222.982 173.554C222.626 171.236 221.913 167.713 221.422 165.751C220.887 163.789 219.951 160.802 219.327 159.063C218.658 157.324 217.366 154.336 216.385 152.374C215.404 150.413 213.532 147.113 212.15 145.017C210.812 142.922 208.494 139.711 206.979 137.883C205.463 136.055 202.877 133.157 201.139 131.462C199.4 129.768 196.101 126.959 193.783 125.22C191.465 123.436 187.542 120.895 185.09 119.468C182.639 118.086 178.448 116.034 175.729 114.92C173.01 113.85 169.711 112.735 168.373 112.467C167.036 112.2 162.222 111.798 157.675 111.531C152.459 111.219 137.168 111.13 116.216 111.263C94.9522 111.397 81.6231 111.665 79.2159 111.977C77.1207 112.289 74.0448 113.002 72.3062 113.627C70.6122 114.206 67.0013 115.811 64.282 117.149C61.5627 118.442 57.5506 120.716 55.3662 122.143C53.1819 123.615 49.4818 126.379 47.1637 128.341C44.8456 130.258 41.5468 133.513 39.8082 135.564C38.0697 137.616 35.4841 140.915 34.013 142.922C32.5865 144.928 30.1347 149.209 28.5744 152.374C27.0141 155.54 25.0972 160.178 24.384 162.63C23.6262 165.082 22.69 168.783 22.3334 170.879C21.9322 172.975 21.3526 176.051 20.996 177.79C20.6394 179.529 20.3719 181.937 20.3273 185.37L18.4996 183.364C17.5189 182.249 15.7803 179.975 14.6658 178.236C13.5513 176.497 11.4561 172.707 10.0296 169.764C7.93442 165.484 7.48863 164.146 7.71152 163.076C7.88984 162.362 8.15731 161.426 8.33563 161.069C8.51394 160.713 9.04889 159.197 9.4501 157.725C9.85131 156.254 10.52 154.336 10.8766 153.489C11.2332 152.642 11.7682 151.438 11.9911 150.814C12.2586 150.19 12.7489 149.075 13.061 148.361C13.3512 147.698 14.5285 145.221 15.7319 142.69L16.0032 142.119C17.296 139.444 18.5442 137.036 18.7225 136.768C18.9008 136.545 20.2827 134.45 21.7093 132.22C23.1804 129.946 24.384 127.984 24.384 127.851C24.384 127.717 24.8744 127.092 25.4539 126.424C26.0334 125.71 28.084 123.258 30.0455 120.939C31.9624 118.621 35.5287 114.741 37.9805 112.289C40.4324 109.837 44.1324 106.403 46.2276 104.664C48.3228 102.925 52.0228 100.116 54.4747 98.4217C56.9265 96.7273 58.9771 95.1667 59.0663 94.9884C59.1109 94.81 59.4229 94.6317 59.735 94.6317C60.0024 94.5871 61.4735 93.8736 62.9446 92.9819C64.4157 92.0901 65.7085 91.2429 65.8423 91.1091C65.976 90.9308 67.135 90.3511 68.4278 89.7269C69.7206 89.1026 70.7459 88.523 70.7459 88.3892C70.7459 88.2554 71.7712 87.6758 73.064 87.1407C74.3568 86.561 76.5412 85.5801 77.8785 84.9558C79.2159 84.3762 80.9099 83.5736 81.6677 83.2615C82.4256 82.9493 83.7183 82.3697 84.5653 82.013C85.4123 81.6562 88.31 80.6307 91.0293 79.7835C93.7486 78.8917 98.5185 77.6878 101.728 77.0636C104.938 76.4393 109.44 75.7259 111.758 75.4584Z" fill="white"/>
<path d="M124.463 245.655C112.962 245.61 110.733 245.521 115.993 245.343C119.916 245.209 126.425 245.075 130.481 245.031C134.538 244.986 138.327 245.164 138.951 245.343C139.576 245.521 133.067 245.699 124.463 245.655Z" fill="white"/>
<path d="M136.277 250.56C128.565 250.649 116.038 250.649 108.415 250.56C100.792 250.515 107.122 250.47 122.457 250.47C137.792 250.47 143.989 250.515 136.277 250.56Z" fill="white"/>
<path d="M75.1146 266.3C75.9616 262.777 76.3628 261.796 77.6556 260.503L79.1713 258.942L165.476 259.21L166.769 260.414C167.437 261.083 168.864 262.822 169.889 264.293C170.914 265.764 172.386 268.172 173.143 269.644C173.901 271.115 174.971 273.568 175.461 275.128C176.353 277.759 176.353 278.071 175.729 281.148C175.372 282.887 174.57 285.963 173.946 287.925C173.322 289.887 171.717 293.722 170.38 296.397C169.042 299.073 166.635 302.996 165.075 305.092C163.47 307.188 160.795 310.309 159.056 312.003C156.382 314.634 155.891 314.946 155.891 314.144C155.891 313.564 156.337 311.557 156.872 309.685C157.585 306.965 157.808 305.047 157.808 301.079C157.764 297.423 157.496 294.926 156.828 292.384C156.337 290.422 154.955 286.9 153.796 284.581C152.058 281.014 151.121 279.721 147.689 276.332C144.747 273.389 142.741 271.829 140.289 270.58C138.461 269.599 135.563 268.351 133.825 267.771C132.086 267.191 129.01 266.522 126.915 266.255C124.82 265.987 121.744 265.943 120.005 266.077C118.267 266.255 115.503 266.745 113.764 267.191C112.026 267.637 109.039 268.752 107.078 269.688C105.116 270.625 102.129 272.542 100.391 273.88C98.6968 275.262 96.2896 277.67 95.0859 279.275C93.8823 280.836 92.1437 283.734 91.2076 285.696C90.316 287.658 89.2015 290.467 88.8003 291.938C88.3991 293.41 87.9533 297.021 87.8196 299.964C87.671 303.531 87.775 306.132 88.1316 307.767C88.4437 309.105 88.9341 311.022 89.2907 312.003C89.6027 312.984 90.1823 314.545 90.5389 315.481C90.9401 316.373 91.2522 317.488 91.2522 317.934C91.2522 318.439 90.212 317.651 88.1316 315.57C86.3931 313.876 83.9412 310.933 82.693 309.105C81.4003 307.277 79.5279 303.977 78.4581 301.748C77.4327 299.518 76.0062 295.728 75.3375 293.276C74.2231 289.085 74.1339 288.237 74.1339 279.676C74.1339 271.739 74.2676 269.956 75.1146 266.3Z" fill="white"/>
<path d="M115.102 27.3911C115.815 26.5439 117.152 25.4737 117.999 24.9832C119.203 24.359 120.317 24.1806 122.769 24.2698C125.489 24.4036 126.246 24.5819 127.851 25.7413C128.921 26.4993 130.214 27.9707 130.793 29.0854C131.462 30.3339 131.863 31.8946 131.908 33.3214C131.908 34.5253 131.73 36.2643 131.462 37.1115C131.195 37.9587 130.036 39.5193 128.921 40.5448C127.807 41.615 126.157 42.6405 125.266 42.908C124.33 43.131 122.858 43.3539 122.011 43.3539C121.164 43.3539 119.47 42.8635 118.222 42.2838C117.019 41.7041 115.458 40.6786 114.834 39.9652C114.166 39.2517 113.452 37.9587 113.14 37.1115C112.873 36.2643 112.65 34.8374 112.65 33.9902C112.65 33.143 112.917 31.6716 113.229 30.6906C113.497 29.7543 114.388 28.2828 115.102 27.3911Z" fill="#757DFF"/>
<path d="M120.986 46.2522C121.922 46.386 123.705 46.2076 124.909 45.8509C126.157 45.5388 127.272 45.2267 127.495 45.1821C127.673 45.1821 127.807 48.6154 127.807 52.8068C127.807 57.0428 127.896 61.1004 128.297 63.1961H118.757L119.069 59.1831C119.203 56.9536 119.337 53.1189 119.337 46.0293L120.986 46.2522Z" fill="#757DFF"/>
<path d="M126.246 72.6489C124.285 72.7381 120.852 72.7381 118.668 72.6489C116.483 72.6043 118.043 72.5151 122.234 72.5151C126.424 72.5151 128.207 72.6043 126.246 72.6489Z" fill="#EFEFFF"/>
<path d="M235.464 167.534C235.821 165.305 236.133 163.031 236.133 162.407C236.133 161.693 236.266 161.47 236.534 161.738C236.757 161.961 237.425 164.369 238.05 167.089C238.674 169.764 239.432 173.599 239.654 175.56C239.922 177.522 240.234 181.045 240.412 183.364C240.546 185.682 240.457 190.007 240.189 192.95C239.877 195.893 239.253 200.218 238.763 202.537C238.272 204.855 237.292 208.556 236.534 210.786C235.776 212.971 234.394 216.493 233.413 218.589C232.433 220.685 230.739 223.895 229.669 225.723C228.554 227.551 226.548 230.583 225.122 232.501C223.695 234.373 221.154 237.361 219.416 239.189C217.32 241.374 215.404 242.89 210.946 245.119L176.397 245.476C149.605 245.788 141.18 245.744 138.951 245.342C136.677 244.896 131.774 244.896 115.547 245.342C100.97 245.699 86.1697 245.744 33.9679 245.119L31.0703 243.693C28.7076 242.578 27.4594 241.508 24.2497 237.941C22.0654 235.488 18.9003 231.431 17.1617 228.844C15.4677 226.258 13.1942 222.334 12.1243 220.15C11.0544 217.92 9.36042 213.729 8.37969 210.786C7.39895 207.843 6.2399 203.741 5.79412 201.645C5.12544 198.524 4.9917 195.759 4.9917 186.262C4.9917 175.828 5.12544 174.223 6.06159 169.987C6.59654 167.401 7.17606 165.082 7.3098 164.859C7.44353 164.592 8.69174 166.821 10.0737 169.764C11.5002 172.707 13.5508 176.497 14.6653 178.236C15.7798 179.93 17.5183 182.249 20.3268 185.37L20.416 182.472C20.5051 180.242 20.5943 180.777 20.8172 184.701C20.9955 187.51 21.4413 191.613 21.8425 193.842C22.2437 196.027 23.0461 199.549 23.6702 201.645C24.2497 203.741 25.4979 207.13 26.3895 209.225C27.2811 211.321 28.7968 214.308 29.7329 215.914C30.6691 217.519 32.586 220.417 34.0571 222.379C35.5282 224.341 37.98 227.284 39.5848 228.934C41.6355 231.074 42.9282 232.01 44.221 232.367C45.4692 232.724 69.2297 232.857 122.457 232.857C189.28 232.857 199.177 232.768 200.915 232.189C202.387 231.698 203.679 230.717 205.73 228.532C207.29 226.838 209.742 223.895 211.169 221.933C212.64 219.971 214.913 216.27 216.251 213.684C217.588 211.098 219.371 206.996 220.218 204.543C221.065 202.091 222.001 198.881 222.313 197.409C222.714 195.447 222.982 194.957 223.16 195.626C223.428 196.384 223.784 195.982 225.3 193.396C226.281 191.657 228.064 188.358 229.223 186.039C230.382 183.72 232.121 179.484 233.057 176.675C233.993 173.866 235.063 169.719 235.464 167.534Z" fill="#EFEFFF"/>
<path d="M135.385 250.113C128.163 250.203 116.394 250.203 109.306 250.113C102.218 250.069 108.102 250.024 122.457 250.024C136.811 250.024 142.606 250.069 135.385 250.113Z" fill="#EFEFFF"/>
<path d="M85.4564 254.082C86.7938 253.19 89.1564 252.031 90.6275 251.451L93.3468 250.47L152.325 250.693L155.133 251.941C156.649 252.61 158.922 253.859 160.126 254.706C161.374 255.509 163.113 256.846 165.698 259.165L124.552 259.12C101.951 259.12 82.5588 258.942 79.4828 258.496L81.2214 257.114C82.2021 256.356 84.119 254.974 85.4564 254.082Z" fill="#EFEFFF"/>
<path d="M70.0767 271.427C71.3695 268.707 73.1081 265.63 73.9105 264.605C74.7129 263.535 75.4262 262.777 75.5153 262.91C75.6045 263.044 75.2924 265.006 74.8912 267.28C74.3117 270.357 74.0888 273.612 74.1334 280.122C74.1334 288.103 74.2671 289.129 75.3816 293.276C76.0503 295.728 77.4322 299.518 78.4575 301.747C79.5274 303.932 81.3997 307.232 82.6925 309.105C83.9407 310.933 86.3925 313.831 88.1311 315.57C90.4938 317.933 91.2516 318.468 91.2516 317.8C91.2516 317.22 91.8757 317.933 92.8565 319.583C93.748 321.055 95.3083 323.239 96.3336 324.488C97.4035 325.692 99.5433 327.698 101.104 328.902C102.664 330.062 105.561 331.845 107.523 332.781C109.484 333.718 112.382 334.833 113.987 335.278C116.171 335.858 118.489 336.036 123.125 336.036C128.965 335.992 129.634 335.903 133.601 334.565C135.92 333.762 139.129 332.336 140.734 331.399C142.339 330.463 144.924 328.501 146.485 327.074C148.045 325.647 150.185 323.284 151.255 321.813C152.28 320.341 153.751 317.8 154.509 316.239C155.267 314.634 155.891 313.742 155.891 314.232C155.891 314.901 156.649 314.366 159.056 312.003C160.795 310.264 163.336 307.366 164.762 305.538C166.144 303.665 168.239 300.454 169.354 298.403C170.513 296.308 172.028 293.097 172.742 291.269C173.455 289.396 174.48 286.186 174.971 284.135C175.506 282.039 176.085 279.542 176.709 276.778L177.645 280.791C178.18 282.975 178.849 287.211 179.116 290.154C179.518 294.167 179.562 297.066 179.161 301.97C178.894 305.493 178.269 310.309 177.734 312.672C177.244 314.99 175.951 319.405 174.971 322.481C173.945 325.513 171.761 330.73 170.067 334.075C168.417 337.374 165.743 341.833 164.138 343.973C162.578 346.114 159.68 349.502 157.808 351.509C155.891 353.515 152.235 356.726 149.65 358.643C147.064 360.56 142.963 363.147 140.511 364.351C138.059 365.554 134.27 367.115 132.041 367.784C128.653 368.809 127.227 368.988 122.68 368.988C118.177 368.988 116.706 368.809 113.318 367.784C111.134 367.115 106.988 365.465 104.179 364.083C101.371 362.656 97.136 360.115 94.8179 358.331C92.4998 356.592 88.7998 353.248 86.5709 350.929C84.3865 348.611 81.2214 344.821 79.572 342.502C77.878 340.183 75.025 335.278 73.1972 331.622C71.3249 327.921 69.943 324.666 70.0767 324.354C70.2104 324.042 70.1213 323.819 69.8538 323.819C69.6309 323.819 69.408 323.462 69.408 323.016C69.408 322.571 69.2297 322.035 69.0068 321.813C68.7839 321.545 67.9369 318.959 67.1791 316.016C66.4213 313.073 65.4851 308.347 65.1285 305.538C64.7718 302.684 64.5044 298.403 64.5044 295.951C64.5044 293.499 64.8164 289.575 65.173 287.256C65.5297 284.893 66.2429 281.504 66.7333 279.676C67.2683 277.803 68.7394 274.102 70.0767 271.427Z" fill="#EFEFFF"/>
<path d="M72.3063 113.626C74.0003 113.002 76.9425 112.288 78.7702 112.066C80.5979 111.843 100.926 111.709 124.241 111.753C155 111.843 166.992 112.021 168.596 112.422C169.8 112.69 173.01 113.849 175.729 114.919C178.404 116.034 182.639 118.085 185.091 119.467C187.542 120.894 191.465 123.436 193.783 125.219C196.102 126.958 199.4 129.767 201.139 131.462C202.878 133.156 205.463 136.054 206.979 137.883C208.494 139.711 210.813 142.921 212.15 145.017C213.532 147.113 215.404 150.412 216.385 152.374C217.366 154.336 218.658 157.323 219.327 159.062C219.951 160.801 220.887 163.789 221.422 165.751C221.913 167.713 222.626 171.235 222.983 173.554C223.339 175.872 223.651 180.465 223.651 183.72C223.651 187.555 223.339 191.345 222.804 194.644C222.314 197.364 221.199 201.734 220.308 204.32C219.416 206.906 217.589 211.098 216.251 213.684C214.914 216.27 212.64 219.971 211.169 221.933C209.743 223.895 207.38 226.793 205.953 228.354C204.527 229.914 202.699 231.43 201.941 231.787C200.693 232.322 188.077 232.411 122.234 232.411C53.5832 232.411 43.8204 232.322 42.6614 231.743C41.9035 231.386 39.8083 229.335 37.936 227.194C36.0637 225.01 33.3444 221.442 31.8733 219.258C30.4022 217.073 28.4408 213.639 27.5046 211.677C26.5684 209.716 25.1865 206.282 24.4287 204.097C23.7154 201.912 22.7347 198.39 22.2889 196.294C21.6648 193.351 21.4865 190.498 21.4865 183.363C21.4865 176.408 21.6648 173.375 22.2443 170.656C22.6901 168.694 23.6262 165.082 24.3841 162.63C25.1419 160.177 27.0142 155.54 28.5745 152.374C30.1347 149.208 32.5866 144.928 34.0131 142.921C35.4842 140.915 38.0698 137.615 39.8083 135.564C41.5469 133.513 44.8457 130.258 47.1638 128.341C49.4819 126.379 53.182 123.614 55.3663 122.143C57.5507 120.716 61.5628 118.442 64.2821 117.149C67.0014 115.811 70.6123 114.206 72.3063 113.626Z" fill="#223859"/>
<path d="M112.65 267.458C113.987 267.057 116.306 266.567 117.777 266.344C119.248 266.121 121.254 265.942 122.234 265.942C123.215 265.898 125.533 266.076 127.361 266.299C129.189 266.567 131.997 267.191 133.602 267.681C135.207 268.216 138.105 269.465 140.066 270.446C142.785 271.828 144.613 273.255 147.689 276.332C151.122 279.72 152.058 281.013 153.796 284.581C154.955 286.899 156.337 290.422 156.828 292.384C157.541 295.059 157.764 297.333 157.764 301.301C157.764 305.805 157.585 307.276 156.605 310.531C155.981 312.716 154.911 315.525 154.287 316.774C153.618 318.067 152.281 320.341 151.211 321.812C150.185 323.284 148.046 325.647 146.485 327.074C144.925 328.545 142.34 330.463 140.735 331.399C139.13 332.38 135.92 333.807 133.602 334.565C129.635 335.947 128.966 336.036 123.126 336.036C118.534 336.081 116.127 335.858 113.987 335.278C112.383 334.877 109.262 333.629 107.078 332.558C104.893 331.444 101.773 329.482 100.168 328.189C98.5632 326.851 96.2451 324.443 95.0414 322.838C93.7932 321.188 92.1884 318.602 91.386 317.041C90.6281 315.481 89.692 313.341 89.3354 312.226C88.9787 311.111 88.4438 309.105 88.1317 307.767C87.7751 306.132 87.6711 303.531 87.8197 299.964C87.9534 297.021 88.3992 293.409 88.8004 291.938C89.2016 290.466 90.3161 287.657 91.2077 285.695C92.1438 283.733 93.8824 280.835 95.086 279.274C96.2896 277.669 98.6523 275.261 100.391 273.879C102.085 272.542 105.027 270.669 106.855 269.777C108.683 268.93 111.313 267.86 112.65 267.458Z" fill="#223859"/>
<path d="M38.2927 303.754C39.5854 302.818 41.4578 301.703 42.4385 301.346C43.4192 300.989 44.9349 300.677 45.7819 300.633C46.6289 300.633 48.2337 301.079 49.3482 301.658C50.4627 302.238 51.9783 303.486 52.6916 304.467C53.4494 305.404 54.5193 307.41 55.0989 308.882C55.6338 310.353 56.3916 312.939 56.7929 314.678C57.1495 316.417 57.5507 320.787 57.6844 324.488C57.8627 328.367 57.729 333.584 57.417 336.973C57.1049 340.139 56.4808 344.999 55.9904 347.674C55.5446 350.349 54.5639 354.987 53.8507 357.93C53.1374 360.872 51.8892 365.198 51.0868 367.516C50.3289 369.835 48.7687 373.848 47.6988 376.434C46.5843 379.02 44.8903 382.498 43.865 384.237C42.8843 385.976 41.0565 388.83 39.8083 390.658C38.5601 392.486 36.1083 395.295 34.3697 396.9C32.4974 398.684 30.536 400.066 29.4661 400.378C28.5299 400.69 26.9697 400.958 26.0335 400.958C25.1419 400.958 23.7154 400.69 22.913 400.334C22.1551 400.022 20.8624 399.041 20.0599 398.238C19.3021 397.391 18.1431 395.696 17.519 394.493C16.8948 393.244 15.9587 390.658 15.3792 388.696C14.4876 385.396 14.3984 384.237 14.3984 373.759C14.3984 363.949 14.5322 361.541 15.4237 356.369C16.0033 353.069 17.1177 347.629 17.9202 344.33C18.7672 341.03 20.1937 335.903 21.1744 332.96C22.1551 330.017 23.8046 325.603 24.919 323.15C25.9889 320.698 27.8166 317.086 28.9311 315.124C30.0902 313.162 32.1408 310.219 33.5227 308.525C34.8601 306.875 37.0445 304.735 38.2927 303.754Z" fill="#223859"/>
<path d="M127.941 58.9601C127.896 57.3549 127.762 53.5203 127.718 50.3545C127.628 47.2332 127.718 44.6917 127.896 44.6917C128.119 44.6917 128.208 48.5709 128.163 53.2527C128.119 57.9792 128.03 60.5654 127.941 58.9601Z" fill="#064896"/>
<path d="M119.203 55.393C119.114 56.9982 119.069 55.7943 119.069 52.7177C119.069 49.641 119.114 48.348 119.203 49.8194C119.292 51.2908 119.292 53.7878 119.203 55.393Z" fill="#064896"/>
<path d="M57.1945 341.208C57.2837 339.871 57.5066 334.698 57.6403 329.704C57.8186 324.755 58.0415 320.698 58.1753 320.698C58.2644 320.698 58.2644 324.978 58.0861 330.15C57.9524 335.367 57.6403 340.54 56.9716 343.661L57.1945 341.208Z" fill="#203657" fill-opacity="0.4"/>
<path d="M15.9146 350.572C16.6278 347.005 17.876 341.877 18.6339 339.202C19.4363 336.527 20.1941 334.52 20.2833 334.743C20.3725 334.966 20.1496 336.17 19.7484 337.418C19.3917 338.622 18.5447 341.744 17.9206 344.33C17.2519 346.916 16.2266 351.91 15.6025 355.477C14.8001 360.337 14.4435 364.261 14.2652 371.083C14.0868 377.192 14.176 381.472 14.5326 384.014C14.8447 386.11 15.6025 389.32 16.1821 391.148C16.7616 392.976 17.1628 394.537 17.029 394.582C16.8953 394.671 16.4049 393.645 15.9592 392.352C15.4688 391.104 14.7555 388.25 14.3097 386.02C13.7302 383.033 13.5073 379.956 13.5073 373.981C13.5073 369.567 13.7748 363.949 14.0868 361.497C14.3989 359.044 15.2459 354.139 15.9146 350.572Z" fill="#203657" fill-opacity="0.4"/>
<path d="M138.729 111.441C129.903 111.53 115.281 111.53 106.187 111.441C97.1371 111.396 104.314 111.352 122.235 111.352C140.111 111.352 147.556 111.396 138.729 111.441Z" fill="#7E93AD"/>
<path d="M21.1303 186.261C21.0412 188 20.9966 186.752 20.9966 183.586C20.9966 180.42 21.0412 178.993 21.1303 180.465C21.2195 181.936 21.2195 184.522 21.1303 186.261Z" fill="#7E93AD"/>
<path d="M4.63618 189.16C4.54702 190.765 4.50244 189.65 4.50244 186.707C4.50244 183.764 4.54702 182.471 4.63618 183.809C4.72534 185.147 4.72534 187.554 4.63618 189.16Z" fill="#7E93AD"/>
<path d="M161.019 232.723C139.665 232.812 104.894 232.812 83.6743 232.723C62.4548 232.679 79.9297 232.634 122.458 232.634C164.986 232.634 182.372 232.679 161.019 232.723Z" fill="#7E93AD"/>
<path d="M65.6199 245.654C60.4488 245.743 51.8451 245.743 46.4511 245.654C41.057 245.609 45.2474 245.565 55.8126 245.565C66.3332 245.565 70.7465 245.609 65.6199 245.654Z" fill="#7E93AD"/>
<path d="M198.91 245.654C193.739 245.743 185.136 245.743 179.742 245.654C174.348 245.609 178.583 245.565 189.103 245.565C199.624 245.565 204.037 245.609 198.91 245.654Z" fill="#7E93AD"/>
<path d="M142.295 246.1C131.24 246.189 113.319 246.189 102.397 246.1C91.4756 246.055 100.525 246.011 122.458 246.011C144.391 246.011 153.306 246.055 142.295 246.1Z" fill="#7E93AD"/>
<path d="M109.53 270.803C110.868 270.178 113.364 269.331 115.103 268.93C116.841 268.484 120.095 268.127 122.458 268.127C125.356 268.083 127.808 268.35 130.259 268.975C132.221 269.465 135.029 270.446 136.5 271.159C137.972 271.828 140.379 273.3 141.85 274.414C144.391 276.287 144.569 276.599 145.505 279.72C146.04 281.549 146.843 284.804 147.244 287.033C147.645 289.263 148.002 292.74 148.002 294.836C148.002 297.021 147.69 299.875 147.289 301.525C146.843 303.13 145.862 305.716 145.104 307.321C144.123 309.283 142.608 311.29 140.334 313.564C138.105 315.748 135.876 317.487 133.826 318.558C132.087 319.449 129.502 320.519 128.03 320.921C126.069 321.5 124.33 321.634 121.344 321.5C118.803 321.367 116.351 320.921 114.657 320.297C113.186 319.761 110.689 318.468 109.129 317.443C107.569 316.417 105.072 314.277 103.601 312.672C101.952 310.933 100.347 308.57 99.4555 306.652C98.6531 304.958 97.6278 301.837 97.2266 299.741C96.6916 297.066 96.6025 295.059 96.8253 292.83C96.9591 291.135 97.4049 288.103 97.7615 286.141C98.1181 284.179 98.7422 281.459 99.1434 280.122C99.5446 278.784 100.302 277.179 100.793 276.599C101.328 276.02 102.933 274.727 104.404 273.746C105.875 272.765 108.193 271.427 109.53 270.803Z" fill="white"/>
<path d="M37.3572 307.99C38.7392 306.518 40.7452 304.869 41.8151 304.334C42.885 303.754 44.5344 303.308 45.4706 303.308C46.3622 303.308 47.2092 303.531 47.3429 303.754C47.4766 303.977 46.5405 305.85 45.2477 307.901C43.9549 309.907 41.6814 313.965 40.2103 316.908C38.7392 319.851 37.1789 323.061 36.7777 324.042C36.3423 325 35.3963 327.49 34.5632 329.683L34.5042 329.839C33.6572 332.068 32.1415 336.349 31.1608 339.425C30.1801 342.502 28.8873 347.317 28.2632 350.127C27.6391 352.936 26.7921 357.662 26.3909 360.605C26.0342 363.548 25.4993 367.249 25.2318 368.854C24.9643 370.504 24.8306 374.472 24.9643 377.995C25.0981 381.428 25.4993 386.021 25.8559 388.25C26.2126 390.48 26.8367 393.69 27.2824 395.384C27.9065 397.971 27.9065 398.55 27.4162 398.818C27.1041 398.996 26.48 399.175 26.0788 399.175C25.633 399.175 24.474 398.773 23.4932 398.283C22.245 397.659 21.1751 396.544 19.9269 394.626C18.6342 392.62 17.8763 390.658 17.2076 387.804C16.3606 384.282 16.2715 382.409 16.2715 372.644C16.2715 364.752 16.4944 360.159 17.0293 356.815C17.386 354.229 18.233 349.904 18.9016 347.228C19.5257 344.553 21.0414 339.425 22.245 335.858C23.4487 332.291 25.7222 326.807 27.2824 323.596C28.8427 320.43 31.1608 316.194 32.4982 314.232C33.7909 312.27 35.9753 309.461 37.3572 307.99Z" fill="white"/>
<path d="M62.4994 120.671C64.6838 119.378 68.9187 117.371 71.8609 116.301L77.2104 114.295L167.482 114.25L172.921 116.301C175.952 117.416 180.098 119.333 182.193 120.582C184.289 121.83 187.899 124.283 190.218 126.022C192.536 127.761 196.637 131.417 199.356 134.092C202.076 136.812 205.597 140.959 207.291 143.233C208.941 145.552 211.482 149.877 212.908 152.82C214.379 155.763 216.162 160.088 216.876 162.406C217.634 164.725 218.57 168.337 218.971 170.432C219.461 172.84 219.684 175.426 219.55 177.567C219.372 180.376 219.06 181.491 217.455 184.701C216.43 186.797 214.513 190.096 213.176 192.058C211.883 194.02 209.431 197.23 207.737 199.148C206.088 201.11 203.101 203.963 201.139 205.524C199.178 207.085 196.057 209.27 194.23 210.34C192.402 211.41 189.727 212.747 188.301 213.238C186.919 213.728 183.486 214.531 180.767 214.977C178.003 215.467 173.411 216.092 170.603 216.359C167.794 216.627 161.776 217.162 157.229 217.519C152.682 217.875 140.334 218.321 129.813 218.455C117.688 218.633 106.543 218.499 99.4998 218.187C93.3925 217.875 84.0309 217.251 78.7707 216.76C73.5104 216.315 66.8235 215.512 63.9705 215.022C61.0283 214.531 57.2837 213.55 55.5005 212.792C53.7174 212.079 50.3294 210.25 48.0113 208.69C45.5149 207.04 42.0377 204.186 39.5413 201.645C36.9112 199.014 34.0136 195.536 32.0075 192.504C30.2244 189.784 28.1737 186.485 27.5051 185.147C26.8364 183.809 25.9002 181.491 25.499 180.019C24.7858 177.7 24.7858 176.898 25.2316 173.777C25.5436 171.815 26.3014 168.292 26.9255 165.974C27.5496 163.655 28.6195 160.222 29.3774 158.393C30.0906 156.565 31.6955 153.132 32.8991 150.813C34.1027 148.495 36.4208 144.749 38.0702 142.564C39.7197 140.379 43.286 136.322 45.9607 133.646C48.68 130.927 52.6029 127.449 54.6981 125.888C56.7933 124.372 60.315 122.009 62.4994 120.671Z" fill="#757DFF"/>
<path d="M145.371 279.23C145.014 278.383 144.747 277.357 144.747 277.001C144.791 276.599 145.638 277.268 146.797 278.561C147.912 279.765 149.561 281.905 150.453 283.243C151.344 284.581 152.726 287.39 153.484 289.485C154.286 291.581 155.178 294.97 155.446 297.066C155.758 299.25 155.891 302.104 155.713 303.754C155.535 305.359 155.089 307.856 154.732 309.328C154.376 310.799 153.261 313.608 152.325 315.57C151.389 317.532 149.695 320.296 148.58 321.679C147.421 323.106 145.282 325.29 143.721 326.584C142.206 327.832 139.13 329.749 136.945 330.82C134.761 331.89 131.418 333.049 129.59 333.45C127.183 333.985 124.82 334.119 121.12 333.941C117.509 333.762 115.146 333.406 113.096 332.737C111.491 332.202 108.905 331.087 107.3 330.24C105.696 329.393 103.155 327.743 101.594 326.494C100.079 325.29 97.8052 322.927 96.557 321.233C95.3088 319.583 93.6148 316.819 92.8124 315.124C91.9654 313.385 90.94 310.576 90.5388 308.882C90.0485 306.964 89.7364 303.977 89.7364 301.079C89.7364 298.047 90.0485 295.282 90.5388 293.276C90.9846 291.537 92.0991 288.549 93.0798 286.587C94.016 284.625 95.8437 281.727 97.1365 280.122C98.4293 278.517 99.5438 277.446 99.6329 277.669C99.7221 277.892 99.4992 279.096 99.098 280.345C98.7413 281.549 98.1172 284.179 97.7606 286.141C97.404 288.103 96.9582 291.091 96.8244 292.83C96.6016 295.059 96.6907 297.066 97.2257 299.741C97.6269 301.837 98.6522 304.913 99.4546 306.652C100.346 308.57 101.951 310.933 103.6 312.672C105.072 314.277 107.568 316.417 109.128 317.443C110.688 318.468 113.185 319.761 114.656 320.296C116.35 320.921 118.802 321.367 121.343 321.5C124.33 321.634 126.068 321.5 128.03 320.921C129.501 320.519 132.086 319.449 133.825 318.558C135.875 317.487 138.104 315.748 140.333 313.564C142.607 311.289 144.123 309.283 145.103 307.321C145.861 305.716 146.842 303.13 147.288 301.524C147.689 299.875 148.001 296.976 148.001 294.836C148.001 292.74 147.555 288.727 147.02 285.918C146.441 283.109 145.727 280.077 145.371 279.23Z" fill="#EFEFFF"/>
<path d="M39.9865 321.367C41.0118 319.137 43.4637 314.589 45.4251 311.2C47.4312 307.856 49.2143 305.092 49.4372 305.092C49.6155 305.092 50.4179 305.939 51.1312 306.964C51.889 308.035 52.9144 310.175 53.4493 311.78C53.9397 313.385 54.6529 316.194 54.965 318.022C55.277 319.851 55.5445 324.532 55.5891 328.367C55.5891 332.246 55.3216 337.419 55.0541 339.871C54.7421 342.323 54.3409 344.33 54.1626 344.33C53.9397 344.33 53.7168 345.668 53.5385 347.317C53.4047 349.012 53.0035 351.866 52.6023 353.694C52.2457 355.522 51.2649 359.356 50.4625 362.166C49.6601 364.975 48.2336 369.3 47.342 371.752C46.4059 374.205 44.489 378.619 43.0179 381.562C41.5468 384.505 39.407 388.206 38.2925 389.811C37.1335 391.371 35.2166 393.645 34.0575 394.805C32.8985 396.009 31.7394 396.945 31.5165 396.945C31.2491 396.945 30.8479 396.187 30.625 395.251C30.3575 394.359 29.778 391.327 29.2876 388.562C28.5743 384.549 28.396 381.562 28.396 373.179C28.396 366.58 28.6635 361.229 29.0647 358.376C29.4213 355.923 30.09 351.91 30.625 349.458C31.1153 347.005 32.1406 342.903 32.8539 340.317C33.5672 337.731 35.0828 333.316 36.1527 330.507C37.2226 327.698 38.9612 323.596 39.9865 321.367Z" fill="#EFEFFF"/>
<path d="M16.226 375.319C16.1814 377.281 16.0923 375.854 16.0923 372.198C16.0923 368.497 16.1814 366.892 16.226 368.631C16.3152 370.325 16.3152 373.357 16.226 375.319Z" fill="#EFEFFF"/>
<path d="M144.301 114.117C132.175 114.206 112.382 114.206 100.391 114.117C88.3989 114.072 98.2954 114.028 122.457 114.028C146.619 114.028 156.426 114.072 144.301 114.117Z" fill="#3C42AA"/>
<path d="M217.454 184.701C218.881 181.848 219.371 180.198 219.594 178.013C219.728 176.408 219.906 175.516 219.995 176.007C220.129 176.497 220.085 180.287 219.951 184.479C219.773 190.364 219.461 193.129 218.614 196.741C217.989 199.327 216.964 202.938 216.295 204.767C215.627 206.595 214.156 209.939 213.041 212.124C211.971 214.309 210.233 217.341 209.252 218.812C208.271 220.284 206.354 222.87 204.972 224.564C203.59 226.258 201.674 228.22 198.91 230.227L122.457 230.182C49.3033 230.182 45.9599 230.138 44.6671 229.38C43.9539 228.934 42.2153 227.284 40.8334 225.679C39.4514 224.118 37.1779 221.131 35.7514 219.035C34.3249 216.939 32.3188 213.417 31.2935 211.232C30.2236 209.047 28.8417 205.614 28.173 203.652C27.5043 201.69 26.5682 198.39 26.0778 196.295C25.4983 193.708 25.1416 190.231 24.8296 178.236L25.632 180.688C26.0778 182.026 26.9694 184.122 27.5935 185.37C28.2176 186.574 30.2236 189.785 32.0068 192.505C34.0128 195.537 36.9104 199.015 39.5406 201.645C42.037 204.187 45.5141 207.041 48.0106 208.69C50.3286 210.251 53.7166 212.079 55.4998 212.793C57.2829 213.551 61.0276 214.532 63.9698 215.022C66.8228 215.513 73.5096 216.315 78.7699 216.761C84.0302 217.252 93.3917 217.876 99.499 218.188C106.542 218.5 117.687 218.634 129.813 218.455C140.333 218.322 152.682 217.876 157.229 217.519C161.776 217.162 167.794 216.627 170.602 216.36C173.411 216.092 178.002 215.468 180.766 214.977C183.485 214.532 186.918 213.729 188.345 213.238C189.726 212.748 192.401 211.41 194.229 210.34C196.057 209.27 199.177 207.085 201.139 205.525C203.1 203.964 206.087 201.11 207.736 199.148C209.43 197.231 211.882 194.021 213.175 192.059C214.512 190.097 216.429 186.797 217.454 184.701Z" fill="#3C42AA"/>
<path d="M28.2611 375.543C28.2165 377.371 28.1274 376.078 28.1274 372.645C28.1274 369.212 28.1719 367.696 28.2611 369.301C28.3502 370.906 28.3502 373.715 28.2611 375.543Z" fill="#7E93AD"/>
<path d="M25.1406 380.002C25.096 382.098 25.0068 380.582 25.0068 376.658C25.0068 372.734 25.096 371.04 25.1406 372.868C25.2297 374.696 25.2297 377.906 25.1406 380.002Z" fill="#7E93AD"/>
<path d="M79.6606 141.896C80.998 140.87 83.004 139.755 84.1185 139.399C85.3667 139.042 87.239 138.864 89.0222 138.997C91.0282 139.131 92.7222 139.577 94.5945 140.469C96.3331 141.361 98.0717 142.698 99.6319 144.393C100.925 145.864 102.53 148.138 103.243 149.476C103.956 150.813 105.115 153.756 105.784 155.941C106.854 159.464 106.987 160.712 106.987 165.974C106.987 170.745 106.765 172.707 106.007 175.56C105.472 177.522 104.313 180.554 103.377 182.249C102.396 184.121 100.613 186.529 98.8295 188.313C96.6451 190.542 95.2632 191.479 93.2572 192.237C91.1174 193.039 89.9583 193.218 87.4619 193.084C85.1884 192.905 83.6727 192.504 81.8896 191.612C80.5522 190.944 78.457 189.338 77.2088 188.09C75.9606 186.797 74.222 184.389 73.3305 182.695C72.4389 180.956 71.2798 178.057 70.7449 176.229C70.1208 174.133 69.675 171.012 69.5413 167.757C69.3629 163.878 69.4967 161.693 70.0316 158.839C70.4774 156.744 71.4136 153.667 72.1268 151.928C72.8401 150.189 74.2666 147.648 75.3365 146.265C76.3618 144.883 78.3233 142.877 79.6606 141.896Z" fill="white"/>
<path d="M149.649 141.405C150.764 140.825 152.279 140.246 152.993 140.023C153.706 139.844 155.445 139.755 156.782 139.844C158.253 139.934 160.304 140.469 161.908 141.182C163.602 141.985 165.475 143.367 167.035 144.972C168.506 146.444 170.156 148.851 171.136 150.813C172.072 152.642 173.231 155.763 173.766 157.725C174.48 160.445 174.747 162.585 174.747 166.865C174.747 170.745 174.524 173.375 173.989 175.56C173.544 177.299 172.384 180.376 171.404 182.472C170.022 185.325 168.818 187.02 166.634 189.205C164.405 191.434 163.023 192.37 161.017 193.128C158.877 193.931 157.718 194.109 155.222 193.976C153.037 193.797 151.388 193.396 149.783 192.593C148.49 191.925 146.35 190.319 145.102 189.026C143.587 187.51 142.071 185.281 140.867 182.873C139.842 180.822 138.638 177.834 138.193 176.229C137.568 174 137.39 171.77 137.435 166.643C137.435 160.266 137.524 159.731 138.906 155.718C139.708 153.4 141.046 150.368 141.848 149.03C142.695 147.692 144.3 145.641 145.503 144.482C146.663 143.367 148.535 141.94 149.649 141.405Z" fill="white"/>
</svg>
