<svg width="991" height="210" viewBox="0 0 991 210" fill="none" xmlns="http://www.w3.org/2000/svg">
<path d="M0.500005 145.086C0.500005 121.144 0.500004 109.173 5.25221 99.324C7.38817 94.8971 10.1907 90.8488 13.555 87.3304C21.0401 79.5025 32.0017 75.6391 53.9248 67.9122L97.0806 52.7018C128.493 41.6305 144.198 36.0949 155.915 42.2798C158.667 43.733 161.195 45.6026 163.414 47.8268C172.859 57.2929 172.859 74.445 172.859 108.749C172.859 132.502 172.859 144.378 167.557 153.868C166.272 156.168 164.773 158.334 163.081 160.334C156.102 168.583 145.227 172.416 123.477 180.082L72.2351 198.143C44.5785 207.89 30.7502 212.764 20.0876 208.378C6.42517 202.757 0.5 189.693 0.5 178.449C0.5 170.855 0.500005 156.865 0.500005 145.086Z" fill="url(#paint0_linear_1670_20844)"/>
<path fill-rule="evenodd" clip-rule="evenodd" d="M0.5 88.6173C0.5 69.4416 0.499996 53.7205 3.58415 45.5381C6.30796 38.3117 10.729 31.8996 16.4486 26.88C22.9249 21.1964 31.6929 18.0676 49.2289 11.8098L55.2737 9.65276C75.6373 2.38598 85.8191 -1.24741 93.9932 0.386422C102.839 2.15458 110.508 7.80363 115.012 15.8698C119.173 23.3231 119.173 40.2982 119.173 62.5658C119.173 80.1355 119.173 88.9204 116.576 96.4945C113.753 104.728 108.754 111.98 102.145 117.425C96.066 122.434 88.0323 125.301 71.9649 131.034C71.9649 131.034 44.2961 140.805 27.0602 147.031C9.82434 153.256 0.5 165.744 0.5 178.734V88.6173Z" fill="white"/>
<path d="M313.056 105.683C318.28 106.794 322.476 109.4 325.645 113.502C328.813 117.518 330.398 122.132 330.398 127.345C330.398 134.864 327.743 140.846 322.433 145.289C317.209 149.647 309.887 151.826 300.467 151.826H258.462V61.8484H299.054C308.217 61.8484 315.368 63.9419 320.506 68.1289C325.73 72.3158 328.342 77.9982 328.342 85.1758C328.342 90.4737 326.929 94.8743 324.103 98.3776C321.363 101.881 317.68 104.316 313.056 105.683ZM280.428 98.2495H294.815C298.412 98.2495 301.152 97.4804 303.036 95.9424C305.006 94.3188 305.991 91.969 305.991 88.8929C305.991 85.8167 305.006 83.4669 303.036 81.8434C301.152 80.2198 298.412 79.4081 294.815 79.4081H280.428V98.2495ZM296.613 134.138C300.296 134.138 303.122 133.326 305.092 131.703C307.147 129.994 308.174 127.558 308.174 124.397C308.174 121.235 307.104 118.757 304.963 116.963C302.908 115.168 300.039 114.271 296.356 114.271H280.428V134.138H296.613Z" fill="white"/>
<path d="M410.706 114.912C410.706 116.963 410.578 119.099 410.321 121.321H360.608C360.951 125.764 362.364 129.182 364.847 131.574C367.416 133.881 370.542 135.035 374.225 135.035C379.705 135.035 383.516 132.728 385.657 128.114H409.036C407.838 132.813 405.654 137.043 402.485 140.803C399.402 144.563 395.506 147.51 390.796 149.647C386.085 151.783 380.819 152.851 374.995 152.851C367.973 152.851 361.721 151.356 356.241 148.365C350.76 145.374 346.478 141.102 343.395 135.548C340.312 129.994 338.77 123.499 338.77 116.065C338.77 108.631 340.269 102.137 343.266 96.5832C346.349 91.0291 350.631 86.7567 356.112 83.766C361.593 80.7753 367.887 79.2799 374.995 79.2799C381.932 79.2799 388.098 80.7325 393.493 83.6378C398.888 86.543 403.085 90.6873 406.082 96.0705C409.165 101.454 410.706 107.734 410.706 114.912ZM388.226 109.144C388.226 105.384 386.942 102.394 384.373 100.172C381.804 97.9504 378.592 96.8396 374.738 96.8396C371.056 96.8396 367.93 97.9077 365.361 100.044C362.878 102.18 361.336 105.214 360.737 109.144H388.226Z" fill="white"/>
<path d="M451.454 152.851C445.203 152.851 439.636 151.783 434.755 149.647C429.874 147.51 426.02 144.605 423.194 140.931C420.368 137.171 418.784 132.984 418.441 128.37H440.15C440.407 130.848 441.563 132.856 443.619 134.394C445.674 135.932 448.2 136.701 451.198 136.701C453.938 136.701 456.036 136.189 457.492 135.163C459.033 134.052 459.804 132.642 459.804 130.934C459.804 128.883 458.734 127.387 456.593 126.447C454.452 125.422 450.983 124.311 446.188 123.115C441.049 121.919 436.768 120.68 433.342 119.398C429.916 118.031 426.962 115.937 424.478 113.118C421.995 110.212 420.753 106.324 420.753 101.454C420.753 97.3523 421.866 93.6353 424.093 90.3028C426.405 86.8848 429.745 84.1932 434.113 82.2279C438.566 80.2626 443.833 79.2799 449.913 79.2799C458.905 79.2799 465.97 81.5016 471.108 85.9449C476.332 90.3882 479.33 96.2842 480.1 103.633H459.804C459.462 101.155 458.348 99.1894 456.464 97.7368C454.666 96.2842 452.268 95.5578 449.271 95.5578C446.702 95.5578 444.732 96.0705 443.362 97.0959C441.991 98.0358 441.306 99.3603 441.306 101.069C441.306 103.12 442.377 104.658 444.518 105.683C446.744 106.709 450.17 107.734 454.794 108.76C460.104 110.127 464.429 111.494 467.769 112.861C471.108 114.143 474.02 116.279 476.504 119.27C479.073 122.175 480.4 126.106 480.486 131.062C480.486 135.249 479.287 139.008 476.889 142.341C474.577 145.588 471.194 148.151 466.741 150.031C462.373 151.911 457.278 152.851 451.454 152.851Z" fill="white"/>
<path d="M533.875 133.241V151.826H522.699C514.735 151.826 508.526 149.903 504.073 146.058C499.62 142.127 497.393 135.761 497.393 126.96V98.5058H488.658V80.3053H497.393V62.8738H519.359V80.3053H533.746V98.5058H519.359V127.217C519.359 129.353 519.873 130.891 520.901 131.831C521.928 132.771 523.641 133.241 526.039 133.241H533.875Z" fill="white"/>
<path d="M697.422 61.8484L673.914 151.826H647.324L632.936 92.6099L618.035 151.826H591.445L568.579 61.8484H592.087L605.061 127.345L621.118 61.8484H645.268L660.683 127.345L673.786 61.8484H697.422Z" fill="white"/>
<path d="M704.071 115.937C704.071 108.589 705.441 102.137 708.181 96.5832C711.007 91.0291 714.818 86.7567 719.614 83.766C724.41 80.7753 729.762 79.2799 735.671 79.2799C740.724 79.2799 745.134 80.3053 748.902 82.356C752.756 84.4068 755.71 87.0984 757.766 90.4309V80.3053H779.732V151.826H757.766V141.7C755.625 145.033 752.627 147.724 748.774 149.775C745.006 151.826 740.595 152.851 735.543 152.851C729.719 152.851 724.41 151.356 719.614 148.365C714.818 145.289 711.007 140.974 708.181 135.42C705.441 129.78 704.071 123.286 704.071 115.937ZM757.766 116.065C757.766 110.597 756.224 106.282 753.141 103.12C750.144 99.9584 746.461 98.3776 742.094 98.3776C737.726 98.3776 734.001 99.9584 730.918 103.12C727.921 106.196 726.422 110.469 726.422 115.937C726.422 121.406 727.921 125.764 730.918 129.011C734.001 132.173 737.726 133.753 742.094 133.753C746.461 133.753 750.144 132.173 753.141 129.011C756.224 125.849 757.766 121.534 757.766 116.065Z" fill="white"/>
<path d="M817.59 56.9779V151.826H795.623V56.9779H817.59Z" fill="white"/>
<path d="M855.474 56.9779V151.826H833.508V56.9779H855.474Z" fill="white"/>
<path d="M938.962 114.912C938.962 116.963 938.833 119.099 938.576 121.321H888.863C889.206 125.764 890.619 129.182 893.102 131.574C895.672 133.881 898.797 135.035 902.48 135.035C907.961 135.035 911.772 132.728 913.912 128.114H937.292C936.093 132.813 933.909 137.043 930.74 140.803C927.657 144.563 923.761 147.51 919.051 149.647C914.341 151.783 909.074 152.851 903.25 152.851C896.228 152.851 889.977 151.356 884.496 148.365C879.015 145.374 874.733 141.102 871.65 135.548C868.567 129.994 867.026 123.499 867.026 116.065C867.026 108.631 868.524 102.137 871.522 96.5832C874.604 91.0291 878.886 86.7567 884.367 83.766C889.848 80.7753 896.143 79.2799 903.25 79.2799C910.187 79.2799 916.353 80.7325 921.748 83.6378C927.143 86.543 931.34 90.6873 934.337 96.0705C937.42 101.454 938.962 107.734 938.962 114.912ZM916.482 109.144C916.482 105.384 915.197 102.394 912.628 100.172C910.059 97.9504 906.847 96.8396 902.994 96.8396C899.311 96.8396 896.185 97.9077 893.616 100.044C891.133 102.18 889.591 105.214 888.992 109.144H916.482Z" fill="white"/>
<path d="M990.5 133.241V151.826H979.324C971.36 151.826 965.151 149.903 960.698 146.058C956.245 142.127 954.018 135.761 954.018 126.96V98.5058H945.283V80.3053H954.018V62.8738H975.984V80.3053H990.372V98.5058H975.984V127.217C975.984 129.353 976.498 130.891 977.526 131.831C978.554 132.771 980.266 133.241 982.664 133.241H990.5Z" fill="white"/>
<defs>
<linearGradient id="paint0_linear_1670_20844" x1="955.607" y1="138.139" x2="797.703" y2="-270.748" gradientUnits="userSpaceOnUse">
<stop stop-color="white"/>
<stop offset="1" stop-color="white" stop-opacity="0.12"/>
</linearGradient>
</defs>
</svg>
