<svg width="493" height="510" viewBox="0 0 493 510" fill="none" xmlns="http://www.w3.org/2000/svg">
<path d="M190.893 231.711C170.3 216.208 160.003 208.456 159.384 199.269C159.19 196.392 159.606 193.506 160.604 190.813C163.791 182.216 175.826 177.923 199.896 169.337L271.142 143.923C289.498 137.376 298.676 134.102 307.93 134.605C310.979 134.771 314.005 135.24 316.967 136.005C325.959 138.328 333.811 144.24 349.515 156.063L385.785 183.37C402.428 195.899 410.749 202.164 414.915 211.014C416.278 213.909 417.294 216.965 417.94 220.116C419.917 229.747 417.083 239.991 411.415 260.478L399.062 305.129C393.714 324.462 391.039 334.128 385.335 341.693C383.455 344.186 381.349 346.485 379.045 348.561C372.052 354.859 362.874 358.133 344.518 364.68L273.272 390.094C249.202 398.679 237.167 402.972 229.546 398.229C227.16 396.744 225.116 394.736 223.559 392.345C218.588 384.71 222.094 372.035 229.108 346.684L245.536 287.303C246.953 282.182 247.661 279.621 247.167 277.213C247.005 276.425 246.751 275.661 246.411 274.937C245.369 272.725 243.289 271.159 239.128 268.026L190.893 231.711Z" fill="url(#paint0_linear_535_6837)"/>
<path d="M84.571 206.727C63.9779 191.223 53.6814 183.471 53.062 174.284C52.868 171.407 53.2846 168.521 54.2824 165.829C57.4687 157.231 69.5038 152.938 93.5738 144.353L164.82 118.939C183.176 112.392 192.354 109.118 201.608 109.621C204.657 109.786 207.683 110.255 210.646 111.021C219.637 113.344 227.489 119.255 243.193 131.079L279.464 158.386C296.106 170.915 304.427 177.179 308.593 186.03C309.956 188.925 310.972 191.981 311.618 195.131C313.595 204.763 310.761 215.006 305.093 235.494L292.74 280.145C287.392 299.477 284.718 309.144 279.013 316.709C277.134 319.201 275.027 321.501 272.723 323.576C265.73 329.874 256.552 333.148 238.196 339.696L166.95 365.109C142.88 373.695 130.845 377.988 123.224 373.245C120.838 371.76 118.794 369.751 117.238 367.361C112.266 359.726 115.772 347.05 122.786 321.699L139.214 262.319C140.631 257.197 141.339 254.636 140.845 252.228C140.683 251.441 140.429 250.677 140.089 249.953C139.047 247.74 136.967 246.174 132.806 243.042L84.571 206.727Z" fill="white"/>
<defs>
<linearGradient id="paint0_linear_535_6837" x1="409.137" y1="287.622" x2="136.778" y2="201.307" gradientUnits="userSpaceOnUse">
<stop stop-color="white"/>
<stop offset="1" stop-color="white" stop-opacity="0.12"/>
</linearGradient>
</defs>
</svg>
