<svg width="379" height="288" viewBox="0 0 379 288" fill="none" xmlns="http://www.w3.org/2000/svg">
<rect width="378.667" height="288" rx="30" fill="#EFEFFF"/>
<rect x="115" y="70" width="148" height="148" rx="34.6875" fill="#5860FF"/>
<path d="M146.074 162.322C146.074 150.474 146.074 144.55 148.505 139.676C149.598 137.485 151.031 135.482 152.752 133.74C156.581 129.867 162.188 127.955 173.402 124.131L195.477 116.604C211.544 111.125 219.578 108.386 225.571 111.446C226.979 112.165 228.272 113.091 229.407 114.191C234.238 118.876 234.238 127.364 234.238 144.34C234.238 156.094 234.238 161.972 231.526 166.668C230.869 167.806 230.102 168.878 229.237 169.867C225.667 173.95 220.104 175.847 208.979 179.64L182.768 188.578C168.621 193.402 161.548 195.814 156.094 193.643C149.105 190.861 146.074 184.396 146.074 178.832C146.074 175.074 146.074 168.151 146.074 162.322Z" fill="url(#paint0_linear_2267_31122)"/>
<path fill-rule="evenodd" clip-rule="evenodd" d="M146.074 134.377C146.074 124.888 146.074 117.108 147.652 113.059C149.045 109.483 151.306 106.31 154.232 103.826C157.545 101.013 162.03 99.4645 171 96.3677L174.092 95.3003C184.508 91.7042 189.716 89.9061 193.897 90.7147C198.422 91.5897 202.345 94.3852 204.649 98.3769C206.777 102.065 206.777 110.466 206.777 121.485C206.777 130.18 206.777 134.527 205.449 138.275C204.005 142.35 201.448 145.939 198.067 148.633C194.958 151.112 190.848 152.531 182.63 155.368C182.63 155.368 168.477 160.203 159.66 163.284C150.844 166.365 146.074 172.545 146.074 178.973V134.377Z" fill="white"/>
<defs>
<linearGradient id="paint0_linear_2267_31122" x1="231.131" y1="165.607" x2="149.675" y2="118.8" gradientUnits="userSpaceOnUse">
<stop stop-color="white"/>
<stop offset="1" stop-color="white" stop-opacity="0.12"/>
</linearGradient>
</defs>
</svg>
