<svg width="216" height="29" viewBox="0 0 216 29" fill="none" xmlns="http://www.w3.org/2000/svg">
<path fill-rule="evenodd" clip-rule="evenodd" d="M90.3356 20.4594C84.1497 20.4594 79.6509 16.2082 79.6509 10.3627C79.6509 4.51733 84.1497 0.266113 90.416 0.266113C93.7901 0.266113 96.6822 1.48075 98.53 3.75818L98.6906 3.98592L95.3969 7.02251L95.1558 6.79476C93.9508 5.35239 92.3441 4.66916 90.5767 4.66916C87.1222 4.66916 84.7121 7.02251 84.7121 10.4387C84.7121 13.8548 87.1222 16.2082 90.5767 16.2082C92.4244 16.2082 93.9508 15.5249 95.1558 14.0826L95.3969 13.8548L98.6906 16.8914L98.53 17.1191C96.6822 19.3966 93.7901 20.6112 90.3356 20.6112V20.4594ZM42.9366 20.1558H32.7339V0.569824H42.4546C47.1945 0.569824 50.0062 2.5436 50.0062 5.80793C50.0062 7.55396 49.2029 8.99634 47.8372 9.90731C49.8456 10.7424 50.9703 12.4884 50.9703 14.6899C50.9703 18.182 48.1585 20.1558 43.017 20.1558H42.9366ZM37.7148 16.2841H42.6153C45.5074 16.2841 45.8287 15.1454 45.8287 14.2344C45.8287 12.868 44.7844 12.1847 42.6153 12.1847H37.7148V16.2841ZM37.7148 8.38902H41.8119C43.8203 8.38902 44.8647 7.70579 44.8647 6.41524C44.8647 5.95975 44.8647 4.51738 41.8119 4.51738H37.7148V8.38902ZM58.8434 20.1558H53.7822V0.569824H58.8434V20.1558ZM67.6805 20.1558H72.6614V4.74512H78.8473V0.569824H61.4946V4.74512H67.6805V20.1558ZM99.4136 10.3627C99.4136 16.2082 103.993 20.4594 110.259 20.4594C116.525 20.4594 121.104 16.2082 121.104 10.3627C121.104 4.51733 116.525 0.266113 110.259 0.266113C103.993 0.266113 99.4136 4.51733 99.4136 10.3627ZM104.555 10.3627C104.555 7.02251 106.965 4.59324 110.259 4.59324C113.553 4.59324 115.963 7.02251 115.963 10.3627C115.963 13.703 113.553 16.1322 110.259 16.1322C106.965 16.1322 104.555 13.703 104.555 10.3627ZM128.575 20.1558H123.514V0.569824H128.575V20.1558ZM145.848 20.1558H149.945V0.569824H144.964V11.5015L135.886 0.569824H131.789V20.1558H136.77V9.22408L145.848 20.1558ZM157.818 20.1558H152.757V0.569824H157.818V20.1558ZM160.469 18.1819C162.317 19.5484 165.45 20.4594 168.503 20.4594V20.5353C174.689 20.5353 176.938 17.1951 176.938 14.3862C176.938 10.1722 172.991 9.24023 169.793 8.48486L169.708 8.46488C167.619 8.0094 165.771 7.55391 165.771 6.33928C165.771 5.12464 166.977 4.44141 169.146 4.44141C170.833 4.44141 172.6 4.97281 174.287 5.88379L174.608 6.03562L176.215 2.16398L175.974 2.01215C174.207 0.873429 171.716 0.266113 169.146 0.266113C164.004 0.266113 160.71 2.69538 160.791 6.41519C160.791 10.7051 164.739 11.6374 167.938 12.3928L168.021 12.4124C170.11 12.8679 171.957 13.3234 171.957 14.538C171.957 16.0563 169.869 16.2841 168.583 16.2841C166.414 16.2841 164.004 15.6008 162.397 14.3862L162.076 14.1585L160.309 18.0301L160.469 18.1819ZM189.31 20.1558H184.329V4.74512H178.143V0.569824H195.496V4.74512H189.31V20.1558ZM197.745 4.28943C197.745 4.669 198.468 4.97266 198.468 4.97266C198.87 4.97266 199.191 4.669 199.191 4.28943C199.191 3.90986 198.87 3.6062 198.468 3.6062C198.066 3.6062 197.745 3.90986 197.745 4.28943ZM202.485 4.97287C201.039 4.97287 200.075 4.06189 200.075 2.77135C200.075 1.4808 201.12 0.569824 202.485 0.569824C203.289 0.569824 203.931 0.873482 204.333 1.32897L203.53 2.08811C203.53 2.08811 202.887 1.55671 202.566 1.55671C201.843 1.55671 201.28 2.08811 201.28 2.77135C201.28 3.45458 201.843 3.98598 202.566 3.98598C202.967 3.98598 203.289 3.83415 203.53 3.53049L204.333 4.13781C203.931 4.66921 203.289 4.97287 202.485 4.97287ZM204.734 2.77135C204.734 4.06189 205.779 4.97287 207.225 4.97287C208.671 4.97287 209.715 4.06189 209.715 2.77135C209.715 1.4808 208.671 0.569824 207.225 0.569824C205.779 0.569824 204.734 1.4808 204.734 2.77135ZM206.02 2.77135C206.02 2.08811 206.502 1.55671 207.225 1.55671C208.028 1.55671 208.51 2.08811 208.51 2.77135C208.51 3.45458 207.948 3.98598 207.225 3.98598C206.502 3.98598 206.02 3.45458 206.02 2.77135ZM210.519 4.74515V0.72168V0.645752H211.483L213.009 3.07502L214.536 0.645752H215.5V4.89697H214.456V2.69544L213.331 4.44148H212.768L211.644 2.77136V4.89697H210.519V4.74515ZM32.1719 26.077C32.1719 26.0511 32.1722 26.0254 32.173 25.9998C32.2137 27.404 33.4034 28.4303 34.9033 28.4303C35.7067 28.4303 36.3494 28.2026 36.8314 27.7471L36.51 27.4434C36.1084 27.8989 35.546 28.0507 34.9837 28.0507C33.7786 28.0507 32.8146 27.2157 32.8146 26.001C32.8146 24.7864 33.6983 23.9513 34.9837 23.9513C35.546 23.9513 36.1084 24.1791 36.51 24.5587L36.8314 24.255C36.3494 23.7995 35.6263 23.5718 34.9033 23.5718C33.3254 23.5718 32.2124 24.5968 32.173 25.9998C32.1722 25.975 32.1719 25.9501 32.1719 25.9251V26.077ZM40.2858 26.912L41.4909 28.5062V28.4303H42.0532L40.7678 26.7602C41.5712 26.5324 41.9729 26.001 41.9729 25.2419C41.9729 24.1791 41.1695 23.5718 39.8841 23.5718H37.9561V28.4303H38.5184V26.912H39.8841H40.2858ZM39.8841 24.1032C40.9285 24.1032 41.4909 24.5587 41.4909 25.3178C41.4909 26.077 40.9285 26.5324 39.8841 26.5324H38.5184V24.1032H39.8841ZM45.0256 26.8361V28.5062H44.4633V26.8361L42.3745 23.6477H42.9369L44.7043 26.3806L46.4717 23.6477H47.034L44.9453 26.8361H45.0256ZM49.8456 26.9879C51.1309 26.9879 51.9343 26.3806 51.9343 25.3178C51.9343 24.255 51.1309 23.6477 49.8456 23.6477H47.9175V28.5062H48.4798V26.9879H49.8456ZM49.7652 24.1032C50.8096 24.1032 51.372 24.5587 51.372 25.3178C51.372 26.077 50.8096 26.5325 49.7652 26.5325H48.3995V24.1032H49.7652ZM53.8626 24.1032H52.0952V23.6477H56.2727V24.1032H54.425V28.5062H53.8626V24.1032ZM59.4058 23.5718C57.799 23.5718 56.6743 24.6346 56.6743 26.077C56.6743 27.5193 57.799 28.5821 59.4058 28.5821C61.0125 28.5821 62.1372 27.5193 62.1372 26.077C62.1372 24.6346 61.0125 23.5718 59.4058 23.5718ZM59.4058 24.0273C60.6911 24.0273 61.5748 24.9382 61.5748 26.077C61.5748 27.2916 60.6108 28.1266 59.4058 28.1266C58.2007 28.1266 57.2367 27.2916 57.2367 26.077C57.2367 24.8623 58.1204 24.0273 59.4058 24.0273ZM62.9404 26.077C62.9404 26.0511 62.9408 26.0254 62.9415 25.9998C62.9823 27.404 64.1719 28.4303 65.6719 28.4303C66.4752 28.4303 67.1179 28.2026 67.6 27.7471L67.2786 27.4434C66.8769 27.8989 66.3146 28.0507 65.7522 28.0507C64.5472 28.0507 63.5831 27.2157 63.5831 26.001C63.5831 24.7864 64.4668 23.9513 65.7522 23.9513C66.3146 23.9513 66.8769 24.1791 67.2786 24.5587L67.6 24.255C67.1179 23.7995 66.3949 23.5718 65.6719 23.5718C64.0939 23.5718 62.9809 24.5968 62.9415 25.9998C62.9408 25.975 62.9404 25.9501 62.9404 25.9251V26.077ZM68.6445 23.6477V26.4565H68.8052C68.8052 27.823 69.6086 28.5821 70.894 28.5821C72.1793 28.5821 72.9827 27.823 72.9827 26.4565V23.6477H72.4203V26.4565C72.4203 27.5953 71.858 28.1267 70.8136 28.1267C69.7692 28.1267 69.2069 27.5953 69.2069 26.4565V23.6477H68.6445ZM78.1242 28.5062L76.9191 26.912H76.5174H75.1517V28.4303H74.5894V23.5718H76.5174C77.8028 23.5718 78.6062 24.1791 78.6062 25.2419C78.6062 26.001 78.2045 26.5324 77.4011 26.7602L78.6865 28.4303H78.1242V28.5062ZM78.1242 25.3178C78.1242 24.5587 77.5618 24.1032 76.5174 24.1032H75.1517V26.5324H76.5174C77.5618 26.5324 78.1242 26.077 78.1242 25.3178ZM82.3019 26.912L83.507 28.5062V28.4303H84.0693L82.784 26.7602C83.5873 26.5324 83.989 26.001 83.989 25.2419C83.989 24.1791 83.1856 23.5718 81.9002 23.5718H79.9722V28.4303H80.5345V26.912H81.9002H82.3019ZM81.9002 24.1032C82.9446 24.1032 83.507 24.5587 83.507 25.3178C83.507 26.077 82.9446 26.5324 81.9002 26.5324H80.5345V24.1032H81.9002ZM88.9696 28.0507V28.1267H85.9168V26.3047H88.568V25.8492H85.9168V24.1032H88.8893V23.6477H85.3545V28.5062H88.9696V28.1267H89.05L88.9696 28.0507ZM94.5931 28.5062V23.6477H94.0307V27.5953L90.7369 23.6477H90.2549V28.5062H90.8172V24.5587L94.111 28.5062H94.5931ZM95.8789 26.077C95.8789 26.0511 95.8793 26.0254 95.88 25.9998C95.9208 27.404 97.1104 28.4303 98.6104 28.4303C99.4137 28.4303 100.056 28.2026 100.538 27.7471L100.217 27.4434C99.8154 27.8989 99.253 28.0507 98.6907 28.0507C97.4856 28.0507 96.5216 27.2157 96.5216 26.001C96.5216 24.7864 97.4053 23.9513 98.6907 23.9513C99.253 23.9513 99.8154 24.1791 100.217 24.5587L100.538 24.255C100.056 23.7995 99.3334 23.5718 98.6104 23.5718C97.0324 23.5718 95.9194 24.5968 95.88 25.9998L95.8795 25.9799L95.8791 25.9569L95.8789 25.9251V26.077ZM103.35 28.5062V26.8361H103.27L105.358 23.6477H104.796L103.028 26.3806L101.261 23.6477H100.699L102.787 26.8361V28.5062H103.35ZM113.071 23.6477V28.5062H112.589L109.295 24.5587V28.5062H108.732V23.6477H109.214L112.508 27.5953V23.6477H113.071ZM118.454 28.1267V28.0507L118.534 28.1267H118.454ZM115.401 28.1267H118.454V28.5062H114.838V23.6477H118.373V24.1032H115.401V25.8492H118.052V26.3047H115.401V28.1267ZM126.809 23.6477L125.041 28.5062H124.479L122.952 24.3309L121.426 28.5062H120.864L119.096 23.6477H119.659L121.185 27.823L122.711 23.6477H123.193L124.72 27.8989L126.246 23.6477H126.809ZM127.532 27.5193L127.291 27.8989V27.9748C127.692 28.3544 128.415 28.5821 129.219 28.5821C130.504 28.5821 131.147 27.8989 131.147 27.2157C131.147 26.2892 130.242 26.0895 129.393 25.9019C128.641 25.736 127.933 25.5797 127.933 24.9382C127.933 24.4068 128.335 24.0273 129.299 24.0273C129.781 24.0273 130.263 24.1032 130.745 24.4068L130.906 24.0273C130.504 23.7236 129.861 23.5718 129.299 23.5718C127.933 23.5718 127.371 24.255 127.371 24.9382C127.371 25.9146 128.294 26.1279 129.15 26.3259C129.892 26.4974 130.584 26.6574 130.584 27.2916C130.584 27.7471 130.183 28.1266 129.219 28.1266C128.576 28.1266 127.532 27.5193 127.532 27.5193ZM138.617 28.5821L137.894 27.8989C137.493 28.3544 136.85 28.5821 136.207 28.5821C135.163 28.5821 134.44 28.0507 134.44 27.3675C134.44 26.7602 134.761 26.3806 135.725 25.8492C135.243 25.3937 135.083 25.0901 135.083 24.7105C135.083 24.1032 135.565 23.6477 136.368 23.6477C137.091 23.6477 137.573 24.0273 137.573 24.6346C137.573 25.0901 137.252 25.4697 136.448 25.9251L137.894 27.2916C137.894 27.2916 138.135 26.6843 138.216 26.3806L138.617 26.5325C138.537 26.9879 138.376 27.3675 138.135 27.6712L138.858 28.3544L138.617 28.5821ZM137.573 27.5953L136.047 26.077C135.243 26.5325 135.002 26.8361 135.002 27.2916C135.002 27.823 135.484 28.2026 136.288 28.2026C136.85 28.2026 137.332 28.0507 137.653 27.6712L137.573 27.5953ZM135.565 24.6346C135.565 24.6346 135.645 25.0901 136.127 25.5456C136.85 25.166 137.091 24.8623 137.091 24.5587C137.091 24.255 136.85 23.9514 136.368 23.9514C135.886 23.9514 135.565 24.255 135.565 24.6346ZM141.51 24.1032H143.277V28.5062H143.84V24.1032H145.687V23.6477H141.51V24.1032ZM150.267 28.0507V28.1267H147.214V26.3047H149.865V25.8492H147.214V24.1032H150.186V23.6477H146.651V28.5062H150.267V28.1267H150.347L150.267 28.0507ZM151.071 25.9997C151.07 26.0253 151.07 26.0511 151.07 26.077V25.9251C151.07 25.9501 151.07 25.975 151.071 25.9997ZM151.071 25.9997C151.11 24.5968 152.223 23.5718 153.801 23.5718C154.524 23.5718 155.247 23.7995 155.729 24.255L155.408 24.5587C155.006 24.1791 154.444 23.9513 153.882 23.9513C152.596 23.9513 151.713 24.7864 151.713 26.001C151.713 27.2157 152.677 28.0507 153.882 28.0507C154.444 28.0507 155.006 27.8989 155.408 27.4434L155.729 27.7471C155.247 28.2026 154.605 28.4303 153.801 28.4303C152.301 28.4303 151.112 27.404 151.071 25.9997ZM161.192 23.6477V28.5062H160.63V26.2288H157.416V28.5062H156.854V23.6477H157.416V25.8492H160.63V23.6477H161.192ZM167.218 28.5062V23.6477H166.655V27.5953L163.361 23.6477H162.879V28.5062H163.442V24.5587L166.736 28.5062H167.218ZM168.503 26.077C168.503 24.6346 169.628 23.5718 171.234 23.5718C172.841 23.5718 173.966 24.6346 173.966 26.077C173.966 27.5193 172.841 28.5821 171.234 28.5821C169.628 28.5821 168.503 27.5193 168.503 26.077ZM173.403 26.077C173.403 24.9382 172.52 24.0273 171.234 24.0273C169.949 24.0273 169.065 24.8623 169.065 26.077C169.065 27.2916 170.029 28.1266 171.234 28.1266C172.439 28.1266 173.403 27.2916 173.403 26.077ZM175.733 23.6477H175.171V28.5062H178.625V28.0507H175.733V23.6477ZM179.027 26.077C179.027 24.6346 180.152 23.5718 181.759 23.5718C183.366 23.5718 184.49 24.6346 184.49 26.077C184.49 27.5193 183.366 28.5821 181.759 28.5821C180.152 28.5821 179.027 27.5193 179.027 26.077ZM183.928 26.077C183.928 24.9382 183.044 24.0273 181.759 24.0273C180.473 24.0273 179.59 24.8623 179.59 26.077C179.59 27.2916 180.554 28.1266 181.759 28.1266C182.964 28.1266 183.928 27.2916 183.928 26.077ZM189.872 26.077H189.31V27.6712C188.908 27.9748 188.426 28.0507 187.944 28.0507C186.739 28.0507 185.775 27.2157 185.775 26.001C185.775 24.7864 186.739 23.9513 188.025 23.9513C188.587 23.9513 189.149 24.1791 189.551 24.5587L189.872 24.255C189.39 23.7995 188.748 23.5718 187.944 23.5718C186.338 23.5718 185.213 24.6346 185.213 26.077C185.213 27.5193 186.338 28.5821 187.944 28.5821C188.667 28.5821 189.39 28.3544 189.872 27.9748V26.077ZM193.166 28.5062H192.604V26.8361L190.515 23.6477H191.077L192.845 26.3806L194.612 23.6477H195.175L193.086 26.8361H193.166V28.5062ZM0.0371094 22.4332L6.94605 28.7341H29.842V0.569824H0.0371094V22.4332ZM22.3707 12.7161C22.692 10.6665 21.005 9.60365 18.7555 8.84451H18.8359L19.5589 6.03567L17.7915 5.58018L17.0685 8.3131C16.8676 8.27515 16.6869 8.23719 16.5061 8.19923C16.3253 8.16128 16.1446 8.12332 15.9438 8.08536H15.6224L16.3454 5.35244L14.578 4.89695L13.855 7.70579H13.614C13.2926 7.62987 12.7303 7.47804 12.7303 7.47804L10.2399 6.87073L9.75783 8.69268L11.0432 8.99634C11.7662 9.14816 11.8466 9.98322 11.8466 9.98322L11.0432 13.1716L9.83817 17.5747C9.75783 17.7265 9.51682 18.1061 9.03481 17.9542L7.74942 17.6506L6.86572 19.5485L9.19548 20.0799C9.36769 20.0799 9.51682 20.1235 9.65526 20.1639C9.77514 20.199 9.88699 20.2317 9.99884 20.2317C10.1595 20.3076 10.4809 20.3835 10.4809 20.3835L9.75783 23.1924L11.5252 23.6478L12.2483 20.839C12.7303 20.9908 13.2123 21.1427 13.6943 21.2186L12.9713 23.9515L14.7387 24.407L15.4617 21.5981C18.5145 22.1295 20.7639 21.9018 21.728 19.3207C22.5313 17.1951 21.728 15.9805 20.1213 15.2213C21.246 14.9177 22.1297 14.2344 22.3707 12.7161ZM18.2735 18.1061C17.7915 20.0039 14.578 19.2448 13.132 18.8652H13.0516C12.9713 18.7893 12.7303 18.7893 12.7303 18.7893L13.6943 15.0695C13.855 15.1454 14.0157 15.1454 14.1763 15.1454C14.2686 15.1684 14.3665 15.1921 14.4688 15.217C16.0589 15.6034 18.7264 16.2516 18.2735 18.1061ZM14.5266 13.4826L14.4977 13.4753V13.3994H14.1763L15.06 10.0591C15.2207 10.1351 15.3011 10.1351 15.4617 10.1351C16.7471 10.3628 19.3179 10.8942 18.8359 12.7161C18.3577 14.4483 15.7446 13.7896 14.5266 13.4826Z" fill="white"/>
</svg>
