<svg width="196" height="37" viewBox="0 0 196 37" fill="none" xmlns="http://www.w3.org/2000/svg">
<path fill-rule="evenodd" clip-rule="evenodd" d="M32.517 0.109531C34.969 0.286413 36.935 2.27634 37.1117 4.73058C37.3105 7.67124 35.0132 10.1034 32.1414 10.0813C30.7497 10.0813 29.4905 9.52849 28.5848 8.59989C27.8117 7.80391 26.7735 7.33959 25.6689 7.33959H25.3155C24.211 7.33959 23.1727 7.80391 22.3995 8.59989C21.4938 9.50638 20.2347 10.0813 18.843 10.0813C17.4513 10.0813 16.1921 9.52849 15.2864 8.59989C14.5133 7.80391 13.4751 7.33959 12.3705 7.33959H11.9729C10.8684 7.33959 9.83014 7.80391 9.05697 8.57777L9.01279 8.622L8.96862 8.66618C8.19545 9.44004 7.73155 10.4793 7.73155 11.5848V11.9827C7.73155 13.0883 8.19545 14.1274 8.9907 14.9013C9.8964 15.8078 10.4708 17.0681 10.4708 18.4611C10.4708 19.854 9.91849 21.1143 8.9907 22.0208C8.19545 22.7947 7.73155 23.8339 7.73155 24.9394V25.3816C7.73155 26.4871 8.19545 27.5262 8.9907 28.3001L9.03488 28.3443C9.80805 29.1403 10.8684 29.5604 11.9508 29.5604H12.4147C13.4971 29.5604 14.5354 29.0961 15.3085 28.3222C16.2142 27.4157 17.4734 26.863 18.843 26.863C21.7369 26.863 24.0342 29.2951 23.8354 32.2357C23.6587 34.7121 21.6705 36.702 19.2186 36.8789C17.6501 36.9894 16.2142 36.3925 15.2202 35.3533C14.4691 34.5573 13.453 34.093 12.3705 34.093H11.9508C10.8684 34.093 9.85222 34.5794 9.10114 35.3533C8.15127 36.3482 6.80377 36.9453 5.30161 36.901C2.71704 36.8126 0.596366 34.7121 0.485914 32.1031C0.419643 30.6217 1.01608 29.273 1.98806 28.3222C2.76122 27.5705 3.22512 26.5534 3.22512 25.47V24.9615C3.22512 23.856 2.76122 22.8168 1.96597 22.0429C1.06026 21.1364 0.485914 19.8761 0.485914 18.4832C0.485914 17.0902 1.03817 15.8299 1.96597 14.9234C2.76122 14.1495 3.22512 13.1104 3.22512 12.0049V11.629C3.22512 10.5456 2.8054 9.48426 2.01015 8.73252L1.94388 8.66618C-0.0884358 6.63207 -7.45356e-05 3.2713 2.18687 1.34771C3.99828 -0.266344 6.7596 -0.310564 8.63725 1.21504C8.79186 1.34771 8.94653 1.50248 9.10114 1.65725C9.85222 2.43111 10.8905 2.8512 11.9729 2.8512H12.3484C13.453 2.8512 14.4912 2.38689 15.2644 1.59092C16.1701 0.684398 17.4292 0.109531 18.8209 0.109531C20.2126 0.109531 21.4718 0.662285 22.3775 1.59092C23.1506 2.38689 24.1889 2.8512 25.2934 2.8512H25.691C26.7735 2.8512 27.7896 2.38689 28.5407 1.61303C29.5347 0.595956 30.9485 -0.00102016 32.517 0.109531ZM94.0559 6.59992C95.2377 7.78285 95.2377 9.70073 94.0559 10.8837C92.8736 12.0666 90.9577 12.0666 89.7759 10.8837C88.5941 9.70073 88.5941 7.78285 89.7759 6.59992C90.9577 5.41699 92.8736 5.41699 94.0559 6.59992ZM55.0935 26.2215C51.4929 26.2215 49.2616 22.9934 49.2616 18.5271C49.2616 14.1051 51.1394 10.8106 55.0713 10.8106C57.6558 10.8106 59.3567 12.4689 59.6663 14.6578H65.6749C65.3653 11.9382 64.1504 9.55034 62.0299 7.9584C60.3068 6.63176 57.921 5.81372 55.0935 5.81372C47.8478 5.81372 43.1426 11.297 43.1426 18.5271C43.1426 25.8014 48.0025 31.1299 55.1379 31.1299C58.5615 31.1299 61.0577 30.1792 62.9134 28.3661C64.57 26.7742 65.6749 24.5632 65.8292 22.1532H59.8207C59.5559 24.519 57.7884 26.2215 55.0935 26.2215ZM76.9187 12.734C71.3519 12.734 67.6187 16.7139 67.6187 21.954C67.6187 27.1941 71.3519 31.174 76.9187 31.174C82.5294 31.174 86.1965 27.1941 86.1965 21.954C86.1965 16.7139 82.5294 12.734 76.9187 12.734ZM76.8965 27.2163C74.4885 27.2163 73.2293 25.1158 73.2293 21.954C73.2293 18.7922 74.4885 16.6476 76.8965 16.6476C79.3045 16.6476 80.6075 18.7922 80.6075 21.954C80.5858 25.1158 79.3045 27.2163 76.8965 27.2163ZM87.1019 17.1124H89.4211V30.6217H94.9441V13.1989H87.1019V17.1124ZM103.162 15.5864C104.443 13.707 106.122 12.69 108.529 12.69C112.329 12.69 114.582 15.4096 114.582 19.2789V30.5993H109.038V20.4065C109.038 18.5713 108.132 17.311 106.321 17.311C104.487 17.311 103.272 18.8366 103.272 20.9813V30.5993H97.7276V13.1985H103.051V15.5864H103.162ZM127.572 6.30017H117.212V30.5994H127.197C130.245 30.5994 132.697 29.8255 134.597 28.3883C137.314 26.31 138.816 22.8829 138.816 18.5935C138.816 11.1644 134.287 6.30017 127.572 6.30017ZM126.755 25.5582H123.22V11.3413H126.821C130.599 11.3413 132.741 14.1935 132.741 18.6156C132.719 23.0597 130.687 25.5582 126.755 25.5582ZM149.287 12.8227C151.761 12.8227 153.727 13.6408 155.229 14.9895C157.306 16.8909 158.322 19.8979 158.299 23.4577H145.796C146.15 25.8014 147.431 27.2607 149.706 27.2607C151.164 27.2607 152.114 26.6195 152.6 25.5361H157.99C157.615 27.1059 156.599 28.5873 155.075 29.6486C153.616 30.6656 151.849 31.2405 149.64 31.2405C143.897 31.2405 140.362 27.2607 140.362 21.9984C140.362 16.8025 143.985 12.8227 149.287 12.8227ZM149.375 16.7362C147.276 16.7362 146.194 18.0628 145.818 20.1412H152.667C152.468 18.0628 151.164 16.7362 149.375 16.7362ZM169.211 19.721C168.956 19.6751 168.704 19.6321 168.458 19.5901C166.574 19.2683 165.036 19.0057 165.036 17.9301C165.036 16.8467 166.096 16.3381 167.444 16.3381C168.968 16.3381 170.029 16.8246 170.228 18.3723H175.33C175.065 14.9452 172.415 12.8005 167.488 12.8005C163.379 12.8005 159.977 14.702 159.977 18.3723C159.977 22.4627 163.203 23.2586 166.229 23.7672C166.452 23.8055 166.673 23.8417 166.891 23.8773C168.933 24.2121 170.647 24.4931 170.647 25.9119C170.647 27.0395 169.587 27.6365 167.93 27.6365C166.096 27.6365 164.948 26.7963 164.727 25.0496H159.492C159.668 28.8968 162.849 31.2404 167.952 31.2404C172.503 31.2404 175.86 29.2727 175.86 25.4697C175.883 21.0255 172.282 20.2295 169.211 19.721ZM195.013 13.1986L188.894 19.7432L195.72 30.6214H189.314L185.139 23.502L183.46 25.2708V30.6214H178.004V6.30017H183.46V19.0799L188.629 13.1986H195.013ZM18.7989 20.1415C19.7262 20.1415 20.4778 19.3892 20.4778 18.4611C20.4778 17.533 19.7262 16.7808 18.7989 16.7808C17.8717 16.7808 17.1201 17.533 17.1201 18.4611C17.1201 19.3892 17.8717 20.1415 18.7989 20.1415ZM33.8645 18.4611C33.8645 19.3892 33.1128 20.1415 32.1856 20.1415C31.2583 20.1415 30.5067 19.3892 30.5067 18.4611C30.5067 17.533 31.2583 16.7808 32.1856 16.7808C33.1128 16.7808 33.8645 17.533 33.8645 18.4611ZM32.1856 33.5622C33.1128 33.5622 33.8645 32.8098 33.8645 31.8818C33.8645 30.9538 33.1128 30.2014 32.1856 30.2014C31.2583 30.2014 30.5067 30.9538 30.5067 31.8818C30.5067 32.8098 31.2583 33.5622 32.1856 33.5622Z" fill="white"/>
</svg>
