<svg width="223" height="55" viewBox="0 0 223 55" fill="none" xmlns="http://www.w3.org/2000/svg">
<path fill-rule="evenodd" clip-rule="evenodd" d="M7.13622 12.4847C7.30853 5.54031 13.0156 0 19.9966 0C26.9776 0 32.6848 5.54031 32.8571 12.4847L32.978 17.3582C35.4371 16.4782 38.8838 15.2626 39.6657 17.1259C40.4532 19.0027 33.8519 21.3068 32.3792 21.7611C28.674 22.9043 23.8796 23.5895 19.8699 23.5895C15.8602 23.5895 11.0658 22.9043 7.36046 21.7611C5.97212 21.3328 -0.777644 19.1555 0.0740261 17.1259C0.731061 15.56 3.85075 16.5343 6.32397 17.3065C6.55985 17.3802 6.78986 17.4521 7.01128 17.5197L7.13622 12.4847ZM22.532 31.1583C21.2176 31.1583 19.752 32.412 19.743 33.9197C19.7341 32.4122 18.2685 31.1584 16.9541 31.1584C13.894 31.1584 12.2995 32.5751 10.9432 33.78C9.93959 34.6717 9.06641 35.4475 7.82635 35.4475C3.76957 35.4475 6.43182 31.7891 6.43182 31.7891C6.43182 31.7891 3.38924 31.7891 3.38924 35.4475C3.38924 38.0966 8.07989 39.4841 12.3902 39.4841C16.6911 39.4841 19.7299 36.721 19.743 33.9518C19.7563 36.7209 22.7951 39.4839 27.0959 39.4839C31.4063 39.4839 36.0969 38.0964 36.0969 35.4473C36.0969 31.789 33.0543 31.789 33.0543 31.789C33.0543 31.789 35.7165 35.4473 31.6597 35.4473C30.4197 35.4473 29.5465 34.6716 28.5428 33.7799C27.1866 32.575 25.5921 31.1583 22.532 31.1583ZM10.9957 54.7378C11.7401 54.9069 12.5531 55 13.4044 55C15.605 55 17.5488 54.378 18.7166 53.4277C19.055 53.6253 19.4491 53.7386 19.8699 53.7386C20.2907 53.7386 20.6848 53.6253 21.0232 53.4277C22.1908 54.378 24.1346 55 26.3354 55C27.1867 55 27.9996 54.9069 28.744 54.7378V47.9458C27.9996 47.7767 27.1867 47.6835 26.3354 47.6835C24.0159 47.6835 21.9819 48.3746 20.8409 49.4125C20.5463 49.2745 20.2171 49.1974 19.8699 49.1974C19.5226 49.1974 19.1935 49.2745 18.8987 49.4125C17.7579 48.3746 15.7238 47.6835 13.4044 47.6835C12.5531 47.6835 11.7401 47.7767 10.9957 47.9458V54.7378ZM123.333 18.3414H120.304V32.1802L107.01 18.3414H105.667V38.2726H108.696V24.2897L122.162 38.2726H123.333V18.3414ZM68.8004 19.3745V22.9446C67.0498 21.4872 65.2386 20.7586 63.3666 20.7586C61.3041 20.7586 59.5666 21.4959 58.1539 22.9704C56.7327 24.4365 56.022 26.23 56.022 28.3514C56.022 30.4469 56.7327 32.2147 58.1539 33.6548C59.5753 35.0948 61.3171 35.8149 63.3798 35.8149C64.4456 35.8149 65.3512 35.6425 66.0966 35.2975C66.5125 35.125 66.9414 34.8923 67.3835 34.599C67.8341 34.3058 68.3064 33.9523 68.8004 33.5383V37.1731C67.0672 38.1476 65.2473 38.6347 63.3406 38.6347C60.4722 38.6347 58.024 37.6387 55.9961 35.6467C53.9769 33.6376 52.9672 31.2144 52.9672 28.3772C52.9672 25.8333 53.8122 23.5654 55.5022 21.5734C57.582 19.1331 60.2728 17.9129 63.5747 17.9129C65.3772 17.9129 67.1191 18.4001 68.8004 19.3745ZM72.0114 28.1961C72.0114 25.3849 73.0469 22.9704 75.1182 20.9526C77.1807 18.9347 79.6593 17.9258 82.5537 17.9258C85.4135 17.9258 87.8662 18.9433 89.9113 20.9785C91.9652 23.0136 92.9922 25.4582 92.9922 28.3126C92.9922 31.1841 91.961 33.6202 89.8983 35.6209C87.8271 37.6302 85.3269 38.6347 82.3978 38.6347C79.8066 38.6347 77.4797 37.7422 75.4172 35.9572C73.1466 33.9824 72.0114 31.3955 72.0114 28.1961ZM75.0662 28.235C75.0662 30.4426 75.8114 32.2577 77.302 33.6806C78.7839 35.1035 80.4956 35.8149 82.4368 35.8149C84.5426 35.8149 86.3192 35.0905 87.7664 33.6418C89.2137 32.1758 89.9374 30.3908 89.9374 28.2867C89.9374 26.1567 89.2224 24.3717 87.7925 22.9317C86.3711 21.483 84.6119 20.7586 82.5147 20.7586C80.4262 20.7586 78.6626 21.483 77.2241 22.9317C75.7855 24.3632 75.0662 26.1309 75.0662 28.235ZM97.3081 38.2726H100.337V18.3009H97.3081V38.2726ZM143.677 22.9446V19.3745C141.996 18.4001 140.253 17.9129 138.451 17.9129C135.149 17.9129 132.458 19.1331 130.378 21.5734C128.688 23.5654 127.844 25.8333 127.844 28.3772C127.844 31.2144 128.853 33.6376 130.872 35.6467C132.9 37.6387 135.349 38.6347 138.218 38.6347C140.123 38.6347 141.943 38.1476 143.677 37.1731V33.5383C143.183 33.9523 142.71 34.3058 142.26 34.599C141.817 34.8923 141.389 35.125 140.973 35.2975C140.228 35.6425 139.322 35.8149 138.256 35.8149C136.194 35.8149 134.452 35.0948 133.03 33.6548C131.609 32.2147 130.898 30.4469 130.898 28.3514C130.898 26.23 131.609 24.4365 133.03 22.9704C134.443 21.4959 136.181 20.7586 138.243 20.7586C140.115 20.7586 141.926 21.4872 143.677 22.9446ZM148.019 18.3009H151.048V38.2726H148.019V18.3009ZM159.407 21.1337H167.453V18.3009H156.378V38.2726H167.453V35.4398H159.407V28.7654H167.218V25.9326H159.407V21.1337ZM178.736 29.7613L184.95 38.2726H181.245L175.512 30.0976H174.966V38.2726H171.937V18.3009H175.486C178.139 18.3009 180.054 18.7968 181.231 19.7884C182.532 20.8923 183.183 22.3496 183.183 24.1605C183.183 25.5747 182.775 26.7906 181.96 27.8081C181.146 28.8257 180.071 29.4768 178.736 29.7613ZM174.966 27.4718H175.928C178.797 27.4718 180.231 26.381 180.231 24.1993C180.231 22.1556 178.835 21.1337 176.045 21.1337H174.966V27.4718ZM206.632 27.8729H198.339V30.7055H203.344C203.205 32.1112 202.542 33.3184 201.355 34.3274C200.168 35.3277 198.829 35.8278 197.338 35.8278C195.587 35.8278 193.962 35.1595 192.463 33.8229C190.86 32.3829 190.059 30.5504 190.059 28.3255C190.059 26.1697 190.779 24.3761 192.217 22.9446C193.656 21.4872 195.437 20.7586 197.559 20.7586C199.925 20.7586 201.931 21.8494 203.578 24.0311L205.736 21.9744C204.479 20.543 203.201 19.5082 201.901 18.87C200.54 18.2319 199.076 17.9129 197.507 17.9129C194.587 17.9129 192.108 18.9261 190.071 20.9526C188.036 22.9704 187.017 25.4281 187.017 28.3255C187.017 31.1626 188.018 33.5944 190.02 35.6209C192.022 37.6387 194.427 38.6477 197.234 38.6477C200.111 38.6477 202.481 37.6042 204.345 35.5173C205.168 34.586 205.753 33.5857 206.1 32.5165C206.455 31.361 206.632 30.033 206.632 28.5325V27.8729ZM222.037 21.1337H213.991V25.9326H221.803V28.7654H213.991V35.4398H222.037V38.2726H210.962V18.3009H222.037V21.1337Z" fill="white"/>
</svg>
