<svg width="503" height="715" viewBox="0 0 503 715" fill="none" xmlns="http://www.w3.org/2000/svg">
<path d="M-185 134.657C-185 230.424 -185 278.307 -166.033 317.704C-157.508 335.412 -146.323 351.605 -132.896 365.678C-103.022 396.99 -59.2725 412.444 28.2258 443.351L200.467 504.193C325.836 548.478 388.521 570.62 435.281 545.881C446.268 540.068 456.357 532.59 465.214 523.693C502.909 485.829 502.909 417.22 502.909 280.003C502.909 184.993 502.909 137.487 481.748 99.5287C476.618 90.3267 470.635 81.6645 463.883 73.6649C436.031 40.6662 392.627 25.3345 305.82 -5.32896L101.305 -77.5711C-9.07667 -116.562 -64.2673 -136.057 -106.823 -118.511C-161.352 -96.0287 -185 -43.7725 -185 1.20477C-185 31.579 -185 87.5388 -185 134.657Z" fill="url(#paint0_linear_1670_20850)"/>
<path fill-rule="evenodd" clip-rule="evenodd" d="M-185 360.531C-185 437.234 -185 500.118 -172.691 532.848C-161.82 561.753 -144.175 587.402 -121.347 607.48C-95.499 630.214 -60.5048 642.73 9.48379 667.761L33.6093 676.389C114.883 705.456 155.52 719.99 188.144 713.454C223.451 706.382 254.057 683.785 272.032 651.521C288.642 621.707 288.642 553.807 288.642 464.737C288.642 394.458 288.642 359.318 278.277 329.022C267.01 296.086 247.055 267.082 220.679 245.3C196.417 225.264 164.354 213.797 100.226 190.863C100.226 190.863 -10.2036 151.78 -78.9945 126.878C-147.785 101.975 -185 52.0234 -185 0.0656128L-185 360.531Z" fill="white"/>
<defs>
<linearGradient id="paint0_linear_1670_20850" x1="478.663" y1="108.099" x2="-167.843" y2="466.72" gradientUnits="userSpaceOnUse">
<stop stop-color="white"/>
<stop offset="1" stop-color="white" stop-opacity="0.12"/>
</linearGradient>
</defs>
</svg>
