<svg width="366" height="548" viewBox="0 0 366 548" fill="none" xmlns="http://www.w3.org/2000/svg">
<path d="M688.906 580.343C688.906 484.576 688.906 436.693 669.94 397.296C661.415 379.588 650.229 363.395 636.802 349.321C606.928 318.01 563.179 302.556 475.68 271.648L303.44 210.807C178.07 166.522 115.386 144.379 68.625 169.119C57.6379 174.932 47.5495 182.41 38.6925 191.307C0.99762 229.171 0.99762 297.78 0.99762 434.996C0.99762 530.007 0.997681 577.512 22.1583 615.471C27.2881 624.673 33.2714 633.335 40.0233 641.335C67.8752 674.333 111.279 689.665 198.086 720.329L402.602 792.571C512.983 831.561 568.173 851.057 610.729 833.511C665.258 811.028 688.906 758.772 688.906 713.795C688.906 683.421 688.906 627.461 688.906 580.343Z" fill="url(#paint0_linear_1670_20847)"/>
<path fill-rule="evenodd" clip-rule="evenodd" d="M688.906 354.469C688.906 277.766 688.906 214.882 676.597 182.152C665.726 153.247 648.081 127.598 625.253 107.52C599.405 84.7858 564.411 72.2703 494.422 47.2393L470.297 38.611C389.023 9.54393 348.386 -4.98962 315.762 1.54569C280.456 8.61832 249.849 31.2145 231.874 63.4791C215.264 93.2925 215.264 161.193 215.264 250.263C215.264 320.542 215.264 355.682 225.629 385.978C236.897 418.914 256.851 447.918 283.227 469.7C307.489 489.736 339.553 501.203 403.68 524.137C403.68 524.137 514.11 563.22 582.901 588.122C651.692 613.025 688.906 662.977 688.906 714.934V354.469Z" fill="white"/>
<defs>
<linearGradient id="paint0_linear_1670_20847" x1="25.2436" y1="606.901" x2="671.75" y2="248.28" gradientUnits="userSpaceOnUse">
<stop stop-color="white"/>
<stop offset="1" stop-color="white" stop-opacity="0.12"/>
</linearGradient>
</defs>
</svg>
