<svg width="52" height="52" viewBox="0 0 52 52" fill="none" xmlns="http://www.w3.org/2000/svg">
<g id="connect">
<path id="Union" fill-rule="evenodd" clip-rule="evenodd" d="M41.0148 10.974C45.1641 15.1233 45.1641 21.8507 41.0148 26L40.0901 26.9247C38.3082 28.7066 35.5295 28.884 33.5491 27.4569L32.0008 29.0052C31.1709 29.8351 29.8254 29.8351 28.9956 29.0052C28.1657 28.1754 28.1657 26.8299 28.9956 26L30.4974 24.4982L27.4925 21.4933L25.991 22.9948C25.1612 23.8247 23.8157 23.8247 22.9858 22.9948C22.156 22.1649 22.156 20.8195 22.9858 19.9896L24.5335 18.4419C23.1047 16.4614 23.2815 13.6812 25.0641 11.8987L25.9888 10.974C30.1381 6.82467 36.8655 6.82467 41.0148 10.974ZM35.0546 23.045C35.0387 23.0281 35.0225 23.0114 35.006 22.9948C34.9894 22.9783 34.9727 22.9621 34.9558 22.9462L29.0537 17.0441C29.035 17.0239 29.0158 17.004 28.9962 16.9844C28.9766 16.9648 28.9567 16.9456 28.9365 16.9269L28.0693 16.0597C27.7501 15.7405 27.7501 15.2231 28.0693 14.9039L28.994 13.9792C31.4836 11.4896 35.52 11.4896 38.0096 13.9792C40.4992 16.4688 40.4992 20.5052 38.0096 22.9948L37.0849 23.9195C36.7657 24.2387 36.2482 24.2387 35.9291 23.9195L35.0546 23.045Z" fill="white"/>
<path id="Union_2" fill-rule="evenodd" clip-rule="evenodd" d="M10.9818 41.026C6.83248 36.8767 6.83248 30.1493 10.9818 26L11.9065 25.0753C13.8854 23.0964 17.0938 23.0964 19.0727 25.0753L26.9325 32.9351C28.9114 34.914 28.9114 38.1224 26.9325 40.1013L26.0078 41.026C21.8585 45.1753 15.1311 45.1753 10.9818 41.026ZM13.987 29.0052C11.4974 31.4948 11.4974 35.5312 13.987 38.0208C16.4766 40.5104 20.513 40.5104 23.0026 38.0208L23.9273 37.0961C24.2465 36.7769 24.2465 36.2594 23.9273 35.9403L16.0675 28.0805C15.7484 27.7613 15.2309 27.7613 14.9117 28.0805L13.987 29.0052Z" fill="white"/>
</g>
</svg>
