<svg width="65" height="64" viewBox="0 0 65 64" fill="none" xmlns="http://www.w3.org/2000/svg">
<path d="M28.8516 11.6188C31.3268 10.1897 34.3764 10.1897 36.8516 11.6188L48.5022 18.3453C50.9774 19.7744 52.5022 22.4154 52.5022 25.2735V38.7265C52.5022 41.5846 50.9774 44.2256 48.5022 45.6547L36.8516 52.3812C34.3764 53.8103 31.3268 53.8103 28.8516 52.3812L17.2009 45.6547C14.7257 44.2256 13.2009 41.5846 13.2009 38.7265V25.2735C13.2009 22.4154 14.7257 19.7744 17.2009 18.3453L28.8516 11.6188Z" fill="#C8CBFF" stroke="#5A63FF" stroke-width="4"/>
<path d="M31.9331 24.1327C32.2802 23.3268 33.4229 23.3268 33.77 24.1327L35.3205 27.7332C35.4653 28.0693 35.7822 28.2996 36.1466 28.3334L40.05 28.6954C40.9237 28.7764 41.2768 29.8632 40.6176 30.4424L37.6725 33.0296C37.3975 33.2712 37.2765 33.6437 37.357 34.0007L38.2189 37.8249C38.4118 38.6809 37.4873 39.3526 36.7328 38.9046L33.3621 36.9032C33.0474 36.7163 32.6557 36.7163 32.341 36.9032L28.9703 38.9046C28.2158 39.3526 27.2913 38.6809 27.4843 37.8249L28.3462 34.0007C28.4266 33.6437 28.3056 33.2712 28.0306 33.0296L25.0855 30.4424C24.4263 29.8632 24.7794 28.7764 25.6532 28.6954L29.5565 28.3334C29.921 28.2996 30.2378 28.0693 30.3826 27.7332L31.9331 24.1327Z" fill="#5A63FF"/>
</svg>
