<svg width="1347" height="382" viewBox="0 0 1347 382" fill="none" xmlns="http://www.w3.org/2000/svg">
<rect width="1347" height="382" fill="white"/>
<path d="M553.903 190.762C559.24 191.899 563.526 194.567 566.763 198.766C569.999 202.877 571.618 207.601 571.618 212.937C571.618 220.636 568.906 226.759 563.482 231.308C558.146 235.769 550.667 238 541.044 238H498.136V145.885H539.601C548.961 145.885 556.265 148.028 561.514 152.315C566.85 156.601 569.518 162.418 569.518 169.767C569.518 175.19 568.075 179.696 565.188 183.282C562.389 186.869 558.627 189.362 553.903 190.762ZM520.574 183.151H535.27C538.945 183.151 541.744 182.364 543.668 180.789C545.68 179.127 546.686 176.721 546.686 173.572C546.686 170.423 545.68 168.017 543.668 166.355C541.744 164.693 538.945 163.862 535.27 163.862H520.574V183.151ZM537.107 219.892C540.869 219.892 543.756 219.061 545.768 217.399C547.867 215.649 548.917 213.156 548.917 209.919C548.917 206.683 547.824 204.146 545.637 202.309C543.537 200.472 540.607 199.553 536.845 199.553H520.574V219.892H537.107Z" fill="black"/>
<path d="M653.653 200.209C653.653 202.309 653.521 204.496 653.259 206.77H602.478C602.828 211.319 604.271 214.818 606.808 217.268C609.432 219.63 612.625 220.81 616.387 220.81C621.985 220.81 625.878 218.449 628.065 213.725H651.947C650.722 218.536 648.491 222.866 645.255 226.715C642.105 230.564 638.125 233.582 633.314 235.769C628.502 237.956 623.123 239.05 617.174 239.05C610.001 239.05 603.615 237.519 598.016 234.457C592.418 231.395 588.044 227.021 584.894 221.335C581.745 215.649 580.171 209.001 580.171 201.39C580.171 193.78 581.701 187.131 584.763 181.445C587.912 175.759 592.286 171.385 597.885 168.323C603.484 165.262 609.913 163.731 617.174 163.731C624.26 163.731 630.558 165.218 636.069 168.192C641.581 171.166 645.867 175.409 648.929 180.92C652.078 186.431 653.653 192.861 653.653 200.209ZM630.689 194.304C630.689 190.455 629.377 187.394 626.753 185.119C624.129 182.845 620.848 181.708 616.912 181.708C613.15 181.708 609.957 182.801 607.333 184.988C604.796 187.175 603.221 190.28 602.609 194.304H630.689Z" fill="black"/>
<path d="M695.276 239.05C688.89 239.05 683.204 237.956 678.218 235.769C673.232 233.582 669.295 230.608 666.408 226.846C663.522 222.997 661.903 218.711 661.553 213.987H683.729C683.992 216.524 685.173 218.58 687.272 220.154C689.372 221.729 691.952 222.516 695.014 222.516C697.813 222.516 699.956 221.991 701.444 220.942C703.018 219.804 703.806 218.361 703.806 216.611C703.806 214.512 702.712 212.981 700.525 212.019C698.338 210.969 694.795 209.832 689.896 208.607C684.648 207.382 680.274 206.114 676.775 204.802C673.275 203.402 670.257 201.259 667.721 198.372C665.184 195.398 663.915 191.418 663.915 186.431C663.915 182.232 665.053 178.427 667.327 175.015C669.689 171.516 673.101 168.761 677.562 166.749C682.111 164.737 687.491 163.731 693.702 163.731C702.887 163.731 710.104 166.005 715.353 170.554C720.689 175.103 723.751 181.139 724.538 188.662H703.806C703.456 186.125 702.318 184.113 700.394 182.626C698.557 181.139 696.107 180.395 693.046 180.395C690.421 180.395 688.409 180.92 687.01 181.97C685.61 182.932 684.91 184.288 684.91 186.038C684.91 188.137 686.004 189.712 688.191 190.762C690.465 191.811 693.964 192.861 698.688 193.911C704.112 195.31 708.529 196.71 711.941 198.11C715.353 199.422 718.327 201.609 720.864 204.671C723.488 207.645 724.844 211.669 724.932 216.743C724.932 221.029 723.707 224.878 721.258 228.29C718.896 231.614 715.44 234.238 710.891 236.163C706.43 238.087 701.225 239.05 695.276 239.05Z" fill="black"/>
<path d="M779.468 218.973V238H768.052C759.917 238 753.574 236.032 749.025 232.095C744.477 228.071 742.202 221.554 742.202 212.544V183.413H733.279V164.78H742.202V146.935H764.64V164.78H779.337V183.413H764.64V212.806C764.64 214.993 765.165 216.568 766.215 217.53C767.265 218.492 769.014 218.973 771.464 218.973H779.468Z" fill="black"/>
<path d="M854.284 145.885C863.994 145.885 872.479 147.81 879.74 151.659C887.001 155.508 892.599 160.931 896.536 167.93C900.56 174.84 902.572 182.845 902.572 191.943C902.572 200.953 900.56 208.957 896.536 215.955C892.599 222.954 886.957 228.377 879.609 232.226C872.348 236.075 863.906 238 854.284 238H819.773V145.885H854.284ZM852.84 218.58C861.326 218.58 867.931 216.262 872.654 211.625C877.378 206.989 879.74 200.428 879.74 191.943C879.74 183.457 877.378 176.852 872.654 172.129C867.931 167.405 861.326 165.043 852.84 165.043H842.212V218.58H852.84Z" fill="black"/>
<path d="M937.55 163.862V182.495H967.599V199.816H937.55V220.023H971.535V238H915.112V145.885H971.535V163.862H937.55Z" fill="black"/>
<path d="M1042.53 238L1023.76 209.788L1007.23 238H981.772L1011.3 191.155L981.116 145.885H1007.23L1025.73 173.703L1042 145.885H1067.46L1038.2 192.336L1068.64 238H1042.53Z" fill="black"/>
<path d="M303.386 185.029C291.046 176.061 284.876 171.577 284.505 166.263C284.389 164.599 284.639 162.93 285.237 161.373C287.146 156.399 294.357 153.916 308.781 148.95L351.473 134.25C362.472 130.463 367.971 128.569 373.516 128.86C375.343 128.956 377.157 129.227 378.932 129.67C384.319 131.013 389.025 134.433 398.435 141.272L420.169 157.067C430.141 164.314 435.127 167.938 437.624 173.057C438.44 174.732 439.049 176.5 439.436 178.322C440.621 183.893 438.923 189.818 435.526 201.669L428.124 227.496C424.919 238.679 423.317 244.27 419.899 248.646C418.773 250.088 417.51 251.418 416.13 252.618C411.939 256.262 406.44 258.155 395.441 261.943L352.749 276.643C338.326 281.609 331.114 284.092 326.548 281.349C325.118 280.49 323.893 279.328 322.96 277.945C319.981 273.529 322.082 266.197 326.285 251.533L336.129 217.185C336.978 214.223 337.402 212.742 337.106 211.349C337.009 210.893 336.857 210.451 336.653 210.033C336.029 208.753 334.782 207.847 332.289 206.035L303.386 185.029Z" fill="url(#paint0_linear_2476_65789)"/>
<path d="M239.676 170.577C227.336 161.61 221.166 157.126 220.795 151.811C220.679 150.147 220.929 148.478 221.527 146.921C223.436 141.948 230.648 139.464 245.071 134.498L287.763 119.798C298.762 116.011 304.261 114.117 309.806 114.408C311.633 114.504 313.447 114.775 315.222 115.218C320.61 116.562 325.315 119.981 334.725 126.82L356.459 142.615C366.431 149.863 371.417 153.486 373.914 158.605C374.73 160.28 375.339 162.048 375.726 163.87C376.911 169.441 375.213 175.366 371.816 187.217L364.414 213.044C361.209 224.227 359.607 229.818 356.189 234.194C355.063 235.636 353.8 236.966 352.42 238.167C348.229 241.81 342.73 243.703 331.731 247.491L289.039 262.191C274.616 267.157 267.404 269.64 262.838 266.897C261.408 266.038 260.183 264.876 259.25 263.493C256.271 259.077 258.372 251.745 262.575 237.081L272.419 202.734C273.268 199.771 273.692 198.29 273.396 196.897C273.299 196.441 273.147 195.999 272.943 195.581C272.319 194.301 271.072 193.395 268.579 191.583L239.676 170.577Z" fill="#25FBFB"/>
<path d="M347.046 135.774L356.459 142.615C366.431 149.863 371.417 153.486 373.914 158.606C374.731 160.28 375.339 162.048 375.727 163.87C376.911 169.441 375.213 175.367 371.817 187.217L364.415 213.044C361.21 224.227 359.607 229.819 356.189 234.194C355.063 235.636 353.801 236.966 352.42 238.167C348.23 241.81 342.73 243.703 331.731 247.491L326.974 249.129L336.129 217.185C336.978 214.223 337.402 212.742 337.106 211.349C337.009 210.893 336.857 210.451 336.653 210.033C336.029 208.753 334.782 207.847 332.289 206.035L303.386 185.029C291.046 176.061 284.876 171.577 284.505 166.263C284.389 164.599 284.639 162.93 285.237 161.372C287.146 156.399 294.357 153.916 308.781 148.95L347.046 135.774Z" fill="url(#paint1_linear_2476_65789)"/>
<defs>
<linearGradient id="paint0_linear_2476_65789" x1="461.502" y1="196.832" x2="285.932" y2="193.053" gradientUnits="userSpaceOnUse">
<stop stop-color="#626AFF"/>
<stop offset="1" stop-color="#4650FF"/>
</linearGradient>
<linearGradient id="paint1_linear_2476_65789" x1="297.66" y1="191.166" x2="487.555" y2="174.703" gradientUnits="userSpaceOnUse">
<stop stop-color="#21BEFF"/>
<stop offset="1" stop-color="#68FFFF"/>
</linearGradient>
</defs>
</svg>
