<svg width="38" height="37" viewBox="0 0 38 37" fill="none" xmlns="http://www.w3.org/2000/svg">
<path d="M18.905 0.688965C29.2057 0.705121 37.4089 8.71044 37.384 18.7148C37.3549 28.6789 29.0271 36.7043 18.7803 36.6396C8.49624 36.575 0.25152 28.5334 0.280594 18.5977C0.305515 8.65384 8.60841 0.672677 18.905 0.692871V0.688965ZM22.6307 8.93652C22.261 9.97049 21.3431 10.12 20.2175 9.99072C19.3328 9.88975 18.4025 9.84958 17.5344 9.99902C16.2883 10.2131 15.4617 9.7484 14.8304 8.68213C13.3559 9.12641 11.9603 9.49385 10.6104 9.97852C10.0622 10.1764 9.4599 10.5361 9.15254 10.9966C6.44029 15.0355 5.16927 19.4783 5.48909 24.3008C5.52232 24.8097 5.91698 25.4515 6.3531 25.7544C8.14742 26.9943 10.0954 27.9639 12.4089 28.5132C12.8492 27.8064 13.2562 27.1482 13.6716 26.4858C12.9738 26.0012 12.4214 25.6132 11.869 25.2295L12.0019 24.8501C16.5957 26.7444 21.1895 26.7319 25.7916 24.8013L25.8953 25.2378L23.993 26.4492C24.454 27.156 24.911 27.8549 25.5091 28.7637C27.5153 27.762 29.3428 26.8493 31.1662 25.9365C31.9886 25.5246 32.242 24.8699 32.2711 23.9692C32.3666 20.9926 31.8723 18.133 30.8671 15.3179C29.5505 11.6223 27.4322 8.93661 22.639 8.94873L22.6307 8.93652Z" fill="#C6C6C6"/>
<path d="M16.8242 19.6396C16.8242 21.0008 15.7236 22.2002 14.4526 22.2285C13.1027 22.2608 11.9189 20.9847 11.9687 19.5469C12.0185 18.1575 13.111 17.0749 14.4401 17.0991C15.7693 17.1234 16.8242 18.2503 16.82 19.6396H16.8242Z" fill="#C6C6C6"/>
<path d="M23.4116 17.0991C24.7656 17.1476 25.7043 18.2219 25.6794 19.688C25.6545 21.138 24.6535 22.2208 23.3244 22.2329C21.9454 22.245 20.8863 21.0289 20.9444 19.5103C21.0026 18.0805 22.0575 17.0507 23.4074 17.0991H23.4116Z" fill="#C6C6C6"/>
</svg>
