<svg width="687" height="509" viewBox="0 0 687 509" fill="none" xmlns="http://www.w3.org/2000/svg">
<rect width="687" height="509" rx="60" fill="#31DB39"/>
<g clip-path="url(#clip0_513_3763)">
<path d="M687 0H0V509H687V0Z" fill="white"/>
<path d="M687 0H0V509H687V0Z" fill="#EE46D3" fill-opacity="0.353644"/>
<mask id="mask0_513_3763" style="mask-type:luminance" maskUnits="userSpaceOnUse" x="0" y="0" width="687" height="509">
<path d="M687 0H0V509H687V0Z" fill="white"/>
</mask>
<g mask="url(#mask0_513_3763)">
<g filter="url(#filter0_f_513_3763)">
<path d="M698.593 31.4944H192.36V418.334H698.593V31.4944Z" fill="#00ACED"/>
<path d="M547.453 113.253H61.4006V517.589H547.453V113.253Z" fill="#5A63FF"/>
</g>
</g>
</g>
<path opacity="0.3" d="M235 211C235 188.598 235 177.397 239.36 168.84C243.195 161.314 249.314 155.195 256.84 151.36C265.397 147 276.598 147 299 147H387C409.402 147 420.603 147 429.16 151.36C436.686 155.195 442.805 161.314 446.64 168.84C451 177.397 451 188.598 451 211V299C451 321.402 451 332.603 446.64 341.16C442.805 348.686 436.686 354.805 429.16 358.64C420.603 363 409.402 363 387 363H299C276.598 363 265.397 363 256.84 358.64C249.314 354.805 243.195 348.686 239.36 341.16C235 332.603 235 321.402 235 299V211Z" fill="white"/>
<path opacity="0.3" d="M235 211C235 188.598 235 177.397 239.36 168.84C243.195 161.314 249.314 155.195 256.84 151.36C265.397 147 276.598 147 299 147H387C409.402 147 420.603 147 429.16 151.36C436.686 155.195 442.805 161.314 446.64 168.84C451 177.397 451 188.598 451 211V299C451 321.402 451 332.603 446.64 341.16C442.805 348.686 436.686 354.805 429.16 358.64C420.603 363 409.402 363 387 363H299C276.598 363 265.397 363 256.84 358.64C249.314 354.805 243.195 348.686 239.36 341.16C235 332.603 235 321.402 235 299V211Z" fill="white"/>
<path d="M410.722 88.8599C411.968 85.2789 417.032 85.2789 418.278 88.8599L424.968 108.091C428.382 117.904 436.096 125.618 445.909 129.032L465.14 135.722C468.721 136.968 468.721 142.032 465.14 143.278L445.909 149.968C436.096 153.382 428.382 161.096 424.968 170.909L418.278 190.14C417.032 193.721 411.968 193.721 410.722 190.14L404.032 170.909C400.618 161.096 392.904 153.382 383.091 149.968L363.86 143.278C360.279 142.032 360.279 136.968 363.86 135.722L383.091 129.032C392.904 125.618 400.618 117.904 404.032 108.091L410.722 88.8599Z" fill="white"/>
<path d="M473.662 169.268C474.59 166.567 478.41 166.567 479.338 169.268L483.408 181.129C484.995 185.754 488.609 189.399 493.22 191.025L504.977 195.171C507.647 196.112 507.647 199.888 504.977 200.829L493.22 204.975C488.609 206.601 484.995 210.246 483.408 214.871L479.338 226.732C478.41 229.433 474.59 229.433 473.662 226.732L469.592 214.871C468.005 210.246 464.391 206.601 459.78 204.975L448.023 200.829C445.353 199.888 445.353 196.112 448.023 195.171L459.78 191.025C464.391 189.399 468.005 185.754 469.592 181.129L473.662 169.268Z" fill="white"/>
<defs>
<filter id="filter0_f_513_3763" x="-188.599" y="-218.506" width="1137.19" height="986.095" filterUnits="userSpaceOnUse" color-interpolation-filters="sRGB">
<feFlood flood-opacity="0" result="BackgroundImageFix"/>
<feBlend mode="normal" in="SourceGraphic" in2="BackgroundImageFix" result="shape"/>
<feGaussianBlur stdDeviation="125" result="effect1_foregroundBlur_513_3763"/>
</filter>
<clipPath id="clip0_513_3763">
<rect width="687" height="509" rx="60" fill="white"/>
</clipPath>
</defs>
</svg>
