<svg width="295" height="29" viewBox="0 0 295 29" fill="none" xmlns="http://www.w3.org/2000/svg">
<path d="M3.87559 27.3947C5.96233 27.3947 7.25119 27.3289 7.86493 27.1316C8.47868 27 8.78555 26.5395 8.9083 25.8816C9.03105 25.2237 9.03105 18.9079 9.03105 7L8.9083 1.60526H6.14645C4.61209 1.80263 3.44597 2.32895 2.64811 3.31579C1.72749 4.36842 0.990996 5.48684 0.745498 7.92105H0.5V0.881579H11.2405H22.2266V7.92105H22.1652C21.7356 5.28947 21.5514 5.1579 21.2446 4.43421C20.4467 2.52632 18.9123 1.60526 16.7029 1.60526H13.6341V7.72368V16.3421C13.6341 22.6579 13.7569 25.9474 13.7569 26.2763C13.7569 26.6053 14.3093 26.8684 15.2912 27.0658C16.2732 27.2632 17.378 27.3289 18.7282 27.3289L18.9123 27.7895H3.69147L3.87559 27.3947ZM29.4687 27.7895H24.6202H19.4647V27.2632C21.5514 27.2632 22.7176 27 22.8403 26.6053C22.8403 26.4737 22.9017 25.8816 22.963 24.8289C22.963 23.7763 22.963 22.3289 22.963 20.4868V16.2105V13.5789V12.7237V12.0658V11.5395V11.1447C22.963 10.2895 22.963 9.76316 22.8403 9.56579C22.7176 9.17105 21.6128 8.97368 19.4647 8.97368V8.38158H24.7429H29.4687V8.97368C27.6889 8.97368 26.6455 9.17105 26.4614 9.56579C26.3386 9.89474 26.2773 12.5263 26.3386 17.3947H34.4401V15.75V14.4342C34.4401 11.6053 34.3787 10.0263 34.2559 9.56579C34.1332 9.17105 33.0898 8.97368 31.1872 8.97368V8.38158L35.7903 8.44737L41.1913 8.31579V8.9079C39.1045 8.9079 37.9998 9.10526 37.877 9.5C37.7543 9.89474 37.6929 12.0658 37.7543 15.9474V17.7237C37.7543 23.25 37.877 26.2105 37.9998 26.6053C38.1225 26.9342 39.2273 27.1316 41.314 27.1316V27.7237L36.0358 27.6579L31.2486 27.7895V27.2632C33.0285 27.2632 34.0718 27.0658 34.2559 26.6711C34.3787 26.4079 34.4401 23.5789 34.4401 18.3158H26.3386C26.3386 23.5789 26.4614 26.3421 26.5841 26.6711C26.6455 26.8684 27.0751 27.0658 27.8116 27.1316C28.0571 27.1316 28.6709 27.1974 29.5915 27.3289V27.9211L29.4687 27.7895ZM45.3647 26.6053C45.4875 26.2105 45.5488 24.1711 45.5488 20.4211V16.1447C45.5488 12.1316 45.4261 9.89474 45.3033 9.5C45.1806 9.10526 44.0759 8.9079 41.9277 8.9079V8.44737C42.9097 8.44737 44.3827 8.44737 46.224 8.44737C48.0652 8.44737 49.4154 8.44737 50.2747 8.44737H58.6216V15.9474H58.1306C57.8237 12.9868 57.2714 11.0789 56.3507 10.2237C55.4915 9.36842 53.8344 8.9079 51.5022 8.9079C51.0112 8.9079 50.5202 8.9079 50.0292 8.9079C49.3541 8.9079 48.9858 9.03947 48.9244 9.30263C48.8017 9.63158 48.7403 12.2632 48.7403 17.3289H49.8451C51.3794 17.3289 52.4228 17 52.9752 16.2763C53.5275 15.5526 53.8344 14.1711 53.8344 12.1974H54.264V23.3816H53.8958C53.8958 21.3421 53.5889 19.8947 53.0979 19.0395C52.6069 18.1842 51.6249 17.7895 50.336 17.7895H48.8017C48.8017 23.25 48.9244 26.2763 49.0472 26.7368C49.1086 27.0658 50.2133 27.1974 52.3614 27.1974C54.6323 27.1974 56.228 26.7368 57.1486 25.75C58.1306 24.6974 58.8057 22.7237 59.2353 19.6974H59.665V24.8289V27.7237H49.7837H41.9891V27.1316C44.1372 27.1316 45.242 26.9342 45.3647 26.5395V26.6053ZM71.2034 26.0789C71.3875 25.4868 71.4489 22.6579 71.4489 17.4605V11.4737C71.4489 5.81579 71.3261 2.78947 71.142 2.19737C70.9579 1.67105 69.4235 1.40789 66.4162 1.40789V0.75C67.8278 0.75 69.8531 0.75 72.4309 0.75C75.07 0.75 76.9112 0.75 78.1387 0.75H89.8612V11.2763H89.1861C88.7565 7.13158 87.9586 4.5 86.7311 3.25C85.5036 2 83.2328 1.40789 79.8572 1.40789C79.182 1.40789 78.4455 1.40789 77.7704 1.40789C76.8498 1.40789 76.3588 1.67105 76.2361 1.93421C76.0519 2.39474 75.9292 6.07895 75.9906 13.1842H77.5249C79.673 13.1842 81.0846 12.6579 81.8825 11.6711C82.6804 10.6842 83.0486 8.77632 83.0486 5.94737H83.6624L83.7237 21.6053H83.11C83.11 18.7105 82.7418 16.7368 82.0053 15.5526C81.2688 14.3684 79.9799 13.8421 78.1387 13.8421H75.9906C75.9906 21.5395 76.1133 25.6842 76.2974 26.3421C76.4202 26.8026 77.9546 27 80.9005 27C84.092 27 86.3015 26.3421 87.5903 24.9605C88.9406 23.5132 89.9226 20.6842 90.4749 16.5395H91.0887V23.7763V27.8553L77.3408 27.7237L66.4775 27.9211V27.0658C69.4235 27.0658 71.0192 26.7368 71.2034 26.2105V26.0789ZM106.985 19.4342C106.985 22.1316 106.432 24.2368 105.205 25.75C104.039 27.2632 102.32 27.9868 100.172 28.0526C97.7171 28.0526 95.7531 27.1974 94.2188 25.4211C92.7458 23.6447 91.9479 21.2763 91.9479 18.3158C91.9479 15.2237 92.6844 12.7237 94.2188 10.75C95.7531 8.77632 97.7171 7.78947 100.049 7.78947C100.909 7.78947 101.706 7.92105 102.32 8.25C102.995 8.57895 103.609 9.10526 104.284 9.89474H104.53C104.775 9.5 105.021 9.10526 105.205 8.71053C105.389 8.31579 105.573 7.92105 105.757 7.46053H106.187V16.6053H105.696C105.082 11.0132 103.241 8.25 100.111 8.25C98.5764 8.25 97.3489 9.03947 96.551 10.6842C95.7531 12.3289 95.3235 14.6974 95.3849 17.8553C95.3849 24.2368 97.1034 27.4605 100.479 27.4605C102.259 27.4605 103.67 26.7368 104.775 25.3553C105.88 23.9737 106.371 22.0658 106.371 19.6316V19.4342H106.862H106.985ZM112.692 10.6184C111.895 12.1974 111.465 14.5 111.465 17.5263C111.465 20.6842 111.895 23.1842 112.754 24.8947C113.613 26.6711 114.718 27.5263 116.191 27.5263C119.321 27.5263 120.855 24.5 120.855 18.5789C120.855 15.2895 120.426 12.7237 119.628 10.9474C118.83 9.17105 117.725 8.31579 116.252 8.31579C114.718 8.31579 113.49 9.10526 112.692 10.6842V10.6184ZM112.877 27.3289C111.833 26.8026 110.913 26.1447 110.176 25.2237C109.378 24.3026 108.826 23.25 108.335 22C107.905 20.75 107.66 19.5 107.66 18.1842C107.66 16.6711 107.905 15.2895 108.396 13.9079C108.887 12.5921 109.562 11.4079 110.483 10.3553C112.079 8.64474 113.981 7.72368 116.252 7.72368C118.032 7.72368 119.689 8.38158 121.162 9.63158C122.267 10.5526 123.065 11.8026 123.679 13.25C124.292 14.6974 124.599 16.2105 124.599 17.8553C124.599 20.6842 123.801 23.0526 122.083 25.0263C120.426 27 118.339 27.9868 115.945 27.9868C114.902 27.9868 113.859 27.7237 112.815 27.2632L112.877 27.3289ZM122.697 27.3289C124.17 27.0658 125.151 26.6053 125.581 25.9474C126.011 25.3553 126.195 24.3026 126.195 22.7895V21.8026L125.949 10.75C125.581 9.96053 125.213 9.43421 124.66 9.17105C124.17 8.9079 123.372 8.77632 122.328 8.77632V8.31579H125.274H128.159L137.856 21.8684V13.8421C137.856 11.9342 137.611 10.6184 137.12 9.89474C136.567 9.10526 135.462 8.64474 133.867 8.64474V8.18421H137.733H141.6V8.57895C140.065 8.57895 139.145 8.97368 138.715 9.82895C138.408 10.4211 138.286 11.6711 138.286 13.5789V20.2237C138.286 21.2105 138.347 22.5263 138.408 24.2368C138.408 25.9474 138.531 27.1974 138.531 27.9211H137.979C137.488 26.9342 136.935 26.0789 136.383 25.2237C136.076 24.6974 135.278 23.5789 134.051 21.8684L126.44 11.1447L126.686 21.6711C126.686 23.6447 126.993 25.0263 127.484 25.8158C128.036 26.5395 129.079 26.9342 130.675 26.9342V27.4605H127.3C126.747 27.4605 125.949 27.4605 124.906 27.5263C123.801 27.5263 123.065 27.5921 122.758 27.5921V27.0658L122.697 27.3289ZM144.669 10.6842C143.871 12.2632 143.441 14.5658 143.502 17.5921C143.502 20.75 143.932 23.25 144.791 24.9605C145.651 26.7368 146.755 27.5921 148.228 27.5921C151.358 27.5921 152.893 24.5658 152.893 18.6447C152.893 15.3553 152.463 12.7895 151.665 11.0132C150.867 9.23684 149.763 8.38158 148.29 8.38158C146.755 8.38158 145.528 9.17105 144.73 10.75L144.669 10.6842ZM144.853 27.3947C143.809 26.8684 142.95 26.2105 142.152 25.2895C141.354 24.3684 140.802 23.3158 140.311 22.0658C139.881 20.8158 139.636 19.5658 139.636 18.25C139.636 16.7368 139.881 15.3553 140.372 13.9737C140.863 12.6579 141.538 11.4737 142.459 10.4211C144.055 8.71053 145.957 7.78947 148.228 7.78947C150.008 7.78947 151.665 8.44737 153.138 9.69737C154.243 10.6184 155.041 11.8684 155.655 13.25C156.268 14.6974 156.575 16.2105 156.575 17.8553C156.575 20.6842 155.716 23.0526 154.059 25.0263C152.402 27 150.315 27.9868 147.983 27.9868C146.939 27.9868 145.896 27.7237 144.853 27.2632V27.3947ZM158.846 9.56579L159.092 21.8684C159.092 24.0395 159.337 25.4868 159.705 26.2105C160.196 27.0658 161.24 27.4605 162.835 27.4605V27.9211H160.503C159.889 27.9211 159.03 27.9211 157.803 28.0526C156.637 28.0526 155.777 28.1184 155.225 28.1184V27.6579C156.452 27.6579 157.312 27.3947 157.803 26.8684C158.294 26.3421 158.539 25.4868 158.539 24.3026V24.1711L158.294 13.1184C158.294 11.6053 158.11 10.5526 157.68 9.96053C157.25 9.36842 156.391 9.10526 155.164 9.10526V8.64474H157.987H162.222L166.334 22.4605H166.518L170.446 8.64474C170.446 8.64474 170.998 8.64474 171.428 8.64474C171.857 8.64474 172.164 8.64474 172.348 8.64474H174.742H177.688V9.17105C175.663 9.17105 174.558 9.36842 174.497 9.63158C174.435 9.96053 174.374 10.8816 174.374 12.3947V13.1184V23.4474C174.374 24.1053 174.374 24.8289 174.374 25.5526C174.374 26.3421 174.374 26.8026 174.497 26.9342C174.619 27.3289 175.724 27.5263 177.749 27.5263V27.9868H172.717H167.561V27.5921C169.341 27.5921 170.384 27.5263 170.691 27.3947C170.998 27.2632 171.121 26.8684 171.121 26.0789V9.56579H170.63L168.052 18.6447C166.825 22.9211 166.027 26.0132 165.659 27.8553H164.738L159.214 9.5H158.723L158.846 9.56579ZM181.923 26.7368C181.923 26.7368 182.046 25.4868 182.046 23.7763C182.046 22.0658 182.046 19.5658 182.046 16.3421C182.046 12.3947 181.923 10.1579 181.8 9.76316C181.677 9.30263 180.573 9.10526 178.425 9.10526V8.57895C179.407 8.57895 180.695 8.57895 182.23 8.57895C183.764 8.57895 184.501 8.57895 184.562 8.57895C184.746 8.57895 185.36 8.57895 186.465 8.57895C187.569 8.57895 188.367 8.57895 188.92 8.57895V9.10526C186.833 9.10526 185.667 9.30263 185.544 9.76316C185.421 10.2237 185.36 12.9211 185.36 17.9868C185.36 23.4474 185.483 26.4079 185.605 26.8026C185.728 27.1974 186.894 27.3947 188.981 27.3947V27.9868H183.764H178.547V27.4605C180.634 27.4605 181.739 27.2632 181.861 26.8026L181.923 26.7368ZM201.747 25.9474C200.519 27.4605 198.862 28.1842 196.714 28.25C194.259 28.25 192.295 27.3947 190.761 25.6184C189.288 23.8421 188.49 21.4737 188.49 18.5132C188.49 15.4211 189.226 12.9211 190.761 10.9474C192.295 8.97369 194.259 7.98684 196.591 7.98684C197.451 7.98684 198.248 8.11842 198.862 8.44737C199.537 8.77632 200.151 9.30263 200.826 10.0921H201.072C201.317 9.69737 201.563 9.30263 201.747 8.9079C201.931 8.51316 202.115 8.11842 202.299 7.6579H202.729V16.8026H202.238C201.624 11.2105 199.783 8.44737 196.653 8.44737C195.057 8.44737 193.891 9.23684 193.093 10.8816C192.295 12.5263 191.866 14.8947 191.927 18.0526C191.927 24.4342 193.645 27.6579 197.021 27.6579C198.801 27.6579 200.212 26.9342 201.317 25.5526C202.422 24.1053 202.913 22.2632 202.913 19.8289V19.6316H203.404C203.404 22.3289 202.852 24.4342 201.624 25.9474H201.747ZM213.04 27.5263C215.126 27.5263 216.415 27.4605 217.029 27.2632C217.643 27.1316 218.011 26.6711 218.072 26.0132C218.195 25.3553 218.195 19.0395 218.195 7.13158L218.072 1.73684H215.311C213.776 1.93421 212.61 2.46053 211.812 3.44737C210.892 4.5 210.278 4.89474 209.91 8.18421H209.725V0.881579H220.466H231.452V8.05263H231.391C231.084 5.28947 230.777 5.1579 230.47 4.43421C229.672 2.52632 228.138 1.60526 225.928 1.60526H222.86V7.72368V16.4079C222.921 22.7237 222.982 26.0132 222.982 26.3421C222.982 26.6711 223.535 26.9342 224.455 27.1316C225.437 27.3289 226.603 27.3947 227.892 27.3947L228.076 27.8553H212.856L213.04 27.4605M232.189 26.7368C232.189 26.7368 232.311 25.5526 232.311 23.7763C232.311 22.0658 232.311 19.5658 232.311 16.3421C232.311 12.3947 232.189 10.1579 232.066 9.76316C231.943 9.30263 230.838 9.10526 228.69 9.10526V8.57895C229.672 8.57895 230.961 8.57895 232.495 8.57895C234.03 8.57895 234.766 8.57895 234.766 8.57895C234.95 8.57895 235.564 8.57895 236.669 8.57895C237.774 8.57895 238.571 8.57895 239.124 8.57895V9.10526C237.037 9.10526 235.871 9.36842 235.748 9.76316C235.626 10.2237 235.564 12.9211 235.564 17.9868C235.564 23.4474 235.687 26.4079 235.81 26.8026C235.932 27.1974 237.098 27.3947 239.185 27.3947V27.9868L233.968 27.9211L228.752 28.0526V27.5263C230.838 27.5263 231.943 27.3289 232.066 26.8684L232.189 26.7368ZM243.481 9.56579L243.727 21.8684C243.727 24.0395 243.972 25.4868 244.341 26.2105C244.832 27.0658 245.875 27.4605 247.471 27.4605V27.9211H245.139C244.525 27.9211 243.666 27.9211 242.499 27.9868C241.333 28.0526 240.474 28.0526 239.922 28.0526V27.5921C241.149 27.5921 242.008 27.3289 242.499 26.8026C242.99 26.2763 243.236 25.4211 243.236 24.2368V24.1053L242.99 13.0526C242.99 11.5395 242.745 10.4868 242.377 9.89474C241.947 9.30263 241.149 9.03947 239.86 9.03947V8.57895H242.684H246.918L251.03 22.3947H251.276L255.204 8.57895C255.449 8.57895 255.756 8.57895 256.186 8.57895C256.616 8.57895 256.922 8.57895 257.107 8.57895H259.5H262.446V9.10526C260.421 9.10526 259.316 9.23684 259.255 9.56579C259.132 9.82895 259.132 10.75 259.132 12.3289V13.0526V23.3816C259.132 24.0395 259.132 24.7632 259.132 25.4868C259.132 26.2105 259.132 26.7368 259.255 26.8684C259.377 27.2632 260.482 27.4605 262.508 27.4605V27.9211H257.475H252.319V27.5263C254.099 27.5263 255.143 27.4605 255.449 27.3289C255.756 27.1974 255.879 26.7368 255.879 26.0132V9.5H255.388L252.81 18.5789C251.583 22.9211 250.785 25.9474 250.417 27.7895H249.496L243.972 9.43421H243.543L243.481 9.56579ZM266.558 26.7368C266.681 26.3421 266.742 24.3026 266.742 20.5526V16.2763C266.742 12.2632 266.62 10.0263 266.497 9.63158C266.374 9.23684 265.269 9.03947 263.121 9.03947V8.57895C264.103 8.57895 265.576 8.57895 267.417 8.57895C269.259 8.57895 270.609 8.57895 271.468 8.57895H279.815V16.0789H279.324C279.017 13.1184 278.465 11.2105 277.606 10.3553C276.746 9.5 275.089 9.03947 272.696 9.03947C272.205 9.03947 271.714 9.03947 271.223 9.03947C270.609 9.03947 270.179 9.23684 270.118 9.43421C269.995 9.76316 269.934 12.3947 269.934 17.4605H271.039C272.573 17.4605 273.616 17.1316 274.169 16.4079C274.721 15.6842 275.028 14.3026 275.028 12.3289H275.458V23.5132H275.028C275.028 21.4737 274.782 20.0263 274.23 19.1711C273.739 18.3158 272.757 17.9211 271.468 17.9211H269.934C269.934 23.3816 270.057 26.4079 270.179 26.8684C270.241 27.1974 271.345 27.3289 273.494 27.3289C275.764 27.3289 277.36 26.8684 278.281 25.8816C279.263 24.8947 279.938 22.8553 280.306 19.8289H280.736V24.9605V27.9211L270.916 27.8553L263.121 27.9868V27.3947C265.208 27.3947 266.374 27.1974 266.497 26.8026L266.558 26.7368ZM281.718 28.25V19.5H282.086C282.7 22.1974 283.682 24.2368 284.909 25.6184C286.137 27 287.61 27.7237 289.267 27.7237C290.371 27.7237 291.292 27.3947 291.967 26.6711C292.642 26.0132 292.949 25.0921 292.949 23.9737C292.949 22.5263 292.397 21.4737 291.415 20.75C290.74 20.2895 289.328 19.7632 287.241 19.2368C285.155 18.7105 283.62 17.9868 282.7 17.1316C281.656 16.1447 281.104 14.8289 281.104 13.1184C281.104 11.5395 281.595 10.2895 282.638 9.23684C283.62 8.25 284.971 7.72368 286.505 7.72368C288.346 7.72368 290.003 8.57895 291.415 10.3553C291.783 10.0263 292.09 9.69737 292.335 9.30263C292.581 8.9079 292.765 8.38158 292.888 7.72368H293.133V15.1579H292.765C292.335 12.9868 291.599 11.2763 290.433 10.0921C289.267 8.84211 287.917 8.25 286.382 8.25C285.216 8.25 284.295 8.57895 283.62 9.17105C282.945 9.76316 282.577 10.6184 282.577 11.6711C282.577 12.8553 283.129 13.7763 284.173 14.3684C284.971 14.8289 286.444 15.2895 288.592 15.75C290.74 16.2105 292.274 16.8684 293.256 17.7895C294.299 18.7763 294.852 20.1579 294.852 22C294.852 23.7763 294.299 25.2895 293.256 26.4079C292.151 27.5263 290.801 28.1184 289.083 28.1184C287.119 28.1184 285.4 27.1316 283.927 25.0921C283.068 25.6842 282.393 26.6711 282.025 28.1842H281.779" fill="white"/>
</svg>
