<svg width="38" height="38" viewBox="0 0 38 38" fill="none" xmlns="http://www.w3.org/2000/svg">
<path opacity="0.1" fill-rule="evenodd" clip-rule="evenodd" d="M19 36.5C28.665 36.5 36.5 28.665 36.5 19C36.5 9.33502 28.665 1.5 19 1.5C9.33502 1.5 1.5 9.33502 1.5 19C1.5 28.665 9.33502 36.5 19 36.5Z" stroke="#0A142F" stroke-width="1.5"/>
<path d="M20.5932 14.5205H22.2016C22.3495 14.5205 22.4696 14.4074 22.4696 14.2679V12.7524C22.4696 12.6129 22.3495 12.4998 22.2016 12.4998H20.5932C18.9677 12.4998 17.6445 13.7461 17.6445 15.2783V17.0465H15.7681C15.6201 17.0465 15.5 17.1597 15.5 17.2991V18.8147C15.5 18.9541 15.6201 19.0673 15.7681 19.0673H17.6445V24.3719C17.6445 24.5113 17.7646 24.6245 17.9126 24.6245H19.5209C19.6689 24.6245 19.789 24.5113 19.789 24.3719V19.0673H21.6655C21.7807 19.0673 21.8831 18.9976 21.9201 18.8945L22.4562 17.3789C22.4836 17.3021 22.4696 17.2173 22.4192 17.1511C22.3683 17.0854 22.2879 17.0465 22.2016 17.0465H19.789V15.2783C19.789 14.8605 20.1498 14.5205 20.5932 14.5205Z" fill="#0A142F"/>
</svg>
