<svg width="379" height="288" viewBox="0 0 379 288" fill="none" xmlns="http://www.w3.org/2000/svg">
<rect x="0.333496" width="378.667" height="288" rx="30" fill="#ECFBEC"/>
<circle cx="227" cy="180" r="20" stroke="#2DBB2D" stroke-width="16"/>
<path fill-rule="evenodd" clip-rule="evenodd" d="M128.744 160.736C127 164.159 127 168.639 127 177.6V182.4C127 191.361 127 195.841 128.744 199.264C130.278 202.274 132.726 204.722 135.736 206.256C139.159 208 143.639 208 152.6 208H157.4C166.361 208 170.841 208 174.264 206.256C177.274 204.722 179.722 202.274 181.256 199.264C183 195.841 183 191.361 183 182.4V177.6C183 168.639 183 164.159 181.256 160.736C179.722 157.726 177.274 155.278 174.264 153.744C170.841 152 166.361 152 157.4 152H152.6C143.639 152 139.159 152 135.736 153.744C132.726 155.278 130.278 157.726 128.744 160.736ZM143.436 170.184C143 171.04 143 172.16 143 174.4V185.6C143 187.84 143 188.96 143.436 189.816C143.819 190.569 144.431 191.181 145.184 191.564C146.04 192 147.16 192 149.4 192H160.6C162.84 192 163.96 192 164.816 191.564C165.569 191.181 166.181 190.569 166.564 189.816C167 188.96 167 187.84 167 185.6V174.4C167 172.16 167 171.04 166.564 170.184C166.181 169.431 165.569 168.819 164.816 168.436C163.96 168 162.84 168 160.6 168H149.4C147.16 168 146.04 168 145.184 168.436C144.431 168.819 143.819 169.431 143.436 170.184Z" fill="#2DBB2D"/>
<path fill-rule="evenodd" clip-rule="evenodd" d="M128.744 88.7362C127 92.1587 127 96.6392 127 105.6V110.4C127 119.361 127 123.841 128.744 127.264C130.278 130.274 132.726 132.722 135.736 134.256C139.159 136 143.639 136 152.6 136H157.4C166.361 136 170.841 136 174.264 134.256C177.274 132.722 179.722 130.274 181.256 127.264C183 123.841 183 119.361 183 110.4V105.6C183 96.6392 183 92.1587 181.256 88.7362C179.722 85.7256 177.274 83.2779 174.264 81.7439C170.841 80 166.361 80 157.4 80H152.6C143.639 80 139.159 80 135.736 81.7439C132.726 83.2779 130.278 85.7256 128.744 88.7362ZM143.436 98.184C143 99.0397 143 100.16 143 102.4V113.6C143 115.84 143 116.96 143.436 117.816C143.819 118.569 144.431 119.181 145.184 119.564C146.04 120 147.16 120 149.4 120H160.6C162.84 120 163.96 120 164.816 119.564C165.569 119.181 166.181 118.569 166.564 117.816C167 116.96 167 115.84 167 113.6V102.4C167 100.16 167 99.0397 166.564 98.184C166.181 97.4314 165.569 96.8195 164.816 96.436C163.96 96 162.84 96 160.6 96H149.4C147.16 96 146.04 96 145.184 96.436C144.431 96.8195 143.819 97.4314 143.436 98.184Z" fill="#2DBB2D"/>
<path fill-rule="evenodd" clip-rule="evenodd" d="M200.744 88.7362C199 92.1587 199 96.6392 199 105.6V110.4C199 119.361 199 123.841 200.744 127.264C202.278 130.274 204.726 132.722 207.736 134.256C211.159 136 215.639 136 224.6 136H229.4C238.361 136 242.841 136 246.264 134.256C249.274 132.722 251.722 130.274 253.256 127.264C255 123.841 255 119.361 255 110.4V105.6C255 96.6392 255 92.1587 253.256 88.7362C251.722 85.7256 249.274 83.2779 246.264 81.7439C242.841 80 238.361 80 229.4 80H224.6C215.639 80 211.159 80 207.736 81.7439C204.726 83.2779 202.278 85.7256 200.744 88.7362ZM215.436 98.184C215 99.0397 215 100.16 215 102.4V113.6C215 115.84 215 116.96 215.436 117.816C215.819 118.569 216.431 119.181 217.184 119.564C218.04 120 219.16 120 221.4 120H232.6C234.84 120 235.96 120 236.816 119.564C237.569 119.181 238.181 118.569 238.564 117.816C239 116.96 239 115.84 239 113.6V102.4C239 100.16 239 99.0397 238.564 98.184C238.181 97.4314 237.569 96.8195 236.816 96.436C235.96 96 234.84 96 232.6 96H221.4C219.16 96 218.04 96 217.184 96.436C216.431 96.8195 215.819 97.4314 215.436 98.184Z" fill="#2DBB2D"/>
</svg>
