<svg width="584" height="468" viewBox="0 0 584 468" fill="none" xmlns="http://www.w3.org/2000/svg">
<g clip-path="url(#clip0_1183_16504)">
<rect width="585" height="468" rx="59" fill="#DAF6DA"/>
<circle cx="58.5" cy="409.5" r="58.5" fill="#44D244"/>
<circle cx="58.5" cy="292.5" r="58.5" fill="#B4EDB4"/>
<circle cx="58.5" cy="175.5" r="58.5" fill="#2DBB2D"/>
<circle cx="58.5" cy="58.5" r="58.5" fill="#B4EDB4"/>
<circle cx="175.5" cy="409.5" r="58.5" fill="white"/>
<circle cx="175.5" cy="292.5" r="58.5" fill="#8FE48F"/>
<circle cx="175.5" cy="175.5" r="58.5" fill="#69DB69"/>
<circle cx="175.5" cy="58.5" r="58.5" fill="#8FE48F"/>
<circle cx="292.5" cy="409.5" r="58.5" fill="#8FE48F"/>
<circle cx="292.5" cy="292.5" r="58.5" fill="white"/>
<circle cx="292.5" cy="175.5" r="58.5" fill="#8FE48F"/>
<circle cx="292.5" cy="58.5" r="58.5" fill="white"/>
<circle cx="409.5" cy="409.5" r="58.5" fill="#8FE48F"/>
<circle cx="409.5" cy="292.5" r="58.5" fill="#44D244"/>
<circle cx="409.5" cy="175.5" r="58.5" fill="white"/>
<circle cx="409.5" cy="58.5" r="58.5" fill="#44D244"/>
<circle cx="526.5" cy="409.5" r="58.5" fill="#8FE48F"/>
<circle cx="526.5" cy="292.5" r="58.5" fill="#2DBB2D"/>
<circle cx="526.5" cy="175.5" r="58.5" fill="#B4EDB4"/>
<circle cx="526.5" cy="58.5" r="58.5" fill="#2DBB2D"/>
</g>
<defs>
<clipPath id="clip0_1183_16504">
<rect width="584" height="468" rx="60" fill="white"/>
</clipPath>
</defs>
</svg>
