<svg width="189" height="33" viewBox="0 0 189 33" fill="none" xmlns="http://www.w3.org/2000/svg">
<path fill-rule="evenodd" clip-rule="evenodd" d="M84.6878 0.232422H0.851807V32.7672H84.6878V0.232422ZM8.94723 12.6226V28.6371H4.85962V12.6226H8.94723ZM19.2865 12.1169C17.924 12.1169 16.6416 12.5384 15.5195 13.4655V12.707H11.4319V28.7215H15.5195V20.7142C15.5195 18.8599 15.7599 17.5956 16.2408 17.0056C16.882 16.247 17.7637 15.9099 18.9659 15.9099C19.9277 15.9099 20.649 16.1627 21.1299 16.7527C21.691 17.3427 21.9314 18.607 21.9314 20.3771V28.7215H26.019V20.1242C26.019 18.6913 25.9389 17.5956 25.6183 16.6684C25.2977 15.7413 24.8969 14.9827 24.2558 14.3084C23.6146 13.6341 22.8932 13.0441 22.0116 12.707C21.1299 12.2855 20.2483 12.1169 19.2865 12.1169ZM39.4037 15.9099L36.1977 17.5113C35.7168 16.837 35.3161 16.4156 34.9955 16.1627C34.6749 15.9099 34.2741 15.8256 33.7933 15.8256C33.3124 15.8256 32.9116 15.9099 32.591 16.1627C32.2704 16.4156 32.1101 16.6684 32.1101 17.0899C32.1101 17.427 32.1903 17.6799 32.4307 17.8485C32.6712 18.017 33.2322 18.2699 34.1138 18.607L35.5565 19.1128C36.5985 19.5342 37.4 19.9556 38.0412 20.4614C39.0029 21.2199 39.4838 22.3157 39.4838 23.6643C39.4838 25.2657 38.8426 26.6143 37.5603 27.71C36.4382 28.6372 35.0756 29.1429 33.4727 29.1429C31.3086 29.1429 29.6255 28.3001 28.4233 26.6986C28.0225 26.1086 27.5416 25.2657 27.1409 24.17L30.5071 22.8214C30.988 23.8328 31.4689 24.5071 31.8697 24.8443C32.2704 25.1814 32.8315 25.35 33.3925 25.35C33.9535 25.35 34.4344 25.1814 34.755 24.9286C35.0756 24.5914 35.2359 24.2543 35.2359 23.7486C35.2359 23.4114 35.0756 23.1585 34.8352 22.99C34.5947 22.8214 34.0337 22.4842 33.1521 22.2314L31.5491 21.6414C29.1446 20.7142 27.9424 19.2813 27.9424 17.1742C27.9424 15.657 28.5034 14.3927 29.7056 13.3812C30.8277 12.5384 32.1101 12.1169 33.5528 12.1169C34.8352 12.1169 35.8771 12.4541 36.7588 13.0441C37.6404 13.6341 38.4419 14.6456 39.1632 15.9099H39.4037ZM45.0141 28.6371V12.6226H40.9265V28.6371H45.0141ZM63.2881 28.6371H59.2005V27.6257C57.838 28.6371 56.3953 29.1428 54.8724 29.1428C52.3878 29.1428 50.3039 28.2157 48.6208 26.3613C47.1781 24.7599 46.4568 22.8213 46.4568 20.6298C46.4568 18.0169 47.4186 15.9098 49.262 14.224C50.865 12.7911 52.7084 12.0326 54.8724 12.0326C56.3953 12.0326 57.838 12.5383 59.2005 13.5497V4.53101H63.2881V28.6371ZM54.8724 15.8255C53.5099 15.8255 52.3878 16.3312 51.5863 17.4269C50.9451 18.2698 50.6245 19.2812 50.6245 20.5455C50.6245 22.0627 51.0253 23.2427 51.9069 24.0856C52.7084 24.9285 53.7504 25.3499 54.9526 25.3499C56.3953 25.3499 57.4372 24.8442 58.3189 23.7484C58.9601 22.9056 59.2807 21.8098 59.2807 20.5455C59.2807 19.1127 58.8799 17.9326 57.9983 17.0055C57.1968 16.1626 56.1548 15.7412 54.9526 15.7412L54.8724 15.8255ZM69.9405 24.1699C69.4596 23.6642 69.139 22.9899 68.8985 22.147L68.9787 22.3156H80.7606V21.1356C80.7606 18.5227 80.0393 16.4155 78.5164 14.7298C76.9936 13.044 75.07 12.2012 72.7457 12.2012C71.303 12.2012 69.9405 12.5383 68.7382 13.2969C67.4559 14.0555 66.4139 15.1512 65.6926 16.4998C64.9712 17.7641 64.6506 19.197 64.6506 20.7142C64.6506 22.9056 65.372 24.8442 66.7345 26.4457C68.2573 28.3 70.3412 29.2272 72.906 29.2272C74.9899 29.2272 76.7532 28.5529 78.276 27.3728C79.0775 26.6985 79.879 25.7714 80.6805 24.4228L77.1539 22.9899C76.9444 23.2543 76.7787 23.4956 76.6454 23.6898L76.6453 23.6899L76.6452 23.6901L76.6451 23.6902C76.5235 23.8673 76.4289 24.0052 76.3524 24.0856C75.4708 25.0128 74.3487 25.4342 72.906 25.4342C71.7038 25.4342 70.742 25.0128 69.9405 24.1699ZM72.7457 15.7412C74.5891 15.7412 75.8715 16.837 76.5929 19.1127H68.8985C69.139 18.017 69.6199 17.1741 70.2611 16.5841C70.9824 15.9941 71.7839 15.7412 72.7457 15.7412ZM88.6951 29.143V5.03687H92.7827V14.1399C94.1452 13.1284 95.5879 12.6227 97.1107 12.6227C99.5954 12.6227 101.679 13.5499 103.362 15.4042C104.805 17.0056 105.526 18.9442 105.526 21.1357C105.526 23.7486 104.565 25.8558 102.721 27.5415C101.118 28.9744 99.2748 29.733 97.1107 29.733C95.5879 29.733 94.1452 29.2272 92.7827 28.2158V29.2272H88.6951V29.143ZM96.9504 16.3313C95.5879 16.3313 94.546 16.837 93.7445 17.9328C93.1033 18.7757 92.7827 19.7871 92.7827 21.0514C92.7827 22.5686 93.1834 23.7486 94.0651 24.5915C94.8666 25.4343 95.9085 25.8558 97.1107 25.8558C98.5534 25.8558 99.6755 25.35 100.477 24.2543C101.118 23.4114 101.439 22.4 101.439 21.0514C101.439 19.5342 101.038 18.3542 100.156 17.5113C99.3549 16.6685 98.313 16.247 97.0306 16.247L96.9504 16.3313ZM111.137 29.143V13.1284H107.05V29.143H111.137ZM117.87 16.8369V24.0013V24.0014C117.87 24.5913 117.87 25.0128 118.03 25.2656C118.11 25.5185 118.351 25.6027 118.671 25.6027C119.072 25.6027 119.713 25.4342 120.595 25.1813V29.0585C119.713 29.3114 118.912 29.48 118.19 29.48C116.748 29.48 115.706 28.9742 114.904 28.0471C114.103 27.1199 113.782 25.7713 113.782 24.0013V16.8369H112.099V13.1283H113.782V9.6725L117.87 8.07104V13.1283H120.354V16.8369H117.87ZM131.174 16.7527C131.655 17.0898 132.376 17.6798 133.258 18.607L133.178 18.4384L135.903 15.8255C134.781 14.6455 133.659 13.8026 132.617 13.2969C131.575 12.7912 130.373 12.5383 129.09 12.5383C126.846 12.5383 124.923 13.2126 123.32 14.6455C121.476 16.3312 120.514 18.4384 120.514 21.0513C120.514 23.2428 121.236 25.1814 122.678 26.7828C124.281 28.6372 126.445 29.5643 129.09 29.5643C130.373 29.5643 131.655 29.3115 132.697 28.8057C133.739 28.2157 134.861 27.3728 135.983 26.1085L133.258 23.4956C132.537 24.3385 131.896 25.0128 131.254 25.35C130.693 25.6871 129.972 25.8557 129.171 25.8557C127.888 25.8557 126.846 25.4342 126.045 24.5914C125.163 23.7485 124.762 22.5685 124.762 21.0513C124.762 19.787 125.083 18.7756 125.724 17.9327C126.526 16.837 127.648 16.3312 129.171 16.3312C130.052 16.3312 130.693 16.4998 131.174 16.7527ZM144.158 12.6226C146.643 12.6226 148.727 13.5497 150.33 15.404C151.773 17.0055 152.494 18.9441 152.494 21.1355C152.494 23.7484 151.532 25.8556 149.689 27.5414C148.086 28.9742 146.162 29.7328 143.998 29.7328C141.433 29.7328 139.269 28.8057 137.586 26.9514C136.143 25.3499 135.422 23.4113 135.422 21.1355C135.422 18.6069 136.384 16.4998 138.227 14.814C139.83 13.3811 141.754 12.6226 144.078 12.6226H144.158ZM143.918 16.3312C142.555 16.3312 141.433 16.8369 140.552 17.9326C139.91 18.7755 139.59 19.787 139.59 21.0513C139.59 22.5684 139.991 23.7484 140.872 24.5913C141.674 25.4342 142.716 25.8556 143.918 25.8556C145.361 25.8556 146.483 25.3499 147.284 24.2542C147.925 23.4113 148.246 22.3999 148.246 21.0513C148.246 19.5341 147.845 18.3541 146.964 17.5112C146.162 16.6683 145.12 16.2469 143.838 16.2469L143.918 16.3312ZM158.024 29.143V13.1284H153.937V29.143H158.024ZM164.597 13.9712C165.719 13.044 167.001 12.6226 168.364 12.6226C169.325 12.6226 170.207 12.7911 171.089 13.2126C171.97 13.5497 172.692 14.1397 173.333 14.814C173.974 15.4883 174.375 16.2469 174.695 17.1741C175.016 18.1012 175.096 19.1969 175.096 20.6298V29.2271H171.009V20.8827C171.009 19.1127 170.768 17.8484 170.207 17.2583C169.726 16.6683 169.005 16.4155 168.043 16.4155C166.841 16.4155 165.959 16.7526 165.318 17.5112C164.837 18.1012 164.597 19.3655 164.597 21.2198V29.2271H160.509V13.2126H164.597V13.9712ZM185.195 18.0169L188.401 16.4155H188.16C187.439 15.1512 186.637 14.1397 185.756 13.5497C184.874 12.9597 183.832 12.6226 182.55 12.6226C181.107 12.6226 179.825 13.044 178.703 13.8869C177.5 14.8983 176.939 16.1626 176.939 17.6798C176.939 19.787 178.142 21.2198 180.546 22.147L182.149 22.737C183.031 22.9899 183.592 23.327 183.832 23.4956C184.073 23.6642 184.233 23.917 184.233 24.2542C184.233 24.7599 184.073 25.097 183.752 25.4342C183.432 25.687 182.951 25.8556 182.39 25.8556C181.829 25.8556 181.267 25.687 180.867 25.3499C180.466 25.0128 179.985 24.3385 179.504 23.327L176.138 24.6756C176.539 25.7713 177.02 26.6142 177.42 27.2042C178.623 28.8057 180.306 29.6485 182.47 29.6485C184.073 29.6485 185.435 29.1428 186.557 28.2157C187.84 27.1199 188.481 25.7713 188.481 24.1699C188.481 22.8213 188 21.7256 187.038 20.967C186.397 20.4613 185.596 20.0398 184.554 19.6184L183.111 19.1127C182.229 18.7755 181.668 18.5227 181.428 18.3541C181.187 18.1855 181.107 17.9326 181.107 17.5955C181.107 17.1741 181.267 16.9212 181.588 16.6683C181.909 16.4155 182.309 16.3312 182.79 16.3312C183.271 16.3312 183.672 16.4155 183.993 16.6683C184.313 16.9212 184.714 17.3426 185.195 18.0169Z" fill="white"/>
</svg>
