<svg width="38" height="38" viewBox="0 0 38 38" fill="none" xmlns="http://www.w3.org/2000/svg">
<path opacity="0.1" fill-rule="evenodd" clip-rule="evenodd" d="M19 36.5C28.665 36.5 36.5 28.665 36.5 19C36.5 9.33502 28.665 1.5 19 1.5C9.33502 1.5 1.5 9.33502 1.5 19C1.5 28.665 9.33502 36.5 19 36.5Z" stroke="#0A142F" stroke-width="1.5"/>
<path d="M14.9837 15.4671C15.803 15.4671 16.4672 14.8029 16.4672 13.9835C16.4672 13.1642 15.803 12.5 14.9837 12.5C14.1643 12.5 13.5001 13.1642 13.5001 13.9835C13.5001 14.8029 14.1643 15.4671 14.9837 15.4671Z" fill="#0A142F"/>
<path d="M16.2198 16.458H13.7473C13.6108 16.458 13.5 16.5688 13.5 16.7053V24.123C13.5 24.2595 13.6108 24.3703 13.7473 24.3703H16.2198C16.3563 24.3703 16.4671 24.2595 16.4671 24.123V16.7053C16.4671 16.5688 16.3563 16.458 16.2198 16.458Z" fill="#0A142F"/>
<path d="M23.588 16.0466C22.5313 15.6847 21.2094 16.0026 20.4167 16.5728C20.3895 16.4665 20.2926 16.3874 20.1774 16.3874H17.7048C17.5683 16.3874 17.4575 16.4981 17.4575 16.6346V24.0524C17.4575 24.1889 17.5683 24.2996 17.7048 24.2996H20.1774C20.3138 24.2996 20.4246 24.1889 20.4246 24.0524V18.7215C20.8242 18.3773 21.339 18.2675 21.7603 18.4465C22.1688 18.6191 22.4027 19.0404 22.4027 19.6017V24.0524C22.4027 24.1889 22.5135 24.2996 22.6499 24.2996H25.1225C25.259 24.2996 25.3698 24.1889 25.3698 24.0524V19.1037C25.3416 17.0718 24.3857 16.3196 23.588 16.0466Z" fill="#0A142F"/>
</svg>
