<svg width="1026" height="1026" viewBox="0 0 1026 1026" fill="none" xmlns="http://www.w3.org/2000/svg">
<rect width="1026" height="1026" fill="white"/>
<path d="M216 639.767C216 557.792 216 516.804 232.819 483.081C240.378 467.923 250.296 454.062 262.203 442.015C288.694 415.213 327.488 401.984 405.077 375.528L557.811 323.448C668.982 285.541 724.567 266.587 766.032 287.764C775.774 292.74 784.72 299.141 792.574 306.756C826 339.168 826 397.896 826 515.352C826 596.68 826 637.344 807.236 669.836C802.687 677.713 797.381 685.128 791.394 691.975C766.697 720.222 728.209 733.345 651.233 759.593L469.879 821.431C371.999 854.807 323.059 871.495 285.323 856.476C236.97 837.231 216 792.5 216 754C216 728 216 680.099 216 639.767Z" fill="url(#paint0_linear_503_7268)"/>
<path fill-rule="evenodd" clip-rule="evenodd" d="M216 446.421C216 380.765 216 326.936 226.915 298.92C236.555 274.177 252.202 252.223 272.444 235.036C295.365 215.576 326.396 204.862 388.458 183.436L409.851 176.051C481.92 151.169 517.955 138.729 546.884 144.323C578.192 150.377 605.332 169.719 621.271 197.337C636 222.857 636 280.979 636 357.222C636 417.38 636 447.459 626.809 473.392C616.818 501.585 599.123 526.413 575.734 545.057C554.27 562.168 525.919 571.978 469.317 591.519C469.167 591.571 469.092 591.597 469.021 591.621C468.956 591.643 468.896 591.664 468.832 591.686C468.761 591.71 468.695 591.733 468.565 591.777C462.073 593.996 368.852 625.86 310 646.426C249 667.742 216 710.5 216 754.975V446.421Z" fill="url(#paint1_linear_503_7268)"/>
<path fill-rule="evenodd" clip-rule="evenodd" d="M216.001 754.508C216 754.339 216 754.17 216 754L216 639.767C216 557.792 216 516.804 232.819 483.081C240.378 467.923 250.296 454.062 262.203 442.015C288.694 415.213 327.488 401.985 405.077 375.528L405.077 375.528L557.811 323.449C587.455 313.34 613.147 304.58 635.673 297.568C636 315.808 636 335.8 636 357.223C636 417.381 636 447.46 626.809 473.393C616.818 501.586 599.123 526.413 575.734 545.058C554.27 562.169 525.919 571.979 469.317 591.519L469.021 591.621L468.832 591.686L468.565 591.778C462.073 593.996 368.852 625.861 310 646.426C249.214 667.667 216.232 710.201 216.001 754.508Z" fill="url(#paint2_linear_503_7268)"/>
<defs>
<linearGradient id="paint0_linear_503_7268" x1="852.5" y1="707.5" x2="172.469" y2="450.522" gradientUnits="userSpaceOnUse">
<stop stop-color="#626AFF"/>
<stop offset="1" stop-color="#4650FF"/>
</linearGradient>
<linearGradient id="paint1_linear_503_7268" x1="177.5" y1="449" x2="707" y2="215" gradientUnits="userSpaceOnUse">
<stop stop-color="#54FFFF"/>
<stop offset="1" stop-color="#68FFFF"/>
</linearGradient>
<linearGradient id="paint2_linear_503_7268" x1="238" y1="462.355" x2="1119.88" y2="695.727" gradientUnits="userSpaceOnUse">
<stop stop-color="#21BEFF"/>
<stop offset="1" stop-color="#68FFFF"/>
</linearGradient>
</defs>
</svg>
