<svg width="34" height="26" viewBox="0 0 34 26" fill="none" xmlns="http://www.w3.org/2000/svg">
<path d="M13.061 11.1297C11.2205 9.79212 10.3002 9.12333 10.2449 8.33072C10.2275 8.08251 10.2648 7.83352 10.3539 7.60124C10.6387 6.85949 11.7143 6.48912 13.8656 5.74838L20.2332 3.55584C21.8737 2.99096 22.694 2.70851 23.5211 2.75191C23.7936 2.7662 24.0641 2.80665 24.3288 2.87268C25.1324 3.07311 25.8342 3.58313 27.2377 4.60318L30.4794 6.95907C31.9668 8.04003 32.7105 8.58051 33.0829 9.34406C33.2047 9.59381 33.2955 9.85751 33.3532 10.1293C33.5299 10.9602 33.2766 11.844 32.77 13.6115L31.666 17.4638C31.188 19.1317 30.949 19.9657 30.4391 20.6183C30.2712 20.8334 30.0829 21.0318 29.877 21.2108C29.252 21.7542 28.4317 22.0366 26.7911 22.6015L20.4235 24.7941C18.2723 25.5348 17.1967 25.9052 16.5156 25.496C16.3023 25.3678 16.1197 25.1946 15.9805 24.9883C15.5362 24.3296 15.8496 23.236 16.4764 21.0489L17.9446 15.9259C18.0713 15.484 18.1346 15.2631 18.0904 15.0553C18.076 14.9874 18.0533 14.9214 18.0228 14.859C17.9297 14.6681 17.7438 14.533 17.372 14.2628L13.061 11.1297Z" fill="url(#paint0_linear_1150_582)"/>
<path d="M3.55853 8.9742C1.71803 7.63661 0.797781 6.96781 0.742422 6.1752C0.725087 5.92699 0.762317 5.678 0.851496 5.44572C1.13628 4.70397 2.2119 4.3336 4.36315 3.59287L10.7308 1.40032C12.3713 0.835439 13.1916 0.552997 14.0186 0.596388C14.2911 0.610684 14.5616 0.651129 14.8264 0.717165C15.63 0.91759 16.3317 1.42761 17.7353 2.44766L20.977 4.80355C22.4643 5.88451 23.208 6.42499 23.5804 7.18854C23.7022 7.43829 23.793 7.70199 23.8508 7.97378C24.0274 8.80473 23.7742 9.68849 23.2676 11.456L22.1636 15.3083C21.6855 16.9762 21.4465 17.8101 20.9367 18.4628C20.7687 18.6779 20.5805 18.8763 20.3745 19.0553C19.7495 19.5987 18.9292 19.8811 17.2887 20.446L10.9211 22.6385C8.76985 23.3793 7.69423 23.7496 7.01315 23.3405C6.79987 23.2123 6.61724 23.039 6.47808 22.8328C6.03373 22.1741 6.34714 21.0805 6.97397 18.8934L8.4422 13.7704C8.56884 13.3285 8.63216 13.1075 8.588 12.8998C8.57355 12.8319 8.55085 12.7659 8.5204 12.7035C8.4273 12.5126 8.24138 12.3775 7.86954 12.1072L3.55853 8.9742Z" fill="#25FBFB"/>
<path d="M19.5729 3.7832L20.9769 4.80356C22.4643 5.88452 23.208 6.425 23.5804 7.18856C23.7022 7.4383 23.793 7.702 23.8508 7.97379C24.0274 8.80474 23.7741 9.68851 23.2676 11.456L22.1635 15.3083C21.6855 16.9762 21.4465 17.8102 20.9367 18.4628C20.7687 18.6779 20.5804 18.8763 20.3745 19.0553C19.7495 19.5987 18.9292 19.8811 17.2887 20.446L16.5792 20.6903L17.9446 15.9259C18.0713 15.484 18.1346 15.2631 18.0904 15.0553C18.076 14.9874 18.0533 14.9215 18.0228 14.859C17.9297 14.6681 17.7438 14.533 17.372 14.2628L13.061 11.1297C11.2205 9.79214 10.3002 9.12334 10.2449 8.33073C10.2275 8.08253 10.2648 7.83354 10.3539 7.60125C10.6387 6.8595 11.7143 6.48913 13.8656 5.7484L19.5729 3.7832Z" fill="url(#paint1_linear_1150_582)"/>
<defs>
<linearGradient id="paint0_linear_1150_582" x1="36.6444" y1="12.8901" x2="10.4576" y2="12.3264" gradientUnits="userSpaceOnUse">
<stop stop-color="#626AFF"/>
<stop offset="1" stop-color="#4650FF"/>
</linearGradient>
<linearGradient id="paint1_linear_1150_582" x1="12.2069" y1="12.045" x2="40.5302" y2="9.58953" gradientUnits="userSpaceOnUse">
<stop stop-color="#21BEFF"/>
<stop offset="1" stop-color="#68FFFF"/>
</linearGradient>
</defs>
</svg>
