<svg width="65" height="64" viewBox="0 0 65 64" fill="none" xmlns="http://www.w3.org/2000/svg">
<rect x="16.2812" y="22" width="34" height="4" rx="2" fill="#5A63FF"/>
<rect x="48.2812" y="41.0005" width="34" height="4" rx="2" transform="rotate(180 48.2812 41.0005)" fill="#C8CBFF"/>
<path d="M26.2812 19.0752C26.2812 17.0846 26.2812 16.0893 25.8636 15.5181C25.4993 15.02 24.94 14.7008 24.3258 14.6406C23.6216 14.5716 22.7647 15.078 21.051 16.0906L15.1987 19.5488C11.9564 21.4647 10.3353 22.4226 10.1101 23.2874C9.91588 24.0335 10.1327 24.8266 10.6795 25.37C11.3133 26 13.1963 26 16.9623 26H22.8146C24.028 26 24.6348 26 25.0982 25.7638C25.5059 25.5561 25.8374 25.2247 26.0451 24.817C26.2812 24.3535 26.2812 23.7468 26.2812 22.5333V19.0752Z" fill="#5A63FF"/>
<path d="M38.2812 43.9248C38.2812 45.9154 38.2812 46.9107 38.6989 47.4819C39.0632 47.98 39.6225 48.2992 40.2367 48.3594C40.9409 48.4284 41.7978 47.922 43.5115 46.9094L49.3638 43.4512C52.6061 41.5353 54.2272 40.5774 54.4524 39.7126C54.6466 38.9665 54.4298 38.1734 53.883 37.63C53.2492 37 51.3662 37 47.6002 37H41.7479C40.5345 37 39.9277 37 39.4643 37.2362C39.0566 37.4439 38.7251 37.7753 38.5174 38.183C38.2812 38.6465 38.2812 39.2532 38.2812 40.4667V43.9248Z" fill="#C8CBFF"/>
</svg>
