<svg width="380" height="288" viewBox="0 0 380 288" fill="none" xmlns="http://www.w3.org/2000/svg">
<rect x="0.666504" width="378.667" height="288" rx="30" fill="#E6F0FF"/>
<path fill-rule="evenodd" clip-rule="evenodd" d="M128 112C128 107.582 131.581 104 136 104H248C252.418 104 256 107.582 256 112C256 116.418 252.418 120 248 120H136C131.581 120 128 116.418 128 112ZM128 144C128 139.582 131.581 136 136 136H224C228.418 136 232 139.582 232 144C232 148.418 228.418 152 224 152H136C131.581 152 128 148.418 128 144ZM136 168C131.581 168 128 171.582 128 176C128 180.418 131.581 184 136 184H200C204.418 184 208 180.418 208 176C208 171.582 204.418 168 200 168H136Z" fill="#2A7FFF"/>
</svg>
