<svg width="216" height="65" viewBox="0 0 216 65" fill="none" xmlns="http://www.w3.org/2000/svg">
<rect y="0.5" width="216" height="64" rx="12" fill="black"/>
<path d="M109.018 35.3018C105.254 35.3018 102.187 38.1642 102.187 42.1066C102.187 46.025 105.254 48.9114 109.018 48.9114C112.782 48.9114 115.85 46.025 115.85 42.1066C115.848 38.1642 112.781 35.3018 109.018 35.3018ZM109.018 46.233C106.955 46.233 105.178 44.5322 105.178 42.1082C105.178 39.6586 106.957 37.9834 109.018 37.9834C111.08 37.9834 112.858 39.6586 112.858 42.1082C112.858 44.5306 111.08 46.233 109.018 46.233ZM94.1152 35.3018C90.352 35.3018 87.2848 38.1642 87.2848 42.1066C87.2848 46.025 90.352 48.9114 94.1152 48.9114C97.88 48.9114 100.947 46.025 100.947 42.1066C100.947 38.1642 97.88 35.3018 94.1152 35.3018ZM94.1152 46.233C92.0528 46.233 90.2752 44.5322 90.2752 42.1082C90.2752 39.6586 92.0544 37.9834 94.1152 37.9834C96.1776 37.9834 97.9552 39.6586 97.9552 42.1082C97.9568 44.5306 96.1776 46.233 94.1152 46.233ZM76.3904 37.3914V40.2778H83.2992C83.0928 41.9018 82.552 43.0874 81.7264 43.9114C80.7216 44.9162 79.1488 46.025 76.3904 46.025C72.1376 46.025 68.8128 42.5962 68.8128 38.3434C68.8128 34.0906 72.1376 30.6618 76.3904 30.6618C78.6848 30.6618 80.36 31.5642 81.5968 32.7242L83.6336 30.6874C81.9056 29.0378 79.6128 27.7754 76.3904 27.7754C70.5648 27.7754 65.6672 32.5178 65.6672 38.3434C65.6672 44.169 70.5648 48.9114 76.3904 48.9114C79.5344 48.9114 81.9072 47.8794 83.7616 45.9466C85.6688 44.0394 86.2624 41.3578 86.2624 39.193C86.2624 38.5242 86.2112 37.905 86.1072 37.3898H76.3904V37.3914ZM148.883 39.633C148.317 38.113 146.589 35.3018 143.058 35.3018C139.552 35.3018 136.638 38.0602 136.638 42.1066C136.638 45.921 139.526 48.9114 143.392 48.9114C146.51 48.9114 148.315 47.0042 149.064 45.8954L146.744 44.3482C145.971 45.4826 144.914 46.2298 143.392 46.2298C141.872 46.2298 140.789 45.5338 140.093 44.1674L149.192 40.4042L148.883 39.633ZM139.603 41.9018C139.526 39.2714 141.64 37.9322 143.162 37.9322C144.347 37.9322 145.352 38.5258 145.688 39.3754L139.603 41.9018ZM132.206 48.5002H135.195V28.4986H132.206V48.5002ZM127.307 36.8234H127.205C126.534 36.0234 125.245 35.3018 123.622 35.3018C120.219 35.3018 117.101 38.2922 117.101 42.1338C117.101 45.9482 120.219 48.913 123.622 48.913C125.246 48.913 126.534 48.1914 127.205 47.3674H127.307V48.3466C127.307 50.9498 125.915 52.3418 123.674 52.3418C121.843 52.3418 120.709 51.0282 120.245 49.9194L117.642 51.0026C118.389 52.8058 120.373 55.0234 123.674 55.0234C127.179 55.0234 130.144 52.961 130.144 47.9338V35.7162H127.309V36.8234H127.307ZM123.88 46.233C121.818 46.233 120.091 44.505 120.091 42.1338C120.091 39.7354 121.818 37.9834 123.88 37.9834C125.915 37.9834 127.514 39.7354 127.514 42.1338C127.514 44.505 125.915 46.233 123.88 46.233ZM162.89 28.4986H155.736V48.5002H158.72V40.9226H162.888C166.197 40.9226 169.451 38.5274 169.451 34.7114C169.451 30.8954 166.198 28.4986 162.89 28.4986ZM162.966 38.1386H158.72V31.2826H162.966C165.198 31.2826 166.466 33.1306 166.466 34.7114C166.466 36.2602 165.198 38.1386 162.966 38.1386ZM181.418 35.2666C179.256 35.2666 177.018 36.2186 176.091 38.329L178.741 39.4346C179.307 38.329 180.363 37.9674 181.469 37.9674C183.013 37.9674 184.582 38.8938 184.608 40.5402V40.7466C184.067 40.4378 182.909 39.9754 181.494 39.9754C178.638 39.9754 175.73 41.545 175.73 44.4778C175.73 47.1546 178.072 48.8778 180.696 48.8778C182.702 48.8778 183.81 47.977 184.504 46.921H184.606V48.465H187.49V40.7962C187.491 37.2474 184.838 35.2666 181.418 35.2666ZM181.056 46.2282C180.08 46.2282 178.715 45.7386 178.715 44.529C178.715 42.985 180.414 42.393 181.882 42.393C183.192 42.393 183.811 42.6762 184.608 43.0618C184.376 44.9162 182.781 46.2282 181.056 46.2282ZM197.989 35.7034L194.566 44.3754H194.464L190.912 35.7034H187.696L193.022 47.8234L189.986 54.5658H193.099L201.309 35.7034H197.989ZM171.099 48.5002H174.083V28.4986H171.099V48.5002Z" fill="white"/>
<path d="M75.8689 16.8887C75.8689 18.2295 75.4721 19.2967 74.6769 20.0935C73.7745 21.0407 72.5969 21.5143 71.1505 21.5143C69.7649 21.5143 68.5857 21.0343 67.6177 20.0743C66.6481 19.1127 66.1633 17.9223 66.1633 16.5015C66.1633 15.0791 66.6481 13.8887 67.6177 12.9287C68.5857 11.9671 69.7649 11.4871 71.1505 11.4871C71.8385 11.4871 72.4961 11.6215 73.1201 11.8887C73.7457 12.1575 74.2465 12.5143 74.6209 12.9607L73.7777 13.8055C73.1425 13.0455 72.2673 12.6663 71.1489 12.6663C70.1377 12.6663 69.2641 13.0215 68.5265 13.7319C67.7889 14.4423 67.4209 15.3655 67.4209 16.4999C67.4209 17.6343 67.7889 18.5575 68.5265 19.2679C69.2641 19.9783 70.1377 20.3335 71.1489 20.3335C72.2209 20.3335 73.1153 19.9767 73.8305 19.2615C74.2945 18.7959 74.5633 18.1479 74.6353 17.3175H71.1489V16.1639H75.8001C75.8481 16.4151 75.8689 16.6567 75.8689 16.8887Z" fill="white"/>
<path d="M83.2451 12.8792H78.8739V15.9224H82.8163V17.076H78.8739V20.1192H83.2451V21.3H77.6403V11.7H83.2451V12.8792Z" fill="white"/>
<path d="M88.4465 21.3H87.2129V12.8792H84.5313V11.7H91.1281V12.8792H88.4465V21.3Z" fill="white"/>
<path d="M95.9008 21.3V11.7H97.1344V21.3H95.9008Z" fill="white"/>
<path d="M102.605 21.3H101.371V12.8792H98.6899V11.7H105.287V12.8792H102.605V21.3Z" fill="white"/>
<path d="M117.774 20.06C116.83 21.0296 115.658 21.5144 114.254 21.5144C112.851 21.5144 111.678 21.0296 110.736 20.06C109.792 19.0904 109.322 17.9032 109.322 16.5C109.322 15.0968 109.792 13.9096 110.736 12.94C111.678 11.9704 112.851 11.484 114.254 11.484C115.65 11.484 116.821 11.972 117.768 12.9464C118.715 13.9208 119.189 15.1048 119.189 16.5C119.189 17.9032 118.717 19.0904 117.774 20.06ZM111.646 19.2552C112.357 19.9752 113.226 20.3336 114.254 20.3336C115.283 20.3336 116.154 19.9736 116.862 19.2552C117.573 18.5352 117.93 17.6168 117.93 16.5C117.93 15.3832 117.573 14.4648 116.862 13.7448C116.154 13.0248 115.283 12.6664 114.254 12.6664C113.226 12.6664 112.357 13.0264 111.646 13.7448C110.938 14.4648 110.581 15.3832 110.581 16.5C110.581 17.6168 110.938 18.5352 111.646 19.2552Z" fill="white"/>
<path d="M120.92 21.3V11.7H122.421L127.086 19.1672H127.139L127.086 17.3176V11.7H128.32V21.3H127.032L122.15 13.4696H122.098L122.15 15.3192V21.3H120.92Z" fill="white"/>
<path d="M75.8689 16.8887C75.8689 18.2295 75.4721 19.2967 74.6769 20.0935C73.7745 21.0407 72.5969 21.5143 71.1505 21.5143C69.7649 21.5143 68.5857 21.0343 67.6177 20.0743C66.6481 19.1127 66.1633 17.9223 66.1633 16.5015C66.1633 15.0791 66.6481 13.8887 67.6177 12.9287C68.5857 11.9671 69.7649 11.4871 71.1505 11.4871C71.8385 11.4871 72.4961 11.6215 73.1201 11.8887C73.7457 12.1575 74.2465 12.5143 74.6209 12.9607L73.7777 13.8055C73.1425 13.0455 72.2673 12.6663 71.1489 12.6663C70.1377 12.6663 69.2641 13.0215 68.5265 13.7319C67.7889 14.4423 67.4209 15.3655 67.4209 16.4999C67.4209 17.6343 67.7889 18.5575 68.5265 19.2679C69.2641 19.9783 70.1377 20.3335 71.1489 20.3335C72.2209 20.3335 73.1153 19.9767 73.8305 19.2615C74.2945 18.7959 74.5633 18.1479 74.6353 17.3175H71.1489V16.1639H75.8001C75.8481 16.4151 75.8689 16.6567 75.8689 16.8887Z" stroke="white" stroke-width="0.32" stroke-miterlimit="10"/>
<path d="M83.2451 12.8792H78.8739V15.9224H82.8163V17.076H78.8739V20.1192H83.2451V21.3H77.6403V11.7H83.2451V12.8792Z" stroke="white" stroke-width="0.32" stroke-miterlimit="10"/>
<path d="M88.4465 21.3H87.2129V12.8792H84.5313V11.7H91.1281V12.8792H88.4465V21.3Z" stroke="white" stroke-width="0.32" stroke-miterlimit="10"/>
<path d="M95.9008 21.3V11.7H97.1344V21.3H95.9008Z" stroke="white" stroke-width="0.32" stroke-miterlimit="10"/>
<path d="M102.605 21.3H101.371V12.8792H98.6899V11.7H105.287V12.8792H102.605V21.3Z" stroke="white" stroke-width="0.32" stroke-miterlimit="10"/>
<path d="M117.774 20.06C116.83 21.0296 115.658 21.5144 114.254 21.5144C112.851 21.5144 111.678 21.0296 110.736 20.06C109.792 19.0904 109.322 17.9032 109.322 16.5C109.322 15.0968 109.792 13.9096 110.736 12.94C111.678 11.9704 112.851 11.484 114.254 11.484C115.65 11.484 116.821 11.972 117.768 12.9464C118.715 13.9208 119.189 15.1048 119.189 16.5C119.189 17.9032 118.717 19.0904 117.774 20.06ZM111.646 19.2552C112.357 19.9752 113.226 20.3336 114.254 20.3336C115.283 20.3336 116.154 19.9736 116.862 19.2552C117.573 18.5352 117.93 17.6168 117.93 16.5C117.93 15.3832 117.573 14.4648 116.862 13.7448C116.154 13.0248 115.283 12.6664 114.254 12.6664C113.226 12.6664 112.357 13.0264 111.646 13.7448C110.938 14.4648 110.581 15.3832 110.581 16.5C110.581 17.6168 110.938 18.5352 111.646 19.2552Z" stroke="white" stroke-width="0.32" stroke-miterlimit="10"/>
<path d="M120.92 21.3V11.7H122.421L127.086 19.1672H127.139L127.086 17.3176V11.7H128.32V21.3H127.032L122.15 13.4696H122.098L122.15 15.3192V21.3H120.92Z" stroke="white" stroke-width="0.32" stroke-miterlimit="10"/>
<g filter="url(#filter0_ii_528_3656)">
<path d="M16.6976 12.5608C16.232 13.0536 15.9568 13.8184 15.9568 14.8088V50.1944C15.9568 51.1864 16.232 51.9496 16.6976 52.4424L16.816 52.5576L36.6384 32.7352V32.5016V32.268L16.816 12.444L16.6976 12.5608Z" fill="url(#paint0_linear_528_3656)"/>
<path d="M43.2448 39.3447L36.6384 32.7351V32.5015V32.2679L43.2464 25.6599L43.3952 25.7447L51.224 30.1927C53.4592 31.4631 53.4592 33.5415 51.224 34.8135L43.3952 39.2615L43.2448 39.3447Z" fill="url(#paint1_linear_528_3656)"/>
<g filter="url(#filter1_i_528_3656)">
<path d="M43.3952 39.26L36.6368 32.5016L16.6976 52.4424C17.4336 53.2232 18.6512 53.3192 20.0224 52.5416L43.3952 39.26Z" fill="url(#paint2_linear_528_3656)"/>
</g>
<path d="M43.3952 25.7431L20.0224 12.4631C18.6512 11.6839 17.4336 11.7815 16.6976 12.5623L36.6384 32.5031L43.3952 25.7431Z" fill="url(#paint3_linear_528_3656)"/>
</g>
<defs>
<filter id="filter0_ii_528_3656" x="15.9568" y="11.9254" width="36.9436" height="41.1533" filterUnits="userSpaceOnUse" color-interpolation-filters="sRGB">
<feFlood flood-opacity="0" result="BackgroundImageFix"/>
<feBlend mode="normal" in="SourceGraphic" in2="BackgroundImageFix" result="shape"/>
<feColorMatrix in="SourceAlpha" type="matrix" values="0 0 0 0 0 0 0 0 0 0 0 0 0 0 0 0 0 0 127 0" result="hardAlpha"/>
<feOffset dy="-0.24"/>
<feComposite in2="hardAlpha" operator="arithmetic" k2="-1" k3="1"/>
<feColorMatrix type="matrix" values="0 0 0 0 0 0 0 0 0 0 0 0 0 0 0 0 0 0 0.12 0"/>
<feBlend mode="normal" in2="shape" result="effect1_innerShadow_528_3656"/>
<feColorMatrix in="SourceAlpha" type="matrix" values="0 0 0 0 0 0 0 0 0 0 0 0 0 0 0 0 0 0 127 0" result="hardAlpha"/>
<feOffset dy="0.24"/>
<feComposite in2="hardAlpha" operator="arithmetic" k2="-1" k3="1"/>
<feColorMatrix type="matrix" values="0 0 0 0 1 0 0 0 0 1 0 0 0 0 1 0 0 0 0.25 0"/>
<feBlend mode="normal" in2="effect1_innerShadow_528_3656" result="effect2_innerShadow_528_3656"/>
</filter>
<filter id="filter1_i_528_3656" x="16.6976" y="32.5016" width="26.6976" height="20.5771" filterUnits="userSpaceOnUse" color-interpolation-filters="sRGB">
<feFlood flood-opacity="0" result="BackgroundImageFix"/>
<feBlend mode="normal" in="SourceGraphic" in2="BackgroundImageFix" result="shape"/>
<feColorMatrix in="SourceAlpha" type="matrix" values="0 0 0 0 0 0 0 0 0 0 0 0 0 0 0 0 0 0 127 0" result="hardAlpha"/>
<feOffset dy="-0.24"/>
<feComposite in2="hardAlpha" operator="arithmetic" k2="-1" k3="1"/>
<feColorMatrix type="matrix" values="0 0 0 0 0 0 0 0 0 0 0 0 0 0 0 0 0 0 0.08 0"/>
<feBlend mode="normal" in2="shape" result="effect1_innerShadow_528_3656"/>
</filter>
<linearGradient id="paint0_linear_528_3656" x1="34.8813" y1="14.4344" x2="8.03007" y2="41.2856" gradientUnits="userSpaceOnUse">
<stop stop-color="#00A0FF"/>
<stop offset="0.0066" stop-color="#00A1FF"/>
<stop offset="0.2601" stop-color="#00BEFF"/>
<stop offset="0.5122" stop-color="#00D2FF"/>
<stop offset="0.7604" stop-color="#00DFFF"/>
<stop offset="1" stop-color="#00E3FF"/>
</linearGradient>
<linearGradient id="paint1_linear_528_3656" x1="54.1336" y1="32.5015" x2="15.4202" y2="32.5015" gradientUnits="userSpaceOnUse">
<stop stop-color="#FFE000"/>
<stop offset="0.4087" stop-color="#FFBD00"/>
<stop offset="0.7754" stop-color="#FFA500"/>
<stop offset="1" stop-color="#FF9C00"/>
</linearGradient>
<linearGradient id="paint2_linear_528_3656" x1="39.725" y1="36.1718" x2="3.3114" y2="72.5854" gradientUnits="userSpaceOnUse">
<stop stop-color="#FF3A44"/>
<stop offset="1" stop-color="#C31162"/>
</linearGradient>
<linearGradient id="paint3_linear_528_3656" x1="11.6759" y1="0.782816" x2="27.9356" y2="17.0425" gradientUnits="userSpaceOnUse">
<stop stop-color="#32A071"/>
<stop offset="0.0685" stop-color="#2DA771"/>
<stop offset="0.4762" stop-color="#15CF74"/>
<stop offset="0.8009" stop-color="#06E775"/>
<stop offset="1" stop-color="#00F076"/>
</linearGradient>
</defs>
</svg>
