<svg width="568" height="468" viewBox="0 0 568 468" fill="none" xmlns="http://www.w3.org/2000/svg">
<g clip-path="url(#clip0_1183_16538)">
<rect width="568" height="468" rx="60" fill="#E6F0FF"/>
<g clip-path="url(#clip1_1183_16538)">
<rect opacity="0.1" x="-8" width="194.667" height="234" fill="#80B2FF"/>
<rect opacity="0.3" x="186.667" width="194.667" height="234" fill="#80B2FF"/>
<rect opacity="0.1" x="381.333" width="194.667" height="234" fill="#80B2FF"/>
<rect opacity="0.3" x="-8" y="234" width="194.667" height="234" fill="#80B2FF"/>
<rect opacity="0.1" x="186.667" y="234" width="194.667" height="234" fill="#80B2FF"/>
<rect opacity="0.3" x="381.333" y="234" width="194.667" height="234" fill="#80B2FF"/>
</g>
<rect x="217.575" y="74.3999" width="138.685" height="248" rx="69.3425" stroke="#0065FF" stroke-width="50"/>
<path d="M140.055 266.4C140.055 238.397 140.055 224.396 145.504 213.7C150.298 204.292 157.947 196.643 167.355 191.85C178.051 186.4 192.052 186.4 220.055 186.4H353.781C381.783 186.4 395.785 186.4 406.48 191.85C415.888 196.643 423.537 204.292 428.331 213.7C433.781 224.396 433.781 238.397 433.781 266.4V341.4C433.781 358.201 433.781 366.602 430.511 373.02C427.635 378.664 423.045 383.254 417.401 386.13C410.983 389.4 402.582 389.4 385.781 389.4H188.055C171.253 389.4 162.852 389.4 156.435 386.13C150.79 383.254 146.201 378.664 143.325 373.02C140.055 366.602 140.055 358.201 140.055 341.4V266.4Z" fill="#2A7FFF"/>
<path d="M299.497 282.216C299.351 281.57 299.278 281.247 299.314 280.966C299.348 280.699 299.424 280.494 299.574 280.271C299.732 280.035 300.03 279.816 300.627 279.378C306.211 275.284 309.852 268.57 309.852 260.981C309.852 248.51 300.02 238.4 287.89 238.4C275.761 238.4 265.928 248.51 265.928 260.981C265.928 268.57 269.57 275.284 275.154 279.378C275.751 279.816 276.049 280.035 276.207 280.271C276.357 280.494 276.433 280.699 276.467 280.966C276.503 281.247 276.429 281.57 276.283 282.216L267.993 318.87C266.483 325.545 265.728 328.883 266.583 331.503C267.333 333.801 268.89 335.749 270.966 336.987C273.333 338.4 276.755 338.4 283.598 338.4H292.182C299.026 338.4 302.448 338.4 304.815 336.987C306.89 335.749 308.447 333.801 309.197 331.503C310.053 328.883 309.298 325.545 307.788 318.87L299.497 282.216Z" fill="#0043AA"/>
</g>
<defs>
<clipPath id="clip0_1183_16538">
<rect width="568" height="468" rx="60" fill="white"/>
</clipPath>
<clipPath id="clip1_1183_16538">
<rect x="-8" width="584" height="468" rx="60" fill="white"/>
</clipPath>
</defs>
</svg>
