<svg width="592" height="474" viewBox="0 0 592 474" fill="none" xmlns="http://www.w3.org/2000/svg">
<rect width="592" height="474" rx="60" fill="#DAF6DA"/>
<rect x="120.63" y="128.628" width="372.027" height="222.821" rx="60" fill="#44D244"/>
<g filter="url(#filter0_d_1183_16560)">
<path d="M69.9453 165.282C69.9453 142.88 69.9453 131.679 74.3051 123.122C78.14 115.596 84.2592 109.477 91.7857 105.642C100.342 101.282 111.543 101.282 133.945 101.282H186.384C208.786 101.282 219.987 101.282 228.543 105.642C236.07 109.477 242.189 115.596 246.024 123.122C250.384 131.679 250.384 142.88 250.384 165.282V213.513C250.384 235.915 250.384 247.116 246.024 255.672C242.189 263.199 236.07 269.318 228.543 273.153C219.987 277.513 208.786 277.513 186.384 277.513H133.945C111.543 277.513 100.342 277.513 91.7857 273.153C84.2592 269.318 78.14 263.199 74.3051 255.672C69.9453 247.116 69.9453 235.915 69.9453 213.513V165.282Z" fill="white"/>
</g>
<path d="M147.337 131.629C154.403 127.855 162.885 127.855 169.951 131.629L205.208 150.461C213.022 154.634 217.901 162.772 217.901 171.63V206.152C217.901 215.01 213.022 223.148 205.208 227.321L169.951 246.153C162.885 249.927 154.403 249.927 147.337 246.153L112.079 227.321C104.266 223.148 99.3864 215.01 99.3864 206.152V171.63C99.3864 162.772 104.266 154.634 112.079 150.461L147.337 131.629Z" fill="#44D244"/>
<path opacity="0.2" d="M158.137 197.573C158.137 190.708 162.041 184.442 168.203 181.416L206.419 162.648C211.735 160.037 217.945 163.907 217.945 169.829V220.795L166.926 247.578C162.931 249.676 158.137 246.778 158.137 242.266V197.573Z" fill="white"/>
<rect x="329.452" y="265.359" width="192.603" height="106.346" rx="40" fill="white"/>
<path d="M392.269 335.244H385.457L370.033 311.957V335.244H363.22V301.261H370.033L385.457 324.597V301.261H392.269V335.244Z" fill="#44D244"/>
<path d="M424.059 321.194C424.059 322.166 423.995 323.041 423.865 323.819H404.159C404.321 325.764 405.002 327.287 406.202 328.389C407.402 329.491 408.878 330.042 410.63 330.042C413.16 330.042 414.961 328.956 416.031 326.785H423.378C422.6 329.377 421.108 331.516 418.902 333.202C416.696 334.855 413.987 335.681 410.776 335.681C408.181 335.681 405.845 335.114 403.769 333.98C401.726 332.813 400.12 331.176 398.952 329.069C397.817 326.963 397.249 324.532 397.249 321.777C397.249 318.99 397.817 316.543 398.952 314.436C400.088 312.33 401.677 310.709 403.721 309.575C405.764 308.44 408.116 307.873 410.776 307.873C413.339 307.873 415.626 308.424 417.637 309.526C419.68 310.628 421.254 312.2 422.356 314.242C423.492 316.251 424.059 318.569 424.059 321.194ZM417.004 319.249C416.972 317.499 416.339 316.105 415.106 315.068C413.874 313.999 412.365 313.464 410.581 313.464C408.895 313.464 407.467 313.982 406.299 315.02C405.164 316.024 404.467 317.434 404.207 319.249H417.004Z" fill="#44D244"/>
<path d="M466.401 308.311L458.518 335.244H451.171L446.256 316.429L441.342 335.244H433.946L426.015 308.311H432.924L437.693 328.826L442.85 308.311H450.052L455.112 328.778L459.881 308.311H466.401Z" fill="#44D244"/>
<path d="M480.402 335.681C478.196 335.681 476.217 335.292 474.466 334.514C472.714 333.704 471.319 332.618 470.281 331.257C469.276 329.896 468.724 328.389 468.627 326.736H475.487C475.617 327.773 476.12 328.632 476.996 329.313C477.904 329.993 479.023 330.333 480.353 330.333C481.651 330.333 482.656 330.074 483.37 329.556C484.116 329.037 484.489 328.373 484.489 327.562C484.489 326.687 484.035 326.039 483.127 325.618C482.251 325.164 480.84 324.678 478.893 324.159C476.882 323.673 475.228 323.171 473.93 322.652C472.665 322.134 471.562 321.34 470.622 320.27C469.713 319.201 469.259 317.758 469.259 315.943C469.259 314.452 469.681 313.091 470.524 311.86C471.4 310.628 472.633 309.656 474.222 308.943C475.844 308.23 477.742 307.873 479.915 307.873C483.127 307.873 485.689 308.683 487.603 310.304C489.517 311.892 490.571 314.047 490.766 316.77H484.246C484.149 315.7 483.694 314.858 482.883 314.242C482.105 313.594 481.051 313.269 479.721 313.269C478.488 313.269 477.531 313.496 476.85 313.95C476.201 314.404 475.877 315.036 475.877 315.846C475.877 316.754 476.331 317.45 477.239 317.937C478.147 318.39 479.558 318.86 481.472 319.346C483.419 319.833 485.024 320.335 486.289 320.853C487.555 321.372 488.641 322.182 489.549 323.284C490.49 324.354 490.977 325.78 491.009 327.562C491.009 329.118 490.571 330.512 489.695 331.743C488.852 332.975 487.619 333.947 485.997 334.66C484.408 335.341 482.543 335.681 480.402 335.681Z" fill="#44D244"/>
<defs>
<filter id="filter0_d_1183_16560" x="17.9453" y="81.282" width="284.438" height="280.231" filterUnits="userSpaceOnUse" color-interpolation-filters="sRGB">
<feFlood flood-opacity="0" result="BackgroundImageFix"/>
<feColorMatrix in="SourceAlpha" type="matrix" values="0 0 0 0 0 0 0 0 0 0 0 0 0 0 0 0 0 0 127 0" result="hardAlpha"/>
<feMorphology radius="12" operator="erode" in="SourceAlpha" result="effect1_dropShadow_1183_16560"/>
<feOffset dy="32"/>
<feGaussianBlur stdDeviation="32"/>
<feColorMatrix type="matrix" values="0 0 0 0 0.0627451 0 0 0 0 0.0941176 0 0 0 0 0.156863 0 0 0 0.2 0"/>
<feBlend mode="normal" in2="BackgroundImageFix" result="effect1_dropShadow_1183_16560"/>
<feBlend mode="normal" in="SourceGraphic" in2="effect1_dropShadow_1183_16560" result="shape"/>
</filter>
</defs>
</svg>
