<svg width="379" height="288" viewBox="0 0 379 288" fill="none" xmlns="http://www.w3.org/2000/svg">
<rect x="0.333008" width="378.667" height="288" rx="30" fill="#F1F4F6"/>
<g clip-path="url(#clip0_2267_31145)">
<rect x="139.999" y="35" width="100" height="100" rx="30" fill="white"/>
<path fill-rule="evenodd" clip-rule="evenodd" d="M239.999 35H139.999V135H239.999V35ZM215.948 98.2475C217.036 86.928 214.126 77.0954 208.234 68.3783C208.219 68.3494 208.195 68.3284 208.166 68.316C204.841 66.7811 201.275 65.6504 197.547 65.0028C197.513 64.9965 197.479 65.001 197.448 65.0156C197.417 65.0302 197.392 65.0542 197.376 65.0841C196.917 65.9044 196.409 66.9747 196.053 67.8159C192.043 67.2122 188.054 67.2122 184.126 67.8159C183.769 66.9563 183.243 65.9044 182.783 65.0841C182.747 65.0238 182.68 64.9923 182.612 65.0028C178.885 65.6485 175.32 66.7791 171.992 68.316C171.963 68.3284 171.938 68.3494 171.922 68.3763C165.158 78.5403 163.306 88.4543 164.215 98.2456C164.219 98.2935 164.245 98.3394 164.283 98.3683C168.745 101.665 173.068 103.666 177.31 104.993C177.378 105.014 177.45 104.988 177.494 104.932C178.497 103.554 179.391 102.1 180.158 100.572C180.204 100.482 180.16 100.376 180.068 100.341C178.649 99.7995 177.298 99.1393 175.998 98.3893C175.895 98.3289 175.887 98.1813 175.982 98.1104C176.255 97.9043 176.529 97.6898 176.79 97.4732C176.838 97.4338 176.903 97.4253 176.959 97.4503C185.497 101.371 194.741 101.371 203.179 97.4503C203.235 97.4233 203.301 97.4312 203.35 97.4712C203.611 97.6878 203.884 97.9043 204.16 98.1104C204.255 98.1813 204.248 98.3289 204.146 98.3893C202.846 99.1538 201.495 99.7995 200.074 100.338C199.981 100.374 199.94 100.482 199.985 100.572C200.769 102.098 201.664 103.552 202.649 104.93C202.669 104.959 202.697 104.98 202.73 104.991C202.763 105.002 202.799 105.003 202.832 104.993C207.094 103.666 211.418 101.665 215.88 98.3683C215.919 98.3394 215.944 98.2954 215.948 98.2475ZM181.433 81.7052C184.066 81.7052 186.164 84.1004 186.122 86.9949C186.122 89.9098 184.045 92.2839 181.433 92.2839C178.863 92.2839 176.745 89.9098 176.745 86.9949C176.745 84.0794 178.822 81.7052 181.433 81.7052ZM198.77 81.7052C201.402 81.7052 203.5 84.1004 203.459 86.9949C203.459 89.9098 201.402 92.2839 198.77 92.2839C196.199 92.2839 194.081 89.9098 194.081 86.9949C194.081 84.0794 196.158 81.7052 198.77 81.7052Z" fill="#5865F2"/>
</g>
<g clip-path="url(#clip1_2267_31145)">
<rect x="85.999" y="143" width="100" height="100" rx="30" fill="white"/>
<path fill-rule="evenodd" clip-rule="evenodd" d="M185.999 143H85.999V243H185.999V143ZM136.319 220.641C151.408 220.641 163.64 208.409 163.64 193.32C163.64 178.232 151.408 166 136.319 166C121.231 166 108.999 178.232 108.999 193.32C108.999 208.409 121.231 220.641 136.319 220.641ZM120.711 192.722C120.711 192.722 134.244 186.965 138.937 184.937C140.737 184.126 146.838 181.531 146.838 181.531C146.838 181.531 149.654 180.396 149.42 183.153C149.363 183.973 149.021 186.273 148.6 189.106C148.438 190.197 148.264 191.366 148.09 192.56C147.151 198.642 146.134 205.291 146.134 205.291C146.134 205.291 145.978 207.156 144.648 207.481C143.318 207.805 141.128 206.345 140.737 206.021C140.669 205.968 140.354 205.755 139.882 205.436L139.882 205.435C138.179 204.282 134.428 201.741 132.836 200.345C132.288 199.858 131.662 198.885 132.914 197.75C135.73 195.074 139.094 191.749 141.128 189.641C142.066 188.667 143.005 186.397 139.094 189.154C133.54 193.127 128.064 196.858 128.064 196.858C128.064 196.858 126.812 197.669 124.466 196.939C122.119 196.209 119.381 195.236 119.381 195.236C119.381 195.236 117.504 194.019 120.711 192.722Z" fill="#34AADF"/>
</g>
<g clip-path="url(#clip2_2267_31145)">
<rect x="193.999" y="143" width="100" height="100" rx="30" fill="white"/>
<path fill-rule="evenodd" clip-rule="evenodd" d="M293.999 143H193.999V243H293.999V143ZM262.799 179.976C264.427 179.732 266.016 179.279 267.528 178.628C267.648 178.578 267.698 178.546 267.719 178.559C267.734 178.569 267.734 178.603 267.734 178.672C267.748 178.956 267.655 179.235 267.474 179.454C266.426 180.925 265.17 182.236 263.745 183.346C263.707 183.374 263.665 183.402 263.62 183.432C263.42 183.565 263.18 183.726 263.18 183.966C263.18 191.684 261.201 199.392 255.57 204.979C248.406 212.1 237.665 214.035 228.121 211.404C226.278 210.877 224.499 210.148 222.816 209.23C222.25 208.925 221.707 208.61 221.163 208.251C221.044 208.143 220.935 208.023 221.044 207.969C221.152 207.914 221.25 207.904 221.674 207.969C224.362 208.208 227.07 207.859 229.61 206.947C229.724 206.908 229.848 206.866 229.982 206.821C231.482 206.315 234.096 205.433 234.785 204.175L234.85 204.11C234.614 204.057 234.393 204.036 234.179 204.016C234.038 204.003 233.901 203.99 233.763 203.968C231.219 203.229 227.751 201.903 226.153 197.554C226.055 197.304 226.153 197.163 226.414 197.217C227.626 197.382 228.856 197.345 230.056 197.109C229.634 197.025 229.222 196.897 228.827 196.728C227.207 196.073 225.789 194.999 224.719 193.616C223.65 192.233 222.966 190.591 222.74 188.858C222.709 188.496 222.709 188.132 222.74 187.771C222.751 187.51 222.87 187.434 223.088 187.575C224.245 188.164 225.509 188.516 226.805 188.608C226.392 188.281 226.001 187.934 225.62 187.575C222.794 184.89 221.696 179.454 223.957 176.019C224.142 175.758 224.262 175.758 224.49 176.019C229.686 181.922 236.046 184.672 243.797 185.814C243.992 185.846 243.992 185.814 243.992 185.585C243.764 184.251 243.797 182.885 244.09 181.563C244.445 180.174 245.094 178.876 245.993 177.758C246.847 176.672 247.912 175.77 249.123 175.106C250.354 174.476 251.701 174.106 253.08 174.019C254.502 173.929 255.926 174.163 257.244 174.704C258.22 175.136 259.123 175.72 259.918 176.432C260.092 176.592 260.256 176.762 260.407 176.943C260.458 176.993 260.521 177.029 260.59 177.046C260.659 177.064 260.731 177.062 260.799 177.041C262.749 176.554 264.63 175.824 266.397 174.867C266.436 174.846 266.479 174.835 266.522 174.835C266.566 174.835 266.609 174.846 266.647 174.867C266.699 174.903 266.681 174.964 266.664 175.024C266.656 175.052 266.647 175.081 266.647 175.106C266.319 176.131 265.803 177.085 265.125 177.921C264.68 178.476 263.56 179.846 262.799 179.976Z" fill="#33CCFF"/>
</g>
<defs>
<clipPath id="clip0_2267_31145">
<rect x="139.999" y="35" width="100" height="100" rx="30" fill="white"/>
</clipPath>
<clipPath id="clip1_2267_31145">
<rect x="85.999" y="143" width="100" height="100" rx="30" fill="white"/>
</clipPath>
<clipPath id="clip2_2267_31145">
<rect x="193.999" y="143" width="100" height="100" rx="30" fill="white"/>
</clipPath>
</defs>
</svg>
