<svg width="38" height="37" viewBox="0 0 38 37" fill="none" xmlns="http://www.w3.org/2000/svg">
<path d="M18.6474 0.689003C28.8775 0.668808 37.2178 8.68996 37.2801 18.6055C37.3424 28.4403 29.0146 36.579 18.7803 36.688C8.5585 36.7971 0.0354226 28.5817 0.0561902 18.6338C0.0769578 8.72636 8.37988 0.709197 18.6474 0.689003ZM15.5072 26.8692C16.1012 26.3805 16.5623 26.0091 17.0109 25.6294C17.4719 25.2377 17.9246 24.8377 18.4272 24.3975C18.9256 24.7287 19.3784 25.0197 19.8186 25.3267C20.8238 26.0335 21.7875 26.7965 22.8258 27.4468C23.885 28.1092 24.4 27.8789 24.7863 26.6914C24.8486 26.5016 24.861 26.3 24.9067 26.1021C25.8246 21.9299 26.7425 17.7616 27.6563 13.5894C27.7269 13.2663 27.7851 12.9308 27.7892 12.5996C27.7934 11.8403 27.3739 11.4849 26.6055 11.6182C26.2068 11.6869 25.8205 11.8566 25.4384 12.002C20.1094 13.9932 14.7804 15.9806 9.4556 17.9839C8.84504 18.2141 8.27189 18.5328 7.61979 18.8438C7.87315 19.1992 7.95207 19.4498 8.10575 19.5064C9.20228 19.8901 10.3361 20.1929 11.4202 20.6089C12.4752 21.0128 13.3516 20.8919 14.3152 20.274C17.0192 18.5493 19.7813 16.9136 22.5226 15.2495C22.9504 14.987 23.3948 14.7528 23.8351 14.5064L24.0926 14.8291C23.5734 15.3098 23.0626 15.8069 22.5268 16.2754C20.5331 18.0202 18.5145 19.7406 16.5457 21.5137C16.1179 21.9014 15.6195 22.4345 15.5572 22.9434C15.4118 24.1672 15.5114 25.4155 15.5114 26.8736L15.5072 26.8692Z" fill="#C6C6C6"/>
</svg>
