<svg width="380" height="288" viewBox="0 0 380 288" fill="none" xmlns="http://www.w3.org/2000/svg">
<rect x="0.666992" width="378.667" height="288" rx="30" fill="#B2E6FA"/>
<path d="M166.969 72.8042C176.299 67.4179 180.229 65.2009 184.319 64.3316C188.064 63.5355 191.936 63.5355 195.681 64.3316C199.771 65.2009 203.701 67.4179 213.031 72.8042L240.142 88.4569C249.471 93.8432 253.357 96.1387 256.154 99.2458C258.717 102.092 260.652 105.444 261.835 109.086C263.127 113.062 263.173 117.575 263.173 128.347V159.653C263.173 170.425 263.127 174.938 261.835 178.914C260.652 182.556 258.717 185.908 256.154 188.754C253.357 191.861 249.471 194.157 240.142 199.543L213.031 215.196C203.701 220.582 199.771 222.799 195.681 223.668C191.936 224.465 188.064 224.465 184.319 223.668C180.229 222.799 176.299 220.582 166.969 215.196L139.858 199.543C130.529 194.157 126.643 191.861 123.846 188.754C121.283 185.908 119.348 182.556 118.165 178.914C116.873 174.938 116.827 170.425 116.827 159.653V128.347C116.827 117.575 116.873 113.062 118.165 109.086C119.348 105.444 121.283 102.092 123.846 99.2458C126.643 96.1387 130.529 93.8432 139.858 88.4569L166.969 72.8042Z" fill="#00ACED" stroke="#00ACED" stroke-width="7.80702"/>
<path d="M177.507 102.027C182.058 99.4002 184.333 98.0865 186.752 97.5724C188.893 97.1174 191.105 97.1174 193.245 97.5724C195.664 98.0865 197.939 99.4002 202.49 102.027L220.102 112.196C224.653 114.823 226.928 116.137 228.583 117.975C230.047 119.601 231.153 121.517 231.829 123.598C232.593 125.95 232.593 128.577 232.593 133.831V154.168C232.593 159.423 232.593 162.05 231.829 164.402C231.153 166.483 230.047 168.399 228.583 170.025C226.928 171.863 224.653 173.177 220.102 175.804L202.49 185.972C197.939 188.6 195.664 189.913 193.245 190.427C191.105 190.882 188.893 190.882 186.752 190.427C184.333 189.913 182.058 188.6 177.507 185.972L159.895 175.804C155.345 173.177 153.069 171.863 151.414 170.025C149.95 168.399 148.844 166.483 148.168 164.402C147.404 162.05 147.404 159.423 147.404 154.168V133.831C147.404 128.577 147.404 125.95 148.168 123.598C148.844 121.517 149.95 119.601 151.414 117.975C153.069 116.137 155.345 114.823 159.895 112.196L177.507 102.027Z" fill="white"/>
<path d="M294.21 198.166C294.21 215.936 279.831 230.333 262.105 230.333C244.38 230.333 230.001 215.936 230.001 198.166C230.001 180.396 244.38 166 262.105 166C279.831 166 294.21 180.396 294.21 198.166Z" fill="white" stroke="#00ACED" stroke-width="6"/>
<rect x="271.017" y="204.529" width="22.9529" height="3.86205" rx="1.93103" transform="rotate(180 271.017 204.529)" fill="#B2E6FA"/>
<rect x="252.925" y="191.564" width="22.9529" height="3.86205" rx="1.93103" fill="#00ACED"/>
<path d="M264.536 207.265C264.536 209.032 264.536 209.916 264.897 210.362C265.21 210.75 265.684 210.973 266.183 210.965C266.757 210.957 267.436 210.391 268.794 209.261L273.6 205.26C275.3 203.846 276.149 203.139 276.238 202.521C276.314 201.986 276.12 201.448 275.719 201.085C275.255 200.667 274.15 200.667 271.939 200.667H267.133C266.224 200.667 265.77 200.667 265.422 200.844C265.117 201 264.869 201.248 264.713 201.554C264.536 201.901 264.536 202.355 264.536 203.264V207.265Z" fill="#B2E6FA"/>
<path d="M259.405 188.829C259.405 187.061 259.405 186.177 259.045 185.731C258.731 185.343 258.257 185.121 257.758 185.128C257.185 185.136 256.506 185.702 255.147 186.833L250.341 190.833C248.642 192.248 247.792 192.955 247.704 193.573C247.627 194.108 247.822 194.646 248.223 195.008C248.686 195.426 249.792 195.426 252.002 195.426H256.808C257.717 195.426 258.172 195.426 258.519 195.249C258.824 195.093 259.073 194.845 259.228 194.54C259.405 194.193 259.405 193.738 259.405 192.829V188.829Z" fill="#00ACED"/>
</svg>
