<svg width="584" height="468" viewBox="0 0 584 468" fill="none" xmlns="http://www.w3.org/2000/svg">
<rect width="584" height="468" rx="60" fill="#FFF8E6"/>
<path d="M430.187 63.1721C448.182 61.7727 465.767 68.9702 477.49 82.5329C486.49 92.946 488.842 106.65 489.899 118.437C491.001 130.726 491 146.73 491 166.052V166.052V300.251C491 311.999 491.001 322.135 490.31 330.483C489.582 339.295 487.973 348.059 483.625 356.492C477.137 369.073 466.786 379.302 454.054 385.712C445.519 390.009 436.65 391.599 427.733 392.319C419.284 393.001 409.027 393 397.137 393H178.866C166.976 393 156.718 393.001 148.27 392.319C139.353 391.599 130.484 390.009 121.949 385.712C109.217 379.302 98.8653 369.073 92.3779 356.492C88.0293 348.059 86.4208 339.295 85.6922 330.483C85.0019 322.135 85.0023 311.999 85.0027 300.25L85.0027 256.268C85.0027 255.588 85.002 254.913 85.0013 254.243L85.0013 254.243C84.9913 244.393 84.9825 235.712 87.1824 227.356C89.1141 220.018 92.2945 213.059 96.5877 206.776C101.477 199.62 108.074 193.886 115.559 187.38L115.565 187.375C116.072 186.934 116.582 186.491 117.097 186.043L178.568 132.505L179.155 131.994C185.364 126.585 190.978 121.695 195.999 117.978C201.397 113.981 207.541 110.222 215.107 108.153C226.116 105.141 237.791 105.504 248.587 109.194C256.006 111.73 261.898 115.863 267.031 120.188C271.805 124.211 277.097 129.44 282.95 135.224L288.228 140.44C295.19 147.32 299.465 151.519 302.915 154.413C304.522 155.761 305.574 156.499 306.248 156.911C306.569 157.107 306.78 157.215 306.897 157.27C307.01 157.322 307.072 157.342 307.072 157.342C309.337 158.069 311.777 158.069 314.042 157.342C314.042 157.342 314.104 157.322 314.216 157.27C314.334 157.215 314.545 157.107 314.865 156.911C315.54 156.499 316.591 155.761 318.198 154.413C321.648 151.519 325.923 147.32 332.885 140.44L360.869 112.788L360.869 112.788C374.695 99.1256 386.147 87.8089 395.72 79.8895C404.902 72.2932 416.371 64.2465 430.187 63.1721Z" fill="#FBBC05"/>
<circle cx="471" cy="369.2" r="50" fill="white"/>
<path d="M481.677 347.7C478.461 346.1 474.836 345.2 471 345.2C457.745 345.2 447 355.945 447 369.2C447 382.455 457.745 393.2 471 393.2C484.255 393.2 495 382.455 495 369.2C495 366.395 494.519 363.702 493.634 361.2" stroke="url(#paint0_angular_1183_16534)" stroke-width="15" stroke-linecap="round"/>
<defs>
<radialGradient id="paint0_angular_1183_16534" cx="0" cy="0" r="1" gradientUnits="userSpaceOnUse" gradientTransform="translate(471 369.2) rotate(-45) scale(21.9203)">
<stop stop-color="#FBBC05"/>
<stop offset="0.999816" stop-color="#FBBC05" stop-opacity="0"/>
</radialGradient>
</defs>
</svg>
