<svg width="616" height="464" viewBox="0 0 616 464" fill="none" xmlns="http://www.w3.org/2000/svg">
<g clip-path="url(#clip0_513_3733)">
<rect width="616" height="464" fill="#5A63FF"/>
<path fill-rule="evenodd" clip-rule="evenodd" d="M211.239 0H0V155H212V154.663C254.36 154.255 288.572 119.789 288.572 77.3333C288.572 34.8773 254.36 0.412066 212 0.00366743V0H211.239Z" fill="#FBBC05"/>
<path fill-rule="evenodd" clip-rule="evenodd" d="M191.427 309C189.047 309.221 186.636 309.333 184.199 309.333C141.489 309.333 106.866 274.71 106.866 232C106.866 189.29 141.489 154.667 184.199 154.667C186.637 154.667 189.048 154.779 191.428 155H616V309H191.427Z" fill="#44D244"/>
<path fill-rule="evenodd" clip-rule="evenodd" d="M0 309H495V309.339C536.984 309.839 570.866 344.268 570.866 386.667C570.866 429.065 536.984 463.495 495 463.995V464H494.158C494.13 464 494.102 464 494.073 464C494.045 464 494.017 464 493.989 464H0V309Z" fill="#757DFF"/>
<g clip-path="url(#clip1_513_3733)">
<path fill-rule="evenodd" clip-rule="evenodd" d="M192.602 51.5889L203.467 54.4986L205.896 45.447L211.328 46.9212L208.994 55.5989L213.426 56.7895L215.764 48.0172L221.291 49.4957L218.91 58.3153C218.91 58.3153 227.936 60.3138 230.059 67.6549C232.182 74.9959 225.391 78.8512 223.294 78.9973C223.294 78.9973 231.202 83.334 228.486 91.8656C225.77 100.397 217.431 101.923 208.659 99.9673L206.278 109.113L200.751 107.635L203.179 98.6306L198.795 97.4358L196.367 106.505L190.883 105.03L193.315 96.0045L182.162 92.9959L184.973 86.7552C184.973 86.7552 188.119 87.6148 189.31 87.8985C190.5 88.1822 191.265 86.9443 191.6 85.7065C191.936 84.4687 196.986 63.9543 197.463 62.2651C197.94 60.576 197.747 59.2565 195.744 58.7365C193.741 58.2164 191.016 57.4041 191.016 57.4041L192.602 51.5889ZM203.562 78.7566L200.553 90.718C200.553 90.718 215.472 96.1034 217.38 88.526C219.288 80.9486 203.562 78.7566 203.562 78.7566ZM204.946 73.0832L207.898 62.1233C207.898 62.1233 220.672 64.4099 219.099 70.5087C217.526 76.6076 209.996 74.2695 204.946 73.0832Z" fill="white"/>
</g>
<path fill-rule="evenodd" clip-rule="evenodd" d="M225.485 241.598C225.485 249.192 219.321 254.233 210.22 254.992V261.827H203.985V254.924C197.829 254.23 191.98 251.866 187.071 248.087L191.657 241.805C195.744 244.981 199.612 247.052 204.272 247.744V234.211C193.809 231.587 188.936 227.79 188.936 219.989C188.936 212.534 195.026 207.425 203.985 206.733V202.729H210.22V206.872C215.093 207.413 219.739 209.223 223.694 212.12L219.679 218.609C216.526 216.331 213.302 214.88 209.933 214.191V227.308C220.828 229.932 225.485 234.143 225.485 241.598ZM204.269 225.857V213.707C199.757 214.052 197.393 216.469 197.393 219.507C197.393 222.403 198.752 224.27 204.272 225.86L204.269 225.857ZM217.028 242.079C217.028 238.977 215.521 237.112 209.933 235.523V248.022C214.448 247.673 217.028 245.395 217.028 242.082V242.079Z" fill="white"/>
<path d="M479.37 354V378.392L499.986 387.605L479.37 354Z" fill="white" fill-opacity="0.602"/>
<path d="M479.369 354L458.75 387.605L479.369 378.392V354Z" fill="white"/>
<path d="M479.37 403.413V419.987L500 391.445L479.37 403.413Z" fill="white" fill-opacity="0.602"/>
<path d="M479.369 419.987V403.41L458.75 391.445L479.369 419.987Z" fill="white"/>
<path d="M479.37 399.576L499.986 387.605L479.37 378.398V399.576Z" fill="white" fill-opacity="0.2"/>
<path d="M458.75 387.605L479.369 399.576V378.398L458.75 387.605Z" fill="white" fill-opacity="0.602"/>
</g>
<defs>
<clipPath id="clip0_513_3733">
<rect width="616" height="464" rx="60" fill="white"/>
</clipPath>
<clipPath id="clip1_513_3733">
<rect width="94.5563" height="94.5563" fill="white" transform="translate(159 30)"/>
</clipPath>
</defs>
</svg>
