<svg width="37" height="37" viewBox="0 0 37 37" fill="none" xmlns="http://www.w3.org/2000/svg">
<path d="M17.4902 36.689C17.4476 36.6793 17.405 36.6638 17.3624 36.658C16.4558 36.5378 15.5396 36.4758 14.6466 36.2898C11.2974 35.5943 8.39184 34.0346 5.92015 31.6727C4.2814 30.1072 2.98744 28.2879 2.03635 26.2283C1.22278 24.4652 0.705585 22.6207 0.49832 20.689C0.457642 20.3189 0.422774 19.9489 0.384033 19.5788V17.7982C0.395656 17.7304 0.411152 17.6626 0.4189 17.5928C0.463453 17.1375 0.488634 16.6803 0.55062 16.2269C0.835368 14.1731 1.44361 12.2201 2.41214 10.3853C4.19617 6.99851 6.78796 4.41968 10.1856 2.66236C12.2698 1.5851 14.4878 0.959284 16.8277 0.757782C19.0612 0.565969 21.2578 0.773282 23.4079 1.40297C26.7048 2.36786 29.5077 4.13293 31.7935 6.69432C34.3988 9.61222 35.8904 13.03 36.2913 16.9205C36.4753 18.703 36.3843 20.4759 36.0279 22.2312C35.3364 25.6393 33.7848 28.6037 31.3925 31.1225C29.8177 32.781 27.9833 34.0869 25.9048 35.044C24.1479 35.852 22.3077 36.3673 20.3842 36.5746C20.0142 36.6134 19.6442 36.6502 19.2743 36.689H17.4902ZM12.4558 24.9205C14.4684 22.9229 16.4926 20.9118 18.542 18.8793C20.5663 20.9002 22.5711 22.9036 24.5876 24.9166C25.3431 24.1436 26.1043 23.3666 26.8772 22.5761C25.5174 21.1249 24.1401 19.6524 22.7222 18.1412H28.7794V14.6691H22.5808C24.0724 13.2412 25.5271 11.85 26.9934 10.4453C26.1779 9.65872 25.3779 8.88759 24.5702 8.11065C23.1542 9.44559 21.7518 10.7709 20.3125 12.1271V6.12469H16.5914V12.0341C15.1735 10.705 13.7846 9.40297 12.3861 8.09127C11.5493 8.86627 10.7299 9.62578 9.90081 10.3911C10.9759 11.4219 12.0374 12.439 13.0989 13.4562C13.4611 13.805 13.8272 14.1499 14.1875 14.5006C14.2224 14.5335 14.2592 14.611 14.2437 14.6381C14.2185 14.6827 14.1546 14.7118 14.1004 14.7311C14.0597 14.7447 14.0113 14.735 13.9667 14.735C12.0974 14.735 10.2262 14.735 8.35698 14.735H8.13809V18.2187H14.1488C12.7832 19.7047 11.4505 21.152 10.1178 22.6052C10.8984 23.3782 11.6655 24.1397 12.4558 24.9224V24.9205ZM16.6999 31.448H20.266V23.2349H16.6999V31.448Z" fill="#C6C6C6"/>
</svg>
