<svg width="584" height="468" viewBox="0 0 584 468" fill="none" xmlns="http://www.w3.org/2000/svg">
<rect width="584" height="468" rx="60" fill="#B2E6FA"/>
<circle cx="232" cy="182.8" r="130" fill="#00ACED"/>
<circle cx="351" cy="280.8" r="118" fill="white" stroke="#00ACED" stroke-width="24"/>
<path fill-rule="evenodd" clip-rule="evenodd" d="M339.669 234.817C341 236.467 341 239.731 341 246.259V256.393H394.862C398.804 256.393 402 259.589 402 263.532C402 267.474 398.804 270.67 394.862 270.67H324.139C324.135 270.67 324.132 270.67 324.128 270.67H313.575C305.393 270.67 301.301 270.67 299.588 269.123C298.105 267.784 297.386 265.794 297.671 263.815C298 261.531 301.146 258.916 307.44 253.687L307.44 253.687L325.265 238.875C330.286 234.703 332.796 232.617 334.916 232.587C336.759 232.561 338.511 233.384 339.669 234.817ZM360 314.458V304.323H306.139C302.196 304.323 299 301.127 299 297.185C299 293.242 302.196 290.046 306.139 290.046H376.862L376.872 290.046H387.426C395.608 290.046 399.699 290.046 401.412 291.593C402.896 292.933 403.615 294.923 403.33 296.901C403.001 299.186 399.854 301.801 393.561 307.03L375.736 321.842C370.715 326.013 368.204 328.099 366.085 328.129C364.242 328.155 362.49 327.333 361.332 325.899C360 324.25 360 320.986 360 314.458Z" fill="#00ACED"/>
</svg>
