<svg width="39" height="37" viewBox="0 0 39 37" fill="none" xmlns="http://www.w3.org/2000/svg">
<path d="M0.621582 18.7112C0.374115 9.2088 8.70829 0.676847 19.2906 0.688978C29.6465 0.701109 38.0352 8.70335 38.0562 18.6627C38.073 28.6058 29.6884 36.689 19.3452 36.689C8.95995 36.689 0.608999 28.6746 0.621582 18.7112ZM9.71913 25.3872C16.9921 29.552 26.6559 24.8049 27.5242 16.6045C27.6668 15.2701 27.9562 14.146 29.0719 13.2928C29.139 13.2402 29.1138 13.0745 29.1348 12.9248L28.1491 12.6944C28.4385 12.201 28.7195 11.7199 29.2606 10.7979C27.4948 11.8654 26.3455 11.5177 24.9991 10.8586C22.5496 9.65763 19.6304 11.2832 19.148 13.9074C19.0558 14.421 19.0222 14.9426 18.9551 15.5208C15.4151 15.3631 12.7055 13.7376 10.2812 11.4489C9.16127 13.313 9.86592 14.8051 10.7803 16.281L9.70655 16.6894C9.86174 18.4039 10.8935 19.4633 12.4413 20.272L11.3172 20.64C11.8415 22.3626 13.3514 22.868 14.7649 23.8506C13.083 24.3641 11.4053 24.8777 9.71913 25.3912V25.3872Z" fill="#C6C6C6"/>
</svg>
