<svg width="584" height="469" viewBox="0 0 584 469" fill="none" xmlns="http://www.w3.org/2000/svg">
<g clip-path="url(#clip0_1652_20685)">
<path d="M524 0.608643H60C26.8629 0.608643 0 27.4716 0 60.6086V408.609C0 441.746 26.8629 468.609 60 468.609H524C557.137 468.609 584 441.746 584 408.609V60.6086C584 27.4716 557.137 0.608643 524 0.608643Z" fill="#E4E5FF"/>
<path d="M543.5 348.093H307.5C301.159 348.093 296 342.934 296 336.593V308.593C296 302.252 301.159 297.093 307.5 297.093H543.5C549.841 297.093 555 302.252 555 308.593V336.593C555 342.934 549.841 348.093 543.5 348.093Z" fill="#757DFF"/>
<path d="M179.65 133.803C181.92 135.111 183.054 137.083 183.054 139.723C183.054 141.918 182.277 143.719 180.723 145.124C179.169 146.53 177.257 147.233 174.988 147.233H164V121.333H174.212C176.432 121.333 178.3 122.018 179.817 123.387C181.334 124.756 182.092 126.501 182.092 128.622C182.092 130.768 181.278 132.495 179.65 133.803ZM174.212 126.107H169.106V131.805H174.212C175.001 131.805 175.66 131.534 176.191 130.991C176.721 130.449 176.986 129.77 176.986 128.956C176.986 128.142 176.727 127.464 176.21 126.921C175.691 126.379 175.025 126.107 174.212 126.107ZM174.988 142.461C175.851 142.461 176.567 142.172 177.134 141.592C177.701 141.013 177.985 140.279 177.985 139.391C177.985 138.528 177.702 137.806 177.134 137.226C176.567 136.647 175.851 136.357 174.988 136.357H169.105V142.461H174.988Z" fill="#5A63FF"/>
<path d="M192.415 142.35H203.33V147.234H187.309V121.334H203.145V126.219H192.415V131.732H202.221V136.542H192.415V142.352V142.35Z" fill="#5A63FF"/>
<path d="M216.687 147.752C214.122 147.752 211.963 147.179 210.212 146.032C208.46 144.885 207.227 143.325 206.512 141.351L210.878 138.798C211.889 141.438 213.874 142.757 216.835 142.757C218.265 142.757 219.314 142.497 219.98 141.98C220.646 141.461 220.979 140.809 220.979 140.019C220.979 139.107 220.572 138.397 219.758 137.891C218.944 137.386 217.487 136.836 215.392 136.245C214.232 135.9 213.251 135.555 212.451 135.209C211.649 134.864 210.847 134.401 210.046 133.822C209.244 133.242 208.634 132.509 208.215 131.62C207.795 130.732 207.586 129.696 207.586 128.513C207.586 126.169 208.418 124.301 210.083 122.908C211.748 121.515 213.752 120.817 216.096 120.817C218.192 120.817 220.036 121.329 221.627 122.352C223.218 123.376 224.457 124.8 225.346 126.625L221.054 129.104C220.018 126.884 218.365 125.774 216.096 125.774C215.034 125.774 214.202 126.014 213.598 126.496C212.994 126.976 212.692 127.6 212.692 128.364C212.692 129.178 213.031 129.839 213.71 130.343C214.388 130.849 215.689 131.398 217.613 131.989C218.402 132.236 219.001 132.427 219.408 132.562C219.814 132.699 220.37 132.908 221.073 133.192C221.776 133.475 222.318 133.741 222.701 133.987C223.083 134.234 223.52 134.567 224.014 134.986C224.507 135.406 224.883 135.837 225.142 136.281C225.402 136.725 225.623 137.261 225.808 137.89C225.994 138.519 226.086 139.203 226.086 139.944C226.086 142.337 225.216 144.236 223.477 145.642C221.739 147.048 219.475 147.75 216.688 147.75L216.687 147.752Z" fill="#5A63FF"/>
<path d="M246.546 121.334V126.219H239.553V147.235H234.447V126.219H227.492V121.334H246.546Z" fill="#5A63FF"/>
<path d="M277.517 147.234L275.871 142.572H265.231L263.677 147.234H258.164L267.228 121.334H273.555L282.693 147.234H277.516H277.517ZM266.894 137.799H274.184L270.447 127.217L266.894 137.799Z" fill="#5A63FF"/>
<path d="M286.135 121.334H291.24V147.234H286.135V121.334Z" fill="#5A63FF"/>
<path d="M311.184 147.234L305.949 138.243H302.082V147.234H296.977V121.334H307.336C309.729 121.334 311.764 122.173 313.441 123.851C315.118 125.529 315.957 127.551 315.957 129.918C315.957 131.522 315.501 133.008 314.588 134.377C313.676 135.746 312.467 136.775 310.963 137.466L316.697 147.235H311.184V147.234ZM302.081 126.107V133.766H307.335C308.297 133.766 309.123 133.39 309.814 132.637C310.504 131.885 310.85 130.979 310.85 129.917C310.85 128.855 310.504 127.956 309.814 127.217C309.123 126.477 308.296 126.107 307.335 126.107H302.081Z" fill="#5A63FF"/>
<path d="M330.905 121.334C334.457 121.334 337.423 122.58 339.803 125.071C342.183 127.563 343.373 130.633 343.373 134.284C343.373 137.935 342.183 141.006 339.803 143.497C337.422 145.989 334.456 147.234 330.905 147.234H320.619V121.334H330.905ZM330.905 142.351C333.149 142.351 334.974 141.605 336.381 140.113C337.788 138.621 338.49 136.677 338.49 134.285C338.49 131.893 337.787 129.95 336.381 128.458C334.975 126.966 333.15 126.22 330.905 126.22H325.724V142.352L330.905 142.351Z" fill="#5A63FF"/>
<path d="M362.133 147.234L356.898 138.243H353.031V147.234H347.926V121.334H358.285C360.678 121.334 362.713 122.173 364.39 123.851C366.067 125.529 366.906 127.551 366.906 129.918C366.906 131.522 366.45 133.008 365.537 134.377C364.625 135.746 363.416 136.775 361.912 137.466L367.646 147.235H362.133V147.234ZM353.03 126.107V133.766H358.284C359.246 133.766 360.072 133.39 360.763 132.637C361.453 131.885 361.799 130.979 361.799 129.917C361.799 128.855 361.453 127.956 360.763 127.217C360.072 126.477 359.245 126.107 358.284 126.107H353.03Z" fill="#5A63FF"/>
<path d="M393.065 143.848C390.45 146.451 387.268 147.751 383.519 147.751C379.77 147.751 376.593 146.45 373.991 143.848C371.388 141.246 370.088 138.058 370.088 134.284C370.088 130.51 371.389 127.322 373.991 124.72C376.594 122.118 379.769 120.817 383.519 120.817C387.269 120.817 390.45 122.119 393.065 124.72C395.679 127.323 396.987 130.511 396.987 134.284C396.987 138.057 395.679 141.247 393.065 143.848ZM377.562 140.37C379.165 141.961 381.151 142.757 383.519 142.757C385.887 142.757 387.872 141.961 389.476 140.37C391.079 138.779 391.88 136.75 391.88 134.283C391.88 131.816 391.078 129.782 389.476 128.179C387.872 126.575 385.886 125.774 383.519 125.774C381.152 125.774 379.165 126.576 377.562 128.179C375.958 129.783 375.157 131.818 375.157 134.283C375.157 136.748 375.958 138.779 377.562 140.37Z" fill="#5A63FF"/>
<path d="M411.158 121.334C413.649 121.334 415.747 122.173 417.448 123.851C419.15 125.529 420.002 127.587 420.002 130.03C420.002 132.473 419.15 134.532 417.448 136.209C415.747 137.887 413.649 138.726 411.158 138.726H406.607V147.236H401.502V121.336H411.158V121.334ZM411.158 133.951C412.244 133.951 413.143 133.575 413.859 132.823C414.575 132.07 414.932 131.139 414.932 130.029C414.932 128.895 414.575 127.957 413.859 127.217C413.143 126.477 412.244 126.107 411.158 126.107H406.607V133.951H411.158Z" fill="#5A63FF"/>
<path d="M70.7226 316.602H73.1886V329.202H70.7226V323.982H66.0426V329.202H63.5586V316.602H66.0426V321.606H70.7226V316.602Z" fill="#5A63FF"/>
<path d="M86.4017 327.554C85.1297 328.821 83.5817 329.453 81.7567 329.453C79.9317 329.453 78.3877 328.82 77.1217 327.554C75.8547 326.288 75.2227 324.738 75.2227 322.902C75.2227 321.066 75.8557 319.515 77.1217 318.249C78.3877 316.983 79.9327 316.351 81.7567 316.351C83.5807 316.351 85.1287 316.984 86.4017 318.249C87.6727 319.516 88.3087 321.066 88.3087 322.902C88.3087 324.738 87.6727 326.289 86.4017 327.554ZM78.8597 325.863C79.6387 326.636 80.6047 327.024 81.7567 327.024C82.9087 327.024 83.8747 326.636 84.6547 325.863C85.4337 325.089 85.8247 324.102 85.8247 322.902C85.8247 321.702 85.4337 320.712 84.6547 319.932C83.8757 319.152 82.9087 318.761 81.7567 318.761C80.6047 318.761 79.6387 319.152 78.8597 319.932C78.0797 320.711 77.6887 321.702 77.6887 322.902C77.6887 324.102 78.0797 325.089 78.8597 325.863Z" fill="#5A63FF"/>
<path d="M92.2022 329.201L88.8652 316.601H91.4642L93.8882 325.943L96.5162 316.601H98.6672L101.307 325.918L103.698 316.601H106.091L102.78 329.201H99.9552L97.5672 320.841L95.1972 329.201H92.2022Z" fill="#5A63FF"/>
<path d="M121.123 316.602V318.978H117.721V329.202H115.238V318.978H111.854V316.602H121.123Z" fill="#5A63FF"/>
<path d="M132.659 327.554C131.387 328.821 129.839 329.453 128.014 329.453C126.189 329.453 124.645 328.82 123.379 327.554C122.112 326.288 121.48 324.738 121.48 322.902C121.48 321.066 122.113 319.515 123.379 318.249C124.645 316.983 126.19 316.351 128.014 316.351C129.838 316.351 131.386 316.984 132.659 318.249C133.93 319.516 134.566 321.066 134.566 322.902C134.566 324.738 133.93 326.289 132.659 327.554ZM125.117 325.863C125.896 326.636 126.862 327.024 128.014 327.024C129.166 327.024 130.132 326.636 130.912 325.863C131.691 325.089 132.082 324.102 132.082 322.902C132.082 321.702 131.691 320.712 130.912 319.932C130.133 319.152 129.166 318.761 128.014 318.761C126.862 318.761 125.896 319.152 125.117 319.932C124.337 320.711 123.946 321.702 123.946 322.902C123.946 324.102 124.337 325.089 125.117 325.863Z" fill="#5A63FF"/>
<path d="M143.838 326.825H149.148V329.201H141.354V316.601H149.058V318.977H143.838V321.659H148.608V323.999H143.838V326.825Z" fill="#5A63FF"/>
<path d="M159.645 329.201L158.843 326.933H153.667L152.911 329.201H150.229L154.639 316.601H157.716L162.161 329.201H159.643H159.645ZM154.477 324.611H158.023L156.205 319.463L154.477 324.611Z" fill="#5A63FF"/>
<path d="M170.568 329.201L168.021 324.827H166.14V329.201H163.656V316.601H168.696C169.86 316.601 170.85 317.008 171.666 317.825C172.482 318.641 172.891 319.625 172.891 320.777C172.891 321.557 172.668 322.28 172.225 322.946C171.781 323.612 171.193 324.113 170.461 324.449L173.25 329.201H170.568ZM166.14 318.923V322.65H168.696C169.164 322.65 169.566 322.467 169.902 322.101C170.238 321.735 170.406 321.293 170.406 320.778C170.406 320.263 170.238 319.824 169.902 319.464C169.566 319.105 169.164 318.924 168.696 318.924H166.14V318.923Z" fill="#5A63FF"/>
<path d="M182.269 316.602H184.753V329.202H182.862L177.463 321.498V329.202H174.979V316.602H176.867L182.269 324.277V316.602Z" fill="#5A63FF"/>
<path d="M196.831 316.602C198.043 316.602 199.062 317.009 199.891 317.826C200.72 318.643 201.133 319.644 201.133 320.832C201.133 322.02 200.719 323.022 199.891 323.838C199.063 324.654 198.043 325.063 196.831 325.063H194.617V329.203H192.133V316.603L196.831 316.602ZM196.831 322.74C197.358 322.74 197.797 322.557 198.144 322.191C198.493 321.825 198.666 321.372 198.666 320.832C198.666 320.28 198.492 319.824 198.144 319.464C197.796 319.105 197.358 318.924 196.831 318.924H194.617V322.74H196.831Z" fill="#5A63FF"/>
<path d="M213.534 327.554C212.262 328.821 210.714 329.453 208.889 329.453C207.064 329.453 205.52 328.82 204.254 327.554C202.987 326.288 202.355 324.738 202.355 322.902C202.355 321.066 202.988 319.515 204.254 318.249C205.52 316.983 207.065 316.351 208.889 316.351C210.713 316.351 212.261 316.984 213.534 318.249C214.805 319.516 215.441 321.066 215.441 322.902C215.441 324.738 214.805 326.289 213.534 327.554ZM205.992 325.863C206.771 326.636 207.737 327.024 208.889 327.024C210.041 327.024 211.007 326.636 211.787 325.863C212.566 325.089 212.957 324.102 212.957 322.902C212.957 321.702 212.566 320.712 211.787 319.932C211.008 319.152 210.041 318.761 208.889 318.761C207.737 318.761 206.771 319.152 205.992 319.932C205.212 320.711 204.821 321.702 204.821 322.902C204.821 324.102 205.212 325.089 205.992 325.863Z" fill="#5A63FF"/>
<path d="M217.457 316.602H219.941V329.202H217.457V316.602Z" fill="#5A63FF"/>
<path d="M229.843 316.602H232.327V329.202H230.436L225.037 321.498V329.202H222.553V316.602H224.441L229.843 324.277V316.602Z" fill="#5A63FF"/>
<path d="M243.271 316.602V318.978H239.869V329.202H237.386V318.978H234.002V316.602H243.272H243.271Z" fill="#5A63FF"/>
<path d="M248.869 329.453C247.621 329.453 246.571 329.174 245.72 328.616C244.867 328.058 244.268 327.3 243.92 326.339L246.044 325.098C246.535 326.382 247.501 327.024 248.941 327.024C249.637 327.024 250.147 326.898 250.471 326.646C250.795 326.394 250.956 326.076 250.956 325.692C250.956 325.248 250.759 324.903 250.362 324.657C249.966 324.411 249.258 324.144 248.238 323.856C247.674 323.688 247.197 323.52 246.807 323.352C246.416 323.184 246.027 322.958 245.637 322.676C245.246 322.395 244.949 322.037 244.745 321.606C244.541 321.173 244.439 320.669 244.439 320.093C244.439 318.953 244.844 318.044 245.654 317.366C246.465 316.688 247.439 316.349 248.579 316.349C249.6 316.349 250.496 316.598 251.27 317.095C252.044 317.594 252.647 318.286 253.079 319.174L250.991 320.38C250.487 319.3 249.683 318.76 248.579 318.76C248.063 318.76 247.658 318.877 247.364 319.112C247.07 319.345 246.924 319.649 246.924 320.021C246.924 320.417 247.088 320.738 247.419 320.984C247.748 321.23 248.382 321.497 249.317 321.785C249.701 321.905 249.992 321.998 250.19 322.064C250.388 322.129 250.658 322.232 251.001 322.37C251.343 322.508 251.606 322.638 251.793 322.757C251.979 322.877 252.191 323.039 252.432 323.243C252.673 323.447 252.855 323.657 252.981 323.873C253.107 324.089 253.215 324.351 253.305 324.656C253.395 324.961 253.44 325.295 253.44 325.655C253.44 326.819 253.017 327.743 252.171 328.426C251.324 329.111 250.224 329.452 248.867 329.452L248.869 329.453Z" fill="#5A63FF"/>
<path d="M366.386 328.893L363.049 316.293H365.648L368.072 325.635L370.7 316.293H372.851L375.491 325.61L377.882 316.293H380.275L376.964 328.893H374.139L371.751 320.533L369.381 328.893H366.387H366.386Z" fill="white"/>
<path d="M384.683 326.517H389.993V328.893H382.199V316.293H389.903V318.669H384.683V321.351H389.453V323.691H384.683V326.517Z" fill="white"/>
<path d="M394.496 326.517H399.806V328.893H392.012V316.293H399.716V318.669H394.496V321.351H399.266V323.691H394.496V326.517Z" fill="white"/>
<path d="M411.665 328.893H408.804L404.304 322.991V328.893H401.82V316.293H404.304V321.845L408.623 316.293H411.485L406.823 322.412L411.665 328.892V328.893Z" fill="white"/>
<path d="M415.644 326.517H420.45V328.893H413.16V316.293H415.644V326.517Z" fill="white"/>
<path d="M430.457 316.293L426.138 323.979V328.893H423.672V323.98L419.369 316.293H422.178L424.907 321.538L427.649 316.293H430.457Z" fill="white"/>
<path d="M445.039 316.293V318.669H441.637V328.893H439.154V318.669H435.77V316.293H445.04H445.039Z" fill="white"/>
<path d="M454.059 328.893L453.257 326.625H448.081L447.325 328.893H444.643L449.053 316.293H452.13L456.575 328.893H454.057H454.059ZM448.891 324.303H452.437L450.619 319.155L448.891 324.303Z" fill="white"/>
<path d="M462.084 329.144C460.836 329.144 459.786 328.865 458.935 328.307C458.082 327.749 457.483 326.991 457.135 326.03L459.259 324.789C459.75 326.073 460.716 326.715 462.156 326.715C462.852 326.715 463.362 326.589 463.686 326.337C464.01 326.085 464.171 325.767 464.171 325.383C464.171 324.939 463.974 324.594 463.577 324.348C463.181 324.102 462.473 323.835 461.453 323.547C460.889 323.379 460.412 323.211 460.022 323.043C459.631 322.875 459.242 322.649 458.852 322.367C458.461 322.086 458.164 321.728 457.96 321.297C457.756 320.864 457.654 320.36 457.654 319.784C457.654 318.644 458.059 317.735 458.869 317.057C459.68 316.379 460.654 316.04 461.794 316.04C462.815 316.04 463.711 316.289 464.485 316.786C465.259 317.285 465.862 317.977 466.294 318.865L464.206 320.071C463.702 318.991 462.898 318.451 461.794 318.451C461.278 318.451 460.873 318.568 460.579 318.803C460.285 319.036 460.139 319.34 460.139 319.712C460.139 320.108 460.303 320.429 460.634 320.675C460.963 320.921 461.597 321.188 462.532 321.476C462.916 321.596 463.207 321.689 463.405 321.755C463.603 321.82 463.873 321.923 464.216 322.061C464.558 322.199 464.821 322.329 465.008 322.448C465.194 322.568 465.406 322.73 465.647 322.934C465.888 323.138 466.07 323.348 466.196 323.564C466.322 323.78 466.43 324.042 466.52 324.347C466.61 324.652 466.655 324.986 466.655 325.346C466.655 326.51 466.232 327.434 465.386 328.117C464.539 328.802 463.439 329.143 462.082 329.143L462.084 329.144Z" fill="white"/>
<path d="M478.302 328.893H475.441L470.941 322.991V328.893H468.457V316.293H470.941V321.845L475.26 316.293H478.122L473.46 322.412L478.302 328.892V328.893Z" fill="white"/>
<path d="M483.379 329.144C482.131 329.144 481.081 328.865 480.23 328.307C479.377 327.749 478.778 326.991 478.43 326.03L480.554 324.789C481.045 326.073 482.011 326.715 483.451 326.715C484.147 326.715 484.657 326.589 484.981 326.337C485.305 326.085 485.466 325.767 485.466 325.383C485.466 324.939 485.269 324.594 484.872 324.348C484.476 324.102 483.768 323.835 482.748 323.547C482.184 323.379 481.707 323.211 481.317 323.043C480.926 322.875 480.537 322.649 480.147 322.367C479.756 322.086 479.459 321.728 479.255 321.297C479.051 320.864 478.949 320.36 478.949 319.784C478.949 318.644 479.354 317.735 480.164 317.057C480.975 316.379 481.949 316.04 483.089 316.04C484.11 316.04 485.006 316.289 485.78 316.786C486.554 317.285 487.157 317.977 487.589 318.865L485.501 320.071C484.997 318.991 484.193 318.451 483.089 318.451C482.573 318.451 482.168 318.568 481.874 318.803C481.58 319.036 481.434 319.34 481.434 319.712C481.434 320.108 481.598 320.429 481.929 320.675C482.258 320.921 482.892 321.188 483.827 321.476C484.211 321.596 484.502 321.689 484.7 321.755C484.898 321.82 485.168 321.923 485.511 322.061C485.853 322.199 486.116 322.329 486.303 322.448C486.489 322.568 486.701 322.73 486.942 322.934C487.183 323.138 487.365 323.348 487.491 323.564C487.617 323.78 487.725 324.042 487.815 324.347C487.905 324.652 487.95 324.986 487.95 325.346C487.95 326.51 487.527 327.434 486.681 328.117C485.834 328.802 484.734 329.143 483.377 329.143L483.379 329.144Z" fill="white"/>
<path d="M276.5 348.402H40.5C34.159 348.402 29 343.243 29 336.902V308.902C29 302.561 34.159 297.402 40.5 297.402H276.5C282.841 297.402 288 302.561 288 308.902V336.902C288 343.243 282.841 348.402 276.5 348.402ZM40.5 300.402C35.813 300.402 32 304.215 32 308.902V336.902C32 341.589 35.813 345.402 40.5 345.402H276.5C281.187 345.402 285 341.589 285 336.902V308.902C285 304.215 281.187 300.402 276.5 300.402H40.5Z" fill="#757DFF"/>
<path d="M68.7615 176.252C67.7165 176.252 66.8235 176.007 66.0815 175.516C65.3395 175.026 64.8195 174.354 64.5215 173.5L65.8015 172.764C66.2395 174.119 67.2365 174.796 68.7935 174.796C69.5615 174.796 70.1475 174.639 70.5535 174.324C70.9585 174.009 71.1615 173.591 71.1615 173.067C71.1615 172.534 70.9585 172.133 70.5535 171.867C70.1485 171.601 69.4705 171.318 68.5215 171.019C68.0565 170.859 67.7005 170.737 67.4525 170.651C67.2045 170.566 66.8975 170.43 66.5295 170.244C66.1615 170.058 65.8865 169.865 65.7055 169.668C65.5245 169.471 65.3615 169.212 65.2175 168.892C65.0735 168.573 65.0015 168.209 65.0015 167.804C65.0015 166.833 65.3425 166.063 66.0255 165.492C66.7085 164.921 67.5405 164.636 68.5215 164.636C69.4065 164.636 70.1775 164.861 70.8335 165.308C71.4895 165.756 71.9825 166.348 72.3135 167.084L71.0655 167.804C70.5855 166.653 69.7375 166.076 68.5215 166.076C67.9135 166.076 67.4225 166.225 67.0495 166.523C66.6755 166.822 66.4895 167.227 66.4895 167.739C66.4895 168.229 66.6655 168.602 67.0175 168.858C67.3695 169.114 67.9775 169.38 68.8425 169.657C69.1455 169.764 69.3625 169.842 69.4925 169.888C69.6235 169.934 69.8255 170.005 70.0975 170.102C70.3695 170.199 70.5705 170.279 70.6985 170.343C70.8265 170.406 70.9995 170.497 71.2185 170.615C71.4365 170.732 71.5995 170.844 71.7055 170.951C71.8115 171.058 71.9375 171.189 72.0815 171.344C72.2255 171.499 72.3285 171.656 72.3935 171.818C72.4575 171.978 72.5135 172.162 72.5615 172.371C72.6095 172.579 72.6335 172.801 72.6335 173.036C72.6335 174.017 72.2765 174.799 71.5615 175.38C70.8465 175.962 69.9135 176.252 68.7615 176.252Z" fill="#5A63FF"/>
<path d="M75.8185 172.684C75.9565 173.399 76.2845 173.954 76.8025 174.348C77.3195 174.744 77.9565 174.941 78.7145 174.941C79.7705 174.941 80.5385 174.551 81.0185 173.772L82.2025 174.445C81.4235 175.65 80.2505 176.253 78.6825 176.253C77.4125 176.253 76.3815 175.856 75.5865 175.061C74.7925 174.267 74.3945 173.261 74.3945 172.045C74.3945 170.84 74.7835 169.837 75.5625 169.037C76.3415 168.237 77.3495 167.837 78.5865 167.837C79.7595 167.837 80.7175 168.25 81.4585 169.077C82.1995 169.903 82.5705 170.898 82.5705 172.06C82.5705 172.263 82.5545 172.471 82.5225 172.684H75.8185ZM78.5865 169.148C77.8395 169.148 77.2215 169.359 76.7305 169.781C76.2395 170.202 75.9365 170.764 75.8185 171.469H81.1625C81.0445 170.712 80.7465 170.136 80.2665 169.741C79.7865 169.346 79.2265 169.148 78.5865 169.148Z" fill="#5A63FF"/>
<path d="M91.1775 168.044H92.5695V176.044H91.1775V174.668C90.4835 175.724 89.4755 176.252 88.1535 176.252C87.0335 176.252 86.0785 175.844 85.2895 175.028C84.4995 174.212 84.1055 173.217 84.1055 172.044C84.1055 170.871 84.5005 169.876 85.2895 169.06C86.0785 168.245 87.0335 167.836 88.1535 167.836C89.4765 167.836 90.4845 168.364 91.1775 169.42V168.044ZM88.3295 174.908C89.1405 174.908 89.8175 174.634 90.3615 174.084C90.9055 173.535 91.1775 172.855 91.1775 172.044C91.1775 171.233 90.9055 170.554 90.3615 170.004C89.8175 169.455 89.1405 169.18 88.3295 169.18C87.5295 169.18 86.8575 169.455 86.3135 170.004C85.7695 170.554 85.4975 171.233 85.4975 172.044C85.4975 172.855 85.7695 173.535 86.3135 174.084C86.8575 174.634 87.5295 174.908 88.3295 174.908Z" fill="#5A63FF"/>
<path d="M96.2653 170.181C96.2653 170.483 96.4223 170.726 96.7363 170.908C97.0503 171.091 97.4243 171.246 97.8603 171.374C98.2953 171.502 98.7323 171.63 99.1723 171.759C99.6113 171.889 99.9843 172.131 100.289 172.486C100.594 172.841 100.746 173.297 100.746 173.853C100.746 174.579 100.466 175.161 99.9063 175.597C99.3463 176.035 98.6293 176.253 97.7543 176.253C96.9753 176.253 96.3083 176.082 95.7543 175.741C95.1993 175.399 94.8043 174.946 94.5703 174.381L95.7703 173.693C95.8983 174.077 96.1383 174.381 96.4903 174.604C96.8423 174.829 97.2633 174.941 97.7543 174.941C98.2123 174.941 98.5913 174.853 98.8903 174.677C99.1893 174.501 99.3383 174.227 99.3383 173.854C99.3383 173.545 99.1833 173.298 98.8733 173.112C98.5633 172.926 98.1913 172.767 97.7573 172.636C97.3223 172.505 96.8853 172.374 96.4453 172.242C96.0053 172.11 95.6313 171.873 95.3213 171.532C95.0113 171.19 94.8573 170.754 94.8573 170.22C94.8573 169.527 95.1263 168.956 95.6653 168.508C96.2043 168.06 96.8783 167.836 97.6893 167.836C98.3393 167.836 98.9183 167.982 99.4253 168.276C99.9313 168.569 100.313 168.977 100.569 169.5L99.4013 170.156C99.1133 169.473 98.5423 169.132 97.6893 169.132C97.2943 169.132 96.9583 169.224 96.6813 169.405C96.4043 169.588 96.2653 169.846 96.2653 170.18V170.181Z" fill="#5A63FF"/>
<path d="M109.323 175.036C108.501 175.847 107.504 176.252 106.331 176.252C105.158 176.252 104.163 175.847 103.347 175.036C102.531 174.225 102.123 173.227 102.123 172.044C102.123 170.861 102.531 169.862 103.347 169.052C104.163 168.242 105.158 167.836 106.331 167.836C107.504 167.836 108.501 168.241 109.323 169.052C110.144 169.863 110.555 170.861 110.555 172.044C110.555 173.227 110.144 174.226 109.323 175.036ZM106.331 174.891C107.131 174.891 107.803 174.62 108.347 174.076C108.891 173.532 109.163 172.854 109.163 172.044C109.163 171.234 108.891 170.556 108.347 170.012C107.803 169.468 107.131 169.197 106.331 169.197C105.541 169.197 104.875 169.468 104.331 170.012C103.787 170.556 103.515 171.234 103.515 172.044C103.515 172.854 103.787 173.532 104.331 174.076C104.875 174.62 105.541 174.891 106.331 174.891Z" fill="#5A63FF"/>
<path d="M116.588 167.836C117.526 167.836 118.278 168.132 118.844 168.724C119.409 169.317 119.692 170.12 119.692 171.132V176.044H118.3V171.212C118.3 170.562 118.124 170.058 117.772 169.7C117.42 169.342 116.935 169.164 116.316 169.164C115.623 169.164 115.063 169.38 114.636 169.811C114.209 170.244 113.996 170.908 113.996 171.803V176.043H112.604V168.043H113.996V169.195C114.561 168.288 115.425 167.835 116.588 167.835V167.836Z" fill="#5A63FF"/>
<path d="M128.538 164.844H129.818V176.044H128.346V166.444L125.962 167.147L125.594 165.868L128.538 164.844Z" fill="#5A63FF"/>
<path d="M146.348 168.044H147.653L145.323 176.044H143.9L141.991 170.045L140.095 176.044H138.606L136.252 168.044H137.71L139.468 174.123L141.356 168.044H142.729L144.613 174.125L146.349 168.044H146.348Z" fill="#5A63FF"/>
<path d="M155.946 168.044H157.339V176.044H155.946V174.668C155.253 175.724 154.245 176.252 152.923 176.252C151.803 176.252 150.848 175.844 150.059 175.028C149.27 174.212 148.875 173.217 148.875 172.044C148.875 170.871 149.27 169.876 150.059 169.06C150.848 168.245 151.803 167.836 152.923 167.836C154.245 167.836 155.253 168.364 155.946 169.42V168.044ZM153.098 174.908C153.909 174.908 154.586 174.634 155.13 174.084C155.674 173.535 155.945 172.855 155.945 172.044C155.945 171.233 155.674 170.554 155.13 170.004C154.586 169.455 153.908 169.18 153.098 169.18C152.298 169.18 151.626 169.455 151.082 170.004C150.538 170.554 150.266 171.233 150.266 172.044C150.266 172.855 150.538 173.535 151.082 174.084C151.626 174.634 152.298 174.908 153.098 174.908Z" fill="#5A63FF"/>
<path d="M161.036 170.181C161.036 170.483 161.193 170.726 161.508 170.908C161.821 171.091 162.196 171.246 162.631 171.374C163.066 171.502 163.503 171.63 163.943 171.759C164.382 171.889 164.755 172.131 165.059 172.486C165.365 172.841 165.517 173.297 165.517 173.853C165.517 174.579 165.237 175.161 164.677 175.597C164.116 176.035 163.399 176.253 162.525 176.253C161.746 176.253 161.08 176.082 160.525 175.741C159.97 175.399 159.576 174.946 159.34 174.381L160.54 173.693C160.668 174.077 160.908 174.381 161.261 174.604C161.613 174.829 162.033 174.941 162.525 174.941C162.983 174.941 163.362 174.853 163.661 174.677C163.96 174.501 164.109 174.227 164.109 173.854C164.109 173.545 163.954 173.298 163.644 173.112C163.334 172.926 162.962 172.767 162.528 172.636C162.094 172.505 161.656 172.374 161.216 172.242C160.776 172.11 160.402 171.873 160.092 171.532C159.783 171.19 159.628 170.754 159.628 170.22C159.628 169.527 159.898 168.956 160.437 168.508C160.975 168.06 161.65 167.836 162.46 167.836C163.11 167.836 163.689 167.982 164.196 168.276C164.703 168.569 165.084 168.977 165.34 169.5L164.172 170.156C163.884 169.473 163.314 169.132 162.46 169.132C162.065 169.132 161.73 169.224 161.452 169.405C161.175 169.588 161.036 169.846 161.036 170.18V170.181Z" fill="#5A63FF"/>
<path d="M172.315 176.525V168.045H173.707V176.525C173.707 177.559 173.445 178.325 172.923 178.821C172.401 179.317 171.633 179.527 170.619 179.453V178.109C171.206 178.162 171.635 178.066 171.907 177.821C172.179 177.575 172.315 177.143 172.315 176.525ZM173.019 166.588C172.752 166.588 172.528 166.497 172.347 166.317C172.165 166.135 172.075 165.917 172.075 165.661C172.075 165.405 172.166 165.183 172.347 164.997C172.528 164.81 172.752 164.717 173.019 164.717C173.275 164.717 173.494 164.811 173.674 164.997C173.856 165.184 173.946 165.405 173.946 165.661C173.946 165.917 173.855 166.136 173.674 166.317C173.493 166.498 173.275 166.588 173.019 166.588Z" fill="#5A63FF"/>
<path d="M181.74 168.044H183.132V176.044H181.74V174.892C181.175 175.799 180.31 176.252 179.148 176.252C178.209 176.252 177.457 175.956 176.891 175.364C176.326 174.771 176.043 173.969 176.043 172.956V168.044H177.436V172.876C177.436 173.526 177.612 174.03 177.963 174.388C178.316 174.745 178.801 174.924 179.419 174.924C180.112 174.924 180.672 174.708 181.099 174.277C181.526 173.844 181.74 173.18 181.74 172.285V168.045V168.044Z" fill="#5A63FF"/>
<path d="M186.827 170.181C186.827 170.483 186.984 170.726 187.299 170.908C187.612 171.091 187.987 171.246 188.422 171.374C188.857 171.502 189.294 171.63 189.734 171.759C190.173 171.889 190.546 172.131 190.85 172.486C191.156 172.841 191.308 173.297 191.308 173.853C191.308 174.579 191.028 175.161 190.468 175.597C189.907 176.035 189.19 176.253 188.316 176.253C187.537 176.253 186.871 176.082 186.316 175.741C185.761 175.399 185.367 174.946 185.131 174.381L186.331 173.693C186.459 174.077 186.699 174.381 187.052 174.604C187.404 174.829 187.824 174.941 188.316 174.941C188.774 174.941 189.153 174.853 189.452 174.677C189.751 174.501 189.9 174.227 189.9 173.854C189.9 173.545 189.745 173.298 189.435 173.112C189.125 172.926 188.753 172.767 188.319 172.636C187.885 172.505 187.447 172.374 187.007 172.242C186.567 172.11 186.193 171.873 185.883 171.532C185.574 171.19 185.419 170.754 185.419 170.22C185.419 169.527 185.689 168.956 186.228 168.508C186.766 168.06 187.441 167.836 188.251 167.836C188.901 167.836 189.48 167.982 189.987 168.276C190.494 168.569 190.875 168.977 191.131 169.5L189.963 170.156C189.675 169.473 189.105 169.132 188.251 169.132C187.856 169.132 187.521 169.224 187.243 169.405C186.966 169.588 186.827 169.846 186.827 170.18V170.181Z" fill="#5A63FF"/>
<path d="M197.386 169.388H195.258V173.724C195.258 174.12 195.335 174.399 195.489 174.564C195.643 174.73 195.882 174.815 196.201 174.821C196.521 174.826 196.916 174.818 197.386 174.797V176.045C196.17 176.205 195.279 176.107 194.714 175.749C194.149 175.392 193.865 174.717 193.865 173.725V169.389H192.281V168.045H193.865V166.221L195.258 165.805V168.045H197.386V169.388Z" fill="#5A63FF"/>
<path d="M208.236 169.388H206.108V173.724C206.108 174.12 206.185 174.399 206.339 174.564C206.493 174.73 206.732 174.815 207.051 174.821C207.371 174.826 207.766 174.818 208.236 174.797V176.045C207.02 176.205 206.129 176.107 205.564 175.749C204.999 175.392 204.715 174.717 204.715 173.725V169.389H203.131V168.045H204.715V166.221L206.108 165.805V168.045H208.236V169.388Z" fill="#5A63FF"/>
<path d="M214.266 167.836C215.204 167.836 215.956 168.132 216.522 168.724C217.087 169.317 217.37 170.12 217.37 171.132V176.044H215.978V171.212C215.978 170.562 215.802 170.058 215.45 169.7C215.098 169.343 214.613 169.164 213.994 169.164C213.301 169.164 212.741 169.38 212.314 169.811C211.887 170.244 211.674 170.908 211.674 171.803V176.043H210.281V164.843H211.674V169.196C212.239 168.289 213.103 167.836 214.266 167.836Z" fill="#5A63FF"/>
<path d="M220.682 172.684C220.821 173.399 221.148 173.954 221.665 174.348C222.183 174.744 222.82 174.941 223.577 174.941C224.634 174.941 225.401 174.551 225.882 173.772L227.066 174.445C226.288 175.65 225.114 176.253 223.546 176.253C222.276 176.253 221.244 175.856 220.449 175.061C219.654 174.267 219.258 173.261 219.258 172.045C219.258 170.84 219.647 169.837 220.426 169.037C221.204 168.237 222.212 167.837 223.449 167.837C224.623 167.837 225.58 168.25 226.321 169.077C227.062 169.903 227.433 170.898 227.433 172.06C227.433 172.263 227.416 172.471 227.385 172.684H220.681H220.682ZM223.45 169.148C222.704 169.148 222.085 169.359 221.595 169.781C221.104 170.202 220.8 170.764 220.683 171.469H226.027C225.91 170.712 225.611 170.136 225.131 169.741C224.651 169.346 224.091 169.148 223.45 169.148Z" fill="#5A63FF"/>
<path d="M238.25 167.836C239.37 167.836 240.325 168.244 241.114 169.06C241.903 169.876 242.298 170.872 242.298 172.044C242.298 173.216 241.903 174.212 241.114 175.028C240.325 175.843 239.37 176.252 238.25 176.252C236.928 176.252 235.92 175.724 235.227 174.668V176.044H233.834V164.844H235.227V169.42C235.92 168.364 236.928 167.836 238.25 167.836ZM238.074 174.908C238.874 174.908 239.546 174.634 240.09 174.084C240.635 173.535 240.906 172.855 240.906 172.044C240.906 171.233 240.635 170.554 240.09 170.004C239.546 169.455 238.874 169.18 238.074 169.18C237.263 169.18 236.586 169.455 236.042 170.004C235.498 170.554 235.227 171.233 235.227 172.044C235.227 172.855 235.498 173.535 236.042 174.084C236.586 174.634 237.264 174.908 238.074 174.908Z" fill="#5A63FF"/>
<path d="M245.338 172.684C245.477 173.399 245.804 173.954 246.321 174.348C246.839 174.744 247.476 174.941 248.233 174.941C249.29 174.941 250.057 174.551 250.538 173.772L251.722 174.445C250.944 175.65 249.77 176.253 248.202 176.253C246.932 176.253 245.9 175.856 245.105 175.061C244.31 174.267 243.914 173.261 243.914 172.045C243.914 170.84 244.303 169.837 245.082 169.037C245.86 168.237 246.868 167.837 248.105 167.837C249.279 167.837 250.236 168.25 250.977 169.077C251.718 169.903 252.089 170.898 252.089 172.06C252.089 172.263 252.072 172.471 252.041 172.684H245.337H245.338ZM248.106 169.148C247.36 169.148 246.741 169.359 246.251 169.781C245.76 170.202 245.456 170.764 245.339 171.469H250.683C250.566 170.712 250.267 170.136 249.787 169.741C249.307 169.346 248.747 169.148 248.106 169.148Z" fill="#5A63FF"/>
<path d="M260.715 168.044H262.091V175.708C262.091 176.892 261.691 177.812 260.891 178.468C260.091 179.124 259.131 179.452 258.011 179.452C257.115 179.452 256.341 179.284 255.691 178.948C255.041 178.612 254.549 178.129 254.219 177.5L255.435 176.812C255.873 177.708 256.742 178.157 258.043 178.157C258.875 178.157 259.527 177.938 260.003 177.501C260.478 177.063 260.715 176.466 260.715 175.709V174.573C260.011 175.639 259.008 176.173 257.707 176.173C256.565 176.173 255.6 175.768 254.811 174.957C254.022 174.146 253.627 173.16 253.627 171.997C253.627 170.834 254.022 169.851 254.811 169.045C255.6 168.239 256.566 167.837 257.707 167.837C259.019 167.837 260.021 168.365 260.715 169.421V168.045V168.044ZM255.835 174.028C256.379 174.572 257.056 174.843 257.866 174.843C258.676 174.843 259.354 174.572 259.898 174.028C260.442 173.484 260.714 172.806 260.714 171.996C260.714 171.196 260.442 170.524 259.898 169.979C259.354 169.435 258.676 169.164 257.866 169.164C257.056 169.164 256.379 169.435 255.835 169.979C255.291 170.524 255.019 171.196 255.019 171.996C255.019 172.807 255.291 173.484 255.835 174.028Z" fill="#5A63FF"/>
<path d="M265.306 166.588C265.039 166.588 264.816 166.497 264.634 166.317C264.452 166.135 264.363 165.917 264.363 165.661C264.363 165.405 264.453 165.183 264.634 164.997C264.815 164.811 265.039 164.717 265.306 164.717C265.562 164.717 265.781 164.811 265.962 164.997C266.143 165.183 266.234 165.405 266.234 165.661C266.234 165.917 266.143 166.136 265.962 166.317C265.78 166.498 265.562 166.588 265.306 166.588ZM264.602 176.044V168.044H265.995V176.044H264.602Z" fill="#5A63FF"/>
<path d="M272.506 167.836C273.444 167.836 274.196 168.132 274.762 168.724C275.327 169.317 275.61 170.12 275.61 171.132V176.044H274.218V171.212C274.218 170.562 274.042 170.058 273.69 169.7C273.338 169.343 272.853 169.164 272.234 169.164C271.541 169.164 270.981 169.38 270.554 169.811C270.127 170.244 269.914 170.908 269.914 171.803V176.043H268.521V168.043H269.914V169.195C270.479 168.288 271.343 167.835 272.506 167.835V167.836Z" fill="#5A63FF"/>
<path d="M281.928 167.836C282.866 167.836 283.618 168.132 284.184 168.724C284.749 169.317 285.032 170.12 285.032 171.132V176.044H283.64V171.212C283.64 170.562 283.464 170.058 283.112 169.7C282.76 169.343 282.275 169.164 281.656 169.164C280.963 169.164 280.403 169.38 279.976 169.811C279.549 170.244 279.336 170.908 279.336 171.803V176.043H277.943V168.043H279.336V169.195C279.901 168.288 280.765 167.835 281.928 167.835V167.836Z" fill="#5A63FF"/>
<path d="M288.074 166.588C287.807 166.588 287.584 166.497 287.402 166.317C287.22 166.135 287.131 165.917 287.131 165.661C287.131 165.405 287.221 165.183 287.402 164.997C287.583 164.811 287.807 164.717 288.074 164.717C288.33 164.717 288.549 164.811 288.73 164.997C288.911 165.183 289.002 165.405 289.002 165.661C289.002 165.917 288.911 166.136 288.73 166.317C288.548 166.498 288.33 166.588 288.074 166.588ZM287.37 176.044V168.044H288.763V176.044H287.37Z" fill="#5A63FF"/>
<path d="M295.272 167.836C296.21 167.836 296.962 168.132 297.528 168.724C298.093 169.317 298.376 170.12 298.376 171.132V176.044H296.984V171.212C296.984 170.562 296.808 170.058 296.456 169.7C296.104 169.343 295.619 169.164 295 169.164C294.307 169.164 293.747 169.38 293.32 169.811C292.893 170.244 292.68 170.908 292.68 171.803V176.043H291.287V168.043H292.68V169.195C293.245 168.288 294.109 167.835 295.272 167.835V167.836Z" fill="#5A63FF"/>
<path d="M307.352 168.044H308.728V175.708C308.728 176.892 308.328 177.812 307.528 178.468C306.728 179.124 305.768 179.452 304.648 179.452C303.752 179.452 302.978 179.284 302.328 178.948C301.678 178.612 301.186 178.129 300.856 177.5L302.072 176.812C302.51 177.708 303.379 178.157 304.68 178.157C305.512 178.157 306.164 177.938 306.64 177.501C307.115 177.063 307.352 176.466 307.352 175.709V174.573C306.648 175.639 305.645 176.173 304.344 176.173C303.202 176.173 302.237 175.768 301.448 174.957C300.659 174.146 300.264 173.16 300.264 171.997C300.264 170.834 300.659 169.851 301.448 169.045C302.237 168.239 303.203 167.837 304.344 167.837C305.656 167.837 306.658 168.365 307.352 169.421V168.045V168.044ZM302.472 174.028C303.016 174.572 303.693 174.843 304.503 174.843C305.313 174.843 305.991 174.572 306.535 174.028C307.079 173.484 307.351 172.806 307.351 171.996C307.351 171.196 307.079 170.524 306.535 169.979C305.991 169.435 305.313 169.164 304.503 169.164C303.693 169.164 303.016 169.435 302.472 169.979C301.928 170.524 301.656 171.196 301.656 171.996C301.656 172.807 301.928 173.484 302.472 174.028Z" fill="#5A63FF"/>
<path d="M312.119 176.22C311.832 176.22 311.586 176.118 311.384 175.916C311.181 175.714 311.08 175.468 311.08 175.18C311.08 174.892 311.181 174.647 311.384 174.445C311.586 174.242 311.832 174.14 312.119 174.14C312.418 174.14 312.666 174.242 312.863 174.445C313.06 174.647 313.159 174.892 313.159 175.18C313.159 175.468 313.06 175.714 312.863 175.916C312.666 176.118 312.418 176.22 312.119 176.22Z" fill="#5A63FF"/>
<path d="M327.24 164.844V166.252H323.928V176.044H322.456V166.252H319.16V164.844H327.24Z" fill="#5A63FF"/>
<path d="M332.952 167.836C333.89 167.836 334.642 168.132 335.208 168.724C335.773 169.317 336.056 170.12 336.056 171.132V176.044H334.664V171.212C334.664 170.562 334.488 170.058 334.136 169.7C333.784 169.343 333.299 169.164 332.68 169.164C331.987 169.164 331.427 169.38 331 169.811C330.573 170.244 330.36 170.908 330.36 171.803V176.043H328.967V164.843H330.36V169.196C330.925 168.289 331.789 167.836 332.952 167.836Z" fill="#5A63FF"/>
<path d="M339.367 172.684C339.506 173.399 339.833 173.954 340.35 174.348C340.868 174.744 341.505 174.941 342.262 174.941C343.319 174.941 344.086 174.551 344.567 173.772L345.751 174.445C344.973 175.65 343.799 176.253 342.231 176.253C340.961 176.253 339.929 175.856 339.134 175.061C338.339 174.267 337.943 173.261 337.943 172.045C337.943 170.84 338.332 169.837 339.111 169.037C339.889 168.237 340.897 167.837 342.134 167.837C343.308 167.837 344.265 168.25 345.006 169.077C345.747 169.903 346.118 170.898 346.118 172.06C346.118 172.263 346.101 172.471 346.07 172.684H339.366H339.367ZM342.135 169.148C341.389 169.148 340.77 169.359 340.28 169.781C339.789 170.202 339.485 170.764 339.368 171.469H344.712C344.595 170.712 344.296 170.136 343.816 169.741C343.336 169.346 342.776 169.148 342.135 169.148Z" fill="#5A63FF"/>
<path d="M349.512 169.388C349.97 168.396 350.802 167.901 352.008 167.901V169.356C351.325 169.325 350.738 169.506 350.247 169.901C349.757 170.296 349.512 170.93 349.512 171.804V176.044H348.119V168.044H349.512V169.388Z" fill="#5A63FF"/>
<path d="M354.313 172.684C354.452 173.399 354.779 173.954 355.296 174.348C355.814 174.744 356.451 174.941 357.208 174.941C358.265 174.941 359.032 174.551 359.513 173.772L360.697 174.445C359.919 175.65 358.745 176.253 357.177 176.253C355.907 176.253 354.875 175.856 354.08 175.061C353.285 174.267 352.889 173.261 352.889 172.045C352.889 170.84 353.278 169.837 354.057 169.037C354.835 168.237 355.843 167.837 357.08 167.837C358.254 167.837 359.211 168.25 359.952 169.077C360.693 169.903 361.064 170.898 361.064 172.06C361.064 172.263 361.047 172.471 361.016 172.684H354.312H354.313ZM357.081 169.148C356.335 169.148 355.716 169.359 355.226 169.781C354.735 170.202 354.431 170.764 354.314 171.469H359.658C359.541 170.712 359.242 170.136 358.762 169.741C358.282 169.346 357.722 169.148 357.081 169.148Z" fill="#5A63FF"/>
<path d="M364.184 164.828L363.144 168.716H361.945L362.585 164.828H364.185H364.184Z" fill="#5A63FF"/>
<path d="M366.471 170.181C366.471 170.483 366.628 170.726 366.943 170.908C367.256 171.091 367.631 171.246 368.066 171.374C368.501 171.502 368.938 171.63 369.378 171.759C369.817 171.889 370.19 172.131 370.494 172.486C370.8 172.841 370.952 173.297 370.952 173.853C370.952 174.579 370.672 175.161 370.112 175.597C369.551 176.035 368.834 176.253 367.96 176.253C367.181 176.253 366.515 176.082 365.96 175.741C365.405 175.399 365.011 174.946 364.775 174.381L365.975 173.693C366.103 174.077 366.343 174.381 366.696 174.604C367.048 174.829 367.468 174.941 367.96 174.941C368.418 174.941 368.797 174.853 369.096 174.677C369.395 174.501 369.544 174.227 369.544 173.854C369.544 173.545 369.389 173.298 369.079 173.112C368.769 172.926 368.397 172.767 367.963 172.636C367.529 172.505 367.091 172.374 366.651 172.242C366.211 172.11 365.837 171.873 365.527 171.532C365.218 171.19 365.063 170.754 365.063 170.22C365.063 169.527 365.333 168.956 365.872 168.508C366.41 168.06 367.085 167.836 367.895 167.836C368.545 167.836 369.124 167.982 369.631 168.276C370.138 168.569 370.519 168.977 370.775 169.5L369.607 170.156C369.319 169.473 368.749 169.132 367.895 169.132C367.5 169.132 367.165 169.224 366.887 169.405C366.61 169.588 366.471 169.846 366.471 170.18V170.181Z" fill="#5A63FF"/>
<path d="M384.024 168.044H385.417V176.044H384.024V174.668C383.331 175.724 382.323 176.252 381.001 176.252C379.881 176.252 378.926 175.844 378.137 175.028C377.348 174.212 376.953 173.217 376.953 172.044C376.953 170.871 377.348 169.876 378.137 169.06C378.926 168.245 379.881 167.836 381.001 167.836C382.323 167.836 383.331 168.364 384.024 169.42V168.044ZM381.176 174.908C381.987 174.908 382.664 174.634 383.208 174.084C383.752 173.535 384.023 172.855 384.023 172.044C384.023 171.233 383.752 170.554 383.208 170.004C382.664 169.455 381.986 169.18 381.176 169.18C380.376 169.18 379.704 169.455 379.16 170.004C378.616 170.554 378.344 171.233 378.344 172.044C378.344 172.855 378.616 173.535 379.16 174.084C379.704 174.634 380.376 174.908 381.176 174.908Z" fill="#5A63FF"/>
<path d="M392.328 176.044V164.364H393.721V176.044H392.328Z" fill="#5A63FF"/>
<path d="M403 175.036C402.179 175.847 401.182 176.252 400.009 176.252C398.836 176.252 397.841 175.847 397.025 175.036C396.209 174.225 395.801 173.227 395.801 172.044C395.801 170.861 396.208 169.862 397.025 169.052C397.842 168.242 398.836 167.836 400.009 167.836C401.182 167.836 402.179 168.241 403 169.052C403.821 169.863 404.232 170.861 404.232 172.044C404.232 173.227 403.821 174.226 403 175.036ZM400.009 174.891C400.809 174.891 401.481 174.62 402.025 174.076C402.569 173.532 402.841 172.854 402.841 172.044C402.841 171.234 402.569 170.556 402.025 170.012C401.481 169.468 400.809 169.197 400.009 169.197C399.219 169.197 398.553 169.468 398.009 170.012C397.465 170.556 397.193 171.234 397.193 172.044C397.193 172.854 397.465 173.532 398.009 174.076C398.553 174.62 399.219 174.891 400.009 174.891Z" fill="#5A63FF"/>
<path d="M410.457 169.388H408.329V173.724C408.329 174.12 408.406 174.399 408.56 174.564C408.714 174.73 408.953 174.815 409.272 174.821C409.592 174.826 409.987 174.818 410.457 174.797V176.045C409.241 176.205 408.35 176.107 407.785 175.749C407.22 175.392 406.936 174.717 406.936 173.725V169.389H405.352V168.045H406.936V166.221L408.329 165.805V168.045H410.457V169.388Z" fill="#5A63FF"/>
<path d="M425.592 167.836C426.488 167.836 427.213 168.127 427.768 168.708C428.323 169.289 428.6 170.076 428.6 171.068V176.044H427.207V171.116C427.207 170.497 427.048 170.017 426.728 169.676C426.408 169.335 425.981 169.164 425.448 169.164C424.85 169.164 424.374 169.364 424.016 169.764C423.659 170.164 423.48 170.775 423.48 171.596V176.044H422.088V171.116C422.088 170.497 421.936 170.017 421.632 169.676C421.327 169.335 420.914 169.164 420.392 169.164C419.805 169.164 419.317 169.366 418.928 169.771C418.538 170.177 418.344 170.785 418.344 171.595V176.043H416.951V168.043H418.344V169.115C418.888 168.261 419.682 167.835 420.728 167.835C421.805 167.835 422.589 168.288 423.08 169.195C423.635 168.288 424.473 167.835 425.593 167.835L425.592 167.836Z" fill="#5A63FF"/>
<path d="M437.687 175.036C436.866 175.847 435.869 176.252 434.696 176.252C433.523 176.252 432.528 175.847 431.712 175.036C430.896 174.225 430.488 173.227 430.488 172.044C430.488 170.861 430.895 169.862 431.712 169.052C432.529 168.242 433.523 167.836 434.696 167.836C435.869 167.836 436.866 168.241 437.687 169.052C438.508 169.863 438.919 170.861 438.919 172.044C438.919 173.227 438.508 174.226 437.687 175.036ZM434.696 174.891C435.496 174.891 436.168 174.62 436.712 174.076C437.256 173.532 437.528 172.854 437.528 172.044C437.528 171.234 437.256 170.556 436.712 170.012C436.168 169.468 435.496 169.197 434.696 169.197C433.906 169.197 433.24 169.468 432.696 170.012C432.152 170.556 431.88 171.234 431.88 172.044C431.88 172.854 432.152 173.532 432.696 174.076C433.24 174.62 433.906 174.891 434.696 174.891Z" fill="#5A63FF"/>
<path d="M442.36 169.388C442.818 168.396 443.65 167.901 444.856 167.901V169.356C444.173 169.325 443.586 169.506 443.095 169.901C442.605 170.296 442.36 170.93 442.36 171.804V176.044H440.967V168.044H442.36V169.388Z" fill="#5A63FF"/>
<path d="M447.16 172.684C447.299 173.399 447.626 173.954 448.143 174.348C448.661 174.744 449.298 174.941 450.055 174.941C451.112 174.941 451.879 174.551 452.36 173.772L453.544 174.445C452.766 175.65 451.592 176.253 450.024 176.253C448.754 176.253 447.722 175.856 446.927 175.061C446.132 174.267 445.736 173.261 445.736 172.045C445.736 170.84 446.125 169.837 446.904 169.037C447.682 168.237 448.69 167.837 449.927 167.837C451.101 167.837 452.058 168.25 452.799 169.077C453.54 169.903 453.911 170.898 453.911 172.06C453.911 172.263 453.894 172.471 453.863 172.684H447.159H447.16ZM449.928 169.148C449.182 169.148 448.563 169.359 448.073 169.781C447.582 170.202 447.278 170.764 447.161 171.469H452.505C452.388 170.712 452.089 170.136 451.609 169.741C451.129 169.346 450.569 169.148 449.928 169.148Z" fill="#5A63FF"/>
<path d="M464.071 176.252C462.865 176.252 461.863 175.85 461.062 175.044C460.262 174.238 459.863 173.238 459.863 172.044C459.863 170.85 460.262 169.85 461.062 169.044C461.863 168.238 462.865 167.836 464.071 167.836C464.86 167.836 465.569 168.025 466.199 168.404C466.828 168.782 467.298 169.292 467.606 169.931L466.438 170.603C466.236 170.177 465.923 169.835 465.502 169.58C465.08 169.324 464.604 169.196 464.07 169.196C463.269 169.196 462.6 169.467 462.061 170.011C461.523 170.555 461.253 171.233 461.253 172.043C461.253 172.843 461.523 173.515 462.061 174.059C462.6 174.603 463.269 174.875 464.07 174.875C464.603 174.875 465.083 174.75 465.509 174.499C465.935 174.248 466.261 173.91 466.486 173.483L467.67 174.171C467.328 174.801 466.838 175.305 466.198 175.683C465.557 176.062 464.848 176.251 464.07 176.251L464.071 176.252Z" fill="#5A63FF"/>
<path d="M476.088 175.036C475.267 175.847 474.27 176.252 473.097 176.252C471.924 176.252 470.929 175.847 470.113 175.036C469.297 174.225 468.889 173.227 468.889 172.044C468.889 170.861 469.296 169.862 470.113 169.052C470.93 168.242 471.924 167.836 473.097 167.836C474.27 167.836 475.267 168.241 476.088 169.052C476.909 169.863 477.32 170.861 477.32 172.044C477.32 173.227 476.909 174.226 476.088 175.036ZM473.097 174.891C473.897 174.891 474.569 174.62 475.113 174.076C475.657 173.532 475.929 172.854 475.929 172.044C475.929 171.234 475.657 170.556 475.113 170.012C474.569 169.468 473.897 169.197 473.097 169.197C472.307 169.197 471.641 169.468 471.097 170.012C470.553 170.556 470.281 171.234 470.281 172.044C470.281 172.854 470.553 173.532 471.097 174.076C471.641 174.62 472.307 174.891 473.097 174.891Z" fill="#5A63FF"/>
<path d="M488.008 167.836C488.904 167.836 489.629 168.127 490.184 168.708C490.739 169.289 491.016 170.076 491.016 171.068V176.044H489.623V171.116C489.623 170.497 489.464 170.017 489.144 169.676C488.824 169.335 488.397 169.164 487.864 169.164C487.266 169.164 486.79 169.364 486.432 169.764C486.075 170.164 485.896 170.775 485.896 171.596V176.044H484.504V171.116C484.504 170.497 484.352 170.017 484.048 169.676C483.743 169.335 483.33 169.164 482.808 169.164C482.221 169.164 481.733 169.366 481.344 169.771C480.954 170.177 480.76 170.785 480.76 171.595V176.043H479.367V168.043H480.76V169.115C481.304 168.261 482.098 167.835 483.144 167.835C484.221 167.835 485.005 168.288 485.496 169.195C486.051 168.288 486.889 167.835 488.009 167.835L488.008 167.836Z" fill="#5A63FF"/>
<path d="M494.054 166.588C493.787 166.588 493.564 166.497 493.382 166.317C493.2 166.135 493.111 165.917 493.111 165.661C493.111 165.405 493.201 165.183 493.382 164.997C493.563 164.811 493.787 164.717 494.054 164.717C494.31 164.717 494.529 164.811 494.71 164.997C494.891 165.183 494.982 165.405 494.982 165.661C494.982 165.917 494.891 166.136 494.71 166.317C494.528 166.498 494.31 166.588 494.054 166.588ZM493.35 176.044V168.044H494.743V176.044H493.35Z" fill="#5A63FF"/>
<path d="M501.257 167.836C502.195 167.836 502.946 168.132 503.512 168.724C504.077 169.317 504.36 170.12 504.36 171.132V176.044H502.968V171.212C502.968 170.562 502.792 170.058 502.44 169.7C502.088 169.343 501.603 169.164 500.984 169.164C500.291 169.164 499.731 169.38 499.304 169.811C498.877 170.244 498.664 170.908 498.664 171.803V176.043H497.271V168.043H498.664V169.195C499.229 168.288 500.094 167.835 501.257 167.835V167.836Z" fill="#5A63FF"/>
<path d="M513.334 168.044H514.71V175.708C514.71 176.892 514.31 177.812 513.51 178.468C512.71 179.124 511.75 179.452 510.63 179.452C509.734 179.452 508.96 179.284 508.31 178.948C507.66 178.612 507.168 178.129 506.838 177.5L508.054 176.812C508.492 177.708 509.361 178.157 510.662 178.157C511.494 178.157 512.146 177.938 512.622 177.501C513.097 177.063 513.334 176.466 513.334 175.709V174.573C512.63 175.639 511.627 176.173 510.326 176.173C509.184 176.173 508.219 175.768 507.43 174.957C506.641 174.146 506.246 173.16 506.246 171.997C506.246 170.834 506.641 169.851 507.43 169.045C508.219 168.239 509.185 167.837 510.326 167.837C511.638 167.837 512.64 168.365 513.334 169.421V168.045V168.044ZM508.454 174.028C508.998 174.572 509.675 174.843 510.485 174.843C511.295 174.843 511.973 174.572 512.517 174.028C513.061 173.484 513.333 172.806 513.333 171.996C513.333 171.196 513.061 170.524 512.517 169.979C511.973 169.435 511.295 169.164 510.485 169.164C509.675 169.164 508.998 169.435 508.454 169.979C507.91 170.524 507.638 171.196 507.638 171.996C507.638 172.807 507.91 173.484 508.454 174.028Z" fill="#5A63FF"/>
<path d="M518.102 176.22C517.815 176.22 517.569 176.118 517.367 175.916C517.164 175.714 517.062 175.468 517.062 175.18C517.062 174.892 517.164 174.647 517.367 174.445C517.569 174.242 517.815 174.14 518.102 174.14C518.401 174.14 518.649 174.242 518.846 174.445C519.043 174.647 519.142 174.892 519.142 175.18C519.142 175.468 519.043 175.714 518.846 175.916C518.649 176.118 518.401 176.22 518.102 176.22Z" fill="#5A63FF"/>
<path d="M543.5 214.778H40.5C34.159 214.778 29 219.937 29 226.278V277.527C29 283.868 34.159 289.027 40.5 289.027H543.5C549.841 289.027 555 283.868 555 277.527V226.278C555 219.937 549.841 214.778 543.5 214.778ZM203.333 286.027H40.5C35.813 286.027 32 282.214 32 277.527V226.278C32 221.591 35.813 217.778 40.5 217.778H203.333V286.027ZM377.667 286.027H206.333V217.778H377.667V286.027ZM552 277.527C552 282.214 548.187 286.027 543.5 286.027H380.667V217.778H543.5C548.187 217.778 552 221.591 552 226.278V277.527Z" fill="#757DFF"/>
<path d="M89.6113 257.959C87.8923 257.959 86.5533 258.614 85.5943 259.923C84.6353 261.232 84.1562 262.978 84.1562 265.16C84.1562 267.342 84.6353 269.087 85.5943 270.396C86.5533 271.706 87.8923 272.36 89.6113 272.36C91.3303 272.36 92.6693 271.706 93.6273 270.396C94.5863 269.087 95.0653 267.341 95.0653 265.16C95.0653 262.979 94.5863 261.232 93.6273 259.923C92.6683 258.614 91.3293 257.959 89.6113 257.959ZM91.9713 268.849C91.4293 269.709 90.6423 270.138 89.6113 270.138C88.5933 270.138 87.8093 269.709 87.2613 268.849C86.7123 267.989 86.4383 266.759 86.4383 265.16C86.4383 263.561 86.7123 262.33 87.2613 261.471C87.8093 260.611 88.5933 260.181 89.6113 260.181C90.6423 260.181 91.4293 260.611 91.9713 261.471C92.5133 262.331 92.7842 263.56 92.7842 265.16C92.7842 266.76 92.5133 267.99 91.9713 268.849Z" fill="#5A63FF"/>
<path d="M97.8025 269.364C97.3795 269.364 97.0254 269.509 96.7404 269.801C96.4564 270.092 96.3145 270.442 96.3145 270.852C96.3145 271.262 96.4594 271.613 96.7514 271.903C97.0424 272.194 97.3925 272.339 97.8025 272.339C98.2125 272.339 98.5624 272.194 98.8534 271.903C99.1444 271.612 99.2905 271.262 99.2905 270.852C99.2905 270.442 99.1444 270.091 98.8534 269.801C98.5624 269.511 98.2125 269.364 97.8025 269.364Z" fill="#5A63FF"/>
<path d="M105.975 272.359C107.694 272.359 109.033 271.705 109.991 270.395C110.95 269.086 111.429 267.34 111.429 265.159C111.429 262.978 110.95 261.231 109.991 259.922C109.032 258.613 107.693 257.958 105.975 257.958C104.257 257.958 102.917 258.613 101.958 259.922C100.999 261.231 100.52 262.977 100.52 265.159C100.52 267.341 100.999 269.086 101.958 270.395C102.917 271.705 104.256 272.359 105.975 272.359ZM103.625 261.47C104.173 260.61 104.957 260.18 105.975 260.18C107.006 260.18 107.793 260.61 108.335 261.47C108.877 262.33 109.148 263.559 109.148 265.159C109.148 266.759 108.877 267.989 108.335 268.848C107.793 269.708 107.006 270.137 105.975 270.137C104.957 270.137 104.173 269.708 103.625 268.848C103.076 267.988 102.802 266.758 102.802 265.159C102.802 263.56 103.076 262.329 103.625 261.47Z" fill="#5A63FF"/>
<path d="M114.454 270.395C115.413 271.705 116.752 272.359 118.471 272.359C120.19 272.359 121.529 271.705 122.487 270.395C123.446 269.086 123.925 267.34 123.925 265.159C123.925 262.978 123.446 261.231 122.487 259.922C121.528 258.613 120.189 257.958 118.471 257.958C116.753 257.958 115.413 258.613 114.454 259.922C113.495 261.231 113.016 262.977 113.016 265.159C113.016 267.341 113.495 269.086 114.454 270.395ZM116.121 261.47C116.669 260.61 117.453 260.18 118.471 260.18C119.502 260.18 120.289 260.61 120.831 261.47C121.373 262.33 121.644 263.559 121.644 265.159C121.644 266.759 121.373 267.989 120.831 268.848C120.289 269.708 119.502 270.137 118.471 270.137C117.453 270.137 116.669 269.708 116.121 268.848C115.572 267.988 115.298 266.758 115.298 265.159C115.298 263.56 115.572 262.329 116.121 261.47Z" fill="#5A63FF"/>
<path d="M126.95 259.923C125.991 261.232 125.512 262.978 125.512 265.16C125.512 267.342 125.991 269.087 126.95 270.396C127.909 271.706 129.248 272.36 130.967 272.36C132.686 272.36 134.025 271.706 134.983 270.396C135.942 269.087 136.421 267.341 136.421 265.16C136.421 262.979 135.942 261.232 134.983 259.923C134.024 258.614 132.685 257.959 130.967 257.959C129.249 257.959 127.909 258.614 126.95 259.923ZM128.617 261.47C129.165 260.61 129.949 260.18 130.967 260.18C131.998 260.18 132.785 260.61 133.327 261.47C133.869 262.33 134.14 263.559 134.14 265.159C134.14 266.759 133.869 267.989 133.327 268.848C132.785 269.708 131.998 270.137 130.967 270.137C129.949 270.137 129.165 269.708 128.617 268.848C128.068 267.988 127.794 266.758 127.794 265.159C127.794 263.56 128.068 262.329 128.617 261.47Z" fill="#5A63FF"/>
<path d="M143.463 257.959C141.744 257.959 140.405 258.614 139.446 259.923C138.487 261.232 138.008 262.978 138.008 265.16C138.008 267.342 138.487 269.087 139.446 270.396C140.405 271.706 141.744 272.36 143.463 272.36C145.182 272.36 146.521 271.706 147.479 270.396C148.438 269.087 148.917 267.341 148.917 265.16C148.917 262.979 148.438 261.232 147.479 259.923C146.52 258.614 145.181 257.959 143.463 257.959ZM145.823 268.849C145.281 269.709 144.494 270.138 143.463 270.138C142.445 270.138 141.661 269.709 141.113 268.849C140.564 267.989 140.29 266.759 140.29 265.16C140.29 263.561 140.564 262.33 141.113 261.471C141.661 260.611 142.445 260.181 143.463 260.181C144.494 260.181 145.281 260.611 145.823 261.471C146.365 262.331 146.636 263.56 146.636 265.16C146.636 266.76 146.365 267.99 145.823 268.849Z" fill="#5A63FF"/>
<path d="M81.3167 244.295L83.2257 237.562L85.1478 244.295H87.4227L90.0897 234.148H88.1628L86.2367 241.652L84.1117 234.148H82.3797L80.2627 241.671L78.3107 234.148H76.2188L78.9057 244.295H81.3167Z" fill="#5A63FF"/>
<path d="M92.0906 244.295L92.6996 242.469H96.8676L97.5126 244.295H99.5406L95.9616 234.149H93.4826L89.9316 244.295H92.0906ZM94.7416 236.453L96.2066 240.599H93.3506L94.7416 236.453Z" fill="#5A63FF"/>
<path d="M106.397 242.382H102.528V234.148H100.527V244.295H106.397V242.382Z" fill="#5A63FF"/>
<path d="M113.397 242.382H109.527V234.148H107.527V244.295H113.397V242.382Z" fill="#5A63FF"/>
<path d="M120.805 242.382H116.529V240.106H120.37V238.221H116.529V236.062H120.732V234.148H114.529V244.295H120.805V242.382Z" fill="#5A63FF"/>
<path d="M124.183 244.295H126.183V236.062H128.922V234.148H121.457V236.062H124.183V244.295Z" fill="#5A63FF"/>
<path d="M135.662 240.961H137.445C138.421 240.961 139.242 240.632 139.909 239.975C140.576 239.318 140.91 238.511 140.91 237.554C140.91 236.597 140.576 235.791 139.909 235.133C139.242 234.475 138.421 234.147 137.445 234.147H133.662V244.293H135.662V240.959V240.961ZM135.662 236.019H137.445C137.87 236.019 138.223 236.164 138.503 236.453C138.783 236.742 138.923 237.111 138.923 237.555C138.923 237.99 138.783 238.354 138.503 238.649C138.223 238.944 137.87 239.091 137.445 239.091H135.662V236.019Z" fill="#5A63FF"/>
<path d="M143.996 244.295H145.996V236.062H148.736V234.148H141.271V236.062H143.996V244.295Z" fill="#5A63FF"/>
<path d="M154.317 242.236C154.056 242.439 153.646 242.541 153.085 242.541C151.926 242.541 151.148 242.024 150.752 240.99L149.041 241.99C149.321 242.763 149.805 243.375 150.491 243.824C151.177 244.273 152.022 244.497 153.028 244.497C154.119 244.497 155.006 244.222 155.688 243.671C156.369 243.12 156.709 242.376 156.709 241.439C156.709 241.149 156.673 240.881 156.601 240.634C156.528 240.388 156.442 240.177 156.34 240.004C156.239 239.83 156.091 239.661 155.898 239.497C155.704 239.333 155.533 239.203 155.383 239.106C155.233 239.009 155.021 238.906 154.745 238.794C154.469 238.683 154.253 238.601 154.093 238.548C153.933 238.495 153.699 238.42 153.39 238.323C152.636 238.091 152.126 237.876 151.861 237.678C151.596 237.481 151.462 237.221 151.462 236.902C151.462 236.603 151.58 236.359 151.817 236.17C152.054 235.981 152.379 235.888 152.795 235.888C153.685 235.888 154.332 236.322 154.737 237.193L156.418 236.222C156.07 235.507 155.585 234.949 154.962 234.548C154.339 234.147 153.617 233.946 152.795 233.946C151.877 233.946 151.092 234.219 150.44 234.766C149.787 235.312 149.461 236.044 149.461 236.962C149.461 237.426 149.543 237.832 149.708 238.18C149.873 238.528 150.112 238.815 150.425 239.042C150.739 239.269 151.053 239.45 151.367 239.586C151.681 239.722 152.065 239.856 152.52 239.992C153.341 240.224 153.911 240.439 154.23 240.636C154.55 240.834 154.709 241.112 154.709 241.47C154.709 241.779 154.578 242.035 154.317 242.238V242.236Z" fill="#5A63FF"/>
<path d="M265.074 272.359C266.793 272.359 268.132 271.705 269.09 270.395C270.049 269.086 270.528 267.34 270.528 265.159C270.528 262.978 270.049 261.231 269.09 259.922C268.131 258.613 266.792 257.958 265.074 257.958C263.356 257.958 262.016 258.613 261.057 259.922C260.098 261.231 259.619 262.977 259.619 265.159C259.619 267.341 260.098 269.086 261.057 270.395C262.016 271.705 263.355 272.359 265.074 272.359ZM262.724 261.47C263.272 260.61 264.056 260.18 265.074 260.18C266.105 260.18 266.892 260.61 267.434 261.47C267.976 262.33 268.247 263.559 268.247 265.159C268.247 266.759 267.976 267.989 267.434 268.848C266.892 269.708 266.105 270.137 265.074 270.137C264.056 270.137 263.272 269.708 262.724 268.848C262.175 267.988 261.901 266.758 261.901 265.159C261.901 263.56 262.175 262.329 262.724 261.47Z" fill="#5A63FF"/>
<path d="M272.203 269.801C271.919 270.092 271.777 270.442 271.777 270.852C271.777 271.262 271.922 271.613 272.214 271.903C272.505 272.194 272.855 272.339 273.265 272.339C273.675 272.339 274.025 272.194 274.316 271.903C274.607 271.612 274.753 271.262 274.753 270.852C274.753 270.442 274.607 270.091 274.316 269.801C274.025 269.511 273.675 269.364 273.265 269.364C272.842 269.364 272.488 269.509 272.203 269.801Z" fill="#5A63FF"/>
<path d="M281.439 257.959C279.72 257.959 278.381 258.614 277.422 259.923C276.463 261.232 275.984 262.978 275.984 265.16C275.984 267.342 276.463 269.087 277.422 270.396C278.381 271.706 279.72 272.36 281.439 272.36C283.158 272.36 284.497 271.706 285.455 270.396C286.414 269.087 286.893 267.341 286.893 265.16C286.893 262.979 286.414 261.232 285.455 259.923C284.496 258.614 283.157 257.959 281.439 257.959ZM283.799 268.849C283.257 269.709 282.47 270.138 281.439 270.138C280.421 270.138 279.637 269.709 279.089 268.849C278.54 267.989 278.266 266.759 278.266 265.16C278.266 263.561 278.54 262.33 279.089 261.471C279.637 260.611 280.421 260.181 281.439 260.181C282.47 260.181 283.257 260.611 283.799 261.471C284.341 262.331 284.612 263.56 284.612 265.16C284.612 266.76 284.341 267.99 283.799 268.849Z" fill="#5A63FF"/>
<path d="M289.917 259.923C288.958 261.232 288.479 262.978 288.479 265.16C288.479 267.342 288.958 269.087 289.917 270.396C290.876 271.706 292.215 272.36 293.934 272.36C295.653 272.36 296.992 271.706 297.95 270.396C298.909 269.087 299.388 267.341 299.388 265.16C299.388 262.979 298.909 261.232 297.95 259.923C296.991 258.614 295.652 257.959 293.934 257.959C292.216 257.959 290.876 258.614 289.917 259.923ZM291.584 261.47C292.132 260.61 292.916 260.18 293.934 260.18C294.965 260.18 295.752 260.61 296.294 261.47C296.836 262.33 297.107 263.559 297.107 265.159C297.107 266.759 296.836 267.989 296.294 268.848C295.752 269.708 294.965 270.137 293.934 270.137C292.916 270.137 292.132 269.708 291.584 268.848C291.035 267.988 290.76 266.758 290.76 265.159C290.76 263.56 291.035 262.329 291.584 261.47Z" fill="#5A63FF"/>
<path d="M306.432 257.959C304.713 257.959 303.374 258.614 302.415 259.923C301.456 261.232 300.977 262.978 300.977 265.16C300.977 267.342 301.456 269.087 302.415 270.396C303.374 271.706 304.713 272.36 306.432 272.36C308.151 272.36 309.49 271.706 310.448 270.396C311.407 269.087 311.886 267.341 311.886 265.16C311.886 262.979 311.407 261.232 310.448 259.923C309.489 258.614 308.15 257.959 306.432 257.959ZM308.792 268.849C308.25 269.709 307.463 270.138 306.432 270.138C305.414 270.138 304.63 269.709 304.082 268.849C303.533 267.989 303.259 266.759 303.259 265.16C303.259 263.561 303.533 262.33 304.082 261.471C304.63 260.611 305.414 260.181 306.432 260.181C307.463 260.181 308.25 260.611 308.792 261.471C309.334 262.331 309.605 263.56 309.605 265.16C309.605 266.76 309.334 267.99 308.792 268.849Z" fill="#5A63FF"/>
<path d="M314.909 259.923C313.95 261.232 313.471 262.978 313.471 265.16C313.471 267.342 313.95 269.087 314.909 270.396C315.868 271.706 317.207 272.36 318.926 272.36C320.645 272.36 321.984 271.706 322.942 270.396C323.901 269.087 324.38 267.341 324.38 265.16C324.38 262.979 323.901 261.232 322.942 259.923C321.983 258.614 320.644 257.959 318.926 257.959C317.208 257.959 315.868 258.614 314.909 259.923ZM321.286 261.47C321.828 262.33 322.099 263.559 322.099 265.159C322.099 266.759 321.828 267.989 321.286 268.848C320.744 269.708 319.957 270.137 318.926 270.137C317.908 270.137 317.124 269.708 316.576 268.848C316.027 267.988 315.753 266.758 315.753 265.159C315.753 263.56 316.027 262.329 316.576 261.47C317.124 260.61 317.908 260.18 318.926 260.18C319.957 260.18 320.744 260.61 321.286 261.47Z" fill="#5A63FF"/>
<path d="M267.418 242.469H271.586L272.231 244.295H274.259L270.68 234.149H268.201L264.65 244.295H266.81L267.419 242.469H267.418ZM269.461 236.453L270.926 240.599H268.07L269.461 236.453Z" fill="#5A63FF"/>
<path d="M277.244 240.961H279.027C280.003 240.961 280.824 240.632 281.491 239.975C282.158 239.318 282.492 238.511 282.492 237.554C282.492 236.597 282.158 235.791 281.491 235.133C280.824 234.475 280.003 234.147 279.027 234.147H275.244V244.293H277.244V240.959V240.961ZM277.244 236.019H279.027C279.452 236.019 279.805 236.164 280.085 236.453C280.365 236.742 280.505 237.111 280.505 237.555C280.505 237.99 280.365 238.354 280.085 238.649C279.805 238.944 279.452 239.091 279.027 239.091H277.244V236.019Z" fill="#5A63FF"/>
<path d="M285.797 240.961H287.58C288.556 240.961 289.377 240.632 290.044 239.975C290.711 239.318 291.045 238.511 291.045 237.554C291.045 236.597 290.711 235.791 290.044 235.133C289.377 234.475 288.556 234.147 287.58 234.147H283.797V244.293H285.797V240.959V240.961ZM285.797 236.019H287.58C288.005 236.019 288.358 236.164 288.638 236.453C288.918 236.742 289.058 237.111 289.058 237.555C289.058 237.99 288.918 238.354 288.638 238.649C288.358 238.944 288.005 239.091 287.58 239.091H285.797V236.019Z" fill="#5A63FF"/>
<path d="M297.973 240.961H299.756C300.732 240.961 301.553 240.632 302.22 239.975C302.887 239.318 303.221 238.511 303.221 237.554C303.221 236.597 302.887 235.791 302.22 235.133C301.553 234.475 300.732 234.147 299.756 234.147H295.973V244.293H297.973V240.959V240.961ZM297.973 236.019H299.756C300.181 236.019 300.534 236.164 300.814 236.453C301.094 236.742 301.234 237.111 301.234 237.555C301.234 237.99 301.094 238.354 300.814 238.649C300.534 238.944 300.181 239.091 299.756 239.091H297.973V236.019Z" fill="#5A63FF"/>
<path d="M306.307 244.295H308.307V236.062H311.047V234.148H303.582V236.062H306.307V244.295Z" fill="#5A63FF"/>
<path d="M316.628 242.236C316.367 242.439 315.957 242.541 315.396 242.541C314.237 242.541 313.459 242.024 313.063 240.99L311.352 241.99C311.632 242.763 312.116 243.375 312.802 243.824C313.488 244.273 314.333 244.497 315.339 244.497C316.43 244.497 317.317 244.222 317.999 243.671C318.68 243.12 319.02 242.376 319.02 241.439C319.02 241.149 318.984 240.881 318.912 240.634C318.839 240.388 318.753 240.177 318.651 240.004C318.55 239.83 318.402 239.661 318.209 239.497C318.015 239.333 317.844 239.203 317.694 239.106C317.544 239.009 317.332 238.906 317.056 238.794C316.78 238.683 316.564 238.601 316.404 238.548C316.244 238.495 316.01 238.42 315.701 238.323C314.947 238.091 314.437 237.876 314.172 237.678C313.907 237.481 313.773 237.221 313.773 236.902C313.773 236.603 313.891 236.359 314.128 236.17C314.365 235.981 314.69 235.888 315.106 235.888C315.996 235.888 316.643 236.322 317.048 237.193L318.729 236.222C318.381 235.507 317.896 234.949 317.273 234.548C316.65 234.147 315.928 233.946 315.106 233.946C314.188 233.946 313.403 234.219 312.751 234.766C312.098 235.312 311.772 236.044 311.772 236.962C311.772 237.426 311.854 237.832 312.019 238.18C312.184 238.528 312.423 238.815 312.736 239.042C313.05 239.269 313.364 239.45 313.678 239.586C313.992 239.722 314.376 239.856 314.831 239.992C315.652 240.224 316.222 240.439 316.541 240.636C316.861 240.834 317.02 241.112 317.02 241.47C317.02 241.779 316.889 242.035 316.628 242.238V242.236Z" fill="#5A63FF"/>
<path d="M460.254 257.959C458.535 257.959 457.196 258.614 456.237 259.923C455.278 261.232 454.799 262.978 454.799 265.16C454.799 267.342 455.278 269.087 456.237 270.396C457.196 271.706 458.535 272.36 460.254 272.36C461.973 272.36 463.312 271.706 464.27 270.396C465.229 269.087 465.708 267.341 465.708 265.16C465.708 262.979 465.229 261.232 464.27 259.923C463.311 258.614 461.972 257.959 460.254 257.959ZM462.614 268.849C462.072 269.709 461.285 270.138 460.254 270.138C459.236 270.138 458.452 269.709 457.904 268.849C457.355 267.989 457.081 266.759 457.081 265.16C457.081 263.561 457.355 262.33 457.904 261.471C458.452 260.611 459.236 260.181 460.254 260.181C461.285 260.181 462.072 260.611 462.614 261.471C463.156 262.331 463.427 263.56 463.427 265.16C463.427 266.76 463.156 267.99 462.614 268.849Z" fill="#5A63FF"/>
<path d="M477.412 259.883L468.268 270.059L469.339 270.693L478.482 260.498L477.412 259.883Z" fill="#5A63FF"/>
<path d="M472.662 263.384C473.277 262.769 473.584 262.018 473.584 261.133C473.584 260.234 473.277 259.48 472.662 258.872C472.047 258.264 471.277 257.959 470.352 257.959C469.427 257.959 468.653 258.267 468.031 258.881C467.409 259.496 467.098 260.247 467.098 261.132C467.098 262.017 467.409 262.768 468.031 263.383C468.652 263.998 469.426 264.305 470.352 264.305C471.278 264.305 472.048 263.997 472.662 263.383V263.384ZM469.32 262.144C469.056 261.866 468.924 261.529 468.924 261.132C468.924 260.722 469.056 260.378 469.32 260.1C469.584 259.823 469.922 259.684 470.332 259.684C470.755 259.684 471.099 259.823 471.363 260.1C471.627 260.378 471.76 260.722 471.76 261.132C471.76 261.528 471.627 261.866 471.363 262.144C471.099 262.421 470.755 262.56 470.332 262.56C469.922 262.56 469.585 262.421 469.32 262.144Z" fill="#5A63FF"/>
<path d="M476.696 265.992C475.771 265.992 474.997 266.299 474.375 266.914C473.754 267.529 473.443 268.28 473.443 269.165C473.443 270.05 473.754 270.801 474.375 271.416C474.996 272.031 475.77 272.338 476.696 272.338C477.609 272.338 478.375 272.031 478.997 271.416C479.618 270.801 479.929 270.051 479.929 269.165C479.929 268.279 479.618 267.528 478.997 266.914C478.375 266.299 477.608 265.992 476.696 265.992ZM477.708 270.177C477.444 270.455 477.099 270.594 476.677 270.594C476.267 270.594 475.93 270.455 475.665 270.177C475.401 269.9 475.268 269.562 475.268 269.166C475.268 268.756 475.401 268.412 475.665 268.134C475.929 267.856 476.266 267.718 476.677 267.718C477.099 267.718 477.444 267.857 477.708 268.134C477.972 268.411 478.105 268.756 478.105 269.166C478.105 269.562 477.972 269.9 477.708 270.177Z" fill="#5A63FF"/>
<path d="M435.651 240.004C435.55 239.83 435.402 239.661 435.209 239.497C435.015 239.333 434.844 239.203 434.694 239.106C434.544 239.009 434.332 238.906 434.056 238.794C433.78 238.683 433.564 238.601 433.404 238.548C433.244 238.495 433.01 238.42 432.701 238.323C431.947 238.091 431.437 237.876 431.172 237.678C430.907 237.481 430.773 237.221 430.773 236.902C430.773 236.603 430.891 236.359 431.128 236.17C431.365 235.981 431.69 235.888 432.106 235.888C432.996 235.888 433.643 236.322 434.048 237.193L435.729 236.222C435.381 235.507 434.896 234.949 434.273 234.548C433.65 234.147 432.928 233.946 432.106 233.946C431.188 233.946 430.403 234.219 429.751 234.766C429.098 235.312 428.772 236.044 428.772 236.962C428.772 237.426 428.854 237.832 429.019 238.18C429.184 238.528 429.423 238.815 429.736 239.042C430.05 239.269 430.364 239.45 430.678 239.586C430.992 239.722 431.376 239.856 431.831 239.992C432.652 240.224 433.222 240.439 433.541 240.636C433.861 240.834 434.02 241.112 434.02 241.47C434.02 241.779 433.889 242.035 433.628 242.238C433.367 242.441 432.957 242.543 432.396 242.543C431.237 242.543 430.459 242.026 430.063 240.992L428.352 241.992C428.632 242.765 429.116 243.377 429.802 243.826C430.488 244.275 431.333 244.499 432.339 244.499C433.43 244.499 434.317 244.224 434.999 243.673C435.68 243.122 436.02 242.378 436.02 241.441C436.02 241.151 435.984 240.883 435.912 240.636C435.839 240.39 435.753 240.179 435.651 240.006V240.004Z" fill="#5A63FF"/>
<path d="M442.05 233.945C440.581 233.945 439.337 234.455 438.318 235.474C437.299 236.493 436.789 237.743 436.789 239.221C436.789 240.699 437.299 241.948 438.318 242.968C439.337 243.988 440.581 244.497 442.05 244.497C443.519 244.497 444.765 243.987 445.789 242.968C446.813 241.948 447.326 240.699 447.326 239.221C447.326 237.743 446.813 236.494 445.789 235.474C444.765 234.455 443.518 233.945 442.05 233.945ZM444.383 241.606C443.755 242.23 442.977 242.541 442.05 242.541C441.123 242.541 440.344 242.23 439.716 241.606C439.088 240.982 438.774 240.188 438.774 239.221C438.774 238.254 439.088 237.458 439.716 236.83C440.344 236.202 441.122 235.888 442.05 235.888C442.978 235.888 443.755 236.202 444.383 236.83C445.011 237.458 445.325 238.256 445.325 239.221C445.325 240.186 445.011 240.982 444.383 241.606Z" fill="#5A63FF"/>
<path d="M457.907 242.106L456.182 241.106C455.941 241.55 455.585 241.901 455.117 242.156C454.648 242.412 454.124 242.54 453.544 242.54C452.558 242.54 451.763 242.231 451.16 241.612C450.556 240.994 450.254 240.196 450.254 239.22C450.254 238.234 450.556 237.433 451.16 236.814C451.763 236.196 452.558 235.886 453.544 235.886C454.124 235.886 454.646 236.014 455.109 236.27C455.573 236.526 455.931 236.882 456.182 237.335L457.907 236.335C457.473 235.6 456.865 235.019 456.088 234.588C455.309 234.158 454.462 233.943 453.544 233.943C452.017 233.943 450.756 234.448 449.761 235.458C448.766 236.467 448.268 237.721 448.268 239.219C448.268 240.708 448.766 241.959 449.761 242.974C450.756 243.988 452.017 244.495 453.544 244.495C454.472 244.495 455.322 244.28 456.095 243.851C456.868 243.422 457.473 242.839 457.907 242.104V242.106Z" fill="#5A63FF"/>
<path d="M461.139 234.148H459.139V244.294H461.139V234.148Z" fill="#5A63FF"/>
<path d="M464.879 242.469H469.047L469.692 244.295H471.72L468.141 234.149H465.662L462.111 244.295H464.271L464.88 242.469H464.879ZM466.922 236.453L468.387 240.599H465.531L466.922 236.453Z" fill="#5A63FF"/>
<path d="M478.577 242.382H474.707V234.148H472.707V244.295H478.577V242.382Z" fill="#5A63FF"/>
<path d="M487.113 234.148H483.33V244.294H485.33V240.96H487.113C488.089 240.96 488.91 240.631 489.577 239.974C490.244 239.317 490.578 238.51 490.578 237.553C490.578 236.596 490.244 235.79 489.577 235.132C488.91 234.474 488.089 234.146 487.113 234.146V234.148ZM488.171 238.649C487.891 238.944 487.538 239.091 487.113 239.091H485.33V236.019H487.113C487.538 236.019 487.891 236.164 488.171 236.453C488.451 236.742 488.591 237.111 488.591 237.555C488.591 237.99 488.451 238.354 488.171 238.649Z" fill="#5A63FF"/>
<path d="M490.941 236.062H493.667V244.295H495.667V236.062H498.406V234.148H490.941V236.062Z" fill="#5A63FF"/>
<path d="M506.008 240.004C505.907 239.83 505.759 239.661 505.566 239.497C505.372 239.333 505.201 239.203 505.051 239.106C504.901 239.009 504.689 238.906 504.413 238.794C504.137 238.683 503.921 238.601 503.761 238.548C503.601 238.495 503.367 238.42 503.058 238.323C502.304 238.091 501.794 237.876 501.529 237.678C501.264 237.481 501.13 237.221 501.13 236.902C501.13 236.603 501.248 236.359 501.485 236.17C501.722 235.981 502.047 235.888 502.463 235.888C503.353 235.888 504 236.322 504.405 237.193L506.086 236.222C505.738 235.507 505.253 234.949 504.63 234.548C504.007 234.147 503.285 233.946 502.463 233.946C501.545 233.946 500.76 234.219 500.108 234.766C499.455 235.312 499.129 236.044 499.129 236.962C499.129 237.426 499.211 237.832 499.376 238.18C499.541 238.528 499.78 238.815 500.093 239.042C500.407 239.269 500.721 239.45 501.035 239.586C501.349 239.722 501.733 239.856 502.188 239.992C503.009 240.224 503.579 240.439 503.898 240.636C504.218 240.834 504.377 241.112 504.377 241.47C504.377 241.779 504.246 242.035 503.985 242.238C503.724 242.441 503.314 242.543 502.753 242.543C501.594 242.543 500.816 242.026 500.42 240.992L498.709 241.992C498.989 242.765 499.473 243.377 500.159 243.826C500.845 244.275 501.69 244.499 502.696 244.499C503.787 244.499 504.674 244.224 505.356 243.673C506.037 243.122 506.377 242.378 506.377 241.441C506.377 241.151 506.341 240.883 506.269 240.636C506.196 240.39 506.11 240.179 506.008 240.006V240.004Z" fill="#5A63FF"/>
</g>
<defs>
<clipPath id="clip0_1652_20685">
<rect width="584" height="468" fill="white" transform="translate(0 0.608643)"/>
</clipPath>
</defs>
</svg>
