<svg width="585" height="469" viewBox="0 0 585 469" fill="none" xmlns="http://www.w3.org/2000/svg">
<g clip-path="url(#clip0_1473_16334)">
<path d="M524.375 0.608643H60.375C27.2379 0.608643 0.375 27.4716 0.375 60.6086V408.609C0.375 441.746 27.2379 468.609 60.375 468.609H524.375C557.512 468.609 584.375 441.746 584.375 408.609V60.6086C584.375 27.4716 557.512 0.608643 524.375 0.608643Z" fill="#757DFF"/>
<path d="M513.125 214.393L510.443 221.141H508.276L510.946 214.699H507.248V212.935H513.126L513.125 214.393Z" fill="#EFEFFF"/>
<path d="M514.526 219.322C514.743 219.538 514.851 219.798 514.851 220.099C514.851 220.41 514.745 220.671 514.533 220.883C514.321 221.096 514.051 221.202 513.724 221.202C513.406 221.202 513.14 221.098 512.928 220.889C512.716 220.68 512.609 220.418 512.609 220.099C512.609 219.798 512.716 219.538 512.928 219.322C513.14 219.106 513.406 218.997 513.724 218.997C514.042 218.997 514.31 219.105 514.526 219.322Z" fill="#EFEFFF"/>
<path d="M518.44 221.141H516.481V215.262L514.521 216.267V214.455L517.167 212.936H518.44V221.142V221.141Z" fill="#EFEFFF"/>
<path d="M523.022 215.814C523.921 215.814 524.626 216.052 525.141 216.53C525.655 217.008 525.912 217.651 525.912 218.459C525.912 219.308 525.628 219.998 525.061 220.529C524.493 221.06 523.74 221.325 522.801 221.325C521.911 221.325 521.166 221.079 520.566 220.584C519.966 220.09 519.653 219.398 519.629 218.508L521.54 218.128C521.548 218.626 521.675 218.997 521.92 219.242C522.165 219.487 522.471 219.61 522.839 219.61C523.19 219.61 523.474 219.506 523.69 219.297C523.907 219.089 524.015 218.818 524.015 218.483C524.015 218.173 523.907 217.926 523.69 217.742C523.474 217.558 523.19 217.466 522.839 217.466H520.022L520.17 212.934H525.559V214.686H521.933L521.884 215.813H523.023L523.022 215.814Z" fill="#EFEFFF"/>
<path d="M470.714 178.984H464.998V182.25H470.714V178.984Z" fill="#EFEFFF"/>
<path d="M478.064 178.984H472.348V182.25H478.064V178.984Z" fill="#EFEFFF"/>
<path d="M492.761 188.783H487.045V192.049H492.761V188.783Z" fill="#EFEFFF"/>
<path d="M500.109 188.783H494.393V192.049H500.109V188.783Z" fill="#EFEFFF"/>
<path d="M470.714 397.276H464.998V400.261H470.714V397.276Z" fill="#EFEFFF"/>
<path d="M478.064 397.276H472.348V400.261H478.064V397.276Z" fill="#EFEFFF"/>
<path d="M492.761 396.995H487.045V400.261H492.761V396.995Z" fill="#EFEFFF"/>
<path d="M500.109 396.995H494.393V400.261H500.109V396.995Z" fill="#EFEFFF"/>
<path d="M419.275 396.995H413.559V400.261H419.275V396.995Z" fill="#EFEFFF"/>
<path d="M426.622 393.729H420.906V400.261H426.622V393.729Z" fill="#EFEFFF"/>
<path d="M433.972 386.38H428.256V400.261H433.972V386.38Z" fill="#EFEFFF"/>
<path d="M441.32 396.995H435.604V400.261H441.32V396.995Z" fill="#EFEFFF"/>
<path d="M448.669 398.628H442.953V400.261H448.669V398.628Z" fill="#EFEFFF"/>
<path d="M413.559 206.746H416.008V209.196H416.825V206.746H419.274V182.25H413.559V206.746Z" fill="#EFEFFF"/>
<path d="M424.173 121.011H423.356V166.737H420.906V182.25H426.622V166.737H424.173V121.011Z" fill="#EFEFFF"/>
<path d="M433.972 152.039H428.256V166.736H433.972V152.039Z" fill="#EFEFFF"/>
<path d="M441.32 152.039H435.604V155.305H441.32V152.039Z" fill="#EFEFFF"/>
<path d="M448.669 152.039H442.953V155.305H448.669V152.039Z" fill="#EFEFFF"/>
<path d="M380.08 219.81H379.264V223.893H376.814V239.407H382.53V223.893H380.08V219.81Z" fill="#EFEFFF"/>
<path d="M397.228 225.526H391.512V233.691H397.228V225.526Z" fill="#EFEFFF"/>
<path d="M404.575 203.48H398.859V225.526H404.575V203.48Z" fill="#EFEFFF"/>
<path d="M382.53 396.995H376.814V400.261H382.53V396.995Z" fill="#EFEFFF"/>
<path d="M397.228 398.628H391.512V400.261H397.228V398.628Z" fill="#EFEFFF"/>
<path d="M404.575 396.995H398.859V400.261H404.575V396.995Z" fill="#EFEFFF"/>
<path d="M338.439 199.397H332.723V245.122H338.439V199.397Z" fill="#EFEFFF"/>
<path d="M340.07 199.397H342.52V208.379H343.336V199.397H345.786V192.049H340.07V199.397Z" fill="#EFEFFF"/>
<path d="M358.034 121.011H357.218V170.819H354.768V262.269H360.484V170.819H358.034V121.011Z" fill="#EFEFFF"/>
<path d="M338.439 388.83H332.723V400.261H338.439V388.83Z" fill="#EFEFFF"/>
<path d="M345.786 393.729H340.07V400.261H345.786V393.729Z" fill="#EFEFFF"/>
<path d="M360.484 365.151H354.768V400.261H360.484V365.151Z" fill="#EFEFFF"/>
<path d="M294.347 161.837H288.631V206.746H294.347V161.837Z" fill="#EFEFFF"/>
<path d="M295.979 161.837H298.428V167.553H299.245V161.837H301.695V103.048H295.979V161.837Z" fill="#EFEFFF"/>
<path d="M313.942 103.048H313.126V139.791H310.676V154.489H316.392V139.791H313.942V103.048Z" fill="#EFEFFF"/>
<path d="M294.347 396.995H288.631V400.261H294.347V396.995Z" fill="#EFEFFF"/>
<path d="M301.695 390.463H295.979V400.261H301.695V390.463Z" fill="#EFEFFF"/>
<path d="M316.392 379.848H310.676V400.261H316.392V379.848Z" fill="#EFEFFF"/>
<path d="M108.178 222.26H107.362V263.086H104.912V331.674H110.628V263.086H108.178V222.26Z" fill="#EFEFFF"/>
<path d="M103.28 331.674H97.5645V387.197H103.28V331.674Z" fill="#EFEFFF"/>
<path d="M95.9328 387.197H90.2168V400.261H95.9328V387.197Z" fill="#EFEFFF"/>
<path d="M110.628 348.821H104.912V400.262H110.628V348.821Z" fill="#EFEFFF"/>
<path d="M147.372 397.812H141.656V400.262H147.372V397.812Z" fill="#EFEFFF"/>
<path d="M154.722 397.812H149.006V400.262H154.722V397.812Z" fill="#EFEFFF"/>
<path d="M162.07 392.096H156.354V400.261H162.07V392.096Z" fill="#EFEFFF"/>
<path d="M169.419 387.197H163.703V400.261H169.419V387.197Z" fill="#EFEFFF"/>
<path d="M176.767 391.28H171.051V400.262H176.767V391.28Z" fill="#EFEFFF"/>
<path d="M198.814 320.242H193.098V400.261H198.814V320.242Z" fill="#EFEFFF"/>
<path d="M88.5832 397.812H82.8672V400.262H88.5832V397.812Z" fill="#EFEFFF"/>
<path d="M59.1887 394.546H53.4727V400.262H59.1887V394.546Z" fill="#EFEFFF"/>
<path d="M162.07 273.701H156.354V294.114H162.07V273.701Z" fill="#EFEFFF"/>
<path d="M169.419 226.343H163.703V273.701H169.419V226.343Z" fill="#EFEFFF"/>
<path d="M176.767 201.03H171.051V226.342H176.767V201.03Z" fill="#EFEFFF"/>
<path d="M196.364 103.048H195.548V226.343H193.098V240.223H198.814V226.343H196.364V103.048Z" fill="#EFEFFF"/>
<path d="M211.061 228.792H210.244V233.691H207.795V263.902H213.51V233.691H211.061V228.792Z" fill="#EFEFFF"/>
<path d="M220.859 233.691H215.143V236.957H220.859V233.691Z" fill="#EFEFFF"/>
<path d="M228.208 227.159H222.492V233.691H228.208V227.159Z" fill="#EFEFFF"/>
<path d="M235.558 223.893H229.842V227.159H235.558V223.893Z" fill="#EFEFFF"/>
<path d="M250.253 267.169H244.537V270.435H250.253V267.169Z" fill="#EFEFFF"/>
<path d="M257.603 233.691H251.887V270.434H257.603V233.691Z" fill="#EFEFFF"/>
<path d="M272.3 257.37H266.584V260.636H272.3V257.37Z" fill="#EFEFFF"/>
<path d="M277.2 110.397H276.383V183.067H273.934V260.636H279.65V183.067H277.2V110.397Z" fill="#EFEFFF"/>
<path d="M213.511 387.197H207.795V400.261H213.511V387.197Z" fill="#EFEFFF"/>
<path d="M220.859 396.995H215.143V400.261H220.859V396.995Z" fill="#EFEFFF"/>
<path d="M228.208 396.995H222.492V400.261H228.208V396.995Z" fill="#EFEFFF"/>
<path d="M235.558 377.399H229.842V400.262H235.558V377.399Z" fill="#EFEFFF"/>
<path d="M250.253 396.995H244.537V400.261H250.253V396.995Z" fill="#EFEFFF"/>
<path d="M257.603 397.812H251.887V400.262H257.603V397.812Z" fill="#EFEFFF"/>
<path d="M272.3 396.995H266.584V400.261H272.3V396.995Z" fill="#EFEFFF"/>
<path d="M279.65 351.27H273.934V400.261H279.65V351.27Z" fill="#EFEFFF"/>
<path d="M152.272 274.517H151.456V290.848H149.006V303.912H154.722V290.848H152.272V274.517Z" fill="#EFEFFF"/>
<path d="M147.372 302.279H141.656V303.912H147.372V302.279Z" fill="#EFEFFF"/>
<path d="M112.262 281.049H114.711V290.848H115.528V281.049H117.978V263.086H112.262V281.049Z" fill="#FF6497"/>
<path d="M117.978 394.546H112.262V400.262H117.978V394.546Z" fill="#FF6497"/>
<path d="M125.327 398.628H119.611V400.261H125.327V398.628Z" fill="#FF6497"/>
<path d="M132.675 394.546H126.959V400.262H132.675V394.546Z" fill="#FF6497"/>
<path d="M140.025 396.995H134.309V400.261H140.025V396.995Z" fill="#FF6497"/>
<path d="M184.116 392.913H178.4V400.262H184.116V392.913Z" fill="#FF6497"/>
<path d="M191.464 395.362H185.748V400.261H191.464V395.362Z" fill="#FF6497"/>
<path d="M81.2336 393.729H75.5176V400.261H81.2336V393.729Z" fill="#FF6497"/>
<path d="M73.8859 397.812H68.1699V400.262H73.8859V397.812Z" fill="#FF6497"/>
<path d="M66.5363 396.179H60.8203V400.262H66.5363V396.179Z" fill="#FF6497"/>
<path d="M184.116 201.03H178.4V240.223H184.116V201.03Z" fill="#FF6497"/>
<path d="M191.464 236.957H185.748V240.223H191.464V236.957Z" fill="#FF6497"/>
<path d="M206.161 227.159H200.445V263.902H206.161V227.159Z" fill="#FF6497"/>
<path d="M240.456 215.728H239.639V223.893H237.189V270.435H242.905V223.893H240.456V215.728Z" fill="#FF6497"/>
<path d="M264.952 233.691H259.236V260.636H264.952V233.691Z" fill="#FF6497"/>
<path d="M284.547 140.608H283.73V183.067H281.281V206.746H283.73V260.636H284.547V206.746H286.996V183.067H284.547V140.608Z" fill="#FF6497"/>
<path d="M309.044 103.048H303.328V154.489H309.044V103.048Z" fill="#FF6497"/>
<path d="M323.741 151.223H318.025V193.682H323.741V151.223Z" fill="#FF6497"/>
<path d="M331.089 193.682H325.373V245.123H331.089V193.682Z" fill="#FF6497"/>
<path d="M347.42 262.269H349.869V268.802H350.686V262.269H353.135V192.316H347.42V262.269Z" fill="#FF6497"/>
<path d="M367.833 170.819H362.117V179.801H367.833V170.819Z" fill="#FF6497"/>
<path d="M372.733 176.535H371.916V179.801H369.467V239.407H375.182V179.801H372.733V176.535Z" fill="#FF6497"/>
<path d="M389.878 223.893H384.162V233.691H389.878V223.893Z" fill="#FF6497"/>
<path d="M411.925 203.48H406.209V206.746H411.925V203.48Z" fill="#FF6497"/>
<path d="M456.017 152.039H450.301V158.571H456.017V152.039Z" fill="#FF6497"/>
<path d="M457.65 182.25H460.099V187.15H460.916V182.25H463.366V158.571H457.65V182.25Z" fill="#FF6497"/>
<path d="M485.411 182.25H479.695V192.048H485.411V182.25Z" fill="#FF6497"/>
<path d="M206.161 392.096H200.445V400.261H206.161V392.096Z" fill="#FF6497"/>
<path d="M242.905 396.995H237.189V400.261H242.905V396.995Z" fill="#FF6497"/>
<path d="M264.952 392.913H259.236V400.262H264.952V392.913Z" fill="#FF6497"/>
<path d="M286.997 321.875H281.281V400.261H286.997V321.875Z" fill="#FF6497"/>
<path d="M309.044 392.913H303.328V400.262H309.044V392.913Z" fill="#FF6497"/>
<path d="M323.741 388.014H318.025V400.262H323.741V388.014Z" fill="#FF6497"/>
<path d="M331.089 389.647H325.373V400.262H331.089V389.647Z" fill="#FF6497"/>
<path d="M353.136 386.38H347.42V400.261H353.136V386.38Z" fill="#FF6497"/>
<path d="M367.833 396.995H362.117V400.261H367.833V396.995Z" fill="#FF6497"/>
<path d="M375.183 386.38H369.467V400.261H375.183V386.38Z" fill="#FF6497"/>
<path d="M389.878 398.628H384.162V400.261H389.878V398.628Z" fill="#FF6497"/>
<path d="M411.925 393.729H406.209V400.261H411.925V393.729Z" fill="#FF6497"/>
<path d="M456.017 396.995H450.301V400.261H456.017V396.995Z" fill="#FF6497"/>
<path d="M463.366 393.729H457.65V400.261H463.366V393.729Z" fill="#FF6497"/>
<path d="M485.411 396.995H479.695V400.261H485.411V396.995Z" fill="#FF6497"/>
<path d="M140.025 294.114H134.309V303.912H140.025V294.114Z" fill="#FF6497"/>
<path d="M130.225 274.517H129.409V284.315H126.959V294.114H132.675V284.315H130.225V274.517Z" fill="#FF6497"/>
<path d="M122.877 277.783H122.06V281.049H119.611V284.315H125.326V281.049H122.877V277.783Z" fill="#FF6497"/>
<path d="M500.987 103.048H499.354V419.854H500.987V103.048Z" fill="#EFEFFF"/>
<path d="M530.321 399.442H53.4727V401.075H530.321V399.442Z" fill="#EFEFFF"/>
<path d="M59.5606 415.473H53.6086V414.15L56.4376 411.492C56.6416 411.305 56.7816 411.171 56.8546 411.094C56.9276 411.017 57.0336 410.896 57.1726 410.733C57.3116 410.57 57.4066 410.41 57.4606 410.255C57.5136 410.1 57.5406 409.932 57.5406 409.753C57.5406 409.46 57.4466 409.223 57.2596 409.043C57.0716 408.864 56.8266 408.773 56.5246 408.773C55.8146 408.773 55.4226 409.214 55.3486 410.096L53.4746 409.741C53.5156 408.924 53.8136 408.277 54.3696 407.799C54.9246 407.321 55.6386 407.083 56.5126 407.083C57.3936 407.083 58.1086 407.324 58.6556 407.805C59.2036 408.287 59.4766 408.932 59.4766 409.74C59.4766 410.27 59.3436 410.738 59.0776 411.142C58.8126 411.546 58.3696 412.042 57.7496 412.631L56.5736 413.708H59.5626V415.472L59.5606 415.473Z" fill="#EFEFFF"/>
<path d="M63.9073 415.473H61.9473V409.594L59.9883 410.599V408.787L62.6333 407.268H63.9073V415.473Z" fill="#EFEFFF"/>
<path d="M67.0371 409.723C67.2541 409.939 67.3621 410.198 67.3621 410.5C67.3621 410.81 67.2561 411.072 67.0441 411.284C66.8321 411.496 66.5621 411.602 66.2351 411.602C65.9171 411.602 65.6511 411.496 65.4391 411.284C65.2271 411.072 65.1211 410.81 65.1211 410.5C65.1211 410.198 65.2271 409.939 65.4391 409.723C65.6511 409.506 65.9171 409.398 66.2351 409.398C66.5531 409.398 66.8211 409.506 67.0371 409.723ZM67.0371 413.654C67.2541 413.87 67.3621 414.13 67.3621 414.431C67.3621 414.742 67.2561 415.003 67.0441 415.215C66.8321 415.428 66.5621 415.534 66.2351 415.534C65.9171 415.534 65.6511 415.43 65.4391 415.221C65.2271 415.012 65.1211 414.75 65.1211 414.431C65.1211 414.13 65.2271 413.87 65.4391 413.654C65.6511 413.438 65.9171 413.329 66.2351 413.329C66.5531 413.329 66.8211 413.437 67.0371 413.654Z" fill="#EFEFFF"/>
<path d="M74.3103 408.265C74.9753 409.053 75.3083 410.088 75.3083 411.37C75.3083 412.652 74.9753 413.686 74.3103 414.474C73.6443 415.262 72.7693 415.656 71.6833 415.656C70.5973 415.656 69.7243 415.262 69.0623 414.474C68.4013 413.686 68.0703 412.651 68.0703 411.37C68.0703 410.089 68.4013 409.053 69.0623 408.265C69.7243 407.477 70.5973 407.083 71.6833 407.083C72.7693 407.083 73.6453 407.477 74.3103 408.265ZM72.8403 413.201C73.1293 412.748 73.2753 412.137 73.2753 411.37C73.2753 410.603 73.1303 409.992 72.8403 409.538C72.5503 409.085 72.1643 408.859 71.6823 408.859C71.2003 408.859 70.8173 409.085 70.5313 409.538C70.2453 409.992 70.1023 410.602 70.1023 411.37C70.1023 412.138 70.2453 412.748 70.5313 413.201C70.8163 413.654 71.2003 413.88 71.6823 413.88C72.1643 413.88 72.5503 413.654 72.8403 413.201Z" fill="#EFEFFF"/>
<path d="M82.4431 408.265C83.1081 409.053 83.4411 410.088 83.4411 411.37C83.4411 412.652 83.1081 413.686 82.4431 414.474C81.7771 415.262 80.9021 415.656 79.8161 415.656C78.7301 415.656 77.8571 415.262 77.1951 414.474C76.5341 413.686 76.2031 412.651 76.2031 411.37C76.2031 410.089 76.5341 409.053 77.1951 408.265C77.8571 407.477 78.7301 407.083 79.8161 407.083C80.9021 407.083 81.7781 407.477 82.4431 408.265ZM80.9731 413.201C81.2621 412.748 81.4081 412.137 81.4081 411.37C81.4081 410.603 81.2631 409.992 80.9731 409.538C80.6831 409.085 80.2971 408.859 79.8151 408.859C79.3331 408.859 78.9501 409.085 78.6641 409.538C78.3781 409.992 78.2351 410.602 78.2351 411.37C78.2351 412.138 78.3781 412.748 78.6641 413.201C78.9491 413.654 79.3331 413.88 79.8151 413.88C80.2971 413.88 80.6831 413.654 80.9731 413.201Z" fill="#EFEFFF"/>
<path d="M138.558 408.265C139.223 409.053 139.556 410.088 139.556 411.37C139.556 412.652 139.223 413.686 138.558 414.474C137.892 415.262 137.017 415.656 135.931 415.656C134.845 415.656 133.972 415.262 133.31 414.474C132.649 413.686 132.318 412.651 132.318 411.37C132.318 410.089 132.649 409.053 133.31 408.265C133.972 407.477 134.845 407.083 135.931 407.083C137.017 407.083 137.893 407.477 138.558 408.265ZM137.088 413.201C137.377 412.748 137.523 412.137 137.523 411.37C137.523 410.603 137.378 409.992 137.088 409.538C136.798 409.085 136.412 408.859 135.93 408.859C135.448 408.859 135.065 409.085 134.779 409.538C134.493 409.992 134.35 410.602 134.35 411.37C134.35 412.138 134.493 412.748 134.779 413.201C135.064 413.654 135.448 413.88 135.93 413.88C136.412 413.88 136.798 413.654 137.088 413.201Z" fill="#EFEFFF"/>
<path d="M146.25 410.898C146.768 411.4 147.027 412.056 147.027 412.864C147.027 413.681 146.738 414.35 146.158 414.873C145.578 415.396 144.835 415.657 143.929 415.657C142.868 415.657 142.022 415.294 141.394 414.567C140.766 413.841 140.451 412.824 140.451 411.518C140.451 409.966 140.831 408.812 141.59 408.052C142.21 407.407 142.998 407.085 143.953 407.085C144.688 407.085 145.313 407.258 145.827 407.606C146.341 407.953 146.684 408.449 146.856 409.094L144.958 409.462C144.803 408.996 144.443 408.763 143.88 408.763C143.496 408.763 143.162 408.918 142.875 409.229C142.508 409.628 142.324 410.184 142.324 410.895C142.798 410.397 143.414 410.148 144.174 410.148C145.039 410.148 145.731 410.399 146.25 410.901V410.898ZM144.737 413.66C144.982 413.431 145.105 413.146 145.105 412.803C145.105 412.46 144.982 412.176 144.737 411.951C144.492 411.727 144.207 411.615 143.88 411.615C143.553 411.615 143.272 411.729 143.035 411.958C142.798 412.187 142.68 412.476 142.68 412.827C142.68 413.162 142.798 413.442 143.035 413.666C143.272 413.891 143.553 414.003 143.88 414.003C144.207 414.003 144.492 413.889 144.737 413.66Z" fill="#EFEFFF"/>
<path d="M149.789 409.723C150.006 409.939 150.114 410.198 150.114 410.5C150.114 410.81 150.008 411.072 149.796 411.284C149.584 411.496 149.314 411.602 148.987 411.602C148.669 411.602 148.403 411.496 148.191 411.284C147.979 411.072 147.873 410.81 147.873 410.5C147.873 410.198 147.979 409.939 148.191 409.723C148.403 409.506 148.669 409.398 148.987 409.398C149.305 409.398 149.573 409.506 149.789 409.723ZM149.789 413.654C150.006 413.87 150.114 414.13 150.114 414.431C150.114 414.742 150.008 415.003 149.796 415.215C149.584 415.428 149.314 415.534 148.987 415.534C148.669 415.534 148.403 415.43 148.191 415.221C147.979 415.012 147.873 414.75 147.873 414.431C147.873 414.13 147.979 413.87 148.191 413.654C148.403 413.438 148.669 413.329 148.987 413.329C149.305 413.329 149.573 413.437 149.789 413.654Z" fill="#EFEFFF"/>
<path d="M157.064 408.265C157.729 409.053 158.062 410.088 158.062 411.37C158.062 412.652 157.729 413.686 157.064 414.474C156.398 415.262 155.523 415.656 154.437 415.656C153.351 415.656 152.478 415.262 151.816 414.474C151.155 413.686 150.824 412.651 150.824 411.37C150.824 410.089 151.155 409.053 151.816 408.265C152.478 407.477 153.351 407.083 154.437 407.083C155.523 407.083 156.399 407.477 157.064 408.265ZM155.594 413.201C155.883 412.748 156.029 412.137 156.029 411.37C156.029 410.603 155.884 409.992 155.594 409.538C155.304 409.085 154.918 408.859 154.436 408.859C153.954 408.859 153.571 409.085 153.285 409.538C152.999 409.992 152.856 410.602 152.856 411.37C152.856 412.138 152.999 412.748 153.285 413.201C153.57 413.654 153.954 413.88 154.436 413.88C154.918 413.88 155.304 413.654 155.594 413.201Z" fill="#EFEFFF"/>
<path d="M165.195 408.265C165.86 409.053 166.193 410.088 166.193 411.37C166.193 412.652 165.86 413.686 165.195 414.474C164.529 415.262 163.654 415.656 162.568 415.656C161.482 415.656 160.609 415.262 159.947 414.474C159.286 413.686 158.955 412.651 158.955 411.37C158.955 410.089 159.286 409.053 159.947 408.265C160.609 407.477 161.482 407.083 162.568 407.083C163.654 407.083 164.53 407.477 165.195 408.265ZM163.725 413.201C164.014 412.748 164.16 412.137 164.16 411.37C164.16 410.603 164.015 409.992 163.725 409.538C163.435 409.085 163.049 408.859 162.567 408.859C162.085 408.859 161.702 409.085 161.416 409.538C161.13 409.992 160.987 410.602 160.987 411.37C160.987 412.138 161.13 412.748 161.416 413.201C161.701 413.654 162.085 413.88 162.567 413.88C163.049 413.88 163.435 413.654 163.725 413.201Z" fill="#EFEFFF"/>
<path d="M464.349 408.265C465.014 409.053 465.347 410.088 465.347 411.37C465.347 412.652 465.014 413.686 464.349 414.474C463.683 415.262 462.808 415.656 461.722 415.656C460.636 415.656 459.763 415.262 459.101 414.474C458.44 413.686 458.109 412.651 458.109 411.37C458.109 410.089 458.44 409.053 459.101 408.265C459.763 407.477 460.636 407.083 461.722 407.083C462.808 407.083 463.684 407.477 464.349 408.265ZM462.879 413.201C463.168 412.748 463.314 412.137 463.314 411.37C463.314 410.603 463.169 409.992 462.879 409.538C462.589 409.085 462.203 408.859 461.721 408.859C461.239 408.859 460.856 409.085 460.57 409.538C460.284 409.992 460.141 410.602 460.141 411.37C460.141 412.138 460.284 412.748 460.57 413.201C460.855 413.654 461.239 413.88 461.721 413.88C462.203 413.88 462.589 413.654 462.879 413.201Z" fill="#EFEFFF"/>
<path d="M472.041 410.898C472.559 411.4 472.818 412.056 472.818 412.864C472.818 413.681 472.529 414.35 471.949 414.873C471.369 415.396 470.626 415.657 469.72 415.657C468.659 415.657 467.813 415.294 467.185 414.567C466.557 413.841 466.242 412.824 466.242 411.518C466.242 409.966 466.622 408.812 467.381 408.052C468.001 407.407 468.789 407.085 469.744 407.085C470.479 407.085 471.104 407.258 471.618 407.606C472.132 407.953 472.475 408.449 472.647 409.094L470.749 409.462C470.594 408.996 470.234 408.763 469.671 408.763C469.287 408.763 468.953 408.918 468.666 409.229C468.299 409.628 468.115 410.184 468.115 410.895C468.589 410.397 469.205 410.148 469.965 410.148C470.83 410.148 471.522 410.399 472.041 410.901V410.898ZM470.528 413.66C470.773 413.431 470.896 413.146 470.896 412.803C470.896 412.46 470.773 412.176 470.528 411.951C470.283 411.727 469.998 411.615 469.671 411.615C469.344 411.615 469.063 411.729 468.826 411.958C468.589 412.187 468.471 412.476 468.471 412.827C468.471 413.162 468.589 413.442 468.826 413.666C469.063 413.891 469.344 414.003 469.671 414.003C469.998 414.003 470.283 413.889 470.528 413.66Z" fill="#EFEFFF"/>
<path d="M475.58 409.723C475.797 409.939 475.905 410.198 475.905 410.5C475.905 410.81 475.799 411.072 475.587 411.284C475.375 411.496 475.105 411.602 474.778 411.602C474.46 411.602 474.194 411.496 473.982 411.284C473.77 411.072 473.664 410.81 473.664 410.5C473.664 410.198 473.77 409.939 473.982 409.723C474.194 409.506 474.46 409.398 474.778 409.398C475.096 409.398 475.364 409.506 475.58 409.723ZM475.58 413.654C475.797 413.87 475.905 414.13 475.905 414.431C475.905 414.742 475.799 415.003 475.587 415.215C475.375 415.428 475.105 415.534 474.778 415.534C474.46 415.534 474.194 415.43 473.982 415.221C473.77 415.012 473.664 414.75 473.664 414.431C473.664 414.13 473.77 413.87 473.982 413.654C474.194 413.438 474.46 413.329 474.778 413.329C475.096 413.329 475.364 413.437 475.58 413.654Z" fill="#EFEFFF"/>
<path d="M482.855 408.265C483.52 409.053 483.853 410.088 483.853 411.37C483.853 412.652 483.52 413.686 482.855 414.474C482.189 415.262 481.314 415.656 480.228 415.656C479.142 415.656 478.269 415.262 477.607 414.474C476.946 413.686 476.615 412.651 476.615 411.37C476.615 410.089 476.946 409.053 477.607 408.265C478.269 407.477 479.142 407.083 480.228 407.083C481.314 407.083 482.19 407.477 482.855 408.265ZM481.385 413.201C481.674 412.748 481.82 412.137 481.82 411.37C481.82 410.603 481.675 409.992 481.385 409.538C481.095 409.085 480.709 408.859 480.227 408.859C479.745 408.859 479.362 409.085 479.076 409.538C478.79 409.992 478.647 410.602 478.647 411.37C478.647 412.138 478.79 412.748 479.076 413.201C479.361 413.654 479.745 413.88 480.227 413.88C480.709 413.88 481.095 413.654 481.385 413.201Z" fill="#EFEFFF"/>
<path d="M490.988 408.265C491.653 409.053 491.986 410.088 491.986 411.37C491.986 412.652 491.653 413.686 490.988 414.474C490.322 415.262 489.447 415.656 488.361 415.656C487.275 415.656 486.402 415.262 485.74 414.474C485.079 413.686 484.748 412.651 484.748 411.37C484.748 410.089 485.079 409.053 485.74 408.265C486.402 407.477 487.275 407.083 488.361 407.083C489.447 407.083 490.323 407.477 490.988 408.265ZM489.518 413.201C489.807 412.748 489.953 412.137 489.953 411.37C489.953 410.603 489.808 409.992 489.518 409.538C489.228 409.085 488.842 408.859 488.36 408.859C487.878 408.859 487.495 409.085 487.209 409.538C486.923 409.992 486.78 410.602 486.78 411.37C486.78 412.138 486.923 412.748 487.209 413.201C487.494 413.654 487.878 413.88 488.36 413.88C488.842 413.88 489.228 413.654 489.518 413.201Z" fill="#EFEFFF"/>
<path d="M513.34 386.403C513.858 386.905 514.117 387.561 514.117 388.369C514.117 389.186 513.828 389.855 513.248 390.378C512.668 390.901 511.925 391.162 511.019 391.162C509.958 391.162 509.112 390.799 508.484 390.072C507.856 389.346 507.541 388.329 507.541 387.023C507.541 385.471 507.921 384.317 508.68 383.557C509.3 382.912 510.088 382.59 511.043 382.59C511.778 382.59 512.403 382.763 512.917 383.111C513.431 383.458 513.774 383.954 513.946 384.599L512.048 384.967C511.893 384.501 511.533 384.268 510.97 384.268C510.586 384.268 510.252 384.423 509.965 384.734C509.598 385.133 509.414 385.689 509.414 386.4C509.888 385.902 510.504 385.653 511.264 385.653C512.129 385.653 512.821 385.904 513.34 386.406V386.403ZM511.827 389.165C512.072 388.936 512.195 388.651 512.195 388.308C512.195 387.965 512.072 387.681 511.827 387.456C511.582 387.232 511.296 387.12 510.97 387.12C510.644 387.12 510.362 387.234 510.125 387.463C509.888 387.692 509.77 387.981 509.77 388.332C509.77 388.667 509.888 388.947 510.125 389.171C510.362 389.396 510.643 389.508 510.97 389.508C511.297 389.508 511.582 389.394 511.827 389.165Z" fill="#EFEFFF"/>
<path d="M516.88 389.159C517.097 389.375 517.205 389.635 517.205 389.936C517.205 390.247 517.099 390.508 516.887 390.72C516.675 390.933 516.405 391.039 516.078 391.039C515.76 391.039 515.494 390.935 515.282 390.726C515.07 390.517 514.963 390.255 514.963 389.936C514.963 389.635 515.07 389.375 515.282 389.159C515.494 388.943 515.76 388.834 516.078 388.834C516.396 388.834 516.664 388.942 516.88 389.159Z" fill="#EFEFFF"/>
<path d="M523.535 384.229L520.853 390.977H518.686L521.356 384.535H517.658V382.771H523.536L523.535 384.229Z" fill="#EFEFFF"/>
<path d="M527.454 385.65C528.353 385.65 529.058 385.888 529.573 386.366C530.087 386.844 530.344 387.487 530.344 388.295C530.344 389.144 530.06 389.834 529.493 390.365C528.925 390.896 528.172 391.161 527.233 391.161C526.343 391.161 525.598 390.915 524.998 390.42C524.398 389.926 524.085 389.234 524.061 388.344L525.972 387.964C525.98 388.462 526.107 388.833 526.352 389.078C526.597 389.323 526.903 389.446 527.271 389.446C527.622 389.446 527.906 389.342 528.122 389.133C528.339 388.925 528.447 388.654 528.447 388.319C528.447 388.009 528.339 387.762 528.122 387.578C527.906 387.394 527.622 387.302 527.271 387.302H524.454L524.602 382.77H529.991V384.522H526.365L526.316 385.649H527.455L527.454 385.65Z" fill="#EFEFFF"/>
<path d="M513.34 343.944C513.858 344.446 514.117 345.102 514.117 345.91C514.117 346.727 513.828 347.396 513.248 347.919C512.668 348.442 511.925 348.703 511.019 348.703C509.958 348.703 509.112 348.34 508.484 347.613C507.856 346.887 507.541 345.87 507.541 344.564C507.541 343.012 507.921 341.858 508.68 341.098C509.3 340.453 510.088 340.131 511.043 340.131C511.778 340.131 512.403 340.304 512.917 340.652C513.431 340.999 513.774 341.495 513.946 342.14L512.048 342.508C511.893 342.042 511.533 341.809 510.97 341.809C510.586 341.809 510.252 341.964 509.965 342.275C509.598 342.674 509.414 343.23 509.414 343.941C509.888 343.443 510.504 343.194 511.264 343.194C512.129 343.194 512.821 343.445 513.34 343.947V343.944ZM511.827 346.706C512.072 346.477 512.195 346.192 512.195 345.849C512.195 345.506 512.072 345.222 511.827 344.997C511.582 344.773 511.296 344.661 510.97 344.661C510.644 344.661 510.362 344.775 510.125 345.004C509.888 345.233 509.77 345.522 509.77 345.873C509.77 346.208 509.888 346.488 510.125 346.712C510.362 346.937 510.643 347.049 510.97 347.049C511.297 347.049 511.582 346.935 511.827 346.706Z" fill="#EFEFFF"/>
<path d="M516.88 346.699C517.097 346.915 517.205 347.175 517.205 347.476C517.205 347.787 517.099 348.048 516.887 348.26C516.675 348.473 516.405 348.579 516.078 348.579C515.76 348.579 515.494 348.475 515.282 348.266C515.07 348.057 514.963 347.795 514.963 347.476C514.963 347.175 515.07 346.915 515.282 346.699C515.494 346.483 515.76 346.374 516.078 346.374C516.396 346.374 516.664 346.482 516.88 346.699Z" fill="#EFEFFF"/>
<path d="M523.921 345.102C524.179 345.437 524.307 345.828 524.307 346.277C524.307 346.987 524.011 347.57 523.42 348.022C522.828 348.475 522.054 348.701 521.099 348.701C520.136 348.701 519.356 348.475 518.76 348.022C518.164 347.569 517.865 346.987 517.865 346.277C517.865 345.828 517.994 345.434 518.251 345.095C518.509 344.756 518.878 344.497 519.359 344.318C518.55 343.942 518.147 343.313 518.147 342.431C518.147 341.754 518.422 341.201 518.973 340.772C519.524 340.344 520.233 340.129 521.098 340.129C521.963 340.129 522.672 340.343 523.223 340.772C523.774 341.201 524.05 341.754 524.05 342.431C524.05 343.313 523.642 343.942 522.825 344.318C523.299 344.505 523.664 344.767 523.921 345.102ZM521.888 346.841C522.112 346.662 522.224 346.416 522.224 346.106C522.224 345.804 522.112 345.565 521.888 345.39C521.663 345.215 521.396 345.126 521.086 345.126C520.767 345.126 520.502 345.215 520.289 345.39C520.077 345.565 519.971 345.813 519.971 346.131C519.971 346.433 520.077 346.672 520.289 346.847C520.502 347.023 520.767 347.111 521.086 347.111C521.396 347.111 521.663 347.021 521.888 346.841ZM520.327 341.899C520.123 342.066 520.021 342.302 520.021 342.603C520.021 342.897 520.125 343.128 520.333 343.295C520.541 343.462 520.792 343.546 521.087 343.546C521.389 343.546 521.646 343.461 521.858 343.289C522.071 343.118 522.177 342.885 522.177 342.59C522.177 342.295 522.071 342.065 521.858 341.898C521.646 341.731 521.389 341.647 521.087 341.647C520.785 341.647 520.531 341.731 520.328 341.898L520.327 341.899Z" fill="#EFEFFF"/>
<path d="M528.361 343.191C529.26 343.191 529.965 343.429 530.48 343.907C530.995 344.385 531.252 345.028 531.252 345.836C531.252 346.685 530.968 347.375 530.401 347.906C529.833 348.437 529.08 348.702 528.141 348.702C527.251 348.702 526.506 348.456 525.906 347.961C525.306 347.467 524.994 346.775 524.969 345.885L526.88 345.505C526.888 346.003 527.015 346.374 527.26 346.619C527.505 346.864 527.811 346.987 528.179 346.987C528.53 346.987 528.814 346.883 529.03 346.674C529.247 346.466 529.355 346.195 529.355 345.86C529.355 345.55 529.247 345.303 529.03 345.119C528.814 344.935 528.53 344.843 528.179 344.843H525.362L525.51 340.311H530.899V342.063H527.273L527.224 343.19H528.363L528.361 343.191Z" fill="#EFEFFF"/>
<path d="M513.34 301.485C513.858 301.987 514.117 302.643 514.117 303.451C514.117 304.268 513.828 304.937 513.248 305.46C512.668 305.983 511.925 306.244 511.019 306.244C509.958 306.244 509.112 305.881 508.484 305.154C507.856 304.428 507.541 303.411 507.541 302.105C507.541 300.553 507.921 299.399 508.68 298.639C509.3 297.994 510.088 297.672 511.043 297.672C511.778 297.672 512.403 297.845 512.917 298.193C513.431 298.54 513.774 299.036 513.946 299.681L512.048 300.049C511.893 299.583 511.533 299.35 510.97 299.35C510.586 299.35 510.252 299.505 509.965 299.816C509.598 300.215 509.414 300.771 509.414 301.482C509.888 300.984 510.504 300.735 511.264 300.735C512.129 300.735 512.821 300.986 513.34 301.488V301.485ZM511.827 304.247C512.072 304.018 512.195 303.733 512.195 303.39C512.195 303.047 512.072 302.763 511.827 302.538C511.582 302.314 511.296 302.202 510.97 302.202C510.644 302.202 510.362 302.316 510.125 302.545C509.888 302.774 509.77 303.063 509.77 303.414C509.77 303.749 509.888 304.029 510.125 304.253C510.362 304.478 510.643 304.59 510.97 304.59C511.297 304.59 511.582 304.476 511.827 304.247Z" fill="#EFEFFF"/>
<path d="M516.88 304.24C517.097 304.456 517.205 304.716 517.205 305.017C517.205 305.328 517.099 305.589 516.887 305.801C516.675 306.014 516.405 306.12 516.078 306.12C515.76 306.12 515.494 306.016 515.282 305.807C515.07 305.598 514.963 305.336 514.963 305.017C514.963 304.716 515.07 304.456 515.282 304.24C515.494 304.024 515.76 303.915 516.078 303.915C516.396 303.915 516.664 304.023 516.88 304.24Z" fill="#EFEFFF"/>
<path d="M523.426 298.76C524.054 299.486 524.369 300.503 524.369 301.809C524.369 303.353 523.989 304.507 523.23 305.275C522.601 305.92 521.813 306.242 520.867 306.242C520.132 306.242 519.507 306.069 518.993 305.722C518.478 305.374 518.135 304.878 517.964 304.233L519.863 303.866C520.002 304.331 520.361 304.564 520.941 304.564C521.325 304.564 521.659 304.409 521.945 304.099C522.296 303.707 522.48 303.152 522.496 302.433C522.014 302.931 521.398 303.18 520.647 303.18C519.782 303.18 519.09 302.929 518.571 302.426C518.052 301.924 517.793 301.268 517.793 300.46C517.793 299.643 518.083 298.974 518.663 298.451C519.243 297.928 519.986 297.667 520.892 297.667C521.953 297.667 522.799 298.03 523.428 298.757L523.426 298.76ZM521.784 301.368C522.021 301.14 522.14 300.85 522.14 300.499C522.14 300.164 522.02 299.884 521.779 299.66C521.538 299.435 521.258 299.323 520.94 299.323C520.613 299.323 520.325 299.438 520.076 299.666C519.827 299.895 519.702 300.18 519.702 300.524C519.702 300.868 519.827 301.15 520.076 301.375C520.325 301.6 520.613 301.711 520.94 301.711C521.267 301.711 521.548 301.597 521.784 301.368Z" fill="#EFEFFF"/>
<path d="M528.582 300.732C529.481 300.732 530.186 300.97 530.701 301.448C531.215 301.926 531.472 302.569 531.472 303.377C531.472 304.226 531.188 304.916 530.621 305.447C530.053 305.978 529.3 306.243 528.361 306.243C527.471 306.243 526.726 305.997 526.126 305.502C525.526 305.008 525.213 304.316 525.189 303.426L527.1 303.046C527.108 303.544 527.235 303.915 527.48 304.16C527.725 304.405 528.031 304.528 528.399 304.528C528.75 304.528 529.034 304.424 529.25 304.215C529.467 304.007 529.575 303.736 529.575 303.401C529.575 303.091 529.467 302.844 529.25 302.66C529.034 302.476 528.75 302.384 528.399 302.384H525.582L525.73 297.852H531.119V299.604H527.493L527.444 300.731H528.583L528.582 300.732Z" fill="#EFEFFF"/>
<path d="M513.125 256.852L510.443 263.6H508.276L510.946 257.158H507.248V255.394H513.126L513.125 256.852Z" fill="#EFEFFF"/>
<path d="M514.526 261.781C514.743 261.997 514.851 262.257 514.851 262.558C514.851 262.869 514.745 263.13 514.533 263.342C514.321 263.555 514.051 263.661 513.724 263.661C513.406 263.661 513.14 263.557 512.928 263.348C512.716 263.139 512.609 262.877 512.609 262.558C512.609 262.257 512.716 261.997 512.928 261.781C513.14 261.565 513.406 261.456 513.724 261.456C514.042 261.456 514.31 261.564 514.526 261.781Z" fill="#EFEFFF"/>
<path d="M521.679 256.393C522.344 257.181 522.677 258.216 522.677 259.498C522.677 260.78 522.344 261.814 521.679 262.602C521.013 263.39 520.138 263.784 519.052 263.784C517.966 263.784 517.093 263.39 516.431 262.602C515.77 261.814 515.439 260.779 515.439 259.498C515.439 258.217 515.77 257.181 516.431 256.393C517.093 255.605 517.966 255.211 519.052 255.211C520.138 255.211 521.014 255.605 521.679 256.393ZM520.209 261.329C520.498 260.876 520.644 260.265 520.644 259.498C520.644 258.731 520.499 258.12 520.209 257.666C519.919 257.213 519.533 256.987 519.051 256.987C518.569 256.987 518.186 257.213 517.9 257.666C517.614 258.12 517.471 258.73 517.471 259.498C517.471 260.266 517.614 260.876 517.9 261.329C518.185 261.782 518.569 262.008 519.051 262.008C519.533 262.008 519.919 261.782 520.209 261.329Z" fill="#EFEFFF"/>
<path d="M526.879 258.273C527.778 258.273 528.483 258.511 528.998 258.989C529.512 259.467 529.769 260.11 529.769 260.918C529.769 261.767 529.485 262.457 528.918 262.988C528.35 263.519 527.597 263.784 526.658 263.784C525.768 263.784 525.023 263.538 524.423 263.043C523.823 262.549 523.51 261.857 523.486 260.967L525.397 260.587C525.405 261.085 525.532 261.456 525.777 261.701C526.022 261.946 526.328 262.069 526.696 262.069C527.047 262.069 527.331 261.965 527.547 261.756C527.764 261.548 527.872 261.277 527.872 260.942C527.872 260.632 527.764 260.385 527.547 260.201C527.331 260.017 527.047 259.925 526.696 259.925H523.879L524.027 255.393H529.416V257.145H525.79L525.741 258.272H526.88L526.879 258.273Z" fill="#EFEFFF"/>
<path d="M513.125 171.934L510.443 178.682H508.276L510.946 172.24H507.248V170.476H513.126L513.125 171.934Z" fill="#EFEFFF"/>
<path d="M514.526 176.863C514.743 177.079 514.851 177.339 514.851 177.64C514.851 177.951 514.745 178.212 514.533 178.424C514.321 178.637 514.051 178.743 513.724 178.743C513.406 178.743 513.14 178.639 512.928 178.43C512.716 178.221 512.609 177.959 512.609 177.64C512.609 177.339 512.716 177.079 512.928 176.863C513.14 176.647 513.406 176.538 513.724 176.538C514.042 176.538 514.31 176.646 514.526 176.863Z" fill="#EFEFFF"/>
<path d="M521.625 178.682H515.673V177.359L518.502 174.701C518.706 174.514 518.845 174.38 518.919 174.303C518.992 174.226 519.098 174.105 519.237 173.942C519.376 173.779 519.471 173.619 519.525 173.464C519.578 173.309 519.605 173.141 519.605 172.962C519.605 172.669 519.511 172.432 519.324 172.252C519.136 172.073 518.891 171.982 518.589 171.982C517.879 171.982 517.487 172.423 517.413 173.305L515.539 172.95C515.58 172.133 515.878 171.486 516.434 171.008C516.989 170.53 517.703 170.292 518.577 170.292C519.458 170.292 520.173 170.533 520.72 171.014C521.268 171.496 521.541 172.141 521.541 172.949C521.541 173.479 521.408 173.947 521.142 174.351C520.877 174.755 520.434 175.251 519.814 175.84L518.638 176.917H521.627V178.681L521.625 178.682Z" fill="#EFEFFF"/>
<path d="M525.789 173.355C526.688 173.355 527.393 173.593 527.908 174.071C528.423 174.549 528.68 175.192 528.68 176C528.68 176.849 528.395 177.539 527.828 178.07C527.26 178.601 526.507 178.866 525.568 178.866C524.678 178.866 523.933 178.62 523.333 178.125C522.733 177.631 522.421 176.939 522.396 176.049L524.307 175.669C524.315 176.167 524.443 176.538 524.688 176.783C524.932 177.028 525.239 177.151 525.607 177.151C525.958 177.151 526.242 177.047 526.458 176.838C526.675 176.63 526.783 176.359 526.783 176.024C526.783 175.714 526.675 175.467 526.458 175.283C526.242 175.099 525.958 175.007 525.607 175.007H522.789L522.938 170.475H528.327V172.227H524.701L524.651 173.354H525.791L525.789 173.355Z" fill="#EFEFFF"/>
<path d="M513.125 129.475L510.443 136.223H508.276L510.946 129.781H507.248V128.017H513.126L513.125 129.475Z" fill="#EFEFFF"/>
<path d="M514.526 134.404C514.743 134.62 514.851 134.88 514.851 135.181C514.851 135.492 514.745 135.753 514.533 135.965C514.321 136.178 514.051 136.284 513.724 136.284C513.406 136.284 513.14 136.18 512.928 135.971C512.716 135.762 512.609 135.5 512.609 135.181C512.609 134.88 512.716 134.62 512.928 134.404C513.14 134.188 513.406 134.079 513.724 134.079C514.042 134.079 514.31 134.187 514.526 134.404Z" fill="#EFEFFF"/>
<path d="M521.857 133.762C521.857 134.538 521.572 135.173 521 135.666C520.428 136.16 519.694 136.407 518.796 136.407C517.93 136.407 517.208 136.173 516.628 135.703C516.048 135.233 515.713 134.603 515.623 133.811L517.534 133.456C517.591 133.864 517.728 134.178 517.944 134.399C518.16 134.62 518.448 134.73 518.808 134.73C519.151 134.73 519.432 134.638 519.653 134.455C519.873 134.271 519.983 134.032 519.983 133.738C519.983 133.461 519.886 133.24 519.69 133.077C519.494 132.914 519.22 132.831 518.869 132.831H517.926V131.338H518.783C519.126 131.338 519.395 131.256 519.592 131.092C519.788 130.929 519.886 130.712 519.886 130.443C519.886 130.158 519.786 129.929 519.585 129.757C519.384 129.585 519.122 129.5 518.796 129.5C518.453 129.5 518.171 129.61 517.951 129.83C517.731 130.05 517.604 130.382 517.571 130.823L515.721 130.467C515.811 129.658 516.133 129.018 516.689 128.545C517.244 128.071 517.942 127.835 518.783 127.835C519.657 127.835 520.365 128.076 520.908 128.557C521.451 129.038 521.722 129.659 521.722 130.419C521.722 131.179 521.429 131.729 520.841 132.072C521.518 132.415 521.857 132.979 521.857 133.762Z" fill="#EFEFFF"/>
<path d="M526.058 130.896C526.957 130.896 527.662 131.134 528.177 131.612C528.692 132.09 528.949 132.733 528.949 133.541C528.949 134.39 528.665 135.08 528.098 135.611C527.53 136.142 526.777 136.407 525.838 136.407C524.948 136.407 524.203 136.161 523.603 135.666C523.003 135.172 522.691 134.48 522.666 133.59L524.577 133.21C524.585 133.708 524.712 134.079 524.957 134.324C525.202 134.569 525.508 134.692 525.876 134.692C526.227 134.692 526.511 134.588 526.727 134.379C526.944 134.171 527.052 133.9 527.052 133.565C527.052 133.255 526.944 133.008 526.727 132.824C526.511 132.64 526.227 132.548 525.876 132.548H523.059L523.207 128.016H528.596V129.768H524.97L524.921 130.895H526.06L526.058 130.896Z" fill="#EFEFFF"/>
<path d="M218.622 415.473H216.662V409.594L214.703 410.599V408.787L217.348 407.268H218.622V415.473Z" fill="#EFEFFF"/>
<path d="M225.75 415.473H219.798V414.15L222.627 411.492C222.831 411.305 222.971 411.171 223.044 411.094C223.117 411.017 223.223 410.896 223.362 410.733C223.501 410.57 223.596 410.41 223.65 410.255C223.703 410.1 223.73 409.932 223.73 409.753C223.73 409.46 223.636 409.223 223.449 409.043C223.261 408.864 223.016 408.773 222.714 408.773C222.004 408.773 221.612 409.214 221.538 410.096L219.664 409.741C219.705 408.924 220.003 408.277 220.559 407.799C221.114 407.321 221.828 407.083 222.702 407.083C223.583 407.083 224.298 407.324 224.845 407.805C225.393 408.287 225.666 408.932 225.666 409.74C225.666 410.27 225.533 410.738 225.267 411.142C225.002 411.546 224.559 412.042 223.939 412.631L222.763 413.708H225.752V415.472L225.75 415.473Z" fill="#EFEFFF"/>
<path d="M228.646 409.723C228.863 409.939 228.971 410.198 228.971 410.5C228.971 410.81 228.865 411.072 228.653 411.284C228.441 411.496 228.171 411.602 227.844 411.602C227.526 411.602 227.26 411.496 227.048 411.284C226.836 411.072 226.729 410.81 226.729 410.5C226.729 410.198 226.836 409.939 227.048 409.723C227.26 409.506 227.526 409.398 227.844 409.398C228.162 409.398 228.43 409.506 228.646 409.723ZM228.646 413.654C228.863 413.87 228.971 414.13 228.971 414.431C228.971 414.742 228.865 415.003 228.653 415.215C228.441 415.428 228.171 415.534 227.844 415.534C227.526 415.534 227.26 415.43 227.048 415.221C226.836 415.012 226.729 414.75 226.729 414.431C226.729 414.13 226.836 413.87 227.048 413.654C227.26 413.438 227.526 413.329 227.844 413.329C228.162 413.329 228.43 413.437 228.646 413.654Z" fill="#EFEFFF"/>
<path d="M235.922 408.265C236.587 409.053 236.92 410.088 236.92 411.37C236.92 412.652 236.587 413.686 235.922 414.474C235.256 415.262 234.381 415.656 233.295 415.656C232.209 415.656 231.336 415.262 230.674 414.474C230.013 413.686 229.682 412.651 229.682 411.37C229.682 410.089 230.013 409.053 230.674 408.265C231.336 407.477 232.209 407.083 233.295 407.083C234.381 407.083 235.257 407.477 235.922 408.265ZM234.452 413.201C234.741 412.748 234.887 412.137 234.887 411.37C234.887 410.603 234.742 409.992 234.452 409.538C234.162 409.085 233.776 408.859 233.294 408.859C232.812 408.859 232.429 409.085 232.143 409.538C231.857 409.992 231.714 410.602 231.714 411.37C231.714 412.138 231.857 412.748 232.143 413.201C232.428 413.654 232.812 413.88 233.294 413.88C233.776 413.88 234.162 413.654 234.452 413.201Z" fill="#EFEFFF"/>
<path d="M244.054 408.265C244.719 409.053 245.052 410.088 245.052 411.37C245.052 412.652 244.719 413.686 244.054 414.474C243.388 415.262 242.513 415.656 241.427 415.656C240.341 415.656 239.468 415.262 238.806 414.474C238.145 413.686 237.814 412.651 237.814 411.37C237.814 410.089 238.145 409.053 238.806 408.265C239.468 407.477 240.341 407.083 241.427 407.083C242.513 407.083 243.389 407.477 244.054 408.265ZM242.584 413.201C242.873 412.748 243.019 412.137 243.019 411.37C243.019 410.603 242.874 409.992 242.584 409.538C242.294 409.085 241.908 408.859 241.426 408.859C240.944 408.859 240.561 409.085 240.275 409.538C239.989 409.992 239.846 410.602 239.846 411.37C239.846 412.138 239.989 412.748 240.275 413.201C240.56 413.654 240.944 413.88 241.426 413.88C241.908 413.88 242.294 413.654 242.584 413.201Z" fill="#EFEFFF"/>
<path d="M301.03 415.473H299.07V409.594L297.111 410.599V408.787L299.756 407.268H301.03V415.473Z" fill="#EFEFFF"/>
<path d="M308.189 412.056C308.447 412.391 308.575 412.782 308.575 413.231C308.575 413.941 308.279 414.524 307.688 414.976C307.096 415.429 306.322 415.655 305.367 415.655C304.404 415.655 303.624 415.429 303.028 414.976C302.432 414.523 302.133 413.941 302.133 413.231C302.133 412.782 302.262 412.388 302.519 412.049C302.777 411.71 303.146 411.451 303.627 411.272C302.818 410.896 302.415 410.267 302.415 409.385C302.415 408.708 302.69 408.155 303.241 407.726C303.792 407.298 304.501 407.083 305.366 407.083C306.231 407.083 306.94 407.297 307.491 407.726C308.042 408.155 308.318 408.708 308.318 409.385C308.318 410.267 307.91 410.896 307.093 411.272C307.567 411.459 307.932 411.721 308.189 412.056ZM306.156 413.795C306.38 413.616 306.492 413.37 306.492 413.06C306.492 412.758 306.38 412.519 306.156 412.344C305.931 412.169 305.664 412.08 305.354 412.08C305.035 412.08 304.77 412.169 304.557 412.344C304.345 412.519 304.239 412.767 304.239 413.085C304.239 413.387 304.345 413.626 304.557 413.801C304.77 413.977 305.035 414.065 305.354 414.065C305.664 414.065 305.931 413.975 306.156 413.795ZM304.595 408.853C304.391 409.02 304.289 409.256 304.289 409.557C304.289 409.851 304.393 410.082 304.601 410.249C304.809 410.416 305.06 410.5 305.355 410.5C305.657 410.5 305.914 410.415 306.126 410.243C306.339 410.072 306.445 409.839 306.445 409.544C306.445 409.249 306.339 409.019 306.126 408.852C305.914 408.685 305.657 408.601 305.355 408.601C305.053 408.601 304.799 408.685 304.596 408.852L304.595 408.853Z" fill="#EFEFFF"/>
<path d="M311.176 409.723C311.393 409.939 311.501 410.198 311.501 410.5C311.501 410.81 311.395 411.072 311.183 411.284C310.971 411.496 310.701 411.602 310.374 411.602C310.056 411.602 309.79 411.496 309.578 411.284C309.366 411.072 309.26 410.81 309.26 410.5C309.26 410.198 309.366 409.939 309.578 409.723C309.79 409.506 310.056 409.398 310.374 409.398C310.692 409.398 310.96 409.506 311.176 409.723ZM311.176 413.654C311.393 413.87 311.501 414.13 311.501 414.431C311.501 414.742 311.395 415.003 311.183 415.215C310.971 415.428 310.701 415.534 310.374 415.534C310.056 415.534 309.79 415.43 309.578 415.221C309.366 415.012 309.26 414.75 309.26 414.431C309.26 414.13 309.366 413.87 309.578 413.654C309.79 413.438 310.056 413.329 310.374 413.329C310.692 413.329 310.96 413.437 311.176 413.654Z" fill="#EFEFFF"/>
<path d="M318.451 408.265C319.116 409.053 319.449 410.088 319.449 411.37C319.449 412.652 319.116 413.686 318.451 414.474C317.785 415.262 316.91 415.656 315.824 415.656C314.738 415.656 313.865 415.262 313.203 414.474C312.542 413.686 312.211 412.651 312.211 411.37C312.211 410.089 312.542 409.053 313.203 408.265C313.865 407.477 314.738 407.083 315.824 407.083C316.91 407.083 317.786 407.477 318.451 408.265ZM316.981 413.201C317.27 412.748 317.416 412.137 317.416 411.37C317.416 410.603 317.271 409.992 316.981 409.538C316.691 409.085 316.305 408.859 315.823 408.859C315.341 408.859 314.958 409.085 314.672 409.538C314.386 409.992 314.243 410.602 314.243 411.37C314.243 412.138 314.386 412.748 314.672 413.201C314.957 413.654 315.341 413.88 315.823 413.88C316.305 413.88 316.691 413.654 316.981 413.201Z" fill="#EFEFFF"/>
<path d="M326.584 408.265C327.249 409.053 327.582 410.088 327.582 411.37C327.582 412.652 327.249 413.686 326.584 414.474C325.918 415.262 325.043 415.656 323.957 415.656C322.871 415.656 321.998 415.262 321.336 414.474C320.675 413.686 320.344 412.651 320.344 411.37C320.344 410.089 320.675 409.053 321.336 408.265C321.998 407.477 322.871 407.083 323.957 407.083C325.043 407.083 325.919 407.477 326.584 408.265ZM325.114 413.201C325.403 412.748 325.549 412.137 325.549 411.37C325.549 410.603 325.404 409.992 325.114 409.538C324.824 409.085 324.438 408.859 323.956 408.859C323.474 408.859 323.091 409.085 322.805 409.538C322.519 409.992 322.376 410.602 322.376 411.37C322.376 412.138 322.519 412.748 322.805 413.201C323.09 413.654 323.474 413.88 323.956 413.88C324.438 413.88 324.824 413.654 325.114 413.201Z" fill="#EFEFFF"/>
<path d="M389.031 415.473H383.079V414.15L385.908 411.492C386.112 411.305 386.251 411.171 386.325 411.094C386.398 411.017 386.504 410.896 386.643 410.733C386.782 410.57 386.877 410.41 386.931 410.255C386.984 410.1 387.011 409.932 387.011 409.753C387.011 409.46 386.917 409.223 386.73 409.043C386.542 408.864 386.297 408.773 385.995 408.773C385.285 408.773 384.893 409.214 384.819 410.096L382.945 409.741C382.986 408.924 383.284 408.277 383.84 407.799C384.395 407.321 385.109 407.083 385.983 407.083C386.864 407.083 387.579 407.324 388.126 407.805C388.674 408.287 388.947 408.932 388.947 409.74C388.947 410.27 388.814 410.738 388.548 411.142C388.283 411.546 387.84 412.042 387.22 412.631L386.044 413.708H389.033V415.472L389.031 415.473Z" fill="#EFEFFF"/>
<path d="M395.742 415.473H389.79V414.15L392.619 411.492C392.823 411.305 392.963 411.171 393.036 411.094C393.109 411.017 393.215 410.896 393.354 410.733C393.493 410.57 393.588 410.41 393.642 410.255C393.695 410.1 393.722 409.932 393.722 409.753C393.722 409.46 393.628 409.223 393.441 409.043C393.253 408.864 393.008 408.773 392.706 408.773C391.996 408.773 391.604 409.214 391.53 410.096L389.656 409.741C389.697 408.924 389.995 408.277 390.551 407.799C391.106 407.321 391.82 407.083 392.694 407.083C393.575 407.083 394.29 407.324 394.837 407.805C395.385 408.287 395.658 408.932 395.658 409.74C395.658 410.27 395.525 410.738 395.259 411.142C394.994 411.546 394.551 412.042 393.931 412.631L392.755 413.708H395.744V415.472L395.742 415.473Z" fill="#EFEFFF"/>
<path d="M398.64 409.723C398.857 409.939 398.965 410.198 398.965 410.5C398.965 410.81 398.859 411.072 398.647 411.284C398.435 411.496 398.165 411.602 397.838 411.602C397.52 411.602 397.254 411.496 397.042 411.284C396.83 411.072 396.723 410.81 396.723 410.5C396.723 410.198 396.83 409.939 397.042 409.723C397.254 409.506 397.52 409.398 397.838 409.398C398.156 409.398 398.424 409.506 398.64 409.723ZM398.64 413.654C398.857 413.87 398.965 414.13 398.965 414.431C398.965 414.742 398.859 415.003 398.647 415.215C398.435 415.428 398.165 415.534 397.838 415.534C397.52 415.534 397.254 415.43 397.042 415.221C396.83 415.012 396.723 414.75 396.723 414.431C396.723 414.13 396.83 413.87 397.042 413.654C397.254 413.438 397.52 413.329 397.838 413.329C398.156 413.329 398.424 413.437 398.64 413.654Z" fill="#EFEFFF"/>
<path d="M405.914 408.265C406.579 409.053 406.912 410.088 406.912 411.37C406.912 412.652 406.579 413.686 405.914 414.474C405.248 415.262 404.373 415.656 403.287 415.656C402.201 415.656 401.328 415.262 400.666 414.474C400.005 413.686 399.674 412.651 399.674 411.37C399.674 410.089 400.005 409.053 400.666 408.265C401.328 407.477 402.201 407.083 403.287 407.083C404.373 407.083 405.249 407.477 405.914 408.265ZM404.444 413.201C404.733 412.748 404.879 412.137 404.879 411.37C404.879 410.603 404.734 409.992 404.444 409.538C404.154 409.085 403.768 408.859 403.286 408.859C402.804 408.859 402.421 409.085 402.135 409.538C401.849 409.992 401.706 410.602 401.706 411.37C401.706 412.138 401.849 412.748 402.135 413.201C402.42 413.654 402.804 413.88 403.286 413.88C403.768 413.88 404.154 413.654 404.444 413.201Z" fill="#EFEFFF"/>
<path d="M414.047 408.265C414.712 409.053 415.045 410.088 415.045 411.37C415.045 412.652 414.712 413.686 414.047 414.474C413.381 415.262 412.506 415.656 411.42 415.656C410.334 415.656 409.461 415.262 408.799 414.474C408.138 413.686 407.807 412.651 407.807 411.37C407.807 410.089 408.138 409.053 408.799 408.265C409.461 407.477 410.334 407.083 411.42 407.083C412.506 407.083 413.382 407.477 414.047 408.265ZM412.577 413.201C412.866 412.748 413.012 412.137 413.012 411.37C413.012 410.603 412.867 409.992 412.577 409.538C412.287 409.085 411.901 408.859 411.419 408.859C410.937 408.859 410.554 409.085 410.268 409.538C409.982 409.992 409.839 410.602 409.839 411.37C409.839 412.138 409.982 412.748 410.268 413.201C410.553 413.654 410.937 413.88 411.419 413.88C411.901 413.88 412.287 413.654 412.577 413.201Z" fill="#EFEFFF"/>
<path d="M489.277 77.6086H460.439C457.678 77.6086 455.439 79.8472 455.439 82.6086V94.7996C455.439 97.5611 457.678 99.7996 460.439 99.7996H489.277C492.039 99.7996 494.277 97.5611 494.277 94.7996V82.6086C494.277 79.8472 492.039 77.6086 489.277 77.6086Z" fill="#EFEFFF"/>
<path d="M58.4872 61.1447C57.3432 61.1447 56.3802 60.8887 55.5992 60.3777C54.8182 59.8657 54.2682 59.1707 53.9492 58.2907L55.8962 57.1517C56.3472 58.3287 57.2332 58.9177 58.5532 58.9177C59.1912 58.9177 59.6582 58.8027 59.9552 58.5717C60.2522 58.3407 60.4012 58.0497 60.4012 57.6967C60.4012 57.2897 60.2192 56.9737 59.8572 56.7477C59.4942 56.5217 58.8452 56.2767 57.9102 56.0137C57.3932 55.8597 56.9552 55.7057 56.5982 55.5517C56.2402 55.3977 55.8832 55.1917 55.5252 54.9327C55.1682 54.6747 54.8952 54.3477 54.7082 53.9517C54.5212 53.5557 54.4282 53.0937 54.4282 52.5657C54.4282 51.5207 54.7992 50.6877 55.5422 50.0657C56.2852 49.4437 57.1782 49.1337 58.2232 49.1337C59.1582 49.1337 59.9802 49.3617 60.6902 49.8187C61.4002 50.2757 61.9522 50.9107 62.3482 51.7247L60.4342 52.8297C59.9722 51.8397 59.2352 51.3447 58.2232 51.3447C57.7502 51.3447 57.3792 51.4517 57.1092 51.6667C56.8392 51.8807 56.7052 52.1587 56.7052 52.4997C56.7052 52.8627 56.8562 53.1567 57.1592 53.3827C57.4612 53.6087 58.0412 53.8527 58.9002 54.1167C59.2522 54.2267 59.5192 54.3117 59.7002 54.3717C59.8822 54.4327 60.1292 54.5257 60.4432 54.6527C60.7572 54.7797 60.9982 54.8977 61.1692 55.0067C61.3392 55.1167 61.5352 55.2657 61.7552 55.4527C61.9752 55.6397 62.1432 55.8317 62.2582 56.0307C62.3742 56.2287 62.4732 56.4677 62.5552 56.7487C62.6382 57.0287 62.6792 57.3337 62.6792 57.6647C62.6792 58.7317 62.2912 59.5787 61.5162 60.2057C60.7402 60.8327 59.7312 61.1457 58.4882 61.1457L58.4872 61.1447Z" fill="#EFEFFF"/>
<path d="M68.8001 49.3636C69.9111 49.3636 70.8461 49.7376 71.6051 50.4856C72.3641 51.2346 72.7431 52.1526 72.7431 53.2416C72.7431 54.3306 72.3641 55.2486 71.6051 55.9966C70.8461 56.7446 69.9111 57.1186 68.8001 57.1186H66.7711V60.9136H64.4941V49.3636H68.8001ZM68.8001 54.9896C69.2841 54.9896 69.6851 54.8216 70.0051 54.4866C70.3241 54.1516 70.4841 53.7356 70.4841 53.2406C70.4841 52.7346 70.3241 52.3166 70.0051 51.9866C69.6861 51.6566 69.2841 51.4916 68.8001 51.4916H66.7711V54.9896H68.8001Z" fill="#EFEFFF"/>
<path d="M84.2783 59.4037C83.1123 60.5647 81.6933 61.1447 80.0213 61.1447C78.3493 61.1447 76.9333 60.5647 75.7723 59.4037C74.6113 58.2437 74.0312 56.8217 74.0312 55.1387C74.0312 53.4557 74.6113 52.0347 75.7723 50.8737C76.9333 49.7127 78.3493 49.1327 80.0213 49.1327C81.6933 49.1327 83.1123 49.7127 84.2783 50.8737C85.4443 52.0347 86.0273 53.4557 86.0273 55.1387C86.0273 56.8217 85.4443 58.2437 84.2783 59.4037ZM77.3643 57.8527C78.0793 58.5617 78.9653 58.9167 80.0213 58.9167C81.0773 58.9167 81.9623 58.5627 82.6773 57.8527C83.3923 57.1437 83.7503 56.2387 83.7503 55.1387C83.7503 54.0387 83.3923 53.1317 82.6773 52.4157C81.9623 51.7007 81.0763 51.3437 80.0213 51.3437C78.9663 51.3437 78.0793 51.7007 77.3643 52.4157C76.6493 53.1307 76.2923 54.0387 76.2923 55.1387C76.2923 56.2387 76.6493 57.1437 77.3643 57.8527Z" fill="#EFEFFF"/>
<path d="M94.7221 49.3636H96.9991V60.9136H95.2661L90.3161 53.8516V60.9136H88.0391V49.3636H89.7701L94.7221 56.3996V49.3636Z" fill="#EFEFFF"/>
<path d="M110.892 54.7096V55.6006C110.892 57.2506 110.364 58.5866 109.308 59.6096C108.252 60.6326 106.888 61.1446 105.216 61.1446C103.434 61.1446 101.957 60.5646 100.786 59.4036C99.6153 58.2436 99.0293 56.8266 99.0293 55.1546C99.0293 53.4716 99.6093 52.0476 100.77 50.8806C101.931 49.7146 103.369 49.1316 105.085 49.1316C106.163 49.1316 107.147 49.3766 108.039 49.8656C108.93 50.3556 109.623 51.0076 110.118 51.8216L108.171 52.9436C107.896 52.4706 107.481 52.0856 106.925 51.7886C106.369 51.4916 105.751 51.3436 105.069 51.3436C103.969 51.3436 103.064 51.7036 102.355 52.4246C101.646 53.1456 101.291 54.0556 101.291 55.1556C101.291 56.2446 101.651 57.1436 102.372 57.8536C103.092 58.5626 104.047 58.9176 105.235 58.9176C106.115 58.9176 106.844 58.7226 107.421 58.3326C107.999 57.9416 108.392 57.4056 108.601 56.7236H105.103V54.7106H110.895L110.892 54.7096Z" fill="#EFEFFF"/>
<path d="M115.198 58.7347H120.065V60.9127H112.92V49.3627H119.982V51.5407H115.197V53.9987H119.57V56.1437H115.197V58.7337L115.198 58.7347Z" fill="#EFEFFF"/>
<path d="M122.491 62.5596L121.551 62.5636L128.151 47.7176L129.091 47.7136L122.491 62.5596Z" fill="#EFEFFF"/>
<path d="M135.426 61.1446C134.139 61.1446 133.083 60.7816 132.258 60.0556C131.433 59.3296 131.021 58.3556 131.021 57.1356V49.3646H133.281V56.9546C133.281 57.5596 133.454 58.0376 133.801 58.3906C134.147 58.7426 134.689 58.9186 135.426 58.9186C136.163 58.9186 136.705 58.7426 137.051 58.3906C137.397 58.0386 137.571 57.5596 137.571 56.9546V49.3646H139.848V57.1356C139.848 58.3566 139.436 59.3296 138.611 60.0556C137.786 60.7816 136.724 61.1446 135.426 61.1446Z" fill="#EFEFFF"/>
<path d="M146.251 61.1447C145.107 61.1447 144.144 60.8887 143.363 60.3777C142.582 59.8657 142.032 59.1707 141.713 58.2907L143.66 57.1517C144.111 58.3287 144.997 58.9177 146.317 58.9177C146.955 58.9177 147.422 58.8027 147.719 58.5717C148.016 58.3407 148.165 58.0497 148.165 57.6967C148.165 57.2897 147.983 56.9737 147.621 56.7477C147.258 56.5217 146.609 56.2767 145.674 56.0137C145.157 55.8597 144.719 55.7057 144.362 55.5517C144.004 55.3977 143.647 55.1917 143.289 54.9327C142.932 54.6747 142.659 54.3477 142.472 53.9517C142.285 53.5557 142.192 53.0937 142.192 52.5657C142.192 51.5207 142.563 50.6877 143.306 50.0657C144.049 49.4437 144.942 49.1337 145.987 49.1337C146.922 49.1337 147.744 49.3617 148.454 49.8187C149.164 50.2757 149.716 50.9107 150.112 51.7247L148.198 52.8297C147.736 51.8397 146.999 51.3447 145.987 51.3447C145.514 51.3447 145.143 51.4517 144.873 51.6667C144.603 51.8807 144.469 52.1587 144.469 52.4997C144.469 52.8627 144.62 53.1567 144.923 53.3827C145.225 53.6087 145.805 53.8527 146.664 54.1167C147.016 54.2267 147.283 54.3117 147.464 54.3717C147.646 54.4327 147.893 54.5257 148.207 54.6527C148.521 54.7797 148.762 54.8977 148.933 55.0067C149.103 55.1167 149.299 55.2657 149.519 55.4527C149.739 55.6397 149.907 55.8317 150.022 56.0307C150.138 56.2287 150.237 56.4677 150.319 56.7487C150.402 57.0287 150.443 57.3337 150.443 57.6647C150.443 58.7317 150.055 59.5787 149.28 60.2057C148.504 60.8327 147.495 61.1457 146.252 61.1457L146.251 61.1447Z" fill="#EFEFFF"/>
<path d="M156.845 49.3636C158.429 49.3636 159.751 49.9186 160.813 51.0306C161.874 52.1416 162.405 53.5106 162.405 55.1386C162.405 56.7666 161.874 58.1366 160.813 59.2466C159.751 60.3576 158.429 60.9136 156.845 60.9136H152.258V49.3636H156.845ZM156.845 58.7356C157.845 58.7356 158.66 58.4026 159.287 57.7376C159.914 57.0726 160.227 56.2056 160.227 55.1386C160.227 54.0716 159.914 53.2056 159.287 52.5396C158.66 51.8736 157.846 51.5406 156.845 51.5406H154.535V58.7346L156.845 58.7356Z" fill="#EFEFFF"/>
<path d="M171.414 49.3636V51.5416H168.295V60.9136H166.018V51.5416H162.916V49.3636H171.414Z" fill="#EFEFFF"/>
<path d="M137.415 90.6806C137.415 91.4436 137.172 92.0606 136.687 92.5336C136.202 93.0056 135.569 93.2896 134.789 93.3846V94.5286H133.918V93.3976C133.19 93.3456 132.566 93.1426 132.046 92.7866C131.526 92.4306 131.153 91.9506 130.928 91.3436L132.475 90.4466C132.752 91.1406 133.233 91.5346 133.918 91.6296V89.3806H133.905L133.879 89.3676C133.576 89.2546 133.329 89.1556 133.138 89.0686C132.947 88.9826 132.724 88.8566 132.469 88.6916C132.213 88.5266 132.014 88.3566 131.871 88.1786C131.728 88.0006 131.602 87.7736 131.494 87.4956C131.386 87.2186 131.331 86.9146 131.331 86.5856C131.331 85.8226 131.58 85.2116 132.079 84.7526C132.577 84.2936 133.19 84.0286 133.918 83.9596V82.8286H134.789V83.9856C135.968 84.1246 136.799 84.7356 137.285 85.8186L135.777 86.7026C135.569 86.1826 135.24 85.8666 134.789 85.7536V87.9246C135.595 88.2456 136.137 88.5016 136.414 88.6916C137.081 89.1686 137.415 89.8316 137.415 90.6806ZM133.112 86.5986C133.112 86.7886 133.173 86.9556 133.294 87.0986C133.415 87.2416 133.624 87.3866 133.918 87.5346V85.7146C133.658 85.7666 133.459 85.8706 133.32 86.0266C133.181 86.1826 133.112 86.3736 133.112 86.5986ZM134.789 91.6036C135.344 91.4826 135.621 91.1796 135.621 90.6936C135.621 90.4776 135.554 90.2956 135.419 90.1476C135.285 90.0006 135.075 89.8616 134.789 89.7316V91.6036Z" fill="#EFEFFF"/>
<path d="M140.599 84.1287H142.159V93.2287H140.365V86.0267L138.649 86.5077L138.207 84.9737L140.599 84.1287Z" fill="#EFEFFF"/>
<path d="M146.397 91.4347L145.422 95.0487H144.057L144.577 91.4347H146.397Z" fill="#EFEFFF"/>
<path d="M147.525 84.1287H153.403V85.6497L150.322 93.2297H148.424L151.412 85.8457H147.525V84.1297V84.1287Z" fill="#EFEFFF"/>
<path d="M156.913 87.4437C157.788 87.4437 158.525 87.7057 159.123 88.2307C159.721 88.7557 160.02 89.4847 160.02 90.4207C160.02 91.3567 159.706 92.0887 159.078 92.6177C158.45 93.1467 157.681 93.4107 156.77 93.4107C156.033 93.4107 155.383 93.2457 154.82 92.9167C154.257 92.5877 153.849 92.1027 153.598 91.4607L155.132 90.5637C155.358 91.2917 155.903 91.6557 156.77 91.6557C157.229 91.6557 157.587 91.5457 157.842 91.3247C158.098 91.1037 158.226 90.8027 158.226 90.4207C158.226 90.0477 158.1 89.7497 157.849 89.5237C157.598 89.2987 157.255 89.1857 156.822 89.1857H154.066L154.43 84.1287H159.591V85.8057H156.094L155.977 87.4437H156.913Z" fill="#EFEFFF"/>
<path d="M164.424 87.0796C165.369 87.1056 166.137 87.4116 166.727 87.9966C167.317 88.5816 167.612 89.3296 167.612 90.2386C167.612 91.1666 167.304 91.9266 166.689 92.5206C166.074 93.1146 165.281 93.4116 164.31 93.4116C163.339 93.4116 162.549 93.1176 161.937 92.5276C161.326 91.9386 161.02 91.1756 161.02 90.2396C161.02 89.5466 161.198 88.9356 161.553 88.4066L164.387 84.1296H166.441L164.423 87.0806L164.424 87.0796ZM163.231 91.3176C163.517 91.5866 163.877 91.7206 164.31 91.7206C164.743 91.7206 165.105 91.5866 165.395 91.3176C165.686 91.0486 165.831 90.6896 165.831 90.2386C165.831 89.7966 165.686 89.4416 165.395 89.1726C165.104 88.9036 164.743 88.7696 164.31 88.7696C163.877 88.7696 163.517 88.9016 163.231 89.1656C162.945 89.4306 162.802 89.7876 162.802 90.2376C162.802 90.6876 162.945 91.0496 163.231 91.3176Z" fill="#EFEFFF"/>
<path d="M67.444 90.6816C67.444 91.4446 67.201 92.0616 66.716 92.5346C66.231 93.0066 65.598 93.2906 64.818 93.3856V94.5296H63.947V93.3986C63.219 93.3466 62.595 93.1436 62.075 92.7876C61.555 92.4316 61.182 91.9516 60.957 91.3446L62.504 90.4476C62.781 91.1416 63.262 91.5356 63.947 91.6306V89.3816H63.934L63.908 89.3686C63.605 89.2556 63.358 89.1566 63.167 89.0696C62.976 88.9836 62.753 88.8576 62.498 88.6926C62.242 88.5276 62.043 88.3576 61.9 88.1796C61.757 88.0016 61.631 87.7746 61.523 87.4966C61.415 87.2196 61.36 86.9156 61.36 86.5866C61.36 85.8236 61.609 85.2126 62.108 84.7536C62.606 84.2946 63.219 84.0296 63.947 83.9606V82.8296H64.818V83.9866C65.997 84.1256 66.828 84.7366 67.314 85.8196L65.806 86.7036C65.598 86.1836 65.269 85.8676 64.818 85.7546V87.9256C65.624 88.2466 66.166 88.5026 66.443 88.6926C67.11 89.1696 67.444 89.8326 67.444 90.6816ZM63.141 86.5996C63.141 86.7896 63.202 86.9566 63.323 87.0996C63.444 87.2426 63.653 87.3876 63.947 87.5356V85.7156C63.687 85.7676 63.488 85.8716 63.349 86.0276C63.21 86.1836 63.141 86.3746 63.141 86.5996ZM64.818 91.6046C65.373 91.4836 65.65 91.1806 65.65 90.6946C65.65 90.4786 65.583 90.2966 65.448 90.1486C65.314 90.0016 65.104 89.8626 64.818 89.7326V91.6046Z" fill="#EFEFFF"/>
<path d="M72.1888 93.4116C71.0528 93.4116 70.1628 92.9806 69.5168 92.1186C68.8708 91.2566 68.5488 90.1096 68.5488 88.6806C68.5488 87.2516 68.8718 86.1046 69.5168 85.2426C70.1618 84.3806 71.0528 83.9486 72.1888 83.9486C73.3328 83.9486 74.2248 84.3806 74.8668 85.2426C75.5078 86.1046 75.8288 87.2506 75.8288 88.6806C75.8288 90.1106 75.5078 91.2566 74.8668 92.1186C74.2248 92.9806 73.3328 93.4116 72.1888 93.4116ZM70.8108 90.8956C71.1228 91.4026 71.5818 91.6556 72.1888 91.6556C72.7958 91.6556 73.2568 91.4006 73.5728 90.8886C73.8888 90.3766 74.0478 89.6406 74.0478 88.6786C74.0478 87.7076 73.8898 86.9666 73.5728 86.4556C73.2558 85.9446 72.7948 85.6886 72.1888 85.6886C71.5828 85.6886 71.1228 85.9446 70.8108 86.4556C70.4988 86.9666 70.3428 87.7076 70.3428 88.6786C70.3428 89.6496 70.4988 90.3886 70.8108 90.8956Z" fill="#EFEFFF"/>
<path d="M217.497 90.6806C217.497 91.4436 217.254 92.0606 216.769 92.5336C216.284 93.0056 215.651 93.2896 214.871 93.3846V94.5286H214V93.3976C213.272 93.3456 212.648 93.1426 212.128 92.7866C211.608 92.4306 211.235 91.9506 211.01 91.3436L212.557 90.4466C212.834 91.1406 213.315 91.5346 214 91.6296V89.3806H213.987L213.961 89.3676C213.658 89.2546 213.411 89.1556 213.22 89.0686C213.029 88.9826 212.806 88.8566 212.551 88.6916C212.295 88.5266 212.096 88.3566 211.953 88.1786C211.81 88.0006 211.684 87.7736 211.576 87.4956C211.468 87.2186 211.413 86.9146 211.413 86.5856C211.413 85.8226 211.662 85.2116 212.161 84.7526C212.659 84.2936 213.272 84.0286 214 83.9596V82.8286H214.871V83.9856C216.05 84.1246 216.881 84.7356 217.367 85.8186L215.859 86.7026C215.651 86.1826 215.322 85.8666 214.871 85.7536V87.9246C215.677 88.2456 216.219 88.5016 216.496 88.6916C217.163 89.1686 217.497 89.8316 217.497 90.6806ZM213.194 86.5986C213.194 86.7886 213.255 86.9556 213.376 87.0986C213.497 87.2416 213.706 87.3866 214 87.5346V85.7146C213.74 85.7666 213.541 85.8706 213.402 86.0266C213.263 86.1826 213.194 86.3736 213.194 86.5986ZM214.871 91.6036C215.426 91.4826 215.703 91.1796 215.703 90.6936C215.703 90.4776 215.636 90.2956 215.501 90.1476C215.367 90.0006 215.157 89.8616 214.871 89.7316V91.6036Z" fill="#EFEFFF"/>
<path d="M220.681 84.1287H222.241V93.2287H220.447V86.0267L218.731 86.5077L218.289 84.9737L220.681 84.1287Z" fill="#EFEFFF"/>
<path d="M226.479 91.4347L225.504 95.0487H224.139L224.659 91.4347H226.479Z" fill="#EFEFFF"/>
<path d="M231.142 87.0796C232.087 87.1056 232.855 87.4116 233.445 87.9966C234.035 88.5816 234.33 89.3296 234.33 90.2386C234.33 91.1666 234.022 91.9266 233.407 92.5206C232.792 93.1146 231.999 93.4116 231.028 93.4116C230.057 93.4116 229.267 93.1176 228.655 92.5276C228.044 91.9386 227.738 91.1756 227.738 90.2396C227.738 89.5466 227.916 88.9356 228.271 88.4066L231.105 84.1296H233.159L231.141 87.0806L231.142 87.0796ZM229.949 91.3176C230.235 91.5866 230.595 91.7206 231.028 91.7206C231.461 91.7206 231.823 91.5866 232.113 91.3176C232.404 91.0486 232.549 90.6896 232.549 90.2386C232.549 89.7966 232.404 89.4416 232.113 89.1726C231.822 88.9036 231.461 88.7696 231.028 88.7696C230.595 88.7696 230.235 88.9016 229.949 89.1656C229.663 89.4306 229.52 89.7876 229.52 90.2376C229.52 90.6876 229.663 91.0496 229.949 91.3176Z" fill="#EFEFFF"/>
<path d="M241.065 87.1057C241.065 87.8077 240.887 88.4227 240.532 88.9517L237.698 93.2287H235.644L237.67 90.2647C236.726 90.2467 235.957 89.9457 235.363 89.3607C234.769 88.7757 234.473 88.0247 234.473 87.1057C234.473 86.1787 234.779 85.4197 235.39 84.8307C236.001 84.2417 236.792 83.9467 237.763 83.9467C238.742 83.9467 239.537 84.2397 240.149 84.8247C240.76 85.4097 241.066 86.1697 241.066 87.1057H241.065ZM236.255 87.1057C236.255 87.5567 236.4 87.9167 236.691 88.1847C236.981 88.4537 237.338 88.5877 237.763 88.5877C238.205 88.5877 238.569 88.4537 238.855 88.1847C239.141 87.9157 239.284 87.5567 239.284 87.1057C239.284 86.6547 239.141 86.2977 238.855 86.0337C238.569 85.7687 238.205 85.6377 237.763 85.6377C237.338 85.6377 236.981 85.7717 236.691 86.0407C236.4 86.3097 236.255 86.6637 236.255 87.1057Z" fill="#EFEFFF"/>
<path d="M247.382 88.4967C248.223 88.9987 248.643 89.7317 248.643 90.6937C248.643 91.5347 248.351 92.1977 247.766 92.6827C247.181 93.1677 246.386 93.4107 245.38 93.4107C244.366 93.4107 243.568 93.1677 242.988 92.6827C242.408 92.1977 242.117 91.5347 242.117 90.6937C242.117 89.7317 242.533 88.9997 243.365 88.4967C242.733 88.0377 242.416 87.4097 242.416 86.6117C242.416 85.7717 242.7 85.1167 243.268 84.6487C243.835 84.1807 244.539 83.9467 245.38 83.9467C246.221 83.9467 246.922 84.1807 247.486 84.6487C248.049 85.1167 248.331 85.7717 248.331 86.6117C248.331 87.4177 248.015 88.0467 247.382 88.4967ZM244.308 91.3897C244.581 91.6107 244.938 91.7217 245.38 91.7217C245.822 91.7217 246.18 91.6107 246.453 91.3897C246.726 91.1687 246.862 90.8587 246.862 90.4597C246.862 90.0697 246.726 89.7647 246.453 89.5427C246.18 89.3207 245.822 89.2107 245.38 89.2107C244.938 89.2107 244.581 89.3207 244.308 89.5427C244.035 89.7647 243.898 90.0687 243.898 90.4597C243.898 90.8587 244.035 91.1677 244.308 91.3897ZM246.225 85.9227C246.008 85.7327 245.726 85.6367 245.38 85.6367C245.034 85.6367 244.752 85.7317 244.535 85.9227C244.318 86.1137 244.21 86.3737 244.21 86.7027C244.21 87.0317 244.318 87.2937 244.535 87.4897C244.751 87.6847 245.033 87.7817 245.38 87.7817C245.727 87.7817 246.008 87.6837 246.225 87.4897C246.441 87.2947 246.55 87.0327 246.55 86.7027C246.55 86.3727 246.442 86.1137 246.225 85.9227Z" fill="#EFEFFF"/>
<path d="M292.723 90.6806C292.723 91.4436 292.48 92.0606 291.995 92.5336C291.51 93.0056 290.877 93.2896 290.097 93.3846V94.5286H289.226V93.3976C288.498 93.3456 287.874 93.1426 287.354 92.7866C286.834 92.4306 286.461 91.9506 286.236 91.3436L287.783 90.4466C288.06 91.1406 288.541 91.5346 289.226 91.6296V89.3806H289.213L289.187 89.3676C288.884 89.2546 288.637 89.1556 288.446 89.0686C288.255 88.9826 288.032 88.8566 287.777 88.6916C287.521 88.5266 287.322 88.3566 287.179 88.1786C287.036 88.0006 286.91 87.7736 286.802 87.4956C286.694 87.2186 286.639 86.9146 286.639 86.5856C286.639 85.8226 286.888 85.2116 287.387 84.7526C287.885 84.2936 288.498 84.0286 289.226 83.9596V82.8286H290.097V83.9856C291.276 84.1246 292.107 84.7356 292.593 85.8186L291.085 86.7026C290.877 86.1826 290.548 85.8666 290.097 85.7536V87.9246C290.903 88.2456 291.445 88.5016 291.722 88.6916C292.389 89.1686 292.723 89.8316 292.723 90.6806ZM288.42 86.5986C288.42 86.7886 288.481 86.9556 288.602 87.0986C288.723 87.2416 288.932 87.3866 289.226 87.5346V85.7146C288.966 85.7666 288.767 85.8706 288.628 86.0266C288.489 86.1826 288.42 86.3736 288.42 86.5986ZM290.097 91.6036C290.652 91.4826 290.929 91.1796 290.929 90.6936C290.929 90.4776 290.862 90.2956 290.727 90.1476C290.593 90.0006 290.383 89.8616 290.097 89.7316V91.6036Z" fill="#EFEFFF"/>
<path d="M297.962 87.8207C298.577 88.0027 299.078 88.3207 299.463 88.7767C299.848 89.2327 300.042 89.7797 300.042 90.4217C300.042 91.3577 299.728 92.0897 299.1 92.6187C298.472 93.1477 297.703 93.4117 296.792 93.4117C296.082 93.4117 295.447 93.2487 294.888 92.9237C294.329 92.5987 293.924 92.1197 293.672 91.4867L295.206 90.6027C295.431 91.3047 295.96 91.6557 296.792 91.6557C297.251 91.6557 297.609 91.5457 297.865 91.3247C298.12 91.1037 298.248 90.8027 298.248 90.4207C298.248 90.0477 298.12 89.7497 297.865 89.5237C297.609 89.2987 297.252 89.1857 296.792 89.1857H296.402L295.713 88.1457L297.507 85.8057H293.945V84.1287H299.665V85.6107L297.962 87.8207Z" fill="#EFEFFF"/>
<path d="M300.925 93.2287V91.8897L304.032 88.6917C304.725 87.9637 305.072 87.3577 305.072 86.8717C305.072 86.5167 304.962 86.2307 304.74 86.0137C304.518 85.7967 304.235 85.6887 303.888 85.6887C303.203 85.6887 302.696 86.0437 302.367 86.7547L300.859 85.8707C301.145 85.2467 301.556 84.7697 302.094 84.4407C302.631 84.1117 303.22 83.9467 303.862 83.9467C304.685 83.9467 305.391 84.2047 305.981 84.7207C306.57 85.2367 306.865 85.9317 306.865 86.8067C306.864 87.7497 306.365 88.7187 305.372 89.7137L303.587 91.4997H307.008V93.2287H300.924H300.925Z" fill="#EFEFFF"/>
<path d="M314.991 90.0177V91.6817H314.016V93.2287H312.209V91.6817H307.906V90.0177L310.935 84.1287H312.859L309.844 90.0177H312.209V87.8597H314.016V90.0177H314.991Z" fill="#EFEFFF"/>
<path d="M318.477 91.4347L317.502 95.0487H316.137L316.657 91.4347H318.477Z" fill="#EFEFFF"/>
<path d="M319.605 84.1287H325.483V85.6497L322.402 93.2297H320.504L323.492 85.8457H319.605V84.1297V84.1287Z" fill="#EFEFFF"/>
<path d="M328.876 84.1287H330.436V93.2287H328.642V86.0267L326.926 86.5077L326.484 84.9737L328.876 84.1287Z" fill="#EFEFFF"/>
<path d="M336.284 87.8207C336.899 88.0027 337.4 88.3207 337.785 88.7767C338.17 89.2327 338.364 89.7797 338.364 90.4217C338.364 91.3577 338.05 92.0897 337.422 92.6187C336.794 93.1477 336.025 93.4117 335.114 93.4117C334.404 93.4117 333.769 93.2487 333.21 92.9237C332.651 92.5987 332.246 92.1197 331.994 91.4867L333.528 90.6027C333.753 91.3047 334.282 91.6557 335.114 91.6557C335.573 91.6557 335.931 91.5457 336.187 91.3247C336.442 91.1037 336.57 90.8027 336.57 90.4207C336.57 90.0477 336.442 89.7497 336.187 89.5237C335.931 89.2987 335.574 89.1857 335.114 89.1857H334.724L334.035 88.1457L335.829 85.8057H332.267V84.1287H337.987V85.6107L336.284 87.8207Z" fill="#EFEFFF"/>
<path d="M380.938 87.4437C381.813 87.4437 382.55 87.7057 383.148 88.2307C383.746 88.7557 384.045 89.4847 384.045 90.4207C384.045 91.3567 383.731 92.0887 383.103 92.6177C382.475 93.1467 381.706 93.4107 380.795 93.4107C380.058 93.4107 379.408 93.2457 378.845 92.9167C378.282 92.5877 377.874 92.1027 377.623 91.4607L379.157 90.5637C379.383 91.2917 379.928 91.6557 380.795 91.6557C381.254 91.6557 381.612 91.5457 381.867 91.3247C382.123 91.1037 382.251 90.8027 382.251 90.4207C382.251 90.0477 382.125 89.7497 381.874 89.5237C381.623 89.2987 381.28 89.1857 380.847 89.1857H378.091L378.455 84.1287H383.616V85.8057H380.119L380.002 87.4437H380.938Z" fill="#EFEFFF"/>
<path d="M392.105 90.0177V91.6817H391.13V93.2287H389.323V91.6817H385.02V90.0177L388.049 84.1287H389.973L386.958 90.0177H389.323V87.8597H391.13V90.0177H392.105Z" fill="#EFEFFF"/>
<path d="M395.133 93.0726C394.916 93.2886 394.656 93.3976 394.353 93.3976C394.05 93.3976 393.79 93.2896 393.573 93.0726C393.356 92.8556 393.248 92.5956 393.248 92.2926C393.248 91.9896 393.356 91.7296 393.573 91.5126C393.79 91.2956 394.05 91.1876 394.353 91.1876C394.656 91.1876 394.916 91.2956 395.133 91.5126C395.35 91.7296 395.458 91.9896 395.458 92.2926C395.458 92.5956 395.35 92.8556 395.133 93.0726Z" fill="#EFEFFF"/>
<path d="M396.771 93.2287V91.8897L399.878 88.6917C400.571 87.9637 400.918 87.3577 400.918 86.8717C400.918 86.5167 400.808 86.2307 400.586 86.0137C400.364 85.7967 400.081 85.6887 399.734 85.6887C399.049 85.6887 398.542 86.0437 398.213 86.7547L396.705 85.8707C396.991 85.2467 397.402 84.7697 397.94 84.4407C398.477 84.1117 399.066 83.9467 399.708 83.9467C400.531 83.9467 401.237 84.2047 401.827 84.7207C402.416 85.2367 402.711 85.9317 402.711 86.8067C402.71 87.7497 402.211 88.7187 401.218 89.7137L399.433 91.4997H402.854V93.2287H396.77H396.771Z" fill="#EFEFFF"/>
<path d="M404 93.2287V91.8897L407.107 88.6917C407.8 87.9637 408.147 87.3577 408.147 86.8717C408.147 86.5167 408.037 86.2307 407.815 86.0137C407.593 85.7967 407.31 85.6887 406.963 85.6887C406.278 85.6887 405.771 86.0437 405.442 86.7547L403.934 85.8707C404.22 85.2467 404.631 84.7697 405.169 84.4407C405.706 84.1117 406.295 83.9467 406.937 83.9467C407.76 83.9467 408.466 84.2047 409.056 84.7207C409.645 85.2367 409.94 85.9317 409.94 86.8067C409.939 87.7497 409.44 88.7187 408.447 89.7137L406.662 91.4997H410.083V93.2287H403.999H404Z" fill="#EFEFFF"/>
<path d="M415.087 87.6197C414.671 88.0317 414.151 88.2367 413.527 88.2367C412.903 88.2367 412.381 88.0287 411.96 87.6127C411.539 87.1967 411.33 86.6897 411.33 86.0917C411.33 85.4937 411.54 84.9867 411.96 84.5707C412.38 84.1547 412.903 83.9467 413.527 83.9467C414.151 83.9467 414.671 84.1527 415.087 84.5647C415.503 84.9767 415.711 85.4857 415.711 86.0917C415.711 86.6977 415.503 87.2077 415.087 87.6197ZM412.253 91.8507L418.181 85.2597L418.974 85.7017L413.033 92.3057L412.253 91.8507ZM412.936 86.6837C413.087 86.8437 413.281 86.9237 413.515 86.9237C413.749 86.9237 413.944 86.8437 414.1 86.6837C414.256 86.5237 414.334 86.3267 414.334 86.0917C414.334 85.8567 414.256 85.6627 414.1 85.5067C413.944 85.3507 413.749 85.2727 413.515 85.2727C413.281 85.2727 413.088 85.3507 412.936 85.5067C412.784 85.6627 412.708 85.8577 412.708 86.0917C412.708 86.3257 412.784 86.5237 412.936 86.6837ZM419.481 92.7617C419.065 93.1777 418.545 93.3857 417.921 93.3857C417.297 93.3857 416.777 93.1777 416.361 92.7617C415.945 92.3457 415.737 91.8387 415.737 91.2407C415.737 90.6427 415.945 90.1357 416.361 89.7197C416.777 89.3037 417.297 89.0957 417.921 89.0957C418.545 89.0957 419.065 89.3037 419.481 89.7197C419.897 90.1357 420.105 90.6427 420.105 91.2407C420.105 91.8387 419.897 92.3457 419.481 92.7617ZM417.343 91.8317C417.494 91.9927 417.687 92.0717 417.921 92.0717C418.155 92.0717 418.348 91.9897 418.5 91.8247C418.652 91.6597 418.728 91.4647 418.728 91.2397C418.728 91.0057 418.652 90.8087 418.5 90.6477C418.348 90.4877 418.156 90.4077 417.921 90.4077C417.686 90.4077 417.494 90.4877 417.343 90.6477C417.191 90.8087 417.115 91.0047 417.115 91.2397C417.115 91.4747 417.191 91.6717 417.343 91.8317Z" fill="#EFEFFF"/>
<path d="M507.503 93.2296V91.8906L510.61 88.6926C511.303 87.9646 511.65 87.3586 511.65 86.8726C511.65 86.5176 511.54 86.2316 511.318 86.0146C511.096 85.7976 510.813 85.6896 510.466 85.6896C509.781 85.6896 509.274 86.0446 508.945 86.7556L507.438 85.8716C507.724 85.2476 508.134 84.7706 508.672 84.4416C509.209 84.1126 509.798 83.9476 510.44 83.9476C511.263 83.9476 511.97 84.2056 512.56 84.7216C513.149 85.2376 513.443 85.9326 513.443 86.8076C513.442 87.7506 512.944 88.7196 511.951 89.7146L510.165 91.5006H513.586V93.2296H507.503Z" fill="#EFEFFF"/>
<path d="M521.569 90.0186V91.6826H520.594V93.2296H518.787V91.6826H514.484V90.0186L517.513 84.1296H519.437L516.422 90.0186H518.787V87.8606H520.594V90.0186H521.569Z" fill="#EFEFFF"/>
<path d="M522.492 93.2296V91.8906L525.599 88.6926C526.292 87.9646 526.639 87.3586 526.639 86.8726C526.639 86.5176 526.529 86.2316 526.307 86.0146C526.085 85.7976 525.802 85.6896 525.455 85.6896C524.77 85.6896 524.263 86.0446 523.934 86.7556L522.426 85.8716C522.712 85.2476 523.123 84.7706 523.661 84.4416C524.198 84.1126 524.787 83.9476 525.429 83.9476C526.252 83.9476 526.958 84.2056 527.548 84.7216C528.137 85.2376 528.432 85.9326 528.432 86.8076C528.431 87.7506 527.932 88.7196 526.939 89.7146L525.154 91.5006H528.575V93.2296H522.492Z" fill="#EFEFFF"/>
<path d="M467 84.4006H468.495V93.5006H467V89.5616H463.1V93.5006H461.605V84.4006H463.1V88.1316H467V84.4006Z" fill="#757DFF"/>
<path d="M471.882 85.7587C471.704 85.9367 471.494 86.0257 471.252 86.0257C471.01 86.0257 470.799 85.9367 470.622 85.7587C470.444 85.5817 470.355 85.3707 470.355 85.1287C470.355 84.8867 470.441 84.6757 470.615 84.4987C470.789 84.3217 471.001 84.2317 471.252 84.2317C471.503 84.2317 471.715 84.3207 471.889 84.4987C472.062 84.6767 472.149 84.8867 472.149 85.1287C472.149 85.3707 472.06 85.5817 471.882 85.7587ZM470.549 93.5007V87.0007H471.953V93.5007H470.549Z" fill="#757DFF"/>
<path d="M479.077 87.0007H480.455V93.2017C480.455 94.1897 480.13 94.9477 479.48 95.4767C478.83 96.0047 478.041 96.2697 477.114 96.2697C475.615 96.2697 474.588 95.7457 474.033 94.6967L475.242 93.9947C475.58 94.6617 476.212 94.9957 477.14 94.9957C477.746 94.9957 478.221 94.8377 478.563 94.5207C478.905 94.2037 479.077 93.7647 479.077 93.2017V92.4087C478.548 93.1627 477.794 93.5397 476.815 93.5397C475.897 93.5397 475.121 93.2127 474.488 92.5587C473.856 91.9047 473.539 91.1137 473.539 90.1857C473.539 89.2577 473.855 88.4677 474.488 87.8127C475.121 87.1587 475.897 86.8317 476.815 86.8317C477.794 86.8317 478.548 87.2087 479.077 87.9627V87.0007ZM475.535 91.6417C475.929 92.0317 476.421 92.2267 477.01 92.2267C477.599 92.2267 478.091 92.0317 478.486 91.6417C478.881 91.2517 479.078 90.7667 479.078 90.1857C479.078 89.6047 478.881 89.1197 478.486 88.7297C478.091 88.3397 477.6 88.1447 477.01 88.1447C476.42 88.1447 475.929 88.3397 475.535 88.7297C475.14 89.1197 474.943 89.6047 474.943 90.1857C474.943 90.7667 475.14 91.2517 475.535 91.6417Z" fill="#757DFF"/>
<path d="M485.837 86.8316C486.583 86.8316 487.185 87.0696 487.644 87.5466C488.103 88.0236 488.333 88.6776 488.333 89.5096V93.5006H486.929V89.6526C486.929 89.1676 486.799 88.7946 486.539 88.5346C486.279 88.2746 485.924 88.1446 485.473 88.1446C484.979 88.1446 484.58 88.2986 484.277 88.6056C483.973 88.9136 483.822 89.3836 483.822 90.0166V93.5006H482.418V84.4006H483.822V87.8326C484.246 87.1656 484.918 86.8316 485.837 86.8316Z" fill="#757DFF"/>
</g>
<defs>
<clipPath id="clip0_1473_16334">
<rect width="584" height="468" fill="white" transform="translate(0.375 0.608643)"/>
</clipPath>
</defs>
</svg>
