<svg width="585" height="469" viewBox="0 0 585 469" fill="none" xmlns="http://www.w3.org/2000/svg">
<g clip-path="url(#clip0_1473_16253)">
<rect x="0.375" y="0.608643" width="584" height="468" rx="67" fill="#E4E5FF"/>
<path d="M219.375 -10.3914H402.375V66.6086H219.375V-10.3914Z" fill="#757DFF"/>
<path d="M404.375 -10.3914H584.375V66.6086H404.375V-10.3914Z" fill="#757DFF"/>
<path d="M58.198 54.6315C56.512 54.6315 55.121 54.0725 54.022 52.9515C52.923 51.8325 52.375 50.4515 52.375 48.8085C52.375 47.1545 52.924 45.7695 54.022 44.6565C55.121 43.5415 56.512 42.9845 58.198 42.9845C59.212 42.9845 60.147 43.2205 61.007 43.6955C61.865 44.1705 62.535 44.8125 63.015 45.6235L61.111 46.7285C60.834 46.2265 60.439 45.8335 59.927 45.5505C59.415 45.2695 58.839 45.1265 58.198 45.1265C57.11 45.1265 56.233 45.4685 55.566 46.1515C54.9 46.8335 54.566 47.7175 54.566 48.8075C54.566 49.8835 54.9 50.7645 55.566 51.4465C56.233 52.1305 57.11 52.4715 58.198 52.4715C58.839 52.4715 59.417 52.3285 59.934 52.0455C60.452 51.7645 60.843 51.3775 61.11 50.8875L63.014 51.9915C62.535 52.8025 61.868 53.4445 61.014 53.9195C60.16 54.3945 59.222 54.6315 58.198 54.6315Z" fill="#5A63FF"/>
<path d="M73.9262 52.9445C72.7952 54.0695 71.4192 54.6325 69.7982 54.6325C68.1772 54.6325 66.8032 54.0705 65.6782 52.9445C64.5532 51.8185 63.9902 50.4405 63.9902 48.8095C63.9902 47.1785 64.5522 45.7975 65.6782 44.6725C66.8042 43.5475 68.1772 42.9845 69.7982 42.9845C71.4192 42.9845 72.7952 43.5465 73.9262 44.6725C75.0572 45.7985 75.6222 47.1765 75.6222 48.8095C75.6222 50.4425 75.0572 51.8195 73.9262 52.9445ZM67.2222 51.4405C67.9152 52.1285 68.7742 52.4735 69.7982 52.4735C70.8222 52.4735 71.6812 52.1275 72.3742 51.4405C73.0672 50.7535 73.4142 49.8765 73.4142 48.8095C73.4142 47.7425 73.0672 46.8625 72.3742 46.1685C71.6812 45.4745 70.8222 45.1275 69.7982 45.1275C68.7742 45.1275 67.9152 45.4755 67.2222 46.1685C66.5292 46.8615 66.1822 47.7425 66.1822 48.8095C66.1822 49.8765 66.5292 50.7525 67.2222 51.4405Z" fill="#5A63FF"/>
<path d="M88.3741 43.2085V54.4095H86.1821V47.1455L83.0241 52.3405L82.7661 52.3505L79.6221 47.1725V54.4085H77.4141V43.2075H79.6851L82.8971 48.4965L86.0921 43.2075H88.3731L88.3741 43.2085Z" fill="#5A63FF"/>
<path d="M101.653 43.2085V54.4095H99.4614V47.1455L96.3034 52.3405L96.0454 52.3505L92.9014 47.1725V54.4085H90.6934V43.2075H92.9644L96.1764 48.4965L99.3714 43.2075H101.652L101.653 43.2085Z" fill="#5A63FF"/>
<path d="M108.15 54.6315C106.902 54.6315 105.879 54.2795 105.078 53.5765C104.278 52.8715 103.879 51.9285 103.879 50.7445V43.2075H106.07V50.5685C106.07 51.1545 106.238 51.6195 106.574 51.9595C106.91 52.3015 107.435 52.4735 108.15 52.4735C108.865 52.4735 109.39 52.3015 109.726 51.9595C110.062 51.6195 110.23 51.1545 110.23 50.5685V43.2075H112.438V50.7445C112.438 51.9285 112.038 52.8715 111.238 53.5765C110.438 54.2795 109.409 54.6315 108.15 54.6315Z" fill="#5A63FF"/>
<path d="M121.142 43.2085H123.35V54.4095H121.67L116.87 47.5615V54.4095H114.662V43.2085H116.34L121.142 50.0325V43.2085Z" fill="#5A63FF"/>
<path d="M125.67 43.2085H127.878V54.4095H125.67V43.2085Z" fill="#5A63FF"/>
<path d="M137.605 43.2085V45.3215H134.581V54.4095H132.373V45.3215H129.365V43.2085H137.605Z" fill="#5A63FF"/>
<path d="M147.942 43.2085L144.102 50.0405V54.4095H141.91V50.0425L138.086 43.2085H140.582L143.009 47.8725L145.447 43.2085H147.943H147.942Z" fill="#5A63FF"/>
<path d="M156.26 54.4095L152.5 43.2085H154.9L157.638 51.8195L160.356 43.2085H162.772L158.996 54.4095H156.26Z" fill="#5A63FF"/>
<path d="M173.012 52.9445C171.881 54.0695 170.505 54.6325 168.884 54.6325C167.263 54.6325 165.889 54.0705 164.764 52.9445C163.639 51.8185 163.076 50.4405 163.076 48.8095C163.076 47.1785 163.638 45.7975 164.764 44.6725C165.89 43.5475 167.263 42.9845 168.884 42.9845C170.505 42.9845 171.881 43.5465 173.012 44.6725C174.143 45.7985 174.708 47.1765 174.708 48.8095C174.708 50.4425 174.143 51.8195 173.012 52.9445ZM166.308 51.4405C167.001 52.1285 167.86 52.4735 168.884 52.4735C169.908 52.4735 170.767 52.1275 171.46 51.4405C172.153 50.7535 172.5 49.8765 172.5 48.8095C172.5 47.7425 172.153 46.8625 171.46 46.1685C170.767 45.4745 169.908 45.1275 168.884 45.1275C167.86 45.1275 167.001 45.4755 166.308 46.1685C165.615 46.8615 165.268 47.7425 165.268 48.8095C165.268 49.8765 165.615 50.7525 166.308 51.4405Z" fill="#5A63FF"/>
<path d="M183.269 43.2085V45.3215H180.245V54.4095H178.037V45.3215H175.029V43.2085H183.269Z" fill="#5A63FF"/>
<path d="M186.948 52.2965H191.668V54.4095H184.74V43.2085H191.588V45.3215H186.948V47.7045H191.188V49.7845H186.948V52.2965Z" fill="#5A63FF"/>
<path d="M133.779 20.9108C133.747 20.8308 133.744 20.7055 133.603 20.8308C133.078 21.2961 132.548 21.7575 132.014 22.2148C131.852 22.3534 131.772 22.5014 131.789 22.7254C131.833 23.2961 131.963 23.8561 131.966 24.432C131.969 25.064 131.864 25.684 131.804 26.3093C131.733 27.0506 131.451 27.7253 131.194 28.3999C131.011 28.8799 130.732 29.3306 130.458 29.7772C130.16 30.2639 129.803 30.7105 129.417 31.1158C129.057 31.4932 128.679 31.8651 128.243 32.1758C127.809 32.4851 127.376 32.7825 126.906 33.0384C126.152 33.4504 125.364 33.7331 124.527 33.9304C122.939 34.3038 121.358 34.2304 119.799 33.8464C118.629 33.5571 117.565 32.9998 116.59 32.2745C115.615 31.5492 114.809 30.6732 114.178 29.6479C113.713 28.8959 113.352 28.0946 113.122 27.228C112.877 26.3053 112.689 25.38 112.722 24.4267C112.766 23.1907 113.041 22.0001 113.51 20.8521C113.787 20.1762 114.142 19.5389 114.574 18.9655C115.277 18.0296 116.116 17.2229 117.118 16.5789C117.95 16.043 118.835 15.647 119.777 15.3856C120.38 15.219 121.005 15.1363 121.636 15.0777C123.251 14.9257 124.78 15.2376 126.257 15.839C126.736 16.0336 127.207 16.2776 127.619 16.6083C127.729 16.6963 127.84 16.7216 127.95 16.6189C128.172 16.4123 128.441 16.2803 128.697 16.1283C129.115 15.8816 129.536 15.6416 129.983 15.383C129.801 15.2177 129.629 15.0403 129.439 14.9297C128.869 14.595 128.331 14.2123 127.725 13.9244C126.942 13.5524 126.149 13.243 125.311 13.0244C124.424 12.7937 123.528 12.6484 122.613 12.6124C122.092 12.5924 121.579 12.6564 121.061 12.7097C119.912 12.8271 118.809 13.131 117.75 13.5524C116.991 13.8537 116.273 14.2643 115.589 14.7283C114.9 15.1976 114.27 15.735 113.689 16.3229C113.235 16.7829 112.828 17.2976 112.463 17.8362C112.136 18.3162 111.867 18.8269 111.594 19.3362C111.313 19.8602 111.077 20.4068 110.92 20.9668C110.681 21.8268 110.454 22.6881 110.406 23.6027C110.358 24.512 110.357 25.4187 110.465 26.308C110.603 27.4386 110.957 28.5359 111.444 29.5746C111.75 30.2252 112.1 30.8532 112.516 31.4465C112.88 31.9665 113.271 32.4691 113.716 32.9105C114.085 33.2771 114.46 33.6491 114.897 33.9584C115.339 34.2717 115.768 34.5944 116.238 34.8704C116.835 35.2211 117.45 35.5144 118.092 35.777C118.75 36.0464 119.43 36.2263 120.114 36.3623C121.31 36.5997 122.515 36.701 123.742 36.505C125.021 36.3024 126.257 35.993 127.435 35.4437C128.133 35.1184 128.804 34.7424 129.42 34.2944C129.918 33.9331 130.402 33.5344 130.831 33.0838C131.374 32.5145 131.874 31.9131 132.319 31.2625C132.607 30.8425 132.888 30.4172 133.099 29.9639C133.534 29.0346 133.9 28.0773 134.108 27.06C134.414 25.5613 134.484 24.0694 134.176 22.5654C134.062 22.0081 133.993 21.4415 133.777 20.9095L133.779 20.9108Z" fill="#5A63FF"/>
<path d="M135.316 15.8671C135.207 15.652 134.987 15.6342 134.786 15.6206C134.091 15.5716 133.412 15.6778 132.74 15.8508C131.833 16.0851 130.961 16.416 130.127 16.845C129.628 17.1011 129.128 17.3585 128.642 17.6377C128.245 17.8665 127.868 18.128 127.482 18.3759C127.219 18.5448 126.985 18.7518 126.73 18.9302C126.161 19.3293 125.62 19.7583 125.113 20.2364C124.921 20.4175 124.734 20.6164 124.531 20.773C124.264 20.9786 124.048 21.2292 123.824 21.4649C123.455 21.853 123.087 22.2453 122.746 22.6634C122.278 23.2395 121.827 23.8252 121.421 24.4449C121.285 24.6532 121.128 24.7268 121.031 24.5892C120.693 24.1057 120.359 23.6195 120.024 23.1333C119.699 22.662 119.304 22.248 118.917 21.8299C118.676 21.5684 118.4 21.3341 118.117 21.1176C117.686 20.7893 117.219 20.5292 116.753 20.506C116.265 20.5101 115.622 20.7471 115.313 21.0032C115.158 21.1325 114.998 21.2565 114.846 21.39C114.185 21.9715 114.261 22.4346 114.817 23.0951C114.994 23.3049 115.201 23.4956 115.374 23.7026C115.739 24.1452 116.14 24.5606 116.457 25.0428C116.7 25.4091 116.983 25.7483 117.225 26.116C117.587 26.6717 117.937 27.2355 118.276 27.8048C118.572 28.302 118.821 28.8291 119.136 29.3139C119.504 29.8805 119.898 30.4185 120.646 30.5656C121.592 30.7508 122.342 30.3231 122.79 29.5809C123.137 29.0048 123.482 28.4232 123.85 27.8607C124.338 27.1143 124.858 26.387 125.4 25.6774C125.661 25.337 125.943 25.0142 126.193 24.6641C126.407 24.3672 126.712 24.1371 126.933 23.8442C127.248 23.4261 127.621 23.0611 127.988 22.6974C128.391 22.2984 128.8 21.9007 129.2 21.4975C129.574 21.1216 129.989 20.792 130.365 20.4202C130.752 20.0375 131.194 19.7106 131.619 19.3688C132.353 18.7777 133.085 18.1825 133.834 17.6118C134.273 17.2781 134.722 16.9622 135.149 16.6108C135.361 16.4351 135.439 16.1096 135.318 15.8685L135.316 15.8671Z" fill="#5A63FF"/>
<path d="M318.959 144.326C318.882 144.136 318.876 143.839 318.542 144.136C317.294 145.241 316.035 146.337 314.768 147.423C314.383 147.753 314.192 148.104 314.234 148.636C314.339 149.991 314.647 151.321 314.653 152.689C314.66 154.19 314.412 155.663 314.269 157.148C314.1 158.908 313.43 160.511 312.82 162.113C312.385 163.253 311.724 164.323 311.072 165.384C310.364 166.54 309.515 167.601 308.6 168.563C307.746 169.459 306.846 170.343 305.81 171.081C304.781 171.815 303.752 172.521 302.636 173.129C300.844 174.108 298.973 174.779 296.987 175.248C293.215 176.135 289.46 175.96 285.758 175.048C282.978 174.361 280.452 173.038 278.135 171.315C275.819 169.592 273.906 167.512 272.406 165.077C271.304 163.291 270.446 161.388 269.899 159.33C269.318 157.138 268.87 154.941 268.949 152.677C269.054 149.741 269.706 146.913 270.821 144.187C271.479 142.582 272.321 141.068 273.347 139.706C275.018 137.483 277.01 135.568 279.39 134.038C281.367 132.765 283.467 131.825 285.704 131.204C287.137 130.808 288.621 130.612 290.12 130.473C293.956 130.112 297.587 130.853 301.095 132.281C302.233 132.743 303.351 133.322 304.33 134.108C304.59 134.317 304.854 134.377 305.115 134.133C305.642 133.642 306.281 133.329 306.891 132.968C307.882 132.382 308.883 131.812 309.944 131.198C309.512 130.805 309.102 130.384 308.651 130.121C307.298 129.326 306.02 128.417 304.581 127.733C302.722 126.85 300.838 126.115 298.849 125.596C296.742 125.048 294.613 124.703 292.44 124.618C291.204 124.57 289.984 124.722 288.754 124.849C286.025 125.127 283.407 125.849 280.89 126.85C279.089 127.566 277.382 128.541 275.759 129.643C274.122 130.758 272.626 132.034 271.247 133.43C270.166 134.523 269.2 135.745 268.333 137.024C267.558 138.164 266.919 139.377 266.271 140.587C265.604 141.831 265.041 143.129 264.669 144.459C264.101 146.502 263.564 148.547 263.449 150.72C263.335 152.879 263.332 155.032 263.589 157.145C263.916 159.83 264.758 162.436 265.915 164.903C266.639 166.448 267.472 167.939 268.46 169.349C269.324 170.584 270.252 171.777 271.31 172.825C272.187 173.696 273.077 174.58 274.116 175.314C275.164 176.059 276.184 176.825 277.3 177.48C278.717 178.313 280.178 179.01 281.704 179.634C283.267 180.273 284.881 180.701 286.505 181.024C289.345 181.587 292.208 181.828 295.122 181.363C298.159 180.881 301.095 180.147 303.891 178.842C305.55 178.069 307.145 177.176 308.607 176.112C309.789 175.254 310.939 174.307 311.959 173.237C313.249 171.885 314.434 170.457 315.492 168.912C316.175 167.914 316.842 166.904 317.344 165.827C318.377 163.62 319.248 161.347 319.74 158.931C320.468 155.371 320.633 151.828 319.902 148.256C319.632 146.932 319.467 145.587 318.955 144.323L318.959 144.326Z" fill="#5A63FF"/>
<path d="M322.235 132.229C321.976 131.713 321.45 131.67 320.973 131.637C319.319 131.52 317.7 131.775 316.101 132.19C313.94 132.752 311.864 133.546 309.879 134.576C308.692 135.191 307.501 135.808 306.343 136.478C305.399 137.028 304.501 137.655 303.583 138.25C302.957 138.655 302.399 139.152 301.792 139.58C300.436 140.538 299.148 141.568 297.942 142.715C297.484 143.15 297.04 143.627 296.557 144.003C295.921 144.497 295.405 145.098 294.873 145.664C293.994 146.595 293.118 147.537 292.307 148.54C291.191 149.923 290.117 151.328 289.151 152.816C288.826 153.316 288.453 153.492 288.223 153.162C287.419 152.002 286.624 150.835 285.826 149.668C285.05 148.537 284.11 147.543 283.188 146.54C282.614 145.912 281.959 145.35 281.284 144.83C280.259 144.042 279.147 143.418 278.037 143.362C276.876 143.372 275.345 143.941 274.608 144.555C274.239 144.866 273.859 145.163 273.496 145.484C271.922 146.88 272.104 147.991 273.428 149.576C273.849 150.08 274.342 150.537 274.754 151.034C275.624 152.096 276.577 153.093 277.333 154.251C277.911 155.13 278.585 155.944 279.16 156.826C280.022 158.16 280.856 159.513 281.664 160.88C282.368 162.073 282.961 163.338 283.711 164.501C284.587 165.861 285.524 167.152 287.305 167.505C289.559 167.95 291.344 166.923 292.411 165.142C293.238 163.759 294.059 162.364 294.935 161.014C296.096 159.222 297.335 157.477 298.626 155.774C299.246 154.957 299.917 154.182 300.514 153.342C301.023 152.629 301.75 152.077 302.275 151.374C303.025 150.371 303.914 149.495 304.786 148.622C305.746 147.664 306.72 146.71 307.673 145.742C308.562 144.84 309.552 144.049 310.447 143.156C311.368 142.238 312.419 141.453 313.431 140.633C315.18 139.214 316.922 137.786 318.706 136.416C319.75 135.615 320.821 134.857 321.836 134.014C322.342 133.592 322.527 132.811 322.238 132.232L322.235 132.229Z" fill="#5A63FF"/>
<path d="M298.855 41.7057H301.063V52.9067H299.383L294.583 46.0587V52.9067H292.375V41.7057H294.053L298.855 48.5297V41.7057Z" fill="#EFEFFF"/>
<path d="M305.591 50.7938H310.311V52.9067H303.383V41.7057H310.231V43.8187H305.591V46.2018H309.831V48.2818H305.591V50.7938Z" fill="#EFEFFF"/>
<path d="M314.268 52.9067L311.303 41.7057H313.613L315.767 50.0107L318.103 41.7057H320.015L322.361 49.9887L324.487 41.7057H326.614L323.672 52.9067H321.159L319.038 45.4747L316.931 52.9067H314.269H314.268Z" fill="#EFEFFF"/>
<path d="M331.831 53.1287C330.722 53.1287 329.788 52.8808 329.031 52.3868C328.273 51.8908 327.74 51.2147 327.43 50.3617L329.318 49.2577C329.756 50.3987 330.615 50.9708 331.894 50.9708C332.513 50.9708 332.966 50.8577 333.254 50.6327C333.542 50.4097 333.686 50.1268 333.686 49.7848C333.686 49.3898 333.51 49.0838 333.159 48.8648C332.806 48.6458 332.178 48.4097 331.27 48.1537C330.769 48.0037 330.345 47.8548 329.999 47.7048C329.652 47.5568 329.306 47.3568 328.959 47.1048C328.612 46.8548 328.348 46.5367 328.167 46.1537C327.985 45.7687 327.895 45.3218 327.895 44.8098C327.895 43.7958 328.255 42.9877 328.975 42.3857C329.695 41.7817 330.562 41.4818 331.576 41.4818C332.482 41.4818 333.279 41.7028 333.968 42.1458C334.656 42.5868 335.192 43.2048 335.576 43.9938L333.72 45.0658C333.272 44.1048 332.557 43.6247 331.576 43.6247C331.117 43.6247 330.757 43.7298 330.496 43.9368C330.234 44.1458 330.103 44.4158 330.103 44.7458C330.103 45.0978 330.249 45.3827 330.543 45.6007C330.836 45.8197 331.398 46.0578 332.231 46.3138C332.573 46.4188 332.832 46.5028 333.007 46.5618C333.182 46.6208 333.423 46.7097 333.727 46.8327C334.032 46.9557 334.266 47.0688 334.431 47.1768C334.596 47.2847 334.785 47.4267 334.999 47.6087C335.212 47.7907 335.375 47.9777 335.486 48.1697C335.598 48.3607 335.694 48.5938 335.774 48.8648C335.854 49.1378 335.894 49.4327 335.894 49.7537C335.894 50.7887 335.518 51.6087 334.766 52.2167C334.014 52.8257 333.036 53.1287 331.83 53.1287H331.831Z" fill="#EFEFFF"/>
<path d="M326.154 12.6086C322.912 12.6135 309.944 12.6135 306.702 12.6086C306.54 12.6086 306.49 12.6388 306.491 12.8137C306.498 14.9094 306.493 17.0051 306.499 19.1008C306.499 19.2878 306.458 19.3457 306.26 19.3445C304.375 19.3361 302.49 19.3421 300.604 19.3349C300.423 19.3349 300.374 19.3747 300.375 19.5617C300.382 23.046 300.381 26.5304 300.38 30.0136C300.38 30.3453 300.397 30.6735 300.453 31.0005C300.638 32.0501 301.162 32.8983 302 33.5438C302.737 34.1108 303.59 34.3256 304.516 34.3256C310.191 34.3196 315.866 34.3232 321.542 34.322C321.942 34.322 322.343 34.3316 322.743 34.2894C323.373 34.223 323.969 34.0553 324.498 33.7115C325.752 32.8959 326.371 31.7292 326.37 30.2319C326.37 24.4299 326.37 18.6266 326.375 12.8234C326.375 12.6436 326.323 12.6086 326.154 12.6086ZM306.491 30.3429C306.486 31.6978 305.27 32.6546 304.062 32.4603C302.999 32.289 302.213 31.4059 302.213 30.326C302.213 28.8553 302.213 27.3846 302.213 25.9139C302.213 24.4118 302.217 22.9085 302.206 21.4064C302.205 21.2037 302.268 21.1687 302.453 21.1699C303.733 21.1772 305.013 21.1784 306.292 21.1699C306.469 21.1699 306.498 21.2254 306.498 21.3847C306.493 24.3708 306.503 27.3568 306.491 30.3429ZM324.531 30.3466C324.529 31.5905 323.514 32.4893 322.38 32.4881C317.615 32.4881 312.85 32.4881 308.085 32.4881C308.015 32.4881 307.945 32.4845 307.875 32.4881C307.739 32.4965 307.682 32.4832 307.773 32.3288C307.971 31.9958 308.142 31.6472 308.223 31.2635C308.296 30.9196 308.327 30.5722 308.327 30.2223C308.327 25.05 308.327 19.8766 308.327 14.7043C308.327 14.5322 308.411 14.4461 308.58 14.4461C311.198 14.4461 321.684 14.4485 324.309 14.4413C324.498 14.4413 324.54 14.4944 324.54 14.6754C324.535 19.8995 324.541 25.1224 324.531 30.3466Z" fill="#EFEFFF"/>
<path d="M315.476 23.3176C315.615 23.3176 315.673 23.2995 315.672 23.1366C315.664 21.8251 315.665 20.5137 315.672 19.2022C315.672 19.0719 315.644 19.0297 315.506 19.0309C313.678 19.0357 311.852 19.0357 310.024 19.0321C309.888 19.0321 309.857 19.0719 309.857 19.2034C309.862 20.5149 309.863 21.8263 309.857 23.1378C309.857 23.2777 309.888 23.3188 310.034 23.3176C310.944 23.3103 314.574 23.3115 315.477 23.3176H315.476Z" fill="#EFEFFF"/>
<path d="M310.07 17.203C312.184 17.1958 320.679 17.197 322.813 17.203C322.973 17.203 323.019 17.162 323.011 17.0051C322.998 16.7325 322.998 16.4574 323.011 16.1835C323.02 16.0206 322.981 15.9712 322.806 15.9724C318.686 15.9784 310.14 15.982 309.987 15.976C309.887 15.9712 309.856 16.0037 309.857 16.1051C309.863 16.3983 309.869 16.6914 309.854 16.9834C309.846 17.1535 309.892 17.2042 310.069 17.2042L310.07 17.203Z" fill="#EFEFFF"/>
<path d="M323.01 25.3528C323.021 25.1803 322.965 25.1465 322.8 25.1465C320.679 25.1525 312.184 25.1525 310.057 25.1465C309.907 25.1465 309.843 25.1706 309.853 25.3395C309.869 25.6062 309.872 25.8752 309.852 26.1418C309.836 26.3421 309.906 26.3771 310.092 26.3759C313.74 26.3699 322.21 26.3663 322.796 26.3759C322.956 26.3783 323.022 26.353 323.01 26.1732C322.992 25.9006 322.993 25.6255 323.01 25.3528Z" fill="#EFEFFF"/>
<path d="M322.805 28.2027C318.685 28.2087 314.565 28.2075 310.446 28.2075C310.3 28.2075 310.152 28.2147 310.007 28.2063C309.892 28.1991 309.852 28.2328 309.856 28.3547C309.865 28.6406 309.868 28.9278 309.854 29.2137C309.846 29.3838 309.891 29.4345 310.069 29.4345C312.183 29.4273 320.691 29.4297 322.83 29.4345C322.974 29.4345 323.016 29.4007 323.01 29.2572C322.998 28.9772 322.998 28.6961 323.01 28.4174C323.017 28.2558 322.981 28.2051 322.806 28.2051L322.805 28.2027Z" fill="#EFEFFF"/>
<path d="M322.815 19.0297C321.216 19.0369 319.619 19.0333 318.02 19.0333C317.696 19.0333 317.371 19.0393 317.047 19.0309C316.919 19.0273 316.885 19.0707 316.888 19.1926C316.894 19.4858 316.895 19.7789 316.885 20.0709C316.88 20.2169 316.924 20.2615 317.076 20.2603C318.031 20.2531 318.986 20.2567 319.941 20.2567C320.903 20.2567 321.864 20.2531 322.826 20.2615C322.982 20.2627 323.018 20.2157 323.012 20.0709C323.001 19.791 322.998 19.5099 323.012 19.2312C323.019 19.0731 322.977 19.0309 322.815 19.0321V19.0297Z" fill="#EFEFFF"/>
<path d="M317.065 23.3175C318.02 23.3102 318.975 23.3139 319.93 23.3139C320.898 23.3139 321.866 23.3102 322.833 23.3175C322.979 23.3175 323.015 23.2777 323.011 23.1377C323 22.8518 323 22.5646 323.011 22.2787C323.017 22.1327 322.98 22.0857 322.825 22.0881C322.067 22.0977 321.309 22.0917 320.552 22.0917C319.393 22.0917 318.234 22.0953 317.076 22.0881C316.925 22.0881 316.88 22.1303 316.885 22.2775C316.895 22.5634 316.894 22.8506 316.885 23.1365C316.88 23.2753 316.919 23.3187 317.065 23.3175Z" fill="#EFEFFF"/>
<path d="M459.198 52.154C457.512 52.154 456.121 51.595 455.022 50.474C453.923 49.355 453.375 47.974 453.375 46.331C453.375 44.677 453.924 43.292 455.022 42.179C456.121 41.064 457.512 40.507 459.198 40.507C460.212 40.507 461.147 40.743 462.007 41.218C462.865 41.693 463.535 42.335 464.015 43.146L462.111 44.251C461.834 43.749 461.439 43.356 460.927 43.073C460.415 42.792 459.839 42.649 459.198 42.649C458.11 42.649 457.233 42.991 456.566 43.674C455.9 44.356 455.566 45.24 455.566 46.33C455.566 47.406 455.9 48.287 456.566 48.969C457.233 49.653 458.11 49.9939 459.198 49.9939C459.839 49.9939 460.417 49.851 460.934 49.568C461.452 49.287 461.843 48.9 462.11 48.41L464.014 49.514C463.535 50.325 462.868 50.967 462.014 51.442C461.16 51.917 460.222 52.154 459.198 52.154Z" fill="#EFEFFF"/>
<path d="M471.983 40.731H474.174V51.932H471.983V47.291H467.823V51.932H465.615V40.731H467.823V45.18H471.983V40.731Z" fill="#EFEFFF"/>
<path d="M483.857 51.932L483.145 49.916H478.544L477.872 51.932H475.488L479.408 40.731H482.143L486.094 51.932H483.856H483.857ZM479.263 47.852H482.415L480.799 43.276L479.263 47.852Z" fill="#EFEFFF"/>
<path d="M494.017 40.731V42.844H490.993V51.932H488.785V42.844H485.777V40.731H494.017Z" fill="#EFEFFF"/>
<path d="M506.414 42.844H501.935V45.5H506.287V47.611H501.935V51.931H499.727V40.73H506.415V42.843L506.414 42.844Z" fill="#EFEFFF"/>
<path d="M510.479 49.819H515.199V51.932H508.271V40.731H515.119V42.844H510.479V45.227H514.719V47.307H510.479V49.819Z" fill="#EFEFFF"/>
<path d="M519.2 49.819H523.92V51.932H516.992V40.731H523.84V42.844H519.2V45.227H523.44V47.307H519.2V49.819Z" fill="#EFEFFF"/>
<path d="M530.161 40.731C531.697 40.731 532.979 41.27 534.009 42.348C535.038 43.424 535.553 44.752 535.553 46.332C535.553 47.912 535.038 49.238 534.009 50.314C532.98 51.392 531.697 51.931 530.161 51.931H525.713V40.73L530.161 40.731ZM530.161 49.819C531.132 49.819 531.921 49.497 532.529 48.852C533.136 48.206 533.44 47.366 533.44 46.332C533.44 45.298 533.136 44.457 532.529 43.811C531.921 43.166 531.132 42.844 530.161 42.844H527.921V49.819H530.161Z" fill="#EFEFFF"/>
<path d="M490.68 28.9081C491.32 28.4693 491.93 27.9898 492.457 27.3968C493.089 26.6865 493.628 25.9321 494.015 25.064C494.519 23.9389 494.778 22.7743 494.794 21.532C494.808 20.4834 494.617 19.4886 494.295 18.5117C493.992 17.5899 493.506 16.7577 492.906 15.9948C492.267 15.1842 491.543 14.4572 490.65 13.9383C489.978 13.5485 489.265 13.2424 488.509 13.0009C487.516 12.6828 486.523 12.5919 485.499 12.6111C484.568 12.6278 483.693 12.9064 482.827 13.191C482.343 13.3512 481.891 13.6226 481.441 13.8713C481.018 14.1045 480.641 14.407 480.278 14.7238C479.621 15.3001 479.017 15.9279 478.573 16.6931C478.369 17.0458 478.144 17.3878 477.972 17.7549C477.6 18.5488 477.387 19.3929 477.234 20.2562C476.978 21.697 477.245 23.0744 477.711 24.4291C477.763 24.5798 477.857 24.7149 477.905 24.8667C478.113 25.5208 478.515 26.0636 478.887 26.6244C479.096 26.94 479.388 27.1887 479.377 27.6407C479.352 28.7168 479.036 29.6937 478.503 30.6131C478.424 30.7483 478.325 30.8738 478.603 30.918C479.812 31.1094 480.934 30.9216 481.981 30.252C482.239 30.087 482.459 29.8718 482.733 29.7307C482.812 29.6901 482.863 29.6686 482.948 29.6961C483.956 30.0273 484.968 30.3381 486.043 30.1875C487.22 30.3345 488.306 30.0201 489.359 29.5657C489.81 29.3708 490.278 29.1843 490.68 28.9081ZM481.461 22.7384C480.821 22.7038 480.211 22.2159 480.25 21.4399C480.268 20.6376 480.757 20.1689 481.516 20.151C482.319 20.1319 482.807 20.8325 482.805 21.4316C482.802 22.2087 482.078 22.7707 481.461 22.7384ZM486.018 22.7372C485.367 22.7791 484.583 22.0736 484.718 21.4148C484.719 20.6687 485.244 20.1546 485.997 20.1486C486.791 20.1426 487.265 20.7297 487.267 21.4196C487.269 22.1872 486.71 22.693 486.018 22.7372ZM489.173 21.4088C489.172 20.7165 489.723 20.1558 490.444 20.1606C491.271 20.1665 491.722 20.6316 491.751 21.4029C491.781 22.1717 491.219 22.7002 490.481 22.736C489.77 22.7707 489.092 22.0772 489.173 21.4088Z" fill="#EFEFFF"/>
<path d="M501.25 23.4463C501.094 22.8365 500.827 22.2745 500.538 21.7198C500.284 21.2355 499.973 20.7955 499.621 20.377C499.342 20.0458 499.046 19.7218 498.719 19.4563C498.267 19.0881 497.769 18.7688 497.236 18.5034C496.825 18.2977 496.386 18.1806 495.971 17.9928C495.866 17.945 495.774 17.9905 495.842 18.1208C495.945 18.3205 495.967 18.5381 496.021 18.7485C496.235 19.5903 496.505 20.4248 496.389 21.2307C496.414 21.8764 496.397 22.4372 496.278 22.9896C496.085 23.8839 495.9 24.7843 495.498 25.6129C495.329 25.9596 495.199 26.3243 494.983 26.6543C494.684 27.1111 494.358 27.5463 494.039 27.9875C493.537 28.6834 492.877 29.213 492.241 29.7595C491.717 30.209 491.093 30.5331 490.465 30.8308C490.351 30.8858 490.243 30.9516 490.122 31.0018C489.645 31.2015 489.155 31.3509 488.655 31.4789C488.459 31.5291 488.49 31.6295 488.638 31.706C488.939 31.8627 489.186 32.0922 489.471 32.274C490.682 33.0476 492.003 33.4302 493.425 33.4529C494.375 33.4673 495.321 33.3728 496.224 33.0308C496.401 32.9639 496.574 32.9244 496.715 33.099C496.967 33.4075 497.318 33.5976 497.661 33.7447C498.46 34.0866 499.3 34.2253 500.177 34.0651C500.394 34.0256 500.421 33.9144 500.336 33.7877C500.141 33.4936 500.049 33.1564 499.894 32.8479C499.573 32.2046 499.554 31.5207 499.587 30.826C499.591 30.7507 499.619 30.6897 499.665 30.6359C500.202 29.9926 500.639 29.298 500.942 28.5064C501.293 27.5846 501.539 26.6483 501.574 25.6595C501.602 24.9015 501.437 24.1745 501.25 23.4487V23.4463Z" fill="#EFEFFF"/>
<path d="M165.885 325.017H292.362V343.987H165.885C160.65 343.987 156.4 339.737 156.4 334.502C156.4 329.267 160.65 325.017 165.885 325.017Z" fill="#5A63FF"/>
<path d="M418.865 343.986H292.388V325.016H418.865C424.1 325.016 428.35 329.266 428.35 334.501C428.35 339.736 424.1 343.986 418.865 343.986Z" fill="#FF6497"/>
<path d="M133.231 230.832C132.657 233.929 131.22 236.364 128.922 238.137C126.625 239.91 123.84 240.797 120.568 240.797C116.847 240.797 113.694 239.536 111.109 237.014C108.524 234.491 107.232 231.382 107.232 227.686C107.232 224.015 108.525 220.912 111.109 218.377C113.694 215.842 116.847 214.575 120.568 214.575C123.715 214.575 126.456 215.45 128.791 217.198C131.126 218.945 132.593 221.281 133.193 224.203L127.124 225.627C126.75 223.854 125.982 222.511 124.82 221.599C123.659 220.688 122.241 220.232 120.568 220.232C118.57 220.232 116.879 220.944 115.492 222.367C114.106 223.791 113.413 225.564 113.413 227.687C113.413 229.81 114.106 231.589 115.492 233.025C116.879 234.461 118.57 235.18 120.568 235.18C122.216 235.18 123.621 234.711 124.783 233.775C125.944 232.838 126.737 231.458 127.161 229.635L133.23 230.834L133.231 230.832Z" fill="#5A63FF"/>
<path d="M158.72 218.395C161.305 220.942 162.597 224.051 162.597 227.722C162.597 231.368 161.304 234.459 158.72 236.994C156.136 239.529 152.97 240.796 149.223 240.796C145.476 240.796 142.312 239.528 139.727 236.994C137.142 234.46 135.85 231.369 135.85 227.722C135.85 224.051 137.143 220.942 139.727 218.395C142.312 215.847 145.477 214.573 149.223 214.573C152.969 214.573 156.135 215.847 158.72 218.395ZM154.356 233.023C155.729 231.612 156.416 229.846 156.416 227.723C156.416 225.576 155.729 223.79 154.356 222.366C152.983 220.943 151.272 220.231 149.224 220.231C147.176 220.231 145.466 220.943 144.092 222.366C142.719 223.79 142.031 225.576 142.031 227.723C142.031 229.846 142.718 231.613 144.092 233.023C145.465 234.435 147.176 235.14 149.224 235.14C151.272 235.14 152.983 234.434 154.356 233.023Z" fill="#5A63FF"/>
<path d="M195.032 240.235H189.038V227.723L182.482 240.235H178.661L172.068 227.648V240.235H166.074V215.136H172.143L180.572 230.682L189.001 215.136H195.032V240.235Z" fill="#5A63FF"/>
<path d="M228.329 240.235H222.335V227.723L215.779 240.235H211.958L205.365 227.648V240.235H199.371V215.136H205.44L213.869 230.682L222.298 215.136H228.329V240.235Z" fill="#5A63FF"/>
<path d="M255.109 228.921C255.109 232.517 254.091 235.395 252.056 237.556C250.021 239.717 247.33 240.796 243.983 240.796C240.562 240.796 237.809 239.716 235.723 237.556C233.638 235.395 232.596 232.517 232.596 228.921V215.135H238.777V228.921C238.777 230.819 239.252 232.324 240.2 233.435C241.149 234.546 242.41 235.102 243.983 235.102C245.482 235.102 246.681 234.547 247.579 233.435C248.478 232.324 248.928 230.819 248.928 228.921V215.135H255.109V228.921Z" fill="#5A63FF"/>
<path d="M283.352 240.235H278.257L265.558 225.7V240.235H259.377V215.136H264.509L277.208 230.12V215.136H283.352V240.235Z" fill="#5A63FF"/>
<path d="M287.73 240.235V215.136H293.911V240.235H287.73Z" fill="#5A63FF"/>
<path d="M311.102 220.53V240.234H304.959V220.53H296.83V215.136H319.232V220.53H311.103H311.102Z" fill="#5A63FF"/>
<path d="M336.234 240.235H329.941V232.443L320.238 215.136H326.982L333.163 226.149L339.269 215.136H346.162L336.235 232.368V240.235H336.234Z" fill="#5A63FF"/>
<path d="M370.131 220.53V240.234H363.988V220.53H355.859V215.136H378.261V220.53H370.131Z" fill="#5A63FF"/>
<path d="M396.726 240.235L389.159 231.619H387.361V240.235H381.18V215.136H393.879C396.601 215.136 398.786 215.892 400.435 217.402C402.083 218.913 402.907 220.893 402.907 223.34C402.907 225.388 402.32 227.117 401.146 228.528C399.972 229.939 398.361 230.869 396.314 231.319L404.181 240.235H396.727H396.726ZM393.205 226.449C394.304 226.449 395.184 226.175 395.846 225.625C396.508 225.076 396.839 224.338 396.839 223.415C396.839 222.516 396.508 221.791 395.846 221.242C395.183 220.693 394.304 220.418 393.205 220.418H387.361V226.449H393.205Z" fill="#5A63FF"/>
<path d="M428.673 228.921C428.673 232.517 427.655 235.395 425.62 237.556C423.585 239.717 420.894 240.796 417.547 240.796C414.126 240.796 411.373 239.716 409.287 237.556C407.202 235.395 406.16 232.517 406.16 228.921V215.135H412.341V228.921C412.341 230.819 412.816 232.324 413.764 233.435C414.713 234.546 415.974 235.102 417.547 235.102C419.046 235.102 420.245 234.547 421.143 233.435C422.042 232.324 422.492 230.819 422.492 228.921V215.135H428.673V228.921Z" fill="#5A63FF"/>
<path d="M449.687 216.503C451.535 217.789 452.696 219.569 453.17 221.841L447.101 223.077C446.877 221.954 446.352 221.086 445.528 220.474C444.703 219.862 443.767 219.556 442.718 219.556C441.719 219.556 440.907 219.799 440.283 220.286C439.659 220.773 439.346 221.379 439.346 222.103C439.346 223.202 440.02 223.901 441.369 224.2L446.575 225.361C451.17 226.385 453.468 228.82 453.468 232.666C453.468 235.239 452.481 237.237 450.509 238.66C448.536 240.084 446.076 240.796 443.129 240.796C440.207 240.796 437.728 240.128 435.693 238.792C433.657 237.456 432.478 235.589 432.152 233.191L438.521 231.955C439.12 234.427 440.769 235.663 443.466 235.663C444.615 235.663 445.52 235.426 446.182 234.951C446.844 234.476 447.175 233.852 447.175 233.078C447.175 232.479 447.007 232.004 446.67 231.655C446.332 231.305 445.727 231.043 444.853 230.868L439.609 229.744C435.113 228.721 432.865 226.298 432.865 222.477C432.865 220.055 433.777 218.132 435.6 216.709C437.423 215.285 439.821 214.573 442.792 214.573C445.539 214.573 447.836 215.216 449.685 216.502L449.687 216.503Z" fill="#5A63FF"/>
<path d="M469.387 220.53V240.234H463.244V220.53H455.115V215.136H477.517V220.53H469.388H469.387Z" fill="#5A63FF"/>
<path d="M110.765 298.965C111.028 298.013 111.127 297.044 111.12 296.055C111.11 294.624 110.418 293.547 109.439 292.595C108.615 291.793 107.64 291.227 106.592 290.79C105.753 290.44 104.892 290.171 103.955 290.177C100.885 290.197 97.8146 290.182 94.7446 290.19C94.4946 290.19 94.3496 290.137 94.4316 289.869C94.6506 289.146 94.7276 288.398 94.8296 287.656C95.0276 286.224 95.1306 284.794 94.9196 283.343C94.7426 282.127 94.5276 280.935 94.0886 279.78C93.5936 278.475 92.9086 277.301 91.9486 276.287C90.9486 275.232 89.7546 274.467 88.3256 274.216C86.9976 273.982 85.7596 274.298 84.7706 275.299C84.2946 275.781 84.0416 276.326 84.0576 277.044C84.1006 278.871 84.0696 280.7 84.0726 282.528C84.0726 282.749 84.0266 282.958 83.9486 283.159C83.4236 284.525 82.9416 285.906 82.3516 287.248C81.6826 288.77 80.9296 290.242 79.9856 291.613C79.7516 291.952 79.4796 292.248 79.4816 292.732C79.5016 297.17 79.4936 301.608 79.4936 306.046C79.4936 307.794 79.4956 309.541 79.4936 311.289C79.4896 314.037 79.4836 316.784 79.4746 319.532C79.4746 319.705 79.4766 319.865 79.6826 319.908C80.0276 319.981 80.3656 320.064 80.7286 320.063C87.6966 320.054 94.6636 320.048 101.632 320.067C102.724 320.07 103.585 319.638 104.351 318.926C105.048 318.278 105.531 317.476 105.916 316.624C106.288 315.8 106.587 314.944 106.636 314.022C106.656 313.633 106.774 313.308 107.11 313.023C107.913 312.343 108.385 311.421 108.685 310.433C109.031 309.291 109.164 308.109 109.102 306.914C109.085 306.598 109.192 306.379 109.381 306.146C110.177 305.162 110.576 304.02 110.628 302.762C110.66 301.994 110.583 301.238 110.31 300.506C110.235 300.305 110.215 300.089 110.391 299.87C110.595 299.616 110.677 299.282 110.765 298.965Z" fill="#5A63FF"/>
<path d="M76.8387 292.707C76.3107 291.315 74.6887 290.178 73.2037 290.182C69.0767 290.193 64.9487 290.193 60.8217 290.178C60.1007 290.175 59.4277 290.282 58.7707 290.59C57.4187 291.223 56.4947 292.637 56.4867 294.018C56.4617 298.099 56.4777 302.181 56.4777 306.262C56.4777 310.228 56.4837 314.195 56.4727 318.161C56.4707 318.983 56.6417 319.746 57.0897 320.431C57.8607 321.611 58.9237 322.328 60.3717 322.331C64.6487 322.341 68.9257 322.332 73.2027 322.338C73.6307 322.338 74.0347 322.279 74.4397 322.131C76.1207 321.518 77.1637 320.005 77.1657 318.273C77.1747 310.363 77.1657 302.453 77.1577 294.543C77.1577 293.916 77.0677 293.309 76.8397 292.706L76.8387 292.707Z" fill="#5A63FF"/>
<path d="M41.711 377.362C44.339 377.362 46.56 378.138 48.378 379.689C50.195 381.24 51.104 383.381 51.104 386.111C51.104 388.815 50.176 390.95 48.32 392.514C46.465 394.079 44.21 394.861 41.56 394.861C39.438 394.861 37.543 394.35 35.873 393.33C34.203 392.31 33.035 390.831 32.373 388.896L35.514 387.107C35.886 388.459 36.601 389.487 37.661 390.189C38.721 390.891 40.02 391.243 41.559 391.243C43.308 391.243 44.727 390.792 45.814 389.891C46.901 388.99 47.444 387.73 47.444 386.112C47.444 384.494 46.9 383.229 45.814 382.315C44.727 381.4 43.335 380.943 41.638 380.943H33.764L34.758 366.508H50.029V369.968H38.138L37.648 377.364H41.708L41.711 377.362Z" fill="#5A63FF"/>
<path d="M72.3024 390.923C70.4194 393.548 67.7814 394.86 64.3884 394.86C60.9954 394.86 58.3564 393.548 56.4734 390.923C54.5904 388.298 53.6504 384.799 53.6504 380.424C53.6504 376.049 54.5904 372.55 56.4734 369.926C58.3564 367.301 60.9934 365.989 64.3884 365.989C67.7834 365.989 70.4194 367.301 72.3024 369.926C74.1844 372.55 75.1264 376.05 75.1264 380.424C75.1264 384.798 74.1844 388.298 72.3024 390.923ZM59.1784 388.418C60.3984 390.301 62.1344 391.242 64.3884 391.242C66.6424 391.242 68.3854 390.301 69.6184 388.418C70.8504 386.535 71.4674 383.871 71.4674 380.424C71.4674 376.977 70.8504 374.307 69.6184 372.411C68.3854 370.515 66.6414 369.567 64.3884 369.567C62.1354 369.567 60.3984 370.509 59.1784 372.391C57.9584 374.274 57.3494 376.952 57.3494 380.424C57.3494 383.871 57.9584 386.535 59.1784 388.418Z" fill="#5A63FF"/>
<path d="M80.5333 394.781C79.8173 394.781 79.2063 394.529 78.7033 394.025C78.2003 393.521 77.9473 392.911 77.9473 392.195C77.9473 391.479 78.1993 390.869 78.7033 390.365C79.2073 389.861 79.8173 389.609 80.5333 389.609C81.2743 389.609 81.8913 389.861 82.3823 390.365C82.8723 390.869 83.1173 391.479 83.1173 392.195C83.1173 392.911 82.8723 393.521 82.3823 394.025C81.8913 394.528 81.2743 394.781 80.5333 394.781Z" fill="#5A63FF"/>
<path d="M104.634 390.923C102.751 393.548 100.113 394.86 96.7204 394.86C93.3274 394.86 90.6884 393.548 88.8054 390.923C86.9224 388.298 85.9824 384.799 85.9824 380.424C85.9824 376.049 86.9224 372.55 88.8054 369.926C90.6884 367.301 93.3254 365.989 96.7204 365.989C100.115 365.989 102.751 367.301 104.634 369.926C106.516 372.55 107.458 376.05 107.458 380.424C107.458 384.798 106.516 388.298 104.634 390.923ZM91.5104 388.418C92.7304 390.301 94.4664 391.242 96.7204 391.242C98.9744 391.242 100.717 390.301 101.95 388.418C103.182 386.535 103.799 383.871 103.799 380.424C103.799 376.977 103.182 374.307 101.95 372.411C100.717 370.515 98.9734 369.567 96.7204 369.567C94.4674 369.567 92.7304 370.509 91.5104 372.391C90.2904 374.274 89.6814 376.952 89.6814 380.424C89.6814 383.871 90.2904 386.535 91.5104 388.418Z" fill="#5A63FF"/>
<path d="M116.922 378.317C115.119 378.317 113.621 377.721 112.429 376.528C111.236 375.335 110.639 373.877 110.639 372.154C110.639 370.458 111.242 369.006 112.448 367.799C113.655 366.593 115.145 365.99 116.922 365.99C118.724 365.99 120.223 366.587 121.415 367.78C122.608 368.972 123.205 370.431 123.205 372.154C123.205 373.877 122.615 375.335 121.435 376.528C120.255 377.721 118.752 378.317 116.922 378.317ZM112.508 390.406L131 369.727L132.948 370.801L114.416 391.52L112.508 390.406ZM114.635 374.48C115.232 375.103 115.993 375.414 116.922 375.414C117.851 375.414 118.612 375.096 119.209 374.46C119.805 373.824 120.103 373.055 120.103 372.154C120.103 371.253 119.805 370.49 119.209 369.867C118.612 369.245 117.85 368.932 116.922 368.932C115.994 368.932 115.232 369.244 114.635 369.867C114.038 370.49 113.74 371.253 113.74 372.154C113.74 373.083 114.038 373.857 114.635 374.481V374.48ZM133.425 393.031C132.232 394.224 130.734 394.821 128.932 394.821C127.13 394.821 125.631 394.224 124.439 393.031C123.246 391.838 122.649 390.38 122.649 388.657C122.649 386.934 123.246 385.476 124.439 384.283C125.631 383.09 127.129 382.493 128.932 382.493C130.735 382.493 132.232 383.09 133.425 384.283C134.618 385.476 135.215 386.934 135.215 388.657C135.215 390.38 134.618 391.838 133.425 393.031ZM126.645 390.944C127.242 391.567 128.003 391.879 128.932 391.879C129.861 391.879 130.622 391.567 131.219 390.944C131.815 390.321 132.113 389.558 132.113 388.657C132.113 387.756 131.815 386.993 131.219 386.37C130.622 385.748 129.86 385.435 128.932 385.435C128.004 385.435 127.242 385.747 126.645 386.37C126.048 386.993 125.75 387.756 125.75 388.657C125.75 389.558 126.048 390.321 126.645 390.944Z" fill="#5A63FF"/>
<path d="M527.925 297.516C528.188 298.468 528.287 299.437 528.28 300.426C528.27 301.857 527.578 302.934 526.599 303.886C525.775 304.688 524.8 305.254 523.752 305.691C522.913 306.041 522.052 306.31 521.115 306.304C518.045 306.284 514.975 306.299 511.905 306.291C511.655 306.291 511.51 306.344 511.592 306.612C511.811 307.335 511.888 308.083 511.99 308.825C512.188 310.257 512.291 311.687 512.08 313.138C511.903 314.354 511.688 315.546 511.249 316.701C510.754 318.006 510.069 319.18 509.109 320.194C508.109 321.249 506.915 322.014 505.486 322.265C504.158 322.499 502.92 322.183 501.931 321.182C501.455 320.7 501.202 320.155 501.218 319.437C501.261 317.61 501.23 315.781 501.233 313.953C501.233 313.732 501.187 313.523 501.109 313.322C500.584 311.956 500.102 310.575 499.512 309.233C498.843 307.711 498.09 306.239 497.146 304.868C496.912 304.529 496.64 304.233 496.642 303.749C496.662 299.311 496.654 294.873 496.654 290.435C496.654 288.687 496.656 286.94 496.654 285.192C496.65 282.444 496.644 279.697 496.635 276.949C496.635 276.776 496.637 276.616 496.843 276.573C497.188 276.5 497.526 276.417 497.889 276.418C504.857 276.427 511.824 276.433 518.792 276.414C519.884 276.411 520.745 276.843 521.511 277.555C522.208 278.203 522.691 279.005 523.076 279.857C523.448 280.681 523.747 281.537 523.796 282.459C523.816 282.848 523.934 283.173 524.27 283.458C525.073 284.138 525.545 285.06 525.845 286.048C526.191 287.19 526.324 288.372 526.262 289.567C526.245 289.883 526.352 290.102 526.541 290.335C527.337 291.319 527.736 292.461 527.788 293.719C527.82 294.487 527.743 295.243 527.47 295.975C527.395 296.176 527.375 296.392 527.551 296.611C527.755 296.865 527.837 297.199 527.925 297.516Z" fill="#FF6497"/>
<path d="M493.999 303.774C493.471 305.166 491.849 306.303 490.364 306.299C486.237 306.288 482.109 306.288 477.982 306.303C477.261 306.306 476.588 306.199 475.931 305.891C474.579 305.258 473.655 303.844 473.647 302.463C473.622 298.382 473.638 294.3 473.638 290.219C473.638 286.253 473.644 282.286 473.633 278.32C473.631 277.498 473.802 276.735 474.25 276.05C475.021 274.87 476.084 274.153 477.532 274.15C481.809 274.14 486.086 274.149 490.363 274.143C490.791 274.143 491.195 274.202 491.6 274.35C493.281 274.963 494.324 276.476 494.326 278.208C494.335 286.118 494.326 294.028 494.318 301.938C494.318 302.565 494.228 303.172 494 303.775L493.999 303.774Z" fill="#FF6497"/>
<path d="M458.871 377.362C461.499 377.362 463.72 378.138 465.538 379.689C467.355 381.24 468.264 383.381 468.264 386.111C468.264 388.815 467.336 390.95 465.48 392.514C463.625 394.079 461.37 394.861 458.72 394.861C456.598 394.861 454.703 394.35 453.033 393.33C451.363 392.31 450.195 390.831 449.533 388.896L452.674 387.107C453.046 388.459 453.761 389.487 454.821 390.189C455.881 390.891 457.18 391.243 458.719 391.243C460.468 391.243 461.887 390.792 462.974 389.891C464.061 388.99 464.604 387.73 464.604 386.112C464.604 384.494 464.06 383.229 462.974 382.315C461.887 381.4 460.495 380.943 458.798 380.943H450.924L451.918 366.508H467.189V369.968H455.298L454.808 377.364H458.868L458.871 377.362Z" fill="#FF6497"/>
<path d="M489.463 390.923C487.58 393.548 484.942 394.86 481.549 394.86C478.156 394.86 475.517 393.548 473.634 390.923C471.751 388.298 470.811 384.799 470.811 380.424C470.811 376.049 471.751 372.55 473.634 369.926C475.517 367.301 478.154 365.989 481.549 365.989C484.944 365.989 487.58 367.301 489.463 369.926C491.345 372.55 492.287 376.05 492.287 380.424C492.287 384.798 491.345 388.298 489.463 390.923ZM476.339 388.418C477.559 390.301 479.295 391.242 481.549 391.242C483.803 391.242 485.546 390.301 486.779 388.418C488.011 386.535 488.628 383.871 488.628 380.424C488.628 376.977 488.011 374.307 486.779 372.411C485.546 370.515 483.802 369.567 481.549 369.567C479.296 369.567 477.559 370.509 476.339 372.391C475.119 374.274 474.51 376.952 474.51 380.424C474.51 383.871 475.119 386.535 476.339 388.418Z" fill="#FF6497"/>
<path d="M497.693 394.781C496.977 394.781 496.366 394.529 495.863 394.025C495.36 393.521 495.107 392.911 495.107 392.195C495.107 391.479 495.359 390.869 495.863 390.365C496.367 389.861 496.977 389.609 497.693 389.609C498.434 389.609 499.051 389.861 499.542 390.365C500.032 390.869 500.277 391.479 500.277 392.195C500.277 392.911 500.032 393.521 499.542 394.025C499.051 394.528 498.434 394.781 497.693 394.781Z" fill="#FF6497"/>
<path d="M521.793 390.923C519.91 393.548 517.272 394.86 513.879 394.86C510.486 394.86 507.847 393.548 505.964 390.923C504.081 388.298 503.141 384.799 503.141 380.424C503.141 376.049 504.081 372.55 505.964 369.926C507.847 367.301 510.484 365.989 513.879 365.989C517.274 365.989 519.91 367.301 521.793 369.926C523.675 372.55 524.617 376.05 524.617 380.424C524.617 384.798 523.675 388.298 521.793 390.923ZM508.669 388.418C509.889 390.301 511.625 391.242 513.879 391.242C516.133 391.242 517.876 390.301 519.109 388.418C520.341 386.535 520.958 383.871 520.958 380.424C520.958 376.977 520.341 374.307 519.109 372.411C517.876 370.515 516.132 369.567 513.879 369.567C511.626 369.567 509.889 370.509 508.669 372.391C507.449 374.274 506.84 376.952 506.84 380.424C506.84 383.871 507.449 386.535 508.669 388.418Z" fill="#FF6497"/>
<path d="M534.082 378.317C532.279 378.317 530.781 377.721 529.589 376.528C528.396 375.335 527.799 373.877 527.799 372.154C527.799 370.458 528.402 369.006 529.608 367.799C530.815 366.593 532.305 365.99 534.082 365.99C535.884 365.99 537.383 366.587 538.575 367.78C539.768 368.972 540.365 370.431 540.365 372.154C540.365 373.877 539.775 375.335 538.595 376.528C537.415 377.721 535.912 378.317 534.082 378.317ZM529.668 390.406L548.16 369.727L550.108 370.801L531.576 391.52L529.668 390.406ZM531.795 374.48C532.392 375.103 533.153 375.414 534.082 375.414C535.011 375.414 535.772 375.096 536.369 374.46C536.965 373.824 537.263 373.055 537.263 372.154C537.263 371.253 536.965 370.49 536.369 369.867C535.772 369.245 535.01 368.932 534.082 368.932C533.154 368.932 532.392 369.244 531.795 369.867C531.198 370.49 530.9 371.253 530.9 372.154C530.9 373.083 531.198 373.857 531.795 374.481V374.48ZM550.585 393.031C549.392 394.224 547.894 394.821 546.092 394.821C544.29 394.821 542.791 394.224 541.599 393.031C540.406 391.838 539.809 390.38 539.809 388.657C539.809 386.934 540.406 385.476 541.599 384.283C542.791 383.09 544.289 382.493 546.092 382.493C547.895 382.493 549.392 383.09 550.585 384.283C551.778 385.476 552.375 386.934 552.375 388.657C552.375 390.38 551.778 391.838 550.585 393.031ZM543.805 390.944C544.402 391.567 545.163 391.879 546.092 391.879C547.021 391.879 547.782 391.567 548.379 390.944C548.975 390.321 549.273 389.558 549.273 388.657C549.273 387.756 548.975 386.993 548.379 386.37C547.782 385.748 547.02 385.435 546.092 385.435C545.164 385.435 544.402 385.747 543.805 386.37C543.208 386.993 542.91 387.756 542.91 388.657C542.91 389.558 543.208 390.321 543.805 390.944Z" fill="#FF6497"/>
</g>
<defs>
<clipPath id="clip0_1473_16253">
<rect x="0.375" y="0.608643" width="584" height="468" rx="67" fill="white"/>
</clipPath>
</defs>
</svg>
