<svg width="584" height="468" viewBox="0 0 584 468" fill="none" xmlns="http://www.w3.org/2000/svg">
<g clip-path="url(#clip0_1473_16564)">
<path d="M60 468H524C557.14 468 584 441.14 584 408V60C584 26.86 557.14 0 524 0H60C26.86 0 0 26.86 0 60V408C0 441.14 26.86 468 60 468Z" fill="#E4E5FF"/>
<path d="M390.331 162.964C386.955 162.964 384.228 160.216 384.228 156.832C384.228 105.245 342.458 63.2717 291.119 63.2717C239.78 63.2717 198.009 105.245 198.009 156.832C198.009 160.224 195.274 162.964 191.907 162.964C188.54 162.964 185.805 160.216 185.805 156.832C185.805 98.4777 233.054 51 291.127 51C349.2 51 396.449 98.4777 396.449 156.832C396.433 160.216 393.698 162.964 390.331 162.964Z" fill="#5A63FF"/>
<path d="M192.032 162.964C188.587 162.964 185.805 160.216 185.805 156.833C185.805 134.602 192.728 113.337 205.819 95.3153C207.822 92.5591 211.711 91.9237 214.511 93.8959C217.31 95.8681 217.955 99.697 215.952 102.453C204.378 118.371 198.259 137.177 198.259 156.825C198.268 160.216 195.477 162.964 192.032 162.964Z" fill="#FF6497"/>
<path d="M243.601 107.219H253.108V150.43H242.064V118.824L234.53 120.74L231.873 111.423L243.601 107.219Z" fill="#5A63FF"/>
<path d="M285.074 127.838C288.898 130.229 290.815 133.702 290.815 138.266C290.815 142.298 289.411 145.477 286.621 147.802C283.822 150.126 279.856 151.293 274.704 151.293C269.523 151.293 265.528 150.126 262.729 147.802C259.93 145.477 258.535 142.298 258.535 138.266C258.535 133.692 260.452 130.219 264.276 127.838C261.439 125.741 260.015 122.856 260.015 119.194C260.015 115.161 261.391 112.011 264.152 109.753C266.904 107.494 270.424 106.356 274.704 106.356C278.945 106.356 282.437 107.494 285.198 109.781C287.959 112.068 289.335 115.209 289.335 119.194C289.335 122.856 287.912 125.741 285.074 127.838ZM274.704 141.169C276.222 141.169 277.465 140.771 278.404 139.964C279.353 139.158 279.827 138.085 279.827 136.728C279.827 135.334 279.353 134.224 278.404 133.426C277.455 132.62 276.222 132.221 274.704 132.221C273.138 132.221 271.895 132.62 270.975 133.426C270.045 134.233 269.589 135.334 269.589 136.728C269.589 138.085 270.054 139.167 270.975 139.964C271.895 140.771 273.138 141.169 274.704 141.169ZM274.704 116.357C273.385 116.357 272.35 116.698 271.582 117.372C270.823 118.055 270.443 118.947 270.443 120.057C270.443 121.205 270.823 122.116 271.582 122.771C272.341 123.426 273.385 123.758 274.704 123.758C275.937 123.758 276.943 123.416 277.73 122.742C278.508 122.059 278.907 121.167 278.907 120.057C278.907 118.947 278.518 118.055 277.73 117.372C276.952 116.698 275.937 116.357 274.704 116.357Z" fill="#5A63FF"/>
<path d="M295.732 146.274L293.521 146.283L309.045 111.375L311.255 111.366L295.732 146.274Z" fill="#5A63FF"/>
<path d="M333.09 124.128C333.09 126.225 332.558 128.056 331.496 129.641L323.041 142.403H316.912L322.956 133.559C320.138 133.512 317.842 132.611 316.077 130.865C314.302 129.119 313.42 126.87 313.42 124.137C313.42 121.367 314.331 119.108 316.153 117.353C317.974 115.598 320.337 114.715 323.231 114.715C326.153 114.715 328.526 115.588 330.347 117.334C332.179 119.061 333.09 121.338 333.09 124.128ZM318.733 124.128C318.733 125.475 319.17 126.547 320.033 127.344C320.897 128.151 321.969 128.549 323.231 128.549C324.55 128.549 325.632 128.151 326.486 127.344C327.34 126.547 327.767 125.466 327.767 124.128C327.767 122.78 327.34 121.718 326.486 120.93C325.632 120.143 324.55 119.744 323.231 119.744C321.96 119.744 320.897 120.143 320.033 120.949C319.17 121.746 318.733 122.809 318.733 124.128Z" fill="#5A63FF"/>
<path d="M354.543 124.128C354.543 126.225 354.011 128.056 352.949 129.641L344.494 142.403H338.365L344.409 133.559C341.591 133.512 339.295 132.611 337.53 130.865C335.755 129.119 334.873 126.87 334.873 124.137C334.873 121.367 335.784 119.108 337.606 117.353C339.428 115.598 341.79 114.715 344.684 114.715C347.607 114.715 349.979 115.588 351.801 117.334C353.632 119.061 354.543 121.338 354.543 124.128ZM340.187 124.128C340.187 125.475 340.623 126.547 341.487 127.344C342.35 128.151 343.422 128.549 344.684 128.549C346.003 128.549 347.085 128.151 347.939 127.344C348.793 126.547 349.22 125.466 349.22 124.128C349.22 122.78 348.793 121.718 347.939 120.93C347.085 120.143 346.003 119.744 344.684 119.744C343.413 119.744 342.35 120.143 341.487 120.949C340.623 121.746 340.187 122.809 340.187 124.128Z" fill="#5A63FF"/>
<path d="M230.545 185.879C233.781 185.879 236.495 186.999 238.668 189.247C240.85 191.496 241.932 194.276 241.932 197.607C241.932 200.937 240.84 203.727 238.668 205.966C236.485 208.205 233.781 209.334 230.545 209.334H221V185.879H230.545ZM230.545 203.537C232.177 203.537 233.506 202.996 234.531 201.914C235.555 200.833 236.068 199.4 236.068 197.607C236.068 195.823 235.555 194.39 234.531 193.299C233.506 192.217 232.177 191.676 230.545 191.676H227.158V203.537H230.545Z" fill="#5A63FF"/>
<path d="M250.717 203.698H259.798V209.325H244.721V185.869H259.627V191.468H250.717V194.713H258.792V200.244H250.717V203.698Z" fill="#5A63FF"/>
<path d="M281.775 209.325H275.076L271.395 203.082L267.713 209.325H260.977L268.027 197.369L261.242 185.869H267.979L271.395 191.667L274.811 185.869H281.548L274.754 197.379L281.775 209.325Z" fill="#5A63FF"/>
<path d="M289.438 197.398C289.438 197.683 289.732 197.92 290.311 198.11C290.899 198.299 291.573 198.518 292.351 198.764C293.129 199.011 293.935 199.277 294.77 199.542C295.605 199.808 296.317 200.349 296.886 201.155C297.455 201.952 297.74 202.968 297.74 204.182C297.74 206.099 297.019 207.522 295.586 208.433C294.144 209.344 292.446 209.809 290.462 209.809C286.714 209.809 284.21 208.48 282.957 205.824L287.815 203.376C288.242 204.6 289.106 205.216 290.434 205.216C291.44 205.216 291.943 204.922 291.943 204.324C291.943 204.011 291.658 203.765 291.089 203.565C290.519 203.366 289.846 203.138 289.077 202.873C288.309 202.607 287.511 202.332 286.686 202.047C285.861 201.763 285.168 201.25 284.608 200.501C284.048 199.751 283.773 198.831 283.773 197.739C283.773 195.956 284.437 194.57 285.756 193.583C287.085 192.597 288.679 192.113 290.538 192.113C293.84 192.113 296.146 193.403 297.436 196.003L292.749 198.11C292.256 197.151 291.563 196.667 290.671 196.667C289.855 196.667 289.438 196.904 289.438 197.398Z" fill="#5A63FF"/>
<path d="M307.931 209.799C305.388 209.799 303.263 208.955 301.564 207.256C299.866 205.558 299.021 203.461 299.021 200.956C299.021 198.451 299.866 196.354 301.564 194.656C303.263 192.957 305.388 192.113 307.931 192.113C309.582 192.113 311.091 192.502 312.438 193.289C313.786 194.077 314.829 195.121 315.569 196.44L310.816 199.191C310.208 198.1 309.241 197.55 307.903 197.55C306.963 197.55 306.185 197.872 305.559 198.508C304.933 199.144 304.62 199.969 304.62 200.975C304.62 201.981 304.933 202.797 305.559 203.442C306.185 204.078 306.963 204.4 307.903 204.4C309.288 204.4 310.256 203.841 310.816 202.721L315.569 205.463C314.829 206.801 313.786 207.864 312.438 208.642C311.091 209.41 309.592 209.799 307.931 209.799Z" fill="#5A63FF"/>
<path d="M325.161 209.799C322.684 209.799 320.568 208.945 318.832 207.237C317.086 205.53 316.213 203.433 316.213 200.956C316.213 198.48 317.086 196.383 318.832 194.675C320.568 192.967 322.684 192.113 325.161 192.113C327.666 192.113 329.781 192.967 331.508 194.675C333.235 196.383 334.108 198.48 334.108 200.956C334.108 203.433 333.245 205.53 331.508 207.237C329.772 208.945 327.656 209.799 325.161 209.799ZM325.161 204.438C326.138 204.438 326.954 204.116 327.59 203.471C328.225 202.825 328.548 201.99 328.548 200.956C328.548 199.931 328.225 199.087 327.59 198.442C326.954 197.796 326.147 197.474 325.161 197.474C324.202 197.474 323.405 197.796 322.769 198.442C322.134 199.087 321.811 199.931 321.811 200.956C321.811 201.981 322.134 202.825 322.769 203.471C323.396 204.116 324.193 204.438 325.161 204.438Z" fill="#5A63FF"/>
<path d="M342.117 195.69C342.43 194.599 343.056 193.745 343.996 193.147C344.935 192.54 345.979 192.246 347.146 192.246V198.413C345.874 198.214 344.717 198.451 343.673 199.115C342.639 199.789 342.117 200.88 342.117 202.398V209.334H336.557V192.578H342.117V195.69Z" fill="#5A63FF"/>
<path d="M353.769 202.996C354.329 204.362 355.581 205.036 357.517 205.036C358.722 205.036 359.737 204.647 360.563 203.86L364.586 206.678C362.935 208.756 360.534 209.79 357.384 209.79C354.547 209.79 352.27 208.955 350.562 207.294C348.854 205.634 348 203.527 348 200.975C348 198.451 348.835 196.345 350.514 194.646C352.194 192.948 354.319 192.103 356.91 192.103C359.415 192.103 361.483 192.938 363.106 194.618C364.738 196.297 365.554 198.394 365.554 200.918C365.554 201.658 365.478 202.351 365.316 202.996H353.769ZM353.703 199.144H360.136C359.69 197.578 358.637 196.8 356.986 196.8C355.268 196.8 354.177 197.578 353.703 199.144Z" fill="#5A63FF"/>
<path d="M85.3904 241.956C87.2881 241.956 88.8917 242.601 90.1821 243.872C91.482 245.153 92.1272 246.719 92.1272 248.588C92.1272 250.448 91.482 252.023 90.1821 253.304C88.8822 254.585 87.2881 255.221 85.3904 255.221H81.9176V261.711H78.0273V241.956H85.3904ZM85.3904 251.577C86.2159 251.577 86.9086 251.292 87.4494 250.714C87.9997 250.144 88.2654 249.433 88.2654 248.579C88.2654 247.715 87.9903 247.004 87.4494 246.434C86.8991 245.875 86.2159 245.59 85.3904 245.59H81.9176V251.568H85.3904V251.577Z" fill="#5A63FF"/>
<path d="M97.8389 250.031C98.1805 249.129 98.7403 248.455 99.5184 248C100.296 247.545 101.169 247.326 102.128 247.326V251.387C101.018 251.255 100.021 251.482 99.1483 252.071C98.2754 252.649 97.8389 253.627 97.8389 254.974V261.72H94.1953V247.611H97.8389V250.031Z" fill="#5A63FF"/>
<path d="M115.725 259.946C114.273 261.388 112.509 262.1 110.421 262.1C108.334 262.1 106.569 261.379 105.127 259.946C103.684 258.504 102.973 256.739 102.973 254.651C102.973 252.564 103.694 250.799 105.127 249.357C106.569 247.915 108.334 247.203 110.421 247.203C112.509 247.203 114.273 247.924 115.725 249.357C117.177 250.799 117.898 252.564 117.898 254.651C117.898 256.739 117.177 258.504 115.725 259.946ZM107.698 257.451C108.419 258.181 109.33 258.551 110.421 258.551C111.512 258.551 112.423 258.181 113.154 257.451C113.884 256.72 114.254 255.781 114.254 254.661C114.254 253.541 113.884 252.602 113.154 251.871C112.423 251.141 111.503 250.771 110.421 250.771C109.33 250.771 108.419 251.141 107.698 251.871C106.977 252.602 106.607 253.541 106.607 254.661C106.607 255.781 106.977 256.72 107.698 257.451Z" fill="#5A63FF"/>
<path d="M120.526 261.995V247.601H124.17V261.995C124.17 264.064 123.667 265.573 122.661 266.521C121.656 267.47 120.109 267.878 118.021 267.746V264.244C118.885 264.301 119.521 264.149 119.929 263.789C120.318 263.438 120.526 262.84 120.526 261.995ZM122.358 245.912C121.741 245.912 121.21 245.694 120.764 245.248C120.327 244.802 120.099 244.28 120.099 243.683C120.099 243.075 120.318 242.554 120.764 242.098C121.21 241.643 121.741 241.424 122.358 241.424C122.965 241.424 123.487 241.652 123.923 242.098C124.369 242.554 124.588 243.075 124.588 243.683C124.588 244.28 124.369 244.802 123.923 245.248C123.487 245.685 122.965 245.912 122.358 245.912Z" fill="#5A63FF"/>
<path d="M130.564 256.151C131.048 257.916 132.377 258.807 134.54 258.807C135.935 258.807 136.988 258.342 137.7 257.394L140.632 259.083C139.237 261.094 137.187 262.1 134.483 262.1C132.149 262.1 130.28 261.398 128.866 259.984C127.452 258.57 126.75 256.796 126.75 254.651C126.75 252.526 127.443 250.752 128.837 249.338C130.232 247.915 132.016 247.203 134.198 247.203C136.267 247.203 137.975 247.915 139.322 249.347C140.67 250.78 141.343 252.545 141.343 254.651C141.343 255.126 141.296 255.619 141.201 256.151H130.564ZM130.507 253.333H137.7C137.491 252.374 137.064 251.663 136.419 251.188C135.774 250.714 135.033 250.486 134.208 250.486C133.231 250.486 132.424 250.733 131.779 251.236C131.143 251.729 130.716 252.431 130.507 253.333Z" fill="#5A63FF"/>
<path d="M150.491 262.1C148.366 262.1 146.592 261.388 145.178 259.956C143.755 258.523 143.043 256.758 143.043 254.651C143.043 252.545 143.755 250.78 145.178 249.347C146.601 247.915 148.376 247.203 150.491 247.203C151.867 247.203 153.12 247.535 154.239 248.19C155.369 248.854 156.222 249.736 156.811 250.847L153.68 252.678C153.395 252.099 152.968 251.634 152.399 251.293C151.829 250.951 151.184 250.78 150.463 250.78C149.372 250.78 148.47 251.141 147.749 251.871C147.038 252.592 146.677 253.522 146.677 254.651C146.677 255.762 147.038 256.682 147.749 257.403C148.461 258.124 149.362 258.494 150.463 258.494C151.194 258.494 151.848 258.333 152.427 258.001C152.996 257.669 153.433 257.213 153.708 256.635L156.868 258.437C156.241 259.548 155.369 260.439 154.239 261.104C153.11 261.768 151.858 262.1 150.491 262.1Z" fill="#5A63FF"/>
<path d="M166.85 251.103H163.662V256.967C163.662 257.46 163.785 257.811 164.032 258.039C164.278 258.266 164.639 258.39 165.104 258.418C165.578 258.447 166.157 258.447 166.85 258.409V261.711C164.345 261.995 162.589 261.758 161.555 261.009C160.53 260.259 160.018 258.912 160.018 256.976V251.112H157.561V247.611H160.018V244.764L163.662 243.664V247.611H166.85V251.103Z" fill="#5A63FF"/>
<path d="M180.343 250.031C180.684 249.129 181.244 248.455 182.022 248C182.8 247.545 183.673 247.326 184.632 247.326V251.387C183.521 251.255 182.525 251.482 181.652 252.071C180.779 252.649 180.343 253.627 180.343 254.974V261.72H176.699V247.611H180.343V250.031Z" fill="#5A63FF"/>
<path d="M189.289 256.151C189.773 257.916 191.101 258.807 193.265 258.807C194.659 258.807 195.713 258.342 196.424 257.394L199.356 259.083C197.961 261.094 195.912 262.1 193.208 262.1C190.874 262.1 189.004 261.398 187.591 259.984C186.177 258.57 185.475 256.796 185.475 254.651C185.475 252.526 186.167 250.752 187.562 249.338C188.957 247.915 190.741 247.203 192.923 247.203C194.992 247.203 196.699 247.915 198.047 249.347C199.394 250.78 200.068 252.545 200.068 254.651C200.068 255.126 200.02 255.619 199.926 256.151H189.289ZM189.232 253.333H196.424C196.216 252.374 195.789 251.663 195.143 251.188C194.498 250.714 193.758 250.486 192.933 250.486C191.955 250.486 191.149 250.733 190.504 251.236C189.858 251.729 189.441 252.431 189.232 253.333Z" fill="#5A63FF"/>
<path d="M202.602 261.711V241.111H206.245V261.711H202.602Z" fill="#5A63FF"/>
<path d="M211.378 245.912C210.78 245.912 210.249 245.694 209.813 245.248C209.367 244.802 209.148 244.28 209.148 243.683C209.148 243.075 209.367 242.554 209.813 242.098C210.249 241.643 210.78 241.424 211.378 241.424C212.004 241.424 212.526 241.652 212.972 242.098C213.409 242.554 213.636 243.075 213.636 243.683C213.636 244.28 213.418 244.802 212.972 245.248C212.526 245.685 212.004 245.912 211.378 245.912ZM209.575 261.711V247.601H213.219V261.711H209.575Z" fill="#5A63FF"/>
<path d="M227.261 247.602H230.905V261.711H227.261V260.041C226.17 261.417 224.633 262.1 222.659 262.1C220.78 262.1 219.167 261.379 217.82 259.946C216.473 258.504 215.799 256.739 215.799 254.651C215.799 252.564 216.473 250.799 217.82 249.357C219.167 247.915 220.78 247.203 222.659 247.203C224.633 247.203 226.17 247.886 227.261 249.262V247.602ZM220.553 257.517C221.283 258.257 222.223 258.627 223.342 258.627C224.471 258.627 225.411 258.257 226.151 257.517C226.891 256.777 227.27 255.819 227.27 254.651C227.27 253.484 226.9 252.536 226.151 251.786C225.411 251.046 224.471 250.676 223.342 250.676C222.213 250.676 221.283 251.046 220.553 251.786C219.822 252.526 219.452 253.484 219.452 254.651C219.452 255.819 219.812 256.777 220.553 257.517Z" fill="#5A63FF"/>
<path d="M242.416 247.203C244.314 247.203 245.936 247.924 247.284 249.357C248.631 250.799 249.305 252.564 249.305 254.651C249.305 256.739 248.631 258.504 247.284 259.946C245.936 261.388 244.314 262.1 242.416 262.1C240.443 262.1 238.915 261.417 237.843 260.041V261.711H234.199V241.956H237.843V249.262C238.915 247.896 240.443 247.203 242.416 247.203ZM238.943 257.517C239.674 258.257 240.613 258.627 241.733 258.627C242.862 258.627 243.802 258.257 244.542 257.517C245.282 256.777 245.661 255.819 245.661 254.651C245.661 253.484 245.291 252.535 244.542 251.786C243.802 251.046 242.862 250.676 241.733 250.676C240.604 250.676 239.674 251.046 238.943 251.786C238.213 252.526 237.843 253.484 237.843 254.651C237.843 255.819 238.213 256.777 238.943 257.517Z" fill="#5A63FF"/>
<path d="M253.677 245.912C253.079 245.912 252.548 245.694 252.111 245.248C251.666 244.802 251.447 244.28 251.447 243.683C251.447 243.075 251.666 242.554 252.111 242.098C252.548 241.643 253.079 241.424 253.677 241.424C254.303 241.424 254.825 241.652 255.271 242.098C255.708 242.554 255.935 243.075 255.935 243.683C255.935 244.28 255.717 244.802 255.271 245.248C254.825 245.685 254.294 245.912 253.677 245.912ZM251.865 261.711V247.601H255.508V261.711H251.865Z" fill="#5A63FF"/>
<path d="M258.84 261.711V241.111H262.483V261.711H258.84Z" fill="#5A63FF"/>
<path d="M267.618 245.912C267.021 245.912 266.489 245.694 266.053 245.248C265.607 244.802 265.389 244.28 265.389 243.683C265.389 243.075 265.607 242.554 266.053 242.098C266.489 241.643 267.021 241.424 267.618 241.424C268.245 241.424 268.767 241.652 269.213 242.098C269.649 242.554 269.877 243.075 269.877 243.683C269.877 244.28 269.658 244.802 269.213 245.248C268.767 245.685 268.235 245.912 267.618 245.912ZM265.806 261.711V247.601H269.45V261.711H265.806Z" fill="#5A63FF"/>
<path d="M280.844 251.103H277.656V256.967C277.656 257.46 277.779 257.811 278.026 258.039C278.273 258.266 278.633 258.39 279.098 258.418C279.572 258.447 280.151 258.447 280.844 258.409V261.711C278.339 261.995 276.584 261.758 275.549 261.009C274.525 260.259 274.012 258.912 274.012 256.976V251.112H271.555V247.611H274.012V244.764L277.656 243.664V247.611H280.844V251.103Z" fill="#5A63FF"/>
<path d="M292.921 247.601H296.812L291.669 261.73C290.938 263.741 289.961 265.212 288.756 266.123C287.541 267.034 286.033 267.442 284.23 267.356V263.969C285.207 263.988 285.985 263.779 286.554 263.343C287.124 262.906 287.589 262.214 287.921 261.255L282.133 247.601H286.108L289.79 257.08L292.921 247.601Z" fill="#5A63FF"/>
<path d="M308.948 251.606C308.948 251.985 309.195 252.289 309.698 252.526C310.191 252.763 310.799 252.972 311.52 253.143C312.231 253.323 312.953 253.551 313.664 253.826C314.376 254.101 314.983 254.557 315.486 255.192C315.989 255.838 316.236 256.635 316.236 257.593C316.236 259.045 315.695 260.155 314.613 260.933C313.531 261.711 312.184 262.1 310.561 262.1C307.667 262.1 305.694 260.98 304.641 258.741L307.8 256.967C308.218 258.191 309.138 258.798 310.561 258.798C311.861 258.798 312.507 258.399 312.507 257.583C312.507 257.204 312.26 256.9 311.757 256.663C311.254 256.426 310.647 256.217 309.935 256.027C309.224 255.838 308.502 255.6 307.791 255.325C307.07 255.041 306.472 254.595 305.969 253.987C305.466 253.38 305.219 252.611 305.219 251.691C305.219 250.296 305.732 249.205 306.757 248.408C307.781 247.611 309.053 247.213 310.58 247.213C311.729 247.213 312.772 247.469 313.712 247.991C314.651 248.512 315.401 249.243 315.941 250.201L312.839 251.89C312.383 250.932 311.634 250.448 310.58 250.448C310.106 250.448 309.717 250.552 309.413 250.761C309.11 250.97 308.948 251.255 308.948 251.606Z" fill="#5A63FF"/>
<path d="M325.087 262.1C322.962 262.1 321.187 261.388 319.774 259.956C318.35 258.523 317.639 256.758 317.639 254.651C317.639 252.545 318.35 250.78 319.774 249.347C321.197 247.915 322.971 247.203 325.087 247.203C326.463 247.203 327.715 247.535 328.835 248.19C329.964 248.854 330.818 249.736 331.406 250.847L328.275 252.678C327.991 252.099 327.564 251.634 326.994 251.293C326.425 250.951 325.78 250.78 325.059 250.78C323.968 250.78 323.066 251.141 322.345 251.871C321.633 252.592 321.273 253.522 321.273 254.651C321.273 255.762 321.633 256.682 322.345 257.403C323.057 258.124 323.958 258.494 325.059 258.494C325.789 258.494 326.444 258.333 327.023 258.001C327.592 257.669 328.029 257.213 328.304 256.635L331.463 258.437C330.837 259.548 329.964 260.439 328.835 261.104C327.715 261.768 326.463 262.1 325.087 262.1Z" fill="#5A63FF"/>
<path d="M345.184 259.946C343.732 261.388 341.968 262.1 339.88 262.1C337.793 262.1 336.028 261.379 334.586 259.946C333.143 258.513 332.432 256.739 332.432 254.651C332.432 252.564 333.153 250.799 334.586 249.357C336.018 247.915 337.793 247.203 339.88 247.203C341.968 247.203 343.732 247.924 345.184 249.357C346.636 250.79 347.357 252.564 347.357 254.651C347.357 256.739 346.626 258.504 345.184 259.946ZM337.157 257.451C337.878 258.181 338.789 258.551 339.88 258.551C340.971 258.551 341.882 258.181 342.613 257.451C343.343 256.72 343.713 255.781 343.713 254.661C343.713 253.541 343.343 252.602 342.613 251.871C341.882 251.141 340.962 250.771 339.88 250.771C338.789 250.771 337.878 251.141 337.157 251.871C336.436 252.602 336.066 253.541 336.066 254.661C336.066 255.781 336.426 256.72 337.157 257.451Z" fill="#5A63FF"/>
<path d="M353.563 250.031C353.905 249.129 354.465 248.455 355.243 248C356.021 247.545 356.894 247.326 357.852 247.326V251.387C356.742 251.255 355.746 251.482 354.873 252.071C354 252.649 353.563 253.627 353.563 254.974V261.72H349.92V247.611H353.563V250.031Z" fill="#5A63FF"/>
<path d="M362.502 256.151C362.986 257.916 364.314 258.807 366.478 258.807C367.872 258.807 368.926 258.342 369.637 257.394L372.569 259.083C371.174 261.094 369.125 262.1 366.421 262.1C364.086 262.1 362.217 261.398 360.803 259.984C359.39 258.57 358.688 256.796 358.688 254.651C358.688 252.526 359.38 250.752 360.775 249.338C362.17 247.915 363.954 247.203 366.136 247.203C368.204 247.203 369.912 247.915 371.26 249.347C372.607 250.78 373.281 252.545 373.281 254.651C373.281 255.126 373.233 255.619 373.138 256.151H362.502ZM362.445 253.333H369.637C369.428 252.374 369.001 251.663 368.356 251.188C367.711 250.714 366.971 250.486 366.145 250.486C365.168 250.486 364.362 250.733 363.716 251.236C363.081 251.729 362.654 252.431 362.445 253.333Z" fill="#5A63FF"/>
<path d="M391.08 247.203C392.978 247.203 394.601 247.924 395.948 249.357C397.295 250.799 397.969 252.564 397.969 254.651C397.969 256.739 397.295 258.504 395.948 259.946C394.601 261.388 392.978 262.1 391.08 262.1C389.107 262.1 387.579 261.417 386.507 260.041V261.711H382.863V241.956H386.507V249.262C387.589 247.896 389.107 247.203 391.08 247.203ZM387.617 257.517C388.348 258.257 389.287 258.627 390.407 258.627C391.536 258.627 392.475 258.257 393.215 257.517C393.955 256.777 394.335 255.819 394.335 254.651C394.335 253.484 393.965 252.535 393.215 251.786C392.475 251.046 391.536 250.676 390.407 250.676C389.278 250.676 388.348 251.046 387.617 251.786C386.886 252.526 386.516 253.484 386.516 254.651C386.516 255.819 386.877 256.777 387.617 257.517Z" fill="#5A63FF"/>
<path d="M411.263 247.602H414.906V261.711H411.263V260.041C410.172 261.417 408.635 262.1 406.661 262.1C404.782 262.1 403.169 261.379 401.822 259.946C400.474 258.504 399.801 256.739 399.801 254.651C399.801 252.564 400.474 250.799 401.822 249.357C403.169 247.915 404.782 247.203 406.661 247.203C408.635 247.203 410.172 247.886 411.263 249.262V247.602ZM404.545 257.517C405.276 258.257 406.215 258.627 407.335 258.627C408.464 258.627 409.403 258.257 410.143 257.517C410.883 256.777 411.263 255.819 411.263 254.651C411.263 253.484 410.893 252.536 410.143 251.786C409.403 251.046 408.464 250.676 407.335 250.676C406.206 250.676 405.276 251.046 404.545 251.786C403.814 252.526 403.444 253.484 403.444 254.651C403.444 255.819 403.814 256.777 404.545 257.517Z" fill="#5A63FF"/>
<path d="M421.445 251.606C421.445 251.985 421.691 252.289 422.194 252.526C422.688 252.763 423.295 252.972 424.016 253.143C424.728 253.323 425.449 253.551 426.16 253.826C426.872 254.101 427.479 254.557 427.982 255.192C428.485 255.838 428.732 256.635 428.732 257.593C428.732 259.045 428.191 260.155 427.109 260.933C426.027 261.711 424.68 262.1 423.058 262.1C420.164 262.1 418.19 260.98 417.137 258.741L420.296 256.967C420.714 258.191 421.634 258.798 423.058 258.798C424.357 258.798 425.003 258.399 425.003 257.583C425.003 257.204 424.756 256.9 424.253 256.663C423.75 256.426 423.143 256.217 422.431 256.027C421.72 255.838 420.999 255.6 420.287 255.325C419.566 255.041 418.968 254.595 418.465 253.987C417.962 253.38 417.716 252.611 417.716 251.691C417.716 250.296 418.228 249.205 419.253 248.408C420.277 247.611 421.549 247.213 423.077 247.213C424.225 247.213 425.268 247.469 426.208 247.991C427.147 248.512 427.897 249.243 428.438 250.201L425.335 251.89C424.879 250.932 424.13 250.448 423.077 250.448C422.602 250.448 422.213 250.552 421.909 250.761C421.606 250.97 421.445 251.255 421.445 251.606Z" fill="#5A63FF"/>
<path d="M433.949 256.151C434.433 257.916 435.761 258.807 437.925 258.807C439.32 258.807 440.373 258.342 441.084 257.394L444.016 259.083C442.622 261.094 440.572 262.1 437.868 262.1C435.534 262.1 433.664 261.398 432.251 259.984C430.837 258.57 430.135 256.796 430.135 254.651C430.135 252.526 430.827 250.752 432.222 249.338C433.617 247.915 435.401 247.203 437.583 247.203C439.652 247.203 441.36 247.915 442.707 249.347C444.054 250.78 444.728 252.545 444.728 254.651C444.728 255.126 444.681 255.619 444.586 256.151H433.949ZM433.892 253.333H441.084C440.876 252.374 440.449 251.663 439.804 251.188C439.158 250.714 438.418 250.486 437.593 250.486C436.615 250.486 435.809 250.733 435.164 251.236C434.518 251.729 434.101 252.431 433.892 253.333Z" fill="#5A63FF"/>
<path d="M457.843 241.956H461.487V261.711H457.843V260.041C456.771 261.417 455.243 262.1 453.27 262.1C451.372 262.1 449.749 261.379 448.402 259.946C447.055 258.504 446.381 256.739 446.381 254.651C446.381 252.564 447.055 250.799 448.402 249.357C449.749 247.915 451.372 247.203 453.27 247.203C455.243 247.203 456.771 247.886 457.843 249.262V241.956ZM451.144 257.517C451.884 258.257 452.824 258.627 453.953 258.627C455.082 258.627 456.012 258.257 456.742 257.517C457.473 256.777 457.843 255.819 457.843 254.651C457.843 253.484 457.473 252.535 456.742 251.786C456.012 251.046 455.082 250.676 453.953 250.676C452.824 250.676 451.884 251.046 451.144 251.786C450.404 252.526 450.034 253.484 450.034 254.651C450.034 255.819 450.404 256.777 451.144 257.517Z" fill="#5A63FF"/>
<path d="M483.889 259.946C482.438 261.388 480.673 262.1 478.585 262.1C476.498 262.1 474.733 261.379 473.291 259.946C471.848 258.513 471.137 256.739 471.137 254.651C471.137 252.564 471.858 250.799 473.291 249.357C474.723 247.915 476.498 247.203 478.585 247.203C480.673 247.203 482.438 247.924 483.889 249.357C485.341 250.799 486.062 252.564 486.062 254.651C486.062 256.739 485.341 258.504 483.889 259.946ZM475.862 257.451C476.583 258.181 477.494 258.551 478.585 258.551C479.676 258.551 480.587 258.181 481.318 257.451C482.048 256.72 482.419 255.781 482.419 254.661C482.419 253.541 482.048 252.602 481.318 251.871C480.587 251.141 479.667 250.771 478.585 250.771C477.494 250.771 476.583 251.141 475.862 251.871C475.141 252.602 474.771 253.541 474.771 254.661C474.771 255.781 475.141 256.72 475.862 257.451Z" fill="#5A63FF"/>
<path d="M496.47 247.203C498.017 247.203 499.288 247.715 500.294 248.759C501.3 249.793 501.803 251.226 501.803 253.048V261.711H498.159V253.503C498.159 252.564 497.903 251.843 497.4 251.349C496.888 250.856 496.214 250.6 495.369 250.6C494.43 250.6 493.68 250.894 493.111 251.473C492.542 252.052 492.267 252.934 492.267 254.092V261.711H488.623V247.602H492.267V249.186C493.149 247.867 494.553 247.203 496.47 247.203Z" fill="#5A63FF"/>
<path d="M508.719 251.274C508.244 251.748 507.684 251.976 507.03 251.976C506.375 251.976 505.806 251.738 505.341 251.274C504.866 250.799 504.639 250.239 504.639 249.585C504.639 248.93 504.876 248.361 505.341 247.896C505.806 247.431 506.375 247.193 507.03 247.193C507.694 247.193 508.254 247.431 508.719 247.896C509.193 248.37 509.421 248.93 509.421 249.585C509.421 250.239 509.184 250.799 508.719 251.274ZM508.719 261.369C508.244 261.844 507.684 262.071 507.03 262.071C506.375 262.071 505.806 261.834 505.341 261.369C504.866 260.895 504.639 260.335 504.639 259.68C504.639 259.026 504.876 258.456 505.341 257.991C505.815 257.517 506.375 257.289 507.03 257.289C507.694 257.289 508.254 257.526 508.719 257.991C509.193 258.466 509.421 259.026 509.421 259.68C509.421 260.335 509.184 260.904 508.719 261.369Z" fill="#5A63FF"/>
<path d="M88.5391 296.534H91.0061V313.812H88.1691V299.57L84.6868 300.557L83.9941 298.137L88.5391 296.534Z" fill="#FF6497"/>
<path d="M101.405 301.155C103.104 301.155 104.546 301.781 105.751 303.043C106.956 304.305 107.554 305.842 107.554 307.645C107.554 309.476 106.956 311.013 105.751 312.266C104.546 313.518 103.104 314.144 101.405 314.144C99.5267 314.144 98.0844 313.452 97.0881 312.066V318.756H94.4219V301.477H97.0881V303.252C98.0844 301.857 99.5267 301.155 101.405 301.155ZM98.1983 310.472C98.9384 311.222 99.8683 311.601 100.988 311.601C102.108 311.601 103.037 311.222 103.778 310.472C104.518 309.723 104.888 308.783 104.888 307.645C104.888 306.506 104.518 305.567 103.778 304.817C103.037 304.068 102.108 303.688 100.988 303.688C99.8683 303.688 98.9384 304.068 98.1983 304.817C97.4582 305.567 97.0881 306.506 97.0881 307.645C97.0881 308.783 97.4582 309.723 98.1983 310.472Z" fill="#FF6497"/>
<path d="M116.614 304.039H113.549V309.969C113.549 310.482 113.663 310.842 113.891 311.07C114.119 311.288 114.46 311.412 114.916 311.44C115.371 311.469 115.931 311.459 116.605 311.431V313.822C114.565 314.068 113.094 313.888 112.211 313.29C111.319 312.693 110.883 311.582 110.883 309.969V304.039H108.615V301.468H110.883V298.801L113.549 298.014V301.468H116.614V304.039Z" fill="#FF6497"/>
<path d="M513.547 296.534H516.014V313.812H513.177V299.57L509.695 300.557L509.002 298.137L513.547 296.534Z" fill="#FF6497"/>
<path d="M526.413 301.155C528.112 301.155 529.554 301.781 530.759 303.043C531.964 304.305 532.562 305.842 532.562 307.645C532.562 309.476 531.964 311.013 530.759 312.266C529.554 313.518 528.112 314.144 526.413 314.144C524.534 314.144 523.092 313.452 522.096 312.066V318.756H519.43V301.477H522.096V303.252C523.092 301.857 524.534 301.155 526.413 301.155ZM523.206 310.472C523.946 311.222 524.876 311.601 525.996 311.601C527.115 311.601 528.045 311.222 528.785 310.472C529.525 309.723 529.896 308.783 529.896 307.645C529.896 306.506 529.525 305.567 528.785 304.817C528.045 304.068 527.115 303.688 525.996 303.688C524.876 303.688 523.946 304.068 523.206 304.817C522.466 305.567 522.096 306.506 522.096 307.645C522.096 308.783 522.466 309.723 523.206 310.472Z" fill="#FF6497"/>
<path d="M541.622 304.039H538.557V309.969C538.557 310.482 538.671 310.842 538.899 311.07C539.126 311.298 539.468 311.412 539.923 311.44C540.379 311.469 540.939 311.459 541.612 311.431V313.822C539.572 314.068 538.102 313.888 537.219 313.29C536.327 312.693 535.891 311.582 535.891 309.969V304.039H533.623V301.468H535.891V298.801L538.557 298.014V301.468H541.622V304.039Z" fill="#FF6497"/>
<path d="M198.758 302.113C198.758 303.432 198.417 304.589 197.724 305.595L192.268 313.812H189.014L192.951 308.015H192.657C190.864 308.015 189.403 307.464 188.255 306.373C187.116 305.282 186.537 303.859 186.537 302.113C186.537 300.367 187.106 298.944 188.255 297.853C189.403 296.761 190.864 296.211 192.657 296.211C194.451 296.211 195.912 296.761 197.05 297.853C198.189 298.953 198.758 300.367 198.758 302.113ZM189.374 302.113C189.374 303.071 189.678 303.84 190.304 304.428C190.921 305.016 191.708 305.32 192.657 305.32C193.616 305.32 194.394 305.026 195.001 304.447C195.608 303.859 195.912 303.09 195.912 302.113C195.912 301.145 195.608 300.367 195.001 299.779C194.394 299.19 193.606 298.906 192.657 298.906C191.699 298.906 190.921 299.2 190.304 299.779C189.687 300.367 189.374 301.145 189.374 302.113Z" fill="#5A63FF"/>
<path d="M212.213 302.113C212.213 303.432 211.872 304.589 211.179 305.595L205.723 313.812H202.469L206.406 308.015H206.112C204.319 308.015 202.858 307.464 201.71 306.373C200.571 305.282 199.992 303.859 199.992 302.113C199.992 300.367 200.561 298.944 201.71 297.853C202.858 296.761 204.319 296.211 206.112 296.211C207.906 296.211 209.367 296.761 210.505 297.853C211.644 298.953 212.213 300.367 212.213 302.113ZM202.829 302.113C202.829 303.071 203.133 303.84 203.759 304.428C204.376 305.016 205.163 305.32 206.112 305.32C207.071 305.32 207.849 305.026 208.456 304.447C209.063 303.859 209.367 303.09 209.367 302.113C209.367 301.145 209.063 300.367 208.456 299.779C207.849 299.19 207.061 298.906 206.112 298.906C205.154 298.906 204.376 299.2 203.759 299.779C203.142 300.367 202.829 301.145 202.829 302.113Z" fill="#5A63FF"/>
<path d="M221.368 301.155C223.067 301.155 224.509 301.781 225.714 303.043C226.919 304.305 227.517 305.842 227.517 307.645C227.517 309.476 226.919 311.013 225.714 312.266C224.509 313.518 223.067 314.144 221.368 314.144C219.49 314.144 218.047 313.452 217.051 312.066V318.756H214.385V301.477H217.051V303.252C218.057 301.857 219.499 301.155 221.368 301.155ZM218.161 310.472C218.901 311.222 219.831 311.601 220.951 311.601C222.07 311.601 223 311.222 223.74 310.472C224.481 309.723 224.851 308.783 224.851 307.645C224.851 306.506 224.481 305.567 223.74 304.817C223 304.068 222.07 303.688 220.951 303.688C219.831 303.688 218.901 304.068 218.161 304.817C217.421 305.567 217.051 306.506 217.051 307.645C217.051 308.783 217.421 309.723 218.161 310.472Z" fill="#5A63FF"/>
<path d="M236.581 304.039H233.516V309.969C233.516 310.482 233.63 310.842 233.858 311.07C234.085 311.298 234.427 311.412 234.882 311.44C235.338 311.468 235.898 311.459 236.571 311.431V313.822C234.531 314.068 233.061 313.888 232.178 313.29C231.286 312.692 230.85 311.582 230.85 309.969V304.039H228.582V301.468H230.85V298.801L233.516 298.014V301.468H236.581V304.039Z" fill="#5A63FF"/>
<path d="M309.858 302.113C309.858 303.432 309.516 304.589 308.824 305.595L303.368 313.812H300.113L304.051 308.015H303.757C301.963 308.015 300.502 307.464 299.354 306.373C298.216 305.282 297.637 303.859 297.637 302.113C297.637 300.367 298.206 298.944 299.354 297.853C300.502 296.761 301.963 296.211 303.757 296.211C305.55 296.211 307.011 296.761 308.15 297.853C309.289 298.953 309.858 300.367 309.858 302.113ZM300.474 302.113C300.474 303.071 300.777 303.84 301.404 304.428C302.02 305.016 302.808 305.32 303.757 305.32C304.715 305.32 305.493 305.026 306.1 304.447C306.708 303.859 307.011 303.09 307.011 302.113C307.011 301.145 306.708 300.367 306.1 299.779C305.493 299.19 304.706 298.906 303.757 298.906C302.798 298.906 302.02 299.2 301.404 299.779C300.787 300.367 300.474 301.145 300.474 302.113Z" fill="#5A63FF"/>
<path d="M323.313 302.113C323.313 303.432 322.971 304.589 322.279 305.595L316.823 313.812H313.568L317.506 308.015H317.212C315.419 308.015 313.957 307.464 312.809 306.373C311.671 305.282 311.092 303.859 311.092 302.113C311.092 300.367 311.661 298.944 312.809 297.853C313.957 296.761 315.419 296.211 317.212 296.211C319.005 296.211 320.466 296.761 321.605 297.853C322.744 298.953 323.313 300.367 323.313 302.113ZM313.929 302.113C313.929 303.071 314.232 303.84 314.859 304.428C315.475 305.016 316.263 305.32 317.212 305.32C318.17 305.32 318.948 305.026 319.556 304.447C320.163 303.859 320.466 303.09 320.466 302.113C320.466 301.145 320.163 300.367 319.556 299.779C318.948 299.19 318.161 298.906 317.212 298.906C316.254 298.906 315.475 299.2 314.859 299.779C314.242 300.367 313.929 301.145 313.929 302.113Z" fill="#5A63FF"/>
<path d="M332.468 301.155C334.166 301.155 335.609 301.781 336.814 303.043C338.019 304.305 338.616 305.842 338.616 307.645C338.616 309.476 338.019 311.013 336.814 312.266C335.609 313.518 334.166 314.144 332.468 314.144C330.589 314.144 329.147 313.452 328.151 312.066V318.756H325.484V301.477H328.151V303.252C329.156 301.857 330.599 301.155 332.468 301.155ZM329.261 310.472C330.001 311.222 330.931 311.601 332.05 311.601C333.17 311.601 334.1 311.222 334.84 310.472C335.58 309.723 335.95 308.783 335.95 307.645C335.95 306.506 335.58 305.567 334.84 304.817C334.1 304.068 333.17 303.688 332.05 303.688C330.931 303.688 330.001 304.068 329.261 304.817C328.521 305.567 328.151 306.506 328.151 307.645C328.151 308.783 328.521 309.723 329.261 310.472Z" fill="#5A63FF"/>
<path d="M347.68 304.039H344.616V309.969C344.616 310.482 344.73 310.842 344.957 311.07C345.185 311.288 345.527 311.412 345.982 311.44C346.437 311.468 346.997 311.459 347.671 311.431V313.822C345.631 314.068 344.16 313.888 343.278 313.29C342.386 312.692 341.949 311.582 341.949 309.969V304.039H339.682V301.468H341.949V298.801L344.616 298.014V301.468H347.68V304.039Z" fill="#5A63FF"/>
<path d="M417.811 302.113C417.811 303.432 417.469 304.589 416.777 305.595L411.321 313.812H408.066L412.004 308.015H411.71C409.917 308.015 408.455 307.464 407.307 306.373C406.169 305.282 405.59 303.859 405.59 302.113C405.59 300.367 406.159 298.944 407.307 297.853C408.455 296.761 409.917 296.211 411.71 296.211C413.503 296.211 414.964 296.761 416.103 297.853C417.242 298.953 417.811 300.367 417.811 302.113ZM408.427 302.113C408.427 303.071 408.731 303.84 409.357 304.428C409.974 305.016 410.761 305.32 411.71 305.32C412.668 305.32 413.446 305.026 414.054 304.447C414.661 303.859 414.964 303.09 414.964 302.113C414.964 301.145 414.661 300.367 414.054 299.779C413.446 299.19 412.659 298.906 411.71 298.906C410.752 298.906 409.974 299.2 409.357 299.779C408.731 300.367 408.427 301.145 408.427 302.113Z" fill="#5A63FF"/>
<path d="M423.285 296.534H425.752V313.812H422.915V299.57L419.433 300.557L418.74 298.137L423.285 296.534Z" fill="#5A63FF"/>
<path d="M436.151 301.155C437.85 301.155 439.292 301.781 440.497 303.043C441.702 304.305 442.3 305.842 442.3 307.645C442.3 309.476 441.702 311.013 440.497 312.266C439.292 313.518 437.85 314.144 436.151 314.144C434.273 314.144 432.831 313.452 431.834 312.066V318.756H429.168V301.477H431.834V303.252C432.831 301.857 434.273 301.155 436.151 301.155ZM432.944 310.472C433.684 311.222 434.614 311.601 435.734 311.601C436.854 311.601 437.784 311.222 438.524 310.472C439.264 309.723 439.634 308.783 439.634 307.645C439.634 306.506 439.264 305.567 438.524 304.817C437.784 304.068 436.854 303.688 435.734 303.688C434.614 303.688 433.684 304.068 432.944 304.817C432.204 305.567 431.834 306.506 431.834 307.645C431.834 308.783 432.204 309.723 432.944 310.472Z" fill="#5A63FF"/>
<path d="M451.362 304.039H448.297V309.969C448.297 310.482 448.411 310.842 448.639 311.07C448.867 311.288 449.208 311.412 449.664 311.44C450.119 311.468 450.679 311.459 451.353 311.431V313.822C449.313 314.068 447.842 313.888 446.959 313.29C446.068 312.692 445.631 311.582 445.631 309.969V304.039H443.363V301.468H445.631V298.801L448.297 298.014V301.468H451.362V304.039Z" fill="#5A63FF"/>
<path d="M58.6039 291.951C51.2978 291.951 45.377 297.872 45.377 305.178C45.377 312.484 51.2978 318.405 58.6039 318.405C65.91 318.405 71.8309 312.484 71.8309 305.178C71.8309 297.872 65.91 291.951 58.6039 291.951ZM58.6893 296.572C59.733 296.572 60.587 297.445 60.587 298.517C60.587 299.608 59.7425 300.433 58.6419 300.433C57.5412 300.433 56.7252 299.608 56.7252 298.517C56.7252 297.416 57.5697 296.572 58.6893 296.572ZM61.6023 313.784H55.6245V313.186C56.7726 312.911 56.9434 312.74 56.9434 311.592V304.494C56.9434 303.375 56.6967 303.128 55.5961 302.9V302.303H60.4067V311.668C60.4067 312.74 60.7293 313.063 61.6023 313.186V313.784Z" fill="#FF6497"/>
<path d="M382.598 291.951C375.292 291.951 369.371 297.872 369.371 305.178C369.371 312.484 375.292 318.405 382.598 318.405C389.904 318.405 395.825 312.484 395.825 305.178C395.825 297.872 389.904 291.951 382.598 291.951ZM389.003 311.421C388.699 311.81 388.244 312 387.788 312C387.447 312 387.105 311.886 386.82 311.658L381.289 307.227C381.061 307.047 380.928 306.81 380.833 306.553C380.833 306.544 380.833 306.534 380.824 306.534C380.767 306.373 380.729 306.212 380.729 306.051C380.729 306.013 380.71 305.984 380.71 305.946V297.34C380.71 296.477 381.402 295.784 382.266 295.784C383.129 295.784 383.822 296.477 383.822 297.34V305.263L388.775 309.229C389.43 309.77 389.544 310.757 389.003 311.421Z" fill="#5A63FF"/>
<path d="M271.867 304.665C272.294 304.608 272.883 304.732 273.452 304.836C274.268 304.997 275.055 305.282 275.786 305.671C276.327 305.956 276.82 306.316 277.285 306.696C277.912 307.208 278.424 307.815 278.889 308.48C279.155 308.869 279.382 309.277 279.572 309.704C279.762 310.131 279.933 310.567 280.056 311.023C280.208 311.554 280.274 312.104 280.322 312.664C280.379 313.29 280.341 313.869 279.885 314.381C279.496 314.808 279.05 315.16 278.557 315.444C278.035 315.748 277.494 315.995 276.915 316.184C276.242 316.403 275.558 316.592 274.856 316.725C274.116 316.867 273.376 316.915 272.636 316.991C271.991 317.057 271.336 317.038 270.691 316.981C269.922 316.924 269.154 316.848 268.414 316.678C267.797 316.535 267.18 316.374 266.592 316.137C266.393 316.051 266.193 315.957 265.994 315.881C265.377 315.653 264.817 315.321 264.286 314.941C264.02 314.752 263.783 314.533 263.565 314.287C263.261 313.936 263.053 313.556 263.072 313.082C263.109 312.304 263.214 311.535 263.442 310.795C263.688 310.007 264.02 309.248 264.495 308.565C264.836 308.072 265.206 307.607 265.633 307.18C266.06 306.753 266.525 306.373 267.028 306.041C267.749 305.567 268.527 305.225 269.362 304.988C270.131 304.789 270.909 304.675 271.867 304.665Z" fill="#5A63FF"/>
<path d="M271.725 304.067C268.775 304.162 266.326 301.61 266.336 298.725C266.345 295.699 268.746 293.374 271.621 293.326C274.752 293.279 276.973 295.746 277.115 298.441C277.276 301.553 274.657 304.172 271.725 304.067Z" fill="#5A63FF"/>
<path d="M282.694 315.938C283.311 315.254 283.358 314.467 283.282 313.632C283.216 312.892 283.121 312.152 282.922 311.431C282.751 310.833 282.523 310.235 282.267 309.666C282.011 309.096 281.707 308.546 281.347 308.024C280.73 307.132 280.028 306.316 279.202 305.624C278.955 305.415 278.699 305.225 278.434 305.035C278.472 305.026 278.509 305.007 278.547 304.997C279.316 304.779 280.094 304.675 281.052 304.656C281.479 304.599 282.068 304.722 282.637 304.827C283.453 304.988 284.241 305.272 284.971 305.662C285.512 305.946 286.005 306.307 286.47 306.686C287.097 307.199 287.609 307.806 288.074 308.47C288.34 308.859 288.567 309.267 288.757 309.694C288.947 310.121 289.118 310.558 289.241 311.013C289.393 311.544 289.459 312.095 289.507 312.655C289.564 313.281 289.526 313.86 289.07 314.372C288.681 314.799 288.235 315.15 287.742 315.435C287.22 315.738 286.679 315.985 286.1 316.175C285.427 316.393 284.743 316.583 284.041 316.716C283.301 316.858 282.561 316.905 281.821 316.981C281.698 316.991 281.584 316.972 281.46 316.981C281.906 316.687 282.324 316.346 282.694 315.938Z" fill="#5A63FF"/>
<path d="M278.738 298.355C278.672 297.008 278.197 295.718 277.41 294.626C278.33 293.839 279.507 293.345 280.788 293.326C283.919 293.279 286.139 295.746 286.281 298.441C286.443 301.563 283.824 304.181 280.892 304.067C279.554 304.115 278.339 303.593 277.391 302.768C278.292 301.525 278.823 300.006 278.738 298.355Z" fill="#5A63FF"/>
<path d="M488.567 313.708C488.567 313.309 488.567 312.911 488.567 312.522C488.567 312.256 488.472 312.047 488.292 311.924C488.017 311.744 487.723 311.848 487.59 311.895C487.324 312 487.059 312.095 486.774 312.152C486.518 312.209 486.262 312.265 486.005 312.332C485.806 312.379 485.607 312.427 485.408 312.474C484.649 312.645 483.88 312.711 483.073 312.787L482.4 312.854C481.859 312.911 481.318 312.911 480.768 312.92H480.559C479.174 312.892 477.807 312.806 476.526 312.673C476.052 312.626 475.578 312.531 475.084 312.427C474.477 312.303 473.832 312.161 473.224 311.905C473.111 311.857 472.835 311.734 472.551 311.924C472.276 312.104 472.276 312.417 472.276 312.531V314.495C472.276 314.856 472.276 315.207 472.266 315.567C472.257 315.919 472.408 316.184 472.722 316.374C473.215 316.678 473.775 316.905 474.382 317.057L474.619 317.114C475.122 317.237 475.634 317.37 476.166 317.446L476.631 317.513C477.266 317.598 477.921 317.693 478.576 317.721C479.117 317.75 479.677 317.759 480.284 317.759C480.891 317.759 481.536 317.75 482.248 317.721C482.646 317.712 483.073 317.683 483.491 317.617C483.889 317.541 484.288 317.475 484.686 317.437C485.227 317.38 485.73 317.237 486.224 317.105L486.565 317.019C487.011 316.905 487.476 316.716 487.988 316.45C488.501 316.184 488.577 315.776 488.558 315.482C488.539 315.188 488.539 314.903 488.539 314.609L488.567 313.708Z" fill="#FF6497"/>
<path d="M481.876 301.23C481.99 301.259 482.113 301.316 482.256 301.382C482.398 301.449 482.54 301.515 482.683 301.562C482.996 301.667 483.318 301.752 483.631 301.838L484.068 301.961C484.419 302.056 484.78 302.113 485.14 302.17L485.586 302.236C486.241 302.34 486.924 302.454 487.617 302.464C487.873 302.464 488.129 302.473 488.385 302.483C488.717 302.492 489.04 302.502 489.372 302.502C489.638 302.502 489.894 302.492 490.16 302.483C490.387 302.473 490.615 302.464 490.833 302.464C491.222 302.464 491.611 302.454 491.991 302.407C492.342 302.369 492.702 302.312 493.054 302.265L493.803 302.16C494.23 302.103 494.648 301.989 495.046 301.876L495.245 301.819C495.834 301.657 496.403 301.439 496.934 301.173C497.361 300.955 497.456 300.614 497.447 300.367C497.447 299.333 497.447 298.298 497.447 297.255C497.447 296.932 497.304 296.761 497.172 296.676C496.991 296.552 496.773 296.534 496.526 296.638L496.393 296.685C496.28 296.733 496.166 296.78 496.042 296.809L495.511 296.951C495.084 297.065 494.676 297.169 494.268 297.226C494.059 297.255 493.851 297.293 493.632 297.331C493.481 297.359 493.329 297.387 493.177 297.416C492.579 297.501 491.981 297.539 491.384 297.568L490.833 297.606C490.16 297.653 489.524 297.691 488.879 297.653L488.414 297.625C487.588 297.577 486.763 297.53 485.937 297.454C485.425 297.406 484.931 297.312 484.4 297.207L484.201 297.169C483.631 297.055 482.958 296.913 482.332 296.647C482.237 296.609 481.942 296.477 481.658 296.666C481.373 296.856 481.373 297.179 481.373 297.293V299.361C481.373 299.741 481.373 300.13 481.373 300.509C481.345 300.946 481.61 301.164 481.876 301.23Z" fill="#FF6497"/>
<path d="M497.2 303.005C496.972 302.834 496.735 302.891 496.564 302.948C496.365 302.995 496.175 303.062 495.976 303.128C495.758 303.195 495.549 303.27 495.331 303.318C494.913 303.413 494.486 303.498 494.059 303.584L493.471 303.697C492.721 303.849 491.972 303.897 491.175 303.944L490.833 303.963C489.363 304.067 487.873 303.963 486.431 303.859C485.975 303.83 485.529 303.745 485.083 303.678L484.504 303.584C484.03 303.508 483.556 303.375 483.062 303.242L482.54 303.09C482.398 303.043 482.246 303.005 482.104 302.976C481.848 302.929 481.658 303.033 481.572 303.09C481.459 303.185 481.354 303.413 481.345 303.555C481.345 303.64 481.345 303.735 481.345 303.811C481.373 304.466 481.373 305.073 481.345 305.652C481.335 305.87 481.392 306.051 481.525 306.193C481.648 306.326 481.829 306.402 482.047 306.402C482.512 306.411 482.977 306.44 483.432 306.478C483.821 306.515 484.201 306.572 484.58 306.639C484.865 306.686 485.14 306.724 485.425 306.762C485.814 306.81 486.212 306.914 486.687 307.056C487.398 307.265 487.977 307.455 488.528 307.749C489.068 308.034 489.401 308.29 489.657 308.622C489.846 308.859 490.093 308.888 490.235 308.888C490.264 308.888 490.283 308.888 490.302 308.888C491.137 308.85 491.962 308.755 492.74 308.66C493.405 308.584 494.107 308.451 494.951 308.252C495.502 308.119 495.976 307.958 496.517 307.711C496.564 307.683 496.612 307.664 496.678 307.645C497.2 307.474 497.437 307.142 497.437 306.572V303.612C497.437 303.441 497.428 303.185 497.2 303.005Z" fill="#FF6497"/>
<path d="M475.311 305.937C475.88 306.022 476.44 306.098 477.019 306.145C477.417 306.183 477.825 306.202 478.224 306.231L479.03 306.278C479.078 306.278 479.125 306.288 479.182 306.288C479.334 306.288 479.505 306.259 479.647 306.126C479.846 305.937 479.846 305.699 479.846 305.5V303.413C479.846 303.014 479.846 302.606 479.846 302.198C479.846 301.97 479.77 301.781 479.638 301.648C479.543 301.553 479.391 301.458 479.125 301.468C478.869 301.487 478.613 301.458 478.357 301.43C478.176 301.42 477.987 301.401 477.806 301.392C477.332 301.373 476.857 301.316 476.383 301.259C476.022 301.221 475.671 301.173 475.311 301.145C474.846 301.107 474.381 301.012 473.897 300.898L473.612 300.841C473.053 300.718 472.474 300.595 471.952 300.367C471.762 300.281 471.496 300.168 471.231 300.348C470.965 300.528 470.975 300.813 470.984 301.05C471.022 302.246 471.022 303.213 470.984 304.096C470.965 304.475 471.183 304.789 471.61 304.921C471.696 304.969 471.781 305.016 471.866 305.045C472.35 305.234 472.844 305.405 473.347 305.538C473.916 305.69 474.542 305.813 475.311 305.937Z" fill="#FF6497"/>
<path d="M478.432 307.863C478.366 307.863 478.299 307.863 478.223 307.872L477.692 307.939C476.905 308.034 476.089 308.119 475.292 308.299C474.542 308.461 473.745 308.65 472.976 309.039C472.654 309.191 472.578 309.419 472.568 309.599C472.568 309.78 472.625 310.026 472.986 310.197C473.337 310.377 473.688 310.52 474.03 310.615L474.172 310.652C474.694 310.795 475.216 310.937 475.766 311.023C476.525 311.155 477.531 311.307 478.565 311.355C479.258 311.393 479.912 311.402 480.529 311.402C481.772 311.402 482.882 311.336 483.945 311.193C484.457 311.127 484.96 311.051 485.473 310.956C485.681 310.918 485.881 310.861 486.08 310.804C486.213 310.766 486.346 310.728 486.478 310.7C487.067 310.567 487.589 310.32 488.025 310.102C488.177 310.026 488.281 309.874 488.3 309.704C488.319 309.533 488.253 309.362 488.111 309.258C487.883 309.077 487.665 308.945 487.427 308.859C486.905 308.66 486.384 308.518 485.843 308.375C485.33 308.242 484.818 308.176 484.325 308.1L483.955 308.053C483.319 307.967 482.664 307.872 481.99 307.863C481.089 307.853 480.188 307.863 479.286 307.863H478.432Z" fill="#FF6497"/>
<path d="M482.181 295.006L482.38 295.082C482.75 295.224 483.111 295.367 483.49 295.471C484.041 295.632 484.601 295.727 485.141 295.822L485.597 295.898C486.47 296.059 487.343 296.088 488.197 296.116L488.719 296.135C488.984 296.145 489.24 296.154 489.506 296.154C490.446 296.154 491.394 296.088 492.486 295.993C492.856 295.964 493.226 295.898 493.596 295.831C493.842 295.793 494.08 295.746 494.317 295.718C494.564 295.689 494.801 295.623 495.028 295.547C495.152 295.509 495.266 295.471 495.399 295.442C495.911 295.319 496.414 295.129 496.974 294.826C497.135 294.74 497.23 294.579 497.239 294.408C497.249 294.228 497.163 294.057 497.012 293.962C496.746 293.782 496.499 293.678 496.167 293.535C495.74 293.355 495.304 293.251 494.877 293.146L494.469 293.042C494.118 292.947 493.757 292.899 493.396 292.852C493.188 292.824 492.979 292.805 492.78 292.767C492.277 292.672 491.726 292.624 491.148 292.615C490.009 292.596 488.88 292.605 487.741 292.615C487.343 292.615 486.916 292.634 486.479 292.71C486.195 292.757 485.91 292.795 485.625 292.843C485.113 292.909 484.582 292.985 484.031 293.127C483.405 293.289 482.75 293.459 482.134 293.763C481.82 293.915 481.669 294.133 481.678 294.408C481.688 294.56 481.764 294.845 482.181 295.006Z" fill="#FF6497"/>
<path d="M471.895 298.773C472.028 298.82 472.16 298.868 472.303 298.915C472.597 299.02 472.891 299.124 473.204 299.19C473.356 299.228 473.508 299.257 473.66 299.295C473.849 299.342 474.049 299.39 474.248 299.428C475.064 299.589 475.88 299.693 476.648 299.779C477.094 299.826 477.55 299.855 477.996 299.883C478.375 299.902 478.745 299.921 479.116 299.959C479.144 299.959 479.182 299.959 479.21 299.959C479.391 299.959 479.552 299.902 479.666 299.788C479.808 299.655 479.875 299.475 479.875 299.238C479.865 298.669 479.865 298.099 479.865 297.53V297.179C479.865 296.999 479.865 296.742 479.656 296.553C479.448 296.363 479.191 296.372 479.002 296.391L478.3 296.439C477.882 296.467 477.465 296.496 477.047 296.534C476.905 296.543 476.762 296.553 476.62 296.562C476.326 296.581 476.032 296.6 475.747 296.647C475.339 296.733 474.922 296.809 474.514 296.866C473.83 296.961 473.119 297.141 472.398 297.397L472.236 297.445C472.037 297.501 471.79 297.568 471.563 297.758C471.373 297.919 471.335 298.185 471.449 298.393C471.534 298.583 471.696 298.716 471.895 298.773Z" fill="#FF6497"/>
<path d="M154.059 301.961H170.113V304.561L172.438 303.403L175.645 301.8L178.52 300.367L175.645 298.934L172.438 297.331L170.113 296.173V298.773H154.059C153.167 298.773 152.455 299.494 152.455 300.377C152.446 301.249 153.167 301.961 154.059 301.961Z" fill="#5A63FF"/>
<path d="M176.536 308.385H160.481V305.785L158.156 306.943L154.949 308.546L152.074 309.979L154.949 311.412L158.156 313.015L160.481 314.173V311.573H176.536C177.427 311.573 178.139 310.852 178.139 309.969C178.139 309.087 177.427 308.385 176.536 308.385Z" fill="#5A63FF"/>
<rect x="279.607" y="355.5" width="25.7349" height="47.0174" rx="12.8675" stroke="#5A63FF" stroke-width="11"/>
<path d="M263.883 392.672C263.883 387.072 263.883 384.272 264.973 382.133C265.931 380.251 267.461 378.721 269.343 377.762C271.482 376.672 274.282 376.672 279.883 376.672H305.068C310.669 376.672 313.469 376.672 315.608 377.762C317.49 378.721 319.019 380.251 319.978 382.133C321.068 384.272 321.068 387.072 321.068 392.672V400.194C321.068 405.795 321.068 408.595 319.978 410.734C319.019 412.616 317.49 414.146 315.608 415.104C313.469 416.194 310.669 416.194 305.068 416.194H279.883C274.282 416.194 271.482 416.194 269.343 415.104C267.461 414.146 265.931 412.616 264.973 410.734C263.883 408.595 263.883 405.795 263.883 400.194V392.672Z" fill="#5A63FF"/>
<path d="M295.062 395.931C294.933 395.36 295.199 394.784 295.617 394.373C296.433 393.573 296.941 392.444 296.941 391.192C296.941 388.765 295.027 386.796 292.666 386.796C290.304 386.796 288.39 388.765 288.39 391.192C288.39 392.444 288.898 393.573 289.714 394.373C290.132 394.784 290.398 395.36 290.269 395.931L288.976 401.648C288.441 404.014 290.24 406.265 292.666 406.265C295.091 406.265 296.89 404.014 296.355 401.648L295.062 395.931Z" fill="#C8CBFF"/>
</g>
<defs>
<clipPath id="clip0_1473_16564">
<rect width="584" height="468" fill="white"/>
</clipPath>
</defs>
</svg>
