<svg width="617" height="465" viewBox="0 0 617 465" fill="none" xmlns="http://www.w3.org/2000/svg">
<g clip-path="url(#clip0_1652_19908)">
<rect x="0.375" y="0.608643" width="616" height="464" fill="#5A63FF"/>
<path fill-rule="evenodd" clip-rule="evenodd" d="M211.614 0.608643H0.375V155.609H212.375V155.272C254.735 154.863 288.947 120.398 288.947 77.942C288.947 35.4859 254.735 1.02071 212.375 0.61231V0.608643H211.614Z" fill="white"/>
<path fill-rule="evenodd" clip-rule="evenodd" d="M191.801 309.609C189.422 309.829 187.011 309.942 184.574 309.942C141.864 309.942 107.24 275.319 107.24 232.609C107.24 189.899 141.864 155.275 184.574 155.275C187.011 155.275 189.422 155.388 191.802 155.609H616.374V309.609H191.801Z" fill="#ADB1FF"/>
<path fill-rule="evenodd" clip-rule="evenodd" d="M0.374268 309.609H495.374V309.948C537.359 310.447 571.24 344.877 571.24 387.275C571.24 429.674 537.359 464.103 495.374 464.603V464.609H494.532C494.504 464.609 494.476 464.609 494.448 464.609C494.42 464.609 494.391 464.609 494.363 464.609H0.374268V309.609Z" fill="#757DFF"/>
<g clip-path="url(#clip1_1652_19908)">
<rect width="85" height="84" transform="translate(169 36)" fill="white"/>
<path fill-rule="evenodd" clip-rule="evenodd" d="M199.205 55.1787L208.972 57.7636L211.155 49.7225L216.039 51.0322L213.941 58.7411L217.924 59.7987L220.026 52.0058L224.995 53.3193L222.854 61.1542C222.854 61.1542 230.968 62.9296 232.877 69.4511C234.785 75.9725 228.681 79.3974 226.795 79.5273C226.795 79.5273 233.904 83.3798 231.463 90.9589C229.021 98.538 221.525 99.8934 213.64 98.1562L211.499 106.281L206.531 104.968L208.713 96.9687L204.773 95.9073L202.59 103.964L197.66 102.654L199.846 94.6358L189.82 91.9631L192.347 86.4191C192.347 86.4191 195.175 87.1827 196.246 87.4347C197.316 87.6867 198.003 86.5871 198.305 85.4874C198.606 84.3878 203.146 66.1636 203.575 64.6631C204.004 63.1625 203.83 61.9904 202.029 61.5284C200.229 61.0664 197.779 60.3447 197.779 60.3447L199.205 55.1787ZM209.057 79.3134L206.353 89.9394C206.353 89.9394 219.763 94.7236 221.479 87.9922C223.194 81.2607 209.057 79.3134 209.057 79.3134ZM210.301 74.2734L212.956 64.5371C212.956 64.5371 224.438 66.5684 223.024 71.9864C221.61 77.4044 214.841 75.3273 210.301 74.2734Z" fill="#757DFF"/>
</g>
<path fill-rule="evenodd" clip-rule="evenodd" d="M225.861 242.206C225.861 249.8 219.697 254.842 210.596 255.601V262.436H204.361V255.533C198.205 254.839 192.356 252.474 187.447 248.695L192.033 242.413C196.12 245.59 199.988 247.661 204.648 248.353V234.819C194.184 232.195 189.312 228.398 189.312 220.597C189.312 213.142 195.402 208.033 204.361 207.342V203.338H210.596V207.481C215.469 208.022 220.115 209.831 224.07 212.729L220.054 219.217C216.902 216.939 213.678 215.488 210.309 214.8V227.917C221.204 230.541 225.861 234.751 225.861 242.206ZM204.645 226.466V214.315C200.133 214.661 197.769 217.078 197.769 220.116C197.769 223.012 199.128 224.879 204.648 226.469L204.645 226.466ZM217.404 242.688C217.404 239.585 215.897 237.721 210.309 236.131V248.63C214.824 248.282 217.404 246.003 217.404 242.691V242.688Z" fill="white"/>
<path d="M479.744 354.609V379.001L500.361 388.214L479.744 354.609Z" fill="white" fill-opacity="0.602"/>
<path d="M479.744 354.609L459.125 388.214L479.744 379.001V354.609Z" fill="white"/>
<path d="M479.744 404.021V420.595L500.375 392.053L479.744 404.021Z" fill="white" fill-opacity="0.602"/>
<path d="M479.744 420.595V404.018L459.125 392.053L479.744 420.595Z" fill="white"/>
<path d="M479.744 400.185L500.361 388.214L479.744 379.007V400.185Z" fill="white" fill-opacity="0.2"/>
<path d="M459.125 388.214L479.744 400.185V379.007L459.125 388.214Z" fill="white" fill-opacity="0.602"/>
</g>
<defs>
<clipPath id="clip0_1652_19908">
<rect x="0.375" y="0.608643" width="616" height="464" rx="60" fill="white"/>
</clipPath>
<clipPath id="clip1_1652_19908">
<rect width="85" height="84" fill="white" transform="translate(169 36)"/>
</clipPath>
</defs>
</svg>
