<svg width="584" height="468" viewBox="0 0 584 468" fill="none" xmlns="http://www.w3.org/2000/svg">
<g clip-path="url(#clip0_1449_32050)">
<path d="M60 468H524C557.14 468 584 441.14 584 408V60C584 26.86 557.14 0 524 0H60C26.86 0 0 26.86 0 60V408C0 441.14 26.86 468 60 468Z" fill="#E4E5FF"/>
<path d="M521.19 226.81H62.8098C51.0398 226.81 41.5098 217.27 41.5098 205.51V61.3C41.5098 49.53 51.0498 40 62.8098 40H521.19C532.96 40 542.49 49.54 542.49 61.3V205.51C542.49 217.28 532.95 226.81 521.19 226.81Z" fill="#757DFF"/>
<path d="M82.1995 124.01H63.2695C58.5795 124.01 54.7695 120.21 54.7695 115.51V96.58C54.7695 91.89 58.5695 88.08 63.2695 88.08H82.1995C86.8895 88.08 90.6995 91.88 90.6995 96.58V115.51C90.6995 120.21 86.8895 124.01 82.1995 124.01Z" fill="#E4E5FF"/>
<path d="M74.0595 105.25H72.1395L71.8695 106.84H73.7995L73.5195 108.56H71.5795L71.1095 111.36H69.3295L69.7995 108.56H67.9795L67.5095 111.36H65.7295L66.1995 108.56H64.2695L64.5495 106.84H66.4795L66.7495 105.25H64.7995L65.0795 103.52H67.0495L67.5195 100.74H69.2895L68.8195 103.52H70.6495L71.1195 100.74H72.8995L72.4295 103.52H74.3395L74.0595 105.25ZM70.0895 106.84L70.3595 105.25H68.5295L68.2595 106.84H70.0895Z" fill="#757DFF"/>
<path d="M78.209 99.86H80.329V112.24H77.889V102.44L75.559 103.09L74.959 101L78.209 99.86Z" fill="#757DFF"/>
<path d="M109.369 114.8C108.079 114.8 107.019 114.43 106.189 113.71C105.359 112.98 104.949 112 104.949 110.77V102.96H107.219V110.59C107.219 111.2 107.389 111.68 107.739 112.03C108.089 112.38 108.629 112.56 109.369 112.56C110.109 112.56 110.649 112.38 110.999 112.03C111.349 111.68 111.519 111.2 111.519 110.59V102.96H113.809V110.77C113.809 112 113.399 112.98 112.569 113.71C111.739 114.44 110.669 114.8 109.369 114.8Z" fill="#E4E5FF"/>
<path d="M125.099 106.28H127.149L124.729 114.57H122.629L121.059 109.55L119.489 114.57H117.389L114.949 106.28H117.209L118.629 111.37L120.139 106.28H122.159L123.669 111.39L125.099 106.28Z" fill="#E4E5FF"/>
<path d="M132.959 114.8C131.669 114.8 130.609 114.43 129.779 113.71C128.949 112.98 128.539 112 128.539 110.77V102.96H130.809V110.59C130.809 111.2 130.979 111.68 131.329 112.03C131.679 112.38 132.219 112.56 132.959 112.56C133.699 112.56 134.239 112.38 134.589 112.03C134.939 111.68 135.109 111.2 135.109 110.59V102.96H137.399V110.77C137.399 112 136.989 112.98 136.159 113.71C135.329 114.44 134.269 114.8 132.959 114.8Z" fill="#E4E5FF"/>
<path d="M139.38 115.67H138.75L143.17 105.72H143.8L139.38 115.67Z" fill="#E4E5FF"/>
<path d="M146.38 114.57L144.33 106.83H145.93L147.42 112.57L149.03 106.83H150.35L151.97 112.55L153.44 106.83H154.91L152.88 114.57H151.14L149.67 109.44L148.21 114.57H146.38Z" fill="#E4E5FF"/>
<path d="M157.46 113.11H160.72V114.57H155.93V106.83H160.66V108.29H157.45V109.94H160.38V111.38H157.45V113.11H157.46Z" fill="#E4E5FF"/>
<path d="M166.909 106.83V108.29H164.819V114.57H163.299V108.29H161.219V106.83H166.909Z" fill="#E4E5FF"/>
<path d="M172.16 106.83H173.67V114.57H172.16V111.36H169.29V114.57H167.76V106.83H169.29V109.9H172.16V106.83Z" fill="#E4E5FF"/>
<path d="M318.59 111.81C318.59 112.62 318.33 113.29 317.81 113.8C317.29 114.31 316.61 114.62 315.76 114.73V116.01H314.83V114.75C314.03 114.7 313.35 114.49 312.79 114.1C312.22 113.72 311.82 113.19 311.57 112.53L312.99 111.71C313.33 112.55 313.94 113.02 314.83 113.12V110.13C314.4 109.97 314.05 109.82 313.78 109.69C313.51 109.56 313.23 109.38 312.93 109.15C312.63 108.92 312.4 108.64 312.25 108.31C312.1 107.98 312.03 107.59 312.03 107.15C312.03 106.35 312.3 105.69 312.84 105.2C313.38 104.7 314.04 104.41 314.84 104.34V103.08H315.77V104.36C317.05 104.53 317.94 105.19 318.44 106.33L317.05 107.14C316.8 106.52 316.37 106.14 315.77 106V108.85C316.08 108.97 316.31 109.06 316.47 109.12C316.63 109.19 316.84 109.29 317.1 109.42C317.36 109.55 317.57 109.69 317.71 109.82C317.85 109.95 318 110.12 318.16 110.31C318.32 110.5 318.43 110.72 318.5 110.98C318.55 111.22 318.59 111.5 318.59 111.81ZM313.67 107.15C313.67 107.45 313.76 107.69 313.94 107.88C314.12 108.07 314.41 108.26 314.82 108.45V105.95C314.47 106.01 314.19 106.14 313.98 106.35C313.77 106.57 313.67 106.84 313.67 107.15ZM315.76 113.1C316.14 113.02 316.44 112.87 316.64 112.64C316.84 112.41 316.94 112.14 316.94 111.82C316.94 111.5 316.84 111.25 316.65 111.05C316.46 110.85 316.16 110.66 315.76 110.48V113.1Z" fill="#E4E5FF"/>
<path d="M326.45 113.33C325.76 114.28 324.79 114.75 323.54 114.75C322.29 114.75 321.32 114.28 320.63 113.33C319.94 112.38 319.59 111.12 319.59 109.54C319.59 107.96 319.94 106.69 320.63 105.75C321.32 104.8 322.29 104.33 323.54 104.33C324.79 104.33 325.75 104.8 326.45 105.75C327.14 106.7 327.49 107.96 327.49 109.54C327.5 111.12 327.15 112.38 326.45 113.33ZM323.54 113.15C324.29 113.15 324.86 112.84 325.25 112.22C325.64 111.6 325.84 110.71 325.84 109.55C325.84 108.39 325.64 107.5 325.25 106.88C324.86 106.26 324.29 105.95 323.54 105.95C322.8 105.95 322.23 106.26 321.84 106.88C321.44 107.5 321.24 108.39 321.24 109.55C321.24 110.71 321.44 111.6 321.84 112.22C322.24 112.84 322.81 113.15 323.54 113.15Z" fill="#E4E5FF"/>
<path d="M330.24 114.42C330.03 114.63 329.78 114.74 329.48 114.74C329.18 114.74 328.93 114.63 328.72 114.42C328.51 114.21 328.4 113.96 328.4 113.66C328.4 113.36 328.5 113.11 328.71 112.9C328.92 112.69 329.17 112.58 329.48 112.58C329.78 112.58 330.03 112.69 330.24 112.9C330.45 113.11 330.56 113.36 330.56 113.66C330.56 113.96 330.45 114.21 330.24 114.42Z" fill="#E4E5FF"/>
<path d="M338.311 113.33C337.621 114.28 336.651 114.75 335.401 114.75C334.151 114.75 333.181 114.28 332.491 113.33C331.801 112.38 331.451 111.12 331.451 109.54C331.451 107.96 331.801 106.69 332.491 105.75C333.181 104.8 334.151 104.33 335.401 104.33C336.651 104.33 337.611 104.8 338.311 105.75C339.001 106.7 339.351 107.96 339.351 109.54C339.351 111.12 339.011 112.38 338.311 113.33ZM335.401 113.15C336.151 113.15 336.721 112.84 337.111 112.22C337.501 111.6 337.701 110.71 337.701 109.55C337.701 108.39 337.501 107.5 337.111 106.88C336.721 106.26 336.151 105.95 335.401 105.95C334.661 105.95 334.091 106.26 333.701 106.88C333.301 107.5 333.101 108.39 333.101 109.55C333.101 110.71 333.301 111.6 333.701 112.22C334.101 112.84 334.661 113.15 335.401 113.15Z" fill="#E4E5FF"/>
<path d="M342.22 115.7C342.78 115.7 343.26 115.87 343.64 116.2C344.02 116.53 344.22 116.99 344.22 117.58C344.22 118.17 344.02 118.63 343.63 118.96C343.24 119.29 342.75 119.46 342.17 119.46C341.71 119.46 341.3 119.35 340.94 119.14C340.58 118.92 340.33 118.61 340.18 118.21L341.01 117.73C341.17 118.26 341.55 118.53 342.17 118.53C342.5 118.53 342.76 118.44 342.96 118.27C343.16 118.1 343.26 117.87 343.26 117.58C343.26 117.29 343.16 117.06 342.97 116.89C342.77 116.72 342.51 116.64 342.19 116.64H340.48L340.73 113.49H343.98V114.4H341.6L341.48 115.71L342.22 115.7Z" fill="#E4E5FF"/>
<path d="M348.41 107.89C349.46 107.89 350.31 108.21 350.97 108.85C351.63 109.49 351.96 110.31 351.96 111.33C351.96 112.35 351.63 113.17 350.97 113.81C350.31 114.45 349.46 114.77 348.41 114.77C347.36 114.77 346.5 114.45 345.84 113.81C345.18 113.17 344.85 112.35 344.85 111.33C344.85 110.56 345.05 109.89 345.45 109.3L348.64 104.52H350.52L348.22 107.9H348.41V107.89ZM348.42 113.19C348.98 113.19 349.43 113.02 349.79 112.68C350.14 112.34 350.32 111.89 350.32 111.32C350.32 110.76 350.14 110.3 349.79 109.96C349.44 109.62 348.98 109.45 348.42 109.45C347.86 109.45 347.39 109.62 347.04 109.96C346.69 110.3 346.51 110.75 346.51 111.32C346.51 111.89 346.69 112.34 347.04 112.68C347.39 113.02 347.85 113.19 348.42 113.19Z" fill="#E4E5FF"/>
<path d="M352.34 114.57V113.28L355.85 109.7C356.7 108.85 357.13 108.11 357.13 107.49C357.13 107 356.98 106.62 356.69 106.35C356.4 106.08 356.03 105.94 355.58 105.94C354.74 105.94 354.11 106.36 353.71 107.19L352.32 106.37C352.64 105.7 353.08 105.19 353.66 104.85C354.24 104.51 354.87 104.33 355.57 104.33C356.45 104.33 357.21 104.61 357.84 105.16C358.47 105.72 358.79 106.47 358.79 107.43C358.79 108.45 358.21 109.54 357.06 110.69L354.78 112.98H358.98V114.58H352.34V114.57Z" fill="#E4E5FF"/>
<path d="M363.291 108.3C364.251 108.3 365.071 108.59 365.731 109.15C366.391 109.72 366.731 110.51 366.731 111.51C366.731 112.52 366.391 113.31 365.711 113.88C365.031 114.45 364.201 114.74 363.211 114.74C362.411 114.74 361.711 114.56 361.101 114.19C360.491 113.82 360.051 113.29 359.791 112.59L361.211 111.77C361.481 112.68 362.141 113.14 363.211 113.14C363.771 113.14 364.231 112.99 364.571 112.7C364.911 112.41 365.081 112.01 365.081 111.51C365.081 111.01 364.911 110.62 364.581 110.33C364.241 110.04 363.801 109.9 363.241 109.9H360.311L360.731 104.5H366.301V106.05H362.221L362.021 108.29H363.291V108.3Z" fill="#E4E5FF"/>
<path d="M371.101 107.89C372.151 107.89 373.001 108.21 373.661 108.85C374.321 109.49 374.651 110.31 374.651 111.33C374.651 112.35 374.321 113.17 373.661 113.81C373.001 114.45 372.151 114.77 371.101 114.77C370.051 114.77 369.191 114.45 368.531 113.81C367.871 113.17 367.541 112.35 367.541 111.33C367.541 110.56 367.741 109.89 368.141 109.3L371.331 104.52H373.211L370.911 107.9H371.101V107.89ZM371.111 113.19C371.671 113.19 372.121 113.02 372.481 112.68C372.831 112.34 373.011 111.89 373.011 111.32C373.011 110.76 372.831 110.3 372.481 109.96C372.131 109.62 371.671 109.45 371.111 109.45C370.551 109.45 370.081 109.62 369.731 109.96C369.381 110.3 369.201 110.75 369.201 111.32C369.201 111.89 369.381 112.34 369.731 112.68C370.081 113.02 370.541 113.19 371.111 113.19Z" fill="#E4E5FF"/>
<path d="M474.34 109.34C475.33 109.89 475.82 110.7 475.82 111.78C475.82 112.7 475.5 113.43 474.86 113.96C474.22 114.49 473.37 114.76 472.3 114.76C471.23 114.76 470.38 114.49 469.73 113.96C469.08 113.43 468.76 112.7 468.76 111.78C468.76 111.26 468.89 110.79 469.15 110.36C469.41 109.93 469.77 109.59 470.24 109.33C469.48 108.83 469.1 108.12 469.1 107.2C469.1 106.28 469.41 105.57 470.02 105.07C470.63 104.57 471.39 104.32 472.29 104.32C473.18 104.32 473.94 104.57 474.55 105.07C475.17 105.57 475.48 106.28 475.48 107.2C475.48 108.12 475.11 108.84 474.34 109.34ZM472.3 113.19C472.86 113.19 473.31 113.05 473.65 112.78C474 112.51 474.17 112.12 474.17 111.62C474.17 111.12 474 110.74 473.65 110.46C473.3 110.19 472.85 110.05 472.3 110.05C471.73 110.05 471.28 110.19 470.93 110.46C470.59 110.73 470.41 111.12 470.41 111.62C470.41 112.12 470.58 112.5 470.93 112.78C471.28 113.05 471.73 113.19 472.3 113.19ZM472.3 105.89C471.85 105.89 471.48 106.01 471.19 106.25C470.9 106.49 470.76 106.83 470.76 107.28C470.76 107.71 470.91 108.05 471.2 108.3C471.49 108.55 471.86 108.67 472.3 108.67C472.73 108.67 473.1 108.55 473.39 108.3C473.69 108.05 473.84 107.71 473.84 107.28C473.84 106.83 473.69 106.49 473.4 106.25C473.11 106.01 472.74 105.89 472.3 105.89Z" fill="#E4E5FF"/>
<path d="M476.479 114.57V113.28L479.989 109.7C480.839 108.85 481.269 108.11 481.269 107.49C481.269 107 481.119 106.62 480.829 106.35C480.539 106.08 480.169 105.94 479.719 105.94C478.879 105.94 478.249 106.36 477.849 107.19L476.459 106.37C476.779 105.7 477.219 105.19 477.799 104.85C478.379 104.51 479.009 104.33 479.709 104.33C480.589 104.33 481.349 104.61 481.979 105.16C482.609 105.72 482.929 106.47 482.929 107.43C482.929 108.45 482.349 109.54 481.199 110.69L478.919 112.98H483.119V114.58H476.479V114.57Z" fill="#E4E5FF"/>
<path d="M483.561 104.51H489.961V105.95L486.421 114.57H484.681L488.161 106.09H483.561V104.51Z" fill="#E4E5FF"/>
<path d="M490.84 114.42C490.63 114.63 490.38 114.74 490.08 114.74C489.78 114.74 489.53 114.63 489.32 114.42C489.11 114.21 489 113.96 489 113.66C489 113.36 489.1 113.11 489.31 112.9C489.52 112.69 489.77 112.58 490.08 112.58C490.38 112.58 490.63 112.69 490.84 112.9C491.05 113.11 491.16 113.36 491.16 113.66C491.15 113.96 491.05 114.21 490.84 114.42Z" fill="#E4E5FF"/>
<path d="M498.37 107.76C498.37 108.53 498.17 109.2 497.77 109.79L494.59 114.58H492.69L494.98 111.2H494.81C493.77 111.2 492.91 110.88 492.25 110.24C491.59 109.6 491.25 108.78 491.25 107.76C491.25 106.74 491.58 105.92 492.25 105.28C492.92 104.64 493.77 104.32 494.81 104.32C495.85 104.32 496.71 104.64 497.37 105.28C498.04 105.92 498.37 106.74 498.37 107.76ZM492.91 107.76C492.91 108.32 493.09 108.77 493.45 109.11C493.81 109.46 494.27 109.63 494.82 109.63C495.38 109.63 495.83 109.46 496.19 109.12C496.54 108.78 496.72 108.33 496.72 107.76C496.72 107.19 496.54 106.74 496.19 106.4C495.84 106.06 495.38 105.89 494.82 105.89C494.26 105.89 493.81 106.06 493.45 106.4C493.08 106.74 492.91 107.19 492.91 107.76Z" fill="#E4E5FF"/>
<path d="M498.65 104.51H505.05V105.95L501.51 114.57H499.77L503.25 106.09H498.65V104.51Z" fill="#E4E5FF"/>
<path d="M510.229 108.25C509.789 108.7 509.229 108.92 508.559 108.92C507.889 108.92 507.329 108.7 506.879 108.25C506.429 107.81 506.199 107.26 506.199 106.62C506.199 105.98 506.429 105.43 506.879 104.99C507.329 104.54 507.889 104.32 508.559 104.32C509.229 104.32 509.789 104.54 510.229 104.98C510.679 105.42 510.899 105.97 510.899 106.62C510.899 107.26 510.669 107.81 510.229 108.25ZM507.039 113.09L513.669 105.72L514.449 106.17L507.819 113.56L507.039 113.09ZM508.539 107.66C508.849 107.66 509.099 107.56 509.289 107.36C509.479 107.16 509.579 106.91 509.579 106.63C509.579 106.33 509.479 106.08 509.289 105.88C509.099 105.68 508.849 105.58 508.539 105.58C508.239 105.58 507.999 105.68 507.809 105.88C507.619 106.08 507.519 106.33 507.519 106.63C507.519 106.92 507.619 107.16 507.809 107.36C507.999 107.56 508.239 107.66 508.539 107.66ZM513.149 114.74C512.479 114.74 511.919 114.52 511.469 114.07C511.019 113.63 510.789 113.08 510.789 112.44C510.789 111.8 511.019 111.25 511.469 110.81C511.919 110.36 512.479 110.14 513.149 110.14C513.809 110.14 514.369 110.36 514.819 110.81C515.269 111.26 515.499 111.8 515.499 112.44C515.499 113.08 515.269 113.63 514.819 114.07C514.369 114.52 513.809 114.74 513.149 114.74ZM513.139 113.48C513.449 113.48 513.699 113.38 513.889 113.18C514.079 112.98 514.179 112.73 514.179 112.45C514.179 112.15 514.079 111.9 513.889 111.7C513.699 111.5 513.449 111.4 513.139 111.4C512.839 111.4 512.599 111.5 512.409 111.7C512.219 111.9 512.119 112.15 512.119 112.45C512.119 112.74 512.219 112.98 512.409 113.18C512.599 113.38 512.839 113.48 513.139 113.48Z" fill="#E4E5FF"/>
<path d="M72.79 151.13H70.87L70.6 152.72H72.53L72.25 154.44H70.31L69.84 157.24H68.06L68.53 154.44H66.71L66.24 157.24H64.46L64.93 154.44H63L63.28 152.72H65.21L65.48 151.13H63.52L63.8 149.4H65.77L66.24 146.62H68.01L67.54 149.4H69.37L69.84 146.62H71.62L71.15 149.4H73.06L72.79 151.13ZM68.82 152.72L69.09 151.13H67.26L67 152.72H68.82Z" fill="#E4E5FF"/>
<path d="M73.9591 158.11V156.29L78.1891 151.94C79.1291 150.95 79.5991 150.12 79.5991 149.46C79.5991 148.98 79.4491 148.59 79.1491 148.29C78.8491 148 78.4591 147.85 77.9891 147.85C77.0591 147.85 76.3691 148.33 75.9191 149.3L73.8691 148.1C74.2591 147.25 74.8191 146.6 75.5491 146.15C76.2791 145.7 77.0791 145.48 77.9591 145.48C79.0791 145.48 80.0391 145.83 80.8391 146.53C81.6391 147.23 82.0391 148.18 82.0391 149.37C82.0391 150.65 81.3591 151.97 80.0091 153.32L77.5791 155.75H82.2291V158.1H73.9591V158.11Z" fill="#E4E5FF"/>
<path d="M109.649 148.84C111.239 148.84 112.569 149.4 113.639 150.51C114.709 151.63 115.239 153 115.239 154.64C115.239 156.28 114.709 157.65 113.639 158.77C112.569 159.89 111.239 160.44 109.649 160.44H105.039V148.83L109.649 148.84ZM109.649 158.26C110.659 158.26 111.469 157.93 112.099 157.26C112.729 156.59 113.039 155.72 113.039 154.65C113.039 153.58 112.729 152.71 112.099 152.04C111.469 151.37 110.649 151.04 109.649 151.04H107.329V158.27L109.649 158.26Z" fill="#E4E5FF"/>
<path d="M121.109 160.68C119.819 160.68 118.759 160.31 117.929 159.59C117.099 158.86 116.689 157.88 116.689 156.65V148.84H118.959V156.47C118.959 157.08 119.129 157.56 119.479 157.91C119.829 158.26 120.369 158.44 121.109 158.44C121.849 158.44 122.389 158.26 122.739 157.91C123.089 157.56 123.259 157.08 123.259 156.47V148.84H125.549V156.65C125.549 157.88 125.139 158.86 124.309 159.59C123.479 160.31 122.409 160.68 121.109 160.68Z" fill="#E4E5FF"/>
<path d="M133.108 160.68C131.358 160.68 129.918 160.1 128.778 158.94C127.638 157.78 127.068 156.35 127.068 154.65C127.068 152.94 127.638 151.5 128.778 150.35C129.918 149.19 131.358 148.62 133.108 148.62C134.158 148.62 135.128 148.87 136.018 149.36C136.908 149.85 137.598 150.52 138.098 151.36L136.128 152.5C135.838 151.98 135.428 151.57 134.898 151.28C134.368 150.99 133.768 150.84 133.108 150.84C131.978 150.84 131.068 151.19 130.378 151.9C129.688 152.61 129.338 153.52 129.338 154.65C129.338 155.77 129.688 156.68 130.378 157.39C131.068 158.1 131.978 158.45 133.108 158.45C133.768 158.45 134.368 158.3 134.908 158.01C135.448 157.72 135.848 157.32 136.128 156.81L138.098 157.95C137.598 158.79 136.908 159.46 136.028 159.95C135.148 160.43 134.168 160.68 133.108 160.68Z" fill="#E4E5FF"/>
<path d="M148.58 160.44H145.94L141.79 155V160.44H139.5V148.83H141.79V153.94L145.77 148.83H148.41L144.12 154.47L148.58 160.44Z" fill="#E4E5FF"/>
<path d="M151.999 158.26H156.889V160.45H149.709V148.84H156.809V151.03H151.999V153.5H156.389V155.66H151.999V158.26Z" fill="#E4E5FF"/>
<path d="M164.87 160.44L162.52 156.41H160.79V160.44H158.5V148.83H163.14C164.21 148.83 165.12 149.21 165.88 149.96C166.63 150.71 167.01 151.62 167.01 152.68C167.01 153.4 166.8 154.06 166.4 154.68C165.99 155.29 165.45 155.76 164.78 156.06L167.35 160.44H164.87ZM160.79 150.98V154.41H163.14C163.57 154.41 163.94 154.24 164.25 153.9C164.56 153.56 164.71 153.16 164.71 152.68C164.71 152.2 164.56 151.8 164.25 151.47C163.94 151.14 163.57 150.97 163.14 150.97H160.79V150.98Z" fill="#E4E5FF"/>
<path d="M168.599 161.55H167.969L172.389 151.6H173.019L168.599 161.55Z" fill="#E4E5FF"/>
<path d="M175.599 160.44L173.549 152.7H175.149L176.639 158.44L178.249 152.7H179.569L181.189 158.42L182.659 152.7H184.129L182.099 160.44H180.359L178.889 155.31L177.429 160.44H175.599Z" fill="#E4E5FF"/>
<path d="M186.669 158.98H189.929V160.44H185.139V152.7H189.869V154.16H186.659V155.81H189.589V157.25H186.659V158.98H186.669Z" fill="#E4E5FF"/>
<path d="M196.12 152.71V154.17H194.03V160.45H192.51V154.17H190.43V152.71H196.12Z" fill="#E4E5FF"/>
<path d="M201.369 152.71H202.879V160.45H201.369V157.24H198.499V160.45H196.969V152.71H198.499V155.78H201.369V152.71Z" fill="#E4E5FF"/>
<path d="M293.459 157.68C293.459 158.49 293.199 159.16 292.679 159.67C292.159 160.18 291.479 160.49 290.629 160.6V161.88H289.699V160.62C288.899 160.57 288.219 160.36 287.659 159.97C287.089 159.59 286.689 159.06 286.439 158.4L287.859 157.58C288.199 158.42 288.809 158.89 289.699 158.99V156C289.269 155.84 288.919 155.69 288.649 155.56C288.379 155.43 288.099 155.25 287.799 155.02C287.499 154.79 287.269 154.51 287.119 154.18C286.969 153.85 286.899 153.46 286.899 153.02C286.899 152.22 287.169 151.56 287.709 151.07C288.249 150.57 288.909 150.28 289.709 150.21V148.95H290.639V150.23C291.919 150.4 292.809 151.06 293.309 152.2L291.919 153.01C291.669 152.39 291.239 152.01 290.639 151.87V154.72C290.949 154.84 291.179 154.93 291.339 154.99C291.499 155.06 291.709 155.16 291.969 155.29C292.229 155.42 292.439 155.56 292.579 155.69C292.719 155.82 292.869 155.99 293.029 156.18C293.189 156.37 293.299 156.59 293.369 156.85C293.429 157.1 293.459 157.38 293.459 157.68ZM288.549 153.03C288.549 153.33 288.639 153.57 288.819 153.76C288.999 153.95 289.289 154.14 289.699 154.33V151.83C289.349 151.89 289.069 152.02 288.859 152.23C288.649 152.45 288.549 152.71 288.549 153.03ZM290.629 158.98C291.009 158.9 291.309 158.75 291.509 158.52C291.709 158.29 291.809 158.02 291.809 157.7C291.809 157.38 291.709 157.13 291.519 156.93C291.329 156.73 291.029 156.54 290.629 156.36V158.98Z" fill="#E4E5FF"/>
<path d="M301.329 159.21C300.639 160.16 299.669 160.63 298.419 160.63C297.169 160.63 296.199 160.16 295.509 159.21C294.819 158.26 294.469 157 294.469 155.42C294.469 153.84 294.819 152.57 295.509 151.63C296.199 150.68 297.169 150.21 298.419 150.21C299.669 150.21 300.629 150.68 301.329 151.63C302.019 152.58 302.369 153.84 302.369 155.42C302.369 157 302.029 158.26 301.329 159.21ZM298.419 159.02C299.169 159.02 299.739 158.71 300.129 158.09C300.519 157.47 300.719 156.58 300.719 155.42C300.719 154.26 300.519 153.37 300.129 152.75C299.739 152.13 299.169 151.82 298.419 151.82C297.679 151.82 297.109 152.13 296.719 152.75C296.319 153.37 296.119 154.26 296.119 155.42C296.119 156.58 296.319 157.47 296.719 158.09C297.119 158.71 297.679 159.02 298.419 159.02Z" fill="#E4E5FF"/>
<path d="M305.119 160.3C304.909 160.51 304.659 160.62 304.359 160.62C304.059 160.62 303.809 160.51 303.599 160.3C303.389 160.09 303.279 159.84 303.279 159.54C303.279 159.24 303.379 158.99 303.589 158.78C303.799 158.57 304.049 158.46 304.359 158.46C304.659 158.46 304.909 158.57 305.119 158.78C305.329 158.99 305.439 159.24 305.439 159.54C305.429 159.84 305.329 160.09 305.119 160.3Z" fill="#E4E5FF"/>
<path d="M313.19 159.21C312.5 160.16 311.53 160.63 310.28 160.63C309.03 160.63 308.06 160.16 307.37 159.21C306.68 158.26 306.33 157 306.33 155.42C306.33 153.84 306.68 152.57 307.37 151.63C308.06 150.68 309.03 150.21 310.28 150.21C311.53 150.21 312.49 150.68 313.19 151.63C313.88 152.58 314.23 153.84 314.23 155.42C314.23 157 313.88 158.26 313.19 159.21ZM310.28 159.02C311.03 159.02 311.6 158.71 311.99 158.09C312.38 157.47 312.58 156.58 312.58 155.42C312.58 154.26 312.38 153.37 311.99 152.75C311.6 152.13 311.03 151.82 310.28 151.82C309.54 151.82 308.97 152.13 308.58 152.75C308.18 153.37 307.98 154.26 307.98 155.42C307.98 156.58 308.18 157.47 308.58 158.09C308.97 158.71 309.54 159.02 310.28 159.02Z" fill="#E4E5FF"/>
<path d="M322.239 159.21C321.549 160.16 320.579 160.63 319.329 160.63C318.079 160.63 317.109 160.16 316.419 159.21C315.729 158.26 315.379 157 315.379 155.42C315.379 153.84 315.729 152.57 316.419 151.63C317.109 150.68 318.079 150.21 319.329 150.21C320.579 150.21 321.539 150.68 322.239 151.63C322.929 152.58 323.279 153.84 323.279 155.42C323.279 157 322.939 158.26 322.239 159.21ZM319.329 159.02C320.079 159.02 320.649 158.71 321.039 158.09C321.429 157.47 321.629 156.58 321.629 155.42C321.629 154.26 321.429 153.37 321.039 152.75C320.649 152.13 320.079 151.82 319.329 151.82C318.589 151.82 318.019 152.13 317.629 152.75C317.229 153.37 317.029 154.26 317.029 155.42C317.029 156.58 317.229 157.47 317.629 158.09C318.029 158.71 318.589 159.02 319.329 159.02Z" fill="#E4E5FF"/>
<path d="M331.29 159.21C330.6 160.16 329.63 160.63 328.38 160.63C327.13 160.63 326.16 160.16 325.47 159.21C324.78 158.26 324.43 157 324.43 155.42C324.43 153.84 324.78 152.57 325.47 151.63C326.16 150.68 327.13 150.21 328.38 150.21C329.63 150.21 330.59 150.68 331.29 151.63C331.98 152.58 332.33 153.84 332.33 155.42C332.34 157 331.99 158.26 331.29 159.21ZM328.38 159.02C329.13 159.02 329.7 158.71 330.09 158.09C330.48 157.47 330.68 156.58 330.68 155.42C330.68 154.26 330.48 153.37 330.09 152.75C329.7 152.13 329.13 151.82 328.38 151.82C327.64 151.82 327.07 152.13 326.68 152.75C326.28 153.37 326.08 154.26 326.08 155.42C326.08 156.58 326.28 157.47 326.68 158.09C327.08 158.71 327.65 159.02 328.38 159.02Z" fill="#E4E5FF"/>
<path d="M340.35 159.21C339.66 160.16 338.69 160.63 337.44 160.63C336.19 160.63 335.22 160.16 334.53 159.21C333.84 158.26 333.49 157 333.49 155.42C333.49 153.84 333.84 152.57 334.53 151.63C335.22 150.68 336.19 150.21 337.44 150.21C338.69 150.21 339.65 150.68 340.35 151.63C341.04 152.58 341.39 153.84 341.39 155.42C341.39 157 341.04 158.26 340.35 159.21ZM337.44 159.02C338.19 159.02 338.76 158.71 339.15 158.09C339.54 157.47 339.74 156.58 339.74 155.42C339.74 154.26 339.54 153.37 339.15 152.75C338.76 152.13 338.19 151.82 337.44 151.82C336.7 151.82 336.13 152.13 335.74 152.75C335.34 153.37 335.14 154.26 335.14 155.42C335.14 156.58 335.34 157.47 335.74 158.09C336.13 158.71 336.7 159.02 337.44 159.02Z" fill="#E4E5FF"/>
<path d="M350.059 157.1V158.64H348.909V160.45H347.239V158.64H342.299V157.1L345.759 150.39H347.559L344.099 157.1H347.249V154.48H348.919V157.1H350.059Z" fill="#E4E5FF"/>
<path d="M357.739 159.21C357.049 160.16 356.079 160.63 354.829 160.63C353.579 160.63 352.609 160.16 351.919 159.21C351.229 158.26 350.879 157 350.879 155.42C350.879 153.84 351.229 152.57 351.919 151.63C352.609 150.68 353.579 150.21 354.829 150.21C356.079 150.21 357.039 150.68 357.739 151.63C358.429 152.58 358.779 153.84 358.779 155.42C358.779 157 358.429 158.26 357.739 159.21ZM354.829 159.02C355.579 159.02 356.149 158.71 356.539 158.09C356.929 157.47 357.129 156.58 357.129 155.42C357.129 154.26 356.929 153.37 356.539 152.75C356.149 152.13 355.579 151.82 354.829 151.82C354.089 151.82 353.519 152.13 353.129 152.75C352.729 153.37 352.529 154.26 352.529 155.42C352.529 156.58 352.729 157.47 353.129 158.09C353.519 158.71 354.089 159.02 354.829 159.02Z" fill="#E4E5FF"/>
<path d="M363.269 153.76C364.319 153.76 365.169 154.08 365.829 154.72C366.489 155.36 366.819 156.18 366.819 157.2C366.819 158.22 366.489 159.04 365.829 159.68C365.169 160.32 364.319 160.64 363.269 160.64C362.219 160.64 361.359 160.32 360.699 159.68C360.039 159.04 359.709 158.22 359.709 157.2C359.709 156.43 359.909 155.76 360.309 155.17L363.499 150.39H365.379L363.079 153.77H363.269V153.76ZM363.279 159.06C363.839 159.06 364.289 158.89 364.649 158.55C364.999 158.21 365.179 157.76 365.179 157.19C365.179 156.63 364.999 156.17 364.649 155.83C364.299 155.49 363.839 155.32 363.279 155.32C362.719 155.32 362.249 155.49 361.899 155.83C361.549 156.17 361.369 156.62 361.369 157.19C361.369 157.76 361.549 158.21 361.899 158.55C362.249 158.89 362.709 159.06 363.279 159.06Z" fill="#E4E5FF"/>
<path d="M371.099 153.76C372.149 153.76 372.999 154.08 373.659 154.72C374.319 155.36 374.649 156.18 374.649 157.2C374.649 158.22 374.319 159.04 373.659 159.68C372.999 160.32 372.149 160.64 371.099 160.64C370.049 160.64 369.189 160.32 368.529 159.68C367.869 159.04 367.539 158.22 367.539 157.2C367.539 156.43 367.739 155.76 368.139 155.17L371.329 150.39H373.209L370.909 153.77H371.099V153.76ZM371.109 159.06C371.669 159.06 372.119 158.89 372.479 158.55C372.829 158.21 373.009 157.76 373.009 157.19C373.009 156.63 372.829 156.17 372.479 155.83C372.129 155.49 371.669 155.32 371.109 155.32C370.549 155.32 370.079 155.49 369.729 155.83C369.379 156.17 369.199 156.62 369.199 157.19C369.199 157.76 369.379 158.21 369.729 158.55C370.079 158.89 370.539 159.06 371.109 159.06Z" fill="#E4E5FF"/>
<path d="M469.44 154.5C470.17 154.67 470.76 155.01 471.21 155.51C471.66 156.01 471.89 156.64 471.89 157.4C471.89 158.41 471.55 159.2 470.87 159.77C470.19 160.34 469.36 160.63 468.37 160.63C467.6 160.63 466.92 160.45 466.31 160.1C465.7 159.75 465.26 159.23 465 158.55L466.41 157.73C466.71 158.59 467.36 159.02 468.38 159.02C468.95 159.02 469.41 158.87 469.75 158.58C470.08 158.29 470.25 157.89 470.25 157.39C470.25 156.89 470.08 156.5 469.75 156.21C469.41 155.92 468.96 155.78 468.38 155.78H468L467.34 154.79L469.51 151.93H465.3V150.38H471.48V151.79L469.44 154.5Z" fill="#E4E5FF"/>
<path d="M479.84 159.21C479.15 160.16 478.18 160.63 476.93 160.63C475.68 160.63 474.71 160.16 474.02 159.21C473.33 158.26 472.98 157 472.98 155.42C472.98 153.84 473.33 152.57 474.02 151.63C474.71 150.68 475.68 150.21 476.93 150.21C478.18 150.21 479.14 150.68 479.84 151.63C480.53 152.58 480.88 153.84 480.88 155.42C480.88 157 480.53 158.26 479.84 159.21ZM476.93 159.02C477.68 159.02 478.25 158.71 478.64 158.09C479.03 157.47 479.23 156.58 479.23 155.42C479.23 154.26 479.03 153.37 478.64 152.75C478.25 152.13 477.68 151.82 476.93 151.82C476.19 151.82 475.62 152.13 475.23 152.75C474.83 153.37 474.63 154.26 474.63 155.42C474.63 156.58 474.83 157.47 475.23 158.09C475.62 158.71 476.19 159.02 476.93 159.02Z" fill="#E4E5FF"/>
<path d="M483.999 150.38H485.439V160.44H483.789V152.15L481.759 152.72L481.359 151.31L483.999 150.38Z" fill="#E4E5FF"/>
<path d="M489.11 160.3C488.9 160.51 488.65 160.62 488.35 160.62C488.05 160.62 487.8 160.51 487.59 160.3C487.38 160.09 487.27 159.84 487.27 159.54C487.27 159.24 487.37 158.99 487.58 158.78C487.79 158.57 488.04 158.46 488.35 158.46C488.65 158.46 488.9 158.57 489.11 158.78C489.32 158.99 489.43 159.24 489.43 159.54C489.43 159.84 489.32 160.09 489.11 160.3Z" fill="#E4E5FF"/>
<path d="M490.62 160.44V159.15L494.13 155.57C494.98 154.72 495.41 153.98 495.41 153.36C495.41 152.87 495.26 152.49 494.97 152.22C494.68 151.95 494.31 151.81 493.86 151.81C493.02 151.81 492.39 152.23 491.99 153.06L490.6 152.24C490.92 151.57 491.36 151.06 491.94 150.72C492.51 150.37 493.15 150.2 493.85 150.2C494.73 150.2 495.49 150.48 496.12 151.03C496.75 151.59 497.07 152.34 497.07 153.3C497.07 154.32 496.49 155.41 495.34 156.56L493.06 158.85H497.26V160.45L490.62 160.44Z" fill="#E4E5FF"/>
<path d="M503.791 155.21C504.781 155.76 505.271 156.57 505.271 157.65C505.271 158.57 504.951 159.3 504.311 159.83C503.671 160.36 502.821 160.63 501.751 160.63C500.691 160.63 499.831 160.36 499.181 159.83C498.531 159.3 498.211 158.57 498.211 157.65C498.211 157.13 498.341 156.66 498.601 156.23C498.861 155.8 499.221 155.46 499.691 155.2C498.931 154.7 498.551 153.99 498.551 153.07C498.551 152.15 498.861 151.44 499.471 150.94C500.081 150.44 500.841 150.19 501.741 150.19C502.631 150.19 503.391 150.44 504.001 150.94C504.621 151.44 504.931 152.15 504.931 153.07C504.931 154.01 504.551 154.72 503.791 155.21ZM501.741 159.06C502.301 159.06 502.751 158.92 503.091 158.65C503.441 158.38 503.611 157.99 503.611 157.49C503.611 156.99 503.441 156.61 503.091 156.33C502.741 156.06 502.291 155.92 501.741 155.92C501.171 155.92 500.721 156.06 500.371 156.33C500.031 156.6 499.851 156.99 499.851 157.49C499.851 157.99 500.021 158.37 500.371 158.65C500.721 158.93 501.181 159.06 501.741 159.06ZM501.741 151.76C501.291 151.76 500.921 151.88 500.631 152.12C500.341 152.36 500.201 152.7 500.201 153.15C500.201 153.58 500.351 153.92 500.641 154.17C500.931 154.42 501.301 154.54 501.741 154.54C502.171 154.54 502.541 154.42 502.831 154.17C503.131 153.92 503.281 153.58 503.281 153.15C503.281 152.7 503.131 152.36 502.841 152.12C502.551 151.88 502.181 151.76 501.741 151.76Z" fill="#E4E5FF"/>
<path d="M510.229 154.13C509.789 154.58 509.229 154.8 508.559 154.8C507.889 154.8 507.329 154.58 506.879 154.13C506.429 153.69 506.199 153.14 506.199 152.5C506.199 151.86 506.429 151.31 506.879 150.87C507.329 150.42 507.889 150.2 508.559 150.2C509.229 150.2 509.789 150.42 510.229 150.86C510.679 151.3 510.899 151.85 510.899 152.5C510.899 153.14 510.679 153.68 510.229 154.13ZM507.049 158.96L513.679 151.59L514.459 152.04L507.829 159.43L507.049 158.96ZM508.539 153.53C508.849 153.53 509.099 153.43 509.289 153.23C509.479 153.03 509.579 152.78 509.579 152.5C509.579 152.2 509.479 151.95 509.289 151.75C509.099 151.55 508.849 151.45 508.539 151.45C508.239 151.45 507.999 151.55 507.809 151.75C507.619 151.95 507.519 152.2 507.519 152.5C507.519 152.79 507.619 153.03 507.809 153.23C507.999 153.43 508.239 153.53 508.539 153.53ZM513.149 160.62C512.479 160.62 511.919 160.4 511.469 159.95C511.019 159.51 510.789 158.96 510.789 158.32C510.789 157.68 511.019 157.13 511.469 156.69C511.919 156.24 512.479 156.02 513.149 156.02C513.809 156.02 514.369 156.24 514.819 156.69C515.269 157.14 515.499 157.68 515.499 158.32C515.499 158.96 515.269 159.51 514.819 159.95C514.369 160.39 513.819 160.62 513.149 160.62ZM513.139 159.35C513.449 159.35 513.699 159.25 513.889 159.05C514.079 158.85 514.179 158.6 514.179 158.32C514.179 158.02 514.079 157.77 513.889 157.57C513.699 157.37 513.449 157.27 513.139 157.27C512.839 157.27 512.599 157.37 512.409 157.57C512.219 157.77 512.119 158.02 512.119 158.32C512.119 158.61 512.219 158.85 512.409 159.05C512.599 159.25 512.839 159.35 513.139 159.35Z" fill="#E4E5FF"/>
<path d="M72.6591 197H70.7391L70.4691 198.59H72.3991L72.1191 200.31H70.1791L69.7091 203.11H67.9291L68.3991 200.31H66.5791L66.1091 203.11H64.3291L64.7991 200.31H62.8691L63.1491 198.59H65.0791L65.3491 197H63.3991L63.6791 195.27H65.6491L66.1191 192.49H67.8891L67.4191 195.27H69.2491L69.7191 192.49H71.4991L71.0291 195.27H72.9391L72.6591 197ZM68.6991 198.59L68.9691 197H67.1391L66.8691 198.59H68.6991Z" fill="#E4E5FF"/>
<path d="M79.6093 196.63C80.4493 196.88 81.1293 197.31 81.6493 197.93C82.1693 198.55 82.4393 199.3 82.4393 200.17C82.4393 201.44 82.0093 202.44 81.1593 203.16C80.3093 203.88 79.2593 204.24 78.0193 204.24C77.0493 204.24 76.1893 204.02 75.4293 203.58C74.6693 203.14 74.1193 202.49 73.7793 201.63L75.8693 200.43C76.1793 201.39 76.8993 201.86 78.0293 201.86C78.6493 201.86 79.1393 201.71 79.4893 201.41C79.8393 201.11 80.0093 200.7 80.0093 200.18C80.0093 199.67 79.8393 199.27 79.4893 198.96C79.1393 198.65 78.6593 198.5 78.0293 198.5H77.4993L76.5593 197.09L78.9993 193.91H74.1493V191.63H81.9293V193.65L79.6093 196.63Z" fill="#E4E5FF"/>
<path d="M109.369 206.55C108.079 206.55 107.019 206.18 106.189 205.46C105.359 204.73 104.949 203.75 104.949 202.52V194.71H107.219V202.34C107.219 202.95 107.389 203.43 107.739 203.78C108.089 204.13 108.629 204.31 109.369 204.31C110.109 204.31 110.649 204.13 110.999 203.78C111.349 203.43 111.519 202.95 111.519 202.34V194.71H113.809V202.52C113.809 203.75 113.399 204.73 112.569 205.46C111.739 206.19 110.669 206.55 109.369 206.55Z" fill="#E4E5FF"/>
<path d="M125.099 198.03H127.149L124.729 206.32H122.629L121.059 201.3L119.489 206.32H117.389L114.949 198.03H117.209L118.629 203.12L120.139 198.03H122.159L123.669 203.14L125.099 198.03Z" fill="#E4E5FF"/>
<path d="M132.959 206.55C131.669 206.55 130.609 206.18 129.779 205.46C128.949 204.73 128.539 203.75 128.539 202.52V194.71H130.809V202.34C130.809 202.95 130.979 203.43 131.329 203.78C131.679 204.13 132.219 204.31 132.959 204.31C133.699 204.31 134.239 204.13 134.589 203.78C134.939 203.43 135.109 202.95 135.109 202.34V194.71H137.399V202.52C137.399 203.75 136.989 204.73 136.159 205.46C135.329 206.19 134.269 206.55 132.959 206.55Z" fill="#E4E5FF"/>
<path d="M139.38 207.42H138.75L143.17 197.47H143.8L139.38 207.42Z" fill="#E4E5FF"/>
<path d="M146.38 206.32L144.33 198.58H145.93L147.42 204.32L149.03 198.58H150.35L151.97 204.3L153.44 198.58H154.91L152.88 206.32H151.14L149.67 201.19L148.21 206.32H146.38Z" fill="#E4E5FF"/>
<path d="M157.46 204.86H160.72V206.32H155.93V198.58H160.66V200.04H157.45V201.69H160.38V203.13H157.45V204.86H157.46Z" fill="#E4E5FF"/>
<path d="M166.909 198.58V200.04H164.819V206.32H163.299V200.04H161.219V198.58H166.909Z" fill="#E4E5FF"/>
<path d="M172.16 198.58H173.67V206.32H172.16V203.11H169.29V206.32H167.76V198.58H169.29V201.65H172.16V198.58Z" fill="#E4E5FF"/>
<path d="M319.75 203.56C319.75 204.37 319.49 205.04 318.97 205.55C318.45 206.06 317.77 206.37 316.92 206.48V207.76H315.99V206.5C315.19 206.45 314.51 206.24 313.95 205.85C313.38 205.47 312.98 204.94 312.73 204.28L314.15 203.46C314.49 204.3 315.1 204.77 315.99 204.87V201.88C315.56 201.72 315.21 201.57 314.94 201.44C314.67 201.31 314.39 201.13 314.09 200.9C313.79 200.67 313.56 200.39 313.41 200.06C313.26 199.73 313.19 199.34 313.19 198.9C313.19 198.1 313.46 197.44 314 196.95C314.54 196.45 315.2 196.16 316 196.09V194.83H316.93V196.11C318.21 196.28 319.1 196.94 319.6 198.08L318.21 198.89C317.96 198.27 317.53 197.89 316.93 197.75V200.6C317.24 200.72 317.47 200.81 317.63 200.87C317.79 200.94 318 201.04 318.26 201.17C318.52 201.3 318.73 201.44 318.87 201.57C319.01 201.7 319.16 201.87 319.32 202.06C319.48 202.25 319.59 202.47 319.66 202.73C319.72 202.97 319.75 203.25 319.75 203.56ZM314.84 198.9C314.84 199.2 314.93 199.44 315.11 199.63C315.29 199.82 315.58 200.01 315.99 200.2V197.7C315.64 197.76 315.36 197.89 315.15 198.1C314.94 198.32 314.84 198.59 314.84 198.9ZM316.92 204.85C317.3 204.77 317.6 204.62 317.8 204.39C318 204.16 318.1 203.89 318.1 203.57C318.1 203.25 318 203 317.81 202.8C317.62 202.6 317.32 202.41 316.92 202.23V204.85Z" fill="#E4E5FF"/>
<path d="M327.62 205.08C326.93 206.03 325.96 206.5 324.71 206.5C323.46 206.5 322.49 206.03 321.8 205.08C321.11 204.13 320.76 202.87 320.76 201.29C320.76 199.71 321.11 198.44 321.8 197.5C322.49 196.55 323.46 196.08 324.71 196.08C325.96 196.08 326.92 196.55 327.62 197.5C328.31 198.45 328.66 199.71 328.66 201.29C328.66 202.87 328.31 204.13 327.62 205.08ZM324.71 204.9C325.46 204.9 326.03 204.59 326.42 203.97C326.81 203.35 327.01 202.46 327.01 201.3C327.01 200.14 326.81 199.25 326.42 198.63C326.03 198.01 325.46 197.7 324.71 197.7C323.97 197.7 323.4 198.01 323.01 198.63C322.61 199.25 322.41 200.14 322.41 201.3C322.41 202.46 322.61 203.35 323.01 203.97C323.4 204.59 323.97 204.9 324.71 204.9Z" fill="#E4E5FF"/>
<path d="M331.41 206.18C331.2 206.39 330.95 206.5 330.65 206.5C330.35 206.5 330.1 206.39 329.89 206.18C329.68 205.97 329.57 205.72 329.57 205.42C329.57 205.12 329.67 204.87 329.88 204.66C330.09 204.45 330.34 204.34 330.65 204.34C330.95 204.34 331.2 204.45 331.41 204.66C331.62 204.87 331.73 205.12 331.73 205.42C331.72 205.71 331.62 205.96 331.41 206.18Z" fill="#E4E5FF"/>
<path d="M339.471 205.08C338.781 206.03 337.811 206.5 336.561 206.5C335.311 206.5 334.341 206.03 333.651 205.08C332.961 204.13 332.611 202.87 332.611 201.29C332.611 199.71 332.961 198.44 333.651 197.5C334.341 196.55 335.311 196.08 336.561 196.08C337.811 196.08 338.771 196.55 339.471 197.5C340.161 198.45 340.511 199.71 340.511 201.29C340.521 202.87 340.171 204.13 339.471 205.08ZM336.571 204.9C337.321 204.9 337.891 204.59 338.281 203.97C338.671 203.35 338.871 202.46 338.871 201.3C338.871 200.14 338.671 199.25 338.281 198.63C337.891 198.01 337.321 197.7 336.571 197.7C335.831 197.7 335.261 198.01 334.871 198.63C334.471 199.25 334.271 200.14 334.271 201.3C334.271 202.46 334.471 203.35 334.871 203.97C335.261 204.59 335.831 204.9 336.571 204.9Z" fill="#E4E5FF"/>
<path d="M343.39 207.45C343.95 207.45 344.43 207.62 344.81 207.95C345.2 208.28 345.39 208.74 345.39 209.33C345.39 209.92 345.19 210.38 344.8 210.71C344.4 211.04 343.92 211.21 343.34 211.21C342.88 211.21 342.47 211.1 342.11 210.89C341.75 210.67 341.5 210.36 341.35 209.96L342.18 209.48C342.34 210.01 342.72 210.28 343.34 210.28C343.67 210.28 343.93 210.19 344.13 210.02C344.33 209.85 344.43 209.62 344.43 209.33C344.43 209.04 344.33 208.81 344.14 208.64C343.94 208.47 343.68 208.39 343.36 208.39H341.65L341.9 205.24H345.15V206.15H342.77L342.65 207.46H343.39V207.45Z" fill="#E4E5FF"/>
<path d="M349.58 199.64C350.63 199.64 351.48 199.96 352.14 200.6C352.8 201.24 353.13 202.06 353.13 203.08C353.13 204.1 352.8 204.92 352.14 205.56C351.48 206.2 350.63 206.52 349.58 206.52C348.53 206.52 347.67 206.2 347.01 205.56C346.35 204.92 346.02 204.1 346.02 203.08C346.02 202.31 346.22 201.64 346.62 201.05L349.81 196.27H351.69L349.39 199.65H349.58V199.64ZM349.58 204.94C350.14 204.94 350.59 204.77 350.95 204.43C351.3 204.09 351.48 203.64 351.48 203.07C351.48 202.51 351.3 202.05 350.95 201.71C350.6 201.37 350.14 201.2 349.58 201.2C349.02 201.2 348.55 201.37 348.2 201.71C347.85 202.05 347.67 202.5 347.67 203.07C347.67 203.64 347.85 204.09 348.2 204.43C348.56 204.77 349.02 204.94 349.58 204.94Z" fill="#E4E5FF"/>
<path d="M353.5 206.32V205.03L357.01 201.45C357.86 200.6 358.29 199.86 358.29 199.24C358.29 198.75 358.14 198.37 357.85 198.1C357.56 197.83 357.19 197.69 356.74 197.69C355.9 197.69 355.27 198.11 354.87 198.94L353.48 198.12C353.8 197.45 354.24 196.94 354.82 196.6C355.4 196.26 356.03 196.08 356.73 196.08C357.61 196.08 358.37 196.36 359 196.91C359.63 197.47 359.95 198.22 359.95 199.18C359.95 200.2 359.37 201.29 358.22 202.44L355.94 204.73H360.14V206.33L353.5 206.32Z" fill="#E4E5FF"/>
<path d="M361.11 206.32V205.03L364.62 201.45C365.47 200.6 365.9 199.86 365.9 199.24C365.9 198.75 365.75 198.37 365.46 198.1C365.17 197.83 364.8 197.69 364.35 197.69C363.51 197.69 362.88 198.11 362.48 198.94L361.09 198.12C361.41 197.45 361.85 196.94 362.43 196.6C363.01 196.26 363.64 196.08 364.34 196.08C365.22 196.08 365.98 196.36 366.61 196.91C367.24 197.47 367.56 198.22 367.56 199.18C367.56 200.2 366.98 201.29 365.83 202.44L363.55 204.73H367.75V206.33L361.11 206.32Z" fill="#E4E5FF"/>
<path d="M368.191 196.26H374.591V197.7L371.051 206.32H369.311L372.791 197.84H368.191V196.26Z" fill="#E4E5FF"/>
<path d="M463.319 206.32V205.03L466.829 201.45C467.679 200.6 468.109 199.86 468.109 199.24C468.109 198.75 467.959 198.37 467.669 198.1C467.379 197.83 467.009 197.69 466.559 197.69C465.719 197.69 465.089 198.11 464.689 198.94L463.299 198.12C463.619 197.45 464.059 196.94 464.639 196.6C465.219 196.26 465.849 196.08 466.549 196.08C467.429 196.08 468.189 196.36 468.819 196.91C469.449 197.46 469.769 198.22 469.769 199.18C469.769 200.2 469.189 201.29 468.039 202.44L465.759 204.73H469.959V206.33L463.319 206.32Z" fill="#E4E5FF"/>
<path d="M475.129 200.37C475.859 200.54 476.449 200.88 476.899 201.38C477.349 201.88 477.579 202.51 477.579 203.27C477.579 204.28 477.239 205.07 476.559 205.64C475.879 206.21 475.049 206.5 474.059 206.5C473.289 206.5 472.609 206.32 471.999 205.97C471.389 205.62 470.949 205.1 470.689 204.42L472.099 203.6C472.399 204.46 473.049 204.89 474.069 204.89C474.639 204.89 475.099 204.74 475.439 204.45C475.769 204.16 475.939 203.76 475.939 203.26C475.939 202.76 475.769 202.37 475.439 202.08C475.099 201.79 474.649 201.65 474.069 201.65H473.699L473.039 200.66L475.209 197.8H470.999V196.25H477.179V197.66L475.129 200.37Z" fill="#E4E5FF"/>
<path d="M484.168 201.09C485.158 201.64 485.648 202.45 485.648 203.53C485.648 204.45 485.328 205.18 484.688 205.71C484.048 206.24 483.198 206.51 482.128 206.51C481.068 206.51 480.208 206.24 479.558 205.71C478.908 205.18 478.588 204.45 478.588 203.53C478.588 203.01 478.718 202.54 478.978 202.11C479.238 201.68 479.598 201.34 480.068 201.08C479.308 200.58 478.928 199.87 478.928 198.95C478.928 198.03 479.238 197.32 479.848 196.82C480.458 196.32 481.218 196.07 482.118 196.07C483.008 196.07 483.768 196.32 484.378 196.82C484.998 197.32 485.308 198.03 485.308 198.95C485.318 199.88 484.938 200.59 484.168 201.09ZM482.128 204.94C482.688 204.94 483.138 204.8 483.478 204.53C483.828 204.26 483.998 203.87 483.998 203.37C483.998 202.87 483.828 202.49 483.478 202.21C483.128 201.94 482.678 201.8 482.128 201.8C481.558 201.8 481.108 201.94 480.758 202.21C480.418 202.48 480.238 202.87 480.238 203.37C480.238 203.87 480.408 204.25 480.758 204.53C481.108 204.8 481.558 204.94 482.128 204.94ZM482.128 197.64C481.678 197.64 481.308 197.76 481.018 198C480.728 198.24 480.588 198.58 480.588 199.03C480.588 199.46 480.738 199.8 481.028 200.05C481.318 200.3 481.688 200.42 482.128 200.42C482.558 200.42 482.928 200.3 483.218 200.05C483.518 199.8 483.668 199.46 483.668 199.03C483.668 198.58 483.518 198.24 483.228 198C482.938 197.76 482.568 197.64 482.128 197.64Z" fill="#E4E5FF"/>
<path d="M488.748 206.18C488.538 206.39 488.288 206.5 487.988 206.5C487.688 206.5 487.438 206.39 487.228 206.18C487.018 205.97 486.908 205.72 486.908 205.42C486.908 205.12 487.008 204.87 487.218 204.66C487.428 204.45 487.678 204.34 487.988 204.34C488.288 204.34 488.538 204.45 488.748 204.66C488.958 204.87 489.068 205.12 489.068 205.42C489.068 205.71 488.958 205.96 488.748 206.18Z" fill="#E4E5FF"/>
<path d="M497.908 202.97V204.51H496.758V206.32H495.088V204.51H490.148V202.97L493.608 196.26H495.408L491.948 202.97H495.098V200.35H496.768V202.97H497.908Z" fill="#E4E5FF"/>
<path d="M502.96 200.37C503.69 200.54 504.28 200.88 504.73 201.38C505.18 201.88 505.41 202.51 505.41 203.27C505.41 204.28 505.07 205.07 504.39 205.64C503.71 206.21 502.88 206.5 501.89 206.5C501.12 206.5 500.44 206.32 499.83 205.97C499.22 205.62 498.78 205.1 498.52 204.42L499.93 203.6C500.23 204.46 500.88 204.89 501.9 204.89C502.47 204.89 502.93 204.74 503.27 204.45C503.6 204.16 503.77 203.76 503.77 203.26C503.77 202.76 503.6 202.37 503.27 202.08C502.93 201.79 502.48 201.65 501.9 201.65H501.53L500.87 200.66L503.04 197.8H498.83V196.25H505.01V197.66L502.96 200.37Z" fill="#E4E5FF"/>
<path d="M510.229 200C509.789 200.45 509.229 200.67 508.559 200.67C507.889 200.67 507.329 200.45 506.879 200C506.429 199.56 506.199 199.01 506.199 198.37C506.199 197.73 506.429 197.18 506.879 196.74C507.329 196.29 507.889 196.07 508.559 196.07C509.229 196.07 509.789 196.29 510.229 196.73C510.679 197.17 510.899 197.72 510.899 198.37C510.899 199.01 510.679 199.56 510.229 200ZM507.049 204.84L513.679 197.47L514.459 197.92L507.829 205.31L507.049 204.84ZM508.539 199.41C508.849 199.41 509.099 199.31 509.289 199.11C509.479 198.91 509.579 198.66 509.579 198.38C509.579 198.08 509.479 197.83 509.289 197.63C509.099 197.43 508.849 197.33 508.539 197.33C508.239 197.33 507.999 197.43 507.809 197.63C507.619 197.83 507.519 198.08 507.519 198.38C507.519 198.67 507.619 198.91 507.809 199.11C507.999 199.31 508.249 199.41 508.539 199.41ZM513.159 206.49C512.489 206.49 511.929 206.27 511.479 205.82C511.029 205.38 510.799 204.83 510.799 204.19C510.799 203.55 511.029 203 511.479 202.56C511.929 202.11 512.489 201.89 513.159 201.89C513.819 201.89 514.379 202.11 514.829 202.56C515.279 203.01 515.509 203.55 515.509 204.19C515.509 204.83 515.279 205.38 514.829 205.82C514.369 206.27 513.819 206.49 513.159 206.49ZM513.139 205.23C513.449 205.23 513.699 205.13 513.889 204.93C514.079 204.73 514.179 204.48 514.179 204.2C514.179 203.9 514.079 203.65 513.889 203.45C513.699 203.25 513.449 203.15 513.139 203.15C512.839 203.15 512.599 203.25 512.409 203.45C512.219 203.65 512.119 203.9 512.119 204.2C512.119 204.49 512.219 204.73 512.409 204.93C512.599 205.13 512.839 205.23 513.139 205.23Z" fill="#E4E5FF"/>
<path d="M465.36 106.88H457.59L458.5 107.79L460.38 109.66L459.34 110.7L461.41 112.77L462.45 111.73L464.46 113.74L465.36 114.65V106.88Z" fill="#E4E5FF"/>
<path d="M461.501 152.75H453.721L454.631 153.66L456.511 155.54L455.471 156.57L457.551 158.64L458.581 157.61L460.591 159.61L461.501 160.52V152.75Z" fill="#E4E5FF"/>
<path d="M459.28 198.63H451.51L452.42 199.54L454.3 201.41L453.26 202.45L455.33 204.52L456.37 203.48L458.38 205.49L459.28 206.4V198.63Z" fill="#E4E5FF"/>
<path d="M521.19 428H62.8098C51.0398 428 41.5098 418.46 41.5098 406.7V259.73C41.5098 247.96 51.0498 238.43 62.8098 238.43H521.19C532.96 238.43 542.49 247.97 542.49 259.73V406.7C542.49 418.46 532.95 428 521.19 428Z" fill="#757DFF"/>
<path d="M82.1395 322.43H63.3295C58.5995 322.43 54.7695 318.6 54.7695 313.87V295.06C54.7695 290.33 58.5995 286.5 63.3295 286.5H82.1395C86.8695 286.5 90.6995 290.33 90.6995 295.06V313.87C90.6995 318.6 86.8695 322.43 82.1395 322.43Z" fill="#E4E5FF"/>
<path d="M74.0595 303.67H72.1395L71.8695 305.26H73.7995L73.5195 306.98H71.5795L71.1095 309.78H69.3295L69.7995 306.98H67.9795L67.5095 309.78H65.7295L66.1995 306.98H64.2695L64.5495 305.26H66.4795L66.7495 303.67H64.7995L65.0795 301.94H67.0495L67.5195 299.16H69.2895L68.8195 301.94H70.6495L71.1195 299.16H72.8995L72.4295 301.94H74.3395L74.0595 303.67ZM70.0895 305.27L70.3595 303.68H68.5295L68.2595 305.27H70.0895Z" fill="#757DFF"/>
<path d="M78.209 298.28H80.329V310.66H77.889V300.86L75.559 301.51L74.959 299.42L78.209 298.28Z" fill="#757DFF"/>
<path d="M107.291 312.99L104.221 301.38H106.611L108.841 309.99L111.261 301.38H113.241L115.671 309.96L117.871 301.38H120.071L117.021 312.99H114.421L112.221 305.29L110.041 312.99H107.291Z" fill="#E4E5FF"/>
<path d="M128.621 306.97C129.641 307.56 130.151 308.44 130.151 309.62C130.151 310.6 129.801 311.41 129.111 312.04C128.411 312.67 127.561 312.99 126.541 312.99H121.621V301.38H126.201C127.191 301.38 128.031 301.69 128.711 302.3C129.391 302.91 129.731 303.7 129.731 304.65C129.711 305.61 129.351 306.39 128.621 306.97ZM126.181 303.52H123.891V306.07H126.181C126.531 306.07 126.831 305.95 127.071 305.71C127.311 305.47 127.431 305.16 127.431 304.8C127.431 304.44 127.311 304.13 127.081 303.89C126.851 303.64 126.551 303.52 126.181 303.52ZM126.531 310.85C126.921 310.85 127.241 310.72 127.491 310.46C127.741 310.2 127.871 309.87 127.871 309.47C127.871 309.08 127.741 308.76 127.491 308.5C127.241 308.24 126.921 308.11 126.531 308.11H123.891V310.85H126.531Z" fill="#E4E5FF"/>
<path d="M138.981 301.38V303.57H135.851V312.99H133.561V303.57H130.441V301.38H138.981Z" fill="#E4E5FF"/>
<path d="M145.101 313.22C143.351 313.22 141.911 312.64 140.771 311.48C139.631 310.32 139.061 308.89 139.061 307.19C139.061 305.48 139.631 304.04 140.771 302.89C141.911 301.74 143.351 301.16 145.101 301.16C146.151 301.16 147.121 301.41 148.011 301.9C148.901 302.39 149.591 303.06 150.091 303.9L148.121 305.04C147.831 304.52 147.421 304.11 146.891 303.82C146.361 303.53 145.761 303.38 145.101 303.38C143.971 303.38 143.061 303.73 142.371 304.44C141.681 305.15 141.331 306.06 141.331 307.19C141.331 308.31 141.681 309.22 142.371 309.93C143.061 310.64 143.971 310.99 145.101 310.99C145.761 310.99 146.361 310.84 146.901 310.55C147.441 310.26 147.841 309.86 148.121 309.35L150.091 310.49C149.591 311.33 148.901 312 148.021 312.49C147.141 312.98 146.161 313.22 145.101 313.22Z" fill="#E4E5FF"/>
<path d="M151.55 314.09H150.92L155.34 304.14H155.97L151.55 314.09Z" fill="#E4E5FF"/>
<path d="M159.94 313.15C159.08 313.15 158.37 312.91 157.82 312.42C157.27 311.93 156.99 311.28 156.99 310.46V305.25H158.5V310.34C158.5 310.75 158.62 311.07 158.85 311.3C159.08 311.54 159.44 311.65 159.94 311.65C160.43 311.65 160.8 311.53 161.03 311.3C161.26 311.06 161.38 310.74 161.38 310.34V305.25H162.9V310.46C162.9 311.28 162.62 311.93 162.07 312.42C161.52 312.9 160.81 313.15 159.94 313.15Z" fill="#E4E5FF"/>
<path d="M166.921 313.15C166.151 313.15 165.511 312.98 164.991 312.64C164.471 312.3 164.101 311.83 163.881 311.24L165.181 310.48C165.481 311.27 166.081 311.66 166.961 311.66C167.391 311.66 167.701 311.58 167.901 311.43C168.101 311.28 168.201 311.08 168.201 310.84C168.201 310.57 168.081 310.35 167.831 310.2C167.591 310.05 167.151 309.89 166.531 309.71C166.181 309.61 165.891 309.5 165.651 309.4C165.411 309.3 165.171 309.16 164.931 308.99C164.691 308.82 164.511 308.6 164.381 308.33C164.251 308.06 164.191 307.76 164.191 307.4C164.191 306.7 164.441 306.14 164.941 305.73C165.441 305.31 166.041 305.1 166.741 305.1C167.371 305.1 167.921 305.25 168.391 305.56C168.871 305.87 169.241 306.29 169.501 306.84L168.221 307.58C167.911 306.92 167.421 306.59 166.741 306.59C166.421 306.59 166.171 306.66 165.991 306.81C165.811 306.95 165.721 307.14 165.721 307.37C165.721 307.61 165.821 307.81 166.021 307.96C166.221 308.11 166.611 308.28 167.191 308.45C167.431 308.52 167.601 308.58 167.731 308.62C167.851 308.66 168.021 308.72 168.231 308.81C168.441 308.9 168.601 308.97 168.721 309.05C168.831 309.12 168.971 309.22 169.111 309.35C169.261 309.48 169.371 309.6 169.451 309.74C169.531 309.87 169.591 310.03 169.651 310.22C169.701 310.41 169.731 310.61 169.731 310.83C169.731 311.54 169.471 312.11 168.951 312.53C168.431 312.94 167.751 313.15 166.921 313.15Z" fill="#E4E5FF"/>
<path d="M173.74 305.25C174.8 305.25 175.69 305.62 176.4 306.37C177.11 307.11 177.47 308.03 177.47 309.12C177.47 310.21 177.11 311.13 176.4 311.87C175.69 312.61 174.8 312.99 173.74 312.99H170.67V305.25H173.74ZM173.74 311.53C174.41 311.53 174.96 311.31 175.38 310.86C175.8 310.41 176.01 309.83 176.01 309.12C176.01 308.41 175.8 307.82 175.38 307.38C174.96 306.93 174.41 306.71 173.74 306.71H172.19V311.53H173.74Z" fill="#E4E5FF"/>
<path d="M182.221 313.15C181.061 313.15 180.091 312.76 179.341 311.99C178.581 311.22 178.201 310.26 178.201 309.13C178.201 307.99 178.581 307.03 179.341 306.26C180.101 305.49 181.061 305.1 182.221 305.1C182.921 305.1 183.571 305.26 184.161 305.59C184.751 305.92 185.221 306.36 185.551 306.92L184.231 307.68C184.041 307.33 183.771 307.06 183.411 306.87C183.061 306.68 182.661 306.58 182.221 306.58C181.471 306.58 180.861 306.82 180.401 307.29C179.941 307.76 179.711 308.37 179.711 309.13C179.711 309.87 179.941 310.48 180.401 310.95C180.861 311.42 181.471 311.66 182.221 311.66C182.661 311.66 183.061 311.56 183.421 311.37C183.781 311.17 184.051 310.91 184.231 310.57L185.551 311.33C185.221 311.89 184.761 312.33 184.171 312.66C183.571 312.98 182.921 313.15 182.221 313.15Z" fill="#E4E5FF"/>
<path d="M320.18 310.23C320.18 311.04 319.92 311.71 319.4 312.22C318.88 312.73 318.2 313.04 317.35 313.15V314.43H316.42V313.17C315.62 313.12 314.94 312.91 314.38 312.52C313.81 312.14 313.41 311.61 313.16 310.95L314.58 310.13C314.92 310.97 315.53 311.44 316.42 311.54V308.55C315.99 308.39 315.64 308.24 315.37 308.11C315.1 307.98 314.82 307.8 314.52 307.57C314.22 307.34 313.99 307.06 313.84 306.73C313.69 306.4 313.62 306.01 313.62 305.57C313.62 304.77 313.89 304.11 314.43 303.62C314.97 303.12 315.63 302.83 316.43 302.76V301.5H317.36V302.78C318.64 302.95 319.53 303.61 320.03 304.75L318.64 305.56C318.39 304.94 317.96 304.56 317.36 304.42V307.27C317.67 307.39 317.9 307.48 318.06 307.54C318.22 307.61 318.43 307.71 318.69 307.84C318.95 307.97 319.16 308.11 319.3 308.24C319.44 308.37 319.59 308.54 319.75 308.73C319.91 308.92 320.02 309.14 320.09 309.4C320.14 309.64 320.18 309.92 320.18 310.23ZM315.26 305.58C315.26 305.88 315.35 306.12 315.53 306.31C315.71 306.5 316 306.69 316.41 306.88V304.38C316.06 304.44 315.78 304.57 315.57 304.78C315.37 305 315.26 305.26 315.26 305.58ZM317.35 311.52C317.73 311.44 318.03 311.29 318.23 311.06C318.43 310.83 318.53 310.56 318.53 310.24C318.53 309.92 318.43 309.67 318.24 309.47C318.05 309.27 317.75 309.08 317.35 308.9V311.52Z" fill="#E4E5FF"/>
<path d="M321.049 312.99V311.7L324.559 308.12C325.409 307.27 325.839 306.53 325.839 305.91C325.839 305.42 325.689 305.04 325.399 304.77C325.109 304.5 324.739 304.36 324.289 304.36C323.449 304.36 322.819 304.78 322.419 305.61L321.029 304.79C321.349 304.12 321.789 303.61 322.369 303.27C322.939 302.92 323.579 302.75 324.279 302.75C325.159 302.75 325.919 303.03 326.549 303.58C327.179 304.14 327.499 304.89 327.499 305.85C327.499 306.87 326.919 307.96 325.769 309.11L323.489 311.4H327.689V313H321.049V312.99Z" fill="#E4E5FF"/>
<path d="M335.61 306.18C335.61 306.95 335.41 307.62 335.01 308.21L331.83 313H329.93L332.22 309.62H332.05C331.01 309.62 330.15 309.3 329.49 308.66C328.83 308.02 328.49 307.2 328.49 306.18C328.49 305.16 328.82 304.34 329.49 303.7C330.16 303.06 331.01 302.74 332.05 302.74C333.09 302.74 333.95 303.06 334.61 303.7C335.28 304.34 335.61 305.16 335.61 306.18ZM330.15 306.18C330.15 306.74 330.33 307.19 330.69 307.53C331.05 307.88 331.51 308.05 332.06 308.05C332.61 308.05 333.07 307.88 333.43 307.54C333.78 307.2 333.96 306.75 333.96 306.18C333.96 305.61 333.78 305.16 333.43 304.82C333.08 304.48 332.62 304.31 332.06 304.31C331.5 304.31 331.05 304.48 330.69 304.82C330.33 305.16 330.15 305.61 330.15 306.18Z" fill="#E4E5FF"/>
<path d="M337.021 311.27L336.011 315.01H334.721L335.291 311.27H337.021Z" fill="#E4E5FF"/>
<path d="M344.229 306.18C344.229 306.95 344.029 307.62 343.629 308.21L340.449 313H338.549L340.839 309.62H340.669C339.629 309.62 338.769 309.3 338.109 308.66C337.449 308.02 337.109 307.2 337.109 306.18C337.109 305.16 337.439 304.34 338.109 303.7C338.779 303.06 339.629 302.74 340.669 302.74C341.709 302.74 342.569 303.06 343.229 303.7C343.899 304.34 344.229 305.16 344.229 306.18ZM338.769 306.18C338.769 306.74 338.949 307.19 339.309 307.53C339.669 307.88 340.129 308.05 340.679 308.05C341.229 308.05 341.689 307.88 342.049 307.54C342.399 307.2 342.579 306.75 342.579 306.18C342.579 305.61 342.399 305.16 342.049 304.82C341.699 304.48 341.239 304.31 340.679 304.31C340.119 304.31 339.669 304.48 339.309 304.82C338.949 305.16 338.769 305.61 338.769 306.18Z" fill="#E4E5FF"/>
<path d="M352.069 306.18C352.069 306.95 351.869 307.62 351.469 308.21L348.289 313H346.389L348.679 309.62H348.509C347.469 309.62 346.609 309.3 345.949 308.66C345.289 308.02 344.949 307.2 344.949 306.18C344.949 305.16 345.279 304.34 345.949 303.7C346.619 303.06 347.469 302.74 348.509 302.74C349.549 302.74 350.409 303.06 351.069 303.7C351.739 304.34 352.069 305.16 352.069 306.18ZM346.609 306.18C346.609 306.74 346.789 307.19 347.149 307.53C347.509 307.88 347.969 308.05 348.519 308.05C349.069 308.05 349.529 307.88 349.889 307.54C350.239 307.2 350.419 306.75 350.419 306.18C350.419 305.61 350.239 305.16 349.889 304.82C349.539 304.48 349.079 304.31 348.519 304.31C347.959 304.31 347.509 304.48 347.149 304.82C346.779 305.16 346.609 305.61 346.609 306.18Z" fill="#E4E5FF"/>
<path d="M355.261 302.93H356.701V312.99H355.051V304.7L353.021 305.27L352.621 303.86L355.261 302.93Z" fill="#E4E5FF"/>
<path d="M360.369 312.85C360.159 313.06 359.909 313.17 359.609 313.17C359.309 313.17 359.059 313.06 358.849 312.85C358.639 312.64 358.529 312.39 358.529 312.09C358.529 311.79 358.629 311.54 358.839 311.33C359.049 311.12 359.299 311.01 359.609 311.01C359.909 311.01 360.159 311.12 360.369 311.33C360.579 311.54 360.689 311.79 360.689 312.09C360.689 312.38 360.579 312.64 360.369 312.85Z" fill="#E4E5FF"/>
<path d="M367.899 306.18C367.899 306.95 367.699 307.62 367.299 308.21L364.119 313H362.219L364.509 309.62H364.339C363.299 309.62 362.439 309.3 361.779 308.66C361.119 308.02 360.779 307.2 360.779 306.18C360.779 305.16 361.109 304.34 361.779 303.7C362.449 303.06 363.299 302.74 364.339 302.74C365.379 302.74 366.239 303.06 366.899 303.7C367.569 304.34 367.899 305.16 367.899 306.18ZM362.439 306.18C362.439 306.74 362.619 307.19 362.979 307.53C363.339 307.88 363.799 308.05 364.349 308.05C364.899 308.05 365.359 307.88 365.719 307.54C366.069 307.2 366.249 306.75 366.249 306.18C366.249 305.61 366.069 305.16 365.719 304.82C365.369 304.48 364.909 304.31 364.349 304.31C363.789 304.31 363.339 304.48 362.979 304.82C362.619 305.16 362.439 305.61 362.439 306.18Z" fill="#E4E5FF"/>
<path d="M368.189 302.93H374.589V304.37L371.049 312.99H369.309L372.789 304.51H368.189V302.93Z" fill="#E4E5FF"/>
<path d="M485.399 311.76C484.709 312.71 483.739 313.18 482.489 313.18C481.239 313.18 480.269 312.71 479.579 311.76C478.889 310.81 478.539 309.55 478.539 307.97C478.539 306.39 478.889 305.12 479.579 304.18C480.269 303.23 481.239 302.76 482.489 302.76C483.739 302.76 484.699 303.23 485.399 304.18C486.089 305.13 486.439 306.39 486.439 307.97C486.439 309.54 486.089 310.81 485.399 311.76ZM482.489 311.57C483.239 311.57 483.809 311.26 484.199 310.64C484.589 310.02 484.789 309.13 484.789 307.97C484.789 306.81 484.589 305.92 484.199 305.3C483.809 304.68 483.239 304.37 482.489 304.37C481.749 304.37 481.179 304.68 480.789 305.3C480.389 305.92 480.189 306.81 480.189 307.97C480.189 309.13 480.389 310.02 480.789 310.64C481.179 311.26 481.749 311.57 482.489 311.57Z" fill="#E4E5FF"/>
<path d="M489.18 312.85C488.97 313.06 488.72 313.17 488.42 313.17C488.12 313.17 487.87 313.06 487.66 312.85C487.45 312.64 487.34 312.39 487.34 312.09C487.34 311.79 487.44 311.54 487.65 311.33C487.86 311.12 488.11 311.01 488.42 311.01C488.72 311.01 488.97 311.12 489.18 311.33C489.39 311.54 489.5 311.79 489.5 312.09C489.5 312.38 489.4 312.64 489.18 312.85Z" fill="#E4E5FF"/>
<path d="M494.169 306.31C495.219 306.31 496.069 306.63 496.729 307.27C497.389 307.91 497.719 308.73 497.719 309.75C497.719 310.77 497.389 311.59 496.729 312.23C496.069 312.87 495.219 313.19 494.169 313.19C493.119 313.19 492.259 312.87 491.599 312.23C490.939 311.59 490.609 310.77 490.609 309.75C490.609 308.98 490.809 308.31 491.209 307.72L494.399 302.94H496.279L493.979 306.32H494.169V306.31ZM494.169 311.61C494.729 311.61 495.179 311.44 495.539 311.1C495.889 310.76 496.069 310.31 496.069 309.74C496.069 309.18 495.889 308.72 495.539 308.38C495.189 308.04 494.729 307.87 494.169 307.87C493.609 307.87 493.139 308.04 492.789 308.38C492.439 308.72 492.259 309.17 492.259 309.74C492.259 310.31 492.439 310.76 492.789 311.1C493.149 311.44 493.609 311.61 494.169 311.61Z" fill="#E4E5FF"/>
<path d="M501.999 306.31C503.049 306.31 503.899 306.63 504.559 307.27C505.219 307.91 505.549 308.73 505.549 309.75C505.549 310.77 505.219 311.59 504.559 312.23C503.899 312.87 503.049 313.19 501.999 313.19C500.949 313.19 500.089 312.87 499.429 312.23C498.769 311.59 498.439 310.77 498.439 309.75C498.439 308.98 498.639 308.31 499.039 307.72L502.229 302.94H504.109L501.809 306.32H501.999V306.31ZM501.999 311.61C502.559 311.61 503.009 311.44 503.369 311.1C503.719 310.76 503.899 310.31 503.899 309.74C503.899 309.18 503.719 308.72 503.369 308.38C503.019 308.04 502.559 307.87 501.999 307.87C501.439 307.87 500.969 308.04 500.619 308.38C500.269 308.72 500.089 309.17 500.089 309.74C500.089 310.31 500.269 310.76 500.619 311.1C500.979 311.44 501.439 311.61 501.999 311.61Z" fill="#E4E5FF"/>
<path d="M510.229 306.67C509.789 307.12 509.229 307.34 508.559 307.34C507.889 307.34 507.329 307.12 506.879 306.67C506.429 306.23 506.199 305.68 506.199 305.04C506.199 304.4 506.429 303.85 506.879 303.41C507.329 302.96 507.889 302.74 508.559 302.74C509.229 302.74 509.789 302.96 510.229 303.4C510.679 303.84 510.899 304.39 510.899 305.04C510.899 305.69 510.679 306.23 510.229 306.67ZM507.049 311.51L513.679 304.14L514.459 304.59L507.829 311.98L507.049 311.51ZM508.539 306.08C508.849 306.08 509.099 305.98 509.289 305.78C509.479 305.58 509.579 305.33 509.579 305.05C509.579 304.75 509.479 304.5 509.289 304.3C509.099 304.1 508.849 304 508.539 304C508.239 304 507.999 304.1 507.809 304.3C507.619 304.5 507.519 304.75 507.519 305.05C507.519 305.34 507.619 305.58 507.809 305.78C507.999 305.98 508.239 306.08 508.539 306.08ZM513.149 313.16C512.479 313.16 511.919 312.94 511.469 312.49C511.019 312.05 510.789 311.5 510.789 310.86C510.789 310.22 511.019 309.67 511.469 309.23C511.919 308.78 512.479 308.56 513.149 308.56C513.809 308.56 514.369 308.78 514.819 309.23C515.269 309.68 515.499 310.22 515.499 310.86C515.499 311.5 515.269 312.05 514.819 312.49C514.369 312.94 513.819 313.16 513.149 313.16ZM513.139 311.9C513.449 311.9 513.699 311.8 513.889 311.6C514.079 311.4 514.179 311.15 514.179 310.87C514.179 310.57 514.079 310.32 513.889 310.12C513.699 309.92 513.449 309.82 513.139 309.82C512.839 309.82 512.599 309.92 512.409 310.12C512.219 310.32 512.119 310.57 512.119 310.87C512.119 311.16 512.219 311.4 512.409 311.6C512.599 311.8 512.839 311.9 513.139 311.9Z" fill="#E4E5FF"/>
<path d="M72.79 349.55H70.87L70.6 351.14H72.53L72.25 352.86H70.31L69.84 355.66H68.06L68.53 352.86H66.71L66.24 355.66H64.46L64.93 352.86H63L63.28 351.14H65.21L65.48 349.55H63.52L63.8 347.82H65.77L66.24 345.04H68.01L67.54 347.82H69.37L69.84 345.04H71.62L71.15 347.82H73.06L72.79 349.55ZM68.82 351.14L69.09 349.55H67.26L67 351.14H68.82Z" fill="#E4E5FF"/>
<path d="M73.9591 356.54V354.72L78.1891 350.37C79.1291 349.38 79.5991 348.55 79.5991 347.89C79.5991 347.41 79.4491 347.02 79.1491 346.72C78.8491 346.43 78.4591 346.28 77.9891 346.28C77.0591 346.28 76.3691 346.76 75.9191 347.73L73.8691 346.53C74.2591 345.68 74.8191 345.03 75.5491 344.58C76.2791 344.13 77.0791 343.91 77.9591 343.91C79.0791 343.91 80.0391 344.26 80.8391 344.96C81.6391 345.66 82.0391 346.61 82.0391 347.8C82.0391 349.08 81.3591 350.4 80.0091 351.75L77.5791 354.18H82.2291V356.53H73.9591V356.54Z" fill="#E4E5FF"/>
<path d="M107.291 358.87L104.221 347.26H106.611L108.841 355.87L111.261 347.26H113.241L115.671 355.84L117.871 347.26H120.071L117.021 358.87H114.421L112.221 351.17L110.041 358.87H107.291Z" fill="#E4E5FF"/>
<path d="M128.621 352.85C129.641 353.44 130.151 354.32 130.151 355.5C130.151 356.48 129.801 357.29 129.111 357.92C128.411 358.55 127.561 358.87 126.541 358.87H121.621V347.26H126.201C127.191 347.26 128.031 347.57 128.711 348.18C129.391 348.79 129.731 349.58 129.731 350.53C129.711 351.49 129.351 352.26 128.621 352.85ZM126.181 349.4H123.891V351.95H126.181C126.531 351.95 126.831 351.83 127.071 351.59C127.311 351.35 127.431 351.04 127.431 350.68C127.431 350.32 127.311 350.01 127.081 349.77C126.851 349.52 126.551 349.4 126.181 349.4ZM126.531 356.73C126.921 356.73 127.241 356.6 127.491 356.34C127.741 356.08 127.871 355.75 127.871 355.35C127.871 354.96 127.741 354.64 127.491 354.38C127.241 354.12 126.921 353.99 126.531 353.99H123.891V356.73H126.531Z" fill="#E4E5FF"/>
<path d="M138.981 347.26V349.45H135.851V358.87H133.561V349.45H130.441V347.26H138.981Z" fill="#E4E5FF"/>
<path d="M145.101 359.1C143.351 359.1 141.911 358.52 140.771 357.36C139.631 356.2 139.061 354.77 139.061 353.07C139.061 351.36 139.631 349.92 140.771 348.77C141.911 347.61 143.351 347.04 145.101 347.04C146.151 347.04 147.121 347.29 148.011 347.78C148.901 348.27 149.591 348.94 150.091 349.78L148.121 350.92C147.831 350.4 147.421 349.99 146.891 349.7C146.361 349.41 145.761 349.26 145.101 349.26C143.971 349.26 143.061 349.61 142.371 350.32C141.681 351.03 141.331 351.94 141.331 353.07C141.331 354.19 141.681 355.1 142.371 355.81C143.061 356.52 143.971 356.87 145.101 356.87C145.761 356.87 146.361 356.72 146.901 356.43C147.441 356.14 147.841 355.74 148.121 355.23L150.091 356.37C149.591 357.21 148.901 357.88 148.021 358.37C147.141 358.85 146.161 359.1 145.101 359.1Z" fill="#E4E5FF"/>
<path d="M151.55 359.97H150.92L155.34 350.02H155.97L151.55 359.97Z" fill="#E4E5FF"/>
<path d="M159.94 359.02C159.08 359.02 158.37 358.78 157.82 358.29C157.27 357.8 156.99 357.15 156.99 356.33V351.12H158.5V356.21C158.5 356.62 158.62 356.94 158.85 357.17C159.08 357.41 159.44 357.52 159.94 357.52C160.43 357.52 160.8 357.4 161.03 357.17C161.26 356.93 161.38 356.61 161.38 356.21V351.12H162.9V356.33C162.9 357.15 162.62 357.8 162.07 358.29C161.52 358.78 160.81 359.02 159.94 359.02Z" fill="#E4E5FF"/>
<path d="M166.921 359.02C166.151 359.02 165.511 358.85 164.991 358.51C164.471 358.17 164.101 357.7 163.881 357.11L165.181 356.35C165.481 357.14 166.081 357.53 166.961 357.53C167.391 357.53 167.701 357.45 167.901 357.3C168.101 357.15 168.201 356.95 168.201 356.71C168.201 356.44 168.081 356.22 167.831 356.07C167.591 355.92 167.151 355.76 166.531 355.58C166.181 355.48 165.891 355.37 165.651 355.27C165.411 355.17 165.171 355.03 164.931 354.86C164.691 354.69 164.511 354.47 164.381 354.2C164.251 353.93 164.191 353.63 164.191 353.27C164.191 352.57 164.441 352.01 164.941 351.6C165.441 351.18 166.041 350.97 166.741 350.97C167.371 350.97 167.921 351.12 168.391 351.43C168.871 351.74 169.241 352.16 169.501 352.71L168.221 353.45C167.911 352.79 167.421 352.46 166.741 352.46C166.421 352.46 166.171 352.53 165.991 352.68C165.811 352.82 165.721 353.01 165.721 353.24C165.721 353.48 165.821 353.68 166.021 353.83C166.221 353.98 166.611 354.15 167.191 354.32C167.431 354.39 167.601 354.45 167.731 354.49C167.851 354.53 168.021 354.59 168.231 354.68C168.441 354.77 168.601 354.84 168.721 354.92C168.831 354.99 168.971 355.09 169.111 355.22C169.261 355.35 169.371 355.47 169.451 355.61C169.531 355.74 169.591 355.9 169.651 356.09C169.701 356.28 169.731 356.48 169.731 356.7C169.731 357.41 169.471 357.98 168.951 358.4C168.431 358.81 167.751 359.02 166.921 359.02Z" fill="#E4E5FF"/>
<path d="M173.74 351.13C174.8 351.13 175.69 351.5 176.4 352.25C177.11 352.99 177.47 353.91 177.47 355C177.47 356.09 177.11 357.01 176.4 357.75C175.69 358.49 174.8 358.87 173.74 358.87H170.67V351.13H173.74ZM173.74 357.41C174.41 357.41 174.96 357.19 175.38 356.74C175.8 356.29 176.01 355.71 176.01 355C176.01 354.29 175.8 353.7 175.38 353.26C174.96 352.81 174.41 352.59 173.74 352.59H172.19V357.41H173.74Z" fill="#E4E5FF"/>
<path d="M183.221 351.13V352.59H181.131V358.87H179.611V352.59H177.531V351.13H183.221Z" fill="#E4E5FF"/>
<path d="M317.229 356.11C317.229 356.92 316.969 357.59 316.449 358.1C315.929 358.61 315.249 358.92 314.399 359.03V360.31H313.469V359.05C312.669 359 311.989 358.79 311.429 358.4C310.859 358.02 310.459 357.49 310.209 356.83L311.629 356.01C311.969 356.85 312.579 357.32 313.469 357.42V354.43C313.039 354.27 312.689 354.12 312.419 353.99C312.149 353.86 311.869 353.68 311.569 353.45C311.269 353.22 311.039 352.94 310.889 352.61C310.739 352.28 310.669 351.89 310.669 351.45C310.669 350.65 310.939 349.99 311.479 349.5C312.019 349 312.679 348.71 313.479 348.64V347.38H314.409V348.66C315.689 348.83 316.579 349.49 317.079 350.63L315.689 351.44C315.439 350.82 315.009 350.44 314.409 350.3V353.15C314.719 353.27 314.949 353.36 315.109 353.42C315.269 353.49 315.479 353.59 315.739 353.72C315.999 353.85 316.209 353.99 316.349 354.12C316.489 354.25 316.639 354.42 316.799 354.61C316.959 354.8 317.069 355.02 317.139 355.28C317.199 355.52 317.229 355.8 317.229 356.11ZM312.319 351.45C312.319 351.75 312.409 351.99 312.589 352.18C312.769 352.37 313.059 352.56 313.469 352.75V350.25C313.119 350.31 312.839 350.44 312.629 350.65C312.419 350.87 312.319 351.13 312.319 351.45ZM314.399 357.4C314.779 357.32 315.079 357.17 315.279 356.94C315.479 356.71 315.579 356.44 315.579 356.12C315.579 355.8 315.479 355.55 315.289 355.35C315.099 355.15 314.799 354.96 314.399 354.78V357.4Z" fill="#E4E5FF"/>
<path d="M318.11 358.87V357.58L321.62 354C322.47 353.15 322.9 352.41 322.9 351.79C322.9 351.3 322.75 350.92 322.46 350.65C322.17 350.38 321.8 350.24 321.35 350.24C320.51 350.24 319.88 350.66 319.48 351.49L318.09 350.67C318.41 350 318.85 349.49 319.43 349.15C320 348.8 320.64 348.63 321.34 348.63C322.22 348.63 322.98 348.91 323.61 349.46C324.24 350.02 324.56 350.77 324.56 351.73C324.56 352.75 323.98 353.84 322.83 354.99L320.55 357.28H324.75V358.88H318.11V358.87Z" fill="#E4E5FF"/>
<path d="M332.669 352.05C332.669 352.82 332.469 353.49 332.069 354.08L328.889 358.87H326.989L329.279 355.49H329.109C328.069 355.49 327.209 355.17 326.549 354.53C325.889 353.89 325.549 353.07 325.549 352.05C325.549 351.03 325.879 350.21 326.549 349.57C327.219 348.93 328.069 348.61 329.109 348.61C330.149 348.61 331.009 348.93 331.669 349.57C332.339 350.21 332.669 351.04 332.669 352.05ZM327.199 352.05C327.199 352.61 327.379 353.06 327.739 353.4C328.099 353.75 328.559 353.92 329.109 353.92C329.659 353.92 330.119 353.75 330.479 353.41C330.829 353.07 331.009 352.62 331.009 352.05C331.009 351.48 330.829 351.03 330.479 350.69C330.129 350.35 329.669 350.18 329.109 350.18C328.549 350.18 328.099 350.35 327.739 350.69C327.379 351.04 327.199 351.49 327.199 352.05Z" fill="#E4E5FF"/>
<path d="M334.07 357.14L333.06 360.88H331.77L332.34 357.14H334.07Z" fill="#E4E5FF"/>
<path d="M341.29 352.05C341.29 352.82 341.09 353.49 340.69 354.08L337.51 358.87H335.61L337.9 355.49H337.73C336.69 355.49 335.83 355.17 335.17 354.53C334.51 353.89 334.17 353.07 334.17 352.05C334.17 351.03 334.5 350.21 335.17 349.57C335.84 348.93 336.69 348.61 337.73 348.61C338.77 348.61 339.63 348.93 340.29 349.57C340.96 350.21 341.29 351.04 341.29 352.05ZM335.83 352.05C335.83 352.61 336.01 353.06 336.37 353.4C336.73 353.75 337.19 353.92 337.74 353.92C338.29 353.92 338.75 353.75 339.11 353.41C339.46 353.07 339.64 352.62 339.64 352.05C339.64 351.48 339.46 351.03 339.11 350.69C338.76 350.35 338.3 350.18 337.74 350.18C337.18 350.18 336.73 350.35 336.37 350.69C336.01 351.04 335.83 351.49 335.83 352.05Z" fill="#E4E5FF"/>
<path d="M347.728 353.63C348.718 354.18 349.208 354.99 349.208 356.07C349.208 356.99 348.888 357.72 348.248 358.25C347.608 358.78 346.758 359.05 345.688 359.05C344.618 359.05 343.768 358.78 343.118 358.25C342.468 357.72 342.148 356.99 342.148 356.07C342.148 355.55 342.278 355.08 342.538 354.65C342.798 354.22 343.158 353.88 343.628 353.62C342.868 353.12 342.488 352.41 342.488 351.49C342.488 350.57 342.798 349.86 343.408 349.36C344.018 348.86 344.778 348.61 345.678 348.61C346.568 348.61 347.328 348.86 347.938 349.36C348.558 349.86 348.868 350.57 348.868 351.49C348.878 352.43 348.488 353.14 347.728 353.63ZM345.688 357.49C346.248 357.49 346.698 357.35 347.038 357.08C347.388 356.81 347.558 356.42 347.558 355.92C347.558 355.42 347.388 355.04 347.038 354.76C346.688 354.49 346.238 354.35 345.688 354.35C345.118 354.35 344.668 354.49 344.318 354.76C343.978 355.03 343.798 355.42 343.798 355.92C343.798 356.42 343.968 356.8 344.318 357.08C344.658 357.35 345.118 357.49 345.688 357.49ZM345.688 350.19C345.238 350.19 344.868 350.31 344.578 350.55C344.288 350.79 344.148 351.13 344.148 351.58C344.148 352.01 344.298 352.35 344.588 352.6C344.878 352.85 345.248 352.97 345.688 352.97C346.118 352.97 346.488 352.85 346.778 352.6C347.078 352.35 347.228 352.01 347.228 351.58C347.228 351.13 347.078 350.79 346.788 350.55C346.488 350.3 346.128 350.19 345.688 350.19Z" fill="#E4E5FF"/>
<path d="M355.789 353.63C356.779 354.18 357.269 354.99 357.269 356.07C357.269 356.99 356.949 357.72 356.309 358.25C355.669 358.78 354.819 359.05 353.749 359.05C352.679 359.05 351.829 358.78 351.179 358.25C350.529 357.72 350.209 356.99 350.209 356.07C350.209 355.55 350.339 355.08 350.599 354.65C350.859 354.22 351.219 353.88 351.689 353.62C350.929 353.12 350.549 352.41 350.549 351.49C350.549 350.57 350.859 349.86 351.469 349.36C352.079 348.86 352.839 348.61 353.739 348.61C354.629 348.61 355.389 348.86 355.999 349.36C356.619 349.86 356.929 350.57 356.929 351.49C356.939 352.43 356.549 353.14 355.789 353.63ZM353.749 357.49C354.309 357.49 354.759 357.35 355.099 357.08C355.449 356.81 355.619 356.42 355.619 355.92C355.619 355.42 355.449 355.04 355.099 354.76C354.749 354.49 354.299 354.35 353.749 354.35C353.179 354.35 352.729 354.49 352.379 354.76C352.039 355.03 351.859 355.42 351.859 355.92C351.859 356.42 352.029 356.8 352.379 357.08C352.729 357.35 353.179 357.49 353.749 357.49ZM353.749 350.19C353.299 350.19 352.929 350.31 352.639 350.55C352.349 350.79 352.209 351.13 352.209 351.58C352.209 352.01 352.359 352.35 352.649 352.6C352.939 352.85 353.309 352.97 353.749 352.97C354.179 352.97 354.549 352.85 354.839 352.6C355.139 352.35 355.289 352.01 355.289 351.58C355.289 351.13 355.139 350.79 354.849 350.55C354.549 350.3 354.189 350.19 353.749 350.19Z" fill="#E4E5FF"/>
<path d="M360.369 358.72C360.159 358.93 359.909 359.04 359.609 359.04C359.309 359.04 359.059 358.93 358.849 358.72C358.639 358.51 358.529 358.26 358.529 357.96C358.529 357.66 358.629 357.41 358.839 357.2C359.049 356.99 359.299 356.88 359.609 356.88C359.909 356.88 360.159 356.99 360.369 357.2C360.579 357.41 360.689 357.66 360.689 357.96C360.689 358.26 360.579 358.51 360.369 358.72Z" fill="#E4E5FF"/>
<path d="M367.899 352.05C367.899 352.82 367.699 353.49 367.299 354.08L364.119 358.87H362.219L364.509 355.49H364.339C363.299 355.49 362.439 355.17 361.779 354.53C361.119 353.89 360.779 353.07 360.779 352.05C360.779 351.03 361.109 350.21 361.779 349.57C362.449 348.93 363.299 348.61 364.339 348.61C365.379 348.61 366.239 348.93 366.899 349.57C367.569 350.21 367.899 351.04 367.899 352.05ZM362.439 352.05C362.439 352.61 362.619 353.06 362.979 353.4C363.339 353.75 363.799 353.92 364.349 353.92C364.899 353.92 365.359 353.75 365.719 353.41C366.069 353.07 366.249 352.62 366.249 352.05C366.249 351.48 366.069 351.03 365.719 350.69C365.369 350.35 364.909 350.18 364.349 350.18C363.789 350.18 363.339 350.35 362.979 350.69C362.619 351.04 362.439 351.49 362.439 352.05Z" fill="#E4E5FF"/>
<path d="M368.189 348.81H374.589V350.25L371.049 358.87H369.309L372.789 350.39H368.189V348.81Z" fill="#E4E5FF"/>
<path d="M493.59 357.63C492.9 358.58 491.93 359.05 490.68 359.05C489.43 359.05 488.46 358.58 487.77 357.63C487.08 356.68 486.73 355.42 486.73 353.84C486.73 352.26 487.08 350.99 487.77 350.05C488.46 349.1 489.43 348.63 490.68 348.63C491.93 348.63 492.89 349.1 493.59 350.05C494.28 351 494.63 352.26 494.63 353.84C494.63 355.42 494.28 356.68 493.59 357.63ZM490.68 357.44C491.43 357.44 492 357.13 492.39 356.51C492.78 355.89 492.98 355 492.98 353.84C492.98 352.68 492.78 351.79 492.39 351.17C492 350.55 491.43 350.24 490.68 350.24C489.94 350.24 489.37 350.55 488.98 351.17C488.58 351.79 488.38 352.68 488.38 353.84C488.38 355 488.58 355.89 488.98 356.51C489.37 357.13 489.94 357.44 490.68 357.44Z" fill="#FF6497"/>
<path d="M497.381 358.72C497.171 358.93 496.921 359.04 496.621 359.04C496.321 359.04 496.071 358.93 495.861 358.72C495.651 358.51 495.541 358.26 495.541 357.96C495.541 357.66 495.641 357.41 495.851 357.2C496.061 356.99 496.311 356.88 496.621 356.88C496.921 356.88 497.171 356.99 497.381 357.2C497.591 357.41 497.701 357.66 497.701 357.96C497.691 358.26 497.591 358.51 497.381 358.72Z" fill="#FF6497"/>
<path d="M498.65 348.81H505.05V350.25L501.51 358.87H499.77L503.25 350.39H498.65V348.81Z" fill="#FF6497"/>
<path d="M510.231 352.55C509.791 353 509.231 353.22 508.561 353.22C507.891 353.22 507.331 353 506.881 352.55C506.431 352.11 506.201 351.56 506.201 350.92C506.201 350.28 506.431 349.73 506.881 349.29C507.331 348.85 507.891 348.62 508.561 348.62C509.231 348.62 509.791 348.84 510.231 349.28C510.681 349.72 510.901 350.27 510.901 350.92C510.901 351.56 510.671 352.1 510.231 352.55ZM507.051 357.39L513.681 350.02L514.461 350.47L507.831 357.86L507.051 357.39ZM508.541 351.95C508.851 351.95 509.101 351.85 509.291 351.65C509.481 351.45 509.581 351.2 509.581 350.92C509.581 350.62 509.481 350.37 509.291 350.17C509.101 349.97 508.851 349.87 508.541 349.87C508.241 349.87 508.001 349.97 507.811 350.17C507.621 350.37 507.521 350.62 507.521 350.92C507.521 351.21 507.621 351.45 507.811 351.65C508.001 351.85 508.241 351.95 508.541 351.95ZM513.151 359.04C512.481 359.04 511.921 358.82 511.471 358.37C511.021 357.93 510.791 357.38 510.791 356.74C510.791 356.1 511.021 355.55 511.471 355.11C511.921 354.66 512.481 354.44 513.151 354.44C513.811 354.44 514.371 354.66 514.821 355.11C515.271 355.56 515.501 356.1 515.501 356.74C515.501 357.38 515.271 357.93 514.821 358.37C514.371 358.81 513.811 359.04 513.151 359.04ZM513.141 357.77C513.451 357.77 513.701 357.67 513.891 357.47C514.081 357.27 514.181 357.02 514.181 356.74C514.181 356.44 514.081 356.19 513.891 355.99C513.701 355.79 513.451 355.69 513.141 355.69C512.841 355.69 512.601 355.79 512.411 355.99C512.221 356.19 512.121 356.44 512.121 356.74C512.121 357.03 512.221 357.27 512.411 357.47C512.601 357.67 512.841 357.77 513.141 357.77Z" fill="#FF6497"/>
<path d="M72.6591 395.42H70.7391L70.4691 397.01H72.3991L72.1191 398.73H70.1791L69.7091 401.53H67.9291L68.3991 398.73H66.5791L66.1091 401.53H64.3291L64.7991 398.73H62.8691L63.1491 397.01H65.0791L65.3491 395.42H63.3991L63.6791 393.69H65.6491L66.1191 390.91H67.8891L67.4191 393.69H69.2491L69.7191 390.91H71.4991L71.0291 393.69H72.9391L72.6591 395.42ZM68.6991 397.02L68.9691 395.43H67.1391L66.8691 397.02H68.6991Z" fill="#E4E5FF"/>
<path d="M79.6093 395.05C80.4493 395.3 81.1293 395.73 81.6493 396.35C82.1693 396.97 82.4393 397.72 82.4393 398.59C82.4393 399.86 82.0093 400.86 81.1593 401.58C80.3093 402.3 79.2593 402.66 78.0193 402.66C77.0493 402.66 76.1893 402.44 75.4293 402C74.6693 401.56 74.1193 400.91 73.7793 400.05L75.8693 398.85C76.1793 399.81 76.8993 400.28 78.0293 400.28C78.6493 400.28 79.1393 400.13 79.4893 399.83C79.8393 399.53 80.0093 399.12 80.0093 398.6C80.0093 398.09 79.8393 397.69 79.4893 397.38C79.1393 397.07 78.6593 396.92 78.0293 396.92H77.4993L76.5593 395.51L78.9993 392.33H74.1493V390.05H81.9293V392.07L79.6093 395.05Z" fill="#E4E5FF"/>
<path d="M114.109 404.74H111.469L107.319 399.3V404.74H105.029V393.13H107.319V398.24L111.299 393.13H113.939L109.649 398.77L114.109 404.74Z" fill="#E4E5FF"/>
<path d="M124.009 403.22C122.839 404.39 121.409 404.97 119.729 404.97C118.049 404.97 116.629 404.39 115.459 403.22C114.289 402.05 113.709 400.63 113.709 398.93C113.709 397.23 114.289 395.81 115.459 394.64C116.629 393.47 118.049 392.89 119.729 392.89C121.409 392.89 122.839 393.47 124.009 394.64C125.179 395.81 125.769 397.23 125.769 398.93C125.769 400.63 125.179 402.06 124.009 403.22ZM117.059 401.66C117.779 402.37 118.669 402.73 119.729 402.73C120.789 402.73 121.679 402.37 122.399 401.66C123.119 400.95 123.479 400.04 123.479 398.93C123.479 397.82 123.119 396.91 122.399 396.19C121.679 395.47 120.789 395.11 119.729 395.11C118.669 395.11 117.779 395.47 117.059 396.19C116.339 396.91 115.979 397.82 115.979 398.93C115.979 400.04 116.339 400.95 117.059 401.66Z" fill="#E4E5FF"/>
<path d="M134.089 393.13H136.379V404.74H134.639L129.669 397.64V404.74H127.379V393.13H129.119L134.099 400.2L134.089 393.13Z" fill="#E4E5FF"/>
<path d="M149.93 398.5V399.4C149.93 401.06 149.4 402.4 148.34 403.43C147.28 404.46 145.91 404.97 144.23 404.97C142.44 404.97 140.96 404.39 139.78 403.22C138.6 402.05 138.01 400.63 138.01 398.95C138.01 397.26 138.59 395.83 139.76 394.66C140.93 393.49 142.37 392.9 144.1 392.9C145.18 392.9 146.17 393.15 147.07 393.64C147.97 394.13 148.66 394.79 149.16 395.6L147.2 396.73C146.92 396.25 146.51 395.87 145.95 395.57C145.39 395.27 144.77 395.12 144.08 395.12C142.97 395.12 142.06 395.48 141.35 396.21C140.64 396.93 140.28 397.85 140.28 398.95C140.28 400.04 140.64 400.95 141.37 401.66C142.09 402.37 143.05 402.73 144.25 402.73C145.13 402.73 145.87 402.53 146.45 402.14C147.03 401.75 147.43 401.21 147.64 400.52H144.12V398.5H149.93Z" fill="#E4E5FF"/>
<path d="M151.47 405.84H150.84L155.26 395.89H155.89L151.47 405.84Z" fill="#E4E5FF"/>
<path d="M158.47 404.74L156.42 397H158.02L159.51 402.74L161.12 397H162.44L164.06 402.72L165.53 397H167L164.97 404.74H163.23L161.76 399.61L160.3 404.74H158.47Z" fill="#E4E5FF"/>
<path d="M169.54 403.28H172.8V404.74H168.01V397H172.74V398.46H169.53V400.11H172.46V401.55H169.53V403.28H169.54Z" fill="#E4E5FF"/>
<path d="M178.989 397V398.46H176.899V404.74H175.379V398.46H173.299V397H178.989Z" fill="#E4E5FF"/>
<path d="M184.24 397H185.75V404.74H184.24V401.53H181.37V404.74H179.84V397H181.37V400.07H184.24V397Z" fill="#E4E5FF"/>
<path d="M322.799 401.98C322.799 402.79 322.539 403.46 322.019 403.97C321.499 404.48 320.819 404.79 319.969 404.9V406.18H319.039V404.92C318.239 404.87 317.559 404.66 316.999 404.27C316.429 403.89 316.029 403.36 315.779 402.7L317.199 401.88C317.539 402.72 318.149 403.19 319.039 403.29V400.3C318.609 400.14 318.259 399.99 317.989 399.86C317.719 399.73 317.439 399.55 317.139 399.32C316.839 399.09 316.609 398.81 316.459 398.48C316.309 398.15 316.239 397.76 316.239 397.32C316.239 396.52 316.509 395.86 317.049 395.37C317.589 394.87 318.249 394.58 319.049 394.51V393.25H319.979V394.53C321.259 394.7 322.149 395.36 322.649 396.5L321.259 397.31C321.009 396.69 320.579 396.31 319.979 396.17V399.02C320.289 399.14 320.519 399.23 320.679 399.29C320.839 399.36 321.049 399.46 321.309 399.59C321.569 399.72 321.779 399.86 321.919 399.99C322.059 400.12 322.209 400.29 322.369 400.48C322.529 400.67 322.639 400.89 322.709 401.15C322.759 401.39 322.799 401.67 322.799 401.98ZM317.879 397.32C317.879 397.62 317.969 397.86 318.149 398.05C318.329 398.24 318.619 398.43 319.029 398.62V396.12C318.679 396.18 318.399 396.31 318.189 396.52C317.979 396.74 317.879 397.01 317.879 397.32ZM319.969 403.27C320.349 403.19 320.649 403.04 320.849 402.81C321.049 402.58 321.149 402.31 321.149 401.99C321.149 401.67 321.049 401.42 320.859 401.22C320.669 401.02 320.369 400.83 319.969 400.65V403.27Z" fill="#E4E5FF"/>
<path d="M330.659 403.5C329.969 404.45 328.999 404.92 327.749 404.92C326.499 404.92 325.529 404.45 324.839 403.5C324.149 402.55 323.799 401.29 323.799 399.71C323.799 398.13 324.149 396.86 324.839 395.92C325.529 394.97 326.499 394.5 327.749 394.5C328.999 394.5 329.959 394.97 330.659 395.92C331.349 396.87 331.699 398.13 331.699 399.71C331.709 401.29 331.359 402.55 330.659 403.5ZM327.759 403.32C328.509 403.32 329.079 403.01 329.469 402.39C329.859 401.77 330.059 400.88 330.059 399.72C330.059 398.56 329.859 397.67 329.469 397.05C329.079 396.43 328.509 396.12 327.759 396.12C327.019 396.12 326.449 396.43 326.059 397.05C325.659 397.67 325.459 398.56 325.459 399.72C325.459 400.88 325.659 401.77 326.059 402.39C326.449 403.01 327.019 403.32 327.759 403.32Z" fill="#E4E5FF"/>
<path d="M334.449 404.6C334.239 404.81 333.989 404.92 333.689 404.92C333.389 404.92 333.139 404.81 332.929 404.6C332.719 404.39 332.609 404.14 332.609 403.84C332.609 403.54 332.709 403.29 332.919 403.08C333.129 402.87 333.379 402.76 333.689 402.76C333.989 402.76 334.239 402.87 334.449 403.08C334.659 403.29 334.769 403.54 334.769 403.84C334.769 404.13 334.659 404.39 334.449 404.6Z" fill="#E4E5FF"/>
<path d="M342.52 403.5C341.83 404.45 340.86 404.92 339.61 404.92C338.36 404.92 337.39 404.45 336.7 403.5C336.01 402.55 335.66 401.29 335.66 399.71C335.66 398.13 336.01 396.86 336.7 395.92C337.39 394.97 338.36 394.5 339.61 394.5C340.86 394.5 341.82 394.97 342.52 395.92C343.21 396.87 343.56 398.13 343.56 399.71C343.56 401.29 343.22 402.55 342.52 403.5ZM339.61 403.32C340.36 403.32 340.93 403.01 341.32 402.39C341.71 401.77 341.91 400.88 341.91 399.72C341.91 398.56 341.71 397.67 341.32 397.05C340.93 396.43 340.36 396.12 339.61 396.12C338.87 396.12 338.3 396.43 337.91 397.05C337.51 397.67 337.31 398.56 337.31 399.72C337.31 400.88 337.51 401.77 337.91 402.39C338.31 403.01 338.87 403.32 339.61 403.32Z" fill="#E4E5FF"/>
<path d="M346.429 405.87C346.989 405.87 347.469 406.04 347.849 406.37C348.239 406.7 348.429 407.16 348.429 407.75C348.429 408.34 348.229 408.8 347.839 409.13C347.439 409.46 346.959 409.63 346.379 409.63C345.919 409.63 345.509 409.52 345.149 409.31C344.789 409.09 344.539 408.78 344.389 408.38L345.219 407.9C345.379 408.43 345.759 408.7 346.379 408.7C346.709 408.7 346.969 408.61 347.169 408.44C347.369 408.27 347.469 408.04 347.469 407.75C347.469 407.46 347.369 407.23 347.179 407.06C346.979 406.89 346.719 406.81 346.399 406.81H344.689L344.939 403.66H348.189V404.57H345.809L345.689 405.88L346.429 405.87Z" fill="#E4E5FF"/>
<path d="M351.529 394.68H352.969V404.74H351.319V396.45L349.289 397.02L348.889 395.61L351.529 394.68Z" fill="#E4E5FF"/>
<path d="M354.499 404.74V403.45L358.009 399.87C358.859 399.02 359.289 398.28 359.289 397.66C359.289 397.17 359.139 396.79 358.849 396.52C358.559 396.25 358.188 396.11 357.738 396.11C356.898 396.11 356.268 396.53 355.868 397.36L354.479 396.54C354.799 395.87 355.239 395.36 355.819 395.02C356.389 394.67 357.029 394.5 357.729 394.5C358.609 394.5 359.369 394.78 359.999 395.33C360.629 395.89 360.949 396.64 360.949 397.6C360.949 398.62 360.369 399.71 359.219 400.86L356.939 403.15H361.139V404.75H354.499V404.74Z" fill="#E4E5FF"/>
<path d="M361.58 394.68H367.98V396.12L364.44 404.74H362.7L366.18 396.26H361.58V394.68Z" fill="#E4E5FF"/>
<path d="M374.77 401.39V402.93H373.62V404.74H371.95V402.93H367.01V401.39L370.47 394.68H372.27L368.81 401.39H371.96V398.77H373.63V401.39H374.77Z" fill="#E4E5FF"/>
<path d="M483.839 394.68H485.279V404.74H483.629V396.45L481.599 397.02L481.199 395.61L483.839 394.68Z" fill="#E4E5FF"/>
<path d="M488.949 404.6C488.739 404.81 488.489 404.92 488.189 404.92C487.889 404.92 487.639 404.81 487.429 404.6C487.219 404.39 487.109 404.14 487.109 403.84C487.109 403.54 487.209 403.29 487.419 403.08C487.629 402.87 487.879 402.76 488.189 402.76C488.489 402.76 488.739 402.87 488.949 403.08C489.159 403.29 489.269 403.54 489.269 403.84C489.269 404.13 489.159 404.39 488.949 404.6Z" fill="#E4E5FF"/>
<path d="M496.1 399.51C497.09 400.06 497.58 400.87 497.58 401.95C497.58 402.87 497.26 403.6 496.62 404.13C495.98 404.66 495.13 404.93 494.06 404.93C493 404.93 492.14 404.66 491.49 404.13C490.84 403.6 490.52 402.87 490.52 401.95C490.52 401.43 490.65 400.96 490.91 400.53C491.17 400.1 491.53 399.76 492 399.5C491.24 399 490.86 398.29 490.86 397.37C490.86 396.45 491.17 395.74 491.78 395.24C492.39 394.74 493.15 394.49 494.05 394.49C494.94 394.49 495.7 394.74 496.31 395.24C496.93 395.74 497.24 396.45 497.24 397.37C497.25 398.3 496.86 399.01 496.1 399.51ZM494.06 403.36C494.62 403.36 495.07 403.22 495.41 402.95C495.76 402.68 495.93 402.29 495.93 401.79C495.93 401.29 495.76 400.91 495.41 400.63C495.06 400.36 494.61 400.22 494.06 400.22C493.49 400.22 493.04 400.36 492.69 400.63C492.35 400.9 492.17 401.29 492.17 401.79C492.17 402.29 492.34 402.67 492.69 402.95C493.04 403.22 493.49 403.36 494.06 403.36ZM494.06 396.06C493.61 396.06 493.24 396.18 492.95 396.42C492.66 396.66 492.52 397 492.52 397.45C492.52 397.88 492.67 398.22 492.96 398.47C493.25 398.72 493.62 398.84 494.06 398.84C494.49 398.84 494.86 398.72 495.15 398.47C495.45 398.22 495.6 397.88 495.6 397.45C495.6 397 495.45 396.66 495.16 396.42C494.86 396.18 494.5 396.06 494.06 396.06Z" fill="#E4E5FF"/>
<path d="M501.869 398.47C502.829 398.47 503.649 398.76 504.309 399.32C504.969 399.89 505.309 400.68 505.309 401.68C505.309 402.69 504.969 403.48 504.289 404.05C503.609 404.62 502.779 404.91 501.789 404.91C500.989 404.91 500.289 404.73 499.679 404.36C499.069 403.99 498.629 403.46 498.369 402.76L499.789 401.94C500.059 402.85 500.719 403.31 501.789 403.31C502.349 403.31 502.809 403.16 503.149 402.87C503.489 402.58 503.659 402.18 503.659 401.68C503.659 401.18 503.489 400.79 503.159 400.5C502.819 400.21 502.379 400.07 501.819 400.07H498.889L499.309 394.67H504.879V396.22H500.799L500.599 398.46H501.869V398.47Z" fill="#E4E5FF"/>
<path d="M510.229 398.42C509.789 398.87 509.229 399.09 508.559 399.09C507.889 399.09 507.329 398.87 506.879 398.42C506.429 397.98 506.199 397.43 506.199 396.79C506.199 396.15 506.429 395.6 506.879 395.16C507.329 394.71 507.889 394.49 508.559 394.49C509.229 394.49 509.789 394.71 510.229 395.15C510.679 395.59 510.899 396.14 510.899 396.79C510.899 397.43 510.679 397.98 510.229 398.42ZM507.049 403.26L513.679 395.89L514.459 396.34L507.829 403.73L507.049 403.26ZM508.539 397.83C508.849 397.83 509.099 397.73 509.289 397.53C509.479 397.33 509.579 397.08 509.579 396.8C509.579 396.5 509.479 396.25 509.289 396.05C509.099 395.85 508.849 395.75 508.539 395.75C508.239 395.75 507.999 395.85 507.809 396.05C507.619 396.25 507.519 396.5 507.519 396.8C507.519 397.09 507.619 397.33 507.809 397.53C507.999 397.73 508.239 397.83 508.539 397.83ZM513.149 404.91C512.479 404.91 511.919 404.69 511.469 404.24C511.019 403.8 510.789 403.25 510.789 402.61C510.789 401.97 511.019 401.42 511.469 400.98C511.919 400.53 512.479 400.31 513.149 400.31C513.809 400.31 514.369 400.53 514.819 400.98C515.269 401.43 515.499 401.97 515.499 402.61C515.499 403.25 515.269 403.8 514.819 404.24C514.369 404.69 513.819 404.91 513.149 404.91ZM513.139 403.65C513.449 403.65 513.699 403.55 513.889 403.35C514.079 403.15 514.179 402.9 514.179 402.62C514.179 402.32 514.079 402.07 513.889 401.87C513.699 401.67 513.449 401.57 513.139 401.57C512.839 401.57 512.599 401.67 512.409 401.87C512.219 402.07 512.119 402.32 512.119 402.62C512.119 402.91 512.219 403.15 512.409 403.35C512.599 403.55 512.839 403.65 513.139 403.65Z" fill="#E4E5FF"/>
<path d="M474.76 313.07H466.99L467.9 312.16L469.78 310.28L468.74 309.25L470.81 307.18L471.85 308.21L473.85 306.21L474.76 305.3V313.07Z" fill="#E4E5FF"/>
<path d="M480.84 358.95L473.07 358.94L473.98 358.04L475.85 356.16L474.82 355.12L476.89 353.05L477.93 354.09L479.93 352.08L480.84 351.17V358.95Z" fill="#FF6497"/>
<path d="M476.42 397.05H468.65L469.56 397.96L471.43 399.83L470.4 400.87L472.47 402.94L473.5 401.91L475.51 403.91L476.42 404.82V397.05Z" fill="#E4E5FF"/>
<path d="M96.7099 58.41C98.4199 58.41 99.8499 59 101 60.19C102.15 61.38 102.72 62.85 102.72 64.6C102.72 66.36 102.15 67.83 101 69.01C99.8499 70.2 98.4199 70.79 96.7099 70.79H91.6699V58.41H96.7099ZM96.7099 67.73C97.5699 67.73 98.2699 67.44 98.8099 66.87C99.3499 66.3 99.6199 65.54 99.6199 64.6C99.6199 63.66 99.3499 62.9 98.8099 62.33C98.2699 61.76 97.5699 61.47 96.7099 61.47H94.9199V67.73H96.7099Z" fill="#E4E5FF"/>
<path d="M111.629 70.79L111.039 69H106.829L106.299 70.79H102.869L106.819 58.41H110.809L114.909 70.79H111.629ZM107.639 66.28H110.129L108.869 62.07L107.639 66.28Z" fill="#E4E5FF"/>
<path d="M115.971 58.41H119.141V70.79H115.971V58.41Z" fill="#E4E5FF"/>
<path d="M124.43 67.73H128.69V70.79H121.26V58.41H124.43V67.73Z" fill="#E4E5FF"/>
<path d="M138.959 58.41L134.789 66.03V70.79H131.619V66.07L127.449 58.41H131.009L133.199 62.99L135.409 58.41H138.959Z" fill="#E4E5FF"/>
<path d="M156.6 63.69V64.95C156.6 66.77 156.03 68.24 154.89 69.36C153.75 70.49 152.28 71.05 150.46 71.05C148.53 71.05 146.94 70.43 145.69 69.19C144.45 67.95 143.82 66.43 143.82 64.61C143.82 62.79 144.44 61.26 145.68 60.01C146.92 58.76 148.45 58.14 150.28 58.14C151.44 58.14 152.49 58.4 153.45 58.92C154.41 59.44 155.16 60.13 155.71 60.99L153.02 62.53C152.77 62.14 152.41 61.83 151.93 61.59C151.45 61.35 150.91 61.24 150.31 61.24C149.33 61.24 148.53 61.56 147.9 62.19C147.27 62.82 146.96 63.64 146.96 64.63C146.96 65.59 147.27 66.39 147.89 67.05C148.51 67.71 149.38 68.04 150.5 68.04C151.94 68.04 152.89 67.5 153.35 66.41H150.34V63.69H156.6Z" fill="#E4E5FF"/>
<path d="M165.51 70.79L164.91 69H160.7L160.17 70.79H156.74L160.69 58.41H164.68L168.78 70.79H165.51ZM161.51 66.28H164L162.74 62.07L161.51 66.28Z" fill="#E4E5FF"/>
<path d="M169.84 58.41H173.01V70.79H169.84V58.41Z" fill="#E4E5FF"/>
<path d="M181.961 58.41H185.111V70.79H182.671L178.301 64.56V70.79H175.131V58.41H177.591L181.961 64.64V58.41Z" fill="#E4E5FF"/>
<path d="M190.41 67.81H195.2V70.78H187.24V58.41H195.11V61.36H190.41V63.08H194.67V66H190.41V67.81Z" fill="#E4E5FF"/>
<path d="M203.341 70.79L201.181 66.79H200.051V70.79H196.881V58.41H201.831C203.091 58.41 204.151 58.81 205.001 59.62C205.851 60.43 206.281 61.45 206.281 62.69C206.281 63.43 206.091 64.11 205.711 64.73C205.331 65.35 204.821 65.84 204.171 66.21L206.721 70.79H203.341ZM200.051 61.32V64.1H201.801C202.191 64.11 202.511 63.99 202.761 63.73C203.011 63.47 203.131 63.14 203.131 62.72C203.131 62.3 203.011 61.97 202.761 61.71C202.511 61.45 202.191 61.32 201.801 61.32H200.051Z" fill="#E4E5FF"/>
<path d="M212.259 71.05C210.949 71.05 209.869 70.77 209.009 70.22C208.149 69.67 207.549 68.92 207.209 67.97L209.919 66.4C210.379 67.5 211.189 68.05 212.359 68.05C213.329 68.05 213.809 67.78 213.809 67.23C213.809 66.87 213.529 66.58 212.969 66.35C212.729 66.25 212.219 66.09 211.419 65.86C210.289 65.53 209.389 65.07 208.729 64.47C208.069 63.88 207.739 63.05 207.739 61.99C207.739 60.85 208.149 59.92 208.969 59.21C209.789 58.5 210.809 58.15 212.039 58.15C213.079 58.15 213.999 58.39 214.799 58.87C215.599 59.35 216.209 60.06 216.639 60.98L213.989 62.54C213.599 61.62 212.959 61.16 212.059 61.16C211.679 61.16 211.399 61.24 211.199 61.39C211.009 61.54 210.909 61.74 210.909 61.98C210.909 62.25 211.049 62.48 211.339 62.67C211.629 62.86 212.189 63.08 213.029 63.33C213.619 63.54 214.099 63.72 214.469 63.85C214.839 63.98 215.249 64.2 215.679 64.48C216.119 64.77 216.439 65.14 216.649 65.59C216.859 66.04 216.969 66.58 216.969 67.19C216.969 68.4 216.539 69.35 215.679 70.04C214.809 70.71 213.669 71.05 212.259 71.05Z" fill="#E4E5FF"/>
<path d="M81.4699 61.44C81.4699 62.35 81.4699 63.26 81.4699 64.17C81.4699 64.34 81.3999 64.47 81.2499 64.54C81.0699 64.62 80.9199 64.59 80.7799 64.45C80.2599 63.94 79.7399 63.42 79.2299 62.91C79.1499 62.83 79.0899 62.84 79.0199 62.91C78.7499 63.2 78.4799 63.49 78.2099 63.78C77.7999 64.22 77.3799 64.66 76.9799 65.1C76.5699 65.55 76.1599 66 75.7499 66.45C75.4599 66.76 75.1799 67.08 74.8799 67.39C74.5699 67.72 74.2799 68.06 73.9799 68.39C73.7299 68.67 73.4699 68.93 73.2099 69.21C73.1799 69.24 73.1599 69.27 73.1399 69.3C72.9299 69.56 72.6899 69.59 72.4399 69.36C71.9199 68.88 71.3999 68.4 70.8799 67.92C70.5699 67.64 70.2699 67.36 69.9599 67.08C69.8999 67.02 69.8399 66.96 69.7799 66.91C69.7199 66.86 69.6699 66.86 69.6099 66.92C69.3699 67.19 69.1299 67.45 68.8899 67.72C68.3099 68.36 67.7299 68.99 67.1499 69.63C66.7899 70.02 66.4399 70.42 66.0799 70.81C65.8899 71.02 65.6699 71.04 65.4599 70.83C64.9899 70.38 64.5299 69.93 64.0699 69.47C63.8699 69.27 63.8699 69.04 64.0699 68.84C64.3399 68.56 64.5999 68.27 64.8599 67.98C65.2399 67.57 65.6199 67.15 65.9999 66.74C66.5599 66.12 67.1199 65.5 67.6899 64.88C68.1599 64.38 68.6399 63.88 69.0899 63.36C69.2599 63.17 69.4899 63.16 69.6899 63.34C69.9599 63.57 70.2099 63.82 70.4799 64.06C70.9199 64.46 71.3599 64.86 71.7999 65.26C72.0199 65.46 72.2399 65.65 72.4499 65.85C72.5099 65.91 72.5499 65.91 72.6099 65.85C72.8099 65.67 72.9699 65.46 73.1499 65.27C73.6599 64.71 74.1699 64.15 74.6699 63.58C75.0599 63.14 75.4499 62.71 75.8399 62.27C76.2399 61.82 76.6399 61.37 77.0399 60.92C77.1099 60.85 77.1099 60.81 77.0399 60.74C76.6099 60.31 76.1799 59.88 75.7599 59.45C75.6099 59.3 75.4699 59.15 75.3199 59C75.1899 58.87 75.0999 58.74 75.1799 58.54C75.2599 58.34 75.4199 58.27 75.6099 58.27C75.9499 58.26 76.2999 58.27 76.6399 58.27C78.0799 58.27 79.5199 58.27 80.9599 58.27C81.0399 58.27 81.1099 58.28 81.1799 58.3C81.3499 58.34 81.4599 58.46 81.4599 58.64C81.4699 59.03 81.4699 59.42 81.4699 59.81C81.4699 60.33 81.4699 60.88 81.4699 61.44Z" fill="#E4E5FF"/>
<path d="M98.3199 256.83H101.47V269.21H98.3199V264.45H94.8399V269.21H91.6699V256.83H94.8399V261.41H98.3199V256.83Z" fill="#E4E5FF"/>
<path d="M114.231 267.61C112.971 268.85 111.441 269.48 109.621 269.48C107.801 269.48 106.271 268.86 105.011 267.61C103.751 266.36 103.131 264.84 103.131 263.02C103.131 261.21 103.761 259.67 105.011 258.43C106.261 257.19 107.801 256.56 109.621 256.56C111.441 256.56 112.971 257.18 114.231 258.43C115.491 259.68 116.111 261.2 116.111 263.02C116.111 264.83 115.491 266.36 114.231 267.61ZM107.241 265.43C107.881 266.06 108.671 266.38 109.631 266.38C110.591 266.38 111.381 266.07 112.021 265.43C112.661 264.8 112.981 263.99 112.981 263.02C112.981 262.04 112.661 261.24 112.021 260.61C111.381 259.98 110.591 259.66 109.631 259.66C108.671 259.66 107.881 259.97 107.241 260.61C106.601 261.24 106.281 262.05 106.281 263.02C106.281 264 106.601 264.8 107.241 265.43Z" fill="#E4E5FF"/>
<path d="M125.63 256.83V259.89H122.57V269.21H119.4V259.89H116.34V256.83H125.63Z" fill="#E4E5FF"/>
<path d="M135.961 256.83C137.211 256.83 138.261 257.24 139.111 258.05C139.961 258.86 140.381 259.9 140.381 261.16C140.381 262.42 139.961 263.46 139.111 264.27C138.261 265.08 137.211 265.49 135.961 265.49H134.311V269.2H131.141V256.82H135.961V256.83ZM135.961 262.49C136.311 262.49 136.611 262.37 136.851 262.12C137.091 261.87 137.211 261.55 137.211 261.16C137.211 260.77 137.091 260.46 136.851 260.21C136.611 259.97 136.311 259.85 135.961 259.85H134.311V262.49H135.961Z" fill="#E4E5FF"/>
<path d="M148.35 269.21L147.76 267.42H143.55L143.02 269.21H139.59L143.54 256.83H147.53L151.63 269.21H148.35ZM144.36 264.7H146.85L145.59 260.49L144.36 264.7Z" fill="#E4E5FF"/>
<path d="M152.689 256.83H155.859V269.21H152.689V256.83Z" fill="#E4E5FF"/>
<path d="M164.431 269.21L162.271 265.21H161.141V269.21H157.971V256.83H162.921C164.181 256.83 165.241 257.23 166.091 258.04C166.941 258.85 167.371 259.87 167.371 261.11C167.371 261.85 167.181 262.53 166.801 263.15C166.421 263.77 165.911 264.26 165.261 264.63L167.811 269.21H164.431ZM161.151 259.75V262.53H162.901C163.291 262.54 163.611 262.42 163.861 262.16C164.111 261.9 164.231 261.57 164.231 261.15C164.231 260.74 164.111 260.4 163.861 260.14C163.611 259.88 163.291 259.75 162.901 259.75H161.151Z" fill="#E4E5FF"/>
<path d="M173.351 269.47C172.041 269.47 170.961 269.19 170.101 268.64C169.241 268.09 168.641 267.34 168.301 266.39L171.011 264.82C171.471 265.92 172.281 266.47 173.451 266.47C174.421 266.47 174.901 266.2 174.901 265.65C174.901 265.29 174.621 265 174.061 264.77C173.821 264.67 173.311 264.51 172.511 264.28C171.381 263.95 170.481 263.49 169.821 262.89C169.161 262.3 168.831 261.47 168.831 260.41C168.831 259.27 169.241 258.34 170.061 257.63C170.881 256.92 171.901 256.57 173.131 256.57C174.171 256.57 175.091 256.81 175.891 257.29C176.691 257.77 177.301 258.48 177.731 259.4L175.081 260.96C174.691 260.04 174.051 259.58 173.151 259.58C172.771 259.58 172.491 259.66 172.291 259.81C172.101 259.96 172.001 260.16 172.001 260.4C172.001 260.67 172.141 260.9 172.431 261.09C172.721 261.28 173.281 261.5 174.121 261.75C174.711 261.96 175.191 262.14 175.561 262.27C175.931 262.4 176.341 262.62 176.771 262.9C177.211 263.19 177.531 263.56 177.741 264.01C177.951 264.46 178.061 265 178.061 265.61C178.061 266.82 177.631 267.77 176.771 268.46C175.901 269.13 174.761 269.47 173.351 269.47Z" fill="#E4E5FF"/>
<path d="M81.439 265.46C81.279 263.85 80.669 262.42 79.539 261.24C78.869 260.53 78.129 259.89 77.469 259.17C76.369 257.98 75.9591 256.57 76.1191 254.97C76.159 254.57 76.219 254.17 76.269 253.77C76.319 253.35 76.149 253 75.789 252.77C75.429 252.54 75.029 252.51 74.689 252.76C73.089 253.92 71.689 255.28 70.869 257.11C69.889 259.29 70.329 261.25 71.589 263.24C72.349 264.44 74.499 264.39 74.499 266.44C74.499 267.52 73.6191 268.39 72.549 268.39C68.979 268.39 69.299 263.55 69.309 263.08C69.329 261.6 68.039 262.58 67.589 263.22C67.149 263.85 66.979 264.57 66.919 265.32C66.899 265.55 66.919 265.79 66.919 266.03C66.879 269.52 69.179 272.48 72.579 273.26C76.079 274.06 79.559 272.22 80.919 268.98C81.369 267.85 81.559 266.67 81.439 265.46Z" fill="#E4E5FF"/>
</g>
<defs>
<clipPath id="clip0_1449_32050">
<rect width="584" height="468" fill="white"/>
</clipPath>
</defs>
</svg>
